<?xml version="1.0" encoding="UTF-8" standalone="no"?><svg xmlns="http://www.w3.org/2000/svg" xmlns:xlink="http://www.w3.org/1999/xlink" clip-rule="evenodd" stroke-miterlimit="10" viewBox="0 0 1920 1080"><desc>SVG generated by Keynote</desc><defs></defs><g transform="matrix(1.00, 0.00, -0.00, -1.00, 0.0, 1080.0)"><path d="M 0.0 1080.0 L 1920.0 1080.0 L 1920.0 0.0 L 0.0 0.0 Z M 0.0 1080.0 " fill="#FEFFFE"></path><text xml:space="preserve" font-family="SourceSansPro-Regular,Source Sans Pro" font-size="112.0" fill="#000000" transform="matrix(1.00, 0.00, -0.00, -1.00, 664.6, 874.6)">F</text><text xml:space="preserve" font-family="SourceSansPro-Regular,Source Sans Pro" font-size="112.0" fill="#000000" transform="matrix(1.00, 0.00, -0.00, -1.00, 717.7, 874.6)">r</text><text xml:space="preserve" font-family="SourceSansPro-Regular,Source Sans Pro" font-size="112.0" fill="#000000" transform="matrix(1.00, 0.00, -0.00, -1.00, 753.8, 874.6)">a</text><text xml:space="preserve" font-family="SourceSansPro-Regular,Source Sans Pro" font-size="112.0" fill="#000000" transform="matrix(1.00, 0.00, -0.00, -1.00, 811.1, 874.6)">m</text><text xml:space="preserve" font-family="SourceSansPro-Regular,Source Sans Pro" font-size="112.0" fill="#000000" transform="matrix(1.00, 0.00, -0.00, -1.00, 903.9, 874.6)">e</text><text xml:space="preserve" font-family="SourceSansPro-Regular,Source Sans Pro" font-size="112.0" fill="#000000" transform="matrix(1.00, 0.00, -0.00, -1.00, 959.5, 874.6)"> </text><text xml:space="preserve" font-family="SourceSansPro-Regular,Source Sans Pro" font-size="112.0" fill="#000000" transform="matrix(1.00, 0.00, -0.00, -1.00, 982.1, 874.6)">T</text><text xml:space="preserve" font-family="SourceSansPro-Regular,Source Sans Pro" font-size="112.0" fill="#000000" transform="matrix(1.00, 0.00, -0.00, -1.00, 1038.5, 874.6)">y</text><text xml:space="preserve" font-family="SourceSansPro-Regular,Source Sans Pro" font-size="112.0" fill="#000000" transform="matrix(1.00, 0.00, -0.00, -1.00, 1090.8, 874.6)">p</text><text xml:space="preserve" font-family="SourceSansPro-Regular,Source Sans Pro" font-size="112.0" fill="#000000" transform="matrix(1.00, 0.00, -0.00, -1.00, 1152.9, 874.6)">e</text><text xml:space="preserve" font-family="SourceSansPro-Regular,Source Sans Pro" font-size="112.0" fill="#000000" transform="matrix(1.00, 0.00, -0.00, -1.00, 1208.5, 874.6)">s</text><text xml:space="preserve" font-family="SourceSansPro-Regular,Source Sans Pro" font-size="33.8" fill="#000000" transform="matrix(1.00, 0.00, -0.00, -1.00, 290.1, 474.7)">•</text><text xml:space="preserve" font-family="SourceSansPro-Regular,Source Sans Pro" font-size="45.0" fill="#000000" transform="matrix(1.00, 0.00, -0.00, -1.00, 334.1, 470.8)">S</text><text xml:space="preserve" font-family="SourceSansPro-Regular,Source Sans Pro" font-size="45.0" fill="#000000" transform="matrix(1.00, 0.00, -0.00, -1.00, 358.1, 470.8)">E</text><text xml:space="preserve" font-family="SourceSansPro-Regular,Source Sans Pro" font-size="45.0" fill="#000000" transform="matrix(1.00, 0.00, -0.00, -1.00, 381.9, 470.8)">T</text><text xml:space="preserve" font-family="SourceSansPro-Regular,Source Sans Pro" font-size="45.0" fill="#000000" transform="matrix(1.00, 0.00, -0.00, -1.00, 406.0, 470.8)">T</text><text xml:space="preserve" font-family="SourceSansPro-Regular,Source Sans Pro" font-size="45.0" fill="#000000" transform="matrix(1.00, 0.00, -0.00, -1.00, 430.1, 470.8)">I</text><text xml:space="preserve" font-family="SourceSansPro-Regular,Source Sans Pro" font-size="45.0" fill="#000000" transform="matrix(1.00, 0.00, -0.00, -1.00, 441.9, 470.8)">N</text><text xml:space="preserve" font-family="SourceSansPro-Regular,Source Sans Pro" font-size="45.0" fill="#000000" transform="matrix(1.00, 0.00, -0.00, -1.00, 471.1, 470.8)">G</text><text xml:space="preserve" font-family="SourceSansPro-Regular,Source Sans Pro" font-size="45.0" fill="#000000" transform="matrix(1.00, 0.00, -0.00, -1.00, 498.8, 470.8)">S</text><text xml:space="preserve" font-family="SourceSansPro-Regular,Source Sans Pro" font-size="45.0" fill="#000000" transform="matrix(1.00, 0.00, -0.00, -1.00, 522.8, 470.8)"> </text><text xml:space="preserve" font-family="SourceSansPro-Regular,Source Sans Pro" font-size="33.8" fill="#000000" transform="matrix(1.00, 0.00, -0.00, -1.00, 290.1, 373.7)">•</text><text xml:space="preserve" font-family="SourceSansPro-Regular,Source Sans Pro" font-size="45.0" fill="#000000" transform="matrix(1.00, 0.00, -0.00, -1.00, 334.1, 369.8)">P</text><text xml:space="preserve" font-family="SourceSansPro-Regular,Source Sans Pro" font-size="45.0" fill="#000000" transform="matrix(1.00, 0.00, -0.00, -1.00, 360.0, 369.8)">I</text><text xml:space="preserve" font-family="SourceSansPro-Regular,Source Sans Pro" font-size="45.0" fill="#000000" transform="matrix(1.00, 0.00, -0.00, -1.00, 371.9, 369.8)">N</text><text xml:space="preserve" font-family="SourceSansPro-Regular,Source Sans Pro" font-size="45.0" fill="#000000" transform="matrix(1.00, 0.00, -0.00, -1.00, 401.0, 369.8)">G</text><text xml:space="preserve" font-family="SourceSansPro-Regular,Source Sans Pro" font-size="45.0" fill="#000000" transform="matrix(1.00, 0.00, -0.00, -1.00, 428.8, 369.8)"> </text><text xml:space="preserve" font-family="SourceSansPro-Regular,Source Sans Pro" font-size="33.8" fill="#000000" transform="matrix(1.00, 0.00, -0.00, -1.00, 290.1, 272.7)">•</text><text xml:space="preserve" font-family="SourceSansPro-Regular,Source Sans Pro" font-size="45.0" fill="#000000" transform="matrix(1.00, 0.00, -0.00, -1.00, 334.1, 268.8)">G</text><text xml:space="preserve" font-family="SourceSansPro-Regular,Source Sans Pro" font-size="45.0" fill="#000000" transform="matrix(1.00, 0.00, -0.00, -1.00, 361.9, 268.8)">O</text><text xml:space="preserve" font-family="SourceSansPro-Regular,Source Sans Pro" font-size="45.0" fill="#000000" transform="matrix(1.00, 0.00, -0.00, -1.00, 391.3, 268.8)">A</text><text xml:space="preserve" font-family="SourceSansPro-Regular,Source Sans Pro" font-size="45.0" fill="#000000" transform="matrix(1.00, 0.00, -0.00, -1.00, 415.8, 268.8)">W</text><text xml:space="preserve" font-family="SourceSansPro-Regular,Source Sans Pro" font-size="45.0" fill="#000000" transform="matrix(1.00, 0.00, -0.00, -1.00, 451.2, 268.8)">A</text><text xml:space="preserve" font-family="SourceSansPro-Regular,Source Sans Pro" font-size="45.0" fill="#000000" transform="matrix(1.00, 0.00, -0.00, -1.00, 475.0, 268.8)">Y</text><text xml:space="preserve" font-family="SourceSansPro-Regular,Source Sans Pro" font-size="45.0" fill="#000000" transform="matrix(1.00, 0.00, -0.00, -1.00, 496.4, 268.8)"> </text><text xml:space="preserve" font-family="SourceSansPro-Regular,Source Sans Pro" font-size="33.8" fill="#000000" transform="matrix(1.00, 0.00, -0.00, -1.00, 290.1, 171.7)">•</text><text xml:space="preserve" font-family="SourceSansPro-Regular,Source Sans Pro" font-size="45.0" fill="#000000" transform="matrix(1.00, 0.00, -0.00, -1.00, 334.1, 167.8)">W</text><text xml:space="preserve" font-family="SourceSansPro-Regular,Source Sans Pro" font-size="45.0" fill="#000000" transform="matrix(1.00, 0.00, -0.00, -1.00, 369.5, 167.8)">I</text><text xml:space="preserve" font-family="SourceSansPro-Regular,Source Sans Pro" font-size="45.0" fill="#000000" transform="matrix(1.00, 0.00, -0.00, -1.00, 381.3, 167.8)">N</text><text xml:space="preserve" font-family="SourceSansPro-Regular,Source Sans Pro" font-size="45.0" fill="#000000" transform="matrix(1.00, 0.00, -0.00, -1.00, 410.4, 167.8)">D</text><text xml:space="preserve" font-family="SourceSansPro-Regular,Source Sans Pro" font-size="45.0" fill="#000000" transform="matrix(1.00, 0.00, -0.00, -1.00, 438.1, 167.8)">O</text><text xml:space="preserve" font-family="SourceSansPro-Regular,Source Sans Pro" font-size="45.0" fill="#000000" transform="matrix(1.00, 0.00, -0.00, -1.00, 467.7, 167.8)">W</text><text xml:space="preserve" font-family="SourceSansPro-Regular,Source Sans Pro" font-size="45.0" fill="#000000" transform="matrix(1.00, 0.00, -0.00, -1.00, 503.1, 167.8)">_</text><text xml:space="preserve" font-family="SourceSansPro-Regular,Source Sans Pro" font-size="45.0" fill="#000000" transform="matrix(1.00, 0.00, -0.00, -1.00, 525.6, 167.8)">U</text><text xml:space="preserve" font-family="SourceSansPro-Regular,Source Sans Pro" font-size="45.0" fill="#000000" transform="matrix(1.00, 0.00, -0.00, -1.00, 554.6, 167.8)">P</text><text xml:space="preserve" font-family="SourceSansPro-Regular,Source Sans Pro" font-size="45.0" fill="#000000" transform="matrix(1.00, 0.00, -0.00, -1.00, 580.5, 167.8)">D</text><text xml:space="preserve" font-family="SourceSansPro-Regular,Source Sans Pro" font-size="45.0" fill="#000000" transform="matrix(1.00, 0.00, -0.00, -1.00, 607.8, 167.8)">A</text><text xml:space="preserve" font-family="SourceSansPro-Regular,Source Sans Pro" font-size="45.0" fill="#000000" transform="matrix(1.00, 0.00, -0.00, -1.00, 630.4, 167.8)">T</text><text xml:space="preserve" font-family="SourceSansPro-Regular,Source Sans Pro" font-size="45.0" fill="#000000" transform="matrix(1.00, 0.00, -0.00, -1.00, 654.6, 167.8)">E</text><text xml:space="preserve" font-family="SourceSansPro-Regular,Source Sans Pro" font-size="45.0" fill="#000000" transform="matrix(1.00, 0.00, -0.00, -1.00, 678.3, 167.8)"> </text><text xml:space="preserve" font-family="SourceSansPro-Regular,Source Sans Pro" font-size="33.8" fill="#000000" transform="matrix(1.00, 0.00, -0.00, -1.00, 1185.2, 676.0)">•</text><text xml:space="preserve" font-family="SourceSansPro-Regular,Source Sans Pro" font-size="45.0" fill="#000000" transform="matrix(1.00, 0.00, -0.00, -1.00, 1229.2, 672.0)">H</text><text xml:space="preserve" font-family="SourceSansPro-Regular,Source Sans Pro" font-size="45.0" fill="#000000" transform="matrix(1.00, 0.00, -0.00, -1.00, 1258.5, 672.0)">E</text><text xml:space="preserve" font-family="SourceSansPro-Regular,Source Sans Pro" font-size="45.0" fill="#000000" transform="matrix(1.00, 0.00, -0.00, -1.00, 1282.2, 672.0)">A</text><text xml:space="preserve" font-family="SourceSansPro-Regular,Source Sans Pro" font-size="45.0" fill="#000000" transform="matrix(1.00, 0.00, -0.00, -1.00, 1306.7, 672.0)">D</text><text xml:space="preserve" font-family="SourceSansPro-Regular,Source Sans Pro" font-size="45.0" fill="#000000" transform="matrix(1.00, 0.00, -0.00, -1.00, 1334.4, 672.0)">E</text><text xml:space="preserve" font-family="SourceSansPro-Regular,Source Sans Pro" font-size="45.0" fill="#000000" transform="matrix(1.00, 0.00, -0.00, -1.00, 1358.1, 672.0)">R</text><text xml:space="preserve" font-family="SourceSansPro-Regular,Source Sans Pro" font-size="45.0" fill="#000000" transform="matrix(1.00, 0.00, -0.00, -1.00, 1383.6, 672.0)">S</text><text xml:space="preserve" font-family="SourceSansPro-Regular,Source Sans Pro" font-size="45.0" fill="#000000" transform="matrix(1.00, 0.00, -0.00, -1.00, 1407.6, 672.0)"> </text><text xml:space="preserve" font-family="SourceSansPro-Regular,Source Sans Pro" font-size="33.8" fill="#000000" transform="matrix(1.00, 0.00, -0.00, -1.00, 1185.2, 575.0)">•</text><text xml:space="preserve" font-family="SourceSansPro-Regular,Source Sans Pro" font-size="45.0" fill="#000000" transform="matrix(1.00, 0.00, -0.00, -1.00, 1229.2, 571.0)">P</text><text xml:space="preserve" font-family="SourceSansPro-Regular,Source Sans Pro" font-size="45.0" fill="#000000" transform="matrix(1.00, 0.00, -0.00, -1.00, 1255.1, 571.0)">U</text><text xml:space="preserve" font-family="SourceSansPro-Regular,Source Sans Pro" font-size="45.0" fill="#000000" transform="matrix(1.00, 0.00, -0.00, -1.00, 1283.7, 571.0)">S</text><text xml:space="preserve" font-family="SourceSansPro-Regular,Source Sans Pro" font-size="45.0" fill="#000000" transform="matrix(1.00, 0.00, -0.00, -1.00, 1307.7, 571.0)">H</text><text xml:space="preserve" font-family="SourceSansPro-Regular,Source Sans Pro" font-size="45.0" fill="#000000" transform="matrix(1.00, 0.00, -0.00, -1.00, 1337.0, 571.0)">_</text><text xml:space="preserve" font-family="SourceSansPro-Regular,Source Sans Pro" font-size="45.0" fill="#000000" transform="matrix(1.00, 0.00, -0.00, -1.00, 1359.5, 571.0)">P</text><text xml:space="preserve" font-family="SourceSansPro-Regular,Source Sans Pro" font-size="45.0" fill="#000000" transform="matrix(1.00, 0.00, -0.00, -1.00, 1385.5, 571.0)">R</text><text xml:space="preserve" font-family="SourceSansPro-Regular,Source Sans Pro" font-size="45.0" fill="#000000" transform="matrix(1.00, 0.00, -0.00, -1.00, 1411.6, 571.0)">O</text><text xml:space="preserve" font-family="SourceSansPro-Regular,Source Sans Pro" font-size="45.0" fill="#000000" transform="matrix(1.00, 0.00, -0.00, -1.00, 1441.5, 571.0)">M</text><text xml:space="preserve" font-family="SourceSansPro-Regular,Source Sans Pro" font-size="45.0" fill="#000000" transform="matrix(1.00, 0.00, -0.00, -1.00, 1474.2, 571.0)">I</text><text xml:space="preserve" font-family="SourceSansPro-Regular,Source Sans Pro" font-size="45.0" fill="#000000" transform="matrix(1.00, 0.00, -0.00, -1.00, 1486.0, 571.0)">S</text><text xml:space="preserve" font-family="SourceSansPro-Regular,Source Sans Pro" font-size="45.0" fill="#000000" transform="matrix(1.00, 0.00, -0.00, -1.00, 1510.1, 571.0)">E</text><text xml:space="preserve" font-family="SourceSansPro-Regular,Source Sans Pro" font-size="45.0" fill="#000000" transform="matrix(1.00, 0.00, -0.00, -1.00, 1533.8, 571.0)"> </text><text xml:space="preserve" font-family="SourceSansPro-Regular,Source Sans Pro" font-size="33.8" fill="#000000" transform="matrix(1.00, 0.00, -0.00, -1.00, 1185.2, 474.0)">•</text><text xml:space="preserve" font-family="SourceSansPro-Regular,Source Sans Pro" font-size="45.0" fill="#000000" transform="matrix(1.00, 0.00, -0.00, -1.00, 1229.2, 470.0)">C</text><text xml:space="preserve" font-family="SourceSansPro-Regular,Source Sans Pro" font-size="45.0" fill="#000000" transform="matrix(1.00, 0.00, -0.00, -1.00, 1253.6, 470.0)">O</text><text xml:space="preserve" font-family="SourceSansPro-Regular,Source Sans Pro" font-size="45.0" fill="#000000" transform="matrix(1.00, 0.00, -0.00, -1.00, 1283.4, 470.0)">N</text><text xml:space="preserve" font-family="SourceSansPro-Regular,Source Sans Pro" font-size="45.0" fill="#000000" transform="matrix(1.00, 0.00, -0.00, -1.00, 1312.6, 470.0)">T</text><text xml:space="preserve" font-family="SourceSansPro-Regular,Source Sans Pro" font-size="45.0" fill="#000000" transform="matrix(1.00, 0.00, -0.00, -1.00, 1336.7, 470.0)">I</text><text xml:space="preserve" font-family="SourceSansPro-Regular,Source Sans Pro" font-size="45.0" fill="#000000" transform="matrix(1.00, 0.00, -0.00, -1.00, 1348.5, 470.0)">N</text><text xml:space="preserve" font-family="SourceSansPro-Regular,Source Sans Pro" font-size="45.0" fill="#000000" transform="matrix(1.00, 0.00, -0.00, -1.00, 1377.6, 470.0)">U</text><text xml:space="preserve" font-family="SourceSansPro-Regular,Source Sans Pro" font-size="45.0" fill="#000000" transform="matrix(1.00, 0.00, -0.00, -1.00, 1405.8, 470.0)">A</text><text xml:space="preserve" font-family="SourceSansPro-Regular,Source Sans Pro" font-size="45.0" fill="#000000" transform="matrix(1.00, 0.00, -0.00, -1.00, 1428.5, 470.0)">T</text><text xml:space="preserve" font-family="SourceSansPro-Regular,Source Sans Pro" font-size="45.0" fill="#000000" transform="matrix(1.00, 0.00, -0.00, -1.00, 1452.6, 470.0)">I</text><text xml:space="preserve" font-family="SourceSansPro-Regular,Source Sans Pro" font-size="45.0" fill="#000000" transform="matrix(1.00, 0.00, -0.00, -1.00, 1464.5, 470.0)">O</text><text xml:space="preserve" font-family="SourceSansPro-Regular,Source Sans Pro" font-size="45.0" fill="#000000" transform="matrix(1.00, 0.00, -0.00, -1.00, 1494.4, 470.0)">N</text><text xml:space="preserve" font-family="SourceSansPro-Regular,Source Sans Pro" font-size="45.0" fill="#000000" transform="matrix(1.00, 0.00, -0.00, -1.00, 1523.5, 470.0)"> </text><text xml:space="preserve" font-family="SourceSansPro-Regular,Source Sans Pro" font-size="33.8" fill="#000000" transform="matrix(1.00, 0.00, -0.00, -1.00, 1185.2, 373.0)">•</text><text xml:space="preserve" font-family="SourceSansPro-Regular,Source Sans Pro" font-size="45.0" fill="#000000" transform="matrix(1.00, 0.00, -0.00, -1.00, 1229.2, 369.0)">D</text><text xml:space="preserve" font-family="SourceSansPro-Regular,Source Sans Pro" font-size="45.0" fill="#000000" transform="matrix(1.00, 0.00, -0.00, -1.00, 1256.4, 369.0)">A</text><text xml:space="preserve" font-family="SourceSansPro-Regular,Source Sans Pro" font-size="45.0" fill="#000000" transform="matrix(1.00, 0.00, -0.00, -1.00, 1279.1, 369.0)">T</text><text xml:space="preserve" font-family="SourceSansPro-Regular,Source Sans Pro" font-size="45.0" fill="#000000" transform="matrix(1.00, 0.00, -0.00, -1.00, 1301.4, 369.0)">A</text><text xml:space="preserve" font-family="SourceSansPro-Regular,Source Sans Pro" font-size="45.0" fill="#DE6A10" transform="matrix(1.00, 0.00, -0.00, -1.00, 1321.6, 369.0)">*</text><text xml:space="preserve" font-family="SourceSansPro-Regular,Source Sans Pro" font-size="45.0" fill="#000000" transform="matrix(1.00, 0.00, -0.00, -1.00, 1340.5, 369.0)"> </text><text xml:space="preserve" font-family="SourceSansPro-Regular,Source Sans Pro" font-size="33.8" fill="#000000" transform="matrix(1.00, 0.00, -0.00, -1.00, 1185.2, 272.0)">•</text><text xml:space="preserve" font-family="SourceSansPro-Regular,Source Sans Pro" font-size="45.0" fill="#000000" transform="matrix(1.00, 0.00, -0.00, -1.00, 1229.2, 268.0)">R</text><text xml:space="preserve" font-family="SourceSansPro-Regular,Source Sans Pro" font-size="45.0" fill="#000000" transform="matrix(1.00, 0.00, -0.00, -1.00, 1254.7, 268.0)">S</text><text xml:space="preserve" font-family="SourceSansPro-Regular,Source Sans Pro" font-size="45.0" fill="#000000" transform="matrix(1.00, 0.00, -0.00, -1.00, 1277.8, 268.0)">T</text><text xml:space="preserve" font-family="SourceSansPro-Regular,Source Sans Pro" font-size="45.0" fill="#000000" transform="matrix(1.00, 0.00, -0.00, -1.00, 1301.9, 268.0)">_</text><text xml:space="preserve" font-family="SourceSansPro-Regular,Source Sans Pro" font-size="45.0" fill="#000000" transform="matrix(1.00, 0.00, -0.00, -1.00, 1324.4, 268.0)">S</text><text xml:space="preserve" font-family="SourceSansPro-Regular,Source Sans Pro" font-size="45.0" fill="#000000" transform="matrix(1.00, 0.00, -0.00, -1.00, 1347.6, 268.0)">T</text><text xml:space="preserve" font-family="SourceSansPro-Regular,Source Sans Pro" font-size="45.0" fill="#000000" transform="matrix(1.00, 0.00, -0.00, -1.00, 1371.7, 268.0)">R</text><text xml:space="preserve" font-family="SourceSansPro-Regular,Source Sans Pro" font-size="45.0" fill="#000000" transform="matrix(1.00, 0.00, -0.00, -1.00, 1397.8, 268.0)">E</text><text xml:space="preserve" font-family="SourceSansPro-Regular,Source Sans Pro" font-size="45.0" fill="#000000" transform="matrix(1.00, 0.00, -0.00, -1.00, 1421.5, 268.0)">A</text><text xml:space="preserve" font-family="SourceSansPro-Regular,Source Sans Pro" font-size="45.0" fill="#000000" transform="matrix(1.00, 0.00, -0.00, -1.00, 1446.0, 268.0)">M</text><text xml:space="preserve" font-family="SourceSansPro-Regular,Source Sans Pro" font-size="45.0" fill="#000000" transform="matrix(1.00, 0.00, -0.00, -1.00, 1478.7, 268.0)"> </text><text xml:space="preserve" font-family="SourceSansPro-Regular,Source Sans Pro" font-size="33.8" fill="#000000" transform="matrix(1.00, 0.00, -0.00, -1.00, 1185.2, 171.0)">•</text><text xml:space="preserve" font-family="SourceSansPro-Regular,Source Sans Pro" font-size="45.0" fill="#000000" transform="matrix(1.00, 0.00, -0.00, -1.00, 1229.2, 167.0)">W</text><text xml:space="preserve" font-family="SourceSansPro-Regular,Source Sans Pro" font-size="45.0" fill="#000000" transform="matrix(1.00, 0.00, -0.00, -1.00, 1264.5, 167.0)">I</text><text xml:space="preserve" font-family="SourceSansPro-Regular,Source Sans Pro" font-size="45.0" fill="#000000" transform="matrix(1.00, 0.00, -0.00, -1.00, 1276.4, 167.0)">N</text><text xml:space="preserve" font-family="SourceSansPro-Regular,Source Sans Pro" font-size="45.0" fill="#000000" transform="matrix(1.00, 0.00, -0.00, -1.00, 1305.5, 167.0)">D</text><text xml:space="preserve" font-family="SourceSansPro-Regular,Source Sans Pro" font-size="45.0" fill="#000000" transform="matrix(1.00, 0.00, -0.00, -1.00, 1333.2, 167.0)">O</text><text xml:space="preserve" font-family="SourceSansPro-Regular,Source Sans Pro" font-size="45.0" fill="#000000" transform="matrix(1.00, 0.00, -0.00, -1.00, 1362.8, 167.0)">W</text><text xml:space="preserve" font-family="SourceSansPro-Regular,Source Sans Pro" font-size="45.0" fill="#000000" transform="matrix(1.00, 0.00, -0.00, -1.00, 1398.1, 167.0)">_</text><text xml:space="preserve" font-family="SourceSansPro-Regular,Source Sans Pro" font-size="45.0" fill="#000000" transform="matrix(1.00, 0.00, -0.00, -1.00, 1420.6, 167.0)">U</text><text xml:space="preserve" font-family="SourceSansPro-Regular,Source Sans Pro" font-size="45.0" fill="#000000" transform="matrix(1.00, 0.00, -0.00, -1.00, 1449.7, 167.0)">P</text><text xml:space="preserve" font-family="SourceSansPro-Regular,Source Sans Pro" font-size="45.0" fill="#000000" transform="matrix(1.00, 0.00, -0.00, -1.00, 1475.6, 167.0)">D</text><text xml:space="preserve" font-family="SourceSansPro-Regular,Source Sans Pro" font-size="45.0" fill="#000000" transform="matrix(1.00, 0.00, -0.00, -1.00, 1502.8, 167.0)">A</text><text xml:space="preserve" font-family="SourceSansPro-Regular,Source Sans Pro" font-size="45.0" fill="#000000" transform="matrix(1.00, 0.00, -0.00, -1.00, 1525.5, 167.0)">T</text><text xml:space="preserve" font-family="SourceSansPro-Regular,Source Sans Pro" font-size="45.0" fill="#000000" transform="matrix(1.00, 0.00, -0.00, -1.00, 1549.6, 167.0)">E</text><text xml:space="preserve" font-family="SourceSansPro-Regular,Source Sans Pro" font-size="45.0" fill="#000000" transform="matrix(1.00, 0.00, -0.00, -1.00, 1573.3, 167.0)"> </text><text xml:space="preserve" font-family="SourceSansPro-Regular,Source Sans Pro" font-size="33.8" fill="#000000" transform="matrix(1.00, 0.00, -0.00, -1.00, 1185.2, 70.0)">•</text><text xml:space="preserve" font-family="SourceSansPro-Regular,Source Sans Pro" font-size="45.0" fill="#000000" transform="matrix(1.00, 0.00, -0.00, -1.00, 1229.2, 66.0)">P</text><text xml:space="preserve" font-family="SourceSansPro-Regular,Source Sans Pro" font-size="45.0" fill="#000000" transform="matrix(1.00, 0.00, -0.00, -1.00, 1255.1, 66.0)">R</text><text xml:space="preserve" font-family="SourceSansPro-Regular,Source Sans Pro" font-size="45.0" fill="#000000" transform="matrix(1.00, 0.00, -0.00, -1.00, 1281.2, 66.0)">I</text><text xml:space="preserve" font-family="SourceSansPro-Regular,Source Sans Pro" font-size="45.0" fill="#000000" transform="matrix(1.00, 0.00, -0.00, -1.00, 1293.1, 66.0)">O</text><text xml:space="preserve" font-family="SourceSansPro-Regular,Source Sans Pro" font-size="45.0" fill="#000000" transform="matrix(1.00, 0.00, -0.00, -1.00, 1322.9, 66.0)">R</text><text xml:space="preserve" font-family="SourceSansPro-Regular,Source Sans Pro" font-size="45.0" fill="#000000" transform="matrix(1.00, 0.00, -0.00, -1.00, 1349.1, 66.0)">I</text><text xml:space="preserve" font-family="SourceSansPro-Regular,Source Sans Pro" font-size="45.0" fill="#000000" transform="matrix(1.00, 0.00, -0.00, -1.00, 1360.9, 66.0)">T</text><text xml:space="preserve" font-family="SourceSansPro-Regular,Source Sans Pro" font-size="45.0" fill="#000000" transform="matrix(1.00, 0.00, -0.00, -1.00, 1384.4, 66.0)">Y</text><text xml:space="preserve" font-family="SourceSansPro-Regular,Source Sans Pro" font-size="50.0" fill="#000000" transform="matrix(1.00, 0.00, -0.00, -1.00, 1276.4, 756.0)">S</text><text xml:space="preserve" font-family="SourceSansPro-Regular,Source Sans Pro" font-size="50.0" fill="#000000" transform="matrix(1.00, 0.00, -0.00, -1.00, 1303.1, 756.0)">t</text><text xml:space="preserve" font-family="SourceSansPro-Regular,Source Sans Pro" font-size="50.0" fill="#000000" transform="matrix(1.00, 0.00, -0.00, -1.00, 1320.0, 756.0)">r</text><text xml:space="preserve" font-family="SourceSansPro-Regular,Source Sans Pro" font-size="50.0" fill="#000000" transform="matrix(1.00, 0.00, -0.00, -1.00, 1336.9, 756.0)">e</text><text xml:space="preserve" font-family="SourceSansPro-Regular,Source Sans Pro" font-size="50.0" fill="#000000" transform="matrix(1.00, 0.00, -0.00, -1.00, 1361.0, 756.0)">a</text><text xml:space="preserve" font-family="SourceSansPro-Regular,Source Sans Pro" font-size="50.0" fill="#000000" transform="matrix(1.00, 0.00, -0.00, -1.00, 1386.6, 756.0)">m</text><text xml:space="preserve" font-family="SourceSansPro-Regular,Source Sans Pro" font-size="50.0" fill="#000000" transform="matrix(1.00, 0.00, -0.00, -1.00, 1428.0, 756.0)"> </text><text xml:space="preserve" font-family="SourceSansPro-Regular,Source Sans Pro" font-size="50.0" fill="#000000" transform="matrix(1.00, 0.00, -0.00, -1.00, 1438.1, 756.0)">L</text><text xml:space="preserve" font-family="SourceSansPro-Regular,Source Sans Pro" font-size="50.0" fill="#000000" transform="matrix(1.00, 0.00, -0.00, -1.00, 1461.8, 756.0)">e</text><text xml:space="preserve" font-family="SourceSansPro-Regular,Source Sans Pro" font-size="50.0" fill="#000000" transform="matrix(1.00, 0.00, -0.00, -1.00, 1486.9, 756.0)">v</text><text xml:space="preserve" font-family="SourceSansPro-Regular,Source Sans Pro" font-size="50.0" fill="#000000" transform="matrix(1.00, 0.00, -0.00, -1.00, 1510.0, 756.0)">e</text><text xml:space="preserve" font-family="SourceSansPro-Regular,Source Sans Pro" font-size="50.0" fill="#000000" transform="matrix(1.00, 0.00, -0.00, -1.00, 1534.8, 756.0)">l</text><text xml:space="preserve" font-family="SourceSansPro-Regular,Source Sans Pro" font-size="50.0" fill="#000000" transform="matrix(1.00, 0.00, -0.00, -1.00, 346.4, 756.0)">C</text><text xml:space="preserve" font-family="SourceSansPro-Regular,Source Sans Pro" font-size="50.0" fill="#000000" transform="matrix(1.00, 0.00, -0.00, -1.00, 375.0, 756.0)">o</text><text xml:space="preserve" font-family="SourceSansPro-Regular,Source Sans Pro" font-size="50.0" fill="#000000" transform="matrix(1.00, 0.00, -0.00, -1.00, 402.1, 756.0)">n</text><text xml:space="preserve" font-family="SourceSansPro-Regular,Source Sans Pro" font-size="50.0" fill="#000000" transform="matrix(1.00, 0.00, -0.00, -1.00, 429.4, 756.0)">n</text><text xml:space="preserve" font-family="SourceSansPro-Regular,Source Sans Pro" font-size="50.0" fill="#000000" transform="matrix(1.00, 0.00, -0.00, -1.00, 456.8, 756.0)">e</text><text xml:space="preserve" font-family="SourceSansPro-Regular,Source Sans Pro" font-size="50.0" fill="#000000" transform="matrix(1.00, 0.00, -0.00, -1.00, 481.6, 756.0)">c</text><text xml:space="preserve" font-family="SourceSansPro-Regular,Source Sans Pro" font-size="50.0" fill="#000000" transform="matrix(1.00, 0.00, -0.00, -1.00, 504.4, 756.0)">t</text><text xml:space="preserve" font-family="SourceSansPro-Regular,Source Sans Pro" font-size="50.0" fill="#000000" transform="matrix(1.00, 0.00, -0.00, -1.00, 521.3, 756.0)">i</text><text xml:space="preserve" font-family="SourceSansPro-Regular,Source Sans Pro" font-size="50.0" fill="#000000" transform="matrix(1.00, 0.00, -0.00, -1.00, 533.6, 756.0)">o</text><text xml:space="preserve" font-family="SourceSansPro-Regular,Source Sans Pro" font-size="50.0" fill="#000000" transform="matrix(1.00, 0.00, -0.00, -1.00, 560.7, 756.0)">n</text><text xml:space="preserve" font-family="SourceSansPro-Regular,Source Sans Pro" font-size="50.0" fill="#000000" transform="matrix(1.00, 0.00, -0.00, -1.00, 588.0, 756.0)"> </text><text xml:space="preserve" font-family="SourceSansPro-Regular,Source Sans Pro" font-size="50.0" fill="#000000" transform="matrix(1.00, 0.00, -0.00, -1.00, 598.1, 756.0)">L</text><text xml:space="preserve" font-family="SourceSansPro-Regular,Source Sans Pro" font-size="50.0" fill="#000000" transform="matrix(1.00, 0.00, -0.00, -1.00, 621.8, 756.0)">e</text><text xml:space="preserve" font-family="SourceSansPro-Regular,Source Sans Pro" font-size="50.0" fill="#000000" transform="matrix(1.00, 0.00, -0.00, -1.00, 646.9, 756.0)">v</text><text xml:space="preserve" font-family="SourceSansPro-Regular,Source Sans Pro" font-size="50.0" fill="#000000" transform="matrix(1.00, 0.00, -0.00, -1.00, 670.0, 756.0)">e</text><text xml:space="preserve" font-family="SourceSansPro-Regular,Source Sans Pro" font-size="50.0" fill="#000000" transform="matrix(1.00, 0.00, -0.00, -1.00, 694.8, 756.0)">l</text></g></svg>