<?xml version="1.0" encoding="UTF-8" standalone="no"?><svg xmlns="http://www.w3.org/2000/svg" xmlns:xlink="http://www.w3.org/1999/xlink" clip-rule="evenodd" stroke-miterlimit="10" viewBox="0 0 1744 527"><desc>SVG generated by Keynote</desc><defs></defs><g transform="matrix(1.00, 0.00, -0.00, -1.00, 0.0, 527.0)"><text xml:space="preserve" font-family="Courier-Bold,Courier" font-weight="bold" font-size="50.0" fill="#D5D5D5" transform="matrix(1.00, 0.00, -0.00, -1.00, 1.2, 491.8)">r</text><text xml:space="preserve" font-family="Courier-Bold,Courier" font-weight="bold" font-size="50.0" fill="#D5D5D5" transform="matrix(1.00, 0.00, -0.00, -1.00, 31.2, 491.8)">e</text><text xml:space="preserve" font-family="Courier-Bold,Courier" font-weight="bold" font-size="50.0" fill="#D5D5D5" transform="matrix(1.00, 0.00, -0.00, -1.00, 61.2, 491.8)">a</text><text xml:space="preserve" font-family="Courier-Bold,Courier" font-weight="bold" font-size="50.0" fill="#D5D5D5" transform="matrix(1.00, 0.00, -0.00, -1.00, 91.2, 491.8)">d</text><text xml:space="preserve" font-family="Courier-Bold,Courier" font-weight="bold" font-size="50.0" fill="#D5D5D5" transform="matrix(1.00, 0.00, -0.00, -1.00, 121.2, 491.8)">_</text><text xml:space="preserve" font-family="Courier-Bold,Courier" font-weight="bold" font-size="50.0" fill="#D5D5D5" transform="matrix(1.00, 0.00, -0.00, -1.00, 151.2, 491.8)">b</text><text xml:space="preserve" font-family="Courier-Bold,Courier" font-weight="bold" font-size="50.0" fill="#D5D5D5" transform="matrix(1.00, 0.00, -0.00, -1.00, 181.2, 491.8)">i</text><text xml:space="preserve" font-family="Courier-Bold,Courier" font-weight="bold" font-size="50.0" fill="#D5D5D5" transform="matrix(1.00, 0.00, -0.00, -1.00, 211.2, 491.8)">n</text><text xml:space="preserve" font-family="Courier-Bold,Courier" font-weight="bold" font-size="50.0" fill="#D5D5D5" transform="matrix(1.00, 0.00, -0.00, -1.00, 241.2, 491.8)">a</text><text xml:space="preserve" font-family="Courier-Bold,Courier" font-weight="bold" font-size="50.0" fill="#D5D5D5" transform="matrix(1.00, 0.00, -0.00, -1.00, 271.2, 491.8)">r</text><text xml:space="preserve" font-family="Courier-Bold,Courier" font-weight="bold" font-size="50.0" fill="#D5D5D5" transform="matrix(1.00, 0.00, -0.00, -1.00, 301.3, 491.8)">y</text><text xml:space="preserve" font-family="Courier-Bold,Courier" font-weight="bold" font-size="50.0" fill="#D5D5D5" transform="matrix(1.00, 0.00, -0.00, -1.00, 331.3, 491.8)">_</text><text xml:space="preserve" font-family="Courier-Bold,Courier" font-weight="bold" font-size="50.0" fill="#D5D5D5" transform="matrix(1.00, 0.00, -0.00, -1.00, 361.3, 491.8)">f</text><text xml:space="preserve" font-family="Courier-Bold,Courier" font-weight="bold" font-size="50.0" fill="#D5D5D5" transform="matrix(1.00, 0.00, -0.00, -1.00, 391.3, 491.8)">r</text><text xml:space="preserve" font-family="Courier-Bold,Courier" font-weight="bold" font-size="50.0" fill="#D5D5D5" transform="matrix(1.00, 0.00, -0.00, -1.00, 421.3, 491.8)">a</text><text xml:space="preserve" font-family="Courier-Bold,Courier" font-weight="bold" font-size="50.0" fill="#D5D5D5" transform="matrix(1.00, 0.00, -0.00, -1.00, 451.3, 491.8)">m</text><text xml:space="preserve" font-family="Courier-Bold,Courier" font-weight="bold" font-size="50.0" fill="#D5D5D5" transform="matrix(1.00, 0.00, -0.00, -1.00, 481.3, 491.8)">e</text><text xml:space="preserve" font-family="Courier-Bold,Courier" font-weight="bold" font-size="50.0" fill="#D5D5D5" transform="matrix(1.00, 0.00, -0.00, -1.00, 511.3, 491.8)">_</text><text xml:space="preserve" font-family="Courier-Bold,Courier" font-weight="bold" font-size="50.0" fill="#D5D5D5" transform="matrix(1.00, 0.00, -0.00, -1.00, 541.3, 491.8)">h</text><text xml:space="preserve" font-family="Courier-Bold,Courier" font-weight="bold" font-size="50.0" fill="#D5D5D5" transform="matrix(1.00, 0.00, -0.00, -1.00, 571.3, 491.8)">e</text><text xml:space="preserve" font-family="Courier-Bold,Courier" font-weight="bold" font-size="50.0" fill="#D5D5D5" transform="matrix(1.00, 0.00, -0.00, -1.00, 601.3, 491.8)">a</text><text xml:space="preserve" font-family="Courier-Bold,Courier" font-weight="bold" font-size="50.0" fill="#D5D5D5" transform="matrix(1.00, 0.00, -0.00, -1.00, 631.4, 491.8)">d</text><text xml:space="preserve" font-family="Courier-Bold,Courier" font-weight="bold" font-size="50.0" fill="#D5D5D5" transform="matrix(1.00, 0.00, -0.00, -1.00, 661.4, 491.8)">e</text><text xml:space="preserve" font-family="Courier-Bold,Courier" font-weight="bold" font-size="50.0" fill="#D5D5D5" transform="matrix(1.00, 0.00, -0.00, -1.00, 691.4, 491.8)">r</text><text xml:space="preserve" font-family="Courier-Bold,Courier" font-weight="bold" font-size="50.0" fill="#D5D5D5" transform="matrix(1.00, 0.00, -0.00, -1.00, 721.4, 491.8)">(</text><text xml:space="preserve" font-family="Courier-Bold,Courier" font-weight="bold" font-size="50.0" fill="#000000" transform="matrix(1.00, 0.00, -0.00, -1.00, 1.2, 431.8)"> </text><text xml:space="preserve" font-family="Courier-Bold,Courier" font-weight="bold" font-size="50.0" fill="#000000" transform="matrix(1.00, 0.00, -0.00, -1.00, 31.2, 431.8)"> </text><text xml:space="preserve" font-family="Courier-Bold,Courier" font-weight="bold" font-size="50.0" fill="#000000" transform="matrix(1.00, 0.00, -0.00, -1.00, 61.2, 431.8)"> </text><text xml:space="preserve" font-family="Courier-Bold,Courier" font-weight="bold" font-size="50.0" fill="#000000" transform="matrix(1.00, 0.00, -0.00, -1.00, 91.2, 431.8)">&lt;</text><text xml:space="preserve" font-family="Courier-Bold,Courier" font-weight="bold" font-size="50.0" fill="#000000" transform="matrix(1.00, 0.00, -0.00, -1.00, 121.2, 431.8)">&lt;</text><text xml:space="preserve" font-family="Courier-Bold,Courier" font-weight="bold" font-size="50.0" fill="#EAB600" transform="matrix(1.00, 0.00, -0.00, -1.00, 151.2, 431.8)">L</text><text xml:space="preserve" font-family="Courier-Bold,Courier" font-weight="bold" font-size="50.0" fill="#EAB600" transform="matrix(1.00, 0.00, -0.00, -1.00, 181.2, 431.8)">e</text><text xml:space="preserve" font-family="Courier-Bold,Courier" font-weight="bold" font-size="50.0" fill="#EAB600" transform="matrix(1.00, 0.00, -0.00, -1.00, 211.2, 431.8)">n</text><text xml:space="preserve" font-family="Courier-Bold,Courier" font-weight="bold" font-size="50.0" fill="#EAB600" transform="matrix(1.00, 0.00, -0.00, -1.00, 241.2, 431.8)">g</text><text xml:space="preserve" font-family="Courier-Bold,Courier" font-weight="bold" font-size="50.0" fill="#EAB600" transform="matrix(1.00, 0.00, -0.00, -1.00, 271.2, 431.8)">t</text><text xml:space="preserve" font-family="Courier-Bold,Courier" font-weight="bold" font-size="50.0" fill="#EAB600" transform="matrix(1.00, 0.00, -0.00, -1.00, 301.2, 431.8)">h</text><text xml:space="preserve" font-family="Courier-Bold,Courier" font-weight="bold" font-size="50.0" fill="#000000" transform="matrix(1.00, 0.00, -0.00, -1.00, 331.2, 431.8)">:</text><text xml:space="preserve" font-family="Courier-Bold,Courier" font-weight="bold" font-size="50.0" fill="#000000" transform="matrix(1.00, 0.00, -0.00, -1.00, 361.2, 431.8)">2</text><text xml:space="preserve" font-family="Courier-Bold,Courier" font-weight="bold" font-size="50.0" fill="#000000" transform="matrix(1.00, 0.00, -0.00, -1.00, 391.2, 431.8)">4</text><text xml:space="preserve" font-family="Courier-Bold,Courier" font-weight="bold" font-size="50.0" fill="#000000" transform="matrix(1.00, 0.00, -0.00, -1.00, 421.2, 431.8)">,</text><text xml:space="preserve" font-family="Courier-Bold,Courier" font-weight="bold" font-size="50.0" fill="#EAB600" transform="matrix(1.00, 0.00, -0.00, -1.00, 451.2, 431.8)">T</text><text xml:space="preserve" font-family="Courier-Bold,Courier" font-weight="bold" font-size="50.0" fill="#EAB600" transform="matrix(1.00, 0.00, -0.00, -1.00, 481.2, 431.8)">y</text><text xml:space="preserve" font-family="Courier-Bold,Courier" font-weight="bold" font-size="50.0" fill="#EAB600" transform="matrix(1.00, 0.00, -0.00, -1.00, 511.2, 431.8)">p</text><text xml:space="preserve" font-family="Courier-Bold,Courier" font-weight="bold" font-size="50.0" fill="#EAB600" transform="matrix(1.00, 0.00, -0.00, -1.00, 541.3, 431.8)">e</text><text xml:space="preserve" font-family="Courier-Bold,Courier" font-weight="bold" font-size="50.0" fill="#000000" transform="matrix(1.00, 0.00, -0.00, -1.00, 571.2, 431.8)">:</text><text xml:space="preserve" font-family="Courier-Bold,Courier" font-weight="bold" font-size="50.0" fill="#000000" transform="matrix(1.00, 0.00, -0.00, -1.00, 601.3, 431.8)">8</text><text xml:space="preserve" font-family="Courier-Bold,Courier" font-weight="bold" font-size="50.0" fill="#000000" transform="matrix(1.00, 0.00, -0.00, -1.00, 631.3, 431.8)">,</text><text xml:space="preserve" font-family="Courier-Bold,Courier" font-weight="bold" font-size="50.0" fill="#EAB600" transform="matrix(1.00, 0.00, -0.00, -1.00, 661.3, 431.8)">F</text><text xml:space="preserve" font-family="Courier-Bold,Courier" font-weight="bold" font-size="50.0" fill="#EAB600" transform="matrix(1.00, 0.00, -0.00, -1.00, 691.3, 431.8)">l</text><text xml:space="preserve" font-family="Courier-Bold,Courier" font-weight="bold" font-size="50.0" fill="#EAB600" transform="matrix(1.00, 0.00, -0.00, -1.00, 721.3, 431.8)">a</text><text xml:space="preserve" font-family="Courier-Bold,Courier" font-weight="bold" font-size="50.0" fill="#EAB600" transform="matrix(1.00, 0.00, -0.00, -1.00, 751.3, 431.8)">g</text><text xml:space="preserve" font-family="Courier-Bold,Courier" font-weight="bold" font-size="50.0" fill="#EAB600" transform="matrix(1.00, 0.00, -0.00, -1.00, 781.3, 431.8)">s</text><text xml:space="preserve" font-family="Courier-Bold,Courier" font-weight="bold" font-size="50.0" fill="#000000" transform="matrix(1.00, 0.00, -0.00, -1.00, 811.3, 431.8)">:</text><text xml:space="preserve" font-family="Courier-Bold,Courier" font-weight="bold" font-size="50.0" fill="#000000" transform="matrix(1.00, 0.00, -0.00, -1.00, 841.3, 431.8)">8</text><text xml:space="preserve" font-family="Courier-Bold,Courier" font-weight="bold" font-size="50.0" fill="#000000" transform="matrix(1.00, 0.00, -0.00, -1.00, 871.3, 431.8)">,</text><text xml:space="preserve" font-family="Courier-Bold,Courier" font-weight="bold" font-size="50.0" fill="#EAB600" transform="matrix(1.00, 0.00, -0.00, -1.00, 901.3, 431.8)">_</text><text xml:space="preserve" font-family="Courier-Bold,Courier" font-weight="bold" font-size="50.0" fill="#EAB600" transform="matrix(1.00, 0.00, -0.00, -1.00, 931.3, 431.8)">R</text><text xml:space="preserve" font-family="Courier-Bold,Courier" font-weight="bold" font-size="50.0" fill="#000000" transform="matrix(1.00, 0.00, -0.00, -1.00, 961.3, 431.8)">:</text><text xml:space="preserve" font-family="Courier-Bold,Courier" font-weight="bold" font-size="50.0" fill="#000000" transform="matrix(1.00, 0.00, -0.00, -1.00, 991.3, 431.8)">1</text><text xml:space="preserve" font-family="Courier-Bold,Courier" font-weight="bold" font-size="50.0" fill="#000000" transform="matrix(1.00, 0.00, -0.00, -1.00, 1021.3, 431.8)">,</text><text xml:space="preserve" font-family="Courier-Bold,Courier" font-weight="bold" font-size="50.0" fill="#EAB600" transform="matrix(1.00, 0.00, -0.00, -1.00, 1051.3, 431.8)">S</text><text xml:space="preserve" font-family="Courier-Bold,Courier" font-weight="bold" font-size="50.0" fill="#EAB600" transform="matrix(1.00, 0.00, -0.00, -1.00, 1081.3, 431.8)">t</text><text xml:space="preserve" font-family="Courier-Bold,Courier" font-weight="bold" font-size="50.0" fill="#EAB600" transform="matrix(1.00, 0.00, -0.00, -1.00, 1111.3, 431.8)">r</text><text xml:space="preserve" font-family="Courier-Bold,Courier" font-weight="bold" font-size="50.0" fill="#EAB600" transform="matrix(1.00, 0.00, -0.00, -1.00, 1141.4, 431.8)">e</text><text xml:space="preserve" font-family="Courier-Bold,Courier" font-weight="bold" font-size="50.0" fill="#EAB600" transform="matrix(1.00, 0.00, -0.00, -1.00, 1171.4, 431.8)">a</text><text xml:space="preserve" font-family="Courier-Bold,Courier" font-weight="bold" font-size="50.0" fill="#EAB600" transform="matrix(1.00, 0.00, -0.00, -1.00, 1201.4, 431.8)">m</text><text xml:space="preserve" font-family="Courier-Bold,Courier" font-weight="bold" font-size="50.0" fill="#EAB600" transform="matrix(1.00, 0.00, -0.00, -1.00, 1231.4, 431.8)">I</text><text xml:space="preserve" font-family="Courier-Bold,Courier" font-weight="bold" font-size="50.0" fill="#EAB600" transform="matrix(1.00, 0.00, -0.00, -1.00, 1261.4, 431.8)">d</text><text xml:space="preserve" font-family="Courier-Bold,Courier" font-weight="bold" font-size="50.0" fill="#000000" transform="matrix(1.00, 0.00, -0.00, -1.00, 1291.4, 431.8)">:</text><text xml:space="preserve" font-family="Courier-Bold,Courier" font-weight="bold" font-size="50.0" fill="#000000" transform="matrix(1.00, 0.00, -0.00, -1.00, 1321.4, 431.8)">3</text><text xml:space="preserve" font-family="Courier-Bold,Courier" font-weight="bold" font-size="50.0" fill="#000000" transform="matrix(1.00, 0.00, -0.00, -1.00, 1351.4, 431.8)">1</text><text xml:space="preserve" font-family="Courier-Bold,Courier" font-weight="bold" font-size="50.0" fill="#000000" transform="matrix(1.00, 0.00, -0.00, -1.00, 1381.4, 431.8)">,</text><text xml:space="preserve" font-family="Courier-Bold,Courier" font-weight="bold" font-size="50.0" fill="#EAB600" transform="matrix(1.00, 0.00, -0.00, -1.00, 1411.4, 431.8)">_</text><text xml:space="preserve" font-family="Courier-Bold,Courier" font-weight="bold" font-size="50.0" fill="#EAB600" transform="matrix(1.00, 0.00, -0.00, -1.00, 1441.4, 431.8)">R</text><text xml:space="preserve" font-family="Courier-Bold,Courier" font-weight="bold" font-size="50.0" fill="#EAB600" transform="matrix(1.00, 0.00, -0.00, -1.00, 1471.4, 431.8)">e</text><text xml:space="preserve" font-family="Courier-Bold,Courier" font-weight="bold" font-size="50.0" fill="#EAB600" transform="matrix(1.00, 0.00, -0.00, -1.00, 1501.4, 431.8)">m</text><text xml:space="preserve" font-family="Courier-Bold,Courier" font-weight="bold" font-size="50.0" fill="#000000" transform="matrix(1.00, 0.00, -0.00, -1.00, 1531.4, 431.8)">/</text><text xml:space="preserve" font-family="Courier-Bold,Courier" font-weight="bold" font-size="50.0" fill="#000000" transform="matrix(1.00, 0.00, -0.00, -1.00, 1561.4, 431.8)">b</text><text xml:space="preserve" font-family="Courier-Bold,Courier" font-weight="bold" font-size="50.0" fill="#000000" transform="matrix(1.00, 0.00, -0.00, -1.00, 1591.4, 431.8)">i</text><text xml:space="preserve" font-family="Courier-Bold,Courier" font-weight="bold" font-size="50.0" fill="#000000" transform="matrix(1.00, 0.00, -0.00, -1.00, 1621.4, 431.8)">t</text><text xml:space="preserve" font-family="Courier-Bold,Courier" font-weight="bold" font-size="50.0" fill="#000000" transform="matrix(1.00, 0.00, -0.00, -1.00, 1651.4, 431.8)">s</text><text xml:space="preserve" font-family="Courier-Bold,Courier" font-weight="bold" font-size="50.0" fill="#000000" transform="matrix(1.00, 0.00, -0.00, -1.00, 1681.5, 431.8)">&gt;</text><text xml:space="preserve" font-family="Courier-Bold,Courier" font-weight="bold" font-size="50.0" fill="#000000" transform="matrix(1.00, 0.00, -0.00, -1.00, 1711.5, 431.8)">&gt;</text><text xml:space="preserve" font-family="Courier-Bold,Courier" font-weight="bold" font-size="50.0" fill="#D5D5D5" transform="matrix(1.00, 0.00, -0.00, -1.00, 1.2, 371.8)">)</text><text xml:space="preserve" font-family="Courier-Bold,Courier" font-weight="bold" font-size="50.0" fill="#D5D5D5" transform="matrix(1.00, 0.00, -0.00, -1.00, 31.2, 371.8)"> </text><text xml:space="preserve" font-family="Courier-Bold,Courier" font-weight="bold" font-size="50.0" fill="#D5D5D5" transform="matrix(1.00, 0.00, -0.00, -1.00, 61.2, 371.8)">-</text><text xml:space="preserve" font-family="Courier-Bold,Courier" font-weight="bold" font-size="50.0" fill="#D5D5D5" transform="matrix(1.00, 0.00, -0.00, -1.00, 91.2, 371.8)">&gt;</text><text xml:space="preserve" font-family="Courier-Bold,Courier" font-weight="bold" font-size="50.0" fill="#D5D5D5" transform="matrix(1.00, 0.00, -0.00, -1.00, 1.2, 311.8)"> </text><text xml:space="preserve" font-family="Courier-Bold,Courier" font-weight="bold" font-size="50.0" fill="#D5D5D5" transform="matrix(1.00, 0.00, -0.00, -1.00, 31.2, 311.8)"> </text><text xml:space="preserve" font-family="Courier-Bold,Courier" font-weight="bold" font-size="50.0" fill="#D5D5D5" transform="matrix(1.00, 0.00, -0.00, -1.00, 61.2, 311.8)"> </text><text xml:space="preserve" font-family="Courier-Bold,Courier" font-weight="bold" font-size="50.0" fill="#D5D5D5" transform="matrix(1.00, 0.00, -0.00, -1.00, 91.2, 311.8)"> </text><text xml:space="preserve" font-family="Courier-Bold,Courier" font-weight="bold" font-size="50.0" fill="#D5D5D5" transform="matrix(1.00, 0.00, -0.00, -1.00, 121.2, 311.8)">#</text><text xml:space="preserve" font-family="Courier-Bold,Courier" font-weight="bold" font-size="50.0" fill="#D5D5D5" transform="matrix(1.00, 0.00, -0.00, -1.00, 151.2, 311.8)">f</text><text xml:space="preserve" font-family="Courier-Bold,Courier" font-weight="bold" font-size="50.0" fill="#D5D5D5" transform="matrix(1.00, 0.00, -0.00, -1.00, 181.2, 311.8)">r</text><text xml:space="preserve" font-family="Courier-Bold,Courier" font-weight="bold" font-size="50.0" fill="#D5D5D5" transform="matrix(1.00, 0.00, -0.00, -1.00, 211.2, 311.8)">a</text><text xml:space="preserve" font-family="Courier-Bold,Courier" font-weight="bold" font-size="50.0" fill="#D5D5D5" transform="matrix(1.00, 0.00, -0.00, -1.00, 241.2, 311.8)">m</text><text xml:space="preserve" font-family="Courier-Bold,Courier" font-weight="bold" font-size="50.0" fill="#D5D5D5" transform="matrix(1.00, 0.00, -0.00, -1.00, 271.2, 311.8)">e</text><text xml:space="preserve" font-family="Courier-Bold,Courier" font-weight="bold" font-size="50.0" fill="#D5D5D5" transform="matrix(1.00, 0.00, -0.00, -1.00, 301.3, 311.8)">_</text><text xml:space="preserve" font-family="Courier-Bold,Courier" font-weight="bold" font-size="50.0" fill="#D5D5D5" transform="matrix(1.00, 0.00, -0.00, -1.00, 331.3, 311.8)">h</text><text xml:space="preserve" font-family="Courier-Bold,Courier" font-weight="bold" font-size="50.0" fill="#D5D5D5" transform="matrix(1.00, 0.00, -0.00, -1.00, 361.3, 311.8)">e</text><text xml:space="preserve" font-family="Courier-Bold,Courier" font-weight="bold" font-size="50.0" fill="#D5D5D5" transform="matrix(1.00, 0.00, -0.00, -1.00, 391.3, 311.8)">a</text><text xml:space="preserve" font-family="Courier-Bold,Courier" font-weight="bold" font-size="50.0" fill="#D5D5D5" transform="matrix(1.00, 0.00, -0.00, -1.00, 421.3, 311.8)">d</text><text xml:space="preserve" font-family="Courier-Bold,Courier" font-weight="bold" font-size="50.0" fill="#D5D5D5" transform="matrix(1.00, 0.00, -0.00, -1.00, 451.3, 311.8)">e</text><text xml:space="preserve" font-family="Courier-Bold,Courier" font-weight="bold" font-size="50.0" fill="#D5D5D5" transform="matrix(1.00, 0.00, -0.00, -1.00, 481.3, 311.8)">r</text><text xml:space="preserve" font-family="Courier-Bold,Courier" font-weight="bold" font-size="50.0" fill="#D5D5D5" transform="matrix(1.00, 0.00, -0.00, -1.00, 511.3, 311.8)">{</text><text xml:space="preserve" font-family="Courier-Bold,Courier" font-weight="bold" font-size="50.0" fill="#D5D5D5" transform="matrix(1.00, 0.00, -0.00, -1.00, 1.2, 251.8)"> </text><text xml:space="preserve" font-family="Courier-Bold,Courier" font-weight="bold" font-size="50.0" fill="#D5D5D5" transform="matrix(1.00, 0.00, -0.00, -1.00, 31.2, 251.8)"> </text><text xml:space="preserve" font-family="Courier-Bold,Courier" font-weight="bold" font-size="50.0" fill="#D5D5D5" transform="matrix(1.00, 0.00, -0.00, -1.00, 61.2, 251.8)"> </text><text xml:space="preserve" font-family="Courier-Bold,Courier" font-weight="bold" font-size="50.0" fill="#D5D5D5" transform="matrix(1.00, 0.00, -0.00, -1.00, 91.2, 251.8)"> </text><text xml:space="preserve" font-family="Courier-Bold,Courier" font-weight="bold" font-size="50.0" fill="#D5D5D5" transform="matrix(1.00, 0.00, -0.00, -1.00, 121.2, 251.8)"> </text><text xml:space="preserve" font-family="Courier-Bold,Courier" font-weight="bold" font-size="50.0" fill="#D5D5D5" transform="matrix(1.00, 0.00, -0.00, -1.00, 151.2, 251.8)"> </text><text xml:space="preserve" font-family="Courier-Bold,Courier" font-weight="bold" font-size="50.0" fill="#D5D5D5" transform="matrix(1.00, 0.00, -0.00, -1.00, 181.2, 251.8)"> </text><text xml:space="preserve" font-family="Courier-Bold,Courier" font-weight="bold" font-size="50.0" fill="#D5D5D5" transform="matrix(1.00, 0.00, -0.00, -1.00, 211.2, 251.8)"> </text><text xml:space="preserve" font-family="Courier-Bold,Courier" font-weight="bold" font-size="50.0" fill="#D5D5D5" transform="matrix(1.00, 0.00, -0.00, -1.00, 241.2, 251.8)">l</text><text xml:space="preserve" font-family="Courier-Bold,Courier" font-weight="bold" font-size="50.0" fill="#D5D5D5" transform="matrix(1.00, 0.00, -0.00, -1.00, 271.2, 251.8)">e</text><text xml:space="preserve" font-family="Courier-Bold,Courier" font-weight="bold" font-size="50.0" fill="#D5D5D5" transform="matrix(1.00, 0.00, -0.00, -1.00, 301.3, 251.8)">n</text><text xml:space="preserve" font-family="Courier-Bold,Courier" font-weight="bold" font-size="50.0" fill="#D5D5D5" transform="matrix(1.00, 0.00, -0.00, -1.00, 331.3, 251.8)">g</text><text xml:space="preserve" font-family="Courier-Bold,Courier" font-weight="bold" font-size="50.0" fill="#D5D5D5" transform="matrix(1.00, 0.00, -0.00, -1.00, 361.3, 251.8)">t</text><text xml:space="preserve" font-family="Courier-Bold,Courier" font-weight="bold" font-size="50.0" fill="#D5D5D5" transform="matrix(1.00, 0.00, -0.00, -1.00, 391.3, 251.8)">h</text><text xml:space="preserve" font-family="Courier-Bold,Courier" font-weight="bold" font-size="50.0" fill="#D5D5D5" transform="matrix(1.00, 0.00, -0.00, -1.00, 421.3, 251.8)"> </text><text xml:space="preserve" font-family="Courier-Bold,Courier" font-weight="bold" font-size="50.0" fill="#D5D5D5" transform="matrix(1.00, 0.00, -0.00, -1.00, 451.3, 251.8)">=</text><text xml:space="preserve" font-family="Courier-Bold,Courier" font-weight="bold" font-size="50.0" fill="#D5D5D5" transform="matrix(1.00, 0.00, -0.00, -1.00, 481.3, 251.8)"> </text><text xml:space="preserve" font-family="Courier-Bold,Courier" font-weight="bold" font-size="50.0" fill="#D5D5D5" transform="matrix(1.00, 0.00, -0.00, -1.00, 511.3, 251.8)">L</text><text xml:space="preserve" font-family="Courier-Bold,Courier" font-weight="bold" font-size="50.0" fill="#D5D5D5" transform="matrix(1.00, 0.00, -0.00, -1.00, 541.3, 251.8)">e</text><text xml:space="preserve" font-family="Courier-Bold,Courier" font-weight="bold" font-size="50.0" fill="#D5D5D5" transform="matrix(1.00, 0.00, -0.00, -1.00, 571.3, 251.8)">n</text><text xml:space="preserve" font-family="Courier-Bold,Courier" font-weight="bold" font-size="50.0" fill="#D5D5D5" transform="matrix(1.00, 0.00, -0.00, -1.00, 601.3, 251.8)">g</text><text xml:space="preserve" font-family="Courier-Bold,Courier" font-weight="bold" font-size="50.0" fill="#D5D5D5" transform="matrix(1.00, 0.00, -0.00, -1.00, 631.4, 251.8)">t</text><text xml:space="preserve" font-family="Courier-Bold,Courier" font-weight="bold" font-size="50.0" fill="#D5D5D5" transform="matrix(1.00, 0.00, -0.00, -1.00, 661.4, 251.8)">h</text><text xml:space="preserve" font-family="Courier-Bold,Courier" font-weight="bold" font-size="50.0" fill="#D5D5D5" transform="matrix(1.00, 0.00, -0.00, -1.00, 691.4, 251.8)">,</text><text xml:space="preserve" font-family="Courier-Bold,Courier" font-weight="bold" font-size="50.0" fill="#D5D5D5" transform="matrix(1.00, 0.00, -0.00, -1.00, 1.2, 191.8)"> </text><text xml:space="preserve" font-family="Courier-Bold,Courier" font-weight="bold" font-size="50.0" fill="#D5D5D5" transform="matrix(1.00, 0.00, -0.00, -1.00, 31.2, 191.8)"> </text><text xml:space="preserve" font-family="Courier-Bold,Courier" font-weight="bold" font-size="50.0" fill="#D5D5D5" transform="matrix(1.00, 0.00, -0.00, -1.00, 61.2, 191.8)"> </text><text xml:space="preserve" font-family="Courier-Bold,Courier" font-weight="bold" font-size="50.0" fill="#D5D5D5" transform="matrix(1.00, 0.00, -0.00, -1.00, 91.2, 191.8)"> </text><text xml:space="preserve" font-family="Courier-Bold,Courier" font-weight="bold" font-size="50.0" fill="#D5D5D5" transform="matrix(1.00, 0.00, -0.00, -1.00, 121.2, 191.8)"> </text><text xml:space="preserve" font-family="Courier-Bold,Courier" font-weight="bold" font-size="50.0" fill="#D5D5D5" transform="matrix(1.00, 0.00, -0.00, -1.00, 151.2, 191.8)"> </text><text xml:space="preserve" font-family="Courier-Bold,Courier" font-weight="bold" font-size="50.0" fill="#D5D5D5" transform="matrix(1.00, 0.00, -0.00, -1.00, 181.2, 191.8)"> </text><text xml:space="preserve" font-family="Courier-Bold,Courier" font-weight="bold" font-size="50.0" fill="#D5D5D5" transform="matrix(1.00, 0.00, -0.00, -1.00, 211.2, 191.8)"> </text><text xml:space="preserve" font-family="Courier-Bold,Courier" font-weight="bold" font-size="50.0" fill="#D5D5D5" transform="matrix(1.00, 0.00, -0.00, -1.00, 241.2, 191.8)">t</text><text xml:space="preserve" font-family="Courier-Bold,Courier" font-weight="bold" font-size="50.0" fill="#D5D5D5" transform="matrix(1.00, 0.00, -0.00, -1.00, 271.2, 191.8)">y</text><text xml:space="preserve" font-family="Courier-Bold,Courier" font-weight="bold" font-size="50.0" fill="#D5D5D5" transform="matrix(1.00, 0.00, -0.00, -1.00, 301.3, 191.8)">p</text><text xml:space="preserve" font-family="Courier-Bold,Courier" font-weight="bold" font-size="50.0" fill="#D5D5D5" transform="matrix(1.00, 0.00, -0.00, -1.00, 331.3, 191.8)">e</text><text xml:space="preserve" font-family="Courier-Bold,Courier" font-weight="bold" font-size="50.0" fill="#D5D5D5" transform="matrix(1.00, 0.00, -0.00, -1.00, 361.3, 191.8)"> </text><text xml:space="preserve" font-family="Courier-Bold,Courier" font-weight="bold" font-size="50.0" fill="#D5D5D5" transform="matrix(1.00, 0.00, -0.00, -1.00, 391.3, 191.8)">=</text><text xml:space="preserve" font-family="Courier-Bold,Courier" font-weight="bold" font-size="50.0" fill="#D5D5D5" transform="matrix(1.00, 0.00, -0.00, -1.00, 421.3, 191.8)"> </text><text xml:space="preserve" font-family="Courier-Bold,Courier" font-weight="bold" font-size="50.0" fill="#D5D5D5" transform="matrix(1.00, 0.00, -0.00, -1.00, 451.3, 191.8)">T</text><text xml:space="preserve" font-family="Courier-Bold,Courier" font-weight="bold" font-size="50.0" fill="#D5D5D5" transform="matrix(1.00, 0.00, -0.00, -1.00, 481.3, 191.8)">y</text><text xml:space="preserve" font-family="Courier-Bold,Courier" font-weight="bold" font-size="50.0" fill="#D5D5D5" transform="matrix(1.00, 0.00, -0.00, -1.00, 511.3, 191.8)">p</text><text xml:space="preserve" font-family="Courier-Bold,Courier" font-weight="bold" font-size="50.0" fill="#D5D5D5" transform="matrix(1.00, 0.00, -0.00, -1.00, 541.3, 191.8)">e</text><text xml:space="preserve" font-family="Courier-Bold,Courier" font-weight="bold" font-size="50.0" fill="#D5D5D5" transform="matrix(1.00, 0.00, -0.00, -1.00, 571.3, 191.8)">,</text><text xml:space="preserve" font-family="Courier-Bold,Courier" font-weight="bold" font-size="50.0" fill="#D5D5D5" transform="matrix(1.00, 0.00, -0.00, -1.00, 1.2, 131.8)"> </text><text xml:space="preserve" font-family="Courier-Bold,Courier" font-weight="bold" font-size="50.0" fill="#D5D5D5" transform="matrix(1.00, 0.00, -0.00, -1.00, 31.2, 131.8)"> </text><text xml:space="preserve" font-family="Courier-Bold,Courier" font-weight="bold" font-size="50.0" fill="#D5D5D5" transform="matrix(1.00, 0.00, -0.00, -1.00, 61.2, 131.8)"> </text><text xml:space="preserve" font-family="Courier-Bold,Courier" font-weight="bold" font-size="50.0" fill="#D5D5D5" transform="matrix(1.00, 0.00, -0.00, -1.00, 91.2, 131.8)"> </text><text xml:space="preserve" font-family="Courier-Bold,Courier" font-weight="bold" font-size="50.0" fill="#D5D5D5" transform="matrix(1.00, 0.00, -0.00, -1.00, 121.2, 131.8)"> </text><text xml:space="preserve" font-family="Courier-Bold,Courier" font-weight="bold" font-size="50.0" fill="#D5D5D5" transform="matrix(1.00, 0.00, -0.00, -1.00, 151.2, 131.8)"> </text><text xml:space="preserve" font-family="Courier-Bold,Courier" font-weight="bold" font-size="50.0" fill="#D5D5D5" transform="matrix(1.00, 0.00, -0.00, -1.00, 181.2, 131.8)"> </text><text xml:space="preserve" font-family="Courier-Bold,Courier" font-weight="bold" font-size="50.0" fill="#D5D5D5" transform="matrix(1.00, 0.00, -0.00, -1.00, 211.2, 131.8)"> </text><text xml:space="preserve" font-family="Courier-Bold,Courier" font-weight="bold" font-size="50.0" fill="#D5D5D5" transform="matrix(1.00, 0.00, -0.00, -1.00, 241.2, 131.8)">f</text><text xml:space="preserve" font-family="Courier-Bold,Courier" font-weight="bold" font-size="50.0" fill="#D5D5D5" transform="matrix(1.00, 0.00, -0.00, -1.00, 271.2, 131.8)">l</text><text xml:space="preserve" font-family="Courier-Bold,Courier" font-weight="bold" font-size="50.0" fill="#D5D5D5" transform="matrix(1.00, 0.00, -0.00, -1.00, 301.3, 131.8)">a</text><text xml:space="preserve" font-family="Courier-Bold,Courier" font-weight="bold" font-size="50.0" fill="#D5D5D5" transform="matrix(1.00, 0.00, -0.00, -1.00, 331.3, 131.8)">g</text><text xml:space="preserve" font-family="Courier-Bold,Courier" font-weight="bold" font-size="50.0" fill="#D5D5D5" transform="matrix(1.00, 0.00, -0.00, -1.00, 361.3, 131.8)">s</text><text xml:space="preserve" font-family="Courier-Bold,Courier" font-weight="bold" font-size="50.0" fill="#D5D5D5" transform="matrix(1.00, 0.00, -0.00, -1.00, 391.3, 131.8)"> </text><text xml:space="preserve" font-family="Courier-Bold,Courier" font-weight="bold" font-size="50.0" fill="#D5D5D5" transform="matrix(1.00, 0.00, -0.00, -1.00, 421.3, 131.8)">=</text><text xml:space="preserve" font-family="Courier-Bold,Courier" font-weight="bold" font-size="50.0" fill="#D5D5D5" transform="matrix(1.00, 0.00, -0.00, -1.00, 451.3, 131.8)"> </text><text xml:space="preserve" font-family="Courier-Bold,Courier" font-weight="bold" font-size="50.0" fill="#D5D5D5" transform="matrix(1.00, 0.00, -0.00, -1.00, 481.3, 131.8)">F</text><text xml:space="preserve" font-family="Courier-Bold,Courier" font-weight="bold" font-size="50.0" fill="#D5D5D5" transform="matrix(1.00, 0.00, -0.00, -1.00, 511.3, 131.8)">l</text><text xml:space="preserve" font-family="Courier-Bold,Courier" font-weight="bold" font-size="50.0" fill="#D5D5D5" transform="matrix(1.00, 0.00, -0.00, -1.00, 541.3, 131.8)">a</text><text xml:space="preserve" font-family="Courier-Bold,Courier" font-weight="bold" font-size="50.0" fill="#D5D5D5" transform="matrix(1.00, 0.00, -0.00, -1.00, 571.3, 131.8)">g</text><text xml:space="preserve" font-family="Courier-Bold,Courier" font-weight="bold" font-size="50.0" fill="#D5D5D5" transform="matrix(1.00, 0.00, -0.00, -1.00, 601.3, 131.8)">s</text><text xml:space="preserve" font-family="Courier-Bold,Courier" font-weight="bold" font-size="50.0" fill="#D5D5D5" transform="matrix(1.00, 0.00, -0.00, -1.00, 631.4, 131.8)">,</text><text xml:space="preserve" font-family="Courier-Bold,Courier" font-weight="bold" font-size="50.0" fill="#D5D5D5" transform="matrix(1.00, 0.00, -0.00, -1.00, 1.2, 71.8)"> </text><text xml:space="preserve" font-family="Courier-Bold,Courier" font-weight="bold" font-size="50.0" fill="#D5D5D5" transform="matrix(1.00, 0.00, -0.00, -1.00, 31.2, 71.8)"> </text><text xml:space="preserve" font-family="Courier-Bold,Courier" font-weight="bold" font-size="50.0" fill="#D5D5D5" transform="matrix(1.00, 0.00, -0.00, -1.00, 61.2, 71.8)"> </text><text xml:space="preserve" font-family="Courier-Bold,Courier" font-weight="bold" font-size="50.0" fill="#D5D5D5" transform="matrix(1.00, 0.00, -0.00, -1.00, 91.2, 71.8)"> </text><text xml:space="preserve" font-family="Courier-Bold,Courier" font-weight="bold" font-size="50.0" fill="#D5D5D5" transform="matrix(1.00, 0.00, -0.00, -1.00, 121.2, 71.8)"> </text><text xml:space="preserve" font-family="Courier-Bold,Courier" font-weight="bold" font-size="50.0" fill="#D5D5D5" transform="matrix(1.00, 0.00, -0.00, -1.00, 151.2, 71.8)"> </text><text xml:space="preserve" font-family="Courier-Bold,Courier" font-weight="bold" font-size="50.0" fill="#D5D5D5" transform="matrix(1.00, 0.00, -0.00, -1.00, 181.2, 71.8)"> </text><text xml:space="preserve" font-family="Courier-Bold,Courier" font-weight="bold" font-size="50.0" fill="#D5D5D5" transform="matrix(1.00, 0.00, -0.00, -1.00, 211.2, 71.8)"> </text><text xml:space="preserve" font-family="Courier-Bold,Courier" font-weight="bold" font-size="50.0" fill="#D5D5D5" transform="matrix(1.00, 0.00, -0.00, -1.00, 241.2, 71.8)">s</text><text xml:space="preserve" font-family="Courier-Bold,Courier" font-weight="bold" font-size="50.0" fill="#D5D5D5" transform="matrix(1.00, 0.00, -0.00, -1.00, 271.2, 71.8)">t</text><text xml:space="preserve" font-family="Courier-Bold,Courier" font-weight="bold" font-size="50.0" fill="#D5D5D5" transform="matrix(1.00, 0.00, -0.00, -1.00, 301.3, 71.8)">r</text><text xml:space="preserve" font-family="Courier-Bold,Courier" font-weight="bold" font-size="50.0" fill="#D5D5D5" transform="matrix(1.00, 0.00, -0.00, -1.00, 331.3, 71.8)">e</text><text xml:space="preserve" font-family="Courier-Bold,Courier" font-weight="bold" font-size="50.0" fill="#D5D5D5" transform="matrix(1.00, 0.00, -0.00, -1.00, 361.3, 71.8)">a</text><text xml:space="preserve" font-family="Courier-Bold,Courier" font-weight="bold" font-size="50.0" fill="#D5D5D5" transform="matrix(1.00, 0.00, -0.00, -1.00, 391.3, 71.8)">m</text><text xml:space="preserve" font-family="Courier-Bold,Courier" font-weight="bold" font-size="50.0" fill="#D5D5D5" transform="matrix(1.00, 0.00, -0.00, -1.00, 421.3, 71.8)">_</text><text xml:space="preserve" font-family="Courier-Bold,Courier" font-weight="bold" font-size="50.0" fill="#D5D5D5" transform="matrix(1.00, 0.00, -0.00, -1.00, 451.3, 71.8)">i</text><text xml:space="preserve" font-family="Courier-Bold,Courier" font-weight="bold" font-size="50.0" fill="#D5D5D5" transform="matrix(1.00, 0.00, -0.00, -1.00, 481.3, 71.8)">d</text><text xml:space="preserve" font-family="Courier-Bold,Courier" font-weight="bold" font-size="50.0" fill="#D5D5D5" transform="matrix(1.00, 0.00, -0.00, -1.00, 511.3, 71.8)"> </text><text xml:space="preserve" font-family="Courier-Bold,Courier" font-weight="bold" font-size="50.0" fill="#D5D5D5" transform="matrix(1.00, 0.00, -0.00, -1.00, 541.3, 71.8)">=</text><text xml:space="preserve" font-family="Courier-Bold,Courier" font-weight="bold" font-size="50.0" fill="#D5D5D5" transform="matrix(1.00, 0.00, -0.00, -1.00, 571.3, 71.8)"> </text><text xml:space="preserve" font-family="Courier-Bold,Courier" font-weight="bold" font-size="50.0" fill="#D5D5D5" transform="matrix(1.00, 0.00, -0.00, -1.00, 601.3, 71.8)">S</text><text xml:space="preserve" font-family="Courier-Bold,Courier" font-weight="bold" font-size="50.0" fill="#D5D5D5" transform="matrix(1.00, 0.00, -0.00, -1.00, 631.4, 71.8)">t</text><text xml:space="preserve" font-family="Courier-Bold,Courier" font-weight="bold" font-size="50.0" fill="#D5D5D5" transform="matrix(1.00, 0.00, -0.00, -1.00, 661.4, 71.8)">r</text><text xml:space="preserve" font-family="Courier-Bold,Courier" font-weight="bold" font-size="50.0" fill="#D5D5D5" transform="matrix(1.00, 0.00, -0.00, -1.00, 691.4, 71.8)">e</text><text xml:space="preserve" font-family="Courier-Bold,Courier" font-weight="bold" font-size="50.0" fill="#D5D5D5" transform="matrix(1.00, 0.00, -0.00, -1.00, 721.4, 71.8)">a</text><text xml:space="preserve" font-family="Courier-Bold,Courier" font-weight="bold" font-size="50.0" fill="#D5D5D5" transform="matrix(1.00, 0.00, -0.00, -1.00, 751.4, 71.8)">m</text><text xml:space="preserve" font-family="Courier-Bold,Courier" font-weight="bold" font-size="50.0" fill="#D5D5D5" transform="matrix(1.00, 0.00, -0.00, -1.00, 781.4, 71.8)">I</text><text xml:space="preserve" font-family="Courier-Bold,Courier" font-weight="bold" font-size="50.0" fill="#D5D5D5" transform="matrix(1.00, 0.00, -0.00, -1.00, 811.4, 71.8)">d</text><text xml:space="preserve" font-family="Courier-Bold,Courier" font-weight="bold" font-size="50.0" fill="#D5D5D5" transform="matrix(1.00, 0.00, -0.00, -1.00, 1.2, 11.8)"> </text><text xml:space="preserve" font-family="Courier-Bold,Courier" font-weight="bold" font-size="50.0" fill="#D5D5D5" transform="matrix(1.00, 0.00, -0.00, -1.00, 31.2, 11.8)"> </text><text xml:space="preserve" font-family="Courier-Bold,Courier" font-weight="bold" font-size="50.0" fill="#D5D5D5" transform="matrix(1.00, 0.00, -0.00, -1.00, 61.2, 11.8)"> </text><text xml:space="preserve" font-family="Courier-Bold,Courier" font-weight="bold" font-size="50.0" fill="#D5D5D5" transform="matrix(1.00, 0.00, -0.00, -1.00, 91.2, 11.8)"> </text><text xml:space="preserve" font-family="Courier-Bold,Courier" font-weight="bold" font-size="50.0" fill="#D5D5D5" transform="matrix(1.00, 0.00, -0.00, -1.00, 121.2, 11.8)">}</text><text xml:space="preserve" font-family="Courier-Bold,Courier" font-weight="bold" font-size="50.0" fill="#D5D5D5" transform="matrix(1.00, 0.00, -0.00, -1.00, 151.2, 11.8)">.</text></g></svg>