<?xml version="1.0" encoding="UTF-8" standalone="no"?><svg xmlns="http://www.w3.org/2000/svg" xmlns:xlink="http://www.w3.org/1999/xlink" clip-rule="evenodd" stroke-miterlimit="10" viewBox="0 0 842 348"><desc>SVG generated by Keynote</desc><defs></defs><g transform="matrix(1.00, 0.00, -0.00, -1.00, 0.0, 348.0)"><text xml:space="preserve" font-family="Courier-Bold,Courier" font-weight="bold" font-size="50.0" fill="#000000" transform="matrix(1.00, 0.00, -0.00, -1.00, 1.8, 311.6)"> </text><text xml:space="preserve" font-family="Courier-Bold,Courier" font-weight="bold" font-size="50.0" fill="#000000" transform="matrix(1.00, 0.00, -0.00, -1.00, 31.8, 311.6)"> </text><text xml:space="preserve" font-family="Courier-Bold,Courier" font-weight="bold" font-size="50.0" fill="#000000" transform="matrix(1.00, 0.00, -0.00, -1.00, 61.8, 311.6)"> </text><text xml:space="preserve" font-family="Courier-Bold,Courier" font-weight="bold" font-size="50.0" fill="#000000" transform="matrix(1.00, 0.00, -0.00, -1.00, 91.8, 311.6)"> </text><text xml:space="preserve" font-family="Courier-Bold,Courier" font-weight="bold" font-size="50.0" fill="#000000" transform="matrix(1.00, 0.00, -0.00, -1.00, 121.8, 311.6)">#</text><text xml:space="preserve" font-family="Courier-Bold,Courier" font-weight="bold" font-size="50.0" fill="#F4871E" transform="matrix(1.00, 0.00, -0.00, -1.00, 151.8, 311.6)">f</text><text xml:space="preserve" font-family="Courier-Bold,Courier" font-weight="bold" font-size="50.0" fill="#F4871E" transform="matrix(1.00, 0.00, -0.00, -1.00, 181.8, 311.6)">r</text><text xml:space="preserve" font-family="Courier-Bold,Courier" font-weight="bold" font-size="50.0" fill="#F4871E" transform="matrix(1.00, 0.00, -0.00, -1.00, 211.8, 311.6)">a</text><text xml:space="preserve" font-family="Courier-Bold,Courier" font-weight="bold" font-size="50.0" fill="#F4871E" transform="matrix(1.00, 0.00, -0.00, -1.00, 241.8, 311.6)">m</text><text xml:space="preserve" font-family="Courier-Bold,Courier" font-weight="bold" font-size="50.0" fill="#F4871E" transform="matrix(1.00, 0.00, -0.00, -1.00, 271.9, 311.6)">e</text><text xml:space="preserve" font-family="Courier-Bold,Courier" font-weight="bold" font-size="50.0" fill="#F4871E" transform="matrix(1.00, 0.00, -0.00, -1.00, 301.9, 311.6)">_</text><text xml:space="preserve" font-family="Courier-Bold,Courier" font-weight="bold" font-size="50.0" fill="#F4871E" transform="matrix(1.00, 0.00, -0.00, -1.00, 331.9, 311.6)">h</text><text xml:space="preserve" font-family="Courier-Bold,Courier" font-weight="bold" font-size="50.0" fill="#F4871E" transform="matrix(1.00, 0.00, -0.00, -1.00, 361.9, 311.6)">e</text><text xml:space="preserve" font-family="Courier-Bold,Courier" font-weight="bold" font-size="50.0" fill="#F4871E" transform="matrix(1.00, 0.00, -0.00, -1.00, 391.9, 311.6)">a</text><text xml:space="preserve" font-family="Courier-Bold,Courier" font-weight="bold" font-size="50.0" fill="#F4871E" transform="matrix(1.00, 0.00, -0.00, -1.00, 421.9, 311.6)">d</text><text xml:space="preserve" font-family="Courier-Bold,Courier" font-weight="bold" font-size="50.0" fill="#F4871E" transform="matrix(1.00, 0.00, -0.00, -1.00, 451.9, 311.6)">e</text><text xml:space="preserve" font-family="Courier-Bold,Courier" font-weight="bold" font-size="50.0" fill="#F4871E" transform="matrix(1.00, 0.00, -0.00, -1.00, 481.9, 311.6)">r</text><text xml:space="preserve" font-family="Courier-Bold,Courier" font-weight="bold" font-size="50.0" fill="#000000" transform="matrix(1.00, 0.00, -0.00, -1.00, 511.9, 311.6)">{</text><text xml:space="preserve" font-family="Courier-Bold,Courier" font-weight="bold" font-size="50.0" fill="#000000" transform="matrix(1.00, 0.00, -0.00, -1.00, 1.8, 251.6)"> </text><text xml:space="preserve" font-family="Courier-Bold,Courier" font-weight="bold" font-size="50.0" fill="#000000" transform="matrix(1.00, 0.00, -0.00, -1.00, 31.8, 251.6)"> </text><text xml:space="preserve" font-family="Courier-Bold,Courier" font-weight="bold" font-size="50.0" fill="#000000" transform="matrix(1.00, 0.00, -0.00, -1.00, 61.8, 251.6)"> </text><text xml:space="preserve" font-family="Courier-Bold,Courier" font-weight="bold" font-size="50.0" fill="#000000" transform="matrix(1.00, 0.00, -0.00, -1.00, 91.8, 251.6)"> </text><text xml:space="preserve" font-family="Courier-Bold,Courier" font-weight="bold" font-size="50.0" fill="#000000" transform="matrix(1.00, 0.00, -0.00, -1.00, 121.8, 251.6)"> </text><text xml:space="preserve" font-family="Courier-Bold,Courier" font-weight="bold" font-size="50.0" fill="#000000" transform="matrix(1.00, 0.00, -0.00, -1.00, 151.8, 251.6)"> </text><text xml:space="preserve" font-family="Courier-Bold,Courier" font-weight="bold" font-size="50.0" fill="#000000" transform="matrix(1.00, 0.00, -0.00, -1.00, 181.9, 251.6)"> </text><text xml:space="preserve" font-family="Courier-Bold,Courier" font-weight="bold" font-size="50.0" fill="#000000" transform="matrix(1.00, 0.00, -0.00, -1.00, 211.9, 251.6)"> </text><text xml:space="preserve" font-family="Courier-Bold,Courier" font-weight="bold" font-size="50.0" fill="#000000" transform="matrix(1.00, 0.00, -0.00, -1.00, 241.9, 251.6)">l</text><text xml:space="preserve" font-family="Courier-Bold,Courier" font-weight="bold" font-size="50.0" fill="#000000" transform="matrix(1.00, 0.00, -0.00, -1.00, 271.9, 251.6)">e</text><text xml:space="preserve" font-family="Courier-Bold,Courier" font-weight="bold" font-size="50.0" fill="#000000" transform="matrix(1.00, 0.00, -0.00, -1.00, 301.9, 251.6)">n</text><text xml:space="preserve" font-family="Courier-Bold,Courier" font-weight="bold" font-size="50.0" fill="#000000" transform="matrix(1.00, 0.00, -0.00, -1.00, 331.9, 251.6)">g</text><text xml:space="preserve" font-family="Courier-Bold,Courier" font-weight="bold" font-size="50.0" fill="#000000" transform="matrix(1.00, 0.00, -0.00, -1.00, 361.9, 251.6)">t</text><text xml:space="preserve" font-family="Courier-Bold,Courier" font-weight="bold" font-size="50.0" fill="#000000" transform="matrix(1.00, 0.00, -0.00, -1.00, 391.9, 251.6)">h</text><text xml:space="preserve" font-family="Courier-Bold,Courier" font-weight="bold" font-size="50.0" fill="#000000" transform="matrix(1.00, 0.00, -0.00, -1.00, 421.9, 251.6)"> </text><text xml:space="preserve" font-family="Courier-Bold,Courier" font-weight="bold" font-size="50.0" fill="#000000" transform="matrix(1.00, 0.00, -0.00, -1.00, 451.9, 251.6)">=</text><text xml:space="preserve" font-family="Courier-Bold,Courier" font-weight="bold" font-size="50.0" fill="#000000" transform="matrix(1.00, 0.00, -0.00, -1.00, 482.0, 251.6)"> </text><text xml:space="preserve" font-family="Courier-Bold,Courier" font-weight="bold" font-size="50.0" fill="#EAB600" transform="matrix(1.00, 0.00, -0.00, -1.00, 511.9, 251.6)">L</text><text xml:space="preserve" font-family="Courier-Bold,Courier" font-weight="bold" font-size="50.0" fill="#EAB600" transform="matrix(1.00, 0.00, -0.00, -1.00, 541.9, 251.6)">e</text><text xml:space="preserve" font-family="Courier-Bold,Courier" font-weight="bold" font-size="50.0" fill="#EAB600" transform="matrix(1.00, 0.00, -0.00, -1.00, 571.9, 251.6)">n</text><text xml:space="preserve" font-family="Courier-Bold,Courier" font-weight="bold" font-size="50.0" fill="#EAB600" transform="matrix(1.00, 0.00, -0.00, -1.00, 601.9, 251.6)">g</text><text xml:space="preserve" font-family="Courier-Bold,Courier" font-weight="bold" font-size="50.0" fill="#EAB600" transform="matrix(1.00, 0.00, -0.00, -1.00, 631.9, 251.6)">t</text><text xml:space="preserve" font-family="Courier-Bold,Courier" font-weight="bold" font-size="50.0" fill="#EAB600" transform="matrix(1.00, 0.00, -0.00, -1.00, 661.9, 251.6)">h</text><text xml:space="preserve" font-family="Courier-Bold,Courier" font-weight="bold" font-size="50.0" fill="#000000" transform="matrix(1.00, 0.00, -0.00, -1.00, 691.9, 251.6)">,</text><text xml:space="preserve" font-family="Courier-Bold,Courier" font-weight="bold" font-size="50.0" fill="#000000" transform="matrix(1.00, 0.00, -0.00, -1.00, 1.8, 191.6)"> </text><text xml:space="preserve" font-family="Courier-Bold,Courier" font-weight="bold" font-size="50.0" fill="#000000" transform="matrix(1.00, 0.00, -0.00, -1.00, 31.8, 191.6)"> </text><text xml:space="preserve" font-family="Courier-Bold,Courier" font-weight="bold" font-size="50.0" fill="#000000" transform="matrix(1.00, 0.00, -0.00, -1.00, 61.8, 191.6)"> </text><text xml:space="preserve" font-family="Courier-Bold,Courier" font-weight="bold" font-size="50.0" fill="#000000" transform="matrix(1.00, 0.00, -0.00, -1.00, 91.8, 191.6)"> </text><text xml:space="preserve" font-family="Courier-Bold,Courier" font-weight="bold" font-size="50.0" fill="#000000" transform="matrix(1.00, 0.00, -0.00, -1.00, 121.8, 191.6)"> </text><text xml:space="preserve" font-family="Courier-Bold,Courier" font-weight="bold" font-size="50.0" fill="#000000" transform="matrix(1.00, 0.00, -0.00, -1.00, 151.8, 191.6)"> </text><text xml:space="preserve" font-family="Courier-Bold,Courier" font-weight="bold" font-size="50.0" fill="#000000" transform="matrix(1.00, 0.00, -0.00, -1.00, 181.9, 191.6)"> </text><text xml:space="preserve" font-family="Courier-Bold,Courier" font-weight="bold" font-size="50.0" fill="#000000" transform="matrix(1.00, 0.00, -0.00, -1.00, 211.9, 191.6)"> </text><text xml:space="preserve" font-family="Courier-Bold,Courier" font-weight="bold" font-size="50.0" fill="#000000" transform="matrix(1.00, 0.00, -0.00, -1.00, 241.9, 191.6)">t</text><text xml:space="preserve" font-family="Courier-Bold,Courier" font-weight="bold" font-size="50.0" fill="#000000" transform="matrix(1.00, 0.00, -0.00, -1.00, 271.9, 191.6)">y</text><text xml:space="preserve" font-family="Courier-Bold,Courier" font-weight="bold" font-size="50.0" fill="#000000" transform="matrix(1.00, 0.00, -0.00, -1.00, 301.9, 191.6)">p</text><text xml:space="preserve" font-family="Courier-Bold,Courier" font-weight="bold" font-size="50.0" fill="#000000" transform="matrix(1.00, 0.00, -0.00, -1.00, 331.9, 191.6)">e</text><text xml:space="preserve" font-family="Courier-Bold,Courier" font-weight="bold" font-size="50.0" fill="#000000" transform="matrix(1.00, 0.00, -0.00, -1.00, 361.9, 191.6)"> </text><text xml:space="preserve" font-family="Courier-Bold,Courier" font-weight="bold" font-size="50.0" fill="#000000" transform="matrix(1.00, 0.00, -0.00, -1.00, 391.9, 191.6)">=</text><text xml:space="preserve" font-family="Courier-Bold,Courier" font-weight="bold" font-size="50.0" fill="#000000" transform="matrix(1.00, 0.00, -0.00, -1.00, 421.9, 191.6)"> </text><text xml:space="preserve" font-family="Courier-Bold,Courier" font-weight="bold" font-size="50.0" fill="#EAB600" transform="matrix(1.00, 0.00, -0.00, -1.00, 451.9, 191.6)">T</text><text xml:space="preserve" font-family="Courier-Bold,Courier" font-weight="bold" font-size="50.0" fill="#EAB600" transform="matrix(1.00, 0.00, -0.00, -1.00, 481.9, 191.6)">y</text><text xml:space="preserve" font-family="Courier-Bold,Courier" font-weight="bold" font-size="50.0" fill="#EAB600" transform="matrix(1.00, 0.00, -0.00, -1.00, 511.9, 191.6)">p</text><text xml:space="preserve" font-family="Courier-Bold,Courier" font-weight="bold" font-size="50.0" fill="#EAB600" transform="matrix(1.00, 0.00, -0.00, -1.00, 541.9, 191.6)">e</text><text xml:space="preserve" font-family="Courier-Bold,Courier" font-weight="bold" font-size="50.0" fill="#000000" transform="matrix(1.00, 0.00, -0.00, -1.00, 571.9, 191.6)">,</text><text xml:space="preserve" font-family="Courier-Bold,Courier" font-weight="bold" font-size="50.0" fill="#000000" transform="matrix(1.00, 0.00, -0.00, -1.00, 1.8, 131.6)"> </text><text xml:space="preserve" font-family="Courier-Bold,Courier" font-weight="bold" font-size="50.0" fill="#000000" transform="matrix(1.00, 0.00, -0.00, -1.00, 31.8, 131.6)"> </text><text xml:space="preserve" font-family="Courier-Bold,Courier" font-weight="bold" font-size="50.0" fill="#000000" transform="matrix(1.00, 0.00, -0.00, -1.00, 61.8, 131.6)"> </text><text xml:space="preserve" font-family="Courier-Bold,Courier" font-weight="bold" font-size="50.0" fill="#000000" transform="matrix(1.00, 0.00, -0.00, -1.00, 91.8, 131.6)"> </text><text xml:space="preserve" font-family="Courier-Bold,Courier" font-weight="bold" font-size="50.0" fill="#000000" transform="matrix(1.00, 0.00, -0.00, -1.00, 121.8, 131.6)"> </text><text xml:space="preserve" font-family="Courier-Bold,Courier" font-weight="bold" font-size="50.0" fill="#000000" transform="matrix(1.00, 0.00, -0.00, -1.00, 151.8, 131.6)"> </text><text xml:space="preserve" font-family="Courier-Bold,Courier" font-weight="bold" font-size="50.0" fill="#000000" transform="matrix(1.00, 0.00, -0.00, -1.00, 181.9, 131.6)"> </text><text xml:space="preserve" font-family="Courier-Bold,Courier" font-weight="bold" font-size="50.0" fill="#000000" transform="matrix(1.00, 0.00, -0.00, -1.00, 211.9, 131.6)"> </text><text xml:space="preserve" font-family="Courier-Bold,Courier" font-weight="bold" font-size="50.0" fill="#000000" transform="matrix(1.00, 0.00, -0.00, -1.00, 241.9, 131.6)">f</text><text xml:space="preserve" font-family="Courier-Bold,Courier" font-weight="bold" font-size="50.0" fill="#000000" transform="matrix(1.00, 0.00, -0.00, -1.00, 271.9, 131.6)">l</text><text xml:space="preserve" font-family="Courier-Bold,Courier" font-weight="bold" font-size="50.0" fill="#000000" transform="matrix(1.00, 0.00, -0.00, -1.00, 301.9, 131.6)">a</text><text xml:space="preserve" font-family="Courier-Bold,Courier" font-weight="bold" font-size="50.0" fill="#000000" transform="matrix(1.00, 0.00, -0.00, -1.00, 331.9, 131.6)">g</text><text xml:space="preserve" font-family="Courier-Bold,Courier" font-weight="bold" font-size="50.0" fill="#000000" transform="matrix(1.00, 0.00, -0.00, -1.00, 361.9, 131.6)">s</text><text xml:space="preserve" font-family="Courier-Bold,Courier" font-weight="bold" font-size="50.0" fill="#000000" transform="matrix(1.00, 0.00, -0.00, -1.00, 391.9, 131.6)"> </text><text xml:space="preserve" font-family="Courier-Bold,Courier" font-weight="bold" font-size="50.0" fill="#000000" transform="matrix(1.00, 0.00, -0.00, -1.00, 421.9, 131.6)">=</text><text xml:space="preserve" font-family="Courier-Bold,Courier" font-weight="bold" font-size="50.0" fill="#000000" transform="matrix(1.00, 0.00, -0.00, -1.00, 451.9, 131.6)"> </text><text xml:space="preserve" font-family="Courier-Bold,Courier" font-weight="bold" font-size="50.0" fill="#EAB600" transform="matrix(1.00, 0.00, -0.00, -1.00, 481.9, 131.6)">F</text><text xml:space="preserve" font-family="Courier-Bold,Courier" font-weight="bold" font-size="50.0" fill="#EAB600" transform="matrix(1.00, 0.00, -0.00, -1.00, 511.9, 131.6)">l</text><text xml:space="preserve" font-family="Courier-Bold,Courier" font-weight="bold" font-size="50.0" fill="#EAB600" transform="matrix(1.00, 0.00, -0.00, -1.00, 541.9, 131.6)">a</text><text xml:space="preserve" font-family="Courier-Bold,Courier" font-weight="bold" font-size="50.0" fill="#EAB600" transform="matrix(1.00, 0.00, -0.00, -1.00, 571.9, 131.6)">g</text><text xml:space="preserve" font-family="Courier-Bold,Courier" font-weight="bold" font-size="50.0" fill="#EAB600" transform="matrix(1.00, 0.00, -0.00, -1.00, 601.9, 131.6)">s</text><text xml:space="preserve" font-family="Courier-Bold,Courier" font-weight="bold" font-size="50.0" fill="#000000" transform="matrix(1.00, 0.00, -0.00, -1.00, 631.9, 131.6)">,</text><text xml:space="preserve" font-family="Courier-Bold,Courier" font-weight="bold" font-size="50.0" fill="#000000" transform="matrix(1.00, 0.00, -0.00, -1.00, 1.8, 71.6)"> </text><text xml:space="preserve" font-family="Courier-Bold,Courier" font-weight="bold" font-size="50.0" fill="#000000" transform="matrix(1.00, 0.00, -0.00, -1.00, 31.8, 71.6)"> </text><text xml:space="preserve" font-family="Courier-Bold,Courier" font-weight="bold" font-size="50.0" fill="#000000" transform="matrix(1.00, 0.00, -0.00, -1.00, 61.8, 71.6)"> </text><text xml:space="preserve" font-family="Courier-Bold,Courier" font-weight="bold" font-size="50.0" fill="#000000" transform="matrix(1.00, 0.00, -0.00, -1.00, 91.8, 71.6)"> </text><text xml:space="preserve" font-family="Courier-Bold,Courier" font-weight="bold" font-size="50.0" fill="#000000" transform="matrix(1.00, 0.00, -0.00, -1.00, 121.8, 71.6)"> </text><text xml:space="preserve" font-family="Courier-Bold,Courier" font-weight="bold" font-size="50.0" fill="#000000" transform="matrix(1.00, 0.00, -0.00, -1.00, 151.8, 71.6)"> </text><text xml:space="preserve" font-family="Courier-Bold,Courier" font-weight="bold" font-size="50.0" fill="#000000" transform="matrix(1.00, 0.00, -0.00, -1.00, 181.9, 71.6)"> </text><text xml:space="preserve" font-family="Courier-Bold,Courier" font-weight="bold" font-size="50.0" fill="#000000" transform="matrix(1.00, 0.00, -0.00, -1.00, 211.9, 71.6)"> </text><text xml:space="preserve" font-family="Courier-Bold,Courier" font-weight="bold" font-size="50.0" fill="#000000" transform="matrix(1.00, 0.00, -0.00, -1.00, 241.9, 71.6)">s</text><text xml:space="preserve" font-family="Courier-Bold,Courier" font-weight="bold" font-size="50.0" fill="#000000" transform="matrix(1.00, 0.00, -0.00, -1.00, 271.9, 71.6)">t</text><text xml:space="preserve" font-family="Courier-Bold,Courier" font-weight="bold" font-size="50.0" fill="#000000" transform="matrix(1.00, 0.00, -0.00, -1.00, 301.9, 71.6)">r</text><text xml:space="preserve" font-family="Courier-Bold,Courier" font-weight="bold" font-size="50.0" fill="#000000" transform="matrix(1.00, 0.00, -0.00, -1.00, 331.9, 71.6)">e</text><text xml:space="preserve" font-family="Courier-Bold,Courier" font-weight="bold" font-size="50.0" fill="#000000" transform="matrix(1.00, 0.00, -0.00, -1.00, 361.9, 71.6)">a</text><text xml:space="preserve" font-family="Courier-Bold,Courier" font-weight="bold" font-size="50.0" fill="#000000" transform="matrix(1.00, 0.00, -0.00, -1.00, 391.9, 71.6)">m</text><text xml:space="preserve" font-family="Courier-Bold,Courier" font-weight="bold" font-size="50.0" fill="#000000" transform="matrix(1.00, 0.00, -0.00, -1.00, 421.9, 71.6)">_</text><text xml:space="preserve" font-family="Courier-Bold,Courier" font-weight="bold" font-size="50.0" fill="#000000" transform="matrix(1.00, 0.00, -0.00, -1.00, 451.9, 71.6)">i</text><text xml:space="preserve" font-family="Courier-Bold,Courier" font-weight="bold" font-size="50.0" fill="#000000" transform="matrix(1.00, 0.00, -0.00, -1.00, 482.0, 71.6)">d</text><text xml:space="preserve" font-family="Courier-Bold,Courier" font-weight="bold" font-size="50.0" fill="#000000" transform="matrix(1.00, 0.00, -0.00, -1.00, 512.0, 71.6)"> </text><text xml:space="preserve" font-family="Courier-Bold,Courier" font-weight="bold" font-size="50.0" fill="#000000" transform="matrix(1.00, 0.00, -0.00, -1.00, 542.0, 71.6)">=</text><text xml:space="preserve" font-family="Courier-Bold,Courier" font-weight="bold" font-size="50.0" fill="#000000" transform="matrix(1.00, 0.00, -0.00, -1.00, 572.0, 71.6)"> </text><text xml:space="preserve" font-family="Courier-Bold,Courier" font-weight="bold" font-size="50.0" fill="#EAB600" transform="matrix(1.00, 0.00, -0.00, -1.00, 601.9, 71.6)">S</text><text xml:space="preserve" font-family="Courier-Bold,Courier" font-weight="bold" font-size="50.0" fill="#EAB600" transform="matrix(1.00, 0.00, -0.00, -1.00, 631.9, 71.6)">t</text><text xml:space="preserve" font-family="Courier-Bold,Courier" font-weight="bold" font-size="50.0" fill="#EAB600" transform="matrix(1.00, 0.00, -0.00, -1.00, 661.9, 71.6)">r</text><text xml:space="preserve" font-family="Courier-Bold,Courier" font-weight="bold" font-size="50.0" fill="#EAB600" transform="matrix(1.00, 0.00, -0.00, -1.00, 691.9, 71.6)">e</text><text xml:space="preserve" font-family="Courier-Bold,Courier" font-weight="bold" font-size="50.0" fill="#EAB600" transform="matrix(1.00, 0.00, -0.00, -1.00, 721.9, 71.6)">a</text><text xml:space="preserve" font-family="Courier-Bold,Courier" font-weight="bold" font-size="50.0" fill="#EAB600" transform="matrix(1.00, 0.00, -0.00, -1.00, 751.9, 71.6)">m</text><text xml:space="preserve" font-family="Courier-Bold,Courier" font-weight="bold" font-size="50.0" fill="#EAB600" transform="matrix(1.00, 0.00, -0.00, -1.00, 782.0, 71.6)">I</text><text xml:space="preserve" font-family="Courier-Bold,Courier" font-weight="bold" font-size="50.0" fill="#EAB600" transform="matrix(1.00, 0.00, -0.00, -1.00, 812.0, 71.6)">d</text><text xml:space="preserve" font-family="Courier-Bold,Courier" font-weight="bold" font-size="50.0" fill="#000000" transform="matrix(1.00, 0.00, -0.00, -1.00, 1.8, 11.6)"> </text><text xml:space="preserve" font-family="Courier-Bold,Courier" font-weight="bold" font-size="50.0" fill="#000000" transform="matrix(1.00, 0.00, -0.00, -1.00, 31.8, 11.6)"> </text><text xml:space="preserve" font-family="Courier-Bold,Courier" font-weight="bold" font-size="50.0" fill="#000000" transform="matrix(1.00, 0.00, -0.00, -1.00, 61.8, 11.6)"> </text><text xml:space="preserve" font-family="Courier-Bold,Courier" font-weight="bold" font-size="50.0" fill="#000000" transform="matrix(1.00, 0.00, -0.00, -1.00, 91.8, 11.6)"> </text><text xml:space="preserve" font-family="Courier-Bold,Courier" font-weight="bold" font-size="50.0" fill="#000000" transform="matrix(1.00, 0.00, -0.00, -1.00, 121.8, 11.6)">}</text><text xml:space="preserve" font-family="Courier-Bold,Courier" font-weight="bold" font-size="50.0" fill="#000000" transform="matrix(1.00, 0.00, -0.00, -1.00, 151.8, 11.6)">.</text></g></svg>