<?xml version="1.0" encoding="UTF-8" standalone="no"?><svg xmlns="http://www.w3.org/2000/svg" xmlns:xlink="http://www.w3.org/1999/xlink" clip-rule="evenodd" stroke-miterlimit="10" viewBox="0 0 1183 141"><desc>SVG generated by Keynote</desc><defs><linearGradient id="gradSh1.174" x1="-36.0" y1="0.0" x2="36.0" y2="0.0" gradientUnits="userSpaceOnUse" gradientTransform="matrix(0.00, -1.80, -1.81, 0.00, 69.8, 70.5)"><stop offset="0.00000" stop-color="#FFCF40"></stop><stop offset="0.00147" stop-color="#FFCF3F"></stop><stop offset="0.01026" stop-color="#FFCE3F"></stop><stop offset="0.50440" stop-color="#EEAD1F"></stop><stop offset="0.51979" stop-color="#EEAC1F"></stop><stop offset="0.75660" stop-color="#E69D0F"></stop><stop offset="0.75953" stop-color="#E69C0F"></stop><stop offset="0.88270" stop-color="#E29407"></stop><stop offset="0.88710" stop-color="#E19407"></stop><stop offset="0.94501" stop-color="#E09003"></stop><stop offset="0.94721" stop-color="#DF9003"></stop><stop offset="0.97654" stop-color="#DF8E01"></stop><stop offset="0.97727" stop-color="#DE8E01"></stop><stop offset="0.99267" stop-color="#DE8D00"></stop><stop offset="0.99927" stop-color="#DE8C00"></stop><stop offset="1.00000" stop-color="#DE8C00"></stop></linearGradient><linearGradient id="gradSh2.175" x1="-36.0" y1="0.0" x2="36.0" y2="0.0" gradientUnits="userSpaceOnUse" gradientTransform="matrix(0.00, -1.80, -1.81, 0.00, 200.2, 70.5)"><stop offset="0.00000" stop-color="#FFCF40"></stop><stop offset="0.00147" stop-color="#FFCF3F"></stop><stop offset="0.01026" stop-color="#FFCE3F"></stop><stop offset="0.50440" stop-color="#EEAD1F"></stop><stop offset="0.51979" stop-color="#EEAC1F"></stop><stop offset="0.75660" stop-color="#E69D0F"></stop><stop offset="0.75953" stop-color="#E69C0F"></stop><stop offset="0.88270" stop-color="#E29407"></stop><stop offset="0.88710" stop-color="#E19407"></stop><stop offset="0.94501" stop-color="#E09003"></stop><stop offset="0.94721" stop-color="#DF9003"></stop><stop offset="0.97654" stop-color="#DF8E01"></stop><stop offset="0.97727" stop-color="#DE8E01"></stop><stop offset="0.99267" stop-color="#DE8D00"></stop><stop offset="0.99927" stop-color="#DE8C00"></stop><stop offset="1.00000" stop-color="#DE8C00"></stop></linearGradient><linearGradient id="gradSh3.176" x1="-36.0" y1="0.0" x2="36.0" y2="0.0" gradientUnits="userSpaceOnUse" gradientTransform="matrix(0.00, -1.80, -1.81, 0.00, 330.7, 70.5)"><stop offset="0.00000" stop-color="#FFCF40"></stop><stop offset="0.00147" stop-color="#FFCF3F"></stop><stop offset="0.01026" stop-color="#FFCE3F"></stop><stop offset="0.50440" stop-color="#EEAD1F"></stop><stop offset="0.51979" stop-color="#EEAC1F"></stop><stop offset="0.75660" stop-color="#E69D0F"></stop><stop offset="0.75953" stop-color="#E69C0F"></stop><stop offset="0.88270" stop-color="#E29407"></stop><stop offset="0.88710" stop-color="#E19407"></stop><stop offset="0.94501" stop-color="#E09003"></stop><stop offset="0.94721" stop-color="#DF9003"></stop><stop offset="0.97654" stop-color="#DF8E01"></stop><stop offset="0.97727" stop-color="#DE8E01"></stop><stop offset="0.99267" stop-color="#DE8D00"></stop><stop offset="0.99927" stop-color="#DE8C00"></stop><stop offset="1.00000" stop-color="#DE8C00"></stop></linearGradient><linearGradient id="gradSh4.177" x1="-36.0" y1="0.0" x2="36.0" y2="0.0" gradientUnits="userSpaceOnUse" gradientTransform="matrix(0.00, -1.80, -1.81, 0.00, 591.5, 70.5)"><stop offset="0.00000" stop-color="#E97373"></stop><stop offset="0.00513" stop-color="#E87373"></stop><stop offset="0.62537" stop-color="#BE3F3F"></stop><stop offset="0.63783" stop-color="#BE3E3E"></stop><stop offset="1.00000" stop-color="#A52121"></stop></linearGradient><linearGradient id="gradSh5.178" x1="-36.0" y1="0.0" x2="36.0" y2="0.0" gradientUnits="userSpaceOnUse" gradientTransform="matrix(0.00, -1.80, -1.81, 0.00, 461.1, 70.5)"><stop offset="0.00000" stop-color="#797BD5"></stop><stop offset="0.00367" stop-color="#797AD5"></stop><stop offset="0.78152" stop-color="#3F468B"></stop><stop offset="0.78886" stop-color="#3F458A"></stop><stop offset="1.00000" stop-color="#2F3776"></stop></linearGradient><linearGradient id="gradSh6.179" x1="-36.0" y1="0.0" x2="36.0" y2="0.0" gradientUnits="userSpaceOnUse" gradientTransform="matrix(0.00, -1.80, -1.81, 0.00, 664.9, 70.5)"><stop offset="0.00000" stop-color="#52A2AA"></stop><stop offset="0.00220" stop-color="#51A2AA"></stop><stop offset="0.47947" stop-color="#2B7F88"></stop><stop offset="0.48021" stop-color="#2A7F87"></stop><stop offset="1.00000" stop-color="#005A62"></stop></linearGradient><linearGradient id="gradSh7.180" x1="-36.0" y1="0.0" x2="36.0" y2="0.0" gradientUnits="userSpaceOnUse" gradientTransform="matrix(0.00, -1.80, -1.81, 0.00, 730.1, 70.5)"><stop offset="0.00000" stop-color="#86D040"></stop><stop offset="0.00073" stop-color="#85D040"></stop><stop offset="0.14956" stop-color="#7BC33F"></stop><stop offset="0.15029" stop-color="#7AC23F"></stop><stop offset="1.00000" stop-color="#3C773C"></stop></linearGradient><linearGradient id="gradSh8.181" x1="-36.0" y1="0.0" x2="36.0" y2="0.0" gradientUnits="userSpaceOnUse" gradientTransform="matrix(0.00, -1.80, -1.81, 0.00, 852.3, 70.5)"><stop offset="0.00000" stop-color="#86D040"></stop><stop offset="0.00073" stop-color="#85D040"></stop><stop offset="0.14956" stop-color="#7BC33F"></stop><stop offset="0.15029" stop-color="#7AC23F"></stop><stop offset="1.00000" stop-color="#3C773C"></stop></linearGradient><linearGradient id="gradSh9.182" x1="-36.0" y1="0.0" x2="36.0" y2="0.0" gradientUnits="userSpaceOnUse" gradientTransform="matrix(0.00, -1.80, -1.81, 0.00, 982.8, 70.5)"><stop offset="0.00000" stop-color="#86D040"></stop><stop offset="0.00073" stop-color="#85D040"></stop><stop offset="0.14956" stop-color="#7BC33F"></stop><stop offset="0.15029" stop-color="#7AC23F"></stop><stop offset="1.00000" stop-color="#3C773C"></stop></linearGradient><linearGradient id="gradSh10.183" x1="-36.0" y1="0.0" x2="36.0" y2="0.0" gradientUnits="userSpaceOnUse" gradientTransform="matrix(0.00, -1.80, -1.81, 0.00, 1113.2, 70.5)"><stop offset="0.00000" stop-color="#86D040"></stop><stop offset="0.00073" stop-color="#85D040"></stop><stop offset="0.14956" stop-color="#7BC33F"></stop><stop offset="0.15029" stop-color="#7AC23F"></stop><stop offset="1.00000" stop-color="#3C773C"></stop></linearGradient></defs><g transform="matrix(1.00, 0.00, -0.00, -1.00, 0.0, 141.0)"><g><clipPath id="clip0x7fd438bc1ca0"><path d="M 4.6 135.4 L 135.0 135.4 L 135.0 5.6 L 4.6 5.6 Z M 4.6 135.4 "></path></clipPath><g clip-path="url(#clip0x7fd438bc1ca0)"><g><clipPath id="clip0x7fd438bc2400"><path d="M 1.0 2.0 L 1182.0 2.0 L 1182.0 139.0 L 1.0 139.0 Z M 1.0 2.0 "></path></clipPath><g clip-path="url(#clip0x7fd438bc2400)"><path d="M 1.0 2.0 L 1182.0 2.0 L 1182.0 139.0 L 1.0 139.0 Z M 1.0 2.0 " fill="url(#gradSh1.174)"></path></g></g></g></g><g><clipPath id="clip0x7fd439019520"><path d="M 1.0 2.0 L 1182.0 2.0 L 1182.0 139.0 L 1.0 139.0 Z M 1.0 2.0 "></path></clipPath><g clip-path="url(#clip0x7fd439019520)"><path d="M 144.0 144.0 L 216.0 144.0 L 216.0 216.0 L 144.0 216.0 Z M 144.0 144.0 " fill="none" stroke="#C47900" stroke-width="2.00" stroke-linecap="round" stroke-linejoin="round" transform="matrix(1.81, 0.00, 0.00, -1.80, -256.2, 395.0)"></path></g></g><g><clipPath id="clip0x7fd43901a910"><path d="M 135.0 135.4 L 265.5 135.4 L 265.5 5.6 L 135.0 5.6 Z M 135.0 135.4 "></path></clipPath><g clip-path="url(#clip0x7fd43901a910)"><g><clipPath id="clip0x7fd43901afe0"><path d="M 1.0 2.0 L 1182.0 2.0 L 1182.0 139.0 L 1.0 139.0 Z M 1.0 2.0 "></path></clipPath><g clip-path="url(#clip0x7fd43901afe0)"><path d="M 1.0 2.0 L 1182.0 2.0 L 1182.0 139.0 L 1.0 139.0 Z M 1.0 2.0 " fill="url(#gradSh2.175)"></path></g></g></g></g><g><clipPath id="clip0x7fd43906e0b0"><path d="M 1.0 2.0 L 1182.0 2.0 L 1182.0 139.0 L 1.0 139.0 Z M 1.0 2.0 "></path></clipPath><g clip-path="url(#clip0x7fd43906e0b0)"><path d="M 216.0 144.0 L 288.0 144.0 L 288.0 216.0 L 216.0 216.0 Z M 216.0 144.0 " fill="none" stroke="#C47900" stroke-width="2.00" stroke-linecap="round" stroke-linejoin="round" transform="matrix(1.81, 0.00, 0.00, -1.80, -256.2, 395.0)"></path></g></g><image xlink:href="../../468BC08D-D0CF-490E-91F7-F417CC0FB70B/assets/0CA98C4E858FDCED0D9DE3465318FE40.png" width="107.00" height="42.00" transform="matrix(1.00, 0.00, -0.00, -1.00, 147.0, 86.0)"></image><g><clipPath id="clip0x7fd43906fe90"><path d="M 1.0 2.0 L 1182.0 2.0 L 1182.0 139.0 L 1.0 139.0 Z M 1.0 2.0 "></path></clipPath><g clip-path="url(#clip0x7fd43906fe90)"><text xml:space="preserve" font-family="Helvetica-Bold,Helvetica" font-weight="bold" font-size="16.0" fill="#FFFFFF" transform="matrix(1.81, 0.00, -0.00, -1.80, 152.0, 60.6)">L</text><text xml:space="preserve" font-family="Helvetica-Bold,Helvetica" font-weight="bold" font-size="16.0" fill="#FFFFFF" transform="matrix(1.81, 0.00, -0.00, -1.80, 169.7, 60.6)">e</text><text xml:space="preserve" font-family="Helvetica-Bold,Helvetica" font-weight="bold" font-size="16.0" fill="#FFFFFF" transform="matrix(1.81, 0.00, -0.00, -1.80, 185.8, 60.6)">n</text><text xml:space="preserve" font-family="Helvetica-Bold,Helvetica" font-weight="bold" font-size="16.0" fill="#FFFFFF" transform="matrix(1.81, 0.00, -0.00, -1.80, 203.5, 60.6)">g</text><text xml:space="preserve" font-family="Helvetica-Bold,Helvetica" font-weight="bold" font-size="16.0" fill="#FFFFFF" transform="matrix(1.81, 0.00, -0.00, -1.80, 221.2, 60.6)">t</text><text xml:space="preserve" font-family="Helvetica-Bold,Helvetica" font-weight="bold" font-size="16.0" fill="#FFFFFF" transform="matrix(1.81, 0.00, -0.00, -1.80, 230.8, 60.6)">h</text></g></g><g><clipPath id="clip0x7fd439074c70"><path d="M 265.5 135.4 L 395.9 135.4 L 395.9 5.6 L 265.5 5.6 Z M 265.5 135.4 "></path></clipPath><g clip-path="url(#clip0x7fd439074c70)"><g><clipPath id="clip0x7fd439075400"><path d="M 1.0 2.0 L 1182.0 2.0 L 1182.0 139.0 L 1.0 139.0 Z M 1.0 2.0 "></path></clipPath><g clip-path="url(#clip0x7fd439075400)"><path d="M 1.0 2.0 L 1182.0 2.0 L 1182.0 139.0 L 1.0 139.0 Z M 1.0 2.0 " fill="url(#gradSh3.176)"></path></g></g></g></g><g><clipPath id="clip0x7fd4390c83e0"><path d="M 1.0 2.0 L 1182.0 2.0 L 1182.0 139.0 L 1.0 139.0 Z M 1.0 2.0 "></path></clipPath><g clip-path="url(#clip0x7fd4390c83e0)"><path d="M 288.0 144.0 L 360.0 144.0 L 360.0 216.0 L 288.0 216.0 Z M 288.0 144.0 " fill="none" stroke="#C47900" stroke-width="2.00" stroke-linecap="round" stroke-linejoin="round" transform="matrix(1.81, 0.00, 0.00, -1.80, -256.2, 395.0)"></path></g></g><g><clipPath id="clip0x7fd4390c9510"><path d="M 526.3 135.4 L 656.7 135.4 L 656.7 5.6 L 526.3 5.6 Z M 526.3 135.4 "></path></clipPath><g clip-path="url(#clip0x7fd4390c9510)"><g><clipPath id="clip0x7fd4390c9c30"><path d="M 1.0 2.0 L 1182.0 2.0 L 1182.0 139.0 L 1.0 139.0 Z M 1.0 2.0 "></path></clipPath><g clip-path="url(#clip0x7fd4390c9c30)"><path d="M 1.0 2.0 L 1182.0 2.0 L 1182.0 139.0 L 1.0 139.0 Z M 1.0 2.0 " fill="url(#gradSh4.177)"></path></g></g></g></g><g><clipPath id="clip0x7fd43911fb60"><path d="M 1.0 2.0 L 1182.0 2.0 L 1182.0 139.0 L 1.0 139.0 Z M 1.0 2.0 "></path></clipPath><g clip-path="url(#clip0x7fd43911fb60)"><path d="M 432.0 144.0 L 504.0 144.0 L 504.0 216.0 L 432.0 216.0 Z M 432.0 144.0 " fill="none" stroke="#A32829" stroke-width="2.00" stroke-linecap="round" stroke-linejoin="round" transform="matrix(1.81, 0.00, 0.00, -1.80, -256.2, 395.0)"></path></g></g><image xlink:href="../../468BC08D-D0CF-490E-91F7-F417CC0FB70B/assets/67FBC125C61E2F3A3813B0D1B6EAC2A8.png" width="82.00" height="41.00" transform="matrix(1.00, 0.00, -0.00, -1.00, 551.0, 84.0)"></image><g><clipPath id="clip0x7fd4391219d0"><path d="M 1.0 2.0 L 1182.0 2.0 L 1182.0 139.0 L 1.0 139.0 Z M 1.0 2.0 "></path></clipPath><g clip-path="url(#clip0x7fd4391219d0)"><text xml:space="preserve" font-family="Helvetica-Bold,Helvetica" font-weight="bold" font-size="15.0" fill="#FFFFFF" transform="matrix(1.81, 0.00, -0.00, -1.80, 556.0, 59.7)">F</text><text xml:space="preserve" font-family="Helvetica-Bold,Helvetica" font-weight="bold" font-size="15.0" fill="#FFFFFF" transform="matrix(1.81, 0.00, -0.00, -1.80, 572.6, 59.7)">l</text><text xml:space="preserve" font-family="Helvetica-Bold,Helvetica" font-weight="bold" font-size="15.0" fill="#FFFFFF" transform="matrix(1.81, 0.00, -0.00, -1.80, 580.2, 59.7)">a</text><text xml:space="preserve" font-family="Helvetica-Bold,Helvetica" font-weight="bold" font-size="15.0" fill="#FFFFFF" transform="matrix(1.81, 0.00, -0.00, -1.80, 595.3, 59.7)">g</text><text xml:space="preserve" font-family="Helvetica-Bold,Helvetica" font-weight="bold" font-size="15.0" fill="#FFFFFF" transform="matrix(1.81, 0.00, -0.00, -1.80, 611.8, 59.7)">s</text></g></g><g><clipPath id="clip0x7fd439124f90"><path d="M 395.9 135.4 L 526.3 135.4 L 526.3 5.6 L 395.9 5.6 Z M 395.9 135.4 "></path></clipPath><g clip-path="url(#clip0x7fd439124f90)"><g><clipPath id="clip0x7fd4391256b0"><path d="M 1.0 2.0 L 1182.0 2.0 L 1182.0 139.0 L 1.0 139.0 Z M 1.0 2.0 "></path></clipPath><g clip-path="url(#clip0x7fd4391256b0)"><path d="M 1.0 2.0 L 1182.0 2.0 L 1182.0 139.0 L 1.0 139.0 Z M 1.0 2.0 " fill="url(#gradSh5.178)"></path></g></g></g></g><g><clipPath id="clip0x7fd439177630"><path d="M 1.0 2.0 L 1182.0 2.0 L 1182.0 139.0 L 1.0 139.0 Z M 1.0 2.0 "></path></clipPath><g clip-path="url(#clip0x7fd439177630)"><path d="M 360.0 144.0 L 432.0 144.0 L 432.0 216.0 L 360.0 216.0 Z M 360.0 144.0 " fill="none" stroke="#37417B" stroke-width="2.00" stroke-linecap="round" stroke-linejoin="round" transform="matrix(1.81, 0.00, 0.00, -1.80, -256.2, 395.0)"></path></g></g><image xlink:href="../../468BC08D-D0CF-490E-91F7-F417CC0FB70B/assets/04919744085069D5AB4FE434B3CAA1C5.png" width="76.00" height="41.00" transform="matrix(1.00, 0.00, -0.00, -1.00, 423.0, 84.0)"></image><g><clipPath id="clip0x7fd439179410"><path d="M 1.0 2.0 L 1182.0 2.0 L 1182.0 139.0 L 1.0 139.0 Z M 1.0 2.0 "></path></clipPath><g clip-path="url(#clip0x7fd439179410)"><text xml:space="preserve" font-family="Helvetica-Bold,Helvetica" font-weight="bold" font-size="15.0" fill="#FFFFFF" transform="matrix(1.81, 0.00, -0.00, -1.80, 430.4, 59.7)">T</text><text xml:space="preserve" font-family="Helvetica-Bold,Helvetica" font-weight="bold" font-size="15.0" fill="#FFFFFF" transform="matrix(1.81, 0.00, -0.00, -1.80, 445.0, 59.7)">y</text><text xml:space="preserve" font-family="Helvetica-Bold,Helvetica" font-weight="bold" font-size="15.0" fill="#FFFFFF" transform="matrix(1.81, 0.00, -0.00, -1.80, 460.1, 59.7)">p</text><text xml:space="preserve" font-family="Helvetica-Bold,Helvetica" font-weight="bold" font-size="15.0" fill="#FFFFFF" transform="matrix(1.81, 0.00, -0.00, -1.80, 476.7, 59.7)">e</text></g></g><g><clipPath id="clip0x7fd43917c3f0"><path d="M 656.7 135.4 L 673.0 135.4 L 673.0 5.6 L 656.7 5.6 Z M 656.7 135.4 "></path></clipPath><g clip-path="url(#clip0x7fd43917c3f0)"><g><clipPath id="clip0x7fd43917cb40"><path d="M 1.0 2.0 L 1182.0 2.0 L 1182.0 139.0 L 1.0 139.0 Z M 1.0 2.0 "></path></clipPath><g clip-path="url(#clip0x7fd43917cb40)"><path d="M 1.0 2.0 L 1182.0 2.0 L 1182.0 139.0 L 1.0 139.0 Z M 1.0 2.0 " fill="url(#gradSh6.179)"></path></g></g></g></g><g><clipPath id="clip0x7fd4391ceb30"><path d="M 1.0 2.0 L 1182.0 2.0 L 1182.0 139.0 L 1.0 139.0 Z M 1.0 2.0 "></path></clipPath><g clip-path="url(#clip0x7fd4391ceb30)"><path d="M 504.0 144.0 L 513.0 144.0 L 513.0 216.0 L 504.0 216.0 Z M 504.0 144.0 " fill="none" stroke="#00656C" stroke-width="2.00" stroke-linecap="round" stroke-linejoin="round" transform="matrix(1.81, 0.00, 0.00, -1.80, -256.2, 395.0)"></path></g></g><g><clipPath id="clip0x7fd4391cfd00"><path d="M 673.0 135.4 L 787.1 135.4 L 787.1 5.6 L 673.0 5.6 Z M 673.0 135.4 "></path></clipPath><g clip-path="url(#clip0x7fd4391cfd00)"><g><clipPath id="clip0x7fd4391d0420"><path d="M 1.0 2.0 L 1182.0 2.0 L 1182.0 139.0 L 1.0 139.0 Z M 1.0 2.0 "></path></clipPath><g clip-path="url(#clip0x7fd4391d0420)"><path d="M 1.0 2.0 L 1182.0 2.0 L 1182.0 139.0 L 1.0 139.0 Z M 1.0 2.0 " fill="url(#gradSh7.180)"></path></g></g></g></g><g><clipPath id="clip0x7fd439226400"><path d="M 1.0 2.0 L 1182.0 2.0 L 1182.0 139.0 L 1.0 139.0 Z M 1.0 2.0 "></path></clipPath><g clip-path="url(#clip0x7fd439226400)"><path d="M 513.0 144.0 L 576.0 144.0 L 576.0 216.0 L 513.0 216.0 Z M 513.0 144.0 " fill="none" stroke="#427A40" stroke-width="2.00" stroke-linecap="round" stroke-linejoin="round" transform="matrix(1.81, 0.00, 0.00, -1.80, -256.2, 395.0)"></path></g></g><g><clipPath id="clip0x7fd439227530"><path d="M 787.1 135.4 L 917.5 135.4 L 917.5 5.6 L 787.1 5.6 Z M 787.1 135.4 "></path></clipPath><g clip-path="url(#clip0x7fd439227530)"><g><clipPath id="clip0x7fd439227c50"><path d="M 1.0 2.0 L 1182.0 2.0 L 1182.0 139.0 L 1.0 139.0 Z M 1.0 2.0 "></path></clipPath><g clip-path="url(#clip0x7fd439227c50)"><path d="M 1.0 2.0 L 1182.0 2.0 L 1182.0 139.0 L 1.0 139.0 Z M 1.0 2.0 " fill="url(#gradSh8.181)"></path></g></g></g></g><g><clipPath id="clip0x7fd43923c3b0"><path d="M 1.0 2.0 L 1182.0 2.0 L 1182.0 139.0 L 1.0 139.0 Z M 1.0 2.0 "></path></clipPath><g clip-path="url(#clip0x7fd43923c3b0)"><path d="M 576.0 144.0 L 648.0 144.0 L 648.0 216.0 L 576.0 216.0 Z M 576.0 144.0 " fill="none" stroke="#427A40" stroke-width="2.00" stroke-linecap="round" stroke-linejoin="round" transform="matrix(1.81, 0.00, 0.00, -1.80, -256.2, 395.0)"></path></g></g><image xlink:href="../../468BC08D-D0CF-490E-91F7-F417CC0FB70B/assets/23453C300339F248D4E81D68B8756EBE.png" width="104.00" height="35.00" transform="matrix(1.00, 0.00, -0.00, -1.00, 800.0, 100.0)"></image><g><clipPath id="clip0x7fd438f7b040"><path d="M 1.0 2.0 L 1182.0 2.0 L 1182.0 139.0 L 1.0 139.0 Z M 1.0 2.0 "></path></clipPath><g clip-path="url(#clip0x7fd438f7b040)"><text xml:space="preserve" font-family="Helvetica-Bold,Helvetica" font-weight="bold" font-size="15.0" fill="#FFFFFF" transform="matrix(1.81, 0.00, -0.00, -1.80, 806.3, 75.9)">S</text><text xml:space="preserve" font-family="Helvetica-Bold,Helvetica" font-weight="bold" font-size="15.0" fill="#FFFFFF" transform="matrix(1.81, 0.00, -0.00, -1.80, 824.4, 75.9)">t</text><text xml:space="preserve" font-family="Helvetica-Bold,Helvetica" font-weight="bold" font-size="15.0" fill="#FFFFFF" transform="matrix(1.81, 0.00, -0.00, -1.80, 833.4, 75.9)">r</text><text xml:space="preserve" font-family="Helvetica-Bold,Helvetica" font-weight="bold" font-size="15.0" fill="#FFFFFF" transform="matrix(1.81, 0.00, -0.00, -1.80, 844.0, 75.9)">e</text><text xml:space="preserve" font-family="Helvetica-Bold,Helvetica" font-weight="bold" font-size="15.0" fill="#FFFFFF" transform="matrix(1.81, 0.00, -0.00, -1.80, 859.1, 75.9)">a</text><text xml:space="preserve" font-family="Helvetica-Bold,Helvetica" font-weight="bold" font-size="15.0" fill="#FFFFFF" transform="matrix(1.81, 0.00, -0.00, -1.80, 874.3, 75.9)">m</text><text xml:space="preserve" font-family="Helvetica-Bold,Helvetica" font-weight="bold" font-size="15.0" fill="#FFFFFF" transform="matrix(1.81, 0.00, -0.00, -1.80, 898.4, 75.9)"> </text></g></g><image xlink:href="../../468BC08D-D0CF-490E-91F7-F417CC0FB70B/assets/E9701A401A9ADA8F52FC58573842224E.png" width="35.00" height="34.00" transform="matrix(1.00, 0.00, -0.00, -1.00, 835.0, 67.0)"></image><g><clipPath id="clip0x7fd438f7fc60"><path d="M 1.0 2.0 L 1182.0 2.0 L 1182.0 139.0 L 1.0 139.0 Z M 1.0 2.0 "></path></clipPath><g clip-path="url(#clip0x7fd438f7fc60)"><text xml:space="preserve" font-family="Helvetica-Bold,Helvetica" font-weight="bold" font-size="15.0" fill="#FFFFFF" transform="matrix(1.81, 0.00, -0.00, -1.80, 840.3, 43.5)">I</text><text xml:space="preserve" font-family="Helvetica-Bold,Helvetica" font-weight="bold" font-size="15.0" fill="#FFFFFF" transform="matrix(1.81, 0.00, -0.00, -1.80, 847.8, 43.5)">d</text></g></g><g><clipPath id="clip0x7fd438f81b00"><path d="M 917.5 135.4 L 1048.0 135.4 L 1048.0 5.6 L 917.5 5.6 Z M 917.5 135.4 "></path></clipPath><g clip-path="url(#clip0x7fd438f81b00)"><g><clipPath id="clip0x7fd438f82370"><path d="M 1.0 2.0 L 1182.0 2.0 L 1182.0 139.0 L 1.0 139.0 Z M 1.0 2.0 "></path></clipPath><g clip-path="url(#clip0x7fd438f82370)"><path d="M 1.0 2.0 L 1182.0 2.0 L 1182.0 139.0 L 1.0 139.0 Z M 1.0 2.0 " fill="url(#gradSh9.182)"></path></g></g></g></g><g><clipPath id="clip0x7fd438fd43c0"><path d="M 1.0 2.0 L 1182.0 2.0 L 1182.0 139.0 L 1.0 139.0 Z M 1.0 2.0 "></path></clipPath><g clip-path="url(#clip0x7fd438fd43c0)"><path d="M 648.0 144.0 L 720.0 144.0 L 720.0 216.0 L 648.0 216.0 Z M 648.0 144.0 " fill="none" stroke="#427A40" stroke-width="2.00" stroke-linecap="round" stroke-linejoin="round" transform="matrix(1.81, 0.00, 0.00, -1.80, -256.2, 395.0)"></path></g></g><g><clipPath id="clip0x7fd438fd54f0"><path d="M 1048.0 135.4 L 1178.4 135.4 L 1178.4 5.6 L 1048.0 5.6 Z M 1048.0 135.4 "></path></clipPath><g clip-path="url(#clip0x7fd438fd54f0)"><g><clipPath id="clip0x7fd438fd5c10"><path d="M 1.0 2.0 L 1182.0 2.0 L 1182.0 139.0 L 1.0 139.0 Z M 1.0 2.0 "></path></clipPath><g clip-path="url(#clip0x7fd438fd5c10)"><path d="M 1.0 2.0 L 1182.0 2.0 L 1182.0 139.0 L 1.0 139.0 Z M 1.0 2.0 " fill="url(#gradSh10.183)"></path></g></g></g></g><g><clipPath id="clip0x7fd41942be10"><path d="M 1.0 2.0 L 1182.0 2.0 L 1182.0 139.0 L 1.0 139.0 Z M 1.0 2.0 "></path></clipPath><g clip-path="url(#clip0x7fd41942be10)"><path d="M 720.0 144.0 L 792.0 144.0 L 792.0 216.0 L 720.0 216.0 Z M 720.0 144.0 " fill="none" stroke="#427A40" stroke-width="2.00" stroke-linecap="round" stroke-linejoin="round" transform="matrix(1.81, 0.00, 0.00, -1.80, -256.2, 395.0)"></path></g></g></g></svg>