<?xml version="1.0" encoding="UTF-8" standalone="no"?><svg xmlns="http://www.w3.org/2000/svg" xmlns:xlink="http://www.w3.org/1999/xlink" clip-rule="evenodd" stroke-miterlimit="10" viewBox="0 0 60 193"><desc>SVG generated by Keynote</desc><defs></defs><g transform="matrix(1.00, 0.00, -0.00, -1.00, 0.0, 193.0)"><path d="M 33.0 30.9 C 32.6 30.3 33.1 28.7 32.8 28.3 M 33.0 30.9 C 35.4 29.4 35.5 26.5 36.0 22.7 C 36.0 18.6 33.7 22.8 32.8 22.4 C 31.8 17.0 33.5 16.9 36.1 17.7 C 34.4 15.7 37.4 9.5 34.2 10.8 C 34.2 19.5 33.5 4.7 31.6 11.9 C 31.1 12.7 30.3 10.6 30.3 9.8 C 28.9 12.2 27.4 8.1 26.4 12.0 C 24.4 12.5 25.3 11.8 23.7 14.3 C 23.5 15.3 24.2 14.9 24.6 14.8 C 27.0 15.2 23.3 17.8 24.8 19.8 C 21.7 21.6 25.3 23.6 26.6 21.9 C 26.3 23.8 23.1 25.9 25.3 27.8 C 23.7 28.8 24.8 33.8 26.7 30.8 C 28.0 28.7 28.9 31.1 29.6 31.4 C 30.3 30.7 29.3 27.6 29.9 27.2 C 30.4 28.1 31.5 32.0 31.4 27.9 C 32.5 29.2 33.1 27.1 33.0 30.9 C 33.0 30.9 33.0 30.9 33.0 30.9 Z M 34.7 16.2 C 35.6 16.2 34.7 17.6 34.7 16.2 C 34.7 16.2 34.7 16.2 34.7 16.2 Z M 23.7 26.2 C 24.5 26.2 23.7 27.6 23.7 26.2 C 23.7 26.2 23.7 26.2 23.7 26.2 Z M 24.6 15.5 C 25.4 15.5 24.6 16.9 24.6 15.5 C 24.6 15.5 24.6 15.5 24.6 15.5 Z M 34.2 20.0 C 33.5 22.4 33.0 18.1 33.8 17.8 C 33.7 18.2 34.9 19.5 34.2 20.0 C 34.2 20.0 34.2 20.0 34.2 20.0 Z M 29.4 20.4 C 29.7 20.5 29.8 21.5 29.0 21.4 C 28.8 20.8 29.1 20.2 29.4 20.4 C 29.4 20.4 29.4 20.4 29.4 20.4 Z M 32.8 8.9 C 33.1 9.1 33.2 10.0 32.4 9.9 C 32.2 9.3 32.5 8.7 32.8 8.9 C 32.8 8.9 32.8 8.9 32.8 8.9 Z M 32.0 22.7 C 31.9 23.2 31.1 23.5 31.0 22.8 C 31.4 22.5 31.5 20.8 32.0 22.7 C 32.0 22.7 32.0 22.7 32.0 22.7 Z M 34.8 26.3 C 34.3 28.2 33.1 24.3 33.5 24.4 C 34.1 23.7 35.4 25.2 34.8 26.3 C 34.8 26.3 34.8 26.3 34.8 26.3 Z M 30.9 23.8 C 30.5 25.4 30.3 23.1 30.9 23.8 C 30.9 23.8 30.9 23.8 30.9 23.8 Z M 26.7 10.5 C 26.3 12.1 26.1 9.8 26.7 10.5 C 26.7 10.5 26.7 10.5 26.7 10.5 Z M 24.2 18.9 C 23.8 20.5 23.6 18.3 24.2 18.9 C 24.2 18.9 24.2 18.9 24.2 18.9 Z M 32.6 15.8 C 32.6 13.0 34.7 15.4 32.6 15.8 C 32.6 15.8 32.6 15.8 32.6 15.8 Z M 35.0 30.8 C 35.0 28.0 37.1 30.4 35.0 30.8 C 35.0 30.8 35.0 30.8 35.0 30.8 Z M 34.2 145.0 C 34.7 147.5 37.4 137.5 34.1 141.3 C 31.5 142.4 31.7 135.7 34.2 137.4 C 34.5 135.4 34.6 135.4 33.4 134.3 C 35.3 134.0 36.3 129.2 35.3 127.6 C 33.6 126.6 35.1 130.7 33.3 128.0 C 32.8 122.1 31.4 128.4 29.2 126.2 C 29.2 125.9 30.3 125.8 29.7 125.3 C 27.6 125.1 26.2 128.5 24.7 127.0 C 25.0 127.8 22.7 132.1 24.5 130.3 C 26.5 129.7 22.2 135.0 25.4 134.6 C 23.9 136.0 26.0 137.5 24.2 138.8 C 23.8 139.9 25.5 139.8 25.9 139.7 C 27.4 139.6 22.5 141.0 25.2 142.6 C 24.4 142.8 24.7 147.5 25.9 144.0 C 25.6 145.0 24.9 150.4 27.8 147.6 C 29.1 143.8 30.8 151.5 30.9 147.0 C 31.2 143.6 30.6 142.9 32.1 145.5 C 32.0 146.3 32.2 150.2 33.5 146.9 C 33.2 146.1 33.4 144.5 34.2 145.0 C 34.2 145.0 34.2 145.0 34.2 145.0 Z M 30.0 145.7 C 29.9 143.7 31.1 145.5 30.0 145.7 C 30.0 145.7 30.0 145.7 30.0 145.7 Z M 23.5 138.5 C 23.4 136.5 24.6 138.4 23.5 138.5 C 23.5 138.5 23.5 138.5 23.5 138.5 Z M 34.9 138.8 C 34.0 137.8 37.1 137.5 34.9 138.8 C 34.9 138.8 34.9 138.8 34.9 138.8 Z M 25.9 141.8 C 25.9 141.7 26.3 142.2 26.5 142.5 C 26.3 142.5 25.9 142.0 25.9 141.8 C 25.9 141.8 25.9 141.8 25.9 141.8 Z M 34.9 135.4 C 33.5 132.5 37.3 134.9 34.9 135.4 C 34.9 135.4 34.9 135.4 34.9 135.4 Z M 32.1 129.5 C 29.1 129.1 32.7 126.4 32.1 129.5 C 32.1 129.5 32.1 129.5 32.1 129.5 Z M 25.6 133.6 C 26.2 134.1 25.2 134.1 25.6 133.6 C 25.6 133.6 25.6 133.6 25.6 133.6 Z M 25.2 146.5 C 25.8 147.0 24.8 147.0 25.2 146.5 C 25.2 146.5 25.2 146.5 25.2 146.5 Z M 25.9 129.9 C 26.9 130.2 25.3 131.0 25.9 129.9 C 25.9 129.9 25.9 129.9 25.9 129.9 Z M 33.7 138.2 C 36.1 140.9 30.3 141.5 33.7 138.2 C 33.7 138.2 33.7 138.2 33.7 138.2 Z M 34.0 143.1 C 34.5 144.9 32.5 142.8 32.9 141.9 C 33.1 142.0 33.9 142.8 34.0 143.1 C 34.0 143.1 34.0 143.1 34.0 143.1 Z M 33.5 135.4 C 34.7 137.2 32.8 137.1 33.5 135.4 C 33.5 135.4 33.5 135.4 33.5 135.4 Z M 34.8 140.1 C 34.5 141.0 34.5 139.3 34.8 140.1 C 34.8 140.1 34.8 140.1 34.8 140.1 Z M 35.9 131.7 C 35.7 132.6 35.6 131.0 35.9 131.7 C 35.9 131.7 35.9 131.7 35.9 131.7 Z M 35.2 145.4 C 34.9 146.3 34.9 144.6 35.2 145.4 C 35.2 145.4 35.2 145.4 35.2 145.4 Z M 34.4 132.5 C 33.3 132.2 31.0 134.8 33.0 130.1 C 33.7 129.3 35.3 131.3 34.4 132.5 C 34.4 132.5 34.4 132.5 34.4 132.5 Z M 32.9 35.1 C 36.2 28.5 30.4 30.1 29.3 29.8 C 27.7 28.9 26.7 29.8 25.6 31.0 C 21.9 32.4 29.4 33.1 25.8 34.1 C 20.8 35.9 30.1 36.1 24.8 36.9 C 23.5 36.6 24.6 39.2 24.9 39.0 C 22.5 40.2 26.9 42.1 27.3 42.1 C 26.6 43.0 22.0 43.0 25.5 45.7 C 26.7 47.8 22.1 48.7 25.3 48.1 C 21.7 49.6 26.3 49.1 25.1 50.6 C 23.2 51.7 28.1 50.7 24.4 52.6 C 27.3 53.4 22.4 51.7 24.6 56.8 C 24.8 54.3 26.9 59.2 24.9 58.2 C 22.8 56.5 25.7 60.6 24.4 62.9 C 25.5 63.5 28.2 66.3 25.3 65.8 C 21.8 68.2 27.4 68.3 24.6 69.3 C 23.4 70.1 25.9 70.4 25.7 70.9 C 23.6 71.8 25.0 72.5 24.4 75.5 C 23.3 82.0 29.8 76.5 30.5 79.0 C 31.5 79.4 38.5 75.8 33.3 77.2 C 34.7 76.7 29.3 71.4 35.0 74.1 C 32.7 72.0 37.4 74.5 34.7 70.4 C 30.6 76.0 33.0 64.1 35.0 69.4 C 36.2 68.6 35.9 66.3 35.0 67.9 C 31.3 68.5 36.6 64.1 32.2 66.3 C 33.4 62.9 29.4 63.8 32.2 62.8 C 37.0 62.0 31.0 63.0 32.4 61.3 C 32.4 57.2 37.9 60.4 34.3 57.9 C 36.7 54.0 32.2 57.0 31.6 55.7 C 28.3 55.3 34.1 51.6 34.6 54.6 C 32.8 53.1 36.2 54.4 34.0 52.6 C 31.0 53.9 37.3 50.2 34.8 50.8 C 34.1 49.1 32.2 50.0 32.2 49.5 C 32.1 47.1 35.1 47.8 32.9 47.3 C 31.7 46.8 35.6 45.6 34.7 45.3 C 34.5 47.8 31.4 43.3 33.1 43.0 C 33.3 44.5 37.1 42.2 34.7 41.3 C 27.9 42.5 36.4 39.1 34.0 38.0 C 30.3 39.1 33.6 32.6 35.3 35.0 C 35.0 34.9 32.9 35.1 32.9 35.1 M 34.1 44.6 C 33.8 46.6 33.4 42.4 34.1 44.6 M 35.1 44.5 C 33.8 45.4 36.0 42.6 35.5 44.6 C 35.5 44.7 35.2 44.4 35.1 44.5 M 35.2 52.9 C 34.2 52.7 35.8 51.8 35.2 52.9 M 32.9 54.6 C 31.9 55.9 32.7 52.7 32.9 54.6 M 33.7 73.2 C 28.1 71.3 36.8 71.2 33.7 73.2 M 34.8 60.9 C 34.0 58.6 37.1 61.7 34.8 60.9 M 33.4 60.2 C 32.5 59.1 34.6 60.0 33.4 60.2 M 33.6 69.7 C 33.5 69.8 33.5 69.8 33.6 69.7 C 33.6 69.7 33.6 69.7 33.6 69.7 Z M 33.5 75.2 C 33.6 75.2 33.6 75.2 33.5 75.2 C 33.5 75.2 33.5 75.2 33.5 75.2 Z M 33.1 64.3 C 34.4 62.6 33.6 67.1 33.1 64.3 C 33.1 64.3 33.1 64.3 33.1 64.3 Z M 25.0 72.6 C 24.9 72.5 24.9 72.5 25.0 72.6 C 25.0 72.6 25.0 72.6 25.0 72.6 Z M 31.6 43.0 C 31.5 42.9 31.5 42.9 31.6 43.0 C 31.6 43.0 31.6 43.0 31.6 43.0 Z M 33.7 36.7 C 32.9 36.8 34.2 35.6 33.7 36.7 C 33.7 36.7 33.7 36.7 33.7 36.7 Z M 27.3 31.6 C 27.2 31.5 27.2 31.5 27.3 31.6 C 27.3 31.6 27.3 31.6 27.3 31.6 Z M 28.6 40.9 C 28.5 40.8 28.5 40.8 28.6 40.9 C 28.6 40.9 28.6 40.9 28.6 40.9 Z M 32.8 41.8 C 35.8 40.8 32.0 44.2 32.8 41.8 C 32.8 41.8 32.8 41.8 32.8 41.8 Z M 25.4 62.2 C 26.7 62.2 24.9 63.6 25.4 62.2 C 25.4 62.2 25.4 62.2 25.4 62.2 Z M 31.7 54.8 C 32.4 55.1 31.4 55.7 31.7 54.8 C 31.7 54.8 31.7 54.8 31.7 54.8 Z M 35.8 51.3 C 36.5 51.6 35.5 52.3 35.8 51.3 C 35.8 51.3 35.8 51.3 35.8 51.3 Z M 34.5 36.8 C 34.7 36.9 34.7 36.9 34.5 36.8 C 34.5 36.8 34.5 36.8 34.5 36.8 Z M 32.2 39.0 C 35.1 37.5 30.6 41.5 32.2 39.0 C 32.2 39.0 32.2 39.0 32.2 39.0 Z M 31.4 36.4 C 30.3 37.2 31.9 34.4 31.4 36.4 M 27.0 37.9 C 28.2 39.8 21.8 36.2 27.0 37.9 C 27.0 37.9 27.0 37.9 27.0 37.9 Z M 25.8 47.6 C 25.7 47.7 25.7 47.7 25.8 47.6 C 25.8 47.6 25.8 47.6 25.8 47.6 Z M 34.2 46.6 C 34.1 48.3 33.5 45.5 34.2 46.6 C 34.2 46.6 34.2 46.6 34.2 46.6 Z M 34.8 32.0 C 34.7 33.7 34.2 30.9 34.8 32.0 C 34.8 32.0 34.8 32.0 34.8 32.0 Z M 28.6 53.2 C 29.1 56.0 27.1 51.5 28.6 53.2 C 28.6 53.2 28.6 53.2 28.6 53.2 Z M 32.0 63.3 C 31.9 63.4 31.9 63.4 32.0 63.3 C 32.0 63.3 32.0 63.3 32.0 63.3 Z M 33.1 65.2 C 33.1 65.3 33.1 65.3 33.1 65.2 C 33.1 65.2 33.1 65.2 33.1 65.2 Z M 30.2 73.0 C 30.1 73.2 30.1 73.2 30.2 73.0 C 30.2 73.0 30.2 73.0 30.2 73.0 Z M 34.5 66.9 C 34.5 67.0 34.5 67.0 34.5 66.9 C 34.5 66.9 34.5 66.9 34.5 66.9 Z M 33.8 72.3 C 33.7 72.5 33.7 72.5 33.8 72.3 C 33.8 72.3 33.8 72.3 33.8 72.3 Z M 36.2 71.6 C 36.1 71.7 36.1 71.7 36.2 71.6 C 36.2 71.6 36.2 71.6 36.2 71.6 Z M 23.7 59.5 C 23.6 59.6 23.6 59.6 23.7 59.5 C 23.7 59.5 23.7 59.5 23.7 59.5 Z M 35.5 39.8 C 35.2 39.9 35.2 39.9 35.5 39.8 C 35.5 39.8 35.5 39.8 35.5 39.8 Z M 32.6 71.9 C 32.6 72.0 32.6 72.0 32.6 71.9 C 32.6 71.9 32.6 71.9 32.6 71.9 Z M 30.4 58.7 C 27.9 58.7 33.6 57.5 30.5 59.0 C 30.4 58.9 30.8 58.6 30.4 58.7 M 26.3 60.5 C 26.2 60.4 26.2 60.4 26.3 60.5 C 26.3 60.5 26.3 60.5 26.3 60.5 Z M 24.8 54.4 C 24.7 54.4 24.7 54.4 24.8 54.4 C 24.8 54.4 24.8 54.4 24.8 54.4 Z M 35.0 66.0 C 36.4 65.7 33.9 67.5 34.9 65.7 M 25.9 73.1 C 27.3 72.9 24.8 74.6 25.8 72.9 M 33.9 30.1 C 32.9 29.8 34.5 29.0 33.9 30.1 M 23.5 53.1 C 22.5 52.9 24.1 52.0 23.5 53.1 M 26.6 55.9 C 28.0 55.7 25.6 57.4 26.6 55.7 M 26.0 69.0 C 26.0 69.1 26.0 69.1 26.0 69.0 C 26.0 69.0 26.0 69.0 26.0 69.0 Z M 33.9 49.1 C 33.9 49.2 33.9 49.2 33.9 49.1 C 33.9 49.1 33.9 49.1 33.9 49.1 Z M 31.0 56.5 C 32.9 55.5 29.8 57.8 31.0 56.5 M 30.7 47.0 C 33.0 45.6 29.9 49.3 30.7 47.0 M 25.3 76.2 C 28.1 74.6 23.8 77.4 25.3 76.2 M 32.4 68.2 C 35.2 66.5 30.8 69.4 32.4 68.2 M 32.7 50.6 C 34.2 50.5 31.9 52.3 32.7 50.6 M 34.2 33.9 C 34.4 32.3 35.3 35.9 34.2 33.9 M 25.9 65.0 C 25.8 65.1 25.8 65.1 25.9 65.0 C 25.9 65.0 25.9 65.0 25.9 65.0 Z M 23.4 38.9 C 23.3 39.0 23.3 39.0 23.4 38.9 C 23.4 38.9 23.4 38.9 23.4 38.9 Z M 34.5 78.3 C 34.4 78.4 34.4 78.4 34.5 78.3 C 34.5 78.3 34.5 78.3 34.5 78.3 Z M 31.1 67.2 C 30.9 67.2 30.9 67.2 31.1 67.2 C 31.1 67.2 31.1 67.2 31.1 67.2 Z M 34.9 75.2 C 34.7 75.3 34.7 75.3 34.9 75.2 C 34.9 75.2 34.9 75.2 34.9 75.2 Z M 28.9 62.1 C 28.8 62.1 28.8 62.1 28.9 62.1 C 28.9 62.1 28.9 62.1 28.9 62.1 Z M 36.0 61.1 C 36.0 61.1 36.0 61.1 36.0 61.1 C 36.0 61.1 36.0 61.1 36.0 61.1 Z M 33.0 55.5 C 32.9 55.6 32.9 55.6 33.0 55.5 C 33.0 55.5 33.0 55.5 33.0 55.5 Z M 35.5 63.6 C 35.9 66.9 33.1 61.9 35.5 63.6 C 35.5 63.6 35.5 63.6 35.5 63.6 Z M 28.3 57.9 C 28.3 57.9 28.3 57.9 28.3 57.9 C 28.3 57.9 28.3 57.9 28.3 57.9 Z M 33.4 57.4 C 35.4 59.5 29.9 58.5 33.4 57.4 M 35.1 48.2 C 36.2 48.8 33.4 48.5 35.1 48.2 M 25.7 44.5 C 25.6 44.5 25.6 44.5 25.7 44.5 C 25.7 44.5 25.7 44.5 25.7 44.5 Z M 26.4 45.5 C 26.3 45.6 26.3 45.6 26.4 45.5 C 26.4 45.5 26.4 45.5 26.4 45.5 Z M 35.5 45.9 C 35.5 46.0 35.5 46.0 35.5 45.9 C 35.5 45.9 35.5 45.9 35.5 45.9 Z M 23.7 45.6 C 23.7 45.7 23.7 45.7 23.7 45.6 C 23.7 45.6 23.7 45.6 23.7 45.6 Z M 35.8 59.8 C 35.8 59.9 35.8 59.9 35.8 59.8 C 35.8 59.8 35.8 59.8 35.8 59.8 Z M 35.9 76.8 C 35.9 76.9 35.9 76.9 35.9 76.8 C 35.9 76.8 35.9 76.8 35.9 76.8 Z M 26.7 34.4 C 26.6 34.5 26.6 34.5 26.7 34.4 C 26.7 34.4 26.7 34.4 26.7 34.4 Z M 33.0 61.6 C 32.9 61.6 32.9 61.6 33.0 61.6 C 33.0 61.6 33.0 61.6 33.0 61.6 Z M 26.1 42.1 C 26.0 42.1 26.0 42.1 26.1 42.1 C 26.1 42.1 26.1 42.1 26.1 42.1 Z M 33.6 60.5 C 33.6 60.5 33.6 60.5 33.6 60.5 C 33.6 60.5 33.6 60.5 33.6 60.5 Z M 25.3 64.5 C 25.3 64.5 25.3 64.5 25.3 64.5 C 25.3 64.5 25.3 64.5 25.3 64.5 Z M 23.7 68.1 C 23.7 68.2 23.7 68.2 23.7 68.1 C 23.7 68.1 23.7 68.1 23.7 68.1 Z M 30.3 64.2 C 30.2 64.3 30.2 64.3 30.3 64.2 C 30.3 64.2 30.3 64.2 30.3 64.2 Z M 29.2 40.9 C 31.6 34.2 30.3 46.2 29.2 40.9 M 29.7 65.4 C 30.3 60.7 32.5 69.1 29.7 65.4 C 30.4 65.9 29.8 65.4 29.7 65.4 M 35.7 80.0 C 33.1 78.0 30.5 78.0 27.8 78.9 C 26.5 79.8 31.7 79.8 27.3 79.8 C 26.4 77.6 20.6 80.8 26.3 80.7 C 27.2 83.6 22.7 81.2 25.0 82.9 C 25.5 86.0 23.8 84.4 24.2 86.8 C 27.3 88.2 22.7 88.2 25.6 88.8 C 22.4 87.6 26.5 91.3 25.0 91.4 C 23.0 89.2 25.0 99.6 25.9 94.0 C 27.5 96.3 24.8 95.9 24.4 96.6 C 26.3 97.6 22.9 100.4 24.8 101.8 C 25.2 101.6 25.3 100.9 25.9 100.6 C 27.2 100.2 25.7 102.2 25.8 102.0 C 26.5 103.0 28.4 106.7 25.0 102.7 C 23.5 102.5 25.7 106.0 24.4 105.8 C 24.3 109.3 27.4 106.7 25.1 108.2 C 25.1 110.7 25.0 112.5 25.4 112.5 C 25.1 113.9 23.3 114.3 25.0 115.6 C 21.6 118.6 31.6 117.7 24.9 118.9 C 26.5 119.7 22.1 120.6 26.3 120.4 C 24.4 119.4 23.0 125.6 26.1 122.9 C 27.0 123.6 21.8 127.5 26.0 126.9 C 29.1 128.3 32.1 128.1 35.0 125.1 C 32.7 125.4 37.5 121.9 33.4 124.1 C 32.1 126.7 32.0 119.4 33.4 120.9 C 38.3 121.3 30.4 117.3 33.9 115.8 C 32.0 117.1 31.0 111.1 34.6 112.8 C 34.9 111.7 33.2 111.4 35.3 110.2 C 35.0 113.8 31.5 108.8 33.7 109.1 C 35.1 109.7 36.2 104.3 34.2 104.9 C 29.1 106.7 35.2 103.5 33.2 102.6 C 32.1 99.6 37.5 103.0 33.8 100.8 C 34.4 100.2 34.5 96.3 35.5 98.8 C 35.0 99.7 29.9 96.5 34.3 96.1 C 36.7 100.3 35.6 91.2 34.3 92.6 C 31.9 99.1 31.6 85.8 33.9 90.9 C 36.3 88.0 34.9 91.7 33.8 88.1 C 32.5 88.6 31.2 85.8 33.9 86.5 C 38.0 85.9 28.4 85.5 34.0 83.3 C 36.5 83.0 32.3 79.0 35.0 80.6 C 35.2 80.7 35.7 80.1 35.7 80.0 M 35.2 81.2 C 34.3 80.8 36.4 80.5 35.2 81.2 M 34.3 80.7 C 34.4 80.7 34.4 80.7 34.3 80.7 C 34.3 80.7 34.3 80.7 34.3 80.7 Z M 33.7 87.6 C 33.8 87.6 33.8 87.6 33.7 87.6 C 33.7 87.6 33.7 87.6 33.7 87.6 Z M 23.4 93.1 C 23.5 93.0 23.5 93.0 23.4 93.1 C 23.4 93.1 23.4 93.1 23.4 93.1 Z M 33.5 92.2 C 33.5 92.2 33.5 92.2 33.5 92.2 C 33.5 92.2 33.5 92.2 33.5 92.2 Z M 33.1 85.2 C 33.1 85.1 33.1 85.1 33.1 85.2 C 33.1 85.2 33.1 85.2 33.1 85.2 Z M 35.0 91.8 C 33.4 92.1 36.1 90.2 35.2 91.9 C 35.1 91.9 35.1 91.6 35.0 91.8 M 35.6 97.8 C 35.4 97.8 35.4 97.8 35.6 97.8 M 23.5 111.0 C 23.3 111.0 23.3 111.0 23.5 111.0 M 35.7 112.1 C 35.5 112.2 35.5 112.2 35.7 112.1 M 34.0 103.7 C 34.2 105.6 33.2 104.2 34.0 103.7 M 34.8 116.9 C 35.8 114.6 35.7 119.4 34.8 116.9 M 35.7 119.2 C 35.6 119.4 35.6 119.4 35.7 119.2 M 35.1 108.8 C 35.0 108.7 35.0 108.7 35.1 108.8 C 35.1 108.8 35.1 108.8 35.1 108.8 Z M 34.7 103.0 C 35.5 100.6 36.1 105.4 34.7 103.0 M 35.2 88.4 C 35.9 89.7 33.2 88.4 35.2 88.4 M 34.3 85.7 C 34.2 85.7 34.2 85.7 34.3 85.7 C 34.3 85.7 34.3 85.7 34.3 85.7 Z M 34.9 113.2 C 34.9 113.1 34.9 113.1 34.9 113.2 C 34.9 113.2 34.9 113.2 34.9 113.2 Z M 35.2 115.9 C 35.2 115.8 35.2 115.8 35.2 115.9 C 35.2 115.9 35.2 115.9 35.2 115.9 Z M 23.9 120.3 C 23.9 120.2 23.9 120.2 23.9 120.3 C 23.9 120.3 23.9 120.3 23.9 120.3 Z M 29.6 87.7 C 30.4 86.0 33.3 89.5 30.6 89.2 C 29.4 89.4 29.9 87.9 29.6 87.7 M 31.2 101.2 C 27.4 101.7 36.4 99.5 31.2 101.2 M 33.2 119.5 C 28.6 121.3 36.4 117.2 33.2 119.5 M 34.0 123.1 C 33.1 124.2 33.5 116.4 34.7 121.8 C 35.4 122.4 34.5 122.8 34.0 123.1 M 33.7 97.9 C 31.6 98.4 34.6 95.0 33.7 97.9 M 27.3 108.9 C 28.7 109.8 29.9 112.1 27.6 111.0 C 24.6 111.0 26.2 107.8 27.3 108.9 M 33.1 81.8 C 36.5 83.2 30.2 81.7 33.1 81.8 M 32.7 88.8 C 32.9 88.8 32.9 88.8 32.7 88.8 C 32.7 88.8 32.7 88.8 32.7 88.8 Z M 33.3 91.5 C 33.0 91.7 33.0 91.7 33.3 91.5 M 36.0 82.9 C 35.8 83.0 35.8 83.0 36.0 82.9 M 30.9 108.9 C 30.6 109.0 30.6 109.0 30.9 108.9 M 33.1 103.2 C 29.8 105.9 32.4 101.8 33.1 103.2 M 26.6 96.7 C 25.0 97.5 26.5 95.0 26.6 96.7 M 34.4 107.6 C 31.2 109.5 31.4 105.0 34.4 107.6 M 33.5 101.9 C 33.5 102.0 33.5 102.0 33.5 101.9 C 33.5 101.9 33.5 101.9 33.5 101.9 Z M 27.0 109.6 C 26.9 109.6 26.9 109.6 27.0 109.6 C 27.0 109.6 27.0 109.6 27.0 109.6 Z M 27.1 110.4 C 27.1 110.3 27.1 110.3 27.1 110.4 C 27.1 110.4 27.1 110.4 27.1 110.4 Z M 34.8 110.0 C 34.7 109.9 34.7 109.9 34.8 110.0 C 34.8 110.0 34.8 110.0 34.8 110.0 Z M 25.5 85.5 C 25.3 87.4 25.0 84.0 25.5 85.5 C 25.5 85.5 25.5 85.5 25.5 85.5 Z M 34.9 94.0 C 32.4 97.1 32.5 91.8 34.9 94.0 C 34.9 94.0 34.9 94.0 34.9 94.0 Z M 30.8 97.6 C 30.6 97.6 30.6 97.6 30.8 97.6 C 30.8 97.6 30.8 97.6 30.8 97.6 Z M 36.4 106.4 C 36.2 106.4 36.2 106.4 36.4 106.4 C 36.4 106.4 36.4 106.4 36.4 106.4 Z M 25.1 86.5 C 24.9 86.5 24.9 86.5 25.1 86.5 C 25.1 86.5 25.1 86.5 25.1 86.5 Z M 33.1 115.4 C 32.9 115.4 32.9 115.4 33.1 115.4 C 33.1 115.4 33.1 115.4 33.1 115.4 Z M 26.5 104.4 C 27.7 105.1 25.5 104.6 26.5 104.4 C 26.5 104.4 26.5 104.4 26.5 104.4 Z M 26.5 107.3 C 26.5 107.4 26.5 107.4 26.5 107.3 C 26.5 107.3 26.5 107.3 26.5 107.3 Z M 36.0 119.9 C 36.0 120.0 36.0 120.0 36.0 119.9 C 36.0 119.9 36.0 119.9 36.0 119.9 Z M 23.4 114.5 C 23.5 114.6 23.5 114.6 23.4 114.5 C 23.4 114.5 23.4 114.5 23.4 114.5 Z M 27.2 116.9 C 27.1 116.9 27.1 116.9 27.2 116.9 C 27.2 116.9 27.2 116.9 27.2 116.9 Z M 34.0 109.5 C 34.6 112.3 32.6 108.8 34.0 109.5 C 34.0 109.5 34.0 109.5 34.0 109.5 Z M 28.2 124.0 C 28.0 124.1 28.0 124.1 28.2 124.0 C 28.2 124.0 28.2 124.0 28.2 124.0 Z M 32.6 125.4 C 32.4 125.5 32.4 125.5 32.6 125.4 C 32.6 125.4 32.6 125.4 32.6 125.4 Z M 34.9 126.1 C 34.7 126.2 34.7 126.2 34.9 126.1 C 34.9 126.1 34.9 126.1 34.9 126.1 Z M 28.6 91.5 C 28.8 91.4 28.8 91.4 28.6 91.5 C 28.6 91.5 28.6 91.5 28.6 91.5 Z M 35.7 90.3 C 35.8 90.3 35.8 90.3 35.7 90.3 C 35.7 90.3 35.7 90.3 35.7 90.3 Z M 36.0 94.2 C 36.1 94.2 36.1 94.2 36.0 94.2 C 36.0 94.2 36.0 94.2 36.0 94.2 Z M 24.3 90.8 C 24.4 90.7 24.4 90.7 24.3 90.8 C 24.3 90.8 24.3 90.8 24.3 90.8 Z M 30.3 105.2 C 30.5 105.2 30.5 105.2 30.3 105.2 C 30.3 105.2 30.3 105.2 30.3 105.2 Z M 27.5 106.6 C 27.6 106.5 27.6 106.5 27.5 106.6 C 27.5 106.6 27.5 106.6 27.5 106.6 Z M 23.6 103.2 C 23.7 103.2 23.7 103.2 23.6 103.2 C 23.6 103.2 23.6 103.2 23.6 103.2 Z M 25.0 107.6 C 25.0 107.6 25.0 107.6 25.0 107.6 C 25.0 107.6 25.0 107.6 25.0 107.6 Z M 25.6 81.1 C 25.5 81.1 25.5 81.1 25.6 81.1 C 25.6 81.1 25.6 81.1 25.6 81.1 Z M 31.1 80.8 C 30.9 80.7 30.9 80.7 31.1 80.8 C 31.1 80.8 31.1 80.8 31.1 80.8 Z M 34.3 105.7 C 35.5 106.3 32.7 107.0 34.3 105.7 M 33.6 100.2 C 33.5 100.1 33.5 100.1 33.6 100.2 C 33.6 100.2 33.6 100.2 33.6 100.2 Z M 34.1 114.9 C 31.9 115.6 35.2 112.3 34.1 114.9 C 34.1 114.9 34.1 114.9 34.1 114.9 Z M 25.0 112.0 C 25.0 112.1 25.0 112.1 25.0 112.0 C 25.0 112.0 25.0 112.0 25.0 112.0 Z M 25.9 113.5 C 25.7 113.6 25.7 113.6 25.9 113.5 C 25.9 113.5 25.9 113.5 25.9 113.5 Z M 31.8 121.4 C 31.6 121.6 31.6 121.6 31.8 121.4 M 35.5 99.5 C 34.6 100.3 34.8 100.1 35.5 99.5 M 34.0 116.8 C 33.9 116.7 33.9 116.7 34.0 116.8 C 34.0 116.8 34.0 116.8 34.0 116.8 Z M 33.0 123.2 C 32.9 123.1 32.9 123.1 33.0 123.2 C 33.0 123.2 33.0 123.2 33.0 123.2 Z M 34.1 95.6 C 31.4 95.7 32.1 94.9 34.1 95.6 M 33.2 84.6 C 33.1 84.6 33.1 84.6 33.2 84.6 C 33.2 84.6 33.2 84.6 33.2 84.6 Z M 33.2 84.6 " fill="#FF2600"></path><path d="M 2.6 146.0 C 1.4 145.7 0.4 142.5 2.5 144.7 C 2.6 144.8 3.0 146.1 2.6 146.0 Z M 5.5 150.9 C 5.2 150.5 5.1 150.2 5.2 149.8 C 5.7 148.8 6.2 152.2 5.5 150.9 Z M 2.2 143.1 C 2.0 143.0 1.0 141.5 1.5 141.6 C 1.9 141.7 2.3 143.1 2.2 143.1 Z M 10.0 154.2 C 9.5 154.4 8.6 152.7 8.6 152.3 C 8.7 151.2 10.9 153.8 10.0 154.2 Z M 18.3 140.7 C 18.4 140.7 18.6 140.7 18.7 140.7 C 18.6 140.7 18.4 140.7 18.3 140.7 Z M 22.5 177.6 C 22.3 177.4 22.4 176.6 22.8 176.5 C 23.4 176.4 23.3 178.5 22.5 177.6 Z M 50.7 139.8 C 50.7 139.8 49.9 139.4 50.2 139.2 C 50.6 138.9 50.9 139.4 50.7 139.8 Z M 50.6 139.2 C 50.5 138.8 51.2 138.6 51.1 138.9 C 50.9 139.4 50.8 139.6 50.6 139.2 Z M 43.8 165.4 C 43.7 165.6 43.7 165.8 43.6 165.5 C 43.5 165.3 43.9 165.0 43.8 165.4 Z M 43.7 164.4 C 43.4 163.9 44.3 163.8 44.2 164.2 C 44.0 164.7 43.9 164.9 43.7 164.4 Z M 48.8 160.8 C 48.7 161.0 48.7 161.2 48.6 160.9 C 48.5 160.7 48.9 160.4 48.8 160.8 Z M 37.3 138.4 C 37.5 138.2 38.6 138.5 38.5 138.9 C 38.4 139.4 37.0 138.7 37.3 138.4 Z M 38.7 138.1 C 38.5 137.8 39.3 137.7 39.1 138.1 C 38.9 138.3 38.8 138.5 38.7 138.1 Z M 34.6 138.9 C 34.6 139.5 33.4 139.5 33.2 139.4 C 32.8 139.2 32.4 139.1 32.0 138.9 C 31.9 138.8 34.6 138.2 34.6 138.9 Z M 25.9 139.5 C 25.9 139.3 26.0 139.2 26.4 139.3 C 26.8 139.5 25.9 139.7 25.9 139.5 Z M 30.8 139.2 C 30.8 139.0 30.9 138.8 31.3 139.0 C 31.7 139.2 30.8 139.4 30.8 139.2 Z M 14.5 164.0 C 14.3 164.3 13.8 162.9 13.8 162.8 C 13.8 162.6 14.1 163.1 14.0 162.8 C 14.0 162.4 15.3 162.6 14.5 164.0 Z M 7.2 153.6 C 7.1 153.3 7.2 153.1 7.5 153.1 C 7.6 153.0 7.8 154.2 7.2 153.6 Z M 15.0 161.5 C 14.8 161.6 14.7 161.3 14.8 161.2 C 14.9 161.1 15.1 161.4 15.0 161.5 Z M 15.7 162.2 C 15.5 162.0 15.5 161.1 15.9 161.1 C 16.5 161.0 16.4 163.1 15.7 162.2 Z M 14.9 165.8 C 14.7 165.4 14.7 165.4 15.0 165.5 C 15.2 165.7 14.9 165.8 14.9 165.8 Z M 10.6 159.8 C 10.3 159.4 10.3 159.4 10.6 159.6 C 10.9 159.7 10.6 159.8 10.6 159.8 Z M 17.4 168.3 C 17.4 168.3 16.5 167.7 17.0 167.1 C 17.8 166.3 17.4 168.2 17.4 168.3 Z M 21.0 172.1 C 20.9 171.8 21.2 171.8 21.3 172.1 C 21.4 172.5 21.1 172.4 21.0 172.1 Z M 23.4 172.8 C 23.6 173.5 23.4 174.0 23.0 173.2 C 22.7 172.4 23.3 172.2 23.4 172.8 Z M 22.6 172.2 C 22.7 172.1 22.9 172.4 22.8 172.5 C 22.6 172.7 22.5 172.3 22.6 172.2 Z M 19.3 169.1 C 18.8 168.9 19.0 168.2 19.5 168.7 C 20.0 169.2 19.8 169.3 19.3 169.1 Z M 13.8 138.5 C 13.5 138.6 13.6 138.1 13.8 137.9 C 14.0 137.7 14.1 138.3 13.8 138.5 Z M 32.5 140.5 C 32.2 140.1 32.5 140.1 32.9 140.3 C 33.4 140.4 32.7 140.7 32.5 140.5 Z M 44.3 141.4 C 44.1 141.1 44.3 141.1 44.8 141.2 C 45.3 141.4 44.6 141.7 44.3 141.4 Z M 27.7 140.4 C 27.6 140.3 28.8 139.3 29.5 140.2 C 30.2 141.0 28.1 141.1 27.7 140.4 Z M 16.1 149.9 C 15.8 150.0 16.0 149.7 16.0 149.7 C 16.4 149.7 16.4 149.7 16.1 149.9 Z M 30.4 141.9 C 30.1 142.0 30.2 141.5 30.4 141.3 C 30.6 141.1 30.8 141.7 30.4 141.9 Z M 42.2 140.7 C 41.7 140.5 42.0 139.7 42.3 139.5 C 43.3 138.7 44.0 139.6 44.7 140.2 C 45.2 140.6 42.5 140.9 42.2 140.7 Z M 11.0 140.3 C 11.2 140.4 11.5 140.5 11.7 140.5 C 11.8 140.3 12.0 140.3 12.3 140.5 C 13.4 140.4 14.2 139.3 14.9 139.1 C 16.6 138.4 17.2 140.6 18.3 140.7 C 18.0 140.7 17.8 140.7 17.6 141.0 C 17.1 141.6 21.3 141.3 21.5 141.3 C 25.1 140.7 20.9 140.2 20.8 139.0 C 20.8 138.4 23.2 139.8 23.4 139.9 C 24.5 140.3 24.7 139.2 25.6 139.7 C 26.1 139.9 27.4 142.6 27.8 142.2 C 28.2 141.9 29.3 142.2 29.7 142.2 C 30.3 142.2 31.5 142.1 30.8 141.1 C 30.4 140.4 30.2 139.7 31.1 140.4 C 31.7 140.8 35.9 142.5 35.7 140.5 C 35.7 140.4 34.8 139.8 34.7 139.8 C 35.9 139.3 39.4 140.0 40.2 139.2 C 42.1 137.4 39.7 140.3 40.6 140.8 C 42.2 141.7 43.1 142.3 45.1 141.9 C 45.6 141.8 47.5 141.8 46.5 140.7 C 45.9 140.0 46.4 139.5 45.2 139.3 C 46.6 138.3 47.4 140.2 47.7 139.8 C 48.1 139.3 47.3 138.9 48.2 139.0 C 49.4 139.2 48.9 138.9 49.1 139.9 C 49.2 140.2 50.3 140.4 50.3 140.4 C 50.2 140.5 50.2 140.6 50.2 140.7 C 51.2 140.6 52.7 138.7 53.0 139.2 C 53.2 139.5 52.6 140.7 52.7 141.1 C 52.7 141.2 52.8 141.2 52.9 141.3 C 53.3 141.1 54.3 140.3 54.4 140.5 C 54.6 140.7 53.8 142.4 54.3 141.9 C 54.7 141.4 56.9 142.1 57.0 142.6 C 57.1 143.1 57.6 145.5 58.0 145.6 C 58.4 145.8 57.6 146.9 57.5 147.3 C 57.4 147.6 56.4 147.9 56.2 148.0 C 56.0 148.1 55.7 149.0 55.7 149.0 C 55.7 149.0 55.6 149.5 55.3 150.2 C 54.9 150.9 54.2 151.1 53.4 151.9 C 52.6 152.6 52.9 153.3 52.6 154.1 C 52.2 155.0 50.5 154.9 49.9 155.5 C 49.3 156.1 50.4 156.7 49.9 157.6 C 49.5 158.6 48.9 158.9 48.9 158.6 C 48.9 158.2 48.5 158.3 48.3 158.5 C 48.2 158.8 47.3 159.6 47.2 160.1 C 47.2 160.6 49.6 158.5 47.5 161.7 C 46.5 163.3 44.7 163.8 45.0 163.4 C 45.6 162.1 42.5 163.7 43.0 164.0 C 43.5 164.4 41.7 167.1 43.0 166.9 C 43.4 166.9 42.0 169.9 41.6 170.2 C 41.2 170.5 40.7 172.0 39.6 171.8 C 39.1 171.7 39.3 174.0 39.1 174.4 C 38.8 174.7 37.4 176.8 36.9 177.2 C 36.4 177.5 37.0 176.4 37.3 175.9 C 37.6 175.4 38.5 175.0 38.6 174.5 C 38.7 174.1 37.8 174.7 37.4 175.2 C 37.0 175.7 36.5 175.6 36.1 176.0 C 36.0 176.3 35.8 176.6 35.4 177.0 C 35.3 177.2 35.3 177.4 35.5 177.5 C 35.8 177.7 36.2 177.5 36.2 177.7 C 36.3 177.8 36.3 178.3 35.9 179.0 C 35.5 179.7 35.1 180.2 34.3 180.9 C 33.5 181.7 33.6 182.1 33.3 182.7 C 33.0 183.4 32.6 183.9 32.4 183.8 C 32.2 183.7 32.5 182.9 32.4 182.7 C 32.2 182.5 31.2 183.1 31.0 183.4 C 29.8 185.0 29.1 182.8 28.0 184.4 C 27.3 185.2 27.4 183.9 27.2 183.0 C 27.0 183.1 26.8 183.1 26.2 182.5 C 26.0 182.6 25.6 181.4 25.2 180.9 C 25.0 180.6 23.3 178.7 24.7 179.7 C 24.8 179.7 24.9 179.8 25.0 179.9 C 25.0 179.9 25.0 179.8 25.0 179.8 C 25.0 179.8 26.2 179.9 26.2 179.9 C 26.2 179.9 25.0 179.8 25.0 179.8 C 25.2 179.3 25.3 179.0 25.5 178.7 C 25.3 178.6 25.2 178.5 25.0 178.5 C 25.0 178.5 24.9 178.5 24.9 178.4 C 24.9 178.4 24.9 178.5 24.9 178.5 C 24.6 178.7 24.6 178.6 24.5 178.2 C 23.6 177.7 23.2 175.6 23.0 174.8 C 25.9 175.6 23.9 172.4 23.0 171.4 C 22.1 170.4 19.9 171.8 20.3 172.4 C 19.7 171.6 20.0 171.2 20.5 170.6 C 20.4 170.7 21.2 169.0 21.2 169.1 C 20.9 166.7 19.3 168.3 18.8 167.9 C 18.3 167.6 17.9 167.0 17.4 166.5 C 16.9 166.0 16.9 166.7 16.5 166.7 C 15.2 166.5 16.1 164.2 15.9 163.6 C 16.3 164.0 16.8 164.5 17.3 164.7 C 16.5 164.3 17.3 163.3 17.3 163.0 C 17.1 162.3 16.6 161.6 16.2 161.0 C 15.5 160.0 14.6 159.1 13.9 158.2 C 13.9 158.6 13.6 160.9 13.7 161.0 C 13.4 160.6 13.2 159.5 12.6 160.3 C 11.7 161.8 10.7 158.7 10.5 158.3 C 9.9 156.8 7.6 156.1 8.3 153.9 C 8.3 153.9 9.9 155.7 10.1 155.5 C 11.0 154.4 11.3 153.4 10.1 152.2 C 9.9 151.9 7.9 150.5 7.8 150.6 C 7.9 150.5 6.3 154.2 6.2 151.9 C 6.2 151.4 7.1 151.9 7.0 151.3 C 7.0 150.5 6.2 149.7 5.9 149.0 C 5.8 148.9 5.6 147.6 5.4 147.6 C 5.0 147.5 4.4 147.8 3.9 147.6 C 3.5 147.3 3.5 146.6 3.9 146.3 C 4.0 146.3 4.0 146.3 4.1 146.3 C 4.0 146.1 4.1 146.0 4.4 145.8 C 4.2 145.7 4.0 145.4 4.1 145.0 C 4.2 144.9 4.6 145.3 4.6 145.7 C 4.7 145.7 4.9 145.6 5.1 145.6 C 4.7 145.0 4.2 144.5 4.1 144.5 C 2.9 143.9 2.5 144.2 2.8 142.1 C 3.1 140.5 6.9 139.5 9.2 140.0 C 9.7 139.9 10.2 139.9 11.0 140.3 Z M 34.1 177.7 C 34.2 177.7 34.2 177.6 34.3 177.6 C 34.1 177.5 33.9 177.3 33.6 177.2 C 33.2 177.7 34.1 177.3 33.7 177.8 C 33.3 178.3 33.6 178.3 34.1 177.7 Z M 28.9 177.4 C 28.8 177.8 28.9 177.7 29.2 177.6 C 29.1 177.4 29.0 177.4 28.9 177.4 Z M 26.6 178.4 C 27.2 179.0 27.4 177.4 26.5 176.5 C 26.4 177.5 26.5 178.1 26.6 178.4 Z M 24.7 177.4 C 24.9 177.4 25.0 177.4 25.2 177.3 C 25.5 177.2 24.7 176.7 25.0 176.7 C 25.3 176.6 26.0 177.1 25.9 176.6 C 25.9 176.4 25.9 176.3 25.9 176.1 C 25.8 176.1 25.7 176.0 25.6 176.0 C 25.1 175.9 24.6 176.9 24.7 177.4 Z M 34.4 173.8 C 34.4 174.2 34.6 174.0 34.7 173.8 C 34.8 173.5 34.5 173.4 34.4 173.8 Z M 38.6 171.1 C 38.2 171.3 38.1 171.7 38.6 171.6 C 39.0 171.5 39.1 170.9 38.6 171.1 Z M 32.5 165.3 C 32.6 165.5 32.6 165.4 32.7 165.2 C 32.8 164.8 32.4 165.0 32.5 165.3 Z M 28.2 165.0 C 27.8 164.8 27.4 165.3 27.7 165.3 C 28.0 165.4 28.4 165.2 28.2 165.0 Z M 38.1 165.6 C 38.2 165.2 37.8 165.3 37.8 165.6 C 37.9 165.9 38.0 165.9 38.1 165.6 Z M 32.2 166.5 C 32.6 166.2 32.5 166.0 32.4 165.9 C 32.3 165.7 31.9 165.8 31.7 166.2 C 31.5 166.7 31.7 166.8 32.2 166.5 Z M 28.5 166.8 C 27.9 165.7 27.4 166.0 28.4 167.1 C 29.3 168.3 28.9 167.4 28.5 166.8 Z M 41.6 168.8 C 41.4 168.9 41.3 169.6 41.3 169.6 C 41.3 169.6 42.4 168.2 41.6 168.8 Z M 18.6 166.5 C 18.8 166.9 19.3 166.9 19.0 166.3 C 18.8 165.6 18.4 166.1 18.6 166.5 Z M 20.4 164.3 C 19.7 165.2 19.9 165.9 19.9 166.0 C 20.0 165.8 20.8 165.7 21.0 165.9 C 21.7 166.4 21.4 167.7 22.3 168.1 C 23.3 168.5 22.5 166.9 22.3 166.6 C 22.4 166.8 22.6 166.9 22.9 166.8 C 23.1 166.5 23.0 166.2 22.7 166.1 C 22.3 165.9 21.1 163.3 20.4 164.3 Z M 30.8 164.3 C 30.6 164.8 30.9 165.2 31.4 164.9 C 31.8 164.6 32.1 164.2 32.0 164.0 C 31.9 163.9 31.0 163.9 30.8 164.3 Z M 34.1 164.0 C 34.3 164.4 34.4 164.3 34.5 163.9 C 34.8 163.2 33.9 163.5 34.1 164.0 Z M 48.0 157.9 C 47.9 157.6 47.4 158.2 47.7 158.3 C 47.9 158.4 48.0 158.2 48.0 157.9 Z M 42.5 158.1 C 42.7 157.2 41.9 157.9 41.9 158.1 C 41.9 158.3 42.4 158.7 42.5 158.1 Z M 39.3 161.3 C 39.4 160.9 38.8 161.3 38.9 161.6 C 39.0 161.8 39.2 161.6 39.3 161.3 Z M 37.2 161.7 C 37.3 161.4 36.7 161.4 36.7 161.9 C 36.7 162.2 37.0 162.0 37.2 161.7 Z M 19.4 160.1 C 19.4 160.1 20.2 159.8 19.6 159.5 C 18.9 159.1 18.9 159.1 19.4 160.1 Z M 25.8 161.6 C 26.2 162.1 26.6 162.5 28.4 162.0 C 30.2 161.4 29.5 161.0 28.4 160.8 C 27.3 160.5 30.2 159.7 28.2 159.3 C 27.3 159.1 25.4 161.0 25.8 161.6 Z M 37.0 158.5 C 35.9 159.1 36.2 160.7 36.8 159.8 C 37.6 158.8 37.9 157.9 37.0 158.5 Z M 37.7 158.4 C 37.7 158.6 37.9 158.6 38.0 158.2 C 38.2 157.9 37.8 158.1 37.7 158.4 Z M 11.8 159.3 C 13.3 160.9 13.2 158.2 13.2 158.2 C 12.6 155.9 10.2 157.6 11.8 159.3 Z M 49.3 141.6 C 49.2 141.6 49.1 141.6 49.0 141.5 C 49.0 141.5 49.0 141.6 48.9 141.6 C 48.6 141.9 49.4 142.3 49.4 142.3 C 49.5 142.0 49.4 141.7 49.3 141.6 Z M 38.0 141.1 C 38.4 141.2 38.8 141.1 39.1 140.8 C 38.9 139.8 35.5 139.8 36.8 141.5 C 37.0 141.8 39.2 143.2 39.4 142.4 C 39.5 141.9 36.9 141.1 38.0 141.1 Z M 41.5 142.5 C 40.2 142.4 42.7 143.8 42.3 143.1 C 42.2 142.8 41.9 142.5 41.5 142.5 Z M 51.5 145.6 C 53.3 144.9 53.0 142.2 50.2 143.6 C 47.3 145.0 47.2 146.2 48.6 145.8 C 50.0 145.4 48.9 146.7 51.5 145.6 Z M 36.9 145.6 C 37.2 143.7 36.3 144.2 35.8 145.6 C 35.7 146.0 36.6 146.8 36.9 145.6 Z M 32.8 145.9 C 32.2 145.7 32.3 145.8 32.5 146.1 C 32.9 146.5 33.3 146.1 32.8 145.9 Z M 54.4 148.3 C 55.1 148.0 55.6 147.2 55.6 147.7 C 55.6 148.2 55.7 147.9 56.2 147.6 C 56.7 147.2 55.7 147.2 55.3 147.2 C 54.9 147.3 53.8 148.6 54.4 148.3 Z M 38.7 154.8 C 38.9 154.5 38.5 154.7 38.4 155.0 C 38.4 155.2 38.6 155.2 38.7 154.8 Z M 23.2 156.9 C 23.2 156.9 23.7 156.8 23.3 156.5 C 22.9 156.3 22.9 156.3 23.2 156.9 Z M 10.8 156.2 C 11.1 156.5 11.2 155.7 11.8 155.8 C 12.1 155.8 11.7 156.2 11.6 156.3 C 11.7 156.2 13.3 156.0 12.3 155.4 C 11.8 155.1 10.0 155.4 10.8 156.2 Z M 34.4 154.3 C 33.8 154.9 36.4 155.4 36.0 155.9 C 35.5 156.4 35.8 156.5 36.4 155.9 C 36.9 155.3 35.1 153.7 34.4 154.3 Z M 41.1 153.9 C 40.6 154.0 39.5 155.3 40.2 155.0 C 40.9 154.7 41.3 153.9 41.4 154.4 C 41.4 154.8 41.5 154.6 41.9 154.3 C 42.4 153.9 41.5 153.9 41.1 153.9 Z M 52.1 153.4 C 51.8 153.6 51.4 154.4 52.0 154.0 C 52.3 153.9 52.3 153.3 52.1 153.4 Z M 21.4 152.8 C 21.9 153.0 22.1 152.8 21.6 152.3 C 21.1 151.8 20.9 152.5 21.4 152.8 Z M 51.1 151.6 C 50.4 152.2 51.5 151.8 51.1 152.3 C 50.6 152.7 50.9 152.8 51.5 152.2 C 52.0 151.7 51.8 151.0 51.1 151.6 Z M 11.4 151.0 C 11.6 151.1 12.1 150.9 11.8 150.7 C 11.5 150.5 11.1 151.0 11.4 151.0 Z M 15.5 149.5 C 15.6 149.7 15.6 149.8 15.7 150.0 C 17.6 152.6 16.1 147.8 15.5 149.5 Z M 21.8 149.9 C 21.0 150.0 22.0 150.5 22.1 150.4 C 22.2 150.1 22.1 150.0 21.8 149.9 Z M 28.8 149.8 C 29.0 149.4 28.3 149.5 28.4 149.9 C 28.5 150.2 28.7 150.1 28.8 149.8 Z M 6.3 148.6 C 6.4 149.0 6.7 148.9 6.6 148.6 C 6.6 148.3 6.2 148.2 6.3 148.6 Z M 23.7 148.3 C 23.6 148.5 23.6 148.5 23.9 148.4 C 24.2 148.3 23.8 148.1 23.7 148.3 Z M 44.9 148.2 C 44.7 148.4 44.5 148.6 44.3 148.7 C 44.6 149.1 45.9 149.2 45.9 149.7 C 45.9 149.7 45.8 149.7 45.8 149.8 C 45.8 149.8 45.9 149.8 45.9 149.8 C 45.8 150.1 45.6 150.3 45.6 150.1 C 45.4 150.2 45.2 150.2 44.9 150.3 C 45.3 150.7 45.8 151.0 46.1 150.7 C 46.6 150.3 46.7 149.3 46.6 148.6 C 46.3 148.4 46.0 148.3 45.7 148.2 C 45.7 148.3 45.7 148.3 45.7 148.3 C 45.5 148.8 45.1 149.0 45.1 148.7 C 45.1 148.4 45.2 148.3 45.3 148.2 C 45.2 148.1 45.0 148.1 44.9 148.2 Z M 26.3 147.3 C 25.8 147.6 26.2 147.8 26.9 148.0 C 27.4 148.1 26.9 147.0 26.3 147.3 Z M 7.2 147.9 C 7.4 147.8 7.5 147.7 7.6 147.6 C 7.5 147.6 7.4 147.5 7.3 147.5 C 7.0 147.4 6.6 147.4 6.2 147.3 C 6.2 147.7 6.4 148.1 7.2 147.9 Z M 13.2 145.9 C 13.0 146.0 10.5 145.8 10.9 146.4 C 11.6 147.3 10.6 148.2 12.4 147.8 C 13.3 147.6 14.0 146.4 14.9 146.2 C 19.4 145.1 13.7 144.9 12.5 144.7 C 12.3 144.6 13.5 145.7 13.2 145.9 Z M 19.1 144.5 C 19.3 144.1 18.6 143.6 18.3 143.7 C 17.2 143.8 18.8 145.0 19.1 144.5 Z M 6.6 143.9 C 6.5 143.9 6.5 144.0 6.6 144.2 C 6.6 144.1 6.7 143.9 6.7 143.8 C 6.7 143.8 6.6 143.8 6.6 143.9 Z M 3.4 143.4 C 4.5 144.7 4.4 142.3 4.2 141.7 C 3.8 140.8 2.9 142.7 3.4 143.4 Z M 15.7 142.4 C 16.6 142.5 17.7 139.9 16.1 140.0 C 14.6 140.1 13.8 142.3 15.7 142.4 Z M 25.1 139.1 C 24.7 139.4 23.8 138.9 24.3 138.6 C 24.6 138.3 25.2 139.0 25.1 139.1 Z M 11.2 137.7 C 11.4 137.8 11.1 137.9 11.1 137.9 C 10.9 137.5 10.9 137.5 11.2 137.7 Z M 12.4 139.6 C 12.0 139.4 11.5 139.3 11.1 139.1 C 10.8 139.0 11.8 138.8 11.8 138.8 C 12.2 138.9 12.3 139.5 12.4 139.6 Z M 19.9 139.8 C 19.5 139.5 20.1 139.5 20.4 139.5 C 20.7 139.6 20.2 140.0 19.9 139.8 Z M 18.1 139.2 C 18.4 139.2 18.2 139.6 17.9 139.5 C 17.4 139.5 17.8 139.1 18.1 139.2 Z M 21.2 140.7 C 20.4 140.9 19.3 141.1 19.4 140.4 C 19.5 140.0 22.8 140.2 21.2 140.7 Z M 21.2 140.7 " fill="#FF2600"></path></g></svg>