<?xml version="1.0" encoding="UTF-8" standalone="no"?><svg xmlns="http://www.w3.org/2000/svg" xmlns:xlink="http://www.w3.org/1999/xlink" clip-rule="evenodd" stroke-miterlimit="10" viewBox="0 0 125 212"><desc>SVG generated by Keynote</desc><defs></defs><g transform="matrix(1.00, 0.00, -0.00, -1.00, 0.0, 212.0)"><path d="M 41.4 37.8 C 40.8 37.3 40.8 35.7 40.3 35.3 M 41.4 37.8 C 43.1 35.5 42.3 32.8 41.4 29.0 C 40.1 25.1 39.4 29.9 38.3 29.8 C 35.6 25.0 37.2 24.4 39.9 24.3 C 37.6 22.9 38.4 16.1 35.8 18.4 C 38.7 26.6 33.0 12.9 33.7 20.3 C 33.5 21.3 32.0 19.5 31.7 18.8 C 31.3 21.5 28.4 18.2 28.8 22.1 C 27.1 23.3 27.7 22.3 27.0 25.2 C 27.2 26.3 27.7 25.6 28.1 25.4 C 30.5 24.9 27.9 28.6 29.9 30.0 C 27.6 32.8 31.7 33.4 32.4 31.4 C 32.7 33.3 30.3 36.4 33.1 37.4 C 32.0 38.9 34.6 43.2 35.4 39.8 C 35.9 37.3 37.6 39.3 38.4 39.4 C 38.7 38.4 36.8 35.9 37.2 35.3 C 38.0 36.0 40.4 39.3 38.9 35.4 C 40.3 36.3 40.2 34.1 41.4 37.8 C 41.4 37.8 41.4 37.8 41.4 37.8 Z M 38.1 23.3 C 38.9 23.0 38.5 24.6 38.1 23.3 C 38.1 23.3 38.1 23.3 38.1 23.3 Z M 31.1 36.5 C 31.8 36.2 31.5 37.8 31.1 36.5 C 31.1 36.5 31.1 36.5 31.1 36.5 Z M 28.3 26.0 C 29.0 25.7 28.7 27.4 28.3 26.0 C 28.3 26.0 28.3 26.0 28.3 26.0 Z M 38.9 27.1 C 39.0 29.5 37.1 25.7 37.8 25.1 C 37.8 25.6 39.3 26.3 38.9 27.1 C 38.9 27.1 38.9 27.1 38.9 27.1 Z M 34.5 29.0 C 34.8 29.1 35.3 29.9 34.4 30.1 C 34.0 29.6 34.2 28.9 34.5 29.0 C 34.5 29.0 34.5 29.0 34.5 29.0 Z M 33.8 17.1 C 34.2 17.1 34.6 18.0 33.8 18.2 C 33.4 17.7 33.5 17.0 33.8 17.1 C 33.8 17.1 33.8 17.1 33.8 17.1 Z M 37.7 30.3 C 37.8 30.9 37.1 31.4 36.8 30.7 C 37.0 30.3 36.6 28.7 37.7 30.3 C 37.7 30.3 37.7 30.3 37.7 30.3 Z M 41.5 32.8 C 41.8 34.8 39.3 31.5 39.7 31.4 C 40.0 30.6 41.8 31.6 41.5 32.8 C 41.5 32.8 41.5 32.8 41.5 32.8 Z M 37.0 31.8 C 37.2 33.4 36.2 31.3 37.0 31.8 C 37.0 31.8 37.0 31.8 37.0 31.8 Z M 28.6 20.6 C 28.8 22.2 27.8 20.2 28.6 20.6 C 28.6 20.6 28.6 20.6 28.6 20.6 Z M 29.0 29.4 C 29.2 31.1 28.3 29.0 29.0 29.4 C 29.0 29.4 29.0 29.4 29.0 29.4 Z M 35.9 23.6 C 35.0 21.0 37.7 22.6 35.9 23.6 C 35.9 23.6 35.9 23.6 35.9 23.6 Z M 43.2 36.9 C 42.3 34.3 45.0 35.9 43.2 36.9 C 43.2 36.9 43.2 36.9 43.2 36.9 Z M 84.8 155.8 C 86.1 158.1 85.3 147.8 83.5 152.4 C 81.4 154.3 79.3 147.9 82.2 148.7 C 81.8 146.7 82.0 146.6 80.4 146.0 C 82.2 145.1 81.5 140.3 80.0 139.1 C 78.1 138.7 80.9 142.1 78.3 140.2 C 75.8 134.8 76.7 141.2 73.8 139.8 C 73.7 139.6 74.7 139.1 74.0 138.8 C 72.0 139.3 71.8 143.0 69.8 142.0 C 70.4 142.8 69.7 147.5 70.8 145.2 C 72.4 144.0 70.1 150.4 73.0 149.0 C 72.1 150.8 74.5 151.5 73.3 153.4 C 73.3 154.5 74.9 153.9 75.2 153.6 C 76.6 153.0 72.5 155.9 75.5 156.6 C 74.8 157.1 76.7 161.4 76.6 157.7 C 76.8 158.7 77.9 164.1 79.6 160.4 C 79.6 156.4 83.8 163.1 82.4 158.9 C 81.5 155.6 80.8 155.1 83.0 157.0 C 83.1 157.8 84.7 161.4 84.8 157.8 C 84.2 157.2 83.9 155.6 84.8 155.8 C 84.8 155.8 84.8 155.8 84.8 155.8 Z M 81.1 157.9 C 80.3 156.1 82.1 157.4 81.1 157.9 C 81.1 157.9 81.1 157.9 81.1 157.9 Z M 72.6 153.3 C 71.8 151.5 73.6 152.8 72.6 153.3 C 72.6 153.3 72.6 153.3 72.6 153.3 Z M 83.4 149.7 C 82.3 149.1 85.0 147.8 83.4 149.7 C 83.4 149.7 83.4 149.7 83.4 149.7 Z M 75.9 155.6 C 75.9 155.5 76.4 155.8 76.7 156.1 C 76.5 156.1 76.0 155.8 75.9 155.6 C 75.9 155.6 75.9 155.6 75.9 155.6 Z M 82.3 146.6 C 80.0 144.3 84.3 145.3 82.3 146.6 C 82.3 146.6 82.3 146.6 82.3 146.6 Z M 77.6 141.9 C 74.7 142.6 77.2 138.8 77.6 141.9 C 77.6 141.9 77.6 141.9 77.6 141.9 Z M 72.9 148.0 C 73.7 148.3 72.7 148.6 72.9 148.0 C 72.9 148.0 72.9 148.0 72.9 148.0 Z M 76.8 160.3 C 77.6 160.5 76.6 160.9 76.8 160.3 C 76.8 160.3 76.8 160.3 76.8 160.3 Z M 71.9 144.4 C 73.0 144.3 71.7 145.7 71.9 144.4 C 71.9 144.4 71.9 144.4 71.9 144.4 Z M 82.1 149.6 C 85.3 151.4 80.0 153.9 82.1 149.6 C 82.1 149.6 82.1 149.6 82.1 149.6 Z M 84.0 154.1 C 85.1 155.7 82.5 154.3 82.5 153.4 C 82.8 153.4 83.7 153.9 84.0 154.1 C 84.0 154.1 84.0 154.1 84.0 154.1 Z M 80.9 147.0 C 82.6 148.4 80.9 148.9 80.9 147.0 C 80.9 147.0 80.9 147.0 80.9 147.0 Z M 83.7 151.0 C 83.8 152.0 83.2 150.4 83.7 151.0 C 83.7 151.0 83.7 151.0 83.7 151.0 Z M 82.0 142.8 C 82.1 143.7 81.5 142.1 82.0 142.8 C 82.0 142.8 82.0 142.8 82.0 142.8 Z M 85.9 155.8 C 85.9 156.8 85.3 155.2 85.9 155.8 C 85.9 155.8 85.9 155.8 85.9 155.8 Z M 80.8 144.0 C 79.7 144.1 78.4 147.3 78.7 142.2 C 79.1 141.2 81.2 142.6 80.8 144.0 C 80.8 144.0 80.8 144.0 80.8 144.0 Z M 42.9 42.3 C 43.5 34.2 38.7 37.8 37.5 37.9 C 35.7 37.5 35.1 38.8 34.6 40.5 C 31.6 43.2 38.9 41.4 35.8 43.7 C 31.9 47.2 40.6 44.4 36.0 46.9 C 34.6 47.1 36.6 49.4 36.9 49.1 C 35.0 51.3 39.9 51.7 40.3 51.6 C 40.0 52.7 35.7 54.4 39.9 56.0 C 41.9 57.8 37.9 60.3 40.6 58.6 C 37.9 61.4 42.0 59.4 41.5 61.3 C 40.0 63.1 44.3 60.4 41.5 63.6 C 44.6 63.5 39.3 63.4 43.2 68.0 C 42.5 65.3 46.4 69.7 44.1 69.4 C 41.4 68.3 45.8 71.6 45.4 74.5 C 46.7 74.8 50.3 76.8 47.3 77.3 C 45.0 81.0 50.2 79.2 47.9 81.2 C 47.1 82.4 49.6 81.9 49.6 82.6 C 48.0 84.1 49.6 84.5 50.1 87.8 C 51.6 95.0 55.6 87.0 57.2 89.4 C 58.3 89.5 63.5 83.3 59.1 86.6 C 60.3 85.6 53.2 81.9 59.6 82.7 C 56.7 81.3 62.0 82.4 57.9 79.0 C 56.2 86.2 54.0 72.9 57.8 77.9 C 58.6 76.5 57.6 74.3 57.2 76.3 C 54.0 78.2 57.4 71.7 54.0 75.5 C 53.9 71.5 50.4 73.8 52.7 71.8 C 56.9 69.3 51.6 72.4 52.3 70.1 C 50.8 65.8 57.2 67.3 52.8 65.9 C 53.6 61.0 50.5 65.7 49.4 64.5 C 46.2 65.2 50.3 59.3 51.8 62.4 C 49.6 61.3 53.2 61.5 50.6 60.4 C 48.2 62.8 52.8 56.8 50.7 58.2 C 49.3 56.7 47.9 58.2 47.6 57.7 C 46.7 55.2 49.8 55.0 47.5 55.2 C 46.1 55.0 49.5 52.5 48.4 52.5 C 49.2 55.2 44.6 51.4 46.0 50.6 C 46.8 52.1 49.6 48.4 46.9 48.2 C 41.0 51.8 47.8 45.4 45.1 45.0 C 42.0 47.4 42.6 39.4 45.2 41.4 C 44.8 41.4 42.9 42.3 42.9 42.3 M 47.6 51.9 C 48.1 54.2 46.1 49.9 47.6 51.9 M 48.5 51.5 C 47.7 52.9 48.7 49.2 49.0 51.5 C 49.0 51.5 48.6 51.3 48.5 51.5 M 51.8 60.4 C 50.8 60.5 52.0 59.0 51.8 60.4 M 50.3 62.9 C 49.8 64.6 49.4 61.0 50.3 62.9 M 58.0 82.3 C 52.0 82.2 60.2 79.2 58.0 82.3 M 54.4 68.9 C 52.8 66.7 56.9 68.9 54.4 68.9 M 52.8 68.6 C 51.6 67.8 53.9 68.0 52.8 68.6 M 56.6 78.5 C 56.6 78.8 56.6 78.8 56.6 78.5 C 56.6 78.5 56.6 78.5 56.6 78.5 Z M 58.6 84.4 C 58.7 84.4 58.7 84.4 58.6 84.4 C 58.6 84.4 58.6 84.4 58.6 84.4 Z M 54.1 73.1 C 54.7 70.8 55.6 75.9 54.1 73.1 C 54.1 73.1 54.1 73.1 54.1 73.1 Z M 49.6 84.5 C 49.5 84.4 49.5 84.4 49.6 84.5 C 49.6 84.5 49.6 84.5 49.6 84.5 Z M 44.6 51.1 C 44.5 51.0 44.5 51.0 44.6 51.1 C 44.6 51.1 44.6 51.1 44.6 51.1 Z M 44.2 43.7 C 43.6 44.1 44.4 42.3 44.2 43.7 C 44.2 43.7 44.2 43.7 44.2 43.7 Z M 36.3 40.5 C 36.2 40.5 36.2 40.5 36.3 40.5 C 36.3 40.5 36.3 40.5 36.3 40.5 Z M 41.1 49.8 C 41.0 49.8 41.0 49.8 41.1 49.8 C 41.1 49.8 41.1 49.8 41.1 49.8 Z M 45.3 49.4 C 47.8 47.3 45.4 52.2 45.3 49.4 C 45.3 49.4 45.3 49.4 45.3 49.4 Z M 46.0 73.4 C 47.3 73.0 46.1 75.1 46.0 73.4 C 46.0 73.4 46.0 73.4 46.0 73.4 Z M 49.2 63.5 C 50.0 63.6 49.2 64.6 49.2 63.5 C 49.2 63.5 49.2 63.5 49.2 63.5 Z M 51.8 58.5 C 52.6 58.5 51.8 59.6 51.8 58.5 C 51.8 58.5 51.8 58.5 51.8 58.5 Z M 45.1 43.6 C 45.3 43.6 45.3 43.6 45.1 43.6 C 45.1 43.6 45.1 43.6 45.1 43.6 Z M 43.7 46.7 C 45.9 44.1 43.2 49.8 43.7 46.7 C 43.7 46.7 43.7 46.7 43.7 46.7 Z M 42.0 44.2 C 41.2 45.4 41.7 41.9 42.0 44.2 M 38.4 47.3 C 40.3 48.9 32.9 47.2 38.4 47.3 C 38.4 47.3 38.4 47.3 38.4 47.3 Z M 41.0 57.9 C 40.9 58.1 40.9 58.1 41.0 57.9 C 41.0 57.9 41.0 57.9 41.0 57.9 Z M 48.5 54.0 C 49.0 55.8 47.4 53.1 48.5 54.0 C 48.5 54.0 48.5 54.0 48.5 54.0 Z M 43.6 38.4 C 44.1 40.2 42.5 37.5 43.6 38.4 C 43.6 38.4 43.6 38.4 43.6 38.4 Z M 45.7 62.9 C 47.2 65.6 43.6 61.6 45.7 62.9 C 45.7 62.9 45.7 62.9 45.7 62.9 Z M 52.7 72.4 C 52.6 72.6 52.6 72.6 52.7 72.4 C 52.7 72.4 52.7 72.4 52.7 72.4 Z M 54.5 74.0 C 54.5 74.1 54.5 74.1 54.5 74.0 C 54.5 74.0 54.5 74.0 54.5 74.0 Z M 54.7 83.3 C 54.6 83.5 54.6 83.5 54.7 83.3 C 54.7 83.3 54.7 83.3 54.7 83.3 Z M 56.4 75.4 C 56.4 75.4 56.4 75.4 56.4 75.4 C 56.4 75.4 56.4 75.4 56.4 75.4 Z M 57.8 81.3 C 57.7 81.5 57.7 81.5 57.8 81.3 C 57.8 81.3 57.8 81.3 57.8 81.3 Z M 59.8 79.7 C 59.8 79.9 59.8 79.9 59.8 79.7 C 59.8 79.7 59.8 79.7 59.8 79.7 Z M 43.5 71.2 C 43.4 71.3 43.4 71.3 43.5 71.2 C 43.5 71.2 43.5 71.2 43.5 71.2 Z M 47.1 46.4 C 46.9 46.6 46.9 46.6 47.1 46.4 C 47.1 46.4 47.1 46.4 47.1 46.4 Z M 56.6 81.3 C 56.5 81.3 56.5 81.3 56.6 81.3 C 56.6 81.3 56.6 81.3 56.6 81.3 Z M 49.4 68.0 C 47.1 68.9 52.0 65.8 49.7 68.4 C 49.5 68.3 49.7 67.8 49.4 68.0 M 46.3 71.3 C 46.2 71.2 46.2 71.2 46.3 71.3 C 46.3 71.3 46.3 71.3 46.3 71.3 Z M 42.6 65.5 C 42.5 65.4 42.5 65.4 42.6 65.5 C 42.6 65.5 42.6 65.5 42.6 65.5 Z M 56.5 74.2 C 57.7 73.5 56.1 76.1 56.4 74.0 M 50.6 84.8 C 51.8 84.1 50.2 86.7 50.5 84.6 M 42.0 36.7 C 40.9 36.8 42.1 35.3 42.0 36.7 M 40.9 64.5 C 39.8 64.6 41.0 63.1 40.9 64.5 M 44.9 66.4 C 46.1 65.7 44.4 68.3 44.7 66.2 M 49.2 80.4 C 49.2 80.5 49.2 80.5 49.2 80.4 C 49.2 80.4 49.2 80.4 49.2 80.4 Z M 49.2 56.8 C 49.2 56.9 49.2 56.9 49.2 56.8 C 49.2 56.8 49.2 56.8 49.2 56.8 Z M 49.2 65.5 C 50.6 63.8 48.6 67.3 49.2 65.5 M 45.3 55.6 C 47.0 53.3 45.5 58.3 45.3 55.6 M 51.3 88.3 C 53.3 85.6 50.3 90.0 51.3 88.3 M 54.9 77.4 C 56.9 74.7 53.9 79.2 54.9 77.4 M 48.6 58.8 C 50.0 58.2 48.4 60.8 48.6 58.8 M 43.7 40.6 C 43.3 38.9 45.5 42.4 43.7 40.6 M 47.6 76.2 C 47.5 76.4 47.5 76.4 47.6 76.2 C 47.6 76.2 47.6 76.2 47.6 76.2 Z M 35.5 49.5 C 35.4 49.7 35.4 49.7 35.5 49.5 C 35.5 49.5 35.5 49.5 35.5 49.5 Z M 60.7 87.4 C 60.7 87.5 60.7 87.5 60.7 87.4 C 60.7 87.4 60.7 87.4 60.7 87.4 Z M 53.3 76.8 C 53.1 76.9 53.1 76.9 53.3 76.8 C 53.3 76.8 53.3 76.8 53.3 76.8 Z M 59.9 84.0 C 59.8 84.1 59.8 84.1 59.9 84.0 C 59.9 84.0 59.9 84.0 59.9 84.0 Z M 49.3 72.2 C 49.3 72.2 49.3 72.2 49.3 72.2 C 49.3 72.2 49.3 72.2 49.3 72.2 Z M 55.7 68.7 C 55.6 68.7 55.6 68.7 55.7 68.7 C 55.7 68.7 55.7 68.7 55.7 68.7 Z M 50.7 63.9 C 50.6 63.9 50.6 63.9 50.7 63.9 C 50.7 63.9 50.7 63.9 50.7 63.9 Z M 56.1 71.5 C 57.7 74.9 53.2 70.6 56.1 71.5 C 56.1 71.5 56.1 71.5 56.1 71.5 Z M 47.2 67.9 C 47.1 67.9 47.1 67.9 47.2 67.9 C 47.2 67.9 47.2 67.9 47.2 67.9 Z M 51.8 65.7 C 54.5 67.2 48.9 68.0 51.8 65.7 M 49.9 55.4 C 51.2 55.7 48.4 56.3 49.9 55.4 M 39.7 54.7 C 39.5 54.7 39.5 54.7 39.7 54.7 C 39.7 54.7 39.7 54.7 39.7 54.7 Z M 40.7 55.4 C 40.7 55.6 40.7 55.6 40.7 55.4 C 40.7 55.4 40.7 55.4 40.7 55.4 Z M 49.4 52.9 C 49.4 52.9 49.4 52.9 49.4 52.9 C 49.4 52.9 49.4 52.9 49.4 52.9 Z M 38.2 56.5 C 38.2 56.6 38.2 56.6 38.2 56.5 C 38.2 56.5 38.2 56.5 38.2 56.5 Z M 55.0 67.4 C 55.0 67.5 55.0 67.5 55.0 67.4 C 55.0 67.4 55.0 67.4 55.0 67.4 Z M 61.5 85.3 C 61.5 85.4 61.5 85.4 61.5 85.3 C 61.5 85.3 61.5 85.3 61.5 85.3 Z M 36.8 43.6 C 36.7 43.8 36.7 43.8 36.8 43.6 C 36.8 43.6 36.8 43.6 36.8 43.6 Z M 53.0 70.2 C 52.9 70.3 52.9 70.3 53.0 70.2 C 53.0 70.2 53.0 70.2 53.0 70.2 Z M 39.1 52.0 C 39.1 52.1 39.1 52.1 39.1 52.0 C 39.1 52.0 39.1 52.0 39.1 52.0 Z M 53.2 68.9 C 53.1 68.9 53.1 68.9 53.2 68.9 C 53.2 68.9 53.2 68.9 53.2 68.9 Z M 46.8 75.9 C 46.8 75.9 46.8 75.9 46.8 75.9 C 46.8 75.9 46.8 75.9 46.8 75.9 Z M 46.7 80.3 C 46.7 80.3 46.7 80.3 46.7 80.3 C 46.7 80.3 46.7 80.3 46.7 80.3 Z M 51.4 73.9 C 51.4 74.0 51.4 74.0 51.4 73.9 C 51.4 73.9 51.4 73.9 51.4 73.9 Z M 41.6 49.7 C 41.4 41.8 44.6 54.9 41.6 49.7 M 51.3 75.3 C 50.1 70.2 55.3 78.3 51.3 75.3 C 52.2 75.6 51.4 75.4 51.3 75.3 M 62.5 88.7 C 59.3 87.6 56.9 88.4 54.6 90.2 C 53.7 91.7 58.7 89.9 54.5 91.4 C 52.9 89.4 48.6 94.7 53.9 92.7 C 55.8 95.5 50.7 94.4 53.5 95.5 C 55.2 98.5 52.9 97.5 54.2 99.8 C 57.7 100.2 53.3 101.8 56.3 101.4 C 52.8 101.3 58.1 103.8 56.7 104.4 C 54.0 102.8 59.8 113.1 58.6 106.8 C 60.8 108.7 58.2 109.2 58.1 110.1 C 60.2 110.5 58.1 114.6 60.4 115.5 C 60.7 115.1 60.5 114.3 61.1 113.8 C 62.1 113.0 61.4 115.6 61.4 115.4 C 62.4 116.1 65.7 119.4 61.0 116.3 C 59.5 116.7 62.9 119.5 61.5 119.8 C 62.8 123.5 64.8 119.7 63.1 122.1 C 64.0 124.7 64.7 126.6 65.0 126.5 C 65.3 128.2 63.7 129.1 65.8 129.9 C 63.7 134.3 72.8 130.0 66.9 133.4 C 68.8 133.8 65.0 136.1 68.8 134.6 C 66.6 134.1 67.7 141.1 69.6 137.3 C 70.7 137.7 67.3 143.6 71.0 141.6 C 74.4 142.0 77.2 140.7 78.8 136.6 C 76.7 137.7 80.0 132.3 77.0 136.1 C 76.6 139.3 73.8 131.6 75.8 132.7 C 80.5 131.5 71.5 130.0 74.3 127.1 C 72.9 129.1 69.7 123.1 73.8 123.8 C 73.7 122.5 72.0 122.8 73.5 120.8 C 74.5 124.7 69.4 120.6 71.6 120.1 C 73.1 120.3 72.1 114.3 70.4 115.5 C 66.3 119.2 70.8 113.7 68.6 113.4 C 66.5 110.7 72.9 112.5 68.5 111.4 C 68.9 110.6 67.5 106.4 69.4 108.7 C 69.2 109.8 63.3 108.1 67.2 106.2 C 71.0 109.8 66.6 100.7 65.9 102.6 C 66.1 110.2 60.8 96.3 64.9 100.8 C 66.0 97.0 66.1 101.4 63.8 98.0 C 62.7 98.9 60.4 96.4 63.2 96.2 C 66.9 94.2 57.7 97.0 62.2 92.8 C 64.3 91.7 58.9 88.9 62.0 89.6 C 62.3 89.6 62.5 88.8 62.5 88.7 M 62.5 90.2 C 61.5 90.0 63.3 89.0 62.5 90.2 M 61.5 90.0 C 61.5 89.9 61.5 89.9 61.5 90.0 C 61.5 90.0 61.5 90.0 61.5 90.0 Z M 63.5 97.5 C 63.6 97.4 63.6 97.4 63.5 97.5 C 63.5 97.5 63.5 97.5 63.5 97.5 Z M 55.8 106.7 C 55.9 106.6 55.9 106.6 55.8 106.7 C 55.8 106.7 55.8 106.7 55.8 106.7 Z M 65.0 102.4 C 65.0 102.3 65.0 102.3 65.0 102.4 C 65.0 102.4 65.0 102.4 65.0 102.4 Z M 61.9 95.1 C 61.9 95.0 61.9 95.0 61.9 95.1 C 61.9 95.1 61.9 95.1 61.9 95.1 Z M 66.2 101.4 C 64.9 102.3 66.7 99.4 66.5 101.5 C 66.4 101.6 66.3 101.2 66.2 101.4 M 69.1 107.6 C 68.9 107.7 68.9 107.7 69.1 107.6 M 62.7 125.6 C 62.5 125.7 62.5 125.7 62.7 125.6 M 74.6 122.6 C 74.4 122.9 74.4 122.9 74.6 122.6 M 69.8 114.4 C 70.7 116.3 69.3 115.1 69.8 114.4 M 75.6 128.0 C 75.6 125.3 77.3 130.4 75.6 128.0 M 77.3 130.1 C 77.2 130.4 77.2 130.4 77.3 130.1 M 72.8 119.3 C 72.7 119.3 72.7 119.3 72.8 119.3 C 72.8 119.3 72.8 119.3 72.8 119.3 Z M 70.1 113.4 C 70.0 110.6 72.4 115.5 70.1 113.4 M 65.2 97.8 C 66.4 99.0 63.3 98.5 65.2 97.8 M 63.3 95.3 C 63.2 95.3 63.2 95.3 63.3 95.3 C 63.3 95.3 63.3 95.3 63.3 95.3 Z M 74.3 124.1 C 74.2 124.0 74.2 124.0 74.3 124.1 C 74.3 124.1 74.3 124.1 74.3 124.1 Z M 75.5 126.8 C 75.4 126.7 75.4 126.7 75.5 126.8 C 75.5 126.8 75.5 126.8 75.5 126.8 Z M 66.5 135.3 C 66.5 135.2 66.5 135.2 66.5 135.3 C 66.5 135.3 66.5 135.3 66.5 135.3 Z M 59.6 99.0 C 59.7 96.8 63.8 99.6 61.1 100.2 C 60.1 100.8 60.0 99.1 59.6 99.0 M 66.3 112.7 C 62.8 114.5 70.5 109.1 66.3 112.7 M 75.0 131.3 C 71.4 134.7 77.2 127.8 75.0 131.3 M 77.1 134.9 C 76.7 136.3 74.1 127.9 77.3 133.3 C 78.2 133.6 77.4 134.3 77.1 134.9 M 67.3 108.3 C 65.5 109.6 67.1 105.0 67.3 108.3 M 65.5 122.1 C 67.1 122.5 69.1 124.5 66.5 124.3 C 63.7 125.3 64.0 121.3 65.5 122.1 M 60.7 91.5 C 64.4 91.9 57.9 92.5 60.7 91.5 M 63.0 99.0 C 63.2 99.0 63.2 99.0 63.0 99.0 C 63.0 99.0 63.0 99.0 63.0 99.0 Z M 64.6 101.7 C 64.4 102.0 64.4 102.0 64.6 101.7 M 63.9 91.7 C 63.7 91.9 63.7 91.9 63.9 91.7 M 68.8 120.8 C 68.6 121.1 68.6 121.1 68.8 120.8 M 68.8 114.1 C 66.6 118.1 67.6 112.9 68.8 114.1 M 60.2 109.4 C 59.0 110.8 59.5 107.6 60.2 109.4 M 71.7 118.4 C 69.4 121.4 67.8 116.6 71.7 118.4 M 68.6 112.6 C 68.7 112.8 68.7 112.8 68.6 112.6 C 68.6 112.6 68.6 112.6 68.6 112.6 Z M 65.4 122.9 C 65.3 122.9 65.3 122.9 65.4 122.9 C 65.4 122.9 65.4 122.9 65.4 122.9 Z M 65.9 123.8 C 65.8 123.7 65.8 123.7 65.9 123.8 C 65.9 123.8 65.9 123.8 65.9 123.8 Z M 72.9 120.7 C 72.8 120.7 72.8 120.7 72.9 120.7 C 72.9 120.7 72.9 120.7 72.9 120.7 Z M 55.0 98.0 C 55.4 100.1 53.9 96.6 55.0 98.0 C 55.0 98.0 55.0 98.0 55.0 98.0 Z M 67.0 103.8 C 65.8 107.9 63.9 102.3 67.0 103.8 C 67.0 103.8 67.0 103.8 67.0 103.8 Z M 64.4 108.9 C 64.3 109.0 64.3 109.0 64.4 108.9 C 64.4 108.9 64.4 108.9 64.4 108.9 Z M 73.1 116.4 C 72.9 116.5 72.9 116.5 73.1 116.4 C 73.1 116.4 73.1 116.4 73.1 116.4 Z M 54.9 99.2 C 54.7 99.2 54.7 99.2 54.9 99.2 C 54.9 99.2 54.9 99.2 54.9 99.2 Z M 73.3 127.0 C 73.1 127.1 73.1 127.1 73.3 127.0 C 73.3 127.0 73.3 127.0 73.3 127.0 Z M 63.0 117.7 C 64.4 118.0 62.1 118.2 63.0 117.7 C 63.0 117.7 63.0 117.7 63.0 117.7 Z M 64.0 120.7 C 64.1 120.8 64.1 120.8 64.0 120.7 C 64.0 120.7 64.0 120.7 64.0 120.7 Z M 77.8 130.8 C 77.8 130.8 77.8 130.8 77.8 130.8 C 77.8 130.8 77.8 130.8 77.8 130.8 Z M 63.9 129.4 C 64.0 129.4 64.0 129.4 63.9 129.4 C 63.9 129.4 63.9 129.4 63.9 129.4 Z M 68.4 130.6 C 68.3 130.6 68.3 130.6 68.4 130.6 C 68.4 130.6 68.4 130.6 68.4 130.6 Z M 72.0 120.4 C 73.6 123.2 70.4 120.2 72.0 120.4 C 72.0 120.4 72.0 120.4 72.0 120.4 Z M 72.0 137.7 C 71.8 137.8 71.8 137.8 72.0 137.7 C 72.0 137.7 72.0 137.7 72.0 137.7 Z M 76.7 137.7 C 76.5 137.9 76.5 137.9 76.7 137.7 C 76.7 137.7 76.7 137.7 76.7 137.7 Z M 79.1 137.7 C 79.0 137.9 79.0 137.9 79.1 137.7 C 79.1 137.7 79.1 137.7 79.1 137.7 Z M 60.1 103.3 C 60.2 103.1 60.2 103.1 60.1 103.3 C 60.1 103.3 60.1 103.3 60.1 103.3 Z M 66.4 99.7 C 66.4 99.6 66.4 99.6 66.4 99.7 C 66.4 99.7 66.4 99.7 66.4 99.7 Z M 68.1 103.6 C 68.2 103.6 68.2 103.6 68.1 103.6 C 68.1 103.6 68.1 103.6 68.1 103.6 Z M 55.8 104.0 C 55.9 103.9 55.9 103.9 55.8 104.0 C 55.8 104.0 55.8 104.0 55.8 104.0 Z M 66.9 117.2 C 67.0 117.1 67.0 117.1 66.9 117.2 C 66.9 117.2 66.9 117.2 66.9 117.2 Z M 64.7 119.6 C 64.8 119.5 64.8 119.5 64.7 119.6 C 64.7 119.6 64.7 119.6 64.7 119.6 Z M 59.9 117.4 C 59.9 117.3 59.9 117.3 59.9 117.4 C 59.9 117.4 59.9 117.4 59.9 117.4 Z M 62.8 121.5 C 62.8 121.5 62.8 121.5 62.8 121.5 C 62.8 121.5 62.8 121.5 62.8 121.5 Z M 53.4 93.3 C 53.3 93.3 53.3 93.3 53.4 93.3 C 53.4 93.3 53.4 93.3 53.4 93.3 Z M 58.4 91.2 C 58.2 91.2 58.2 91.2 58.4 91.2 C 58.4 91.2 58.4 91.2 58.4 91.2 Z M 70.8 116.3 C 72.2 116.6 69.9 118.2 70.8 116.3 M 68.1 110.7 C 68.0 110.7 68.0 110.7 68.1 110.7 C 68.1 110.7 68.1 110.7 68.1 110.7 Z M 74.1 126.2 C 72.4 127.6 74.2 123.1 74.1 126.2 C 74.1 126.2 74.1 126.2 74.1 126.2 Z M 64.4 126.2 C 64.4 126.2 64.4 126.2 64.4 126.2 C 64.4 126.2 64.4 126.2 64.4 126.2 Z M 65.9 127.4 C 65.7 127.5 65.7 127.5 65.9 127.4 C 65.9 127.4 65.9 127.4 65.9 127.4 Z M 74.4 133.8 C 74.3 134.0 74.3 134.0 74.4 133.8 M 69.6 109.4 C 69.1 110.5 69.2 110.3 69.6 109.4 M 74.7 128.2 C 74.6 128.1 74.6 128.1 74.7 128.2 C 74.7 128.2 74.7 128.2 74.7 128.2 Z M 76.2 135.2 C 76.1 135.2 76.1 135.2 76.2 135.2 C 76.2 135.2 76.2 135.2 76.2 135.2 Z M 66.8 105.7 C 64.4 106.8 64.7 105.8 66.8 105.7 M 61.9 94.4 C 61.7 94.5 61.7 94.5 61.9 94.4 C 61.9 94.4 61.9 94.4 61.9 94.4 Z M 61.9 94.4 " fill="#F38F18"></path><path d="M 55.4 167.4 C 54.2 167.5 52.1 164.9 54.8 166.2 C 55.0 166.3 55.8 167.3 55.4 167.4 Z M 59.7 171.0 C 59.4 170.8 59.2 170.5 59.1 170.1 C 59.3 168.9 60.9 172.0 59.7 171.0 Z M 54.0 164.8 C 53.8 164.8 52.4 163.7 52.9 163.6 C 53.3 163.6 54.1 164.8 54.0 164.8 Z M 65.1 172.6 C 64.8 173.0 63.3 171.7 63.2 171.3 C 62.9 170.2 65.9 171.9 65.1 172.6 Z M 68.4 157.2 C 68.5 157.1 68.7 157.0 68.8 156.9 C 68.7 157.1 68.5 157.1 68.4 157.2 Z M 84.8 190.5 C 84.6 190.3 84.3 189.5 84.6 189.4 C 85.2 189.1 85.8 191.1 84.8 190.5 Z M 98.6 145.4 C 98.6 145.4 97.8 145.3 98.0 144.9 C 98.2 144.6 98.7 145.0 98.6 145.4 Z M 98.3 144.8 C 98.1 144.5 98.7 144.1 98.7 144.5 C 98.7 144.9 98.6 145.2 98.3 144.8 Z M 100.7 171.8 C 100.7 172.1 100.7 172.2 100.6 172.0 C 100.4 171.8 100.7 171.4 100.7 171.8 Z M 100.2 170.9 C 99.8 170.6 100.6 170.2 100.7 170.6 C 100.7 171.1 100.6 171.3 100.2 170.9 Z M 103.9 165.8 C 103.9 166.1 103.9 166.2 103.7 166.0 C 103.5 165.8 103.9 165.4 103.9 165.8 Z M 85.6 148.6 C 85.7 148.3 86.7 148.3 86.8 148.6 C 86.9 149.2 85.3 149.0 85.6 148.6 Z M 86.7 147.9 C 86.5 147.6 87.1 147.2 87.1 147.7 C 87.0 148.0 86.9 148.2 86.7 147.9 Z M 83.1 150.0 C 83.3 150.5 82.2 150.9 82.0 150.9 C 81.6 150.9 81.1 150.9 80.7 150.8 C 80.6 150.8 82.9 149.3 83.1 150.0 Z M 75.1 153.4 C 75.1 153.2 75.1 153.1 75.5 153.1 C 76.0 153.2 75.2 153.6 75.1 153.4 Z M 79.6 151.5 C 79.6 151.3 79.6 151.1 80.1 151.2 C 80.5 151.2 79.7 151.7 79.6 151.5 Z M 72.6 180.4 C 72.5 180.8 71.6 179.6 71.6 179.5 C 71.5 179.3 72.0 179.7 71.8 179.4 C 71.6 179.0 72.9 178.7 72.6 180.4 Z M 62.3 173.0 C 62.1 172.7 62.1 172.5 62.4 172.4 C 62.4 172.4 63.1 173.4 62.3 173.0 Z M 72.2 177.8 C 72.1 178.0 71.9 177.7 72.0 177.6 C 72.1 177.5 72.3 177.7 72.2 177.8 Z M 73.2 178.3 C 72.9 178.1 72.6 177.3 73.0 177.1 C 73.5 176.9 74.2 178.9 73.2 178.3 Z M 73.6 181.9 C 73.3 181.6 73.3 181.6 73.6 181.7 C 73.9 181.7 73.6 181.9 73.6 181.9 Z M 67.5 177.7 C 67.2 177.5 67.2 177.5 67.5 177.5 C 67.8 177.5 67.5 177.7 67.5 177.7 Z M 76.8 183.4 C 76.8 183.4 75.8 183.2 76.1 182.4 C 76.6 181.4 76.8 183.3 76.8 183.4 Z M 81.5 185.8 C 81.3 185.6 81.6 185.4 81.8 185.7 C 81.9 186.0 81.7 186.1 81.5 185.8 Z M 84.1 185.7 C 84.4 186.2 84.4 186.8 83.8 186.2 C 83.2 185.6 83.7 185.1 84.1 185.7 Z M 83.1 185.4 C 83.1 185.3 83.4 185.5 83.3 185.6 C 83.2 185.8 83.0 185.5 83.1 185.4 Z M 78.9 183.6 C 78.4 183.5 78.3 182.8 78.9 183.1 C 79.5 183.4 79.4 183.6 78.9 183.6 Z M 63.4 156.6 C 63.2 156.8 63.1 156.3 63.2 156.0 C 63.3 155.8 63.7 156.3 63.4 156.6 Z M 81.7 152.1 C 81.3 151.9 81.5 151.8 82.0 151.8 C 82.5 151.8 82.0 152.3 81.7 152.1 Z M 93.2 149.1 C 92.8 148.9 93.0 148.7 93.5 148.7 C 94.0 148.7 93.5 149.2 93.2 149.1 Z M 77.2 153.7 C 77.0 153.6 77.9 152.3 78.8 152.9 C 79.7 153.4 77.8 154.2 77.2 153.7 Z M 69.4 166.5 C 69.2 166.7 69.2 166.4 69.2 166.4 C 69.6 166.3 69.6 166.3 69.4 166.5 Z M 80.2 154.2 C 80.0 154.4 79.9 153.9 80.0 153.6 C 80.1 153.4 80.5 153.9 80.2 154.2 Z M 90.9 149.1 C 90.4 149.0 90.4 148.2 90.6 147.9 C 91.2 146.8 92.2 147.5 93.1 147.8 C 93.7 148.0 91.2 149.2 90.9 149.1 Z M 61.3 159.2 C 61.7 159.2 61.9 159.2 62.2 159.2 C 62.2 158.9 62.4 158.9 62.7 159.0 C 63.7 158.5 64.0 157.2 64.6 156.7 C 66.0 155.5 67.4 157.4 68.4 157.2 C 68.2 157.3 67.9 157.4 67.8 157.6 C 67.6 158.4 71.4 156.7 71.6 156.6 C 74.8 154.9 70.6 155.8 70.2 154.6 C 70.0 154.1 72.7 154.6 72.9 154.6 C 74.1 154.7 73.9 153.5 74.9 153.7 C 75.4 153.8 77.6 155.8 77.9 155.3 C 78.1 154.9 79.2 154.8 79.6 154.7 C 80.2 154.5 81.3 154.0 80.3 153.3 C 79.7 152.8 79.3 152.2 80.4 152.5 C 81.1 152.7 85.6 152.9 84.7 151.1 C 84.7 151.0 83.6 150.7 83.6 150.8 C 84.5 149.9 88.1 149.4 88.6 148.3 C 89.7 146.0 88.4 149.5 89.4 149.7 C 91.2 150.0 92.2 150.3 94.1 149.3 C 94.5 149.0 96.2 148.4 95.0 147.7 C 94.2 147.2 94.5 146.6 93.3 146.8 C 94.2 145.4 95.6 146.9 95.8 146.4 C 95.9 145.8 95.1 145.7 96.0 145.5 C 97.2 145.3 96.6 145.1 97.2 146.0 C 97.3 146.3 98.4 146.1 98.4 146.1 C 98.4 146.2 98.4 146.3 98.5 146.4 C 99.4 146.0 100.1 143.7 100.5 144.0 C 100.9 144.3 100.8 145.6 100.9 146.0 C 101.0 146.0 101.1 146.0 101.1 146.0 C 101.5 145.7 102.2 144.7 102.4 144.8 C 102.6 144.9 102.5 146.8 102.7 146.2 C 103.0 145.6 105.2 145.4 105.5 145.9 C 105.8 146.4 107.1 148.4 107.5 148.4 C 107.9 148.5 107.5 149.8 107.5 150.1 C 107.5 150.5 106.7 151.1 106.5 151.3 C 106.4 151.4 106.4 152.4 106.4 152.4 C 106.4 152.4 106.5 152.9 106.4 153.7 C 106.3 154.4 105.7 154.9 105.2 155.9 C 104.7 156.8 105.3 157.3 105.2 158.3 C 105.1 159.2 103.5 159.7 103.1 160.5 C 102.8 161.2 104.0 161.4 103.9 162.5 C 103.8 163.5 103.4 164.0 103.2 163.7 C 103.1 163.3 102.8 163.5 102.7 163.8 C 102.6 164.1 102.0 165.2 102.1 165.7 C 102.3 166.1 103.9 163.3 103.0 167.1 C 102.6 168.9 101.1 170.0 101.1 169.5 C 101.3 168.1 98.9 170.7 99.5 170.8 C 100.1 170.9 99.3 174.1 100.5 173.5 C 100.8 173.4 100.6 176.7 100.3 177.1 C 100.0 177.5 100.0 179.0 98.9 179.3 C 98.4 179.4 99.3 181.4 99.3 181.9 C 99.2 182.3 98.5 184.8 98.1 185.2 C 97.8 185.7 98.0 184.5 98.1 183.9 C 98.3 183.3 98.9 182.7 98.9 182.2 C 98.9 181.7 98.2 182.6 98.0 183.2 C 97.8 183.8 97.3 183.9 97.0 184.4 C 97.1 184.7 96.9 185.1 96.7 185.6 C 96.7 185.8 96.8 186.0 97.0 186.0 C 97.3 186.1 97.6 185.8 97.7 185.9 C 97.9 186.0 98.0 186.5 97.9 187.3 C 97.7 188.1 97.5 188.7 97.0 189.7 C 96.5 190.6 96.7 191.0 96.7 191.7 C 96.6 192.4 96.4 193.0 96.1 193.0 C 95.9 193.0 95.9 192.1 95.8 192.0 C 95.6 191.9 94.8 192.7 94.7 193.1 C 94.1 195.0 92.8 193.1 92.2 195.0 C 91.8 196.0 91.5 194.8 91.0 194.0 C 90.8 194.2 90.7 194.2 89.9 193.8 C 89.7 194.0 88.9 193.0 88.4 192.7 C 88.1 192.4 85.9 191.3 87.5 191.7 C 87.6 191.7 87.7 191.8 87.8 191.8 C 87.8 191.8 87.8 191.8 87.8 191.7 C 87.8 191.7 89.0 191.4 89.0 191.4 C 89.0 191.4 87.8 191.7 87.8 191.7 C 87.9 191.2 87.9 190.8 87.9 190.5 C 87.7 190.5 87.6 190.5 87.4 190.5 C 87.4 190.5 87.4 190.5 87.3 190.5 C 87.3 190.5 87.3 190.5 87.3 190.5 C 87.1 190.8 87.0 190.7 86.8 190.4 C 85.8 190.2 84.7 188.4 84.3 187.6 C 87.3 187.5 84.3 185.1 83.1 184.5 C 82.0 183.9 80.4 185.9 80.9 186.3 C 80.1 185.7 80.2 185.3 80.5 184.6 C 80.5 184.6 80.7 182.8 80.7 182.9 C 79.6 180.8 78.6 182.8 78.0 182.6 C 77.4 182.5 76.8 182.0 76.2 181.7 C 75.6 181.4 75.8 182.1 75.4 182.2 C 74.2 182.5 74.2 180.0 73.8 179.6 C 74.4 179.8 75.0 180.1 75.5 180.1 C 74.6 180.0 75.1 178.8 74.9 178.5 C 74.6 177.9 73.8 177.4 73.2 177.0 C 72.2 176.3 71.1 175.7 70.1 175.1 C 70.3 175.5 70.8 177.7 70.9 177.8 C 70.5 177.6 69.9 176.5 69.6 177.5 C 69.2 179.2 67.3 176.6 67.0 176.3 C 65.9 175.2 63.6 175.3 63.4 172.9 C 63.4 172.9 65.6 174.1 65.7 173.9 C 66.1 172.5 66.1 171.5 64.6 170.7 C 64.3 170.5 61.9 169.9 61.8 170.0 C 61.9 169.8 61.7 173.8 60.8 171.7 C 60.6 171.3 61.6 171.4 61.3 170.9 C 61.0 170.2 60.0 169.7 59.5 169.2 C 59.4 169.1 58.7 167.9 58.6 168.0 C 58.1 168.1 57.7 168.6 57.2 168.4 C 56.7 168.3 56.4 167.6 56.7 167.3 C 56.8 167.2 56.8 167.2 56.9 167.2 C 56.8 167.1 56.8 166.9 57.0 166.7 C 56.8 166.6 56.5 166.4 56.5 166.0 C 56.5 165.8 57.0 166.1 57.2 166.5 C 57.3 166.4 57.4 166.3 57.6 166.2 C 57.0 165.8 56.4 165.5 56.3 165.5 C 55.0 165.4 54.7 165.7 54.3 163.7 C 54.0 162.1 57.3 159.8 59.6 159.6 C 60.0 159.3 60.5 159.1 61.3 159.2 Z M 95.8 186.7 C 95.8 186.6 95.8 186.6 95.8 186.5 C 95.6 186.5 95.4 186.4 95.1 186.4 C 94.9 186.9 95.6 186.3 95.4 186.9 C 95.2 187.5 95.4 187.5 95.8 186.7 Z M 90.7 188.1 C 90.7 188.6 90.9 188.4 91.1 188.2 C 90.9 188.1 90.8 188.1 90.7 188.1 Z M 88.9 189.9 C 89.6 190.2 89.3 188.7 88.2 188.1 C 88.4 189.1 88.7 189.6 88.9 189.9 Z M 86.8 189.5 C 86.9 189.5 87.1 189.4 87.2 189.3 C 87.4 189.1 86.6 188.9 86.8 188.7 C 87.1 188.6 87.9 188.8 87.6 188.4 C 87.6 188.2 87.5 188.1 87.4 187.9 C 87.3 187.9 87.2 187.9 87.1 187.9 C 86.6 188.0 86.5 189.1 86.8 189.5 Z M 94.7 182.9 C 94.8 183.3 95.0 183.0 95.0 182.8 C 94.9 182.5 94.6 182.5 94.7 182.9 Z M 97.8 178.9 C 97.4 179.2 97.5 179.7 97.9 179.4 C 98.3 179.1 98.1 178.6 97.8 178.9 Z M 90.0 175.5 C 90.2 175.7 90.2 175.6 90.2 175.3 C 90.2 174.9 89.9 175.3 90.0 175.5 Z M 85.9 176.7 C 85.5 176.6 85.3 177.2 85.5 177.2 C 85.8 177.2 86.1 176.8 85.9 176.7 Z M 95.4 173.9 C 95.4 173.5 95.0 173.7 95.2 174.0 C 95.3 174.3 95.4 174.2 95.4 173.9 Z M 90.1 176.8 C 90.5 176.3 90.3 176.2 90.1 176.1 C 90.0 176.0 89.7 176.2 89.6 176.6 C 89.6 177.2 89.8 177.2 90.1 176.8 Z M 86.8 178.3 C 85.9 177.5 85.5 177.9 86.8 178.7 C 88.0 179.4 87.4 178.8 86.8 178.3 Z M 99.8 175.8 C 99.7 175.9 99.8 176.6 99.8 176.6 C 99.8 176.6 100.3 175.0 99.8 175.8 Z M 77.3 181.3 C 77.6 181.6 78.1 181.5 77.7 181.0 C 77.2 180.5 77.0 181.0 77.3 181.3 Z M 78.3 178.7 C 78.0 179.7 78.4 180.4 78.4 180.4 C 78.5 180.2 79.1 179.9 79.4 179.9 C 80.2 180.2 80.4 181.6 81.4 181.6 C 82.5 181.7 81.1 180.4 80.8 180.2 C 81.1 180.3 81.3 180.3 81.5 180.1 C 81.6 179.8 81.4 179.6 81.1 179.6 C 80.6 179.5 78.6 177.5 78.3 178.7 Z M 88.1 175.2 C 88.1 175.7 88.5 176.0 88.9 175.5 C 89.2 175.1 89.3 174.6 89.1 174.5 C 89.0 174.4 88.2 174.7 88.1 175.2 Z M 91.1 173.7 C 91.4 174.1 91.5 174.0 91.5 173.5 C 91.5 172.8 90.8 173.4 91.1 173.7 Z M 102.1 163.4 C 101.9 163.1 101.7 163.8 102.0 163.8 C 102.2 163.9 102.3 163.6 102.1 163.4 Z M 97.0 165.4 C 96.9 164.5 96.4 165.4 96.5 165.6 C 96.5 165.8 97.1 165.9 97.0 165.4 Z M 95.1 169.5 C 95.1 169.1 94.7 169.7 94.8 169.9 C 95.0 170.1 95.1 169.8 95.1 169.5 Z M 93.2 170.6 C 93.3 170.2 92.7 170.4 92.9 170.9 C 93.0 171.2 93.2 171.0 93.2 170.6 Z M 76.0 175.0 C 76.0 175.0 76.6 174.5 75.9 174.4 C 75.2 174.3 75.1 174.3 76.0 175.0 Z M 82.4 174.3 C 83.0 174.7 83.6 174.9 85.1 173.8 C 86.5 172.6 85.8 172.5 84.6 172.6 C 83.5 172.8 86.0 171.0 83.9 171.3 C 83.1 171.4 81.9 173.9 82.4 174.3 Z M 92.0 167.6 C 91.2 168.5 91.9 169.9 92.3 168.9 C 92.7 167.7 92.6 166.8 92.0 167.6 Z M 92.7 167.3 C 92.7 167.5 92.8 167.4 92.9 167.0 C 92.9 166.6 92.6 166.9 92.7 167.3 Z M 68.5 176.8 C 70.5 177.9 69.5 175.3 69.5 175.3 C 68.1 173.4 66.5 175.8 68.5 176.8 Z M 97.9 147.6 C 97.8 147.6 97.7 147.6 97.6 147.6 C 97.6 147.6 97.6 147.6 97.5 147.7 C 97.3 148.0 98.2 148.2 98.2 148.2 C 98.2 147.9 98.1 147.6 97.9 147.6 Z M 87.1 150.9 C 87.5 150.8 87.8 150.6 88.0 150.2 C 87.5 149.4 84.3 150.5 86.1 151.7 C 86.4 151.9 88.9 152.5 88.8 151.6 C 88.8 151.2 86.0 151.2 87.1 150.9 Z M 90.9 151.0 C 89.6 151.4 92.4 151.9 91.9 151.4 C 91.6 151.0 91.3 150.9 90.9 151.0 Z M 101.3 150.6 C 102.8 149.3 101.6 146.9 99.4 149.2 C 97.2 151.4 97.4 152.6 98.7 151.7 C 99.9 150.9 99.2 152.5 101.3 150.6 Z M 87.5 155.5 C 87.2 153.6 86.5 154.4 86.6 155.9 C 86.6 156.3 87.7 156.7 87.5 155.5 Z M 83.8 157.2 C 83.2 157.2 83.3 157.2 83.6 157.4 C 84.1 157.7 84.3 157.2 83.8 157.2 Z M 105.0 152.2 C 105.5 151.6 105.7 150.8 105.9 151.2 C 106.1 151.6 106.1 151.4 106.4 150.9 C 106.7 150.3 105.8 150.7 105.5 150.9 C 105.1 151.1 104.5 152.7 105.0 152.2 Z M 92.4 163.6 C 92.4 163.2 92.1 163.5 92.2 163.8 C 92.2 164.1 92.3 164.0 92.4 163.6 Z M 78.5 170.7 C 78.5 170.7 78.9 170.4 78.4 170.4 C 78.0 170.3 78.0 170.3 78.5 170.7 Z M 66.5 174.3 C 66.9 174.5 66.7 173.6 67.4 173.5 C 67.6 173.5 67.4 173.9 67.3 174.0 C 67.4 173.9 68.8 173.2 67.6 173.0 C 67.2 172.9 65.5 173.8 66.5 174.3 Z M 88.2 164.6 C 87.7 165.3 90.4 164.9 90.2 165.5 C 89.9 166.2 90.2 166.1 90.5 165.3 C 90.9 164.7 88.6 163.8 88.2 164.6 Z M 94.3 161.9 C 93.9 162.1 93.3 163.7 93.8 163.2 C 94.4 162.7 94.5 161.8 94.7 162.3 C 94.9 162.7 94.9 162.4 95.2 162.0 C 95.5 161.4 94.6 161.7 94.3 161.9 Z M 104.5 157.8 C 104.3 158.0 104.2 158.9 104.6 158.4 C 104.8 158.2 104.7 157.6 104.5 157.8 Z M 75.4 167.4 C 75.9 167.5 76.0 167.3 75.4 167.0 C 74.8 166.7 74.8 167.4 75.4 167.4 Z M 102.9 156.4 C 102.5 157.2 103.4 156.4 103.1 157.0 C 102.9 157.6 103.2 157.6 103.5 156.8 C 103.8 156.1 103.4 155.6 102.9 156.4 Z M 65.4 169.2 C 65.6 169.2 65.9 168.8 65.7 168.7 C 65.3 168.6 65.1 169.2 65.4 169.2 Z M 68.7 166.4 C 68.8 166.5 68.9 166.6 69.1 166.8 C 71.7 168.6 68.7 164.5 68.7 166.4 Z M 74.8 164.6 C 74.1 165.0 75.2 165.1 75.2 165.0 C 75.3 164.7 75.1 164.6 74.8 164.6 Z M 81.3 162.2 C 81.4 161.8 80.8 162.1 81.0 162.4 C 81.2 162.7 81.3 162.5 81.3 162.2 Z M 59.8 168.6 C 60.0 168.9 60.2 168.7 60.0 168.5 C 59.9 168.2 59.5 168.3 59.8 168.6 Z M 76.0 162.5 C 76.0 162.7 76.0 162.7 76.3 162.5 C 76.6 162.3 76.1 162.3 76.0 162.5 Z M 95.9 155.2 C 95.8 155.5 95.7 155.7 95.6 155.9 C 95.9 156.2 97.2 155.9 97.4 156.3 C 97.4 156.4 97.4 156.4 97.4 156.4 C 97.4 156.4 97.4 156.4 97.4 156.5 C 97.5 156.7 97.4 157.0 97.2 156.8 C 97.1 157.0 96.9 157.1 96.7 157.2 C 97.2 157.5 97.7 157.6 98.0 157.2 C 98.2 156.7 98.0 155.7 97.7 155.0 C 97.4 155.0 97.1 155.0 96.8 155.0 C 96.8 155.0 96.8 155.1 96.8 155.1 C 96.7 155.7 96.4 156.0 96.3 155.6 C 96.2 155.4 96.3 155.2 96.4 155.1 C 96.2 155.1 96.1 155.2 95.9 155.2 Z M 78.2 160.7 C 77.8 161.1 78.2 161.1 78.9 161.1 C 79.4 161.0 78.6 160.2 78.2 160.7 Z M 60.3 167.6 C 60.5 167.5 60.6 167.4 60.7 167.2 C 60.6 167.2 60.5 167.2 60.4 167.3 C 60.0 167.3 59.6 167.3 59.2 167.4 C 59.4 167.8 59.7 168.1 60.3 167.6 Z M 65.3 163.7 C 65.2 163.9 62.8 164.6 63.4 165.0 C 64.3 165.6 63.6 166.8 65.2 165.8 C 66.0 165.4 66.2 163.9 67.0 163.4 C 70.9 160.9 65.5 162.7 64.3 162.8 C 64.0 162.9 65.6 163.5 65.3 163.7 Z M 70.4 160.5 C 70.5 160.0 69.7 159.8 69.4 159.9 C 68.4 160.4 70.3 161.0 70.4 160.5 Z M 58.4 164.1 C 58.4 164.1 58.4 164.2 58.5 164.3 C 58.5 164.2 58.6 164.1 58.6 164.0 C 58.5 164.0 58.5 164.0 58.4 164.1 Z M 55.3 164.7 C 56.8 165.5 55.9 163.3 55.5 162.8 C 54.8 162.1 54.5 164.2 55.3 164.7 Z M 66.5 159.6 C 67.4 159.4 67.5 156.6 66.0 157.2 C 64.7 157.8 64.6 160.1 66.5 159.6 Z M 74.2 153.4 C 74.0 153.8 73.0 153.6 73.3 153.1 C 73.5 152.8 74.3 153.2 74.2 153.4 Z M 60.7 156.7 C 61.0 156.7 60.7 156.9 60.7 156.9 C 60.4 156.6 60.4 156.6 60.7 156.7 Z M 62.5 158.0 C 62.1 158.0 61.5 158.1 61.1 158.1 C 60.8 158.1 61.6 157.6 61.7 157.5 C 62.0 157.5 62.4 158.0 62.5 158.0 Z M 69.6 155.8 C 69.1 155.6 69.7 155.4 70.0 155.3 C 70.2 155.3 69.9 155.8 69.6 155.8 Z M 67.7 155.8 C 68.0 155.7 67.9 156.1 67.6 156.2 C 67.2 156.3 67.4 155.8 67.7 155.8 Z M 71.1 156.1 C 70.5 156.6 69.5 157.1 69.4 156.4 C 69.3 156.1 72.4 155.2 71.1 156.1 Z M 71.1 156.1 " fill="#F38F18"></path></g></svg>