<?xml version="1.0" encoding="UTF-8" standalone="no"?><svg xmlns="http://www.w3.org/2000/svg" xmlns:xlink="http://www.w3.org/1999/xlink" clip-rule="evenodd" stroke-miterlimit="10" viewBox="0 0 1920 1080"><desc>SVG generated by Keynote</desc><defs></defs><g transform="matrix(1.00, 0.00, -0.00, -1.00, 0.0, 1080.0)"><path d="M 0.0 1080.0 L 1920.0 1080.0 L 1920.0 0.0 L 0.0 0.0 Z M 0.0 1080.0 " fill="#FEFFFF"></path><text xml:space="preserve" font-family="SourceSansPro-Regular,Source Sans Pro" font-size="84.0" fill="#000000" transform="matrix(1.00, 0.00, -0.00, -1.00, 667.4, 825.2)">R</text><text xml:space="preserve" font-family="SourceSansPro-Regular,Source Sans Pro" font-size="84.0" fill="#000000" transform="matrix(1.00, 0.00, -0.00, -1.00, 715.4, 825.2)">e</text><text xml:space="preserve" font-family="SourceSansPro-Regular,Source Sans Pro" font-size="84.0" fill="#000000" transform="matrix(1.00, 0.00, -0.00, -1.00, 755.9, 825.2)">a</text><text xml:space="preserve" font-family="SourceSansPro-Regular,Source Sans Pro" font-size="84.0" fill="#000000" transform="matrix(1.00, 0.00, -0.00, -1.00, 798.9, 825.2)">d</text><text xml:space="preserve" font-family="SourceSansPro-Regular,Source Sans Pro" font-size="84.0" fill="#000000" transform="matrix(1.00, 0.00, -0.00, -1.00, 845.5, 825.2)">i</text><text xml:space="preserve" font-family="SourceSansPro-Regular,Source Sans Pro" font-size="84.0" fill="#000000" transform="matrix(1.00, 0.00, -0.00, -1.00, 866.2, 825.2)">n</text><text xml:space="preserve" font-family="SourceSansPro-Regular,Source Sans Pro" font-size="84.0" fill="#000000" transform="matrix(1.00, 0.00, -0.00, -1.00, 912.1, 825.2)">g</text><text xml:space="preserve" font-family="SourceSansPro-Regular,Source Sans Pro" font-size="84.0" fill="#000000" transform="matrix(1.00, 0.00, -0.00, -1.00, 954.5, 825.2)"> </text><text xml:space="preserve" font-family="SourceSansPro-Regular,Source Sans Pro" font-size="84.0" fill="#000000" transform="matrix(1.00, 0.00, -0.00, -1.00, 971.4, 825.2)">a</text><text xml:space="preserve" font-family="SourceSansPro-Regular,Source Sans Pro" font-size="84.0" fill="#000000" transform="matrix(1.00, 0.00, -0.00, -1.00, 1014.4, 825.2)"> </text><text xml:space="preserve" font-family="SourceSansPro-Regular,Source Sans Pro" font-size="84.0" fill="#000000" transform="matrix(1.00, 0.00, -0.00, -1.00, 1031.4, 825.2)">F</text><text xml:space="preserve" font-family="SourceSansPro-Regular,Source Sans Pro" font-size="84.0" fill="#000000" transform="matrix(1.00, 0.00, -0.00, -1.00, 1071.2, 825.2)">r</text><text xml:space="preserve" font-family="SourceSansPro-Regular,Source Sans Pro" font-size="84.0" fill="#000000" transform="matrix(1.00, 0.00, -0.00, -1.00, 1098.3, 825.2)">a</text><text xml:space="preserve" font-family="SourceSansPro-Regular,Source Sans Pro" font-size="84.0" fill="#000000" transform="matrix(1.00, 0.00, -0.00, -1.00, 1141.3, 825.2)">m</text><text xml:space="preserve" font-family="SourceSansPro-Regular,Source Sans Pro" font-size="84.0" fill="#000000" transform="matrix(1.00, 0.00, -0.00, -1.00, 1210.9, 825.2)">e</text><text xml:space="preserve" font-family="Courier-Bold,Courier" font-weight="bold" font-size="52.0" fill="#8D908B" transform="matrix(1.00, 0.00, -0.00, -1.00, 54.6, 649.3)">{</text><text xml:space="preserve" font-family="Courier-Bold,Courier" font-weight="bold" font-size="52.0" fill="#8D908B" transform="matrix(1.00, 0.00, -0.00, -1.00, 85.8, 649.3)">o</text><text xml:space="preserve" font-family="Courier-Bold,Courier" font-weight="bold" font-size="52.0" fill="#8D908B" transform="matrix(1.00, 0.00, -0.00, -1.00, 117.0, 649.3)">k</text><text xml:space="preserve" font-family="Courier-Bold,Courier" font-weight="bold" font-size="52.0" fill="#8D908B" transform="matrix(1.00, 0.00, -0.00, -1.00, 148.2, 649.3)">,</text><text xml:space="preserve" font-family="Courier-Bold,Courier" font-weight="bold" font-size="52.0" fill="#8D908B" transform="matrix(1.00, 0.00, -0.00, -1.00, 179.4, 649.3)"> </text><text xml:space="preserve" font-family="Courier-Bold,Courier" font-weight="bold" font-size="52.0" fill="#8D908B" transform="matrix(1.00, 0.00, -0.00, -1.00, 210.6, 649.3)">F</text><text xml:space="preserve" font-family="Courier-Bold,Courier" font-weight="bold" font-size="52.0" fill="#8D908B" transform="matrix(1.00, 0.00, -0.00, -1.00, 241.8, 649.3)">r</text><text xml:space="preserve" font-family="Courier-Bold,Courier" font-weight="bold" font-size="52.0" fill="#8D908B" transform="matrix(1.00, 0.00, -0.00, -1.00, 273.0, 649.3)">a</text><text xml:space="preserve" font-family="Courier-Bold,Courier" font-weight="bold" font-size="52.0" fill="#8D908B" transform="matrix(1.00, 0.00, -0.00, -1.00, 304.2, 649.3)">m</text><text xml:space="preserve" font-family="Courier-Bold,Courier" font-weight="bold" font-size="52.0" fill="#8D908B" transform="matrix(1.00, 0.00, -0.00, -1.00, 335.4, 649.3)">e</text><text xml:space="preserve" font-family="Courier-Bold,Courier" font-weight="bold" font-size="52.0" fill="#8D908B" transform="matrix(1.00, 0.00, -0.00, -1.00, 366.7, 649.3)">H</text><text xml:space="preserve" font-family="Courier-Bold,Courier" font-weight="bold" font-size="52.0" fill="#8D908B" transform="matrix(1.00, 0.00, -0.00, -1.00, 397.9, 649.3)">e</text><text xml:space="preserve" font-family="Courier-Bold,Courier" font-weight="bold" font-size="52.0" fill="#8D908B" transform="matrix(1.00, 0.00, -0.00, -1.00, 429.1, 649.3)">a</text><text xml:space="preserve" font-family="Courier-Bold,Courier" font-weight="bold" font-size="52.0" fill="#8D908B" transform="matrix(1.00, 0.00, -0.00, -1.00, 460.3, 649.3)">d</text><text xml:space="preserve" font-family="Courier-Bold,Courier" font-weight="bold" font-size="52.0" fill="#8D908B" transform="matrix(1.00, 0.00, -0.00, -1.00, 491.5, 649.3)">e</text><text xml:space="preserve" font-family="Courier-Bold,Courier" font-weight="bold" font-size="52.0" fill="#8D908B" transform="matrix(1.00, 0.00, -0.00, -1.00, 522.7, 649.3)">r</text><text xml:space="preserve" font-family="Courier-Bold,Courier" font-weight="bold" font-size="52.0" fill="#8D908B" transform="matrix(1.00, 0.00, -0.00, -1.00, 553.9, 649.3)">B</text><text xml:space="preserve" font-family="Courier-Bold,Courier" font-weight="bold" font-size="52.0" fill="#8D908B" transform="matrix(1.00, 0.00, -0.00, -1.00, 585.1, 649.3)">i</text><text xml:space="preserve" font-family="Courier-Bold,Courier" font-weight="bold" font-size="52.0" fill="#8D908B" transform="matrix(1.00, 0.00, -0.00, -1.00, 616.3, 649.3)">n</text><text xml:space="preserve" font-family="Courier-Bold,Courier" font-weight="bold" font-size="52.0" fill="#8D908B" transform="matrix(1.00, 0.00, -0.00, -1.00, 647.5, 649.3)">}</text><text xml:space="preserve" font-family="Courier-Bold,Courier" font-weight="bold" font-size="52.0" fill="#8D908B" transform="matrix(1.00, 0.00, -0.00, -1.00, 678.8, 649.3)"> </text><text xml:space="preserve" font-family="Courier-Bold,Courier" font-weight="bold" font-size="52.0" fill="#8D908B" transform="matrix(1.00, 0.00, -0.00, -1.00, 710.0, 649.3)">=</text><text xml:space="preserve" font-family="Courier-Bold,Courier" font-weight="bold" font-size="52.0" fill="#8D908B" transform="matrix(1.00, 0.00, -0.00, -1.00, 741.2, 649.3)"> </text><text xml:space="preserve" font-family="Courier-Bold,Courier" font-weight="bold" font-size="52.0" fill="#8D908B" transform="matrix(1.00, 0.00, -0.00, -1.00, 772.4, 649.3)">T</text><text xml:space="preserve" font-family="Courier-Bold,Courier" font-weight="bold" font-size="52.0" fill="#8D908B" transform="matrix(1.00, 0.00, -0.00, -1.00, 803.6, 649.3)">r</text><text xml:space="preserve" font-family="Courier-Bold,Courier" font-weight="bold" font-size="52.0" fill="#8D908B" transform="matrix(1.00, 0.00, -0.00, -1.00, 834.8, 649.3)">a</text><text xml:space="preserve" font-family="Courier-Bold,Courier" font-weight="bold" font-size="52.0" fill="#8D908B" transform="matrix(1.00, 0.00, -0.00, -1.00, 866.0, 649.3)">n</text><text xml:space="preserve" font-family="Courier-Bold,Courier" font-weight="bold" font-size="52.0" fill="#8D908B" transform="matrix(1.00, 0.00, -0.00, -1.00, 897.2, 649.3)">s</text><text xml:space="preserve" font-family="Courier-Bold,Courier" font-weight="bold" font-size="52.0" fill="#8D908B" transform="matrix(1.00, 0.00, -0.00, -1.00, 928.4, 649.3)">p</text><text xml:space="preserve" font-family="Courier-Bold,Courier" font-weight="bold" font-size="52.0" fill="#8D908B" transform="matrix(1.00, 0.00, -0.00, -1.00, 959.7, 649.3)">o</text><text xml:space="preserve" font-family="Courier-Bold,Courier" font-weight="bold" font-size="52.0" fill="#8D908B" transform="matrix(1.00, 0.00, -0.00, -1.00, 990.9, 649.3)">r</text><text xml:space="preserve" font-family="Courier-Bold,Courier" font-weight="bold" font-size="52.0" fill="#8D908B" transform="matrix(1.00, 0.00, -0.00, -1.00, 1022.1, 649.3)">t</text><text xml:space="preserve" font-family="Courier-Bold,Courier" font-weight="bold" font-size="52.0" fill="#8D908B" transform="matrix(1.00, 0.00, -0.00, -1.00, 1053.3, 649.3)">:</text><text xml:space="preserve" font-family="Courier-Bold,Courier" font-weight="bold" font-size="52.0" fill="#8D908B" transform="matrix(1.00, 0.00, -0.00, -1.00, 1084.5, 649.3)">r</text><text xml:space="preserve" font-family="Courier-Bold,Courier" font-weight="bold" font-size="52.0" fill="#8D908B" transform="matrix(1.00, 0.00, -0.00, -1.00, 1115.7, 649.3)">e</text><text xml:space="preserve" font-family="Courier-Bold,Courier" font-weight="bold" font-size="52.0" fill="#8D908B" transform="matrix(1.00, 0.00, -0.00, -1.00, 1146.9, 649.3)">c</text><text xml:space="preserve" font-family="Courier-Bold,Courier" font-weight="bold" font-size="52.0" fill="#8D908B" transform="matrix(1.00, 0.00, -0.00, -1.00, 1178.1, 649.3)">v</text><text xml:space="preserve" font-family="Courier-Bold,Courier" font-weight="bold" font-size="52.0" fill="#8D908B" transform="matrix(1.00, 0.00, -0.00, -1.00, 1209.3, 649.3)">(</text><text xml:space="preserve" font-family="Courier-Bold,Courier" font-weight="bold" font-size="52.0" fill="#8D908B" transform="matrix(1.00, 0.00, -0.00, -1.00, 1240.5, 649.3)">S</text><text xml:space="preserve" font-family="Courier-Bold,Courier" font-weight="bold" font-size="52.0" fill="#8D908B" transform="matrix(1.00, 0.00, -0.00, -1.00, 1271.8, 649.3)">o</text><text xml:space="preserve" font-family="Courier-Bold,Courier" font-weight="bold" font-size="52.0" fill="#8D908B" transform="matrix(1.00, 0.00, -0.00, -1.00, 1303.0, 649.3)">c</text><text xml:space="preserve" font-family="Courier-Bold,Courier" font-weight="bold" font-size="52.0" fill="#8D908B" transform="matrix(1.00, 0.00, -0.00, -1.00, 1334.2, 649.3)">k</text><text xml:space="preserve" font-family="Courier-Bold,Courier" font-weight="bold" font-size="52.0" fill="#8D908B" transform="matrix(1.00, 0.00, -0.00, -1.00, 1365.4, 649.3)">e</text><text xml:space="preserve" font-family="Courier-Bold,Courier" font-weight="bold" font-size="52.0" fill="#8D908B" transform="matrix(1.00, 0.00, -0.00, -1.00, 1396.6, 649.3)">t</text><text xml:space="preserve" font-family="Courier-Bold,Courier" font-weight="bold" font-size="52.0" fill="#8D908B" transform="matrix(1.00, 0.00, -0.00, -1.00, 1427.8, 649.3)">,</text><text xml:space="preserve" font-family="Courier-Bold,Courier" font-weight="bold" font-size="52.0" fill="#8D908B" transform="matrix(1.00, 0.00, -0.00, -1.00, 1459.0, 649.3)"> </text><text xml:space="preserve" font-family="Courier-Bold,Courier" font-weight="bold" font-size="52.0" fill="#8D908B" transform="matrix(1.00, 0.00, -0.00, -1.00, 1490.2, 649.3)">9</text><text xml:space="preserve" font-family="Courier-Bold,Courier" font-weight="bold" font-size="52.0" fill="#8D908B" transform="matrix(1.00, 0.00, -0.00, -1.00, 1521.4, 649.3)">)</text><text xml:space="preserve" font-family="Courier-Bold,Courier" font-weight="bold" font-size="52.0" fill="#8D908B" transform="matrix(1.00, 0.00, -0.00, -1.00, 1552.6, 649.3)">,</text><text xml:space="preserve" font-family="Courier-Bold,Courier" font-weight="bold" font-size="52.0" fill="#8D908B" transform="matrix(1.00, 0.00, -0.00, -1.00, 54.6, 525.3)">F</text><text xml:space="preserve" font-family="Courier-Bold,Courier" font-weight="bold" font-size="52.0" fill="#8D908B" transform="matrix(1.00, 0.00, -0.00, -1.00, 85.8, 525.3)">r</text><text xml:space="preserve" font-family="Courier-Bold,Courier" font-weight="bold" font-size="52.0" fill="#8D908B" transform="matrix(1.00, 0.00, -0.00, -1.00, 117.0, 525.3)">a</text><text xml:space="preserve" font-family="Courier-Bold,Courier" font-weight="bold" font-size="52.0" fill="#8D908B" transform="matrix(1.00, 0.00, -0.00, -1.00, 148.2, 525.3)">m</text><text xml:space="preserve" font-family="Courier-Bold,Courier" font-weight="bold" font-size="52.0" fill="#8D908B" transform="matrix(1.00, 0.00, -0.00, -1.00, 179.4, 525.3)">e</text><text xml:space="preserve" font-family="Courier-Bold,Courier" font-weight="bold" font-size="52.0" fill="#8D908B" transform="matrix(1.00, 0.00, -0.00, -1.00, 210.6, 525.3)">H</text><text xml:space="preserve" font-family="Courier-Bold,Courier" font-weight="bold" font-size="52.0" fill="#8D908B" transform="matrix(1.00, 0.00, -0.00, -1.00, 241.8, 525.3)">e</text><text xml:space="preserve" font-family="Courier-Bold,Courier" font-weight="bold" font-size="52.0" fill="#8D908B" transform="matrix(1.00, 0.00, -0.00, -1.00, 273.0, 525.3)">a</text><text xml:space="preserve" font-family="Courier-Bold,Courier" font-weight="bold" font-size="52.0" fill="#8D908B" transform="matrix(1.00, 0.00, -0.00, -1.00, 304.2, 525.3)">d</text><text xml:space="preserve" font-family="Courier-Bold,Courier" font-weight="bold" font-size="52.0" fill="#8D908B" transform="matrix(1.00, 0.00, -0.00, -1.00, 335.4, 525.3)">e</text><text xml:space="preserve" font-family="Courier-Bold,Courier" font-weight="bold" font-size="52.0" fill="#8D908B" transform="matrix(1.00, 0.00, -0.00, -1.00, 366.7, 525.3)">r</text><text xml:space="preserve" font-family="Courier-Bold,Courier" font-weight="bold" font-size="52.0" fill="#8D908B" transform="matrix(1.00, 0.00, -0.00, -1.00, 397.9, 525.3)"> </text><text xml:space="preserve" font-family="Courier-Bold,Courier" font-weight="bold" font-size="52.0" fill="#8D908B" transform="matrix(1.00, 0.00, -0.00, -1.00, 429.1, 525.3)">=</text><text xml:space="preserve" font-family="Courier-Bold,Courier" font-weight="bold" font-size="52.0" fill="#8D908B" transform="matrix(1.00, 0.00, -0.00, -1.00, 460.3, 525.3)"> </text><text xml:space="preserve" font-family="Courier-Bold,Courier" font-weight="bold" font-size="52.0" fill="#8D908B" transform="matrix(1.00, 0.00, -0.00, -1.00, 54.6, 463.3)"> </text><text xml:space="preserve" font-family="Courier-Bold,Courier" font-weight="bold" font-size="52.0" fill="#8D908B" transform="matrix(1.00, 0.00, -0.00, -1.00, 85.8, 463.3)"> </text><text xml:space="preserve" font-family="Courier-Bold,Courier" font-weight="bold" font-size="52.0" fill="#8D908B" transform="matrix(1.00, 0.00, -0.00, -1.00, 117.0, 463.3)">h</text><text xml:space="preserve" font-family="Courier-Bold,Courier" font-weight="bold" font-size="52.0" fill="#8D908B" transform="matrix(1.00, 0.00, -0.00, -1.00, 148.2, 463.3)">t</text><text xml:space="preserve" font-family="Courier-Bold,Courier" font-weight="bold" font-size="52.0" fill="#8D908B" transform="matrix(1.00, 0.00, -0.00, -1.00, 179.4, 463.3)">t</text><text xml:space="preserve" font-family="Courier-Bold,Courier" font-weight="bold" font-size="52.0" fill="#8D908B" transform="matrix(1.00, 0.00, -0.00, -1.00, 210.6, 463.3)">p</text><text xml:space="preserve" font-family="Courier-Bold,Courier" font-weight="bold" font-size="52.0" fill="#8D908B" transform="matrix(1.00, 0.00, -0.00, -1.00, 241.8, 463.3)">2</text><text xml:space="preserve" font-family="Courier-Bold,Courier" font-weight="bold" font-size="52.0" fill="#8D908B" transform="matrix(1.00, 0.00, -0.00, -1.00, 273.0, 463.3)">_</text><text xml:space="preserve" font-family="Courier-Bold,Courier" font-weight="bold" font-size="52.0" fill="#8D908B" transform="matrix(1.00, 0.00, -0.00, -1.00, 304.2, 463.3)">f</text><text xml:space="preserve" font-family="Courier-Bold,Courier" font-weight="bold" font-size="52.0" fill="#8D908B" transform="matrix(1.00, 0.00, -0.00, -1.00, 335.4, 463.3)">r</text><text xml:space="preserve" font-family="Courier-Bold,Courier" font-weight="bold" font-size="52.0" fill="#8D908B" transform="matrix(1.00, 0.00, -0.00, -1.00, 366.6, 463.3)">a</text><text xml:space="preserve" font-family="Courier-Bold,Courier" font-weight="bold" font-size="52.0" fill="#8D908B" transform="matrix(1.00, 0.00, -0.00, -1.00, 397.9, 463.3)">m</text><text xml:space="preserve" font-family="Courier-Bold,Courier" font-weight="bold" font-size="52.0" fill="#8D908B" transform="matrix(1.00, 0.00, -0.00, -1.00, 429.1, 463.3)">e</text><text xml:space="preserve" font-family="Courier-Bold,Courier" font-weight="bold" font-size="52.0" fill="#8D908B" transform="matrix(1.00, 0.00, -0.00, -1.00, 460.3, 463.3)">:</text><text xml:space="preserve" font-family="Courier-Bold,Courier" font-weight="bold" font-size="52.0" fill="#8D908B" transform="matrix(1.00, 0.00, -0.00, -1.00, 491.5, 463.3)">r</text><text xml:space="preserve" font-family="Courier-Bold,Courier" font-weight="bold" font-size="52.0" fill="#8D908B" transform="matrix(1.00, 0.00, -0.00, -1.00, 522.7, 463.3)">e</text><text xml:space="preserve" font-family="Courier-Bold,Courier" font-weight="bold" font-size="52.0" fill="#8D908B" transform="matrix(1.00, 0.00, -0.00, -1.00, 553.9, 463.3)">a</text><text xml:space="preserve" font-family="Courier-Bold,Courier" font-weight="bold" font-size="52.0" fill="#8D908B" transform="matrix(1.00, 0.00, -0.00, -1.00, 585.1, 463.3)">d</text><text xml:space="preserve" font-family="Courier-Bold,Courier" font-weight="bold" font-size="52.0" fill="#8D908B" transform="matrix(1.00, 0.00, -0.00, -1.00, 616.3, 463.3)">_</text><text xml:space="preserve" font-family="Courier-Bold,Courier" font-weight="bold" font-size="52.0" fill="#8D908B" transform="matrix(1.00, 0.00, -0.00, -1.00, 647.5, 463.3)">b</text><text xml:space="preserve" font-family="Courier-Bold,Courier" font-weight="bold" font-size="52.0" fill="#8D908B" transform="matrix(1.00, 0.00, -0.00, -1.00, 678.7, 463.3)">i</text><text xml:space="preserve" font-family="Courier-Bold,Courier" font-weight="bold" font-size="52.0" fill="#8D908B" transform="matrix(1.00, 0.00, -0.00, -1.00, 710.0, 463.3)">n</text><text xml:space="preserve" font-family="Courier-Bold,Courier" font-weight="bold" font-size="52.0" fill="#8D908B" transform="matrix(1.00, 0.00, -0.00, -1.00, 741.2, 463.3)">a</text><text xml:space="preserve" font-family="Courier-Bold,Courier" font-weight="bold" font-size="52.0" fill="#8D908B" transform="matrix(1.00, 0.00, -0.00, -1.00, 772.4, 463.3)">r</text><text xml:space="preserve" font-family="Courier-Bold,Courier" font-weight="bold" font-size="52.0" fill="#8D908B" transform="matrix(1.00, 0.00, -0.00, -1.00, 803.6, 463.3)">y</text><text xml:space="preserve" font-family="Courier-Bold,Courier" font-weight="bold" font-size="52.0" fill="#8D908B" transform="matrix(1.00, 0.00, -0.00, -1.00, 834.8, 463.3)">_</text><text xml:space="preserve" font-family="Courier-Bold,Courier" font-weight="bold" font-size="52.0" fill="#8D908B" transform="matrix(1.00, 0.00, -0.00, -1.00, 866.0, 463.3)">f</text><text xml:space="preserve" font-family="Courier-Bold,Courier" font-weight="bold" font-size="52.0" fill="#8D908B" transform="matrix(1.00, 0.00, -0.00, -1.00, 897.2, 463.3)">r</text><text xml:space="preserve" font-family="Courier-Bold,Courier" font-weight="bold" font-size="52.0" fill="#8D908B" transform="matrix(1.00, 0.00, -0.00, -1.00, 928.4, 463.3)">a</text><text xml:space="preserve" font-family="Courier-Bold,Courier" font-weight="bold" font-size="52.0" fill="#8D908B" transform="matrix(1.00, 0.00, -0.00, -1.00, 959.6, 463.3)">m</text><text xml:space="preserve" font-family="Courier-Bold,Courier" font-weight="bold" font-size="52.0" fill="#8D908B" transform="matrix(1.00, 0.00, -0.00, -1.00, 990.9, 463.3)">e</text><text xml:space="preserve" font-family="Courier-Bold,Courier" font-weight="bold" font-size="52.0" fill="#8D908B" transform="matrix(1.00, 0.00, -0.00, -1.00, 1022.1, 463.3)">_</text><text xml:space="preserve" font-family="Courier-Bold,Courier" font-weight="bold" font-size="52.0" fill="#8D908B" transform="matrix(1.00, 0.00, -0.00, -1.00, 1053.3, 463.3)">h</text><text xml:space="preserve" font-family="Courier-Bold,Courier" font-weight="bold" font-size="52.0" fill="#8D908B" transform="matrix(1.00, 0.00, -0.00, -1.00, 1084.5, 463.3)">e</text><text xml:space="preserve" font-family="Courier-Bold,Courier" font-weight="bold" font-size="52.0" fill="#8D908B" transform="matrix(1.00, 0.00, -0.00, -1.00, 1115.7, 463.3)">a</text><text xml:space="preserve" font-family="Courier-Bold,Courier" font-weight="bold" font-size="52.0" fill="#8D908B" transform="matrix(1.00, 0.00, -0.00, -1.00, 1146.9, 463.3)">d</text><text xml:space="preserve" font-family="Courier-Bold,Courier" font-weight="bold" font-size="52.0" fill="#8D908B" transform="matrix(1.00, 0.00, -0.00, -1.00, 1178.1, 463.3)">e</text><text xml:space="preserve" font-family="Courier-Bold,Courier" font-weight="bold" font-size="52.0" fill="#8D908B" transform="matrix(1.00, 0.00, -0.00, -1.00, 1209.3, 463.3)">r</text><text xml:space="preserve" font-family="Courier-Bold,Courier" font-weight="bold" font-size="52.0" fill="#8D908B" transform="matrix(1.00, 0.00, -0.00, -1.00, 1240.5, 463.3)">(</text><text xml:space="preserve" font-family="Courier-Bold,Courier" font-weight="bold" font-size="52.0" fill="#8D908B" transform="matrix(1.00, 0.00, -0.00, -1.00, 1271.7, 463.3)">F</text><text xml:space="preserve" font-family="Courier-Bold,Courier" font-weight="bold" font-size="52.0" fill="#8D908B" transform="matrix(1.00, 0.00, -0.00, -1.00, 1303.0, 463.3)">r</text><text xml:space="preserve" font-family="Courier-Bold,Courier" font-weight="bold" font-size="52.0" fill="#8D908B" transform="matrix(1.00, 0.00, -0.00, -1.00, 1334.2, 463.3)">a</text><text xml:space="preserve" font-family="Courier-Bold,Courier" font-weight="bold" font-size="52.0" fill="#8D908B" transform="matrix(1.00, 0.00, -0.00, -1.00, 1365.4, 463.3)">m</text><text xml:space="preserve" font-family="Courier-Bold,Courier" font-weight="bold" font-size="52.0" fill="#8D908B" transform="matrix(1.00, 0.00, -0.00, -1.00, 1396.6, 463.3)">e</text><text xml:space="preserve" font-family="Courier-Bold,Courier" font-weight="bold" font-size="52.0" fill="#8D908B" transform="matrix(1.00, 0.00, -0.00, -1.00, 1427.8, 463.3)">H</text><text xml:space="preserve" font-family="Courier-Bold,Courier" font-weight="bold" font-size="52.0" fill="#8D908B" transform="matrix(1.00, 0.00, -0.00, -1.00, 1459.0, 463.3)">e</text><text xml:space="preserve" font-family="Courier-Bold,Courier" font-weight="bold" font-size="52.0" fill="#8D908B" transform="matrix(1.00, 0.00, -0.00, -1.00, 1490.2, 463.3)">a</text><text xml:space="preserve" font-family="Courier-Bold,Courier" font-weight="bold" font-size="52.0" fill="#8D908B" transform="matrix(1.00, 0.00, -0.00, -1.00, 1521.4, 463.3)">d</text><text xml:space="preserve" font-family="Courier-Bold,Courier" font-weight="bold" font-size="52.0" fill="#8D908B" transform="matrix(1.00, 0.00, -0.00, -1.00, 1552.6, 463.3)">e</text><text xml:space="preserve" font-family="Courier-Bold,Courier" font-weight="bold" font-size="52.0" fill="#8D908B" transform="matrix(1.00, 0.00, -0.00, -1.00, 1583.8, 463.3)">r</text><text xml:space="preserve" font-family="Courier-Bold,Courier" font-weight="bold" font-size="52.0" fill="#8D908B" transform="matrix(1.00, 0.00, -0.00, -1.00, 1615.1, 463.3)">B</text><text xml:space="preserve" font-family="Courier-Bold,Courier" font-weight="bold" font-size="52.0" fill="#8D908B" transform="matrix(1.00, 0.00, -0.00, -1.00, 1646.3, 463.3)">i</text><text xml:space="preserve" font-family="Courier-Bold,Courier" font-weight="bold" font-size="52.0" fill="#8D908B" transform="matrix(1.00, 0.00, -0.00, -1.00, 1677.5, 463.3)">n</text><text xml:space="preserve" font-family="Courier-Bold,Courier" font-weight="bold" font-size="52.0" fill="#8D908B" transform="matrix(1.00, 0.00, -0.00, -1.00, 1708.7, 463.3)">)</text><text xml:space="preserve" font-family="Courier-Bold,Courier" font-weight="bold" font-size="52.0" fill="#8D908B" transform="matrix(1.00, 0.00, -0.00, -1.00, 1739.9, 463.3)">,</text><text xml:space="preserve" font-family="Courier-Bold,Courier" font-weight="bold" font-size="52.0" fill="#000000" transform="matrix(1.00, 0.00, -0.00, -1.00, 54.6, 339.3)">{</text><text xml:space="preserve" font-family="Courier-Bold,Courier" font-weight="bold" font-size="52.0" fill="#000000" transform="matrix(1.00, 0.00, -0.00, -1.00, 85.8, 339.3)">o</text><text xml:space="preserve" font-family="Courier-Bold,Courier" font-weight="bold" font-size="52.0" fill="#000000" transform="matrix(1.00, 0.00, -0.00, -1.00, 117.0, 339.3)">k</text><text xml:space="preserve" font-family="Courier-Bold,Courier" font-weight="bold" font-size="52.0" fill="#000000" transform="matrix(1.00, 0.00, -0.00, -1.00, 148.2, 339.3)">,</text><text xml:space="preserve" font-family="Courier-Bold,Courier" font-weight="bold" font-size="52.0" fill="#000000" transform="matrix(1.00, 0.00, -0.00, -1.00, 179.4, 339.3)"> </text><text xml:space="preserve" font-family="Courier-Bold,Courier" font-weight="bold" font-size="52.0" fill="#EAB600" transform="matrix(1.00, 0.00, -0.00, -1.00, 210.6, 339.3)">F</text><text xml:space="preserve" font-family="Courier-Bold,Courier" font-weight="bold" font-size="52.0" fill="#EAB600" transform="matrix(1.00, 0.00, -0.00, -1.00, 241.8, 339.3)">r</text><text xml:space="preserve" font-family="Courier-Bold,Courier" font-weight="bold" font-size="52.0" fill="#EAB600" transform="matrix(1.00, 0.00, -0.00, -1.00, 273.0, 339.3)">a</text><text xml:space="preserve" font-family="Courier-Bold,Courier" font-weight="bold" font-size="52.0" fill="#EAB600" transform="matrix(1.00, 0.00, -0.00, -1.00, 304.2, 339.3)">m</text><text xml:space="preserve" font-family="Courier-Bold,Courier" font-weight="bold" font-size="52.0" fill="#EAB600" transform="matrix(1.00, 0.00, -0.00, -1.00, 335.4, 339.3)">e</text><text xml:space="preserve" font-family="Courier-Bold,Courier" font-weight="bold" font-size="52.0" fill="#EAB600" transform="matrix(1.00, 0.00, -0.00, -1.00, 366.6, 339.3)">P</text><text xml:space="preserve" font-family="Courier-Bold,Courier" font-weight="bold" font-size="52.0" fill="#EAB600" transform="matrix(1.00, 0.00, -0.00, -1.00, 397.8, 339.3)">a</text><text xml:space="preserve" font-family="Courier-Bold,Courier" font-weight="bold" font-size="52.0" fill="#EAB600" transform="matrix(1.00, 0.00, -0.00, -1.00, 429.1, 339.3)">y</text><text xml:space="preserve" font-family="Courier-Bold,Courier" font-weight="bold" font-size="52.0" fill="#EAB600" transform="matrix(1.00, 0.00, -0.00, -1.00, 460.3, 339.3)">l</text><text xml:space="preserve" font-family="Courier-Bold,Courier" font-weight="bold" font-size="52.0" fill="#EAB600" transform="matrix(1.00, 0.00, -0.00, -1.00, 491.5, 339.3)">o</text><text xml:space="preserve" font-family="Courier-Bold,Courier" font-weight="bold" font-size="52.0" fill="#EAB600" transform="matrix(1.00, 0.00, -0.00, -1.00, 522.7, 339.3)">a</text><text xml:space="preserve" font-family="Courier-Bold,Courier" font-weight="bold" font-size="52.0" fill="#EAB600" transform="matrix(1.00, 0.00, -0.00, -1.00, 553.9, 339.3)">d</text><text xml:space="preserve" font-family="Courier-Bold,Courier" font-weight="bold" font-size="52.0" fill="#EAB600" transform="matrix(1.00, 0.00, -0.00, -1.00, 585.1, 339.3)">B</text><text xml:space="preserve" font-family="Courier-Bold,Courier" font-weight="bold" font-size="52.0" fill="#EAB600" transform="matrix(1.00, 0.00, -0.00, -1.00, 616.3, 339.3)">i</text><text xml:space="preserve" font-family="Courier-Bold,Courier" font-weight="bold" font-size="52.0" fill="#EAB600" transform="matrix(1.00, 0.00, -0.00, -1.00, 647.5, 339.3)">n</text><text xml:space="preserve" font-family="Courier-Bold,Courier" font-weight="bold" font-size="52.0" fill="#000000" transform="matrix(1.00, 0.00, -0.00, -1.00, 678.7, 339.3)">}</text><text xml:space="preserve" font-family="Courier-Bold,Courier" font-weight="bold" font-size="52.0" fill="#000000" transform="matrix(1.00, 0.00, -0.00, -1.00, 709.9, 339.3)"> </text><text xml:space="preserve" font-family="Courier-Bold,Courier" font-weight="bold" font-size="52.0" fill="#000000" transform="matrix(1.00, 0.00, -0.00, -1.00, 741.1, 339.3)">=</text><text xml:space="preserve" font-family="Courier-Bold,Courier" font-weight="bold" font-size="52.0" fill="#000000" transform="matrix(1.00, 0.00, -0.00, -1.00, 772.3, 339.3)"> </text><text xml:space="preserve" font-family="Courier-Bold,Courier" font-weight="bold" font-size="52.0" fill="#000000" transform="matrix(1.00, 0.00, -0.00, -1.00, 54.6, 277.3)"> </text><text xml:space="preserve" font-family="Courier-Bold,Courier" font-weight="bold" font-size="52.0" fill="#000000" transform="matrix(1.00, 0.00, -0.00, -1.00, 85.8, 277.3)"> </text><text xml:space="preserve" font-family="Courier-Bold,Courier" font-weight="bold" font-size="52.0" fill="#EAB600" transform="matrix(1.00, 0.00, -0.00, -1.00, 117.0, 277.3)">T</text><text xml:space="preserve" font-family="Courier-Bold,Courier" font-weight="bold" font-size="52.0" fill="#EAB600" transform="matrix(1.00, 0.00, -0.00, -1.00, 148.2, 277.3)">r</text><text xml:space="preserve" font-family="Courier-Bold,Courier" font-weight="bold" font-size="52.0" fill="#EAB600" transform="matrix(1.00, 0.00, -0.00, -1.00, 179.4, 277.3)">a</text><text xml:space="preserve" font-family="Courier-Bold,Courier" font-weight="bold" font-size="52.0" fill="#EAB600" transform="matrix(1.00, 0.00, -0.00, -1.00, 210.6, 277.3)">n</text><text xml:space="preserve" font-family="Courier-Bold,Courier" font-weight="bold" font-size="52.0" fill="#EAB600" transform="matrix(1.00, 0.00, -0.00, -1.00, 241.8, 277.3)">s</text><text xml:space="preserve" font-family="Courier-Bold,Courier" font-weight="bold" font-size="52.0" fill="#EAB600" transform="matrix(1.00, 0.00, -0.00, -1.00, 273.0, 277.3)">p</text><text xml:space="preserve" font-family="Courier-Bold,Courier" font-weight="bold" font-size="52.0" fill="#EAB600" transform="matrix(1.00, 0.00, -0.00, -1.00, 304.2, 277.3)">o</text><text xml:space="preserve" font-family="Courier-Bold,Courier" font-weight="bold" font-size="52.0" fill="#EAB600" transform="matrix(1.00, 0.00, -0.00, -1.00, 335.4, 277.3)">r</text><text xml:space="preserve" font-family="Courier-Bold,Courier" font-weight="bold" font-size="52.0" fill="#EAB600" transform="matrix(1.00, 0.00, -0.00, -1.00, 366.6, 277.3)">t</text><text xml:space="preserve" font-family="Courier-Bold,Courier" font-weight="bold" font-size="52.0" fill="#000000" transform="matrix(1.00, 0.00, -0.00, -1.00, 397.8, 277.3)">:</text><text xml:space="preserve" font-family="Courier-Bold,Courier" font-weight="bold" font-size="52.0" fill="#4271AE" transform="matrix(1.00, 0.00, -0.00, -1.00, 429.0, 277.3)">r</text><text xml:space="preserve" font-family="Courier-Bold,Courier" font-weight="bold" font-size="52.0" fill="#4271AE" transform="matrix(1.00, 0.00, -0.00, -1.00, 460.2, 277.3)">e</text><text xml:space="preserve" font-family="Courier-Bold,Courier" font-weight="bold" font-size="52.0" fill="#4271AE" transform="matrix(1.00, 0.00, -0.00, -1.00, 491.4, 277.3)">c</text><text xml:space="preserve" font-family="Courier-Bold,Courier" font-weight="bold" font-size="52.0" fill="#4271AE" transform="matrix(1.00, 0.00, -0.00, -1.00, 522.6, 277.3)">v</text><text xml:space="preserve" font-family="Courier-Bold,Courier" font-weight="bold" font-size="52.0" fill="#000000" transform="matrix(1.00, 0.00, -0.00, -1.00, 553.8, 277.3)">(</text><text xml:space="preserve" font-family="Courier-Bold,Courier" font-weight="bold" font-size="52.0" fill="#EAB600" transform="matrix(1.00, 0.00, -0.00, -1.00, 585.0, 277.3)">S</text><text xml:space="preserve" font-family="Courier-Bold,Courier" font-weight="bold" font-size="52.0" fill="#EAB600" transform="matrix(1.00, 0.00, -0.00, -1.00, 616.2, 277.3)">o</text><text xml:space="preserve" font-family="Courier-Bold,Courier" font-weight="bold" font-size="52.0" fill="#EAB600" transform="matrix(1.00, 0.00, -0.00, -1.00, 647.5, 277.3)">c</text><text xml:space="preserve" font-family="Courier-Bold,Courier" font-weight="bold" font-size="52.0" fill="#EAB600" transform="matrix(1.00, 0.00, -0.00, -1.00, 678.7, 277.3)">k</text><text xml:space="preserve" font-family="Courier-Bold,Courier" font-weight="bold" font-size="52.0" fill="#EAB600" transform="matrix(1.00, 0.00, -0.00, -1.00, 709.9, 277.3)">e</text><text xml:space="preserve" font-family="Courier-Bold,Courier" font-weight="bold" font-size="52.0" fill="#EAB600" transform="matrix(1.00, 0.00, -0.00, -1.00, 741.1, 277.3)">t</text><text xml:space="preserve" font-family="Courier-Bold,Courier" font-weight="bold" font-size="52.0" fill="#000000" transform="matrix(1.00, 0.00, -0.00, -1.00, 772.3, 277.3)">,</text><text xml:space="preserve" font-family="Courier-Bold,Courier" font-weight="bold" font-size="52.0" fill="#000000" transform="matrix(1.00, 0.00, -0.00, -1.00, 803.5, 277.3)"> </text><text xml:space="preserve" font-family="Courier-Bold,Courier" font-weight="bold" font-size="52.0" fill="#EAB600" transform="matrix(1.00, 0.00, -0.00, -1.00, 834.7, 277.3)">F</text><text xml:space="preserve" font-family="Courier-Bold,Courier" font-weight="bold" font-size="52.0" fill="#EAB600" transform="matrix(1.00, 0.00, -0.00, -1.00, 865.9, 277.3)">r</text><text xml:space="preserve" font-family="Courier-Bold,Courier" font-weight="bold" font-size="52.0" fill="#EAB600" transform="matrix(1.00, 0.00, -0.00, -1.00, 897.1, 277.3)">a</text><text xml:space="preserve" font-family="Courier-Bold,Courier" font-weight="bold" font-size="52.0" fill="#EAB600" transform="matrix(1.00, 0.00, -0.00, -1.00, 928.3, 277.3)">m</text><text xml:space="preserve" font-family="Courier-Bold,Courier" font-weight="bold" font-size="52.0" fill="#EAB600" transform="matrix(1.00, 0.00, -0.00, -1.00, 959.5, 277.3)">e</text><text xml:space="preserve" font-family="Courier-Bold,Courier" font-weight="bold" font-size="52.0" fill="#EAB600" transform="matrix(1.00, 0.00, -0.00, -1.00, 990.7, 277.3)">H</text><text xml:space="preserve" font-family="Courier-Bold,Courier" font-weight="bold" font-size="52.0" fill="#EAB600" transform="matrix(1.00, 0.00, -0.00, -1.00, 1021.9, 277.3)">e</text><text xml:space="preserve" font-family="Courier-Bold,Courier" font-weight="bold" font-size="52.0" fill="#EAB600" transform="matrix(1.00, 0.00, -0.00, -1.00, 1053.2, 277.3)">a</text><text xml:space="preserve" font-family="Courier-Bold,Courier" font-weight="bold" font-size="52.0" fill="#EAB600" transform="matrix(1.00, 0.00, -0.00, -1.00, 1084.4, 277.3)">d</text><text xml:space="preserve" font-family="Courier-Bold,Courier" font-weight="bold" font-size="52.0" fill="#EAB600" transform="matrix(1.00, 0.00, -0.00, -1.00, 1115.6, 277.3)">e</text><text xml:space="preserve" font-family="Courier-Bold,Courier" font-weight="bold" font-size="52.0" fill="#EAB600" transform="matrix(1.00, 0.00, -0.00, -1.00, 1146.8, 277.3)">r</text><text xml:space="preserve" font-family="Courier-Bold,Courier" font-weight="bold" font-size="52.0" fill="#000000" transform="matrix(1.00, 0.00, -0.00, -1.00, 1177.9, 277.3)">#</text><text xml:space="preserve" font-family="Courier-Bold,Courier" font-weight="bold" font-size="52.0" fill="#4271AE" transform="matrix(1.00, 0.00, -0.00, -1.00, 1209.1, 277.3)">f</text><text xml:space="preserve" font-family="Courier-Bold,Courier" font-weight="bold" font-size="52.0" fill="#4271AE" transform="matrix(1.00, 0.00, -0.00, -1.00, 1240.4, 277.3)">r</text><text xml:space="preserve" font-family="Courier-Bold,Courier" font-weight="bold" font-size="52.0" fill="#4271AE" transform="matrix(1.00, 0.00, -0.00, -1.00, 1271.6, 277.3)">a</text><text xml:space="preserve" font-family="Courier-Bold,Courier" font-weight="bold" font-size="52.0" fill="#4271AE" transform="matrix(1.00, 0.00, -0.00, -1.00, 1302.8, 277.3)">m</text><text xml:space="preserve" font-family="Courier-Bold,Courier" font-weight="bold" font-size="52.0" fill="#4271AE" transform="matrix(1.00, 0.00, -0.00, -1.00, 1334.0, 277.3)">e</text><text xml:space="preserve" font-family="Courier-Bold,Courier" font-weight="bold" font-size="52.0" fill="#4271AE" transform="matrix(1.00, 0.00, -0.00, -1.00, 1365.2, 277.3)">_</text><text xml:space="preserve" font-family="Courier-Bold,Courier" font-weight="bold" font-size="52.0" fill="#4271AE" transform="matrix(1.00, 0.00, -0.00, -1.00, 1396.4, 277.3)">h</text><text xml:space="preserve" font-family="Courier-Bold,Courier" font-weight="bold" font-size="52.0" fill="#4271AE" transform="matrix(1.00, 0.00, -0.00, -1.00, 1427.6, 277.3)">e</text><text xml:space="preserve" font-family="Courier-Bold,Courier" font-weight="bold" font-size="52.0" fill="#4271AE" transform="matrix(1.00, 0.00, -0.00, -1.00, 1458.8, 277.3)">a</text><text xml:space="preserve" font-family="Courier-Bold,Courier" font-weight="bold" font-size="52.0" fill="#4271AE" transform="matrix(1.00, 0.00, -0.00, -1.00, 1490.0, 277.3)">d</text><text xml:space="preserve" font-family="Courier-Bold,Courier" font-weight="bold" font-size="52.0" fill="#4271AE" transform="matrix(1.00, 0.00, -0.00, -1.00, 1521.2, 277.3)">e</text><text xml:space="preserve" font-family="Courier-Bold,Courier" font-weight="bold" font-size="52.0" fill="#4271AE" transform="matrix(1.00, 0.00, -0.00, -1.00, 1552.5, 277.3)">r</text><text xml:space="preserve" font-family="Courier-Bold,Courier" font-weight="bold" font-size="52.0" fill="#000000" transform="matrix(1.00, 0.00, -0.00, -1.00, 1583.6, 277.3)">.</text><text xml:space="preserve" font-family="Courier-Bold,Courier" font-weight="bold" font-size="52.0" fill="#000000" transform="matrix(1.00, 0.00, -0.00, -1.00, 1614.8, 277.3)">l</text><text xml:space="preserve" font-family="Courier-Bold,Courier" font-weight="bold" font-size="52.0" fill="#000000" transform="matrix(1.00, 0.00, -0.00, -1.00, 1646.0, 277.3)">e</text><text xml:space="preserve" font-family="Courier-Bold,Courier" font-weight="bold" font-size="52.0" fill="#000000" transform="matrix(1.00, 0.00, -0.00, -1.00, 1677.2, 277.3)">n</text><text xml:space="preserve" font-family="Courier-Bold,Courier" font-weight="bold" font-size="52.0" fill="#000000" transform="matrix(1.00, 0.00, -0.00, -1.00, 1708.4, 277.3)">g</text><text xml:space="preserve" font-family="Courier-Bold,Courier" font-weight="bold" font-size="52.0" fill="#000000" transform="matrix(1.00, 0.00, -0.00, -1.00, 1739.7, 277.3)">t</text><text xml:space="preserve" font-family="Courier-Bold,Courier" font-weight="bold" font-size="52.0" fill="#000000" transform="matrix(1.00, 0.00, -0.00, -1.00, 1770.9, 277.3)">h</text><text xml:space="preserve" font-family="Courier-Bold,Courier" font-weight="bold" font-size="52.0" fill="#000000" transform="matrix(1.00, 0.00, -0.00, -1.00, 1802.1, 277.3)">)</text><text xml:space="preserve" font-family="Courier-Bold,Courier" font-weight="bold" font-size="52.0" fill="#000000" transform="matrix(1.00, 0.00, -0.00, -1.00, 1833.3, 277.3)">,</text></g></svg>