<?xml version="1.0" encoding="UTF-8" standalone="no"?><svg xmlns="http://www.w3.org/2000/svg" xmlns:xlink="http://www.w3.org/1999/xlink" clip-rule="evenodd" stroke-miterlimit="10" viewBox="0 0 1803 423"><desc>SVG generated by Keynote</desc><defs></defs><g transform="matrix(1.00, 0.00, -0.00, -1.00, 0.0, 423.0)"><text xml:space="preserve" font-family="Courier-Bold,Courier" font-weight="bold" font-size="52.0" fill="#000000" transform="matrix(1.00, 0.00, -0.00, -1.00, 1.6, 386.3)">{</text><text xml:space="preserve" font-family="Courier-Bold,Courier" font-weight="bold" font-size="52.0" fill="#000000" transform="matrix(1.00, 0.00, -0.00, -1.00, 32.8, 386.3)">o</text><text xml:space="preserve" font-family="Courier-Bold,Courier" font-weight="bold" font-size="52.0" fill="#000000" transform="matrix(1.00, 0.00, -0.00, -1.00, 64.0, 386.3)">k</text><text xml:space="preserve" font-family="Courier-Bold,Courier" font-weight="bold" font-size="52.0" fill="#000000" transform="matrix(1.00, 0.00, -0.00, -1.00, 95.2, 386.3)">,</text><text xml:space="preserve" font-family="Courier-Bold,Courier" font-weight="bold" font-size="52.0" fill="#000000" transform="matrix(1.00, 0.00, -0.00, -1.00, 126.4, 386.3)"> </text><text xml:space="preserve" font-family="Courier-Bold,Courier" font-weight="bold" font-size="52.0" fill="#EAB600" transform="matrix(1.00, 0.00, -0.00, -1.00, 157.6, 386.3)">F</text><text xml:space="preserve" font-family="Courier-Bold,Courier" font-weight="bold" font-size="52.0" fill="#EAB600" transform="matrix(1.00, 0.00, -0.00, -1.00, 188.8, 386.3)">r</text><text xml:space="preserve" font-family="Courier-Bold,Courier" font-weight="bold" font-size="52.0" fill="#EAB600" transform="matrix(1.00, 0.00, -0.00, -1.00, 220.0, 386.3)">a</text><text xml:space="preserve" font-family="Courier-Bold,Courier" font-weight="bold" font-size="52.0" fill="#EAB600" transform="matrix(1.00, 0.00, -0.00, -1.00, 251.2, 386.3)">m</text><text xml:space="preserve" font-family="Courier-Bold,Courier" font-weight="bold" font-size="52.0" fill="#EAB600" transform="matrix(1.00, 0.00, -0.00, -1.00, 282.4, 386.3)">e</text><text xml:space="preserve" font-family="Courier-Bold,Courier" font-weight="bold" font-size="52.0" fill="#EAB600" transform="matrix(1.00, 0.00, -0.00, -1.00, 313.6, 386.3)">H</text><text xml:space="preserve" font-family="Courier-Bold,Courier" font-weight="bold" font-size="52.0" fill="#EAB600" transform="matrix(1.00, 0.00, -0.00, -1.00, 344.8, 386.3)">e</text><text xml:space="preserve" font-family="Courier-Bold,Courier" font-weight="bold" font-size="52.0" fill="#EAB600" transform="matrix(1.00, 0.00, -0.00, -1.00, 376.1, 386.3)">a</text><text xml:space="preserve" font-family="Courier-Bold,Courier" font-weight="bold" font-size="52.0" fill="#EAB600" transform="matrix(1.00, 0.00, -0.00, -1.00, 407.3, 386.3)">d</text><text xml:space="preserve" font-family="Courier-Bold,Courier" font-weight="bold" font-size="52.0" fill="#EAB600" transform="matrix(1.00, 0.00, -0.00, -1.00, 438.5, 386.3)">e</text><text xml:space="preserve" font-family="Courier-Bold,Courier" font-weight="bold" font-size="52.0" fill="#EAB600" transform="matrix(1.00, 0.00, -0.00, -1.00, 469.7, 386.3)">r</text><text xml:space="preserve" font-family="Courier-Bold,Courier" font-weight="bold" font-size="52.0" fill="#EAB600" transform="matrix(1.00, 0.00, -0.00, -1.00, 500.9, 386.3)">B</text><text xml:space="preserve" font-family="Courier-Bold,Courier" font-weight="bold" font-size="52.0" fill="#EAB600" transform="matrix(1.00, 0.00, -0.00, -1.00, 532.1, 386.3)">i</text><text xml:space="preserve" font-family="Courier-Bold,Courier" font-weight="bold" font-size="52.0" fill="#EAB600" transform="matrix(1.00, 0.00, -0.00, -1.00, 563.3, 386.3)">n</text><text xml:space="preserve" font-family="Courier-Bold,Courier" font-weight="bold" font-size="52.0" fill="#000000" transform="matrix(1.00, 0.00, -0.00, -1.00, 594.4, 386.3)">}</text><text xml:space="preserve" font-family="Courier-Bold,Courier" font-weight="bold" font-size="52.0" fill="#000000" transform="matrix(1.00, 0.00, -0.00, -1.00, 625.7, 386.3)"> </text><text xml:space="preserve" font-family="Courier-Bold,Courier" font-weight="bold" font-size="52.0" fill="#000000" transform="matrix(1.00, 0.00, -0.00, -1.00, 656.9, 386.3)">=</text><text xml:space="preserve" font-family="Courier-Bold,Courier" font-weight="bold" font-size="52.0" fill="#000000" transform="matrix(1.00, 0.00, -0.00, -1.00, 688.1, 386.3)"> </text><text xml:space="preserve" font-family="Courier-Bold,Courier" font-weight="bold" font-size="52.0" fill="#EAB600" transform="matrix(1.00, 0.00, -0.00, -1.00, 719.3, 386.3)">T</text><text xml:space="preserve" font-family="Courier-Bold,Courier" font-weight="bold" font-size="52.0" fill="#EAB600" transform="matrix(1.00, 0.00, -0.00, -1.00, 750.5, 386.3)">r</text><text xml:space="preserve" font-family="Courier-Bold,Courier" font-weight="bold" font-size="52.0" fill="#EAB600" transform="matrix(1.00, 0.00, -0.00, -1.00, 781.7, 386.3)">a</text><text xml:space="preserve" font-family="Courier-Bold,Courier" font-weight="bold" font-size="52.0" fill="#EAB600" transform="matrix(1.00, 0.00, -0.00, -1.00, 812.9, 386.3)">n</text><text xml:space="preserve" font-family="Courier-Bold,Courier" font-weight="bold" font-size="52.0" fill="#EAB600" transform="matrix(1.00, 0.00, -0.00, -1.00, 844.1, 386.3)">s</text><text xml:space="preserve" font-family="Courier-Bold,Courier" font-weight="bold" font-size="52.0" fill="#EAB600" transform="matrix(1.00, 0.00, -0.00, -1.00, 875.3, 386.3)">p</text><text xml:space="preserve" font-family="Courier-Bold,Courier" font-weight="bold" font-size="52.0" fill="#EAB600" transform="matrix(1.00, 0.00, -0.00, -1.00, 906.5, 386.3)">o</text><text xml:space="preserve" font-family="Courier-Bold,Courier" font-weight="bold" font-size="52.0" fill="#EAB600" transform="matrix(1.00, 0.00, -0.00, -1.00, 937.7, 386.3)">r</text><text xml:space="preserve" font-family="Courier-Bold,Courier" font-weight="bold" font-size="52.0" fill="#EAB600" transform="matrix(1.00, 0.00, -0.00, -1.00, 969.0, 386.3)">t</text><text xml:space="preserve" font-family="Courier-Bold,Courier" font-weight="bold" font-size="52.0" fill="#000000" transform="matrix(1.00, 0.00, -0.00, -1.00, 1000.1, 386.3)">:</text><text xml:space="preserve" font-family="Courier-Bold,Courier" font-weight="bold" font-size="52.0" fill="#4271AE" transform="matrix(1.00, 0.00, -0.00, -1.00, 1031.3, 386.3)">r</text><text xml:space="preserve" font-family="Courier-Bold,Courier" font-weight="bold" font-size="52.0" fill="#4271AE" transform="matrix(1.00, 0.00, -0.00, -1.00, 1062.5, 386.3)">e</text><text xml:space="preserve" font-family="Courier-Bold,Courier" font-weight="bold" font-size="52.0" fill="#4271AE" transform="matrix(1.00, 0.00, -0.00, -1.00, 1093.7, 386.3)">c</text><text xml:space="preserve" font-family="Courier-Bold,Courier" font-weight="bold" font-size="52.0" fill="#4271AE" transform="matrix(1.00, 0.00, -0.00, -1.00, 1125.0, 386.3)">v</text><text xml:space="preserve" font-family="Courier-Bold,Courier" font-weight="bold" font-size="52.0" fill="#000000" transform="matrix(1.00, 0.00, -0.00, -1.00, 1156.1, 386.3)">(</text><text xml:space="preserve" font-family="Courier-Bold,Courier" font-weight="bold" font-size="52.0" fill="#EAB600" transform="matrix(1.00, 0.00, -0.00, -1.00, 1187.3, 386.3)">S</text><text xml:space="preserve" font-family="Courier-Bold,Courier" font-weight="bold" font-size="52.0" fill="#EAB600" transform="matrix(1.00, 0.00, -0.00, -1.00, 1218.6, 386.3)">o</text><text xml:space="preserve" font-family="Courier-Bold,Courier" font-weight="bold" font-size="52.0" fill="#EAB600" transform="matrix(1.00, 0.00, -0.00, -1.00, 1249.8, 386.3)">c</text><text xml:space="preserve" font-family="Courier-Bold,Courier" font-weight="bold" font-size="52.0" fill="#EAB600" transform="matrix(1.00, 0.00, -0.00, -1.00, 1281.0, 386.3)">k</text><text xml:space="preserve" font-family="Courier-Bold,Courier" font-weight="bold" font-size="52.0" fill="#EAB600" transform="matrix(1.00, 0.00, -0.00, -1.00, 1312.2, 386.3)">e</text><text xml:space="preserve" font-family="Courier-Bold,Courier" font-weight="bold" font-size="52.0" fill="#EAB600" transform="matrix(1.00, 0.00, -0.00, -1.00, 1343.4, 386.3)">t</text><text xml:space="preserve" font-family="Courier-Bold,Courier" font-weight="bold" font-size="52.0" fill="#000000" transform="matrix(1.00, 0.00, -0.00, -1.00, 1374.6, 386.3)">,</text><text xml:space="preserve" font-family="Courier-Bold,Courier" font-weight="bold" font-size="52.0" fill="#000000" transform="matrix(1.00, 0.00, -0.00, -1.00, 1405.8, 386.3)"> </text><text xml:space="preserve" font-family="Courier-Bold,Courier" font-weight="bold" font-size="52.0" fill="#000000" transform="matrix(1.00, 0.00, -0.00, -1.00, 1437.0, 386.3)">9</text><text xml:space="preserve" font-family="Courier-Bold,Courier" font-weight="bold" font-size="52.0" fill="#000000" transform="matrix(1.00, 0.00, -0.00, -1.00, 1468.2, 386.3)">)</text><text xml:space="preserve" font-family="Courier-Bold,Courier" font-weight="bold" font-size="52.0" fill="#000000" transform="matrix(1.00, 0.00, -0.00, -1.00, 1499.4, 386.3)">,</text><text xml:space="preserve" font-family="Courier-Bold,Courier" font-weight="bold" font-size="52.0" fill="#8D908B" transform="matrix(1.00, 0.00, -0.00, -1.00, 1.6, 262.3)">F</text><text xml:space="preserve" font-family="Courier-Bold,Courier" font-weight="bold" font-size="52.0" fill="#8D908B" transform="matrix(1.00, 0.00, -0.00, -1.00, 32.8, 262.3)">r</text><text xml:space="preserve" font-family="Courier-Bold,Courier" font-weight="bold" font-size="52.0" fill="#8D908B" transform="matrix(1.00, 0.00, -0.00, -1.00, 64.0, 262.3)">a</text><text xml:space="preserve" font-family="Courier-Bold,Courier" font-weight="bold" font-size="52.0" fill="#8D908B" transform="matrix(1.00, 0.00, -0.00, -1.00, 95.2, 262.3)">m</text><text xml:space="preserve" font-family="Courier-Bold,Courier" font-weight="bold" font-size="52.0" fill="#8D908B" transform="matrix(1.00, 0.00, -0.00, -1.00, 126.4, 262.3)">e</text><text xml:space="preserve" font-family="Courier-Bold,Courier" font-weight="bold" font-size="52.0" fill="#8D908B" transform="matrix(1.00, 0.00, -0.00, -1.00, 157.6, 262.3)">H</text><text xml:space="preserve" font-family="Courier-Bold,Courier" font-weight="bold" font-size="52.0" fill="#8D908B" transform="matrix(1.00, 0.00, -0.00, -1.00, 188.8, 262.3)">e</text><text xml:space="preserve" font-family="Courier-Bold,Courier" font-weight="bold" font-size="52.0" fill="#8D908B" transform="matrix(1.00, 0.00, -0.00, -1.00, 220.0, 262.3)">a</text><text xml:space="preserve" font-family="Courier-Bold,Courier" font-weight="bold" font-size="52.0" fill="#8D908B" transform="matrix(1.00, 0.00, -0.00, -1.00, 251.2, 262.3)">d</text><text xml:space="preserve" font-family="Courier-Bold,Courier" font-weight="bold" font-size="52.0" fill="#8D908B" transform="matrix(1.00, 0.00, -0.00, -1.00, 282.4, 262.3)">e</text><text xml:space="preserve" font-family="Courier-Bold,Courier" font-weight="bold" font-size="52.0" fill="#8D908B" transform="matrix(1.00, 0.00, -0.00, -1.00, 313.7, 262.3)">r</text><text xml:space="preserve" font-family="Courier-Bold,Courier" font-weight="bold" font-size="52.0" fill="#8D908B" transform="matrix(1.00, 0.00, -0.00, -1.00, 344.9, 262.3)"> </text><text xml:space="preserve" font-family="Courier-Bold,Courier" font-weight="bold" font-size="52.0" fill="#8D908B" transform="matrix(1.00, 0.00, -0.00, -1.00, 376.1, 262.3)">=</text><text xml:space="preserve" font-family="Courier-Bold,Courier" font-weight="bold" font-size="52.0" fill="#8D908B" transform="matrix(1.00, 0.00, -0.00, -1.00, 407.3, 262.3)"> </text><text xml:space="preserve" font-family="Courier-Bold,Courier" font-weight="bold" font-size="52.0" fill="#8D908B" transform="matrix(1.00, 0.00, -0.00, -1.00, 1.6, 200.3)"> </text><text xml:space="preserve" font-family="Courier-Bold,Courier" font-weight="bold" font-size="52.0" fill="#8D908B" transform="matrix(1.00, 0.00, -0.00, -1.00, 32.8, 200.3)"> </text><text xml:space="preserve" font-family="Courier-Bold,Courier" font-weight="bold" font-size="52.0" fill="#8D908B" transform="matrix(1.00, 0.00, -0.00, -1.00, 64.0, 200.3)">h</text><text xml:space="preserve" font-family="Courier-Bold,Courier" font-weight="bold" font-size="52.0" fill="#8D908B" transform="matrix(1.00, 0.00, -0.00, -1.00, 95.2, 200.3)">t</text><text xml:space="preserve" font-family="Courier-Bold,Courier" font-weight="bold" font-size="52.0" fill="#8D908B" transform="matrix(1.00, 0.00, -0.00, -1.00, 126.4, 200.3)">t</text><text xml:space="preserve" font-family="Courier-Bold,Courier" font-weight="bold" font-size="52.0" fill="#8D908B" transform="matrix(1.00, 0.00, -0.00, -1.00, 157.6, 200.3)">p</text><text xml:space="preserve" font-family="Courier-Bold,Courier" font-weight="bold" font-size="52.0" fill="#8D908B" transform="matrix(1.00, 0.00, -0.00, -1.00, 188.8, 200.3)">2</text><text xml:space="preserve" font-family="Courier-Bold,Courier" font-weight="bold" font-size="52.0" fill="#8D908B" transform="matrix(1.00, 0.00, -0.00, -1.00, 220.0, 200.3)">_</text><text xml:space="preserve" font-family="Courier-Bold,Courier" font-weight="bold" font-size="52.0" fill="#8D908B" transform="matrix(1.00, 0.00, -0.00, -1.00, 251.2, 200.3)">f</text><text xml:space="preserve" font-family="Courier-Bold,Courier" font-weight="bold" font-size="52.0" fill="#8D908B" transform="matrix(1.00, 0.00, -0.00, -1.00, 282.4, 200.3)">r</text><text xml:space="preserve" font-family="Courier-Bold,Courier" font-weight="bold" font-size="52.0" fill="#8D908B" transform="matrix(1.00, 0.00, -0.00, -1.00, 313.6, 200.3)">a</text><text xml:space="preserve" font-family="Courier-Bold,Courier" font-weight="bold" font-size="52.0" fill="#8D908B" transform="matrix(1.00, 0.00, -0.00, -1.00, 344.9, 200.3)">m</text><text xml:space="preserve" font-family="Courier-Bold,Courier" font-weight="bold" font-size="52.0" fill="#8D908B" transform="matrix(1.00, 0.00, -0.00, -1.00, 376.1, 200.3)">e</text><text xml:space="preserve" font-family="Courier-Bold,Courier" font-weight="bold" font-size="52.0" fill="#8D908B" transform="matrix(1.00, 0.00, -0.00, -1.00, 407.3, 200.3)">:</text><text xml:space="preserve" font-family="Courier-Bold,Courier" font-weight="bold" font-size="52.0" fill="#8D908B" transform="matrix(1.00, 0.00, -0.00, -1.00, 438.5, 200.3)">r</text><text xml:space="preserve" font-family="Courier-Bold,Courier" font-weight="bold" font-size="52.0" fill="#8D908B" transform="matrix(1.00, 0.00, -0.00, -1.00, 469.7, 200.3)">e</text><text xml:space="preserve" font-family="Courier-Bold,Courier" font-weight="bold" font-size="52.0" fill="#8D908B" transform="matrix(1.00, 0.00, -0.00, -1.00, 500.9, 200.3)">a</text><text xml:space="preserve" font-family="Courier-Bold,Courier" font-weight="bold" font-size="52.0" fill="#8D908B" transform="matrix(1.00, 0.00, -0.00, -1.00, 532.1, 200.3)">d</text><text xml:space="preserve" font-family="Courier-Bold,Courier" font-weight="bold" font-size="52.0" fill="#8D908B" transform="matrix(1.00, 0.00, -0.00, -1.00, 563.3, 200.3)">_</text><text xml:space="preserve" font-family="Courier-Bold,Courier" font-weight="bold" font-size="52.0" fill="#8D908B" transform="matrix(1.00, 0.00, -0.00, -1.00, 594.5, 200.3)">b</text><text xml:space="preserve" font-family="Courier-Bold,Courier" font-weight="bold" font-size="52.0" fill="#8D908B" transform="matrix(1.00, 0.00, -0.00, -1.00, 625.7, 200.3)">i</text><text xml:space="preserve" font-family="Courier-Bold,Courier" font-weight="bold" font-size="52.0" fill="#8D908B" transform="matrix(1.00, 0.00, -0.00, -1.00, 657.0, 200.3)">n</text><text xml:space="preserve" font-family="Courier-Bold,Courier" font-weight="bold" font-size="52.0" fill="#8D908B" transform="matrix(1.00, 0.00, -0.00, -1.00, 688.2, 200.3)">a</text><text xml:space="preserve" font-family="Courier-Bold,Courier" font-weight="bold" font-size="52.0" fill="#8D908B" transform="matrix(1.00, 0.00, -0.00, -1.00, 719.4, 200.3)">r</text><text xml:space="preserve" font-family="Courier-Bold,Courier" font-weight="bold" font-size="52.0" fill="#8D908B" transform="matrix(1.00, 0.00, -0.00, -1.00, 750.6, 200.3)">y</text><text xml:space="preserve" font-family="Courier-Bold,Courier" font-weight="bold" font-size="52.0" fill="#8D908B" transform="matrix(1.00, 0.00, -0.00, -1.00, 781.8, 200.3)">_</text><text xml:space="preserve" font-family="Courier-Bold,Courier" font-weight="bold" font-size="52.0" fill="#8D908B" transform="matrix(1.00, 0.00, -0.00, -1.00, 813.0, 200.3)">f</text><text xml:space="preserve" font-family="Courier-Bold,Courier" font-weight="bold" font-size="52.0" fill="#8D908B" transform="matrix(1.00, 0.00, -0.00, -1.00, 844.2, 200.3)">r</text><text xml:space="preserve" font-family="Courier-Bold,Courier" font-weight="bold" font-size="52.0" fill="#8D908B" transform="matrix(1.00, 0.00, -0.00, -1.00, 875.4, 200.3)">a</text><text xml:space="preserve" font-family="Courier-Bold,Courier" font-weight="bold" font-size="52.0" fill="#8D908B" transform="matrix(1.00, 0.00, -0.00, -1.00, 906.6, 200.3)">m</text><text xml:space="preserve" font-family="Courier-Bold,Courier" font-weight="bold" font-size="52.0" fill="#8D908B" transform="matrix(1.00, 0.00, -0.00, -1.00, 937.9, 200.3)">e</text><text xml:space="preserve" font-family="Courier-Bold,Courier" font-weight="bold" font-size="52.0" fill="#8D908B" transform="matrix(1.00, 0.00, -0.00, -1.00, 969.1, 200.3)">_</text><text xml:space="preserve" font-family="Courier-Bold,Courier" font-weight="bold" font-size="52.0" fill="#8D908B" transform="matrix(1.00, 0.00, -0.00, -1.00, 1000.3, 200.3)">h</text><text xml:space="preserve" font-family="Courier-Bold,Courier" font-weight="bold" font-size="52.0" fill="#8D908B" transform="matrix(1.00, 0.00, -0.00, -1.00, 1031.5, 200.3)">e</text><text xml:space="preserve" font-family="Courier-Bold,Courier" font-weight="bold" font-size="52.0" fill="#8D908B" transform="matrix(1.00, 0.00, -0.00, -1.00, 1062.7, 200.3)">a</text><text xml:space="preserve" font-family="Courier-Bold,Courier" font-weight="bold" font-size="52.0" fill="#8D908B" transform="matrix(1.00, 0.00, -0.00, -1.00, 1093.9, 200.3)">d</text><text xml:space="preserve" font-family="Courier-Bold,Courier" font-weight="bold" font-size="52.0" fill="#8D908B" transform="matrix(1.00, 0.00, -0.00, -1.00, 1125.1, 200.3)">e</text><text xml:space="preserve" font-family="Courier-Bold,Courier" font-weight="bold" font-size="52.0" fill="#8D908B" transform="matrix(1.00, 0.00, -0.00, -1.00, 1156.3, 200.3)">r</text><text xml:space="preserve" font-family="Courier-Bold,Courier" font-weight="bold" font-size="52.0" fill="#8D908B" transform="matrix(1.00, 0.00, -0.00, -1.00, 1187.5, 200.3)">(</text><text xml:space="preserve" font-family="Courier-Bold,Courier" font-weight="bold" font-size="52.0" fill="#8D908B" transform="matrix(1.00, 0.00, -0.00, -1.00, 1218.7, 200.3)">F</text><text xml:space="preserve" font-family="Courier-Bold,Courier" font-weight="bold" font-size="52.0" fill="#8D908B" transform="matrix(1.00, 0.00, -0.00, -1.00, 1250.0, 200.3)">r</text><text xml:space="preserve" font-family="Courier-Bold,Courier" font-weight="bold" font-size="52.0" fill="#8D908B" transform="matrix(1.00, 0.00, -0.00, -1.00, 1281.2, 200.3)">a</text><text xml:space="preserve" font-family="Courier-Bold,Courier" font-weight="bold" font-size="52.0" fill="#8D908B" transform="matrix(1.00, 0.00, -0.00, -1.00, 1312.4, 200.3)">m</text><text xml:space="preserve" font-family="Courier-Bold,Courier" font-weight="bold" font-size="52.0" fill="#8D908B" transform="matrix(1.00, 0.00, -0.00, -1.00, 1343.6, 200.3)">e</text><text xml:space="preserve" font-family="Courier-Bold,Courier" font-weight="bold" font-size="52.0" fill="#8D908B" transform="matrix(1.00, 0.00, -0.00, -1.00, 1374.8, 200.3)">H</text><text xml:space="preserve" font-family="Courier-Bold,Courier" font-weight="bold" font-size="52.0" fill="#8D908B" transform="matrix(1.00, 0.00, -0.00, -1.00, 1406.0, 200.3)">e</text><text xml:space="preserve" font-family="Courier-Bold,Courier" font-weight="bold" font-size="52.0" fill="#8D908B" transform="matrix(1.00, 0.00, -0.00, -1.00, 1437.2, 200.3)">a</text><text xml:space="preserve" font-family="Courier-Bold,Courier" font-weight="bold" font-size="52.0" fill="#8D908B" transform="matrix(1.00, 0.00, -0.00, -1.00, 1468.4, 200.3)">d</text><text xml:space="preserve" font-family="Courier-Bold,Courier" font-weight="bold" font-size="52.0" fill="#8D908B" transform="matrix(1.00, 0.00, -0.00, -1.00, 1499.6, 200.3)">e</text><text xml:space="preserve" font-family="Courier-Bold,Courier" font-weight="bold" font-size="52.0" fill="#8D908B" transform="matrix(1.00, 0.00, -0.00, -1.00, 1530.8, 200.3)">r</text><text xml:space="preserve" font-family="Courier-Bold,Courier" font-weight="bold" font-size="52.0" fill="#8D908B" transform="matrix(1.00, 0.00, -0.00, -1.00, 1562.1, 200.3)">B</text><text xml:space="preserve" font-family="Courier-Bold,Courier" font-weight="bold" font-size="52.0" fill="#8D908B" transform="matrix(1.00, 0.00, -0.00, -1.00, 1593.3, 200.3)">i</text><text xml:space="preserve" font-family="Courier-Bold,Courier" font-weight="bold" font-size="52.0" fill="#8D908B" transform="matrix(1.00, 0.00, -0.00, -1.00, 1624.5, 200.3)">n</text><text xml:space="preserve" font-family="Courier-Bold,Courier" font-weight="bold" font-size="52.0" fill="#8D908B" transform="matrix(1.00, 0.00, -0.00, -1.00, 1655.7, 200.3)">)</text><text xml:space="preserve" font-family="Courier-Bold,Courier" font-weight="bold" font-size="52.0" fill="#8D908B" transform="matrix(1.00, 0.00, -0.00, -1.00, 1686.9, 200.3)">,</text><text xml:space="preserve" font-family="Courier-Bold,Courier" font-weight="bold" font-size="52.0" fill="#8D908B" transform="matrix(1.00, 0.00, -0.00, -1.00, 1.6, 76.3)">{</text><text xml:space="preserve" font-family="Courier-Bold,Courier" font-weight="bold" font-size="52.0" fill="#8D908B" transform="matrix(1.00, 0.00, -0.00, -1.00, 32.8, 76.3)">o</text><text xml:space="preserve" font-family="Courier-Bold,Courier" font-weight="bold" font-size="52.0" fill="#8D908B" transform="matrix(1.00, 0.00, -0.00, -1.00, 64.0, 76.3)">k</text><text xml:space="preserve" font-family="Courier-Bold,Courier" font-weight="bold" font-size="52.0" fill="#8D908B" transform="matrix(1.00, 0.00, -0.00, -1.00, 95.2, 76.3)">,</text><text xml:space="preserve" font-family="Courier-Bold,Courier" font-weight="bold" font-size="52.0" fill="#8D908B" transform="matrix(1.00, 0.00, -0.00, -1.00, 126.4, 76.3)"> </text><text xml:space="preserve" font-family="Courier-Bold,Courier" font-weight="bold" font-size="52.0" fill="#8D908B" transform="matrix(1.00, 0.00, -0.00, -1.00, 157.6, 76.3)">F</text><text xml:space="preserve" font-family="Courier-Bold,Courier" font-weight="bold" font-size="52.0" fill="#8D908B" transform="matrix(1.00, 0.00, -0.00, -1.00, 188.8, 76.3)">r</text><text xml:space="preserve" font-family="Courier-Bold,Courier" font-weight="bold" font-size="52.0" fill="#8D908B" transform="matrix(1.00, 0.00, -0.00, -1.00, 220.0, 76.3)">a</text><text xml:space="preserve" font-family="Courier-Bold,Courier" font-weight="bold" font-size="52.0" fill="#8D908B" transform="matrix(1.00, 0.00, -0.00, -1.00, 251.2, 76.3)">m</text><text xml:space="preserve" font-family="Courier-Bold,Courier" font-weight="bold" font-size="52.0" fill="#8D908B" transform="matrix(1.00, 0.00, -0.00, -1.00, 282.4, 76.3)">e</text><text xml:space="preserve" font-family="Courier-Bold,Courier" font-weight="bold" font-size="52.0" fill="#8D908B" transform="matrix(1.00, 0.00, -0.00, -1.00, 313.7, 76.3)">P</text><text xml:space="preserve" font-family="Courier-Bold,Courier" font-weight="bold" font-size="52.0" fill="#8D908B" transform="matrix(1.00, 0.00, -0.00, -1.00, 344.9, 76.3)">a</text><text xml:space="preserve" font-family="Courier-Bold,Courier" font-weight="bold" font-size="52.0" fill="#8D908B" transform="matrix(1.00, 0.00, -0.00, -1.00, 376.1, 76.3)">y</text><text xml:space="preserve" font-family="Courier-Bold,Courier" font-weight="bold" font-size="52.0" fill="#8D908B" transform="matrix(1.00, 0.00, -0.00, -1.00, 407.3, 76.3)">l</text><text xml:space="preserve" font-family="Courier-Bold,Courier" font-weight="bold" font-size="52.0" fill="#8D908B" transform="matrix(1.00, 0.00, -0.00, -1.00, 438.5, 76.3)">o</text><text xml:space="preserve" font-family="Courier-Bold,Courier" font-weight="bold" font-size="52.0" fill="#8D908B" transform="matrix(1.00, 0.00, -0.00, -1.00, 469.7, 76.3)">a</text><text xml:space="preserve" font-family="Courier-Bold,Courier" font-weight="bold" font-size="52.0" fill="#8D908B" transform="matrix(1.00, 0.00, -0.00, -1.00, 500.9, 76.3)">d</text><text xml:space="preserve" font-family="Courier-Bold,Courier" font-weight="bold" font-size="52.0" fill="#8D908B" transform="matrix(1.00, 0.00, -0.00, -1.00, 532.1, 76.3)">B</text><text xml:space="preserve" font-family="Courier-Bold,Courier" font-weight="bold" font-size="52.0" fill="#8D908B" transform="matrix(1.00, 0.00, -0.00, -1.00, 563.3, 76.3)">i</text><text xml:space="preserve" font-family="Courier-Bold,Courier" font-weight="bold" font-size="52.0" fill="#8D908B" transform="matrix(1.00, 0.00, -0.00, -1.00, 594.5, 76.3)">n</text><text xml:space="preserve" font-family="Courier-Bold,Courier" font-weight="bold" font-size="52.0" fill="#8D908B" transform="matrix(1.00, 0.00, -0.00, -1.00, 625.8, 76.3)">}</text><text xml:space="preserve" font-family="Courier-Bold,Courier" font-weight="bold" font-size="52.0" fill="#8D908B" transform="matrix(1.00, 0.00, -0.00, -1.00, 657.0, 76.3)"> </text><text xml:space="preserve" font-family="Courier-Bold,Courier" font-weight="bold" font-size="52.0" fill="#8D908B" transform="matrix(1.00, 0.00, -0.00, -1.00, 688.2, 76.3)">=</text><text xml:space="preserve" font-family="Courier-Bold,Courier" font-weight="bold" font-size="52.0" fill="#8D908B" transform="matrix(1.00, 0.00, -0.00, -1.00, 719.4, 76.3)"> </text><text xml:space="preserve" font-family="Courier-Bold,Courier" font-weight="bold" font-size="52.0" fill="#8D908B" transform="matrix(1.00, 0.00, -0.00, -1.00, 1.6, 14.3)"> </text><text xml:space="preserve" font-family="Courier-Bold,Courier" font-weight="bold" font-size="52.0" fill="#8D908B" transform="matrix(1.00, 0.00, -0.00, -1.00, 32.8, 14.3)"> </text><text xml:space="preserve" font-family="Courier-Bold,Courier" font-weight="bold" font-size="52.0" fill="#8D908B" transform="matrix(1.00, 0.00, -0.00, -1.00, 64.0, 14.3)">T</text><text xml:space="preserve" font-family="Courier-Bold,Courier" font-weight="bold" font-size="52.0" fill="#8D908B" transform="matrix(1.00, 0.00, -0.00, -1.00, 95.2, 14.3)">r</text><text xml:space="preserve" font-family="Courier-Bold,Courier" font-weight="bold" font-size="52.0" fill="#8D908B" transform="matrix(1.00, 0.00, -0.00, -1.00, 126.4, 14.3)">a</text><text xml:space="preserve" font-family="Courier-Bold,Courier" font-weight="bold" font-size="52.0" fill="#8D908B" transform="matrix(1.00, 0.00, -0.00, -1.00, 157.6, 14.3)">n</text><text xml:space="preserve" font-family="Courier-Bold,Courier" font-weight="bold" font-size="52.0" fill="#8D908B" transform="matrix(1.00, 0.00, -0.00, -1.00, 188.8, 14.3)">s</text><text xml:space="preserve" font-family="Courier-Bold,Courier" font-weight="bold" font-size="52.0" fill="#8D908B" transform="matrix(1.00, 0.00, -0.00, -1.00, 220.0, 14.3)">p</text><text xml:space="preserve" font-family="Courier-Bold,Courier" font-weight="bold" font-size="52.0" fill="#8D908B" transform="matrix(1.00, 0.00, -0.00, -1.00, 251.2, 14.3)">o</text><text xml:space="preserve" font-family="Courier-Bold,Courier" font-weight="bold" font-size="52.0" fill="#8D908B" transform="matrix(1.00, 0.00, -0.00, -1.00, 282.4, 14.3)">r</text><text xml:space="preserve" font-family="Courier-Bold,Courier" font-weight="bold" font-size="52.0" fill="#8D908B" transform="matrix(1.00, 0.00, -0.00, -1.00, 313.6, 14.3)">t</text><text xml:space="preserve" font-family="Courier-Bold,Courier" font-weight="bold" font-size="52.0" fill="#8D908B" transform="matrix(1.00, 0.00, -0.00, -1.00, 344.9, 14.3)">:</text><text xml:space="preserve" font-family="Courier-Bold,Courier" font-weight="bold" font-size="52.0" fill="#8D908B" transform="matrix(1.00, 0.00, -0.00, -1.00, 376.1, 14.3)">r</text><text xml:space="preserve" font-family="Courier-Bold,Courier" font-weight="bold" font-size="52.0" fill="#8D908B" transform="matrix(1.00, 0.00, -0.00, -1.00, 407.3, 14.3)">e</text><text xml:space="preserve" font-family="Courier-Bold,Courier" font-weight="bold" font-size="52.0" fill="#8D908B" transform="matrix(1.00, 0.00, -0.00, -1.00, 438.5, 14.3)">c</text><text xml:space="preserve" font-family="Courier-Bold,Courier" font-weight="bold" font-size="52.0" fill="#8D908B" transform="matrix(1.00, 0.00, -0.00, -1.00, 469.7, 14.3)">v</text><text xml:space="preserve" font-family="Courier-Bold,Courier" font-weight="bold" font-size="52.0" fill="#8D908B" transform="matrix(1.00, 0.00, -0.00, -1.00, 500.9, 14.3)">(</text><text xml:space="preserve" font-family="Courier-Bold,Courier" font-weight="bold" font-size="52.0" fill="#8D908B" transform="matrix(1.00, 0.00, -0.00, -1.00, 532.1, 14.3)">S</text><text xml:space="preserve" font-family="Courier-Bold,Courier" font-weight="bold" font-size="52.0" fill="#8D908B" transform="matrix(1.00, 0.00, -0.00, -1.00, 563.3, 14.3)">o</text><text xml:space="preserve" font-family="Courier-Bold,Courier" font-weight="bold" font-size="52.0" fill="#8D908B" transform="matrix(1.00, 0.00, -0.00, -1.00, 594.5, 14.3)">c</text><text xml:space="preserve" font-family="Courier-Bold,Courier" font-weight="bold" font-size="52.0" fill="#8D908B" transform="matrix(1.00, 0.00, -0.00, -1.00, 625.7, 14.3)">k</text><text xml:space="preserve" font-family="Courier-Bold,Courier" font-weight="bold" font-size="52.0" fill="#8D908B" transform="matrix(1.00, 0.00, -0.00, -1.00, 657.0, 14.3)">e</text><text xml:space="preserve" font-family="Courier-Bold,Courier" font-weight="bold" font-size="52.0" fill="#8D908B" transform="matrix(1.00, 0.00, -0.00, -1.00, 688.2, 14.3)">t</text><text xml:space="preserve" font-family="Courier-Bold,Courier" font-weight="bold" font-size="52.0" fill="#8D908B" transform="matrix(1.00, 0.00, -0.00, -1.00, 719.4, 14.3)">,</text><text xml:space="preserve" font-family="Courier-Bold,Courier" font-weight="bold" font-size="52.0" fill="#8D908B" transform="matrix(1.00, 0.00, -0.00, -1.00, 750.6, 14.3)"> </text><text xml:space="preserve" font-family="Courier-Bold,Courier" font-weight="bold" font-size="52.0" fill="#8D908B" transform="matrix(1.00, 0.00, -0.00, -1.00, 781.8, 14.3)">F</text><text xml:space="preserve" font-family="Courier-Bold,Courier" font-weight="bold" font-size="52.0" fill="#8D908B" transform="matrix(1.00, 0.00, -0.00, -1.00, 813.0, 14.3)">r</text><text xml:space="preserve" font-family="Courier-Bold,Courier" font-weight="bold" font-size="52.0" fill="#8D908B" transform="matrix(1.00, 0.00, -0.00, -1.00, 844.2, 14.3)">a</text><text xml:space="preserve" font-family="Courier-Bold,Courier" font-weight="bold" font-size="52.0" fill="#8D908B" transform="matrix(1.00, 0.00, -0.00, -1.00, 875.4, 14.3)">m</text><text xml:space="preserve" font-family="Courier-Bold,Courier" font-weight="bold" font-size="52.0" fill="#8D908B" transform="matrix(1.00, 0.00, -0.00, -1.00, 906.6, 14.3)">e</text><text xml:space="preserve" font-family="Courier-Bold,Courier" font-weight="bold" font-size="52.0" fill="#8D908B" transform="matrix(1.00, 0.00, -0.00, -1.00, 937.9, 14.3)">H</text><text xml:space="preserve" font-family="Courier-Bold,Courier" font-weight="bold" font-size="52.0" fill="#8D908B" transform="matrix(1.00, 0.00, -0.00, -1.00, 969.1, 14.3)">e</text><text xml:space="preserve" font-family="Courier-Bold,Courier" font-weight="bold" font-size="52.0" fill="#8D908B" transform="matrix(1.00, 0.00, -0.00, -1.00, 1000.3, 14.3)">a</text><text xml:space="preserve" font-family="Courier-Bold,Courier" font-weight="bold" font-size="52.0" fill="#8D908B" transform="matrix(1.00, 0.00, -0.00, -1.00, 1031.5, 14.3)">d</text><text xml:space="preserve" font-family="Courier-Bold,Courier" font-weight="bold" font-size="52.0" fill="#8D908B" transform="matrix(1.00, 0.00, -0.00, -1.00, 1062.7, 14.3)">e</text><text xml:space="preserve" font-family="Courier-Bold,Courier" font-weight="bold" font-size="52.0" fill="#8D908B" transform="matrix(1.00, 0.00, -0.00, -1.00, 1093.9, 14.3)">r</text><text xml:space="preserve" font-family="Courier-Bold,Courier" font-weight="bold" font-size="52.0" fill="#8D908B" transform="matrix(1.00, 0.00, -0.00, -1.00, 1125.1, 14.3)">#</text><text xml:space="preserve" font-family="Courier-Bold,Courier" font-weight="bold" font-size="52.0" fill="#8D908B" transform="matrix(1.00, 0.00, -0.00, -1.00, 1156.3, 14.3)">f</text><text xml:space="preserve" font-family="Courier-Bold,Courier" font-weight="bold" font-size="52.0" fill="#8D908B" transform="matrix(1.00, 0.00, -0.00, -1.00, 1187.5, 14.3)">r</text><text xml:space="preserve" font-family="Courier-Bold,Courier" font-weight="bold" font-size="52.0" fill="#8D908B" transform="matrix(1.00, 0.00, -0.00, -1.00, 1218.7, 14.3)">a</text><text xml:space="preserve" font-family="Courier-Bold,Courier" font-weight="bold" font-size="52.0" fill="#8D908B" transform="matrix(1.00, 0.00, -0.00, -1.00, 1250.0, 14.3)">m</text><text xml:space="preserve" font-family="Courier-Bold,Courier" font-weight="bold" font-size="52.0" fill="#8D908B" transform="matrix(1.00, 0.00, -0.00, -1.00, 1281.2, 14.3)">e</text><text xml:space="preserve" font-family="Courier-Bold,Courier" font-weight="bold" font-size="52.0" fill="#8D908B" transform="matrix(1.00, 0.00, -0.00, -1.00, 1312.4, 14.3)">_</text><text xml:space="preserve" font-family="Courier-Bold,Courier" font-weight="bold" font-size="52.0" fill="#8D908B" transform="matrix(1.00, 0.00, -0.00, -1.00, 1343.6, 14.3)">h</text><text xml:space="preserve" font-family="Courier-Bold,Courier" font-weight="bold" font-size="52.0" fill="#8D908B" transform="matrix(1.00, 0.00, -0.00, -1.00, 1374.8, 14.3)">e</text><text xml:space="preserve" font-family="Courier-Bold,Courier" font-weight="bold" font-size="52.0" fill="#8D908B" transform="matrix(1.00, 0.00, -0.00, -1.00, 1406.0, 14.3)">a</text><text xml:space="preserve" font-family="Courier-Bold,Courier" font-weight="bold" font-size="52.0" fill="#8D908B" transform="matrix(1.00, 0.00, -0.00, -1.00, 1437.2, 14.3)">d</text><text xml:space="preserve" font-family="Courier-Bold,Courier" font-weight="bold" font-size="52.0" fill="#8D908B" transform="matrix(1.00, 0.00, -0.00, -1.00, 1468.4, 14.3)">e</text><text xml:space="preserve" font-family="Courier-Bold,Courier" font-weight="bold" font-size="52.0" fill="#8D908B" transform="matrix(1.00, 0.00, -0.00, -1.00, 1499.6, 14.3)">r</text><text xml:space="preserve" font-family="Courier-Bold,Courier" font-weight="bold" font-size="52.0" fill="#8D908B" transform="matrix(1.00, 0.00, -0.00, -1.00, 1530.8, 14.3)">.</text><text xml:space="preserve" font-family="Courier-Bold,Courier" font-weight="bold" font-size="52.0" fill="#8D908B" transform="matrix(1.00, 0.00, -0.00, -1.00, 1562.1, 14.3)">l</text><text xml:space="preserve" font-family="Courier-Bold,Courier" font-weight="bold" font-size="52.0" fill="#8D908B" transform="matrix(1.00, 0.00, -0.00, -1.00, 1593.3, 14.3)">e</text><text xml:space="preserve" font-family="Courier-Bold,Courier" font-weight="bold" font-size="52.0" fill="#8D908B" transform="matrix(1.00, 0.00, -0.00, -1.00, 1624.5, 14.3)">n</text><text xml:space="preserve" font-family="Courier-Bold,Courier" font-weight="bold" font-size="52.0" fill="#8D908B" transform="matrix(1.00, 0.00, -0.00, -1.00, 1655.7, 14.3)">g</text><text xml:space="preserve" font-family="Courier-Bold,Courier" font-weight="bold" font-size="52.0" fill="#8D908B" transform="matrix(1.00, 0.00, -0.00, -1.00, 1686.9, 14.3)">t</text><text xml:space="preserve" font-family="Courier-Bold,Courier" font-weight="bold" font-size="52.0" fill="#8D908B" transform="matrix(1.00, 0.00, -0.00, -1.00, 1718.1, 14.3)">h</text><text xml:space="preserve" font-family="Courier-Bold,Courier" font-weight="bold" font-size="52.0" fill="#8D908B" transform="matrix(1.00, 0.00, -0.00, -1.00, 1749.3, 14.3)">)</text><text xml:space="preserve" font-family="Courier-Bold,Courier" font-weight="bold" font-size="52.0" fill="#8D908B" transform="matrix(1.00, 0.00, -0.00, -1.00, 1780.5, 14.3)">,</text></g></svg>