<?xml version="1.0" encoding="UTF-8" standalone="no"?><svg xmlns="http://www.w3.org/2000/svg" xmlns:xlink="http://www.w3.org/1999/xlink" clip-rule="evenodd" stroke-miterlimit="10" viewBox="0 0 506 244"><desc>SVG generated by Keynote</desc><defs></defs><g transform="matrix(1.00, 0.00, -0.00, -1.00, 0.0, 244.0)"><path d="M 45.2 40.5 C 44.5 40.7 43.0 39.4 42.3 39.6 M 45.2 40.5 C 45.2 40.5 45.2 40.5 45.2 40.5 C 46.0 40.4 43.8 38.1 43.7 37.5 C 43.6 37.0 42.9 37.3 42.5 37.2 C 41.7 36.8 43.3 36.1 41.4 35.8 C 39.9 35.6 38.9 34.6 37.6 33.9 C 36.5 33.4 35.6 33.1 35.3 34.5 C 36.6 36.2 35.9 37.2 35.9 37.2 C 34.5 36.9 31.5 36.0 30.7 35.1 C 30.5 34.8 32.5 31.8 32.2 31.7 C 31.5 31.2 30.8 32.1 30.0 31.8 C 29.1 31.4 28.6 31.4 28.0 30.5 C 27.9 30.3 26.3 29.6 26.7 30.4 C 26.1 30.1 25.2 29.5 24.5 29.5 C 23.8 29.5 23.3 30.5 24.0 31.0 C 23.8 31.0 26.9 32.5 27.0 32.3 C 26.6 33.2 24.5 30.9 23.3 32.1 C 21.7 33.6 23.5 33.4 24.2 34.3 C 24.9 35.1 22.2 35.2 21.4 34.9 C 19.6 34.2 23.3 37.6 21.3 37.5 C 19.4 37.3 21.0 38.5 22.1 39.9 C 22.9 40.9 22.3 41.5 21.3 41.6 C 22.5 41.9 23.1 42.4 23.5 43.8 C 24.6 44.5 24.4 43.5 24.4 43.0 C 24.8 40.6 27.8 44.6 28.0 44.6 C 28.6 44.8 29.3 44.4 29.9 44.8 C 30.3 45.2 29.9 46.1 30.3 46.3 C 30.9 46.5 31.5 46.7 32.1 46.9 C 32.6 47.1 31.7 46.3 32.6 45.9 C 33.5 45.4 33.1 43.9 33.0 43.7 C 33.3 42.9 35.1 47.2 36.8 47.8 C 38.4 48.3 37.6 47.2 38.8 47.5 C 39.7 47.8 39.0 48.7 39.7 49.0 C 40.4 49.2 40.9 48.8 41.4 49.2 C 42.6 50.3 43.1 48.8 42.6 47.2 C 42.4 46.5 41.7 45.7 42.6 44.9 C 43.5 44.1 44.9 45.3 44.4 44.3 C 43.9 43.3 40.2 43.1 40.0 42.3 C 39.8 41.5 43.3 43.1 43.1 42.0 C 42.9 40.9 42.3 41.9 41.3 40.9 C 41.5 40.5 42.0 41.2 42.3 40.6 C 42.6 40.1 41.6 39.8 42.3 39.6 C 43.0 39.4 44.5 40.7 45.2 40.5 C 45.2 40.5 45.2 40.5 45.2 40.5 Z M 30.1 32.6 C 30.1 32.6 30.1 32.6 30.1 32.6 C 30.0 32.4 30.4 32.2 30.8 32.5 C 31.1 32.8 30.2 32.9 30.1 32.6 C 30.1 32.6 30.1 32.6 30.1 32.6 Z M 36.4 48.6 C 36.4 48.6 36.4 48.6 36.4 48.6 C 36.3 48.3 36.8 48.2 37.1 48.5 C 37.5 48.8 36.5 48.9 36.4 48.6 C 36.4 48.6 36.4 48.6 36.4 48.6 Z M 25.2 43.3 C 25.2 43.3 25.2 43.3 25.2 43.3 C 25.1 43.0 25.5 42.9 25.9 43.2 C 26.2 43.5 25.3 43.6 25.2 43.3 C 25.2 43.3 25.2 43.3 25.2 43.3 Z M 34.0 34.7 C 34.0 34.7 34.0 34.7 34.0 34.7 C 34.6 34.9 35.1 35.6 33.8 35.6 C 33.2 35.6 32.8 35.4 32.5 35.1 C 32.1 34.9 31.5 34.6 31.4 34.2 C 32.5 34.4 33.7 33.9 34.0 34.7 C 34.0 34.7 34.0 34.7 34.0 34.7 Z M 32.4 40.0 C 32.4 40.0 32.4 40.0 32.4 40.0 C 32.7 39.8 33.8 40.0 33.3 40.9 C 32.6 40.9 32.1 40.3 32.4 40.0 C 32.4 40.0 32.4 40.0 32.4 40.0 Z M 21.4 31.7 C 21.4 31.7 21.4 31.7 21.4 31.7 C 21.7 31.5 22.8 31.8 22.3 32.6 C 21.6 32.6 21.1 32.0 21.4 31.7 C 21.4 31.7 21.4 31.7 21.4 31.7 Z M 36.0 38.2 C 36.0 38.2 36.0 38.2 36.0 38.2 C 36.5 38.6 36.5 39.5 35.6 39.3 C 35.5 38.8 33.7 38.0 36.0 38.2 C 36.0 38.2 36.0 38.2 36.0 38.2 Z M 41.0 36.7 C 41.0 36.7 41.0 36.7 41.0 36.7 C 41.3 37.0 41.6 37.0 41.2 37.7 C 40.7 37.5 40.8 37.6 40.2 37.4 C 39.4 36.9 38.4 38.4 38.4 37.3 C 38.3 35.6 40.9 36.1 41.0 36.7 C 41.0 36.7 41.0 36.7 41.0 36.7 Z M 36.7 39.9 C 36.7 39.9 36.7 39.9 36.7 39.9 C 36.9 40.0 37.0 40.3 37.0 40.4 C 36.7 40.7 36.4 40.0 36.7 39.9 C 36.7 39.9 36.7 39.9 36.7 39.9 Z M 20.6 39.0 C 20.6 39.0 20.6 39.0 20.6 39.0 C 20.8 39.1 20.9 39.4 20.9 39.5 C 20.6 39.8 20.3 39.1 20.6 39.0 C 20.6 39.0 20.6 39.0 20.6 39.0 Z M 28.7 45.2 C 28.7 45.2 28.7 45.2 28.7 45.2 C 28.9 45.3 29.0 45.6 29.1 45.7 C 28.7 46.0 28.5 45.3 28.7 45.2 C 28.7 45.2 28.7 45.2 28.7 45.2 Z M 28.7 34.8 C 28.7 34.8 28.7 34.8 28.7 34.8 C 28.1 35.0 27.3 33.7 27.6 33.5 C 28.2 33.0 29.3 34.6 28.7 34.8 C 28.7 34.8 28.7 34.8 28.7 34.8 Z M 45.9 38.3 C 45.9 38.3 45.9 38.3 45.9 38.3 C 45.3 38.5 44.5 37.2 44.7 37.0 C 45.4 36.4 46.4 38.1 45.9 38.3 C 45.9 38.3 45.9 38.3 45.9 38.3 Z M 444.8 188.8 C 444.8 188.8 444.8 188.8 444.8 188.8 C 445.1 188.8 445.5 188.9 445.8 188.8 C 445.7 188.7 445.6 188.6 445.5 188.5 C 445.3 188.4 445.0 188.3 444.8 188.2 C 443.9 187.9 445.7 187.2 443.6 186.8 C 442.2 186.6 442.2 186.1 441.0 185.4 C 440.6 185.3 440.9 187.1 440.9 187.3 C 440.7 188.3 439.3 189.1 439.1 188.9 C 438.5 188.9 437.3 188.6 436.5 187.8 C 435.3 187.4 436.7 185.7 436.6 185.7 C 435.2 185.3 435.8 185.2 434.8 184.6 C 433.9 184.4 433.7 185.6 432.9 185.3 C 432.6 185.4 433.1 183.0 431.3 182.3 C 430.3 181.9 429.7 181.9 429.1 181.0 C 429.0 180.8 427.3 180.0 427.8 180.8 C 427.4 180.6 426.8 180.3 426.5 180.5 C 425.2 181.6 427.6 181.9 427.6 182.3 C 427.6 182.5 426.2 182.3 426.2 182.9 C 426.1 183.6 421.5 181.5 422.9 182.9 C 424.4 184.4 423.0 186.4 422.5 186.6 C 422.2 186.4 422.6 185.2 421.7 185.7 C 420.9 186.1 422.2 187.4 422.0 187.9 C 420.9 190.7 421.7 188.9 422.8 190.5 C 423.4 191.2 422.0 191.5 421.5 191.7 C 421.6 191.9 422.9 192.4 423.0 192.6 C 423.6 192.9 423.6 192.6 423.9 193.5 C 424.1 194.0 425.4 194.0 425.6 194.0 C 425.9 194.0 425.0 193.6 425.1 193.2 C 425.3 191.4 426.2 194.1 427.4 194.4 C 428.6 194.8 429.0 194.9 429.2 195.0 C 429.4 195.1 429.7 193.8 430.0 194.1 C 430.5 194.0 430.6 194.7 430.8 195.2 C 431.1 195.7 432.3 195.2 432.8 195.4 C 433.3 195.7 433.0 196.3 434.1 197.1 C 435.1 197.9 435.7 196.1 435.7 195.6 C 435.8 193.8 436.1 197.6 437.0 197.8 C 437.9 198.1 438.1 197.4 438.6 197.6 C 438.9 197.8 439.0 198.1 439.2 198.4 C 439.6 198.1 439.9 198.5 440.8 198.8 C 440.9 198.8 441.0 198.9 441.1 198.9 C 441.2 198.8 440.2 197.5 440.4 197.4 C 441.1 196.9 441.5 198.1 441.6 198.6 C 442.3 198.2 443.1 198.2 443.7 198.8 C 445.0 199.9 445.6 198.3 445.0 196.7 C 444.7 196.0 443.9 194.8 445.0 194.4 C 446.1 193.9 447.4 195.3 446.9 193.8 C 446.8 193.8 447.3 193.2 445.7 193.2 C 444.1 193.1 443.6 192.1 443.6 192.0 C 442.8 191.7 442.4 192.2 442.1 191.6 C 441.8 191.0 443.0 191.4 443.8 191.8 C 444.0 191.5 443.8 191.0 444.5 191.2 C 445.3 191.4 445.0 192.1 445.5 191.8 C 446.0 191.5 445.6 191.5 445.5 191.4 C 446.1 191.5 446.7 191.7 447.3 192.0 C 448.3 192.6 447.0 190.5 446.6 190.2 C 445.8 189.7 444.5 190.4 444.8 188.8 C 444.8 188.8 444.8 188.8 444.8 188.8 Z M 443.9 193.6 C 443.9 193.6 443.9 193.6 443.9 193.6 C 443.5 193.6 442.6 193.0 443.1 192.8 C 443.7 192.7 444.2 193.5 443.9 193.6 C 443.9 193.6 443.9 193.6 443.9 193.6 Z M 433.5 197.7 C 433.5 197.7 433.5 197.7 433.5 197.7 C 433.2 197.7 432.2 197.1 432.8 197.0 C 433.3 196.8 433.9 197.6 433.5 197.7 C 433.5 197.7 433.5 197.7 433.5 197.7 Z M 438.4 185.4 C 438.4 185.4 438.4 185.4 438.4 185.4 C 437.8 185.9 437.3 184.6 437.8 184.4 C 438.1 184.7 438.4 185.2 438.4 185.4 C 438.4 185.4 438.4 185.4 438.4 185.4 Z M 438.0 196.4 C 438.0 196.4 438.0 196.4 438.0 196.4 C 437.9 196.4 437.8 196.3 437.6 196.3 C 437.9 196.1 438.8 196.1 439.0 196.1 C 438.9 196.8 438.4 196.6 438.0 196.4 C 438.0 196.4 438.0 196.4 438.0 196.4 Z M 434.8 184.1 C 434.8 184.1 434.8 184.1 434.8 184.1 C 434.2 184.4 433.8 184.0 433.3 183.8 C 433.9 181.9 435.4 183.8 434.8 184.1 C 434.8 184.1 434.8 184.1 434.8 184.1 Z M 427.2 184.7 C 427.2 184.7 427.2 184.7 427.2 184.7 C 427.8 185.6 425.5 185.8 425.4 185.1 C 425.2 184.5 426.0 184.5 426.5 184.7 C 426.7 184.6 426.7 183.9 427.2 184.7 C 427.2 184.7 427.2 184.7 427.2 184.7 Z M 429.1 193.5 C 429.1 193.5 429.1 193.5 429.1 193.5 C 429.2 193.4 429.5 193.2 429.5 193.4 C 429.6 193.6 429.2 193.8 429.1 193.5 C 429.1 193.5 429.1 193.5 429.1 193.5 Z M 442.8 199.1 C 442.8 199.1 442.8 199.1 442.8 199.1 C 443.0 199.1 443.2 198.9 443.3 199.1 C 443.3 199.3 442.9 199.5 442.8 199.1 C 442.8 199.1 442.8 199.1 442.8 199.1 Z M 425.2 191.7 C 425.2 191.7 425.2 191.7 425.2 191.7 C 425.2 191.1 425.7 191.6 425.9 191.5 C 425.9 192.0 425.2 192.3 425.2 191.7 C 425.2 191.7 425.2 191.7 425.2 191.7 Z M 437.3 186.5 C 437.3 186.5 437.3 186.5 437.3 186.5 C 438.3 186.0 440.0 186.5 439.5 188.0 C 438.9 187.9 438.4 188.0 437.9 187.7 C 437.6 187.5 437.5 186.9 437.3 186.5 C 437.3 186.5 437.3 186.5 437.3 186.5 Z M 442.7 188.2 C 442.7 188.2 442.7 188.2 442.7 188.2 C 443.1 188.1 443.8 188.4 443.1 188.9 C 442.8 189.1 442.5 189.2 442.2 189.1 C 441.8 189.1 441.1 189.3 441.0 189.0 C 440.9 188.6 442.0 187.8 442.7 188.2 C 442.7 188.2 442.7 188.2 442.7 188.2 Z M 434.2 185.7 C 434.2 185.7 434.2 185.7 434.2 185.7 C 434.5 185.2 435.8 185.7 435.7 186.0 C 435.6 186.2 433.9 186.1 434.2 185.7 C 434.2 185.7 434.2 185.7 434.2 185.7 Z M 439.8 186.2 C 439.8 186.2 439.8 186.2 439.8 186.2 C 440.0 186.3 440.1 186.4 439.9 186.5 C 439.8 186.5 439.6 186.4 439.5 186.3 C 439.5 186.2 439.6 186.0 439.8 186.2 C 439.8 186.2 439.8 186.2 439.8 186.2 Z M 431.2 181.5 C 431.2 181.5 431.2 181.5 431.2 181.5 C 431.4 181.6 431.5 181.8 431.4 181.8 C 431.2 181.9 431.0 181.8 431.0 181.7 C 430.9 181.6 431.0 181.4 431.2 181.5 C 431.2 181.5 431.2 181.5 431.2 181.5 Z M 445.6 187.8 C 445.6 187.8 445.6 187.8 445.6 187.8 C 445.8 187.9 446.0 188.1 445.8 188.1 C 445.6 188.2 445.4 188.1 445.4 188.0 C 445.3 187.9 445.5 187.7 445.6 187.8 C 445.6 187.8 445.6 187.8 445.6 187.8 Z M 431.4 183.5 C 431.4 183.5 431.4 183.5 431.4 183.5 C 431.6 183.9 431.4 184.4 430.7 184.2 C 434.0 187.2 428.3 185.5 428.3 184.1 C 428.2 182.1 431.3 182.7 431.4 183.5 C 431.4 183.5 431.4 183.5 431.4 183.5 Z M 54.3 44.0 C 53.4 42.6 50.8 42.6 49.7 41.6 C 48.5 40.7 48.0 39.1 46.8 40.5 C 46.0 41.4 42.7 40.2 42.6 41.4 C 42.5 42.3 42.8 43.1 42.4 43.9 C 41.7 45.5 40.2 45.3 41.4 47.0 C 42.5 48.5 43.1 46.4 43.4 48.8 C 43.7 50.6 45.4 51.3 46.7 50.2 C 47.9 49.1 49.3 48.8 49.5 51.0 C 49.6 52.1 49.5 52.4 50.4 53.1 C 50.6 53.3 53.4 53.3 53.3 53.4 C 53.3 52.9 52.2 51.3 53.5 51.7 C 54.4 51.9 55.2 53.3 54.6 54.0 C 53.5 55.2 58.9 55.9 58.6 55.4 C 58.7 55.6 59.2 57.6 60.1 56.6 C 60.1 56.6 62.4 57.2 62.7 57.3 C 67.3 58.5 60.9 53.4 65.7 55.1 C 68.9 56.3 66.0 57.6 66.1 58.1 C 66.1 59.1 68.7 60.0 69.6 60.4 C 70.3 60.8 71.4 60.1 72.1 59.8 C 73.1 59.4 74.7 60.3 75.1 61.2 C 75.2 61.6 75.4 62.6 75.8 62.9 C 75.8 62.9 77.3 63.5 77.1 63.2 C 77.0 63.0 76.0 61.9 76.7 61.7 C 77.2 61.6 78.0 63.5 78.5 63.8 C 79.4 64.4 80.2 62.0 81.6 63.8 C 82.6 65.0 81.8 64.7 83.1 63.8 C 83.8 63.4 85.1 65.5 85.1 66.0 C 85.4 63.4 86.5 66.3 86.8 65.9 C 86.6 66.2 85.6 65.9 85.5 66.3 C 85.5 66.4 92.8 69.6 93.4 68.9 C 94.0 68.2 93.2 67.1 95.1 68.1 C 95.7 68.4 96.5 69.4 96.3 69.6 C 95.1 69.5 95.5 69.4 94.1 69.5 C 94.1 69.5 96.4 70.7 96.8 70.8 C 98.1 71.3 98.7 71.0 100.1 70.8 C 101.0 70.7 101.2 72.1 102.2 72.5 C 103.2 72.9 104.2 73.3 105.3 73.5 C 106.4 73.7 106.7 73.9 107.1 73.1 C 107.4 72.3 109.4 73.0 110.1 72.8 C 110.7 72.6 110.8 72.6 111.4 73.3 C 112.4 74.5 111.4 74.3 111.4 74.8 C 111.4 76.5 114.7 77.5 115.9 77.7 C 117.2 77.8 115.5 76.4 115.8 76.3 C 116.5 76.2 117.2 76.9 117.8 77.2 C 118.8 77.5 117.7 77.7 117.9 78.1 C 119.0 80.0 120.6 77.5 121.6 78.1 C 123.0 78.9 122.7 81.0 124.8 80.8 C 127.0 80.5 127.8 82.9 130.0 82.8 C 131.8 82.8 133.3 85.8 134.9 84.2 C 135.7 83.5 137.6 83.0 138.0 82.0 C 138.1 81.7 138.2 78.6 137.6 78.9 C 138.0 78.7 139.0 79.1 139.3 78.7 C 139.5 78.4 138.0 77.4 137.9 77.0 C 137.9 76.8 140.1 76.9 140.3 76.6 C 140.6 76.3 137.4 74.3 137.9 73.0 C 138.1 72.5 136.8 71.5 136.6 72.2 C 136.5 72.5 136.5 74.4 136.9 74.5 C 136.7 74.4 135.1 73.3 135.1 73.3 C 135.2 73.7 135.2 74.0 135.1 74.4 C 135.0 74.5 131.1 73.0 131.0 72.8 C 130.8 72.1 131.9 70.8 131.5 70.3 C 131.2 69.9 130.0 70.5 129.5 70.3 C 128.7 70.0 129.9 69.5 129.2 69.0 C 129.0 68.8 124.4 67.8 124.2 68.0 C 124.1 68.1 124.8 70.0 124.6 70.4 C 124.4 71.4 123.3 70.5 122.8 70.3 C 122.0 69.9 119.2 68.0 119.7 66.7 C 119.8 66.3 122.0 67.0 122.4 66.9 C 121.9 67.1 119.9 63.8 118.5 65.0 C 118.3 65.2 119.4 65.7 119.4 65.8 C 119.5 66.1 118.2 67.2 117.7 66.8 C 117.3 66.6 116.9 65.3 116.4 65.5 C 116.6 65.4 114.8 66.3 114.9 65.7 C 114.8 66.1 115.5 67.4 115.2 67.7 C 115.1 67.7 113.0 66.7 112.8 66.5 C 111.3 65.5 111.7 66.2 110.6 66.5 C 109.6 66.7 107.5 66.5 108.4 65.1 C 109.5 63.5 107.8 62.3 107.3 63.6 C 106.7 65.0 106.6 64.6 105.3 63.8 C 104.1 62.9 102.4 62.9 101.6 61.4 C 100.7 59.5 103.1 60.1 102.8 59.4 C 102.5 58.7 101.3 58.3 100.6 58.2 C 99.4 58.0 100.0 59.3 99.5 59.2 C 98.7 59.2 98.3 57.5 97.4 57.4 C 97.4 57.4 95.8 57.8 96.1 57.9 C 92.7 56.5 95.9 58.5 95.9 59.9 C 95.9 60.4 94.1 58.8 94.0 60.5 C 93.9 62.3 91.0 61.1 91.2 60.3 C 91.4 60.3 91.7 60.2 92.0 60.1 C 92.0 59.1 88.9 58.3 89.0 57.5 C 89.1 57.2 93.6 57.6 93.3 56.5 C 93.0 55.9 91.9 56.4 91.6 56.5 C 91.0 56.8 91.3 55.7 91.2 55.5 C 91.2 55.7 89.4 55.1 89.0 55.6 C 88.8 55.7 90.1 56.7 89.5 56.7 C 87.4 56.6 88.9 55.8 88.3 54.6 C 87.9 53.9 85.1 52.2 85.1 52.4 C 85.2 52.6 86.1 53.1 85.8 53.4 C 85.3 53.8 84.4 53.0 84.0 53.4 C 83.9 53.5 84.7 54.1 84.6 54.1 C 84.0 54.5 82.0 53.5 81.7 53.9 C 81.5 54.3 83.8 54.8 83.6 55.4 C 83.4 55.9 82.0 56.1 82.2 55.3 C 82.3 54.3 79.9 54.7 79.4 53.9 C 78.9 53.1 81.1 53.1 79.6 52.3 C 77.8 51.3 78.8 52.6 78.2 53.0 C 76.7 53.9 76.0 48.7 75.0 49.6 C 74.7 49.9 75.9 52.3 74.3 51.2 C 73.5 50.8 69.4 51.0 69.8 49.6 C 70.0 49.3 72.2 50.0 72.1 49.7 C 72.0 48.9 70.5 48.5 70.0 48.2 C 69.1 47.6 69.9 47.1 69.4 46.5 C 68.8 45.6 67.7 46.9 67.1 46.6 C 66.5 46.3 66.3 48.7 66.2 49.0 C 66.3 48.0 63.9 48.5 63.7 47.4 C 63.2 45.1 62.7 45.7 61.4 44.5 C 61.7 44.7 61.8 44.9 61.9 45.2 C 61.7 45.3 60.5 45.0 60.4 44.9 C 60.8 45.2 61.1 45.5 61.2 46.0 C 61.2 46.1 55.3 46.5 55.5 44.3 C 55.5 44.1 56.4 40.7 55.1 41.3 C 54.7 41.5 54.3 44.0 54.3 44.0 M 73.4 49.7 C 73.8 49.7 73.9 49.9 73.9 50.3 C 73.5 50.4 73.1 50.3 72.8 49.9 C 72.8 49.6 73.0 49.5 73.4 49.7 M 73.6 48.5 C 74.0 48.6 74.1 48.8 74.1 49.1 C 71.8 49.0 72.6 46.7 74.0 48.1 C 74.1 48.2 73.4 48.3 73.6 48.5 M 90.2 54.6 C 90.2 54.8 88.5 54.7 89.0 54.2 C 89.2 54.0 90.2 54.3 90.2 54.6 M 92.4 58.3 C 92.7 59.0 91.5 58.6 91.4 58.2 C 91.2 57.7 92.4 58.1 92.4 58.3 M 129.3 71.1 C 129.1 72.5 125.1 73.2 125.5 71.3 C 126.0 69.0 129.5 69.3 129.3 71.1 M 105.6 60.9 C 105.2 61.3 103.9 60.3 104.2 59.8 C 104.8 59.0 105.9 60.4 105.6 60.9 M 103.7 61.9 C 103.3 62.3 102.5 61.7 102.6 61.3 C 102.7 61.0 104.0 61.4 103.7 61.9 M 122.3 68.5 C 122.6 68.2 123.6 69.2 123.2 69.3 C 122.9 69.3 122.0 68.9 122.3 68.5 C 122.3 68.5 122.3 68.5 122.3 68.5 Z M 133.1 72.8 C 132.9 72.5 133.2 72.3 133.4 72.5 C 133.5 72.7 133.3 73.0 133.1 72.8 C 133.1 72.8 133.1 72.8 133.1 72.8 Z M 111.6 65.2 C 110.5 64.7 112.1 63.9 113.1 65.0 C 113.9 65.9 112.9 65.8 111.6 65.2 C 111.6 65.2 111.6 65.2 111.6 65.2 Z M 124.5 80.0 C 124.7 80.2 124.1 80.3 123.8 80.1 C 123.3 79.5 124.3 79.7 124.5 80.0 C 124.5 80.0 124.5 80.0 124.5 80.0 Z M 69.2 51.2 C 69.6 51.7 68.8 51.6 68.7 51.3 C 68.5 50.9 68.8 50.7 69.2 51.2 C 69.2 51.2 69.2 51.2 69.2 51.2 Z M 57.7 44.3 C 58.1 44.8 57.0 44.4 56.8 44.1 C 56.7 43.7 57.3 43.8 57.7 44.3 C 57.7 44.3 57.7 44.3 57.7 44.3 Z M 45.2 47.5 C 45.6 48.0 44.8 47.8 44.7 47.6 C 44.5 47.2 44.8 46.9 45.2 47.5 C 45.2 47.5 45.2 47.5 45.2 47.5 Z M 63.9 52.8 C 64.3 53.3 63.5 53.2 63.4 52.9 C 63.2 52.6 63.5 52.3 63.9 52.8 C 63.9 52.8 63.9 52.8 63.9 52.8 Z M 67.3 49.0 C 67.1 48.3 68.1 46.8 68.7 48.6 C 69.4 50.3 67.6 49.7 67.3 49.0 C 67.3 49.0 67.3 49.0 67.3 49.0 Z M 104.3 72.0 C 104.3 72.0 105.3 71.6 105.4 71.9 C 106.0 73.1 104.3 72.0 104.3 72.0 C 104.3 72.0 104.3 72.0 104.3 72.0 Z M 92.4 59.8 C 92.4 59.8 93.1 59.7 93.2 59.8 C 93.9 60.6 92.4 59.8 92.4 59.8 C 92.4 59.8 92.4 59.8 92.4 59.8 Z M 87.3 52.7 C 87.3 52.7 88.0 52.7 88.1 52.8 C 88.8 53.6 87.3 52.7 87.3 52.7 C 87.3 52.7 87.3 52.7 87.3 52.7 Z M 58.3 43.5 C 57.0 42.8 58.4 42.5 59.3 43.2 C 60.1 43.7 59.6 44.2 58.3 43.5 C 58.3 43.5 58.3 43.5 58.3 43.5 Z M 61.7 47.6 C 60.9 46.2 62.3 46.3 62.8 47.5 C 63.3 48.5 62.6 49.0 61.7 47.6 C 61.7 47.6 61.7 47.6 61.7 47.6 Z M 56.2 46.6 C 56.5 46.6 56.6 46.8 56.4 47.0 C 55.9 47.2 54.9 46.7 54.8 46.2 C 54.6 45.4 56.2 46.6 56.2 46.6 M 57.4 52.4 C 60.2 51.7 56.8 54.8 56.6 54.2 C 56.4 53.7 56.8 52.6 57.4 52.4 C 57.4 52.4 57.4 52.4 57.4 52.4 Z M 75.9 60.8 C 76.5 60.6 77.1 61.3 76.5 61.5 C 76.1 61.6 75.3 61.0 75.9 60.8 C 75.9 60.8 75.9 60.8 75.9 60.8 Z M 77.3 51.0 C 77.7 50.9 78.8 51.4 78.2 51.6 C 77.8 51.7 76.7 51.2 77.3 51.0 C 77.3 51.0 77.3 51.0 77.3 51.0 Z M 49.0 39.6 C 49.3 39.5 50.5 40.0 49.9 40.2 C 49.5 40.3 48.4 39.8 49.0 39.6 C 49.0 39.6 49.0 39.6 49.0 39.6 Z M 88.1 61.9 C 89.2 61.7 89.7 62.7 88.8 62.7 C 88.0 62.8 86.9 62.1 88.1 61.9 C 88.1 61.9 88.1 61.9 88.1 61.9 Z M 109.2 65.7 C 109.8 65.6 110.0 66.3 109.6 66.2 C 109.2 66.1 109.0 65.8 109.2 65.7 C 109.2 65.7 109.2 65.7 109.2 65.7 Z M 113.4 65.8 C 113.8 65.8 114.1 66.2 113.7 66.1 C 113.2 66.0 113.1 65.9 113.4 65.8 C 113.4 65.8 113.4 65.8 113.4 65.8 Z M 127.5 74.8 C 128.3 74.7 129.1 75.6 128.2 75.4 C 127.2 75.2 126.9 74.9 127.5 74.8 C 127.5 74.8 127.5 74.8 127.5 74.8 Z M 117.3 65.6 C 117.6 65.5 118.0 66.0 117.6 65.9 C 117.1 65.8 117.0 65.7 117.3 65.6 C 117.3 65.6 117.3 65.6 117.3 65.6 Z M 127.6 70.4 C 128.4 70.2 128.7 71.1 128.2 71.0 C 127.6 70.9 127.2 70.5 127.6 70.4 C 127.6 70.4 127.6 70.4 127.6 70.4 Z M 127.1 67.2 C 127.9 66.9 128.2 67.9 127.7 67.7 C 127.1 67.6 126.8 67.3 127.1 67.2 C 127.1 67.2 127.1 67.2 127.1 67.2 Z M 98.4 71.8 C 99.2 71.6 99.5 72.5 99.0 72.4 C 98.4 72.3 98.1 71.9 98.4 71.8 C 98.4 71.8 98.4 71.8 98.4 71.8 Z M 64.5 44.6 C 65.6 45.0 65.8 45.6 65.0 45.8 C 64.2 46.0 63.3 44.3 64.5 44.6 C 64.5 44.6 64.5 44.6 64.5 44.6 Z M 126.3 71.3 C 126.7 71.1 126.9 71.6 126.6 71.6 C 126.3 71.7 125.9 71.4 126.3 71.3 C 126.3 71.3 126.3 71.3 126.3 71.3 Z M 99.4 64.0 C 99.6 64.3 99.5 64.6 99.2 64.7 C 98.5 64.4 98.1 63.2 98.6 62.6 C 99.0 62.0 100.9 63.7 100.2 64.1 C 100.0 64.2 99.4 63.5 99.4 64.0 M 101.3 69.7 C 101.6 70.1 101.0 70.3 100.8 69.8 C 100.5 69.2 101.0 69.3 101.3 69.7 C 101.3 69.7 101.3 69.7 101.3 69.7 Z M 88.9 66.9 C 89.3 67.4 88.6 67.5 88.4 67.0 C 88.1 66.5 88.6 66.5 88.9 66.9 C 88.9 66.9 88.9 66.9 88.9 66.9 Z M 115.6 64.4 C 116.2 64.7 115.7 64.1 116.0 64.0 C 116.3 64.1 116.6 64.4 116.8 64.7 C 116.8 65.6 115.2 64.5 115.2 64.3 C 115.3 64.3 115.5 64.4 115.6 64.4 M 125.9 79.4 C 126.5 79.8 126.0 79.1 126.3 79.1 C 126.6 79.2 126.9 79.4 127.0 79.8 C 127.1 80.7 125.5 79.5 125.4 79.4 C 125.6 79.4 125.8 79.4 125.9 79.4 M 44.9 39.2 C 44.9 39.4 43.2 39.3 43.7 38.8 C 43.9 38.6 44.9 38.9 44.9 39.2 M 85.8 67.3 C 85.8 67.6 84.1 67.5 84.6 67.0 C 84.8 66.8 85.8 67.0 85.8 67.3 M 92.5 66.0 C 93.1 66.3 92.6 65.7 92.9 65.7 C 93.2 65.8 93.5 66.0 93.7 66.4 C 93.7 67.2 92.1 66.1 92.1 65.9 C 92.2 66.0 92.4 66.0 92.5 66.0 M 117.9 76.3 C 117.9 76.0 118.8 76.3 118.4 76.6 C 118.1 76.7 117.8 76.6 117.9 76.3 C 117.9 76.3 117.9 76.3 117.9 76.3 Z M 82.2 53.2 C 82.3 52.9 83.2 53.5 82.6 53.4 C 82.3 53.4 82.2 53.5 82.2 53.2 C 82.2 53.2 82.2 53.2 82.2 53.2 Z M 95.4 61.7 C 94.8 61.9 95.0 61.1 95.3 60.9 C 96.2 60.4 96.3 62.3 96.1 62.3 C 95.9 62.2 95.6 61.7 95.4 61.7 M 76.7 55.1 C 75.6 55.4 77.0 52.6 77.8 54.8 C 78.6 57.1 77.0 55.1 76.7 55.1 M 131.8 82.4 C 132.2 82.2 130.4 81.1 130.7 80.9 C 131.5 80.4 132.6 82.3 132.4 83.0 C 132.4 83.1 131.0 82.6 131.8 82.4 M 118.9 68.8 C 119.3 68.7 117.5 67.6 117.8 67.4 C 118.6 66.9 119.7 68.8 119.5 69.5 C 119.4 69.6 118.0 69.1 118.9 68.8 M 84.6 55.5 C 84.2 55.3 85.7 54.8 85.9 55.6 C 86.3 57.0 85.0 55.7 84.6 55.5 M 52.4 41.7 C 52.1 41.7 51.9 41.5 51.8 41.2 C 51.7 40.7 53.3 41.2 53.2 41.3 C 52.9 41.4 52.7 41.6 52.4 41.7 M 110.1 73.5 C 110.5 73.1 110.9 74.0 110.4 74.0 C 109.9 74.0 109.6 73.9 110.1 73.5 C 110.1 73.5 110.1 73.5 110.1 73.5 Z M 58.0 57.0 C 58.4 56.6 58.8 57.6 58.3 57.5 C 57.8 57.5 57.5 57.4 58.0 57.0 C 58.0 57.0 58.0 57.0 58.0 57.0 Z M 139.6 73.9 C 140.0 73.6 140.4 74.4 140.0 74.4 C 139.4 74.3 139.2 74.3 139.6 73.9 C 139.6 73.9 139.6 73.9 139.6 73.9 Z M 116.4 69.5 C 116.6 69.5 117.6 70.2 116.5 70.2 C 115.9 70.3 116.1 69.6 116.4 69.5 C 116.4 69.5 116.4 69.5 116.4 69.5 Z M 133.7 71.2 C 134.0 71.2 135.3 72.1 133.9 72.1 C 133.2 72.0 133.3 71.3 133.7 71.2 C 133.7 71.2 133.7 71.2 133.7 71.2 Z M 105.6 68.2 C 105.9 68.0 106.1 68.4 105.7 68.5 C 105.3 68.5 105.2 68.3 105.6 68.2 C 105.6 68.2 105.6 68.2 105.6 68.2 Z M 106.5 59.7 C 106.8 59.5 107.0 59.9 106.6 60.0 C 106.2 60.0 106.1 59.8 106.5 59.7 C 106.5 59.7 106.5 59.7 106.5 59.7 Z M 94.4 58.9 C 94.7 58.8 94.9 59.2 94.5 59.2 C 94.1 59.2 94.0 59.0 94.4 58.9 C 94.4 58.9 94.4 58.9 94.4 58.9 Z M 111.2 62.1 C 112.9 62.3 113.7 63.1 111.5 63.3 C 110.2 63.5 110.8 62.1 111.2 62.1 C 111.2 62.1 111.2 62.1 111.2 62.1 Z M 97.1 65.6 C 97.5 65.6 97.6 65.9 97.2 65.9 C 96.9 65.9 96.7 65.7 97.1 65.6 C 97.1 65.6 97.1 65.6 97.1 65.6 Z M 98.2 59.8 C 97.4 58.8 101.9 60.0 100.7 61.3 C 99.1 63.0 98.6 60.3 98.2 59.8 M 80.8 51.2 C 80.6 50.7 81.9 51.1 81.6 51.7 C 81.1 52.8 80.9 51.4 80.8 51.2 M 69.8 58.7 C 69.8 58.7 69.9 59.4 69.6 59.1 C 69.0 58.6 69.8 58.7 69.8 58.7 C 69.8 58.7 69.8 58.7 69.8 58.7 Z M 72.0 58.6 C 72.4 58.3 73.3 59.2 72.5 59.1 C 72.1 59.1 71.6 58.9 72.0 58.6 C 72.0 58.6 72.0 58.6 72.0 58.6 Z M 76.6 49.1 C 76.7 49.0 77.1 49.4 76.8 49.3 C 76.6 49.3 76.4 49.2 76.6 49.1 C 76.6 49.1 76.6 49.1 76.6 49.1 Z M 71.2 61.6 C 71.5 61.4 72.4 62.2 71.7 62.0 C 71.3 62.0 70.8 61.8 71.2 61.6 C 71.2 61.6 71.2 61.6 71.2 61.6 Z M 103.9 58.9 C 104.1 58.8 104.5 59.2 104.1 59.2 C 104.0 59.1 103.7 59.1 103.9 58.9 C 103.9 58.9 103.9 58.9 103.9 58.9 Z M 137.2 71.3 C 137.4 71.2 137.8 71.6 137.5 71.5 C 137.3 71.5 137.1 71.4 137.2 71.3 C 137.2 71.3 137.2 71.3 137.2 71.3 Z M 50.3 50.2 C 50.7 49.8 51.5 50.8 50.8 50.7 C 50.4 50.7 49.9 50.5 50.3 50.2 C 50.3 50.2 50.3 50.2 50.3 50.2 Z M 106.2 63.3 C 106.7 63.0 107.3 63.8 106.4 63.8 C 106.0 63.7 105.8 63.6 106.2 63.3 C 106.2 63.3 106.2 63.3 106.2 63.3 Z M 65.2 56.5 C 65.7 56.1 66.3 57.0 65.5 56.9 C 65.0 56.9 64.8 56.8 65.2 56.5 C 65.2 56.5 65.2 56.5 65.2 56.5 Z M 104.3 61.8 C 104.6 61.6 105.0 62.1 104.5 62.0 C 104.3 62.0 104.1 62.0 104.3 61.8 C 104.3 61.8 104.3 61.8 104.3 61.8 Z M 108.8 73.8 C 109.0 73.6 109.5 74.0 109.0 74.0 C 108.8 73.9 108.6 74.0 108.8 73.8 C 108.8 73.8 108.8 73.8 108.8 73.8 Z M 115.3 78.2 C 115.5 78.0 116.0 78.4 115.5 78.4 C 115.2 78.3 115.0 78.4 115.3 78.2 C 115.3 78.2 115.3 78.2 115.3 78.2 Z M 110.3 68.2 C 110.5 68.0 111.1 68.6 110.6 68.5 C 110.4 68.5 110.0 68.4 110.3 68.2 C 110.3 68.2 110.3 68.2 110.3 68.2 Z M 64.2 52.2 C 63.4 52.1 62.7 50.8 62.9 50.0 C 62.8 50.7 65.2 51.0 65.5 51.2 C 65.7 51.3 64.9 52.4 64.2 52.2 M 112.3 69.7 C 107.8 68.5 111.2 66.6 113.6 68.6 C 113.8 68.7 113.0 69.8 112.3 69.7 C 113.8 68.7 113.0 69.8 112.3 69.7 C 113.8 68.7 113.0 69.8 112.3 69.7 C 113.8 68.7 113.0 69.8 112.3 69.7 M 143.3 73.9 C 140.7 73.3 142.4 74.0 140.7 74.9 C 140.4 75.1 138.1 75.4 138.2 75.8 C 138.3 76.5 139.9 76.4 140.0 77.0 C 140.4 78.3 138.0 77.7 137.7 78.0 C 136.6 79.0 137.4 80.6 138.0 81.6 C 138.8 83.0 139.1 81.2 140.0 81.3 C 140.6 81.3 139.8 82.7 139.7 82.9 C 138.9 84.1 137.8 82.7 137.5 84.7 C 137.3 86.0 137.2 86.6 138.8 86.6 C 140.0 86.6 140.3 85.3 141.0 84.6 C 141.4 84.2 144.7 85.8 143.5 86.5 C 142.7 87.0 142.1 87.5 143.4 87.9 C 143.9 88.0 144.3 87.9 144.8 87.7 C 145.5 87.4 145.7 88.4 146.6 88.3 C 148.4 88.1 149.7 91.4 152.1 91.4 C 152.4 91.4 155.1 89.6 155.2 92.0 C 155.7 92.4 156.2 91.1 156.5 91.3 C 157.7 91.8 157.0 92.5 157.3 92.9 C 158.1 93.3 161.8 92.6 161.5 93.8 C 160.9 95.7 164.3 96.0 164.6 95.6 C 164.7 95.5 167.3 97.0 168.8 97.3 C 168.7 97.1 168.6 96.9 168.4 96.8 C 168.6 96.8 169.1 96.8 169.3 96.8 C 168.7 96.6 167.1 95.3 166.8 94.7 C 166.7 94.5 171.0 94.9 170.2 96.1 C 169.9 96.8 169.6 97.2 170.6 97.2 C 172.1 97.4 170.6 97.7 171.4 98.4 C 172.8 99.4 173.7 97.6 174.5 99.1 C 175.1 100.2 175.3 99.5 176.3 99.7 C 178.0 99.9 177.7 101.3 179.1 101.7 C 179.3 101.7 182.3 102.7 181.7 101.8 C 181.4 101.1 180.0 100.5 179.9 99.6 C 179.6 98.0 182.9 101.1 182.5 100.8 C 183.3 101.3 186.0 100.4 186.3 101.0 C 186.6 101.5 183.9 102.0 183.6 102.1 C 182.4 102.6 186.3 103.8 186.2 103.7 C 186.7 104.1 187.8 103.7 188.1 104.1 C 188.6 104.7 188.5 104.9 189.4 105.2 C 190.0 105.3 190.4 105.5 191.0 105.7 C 191.7 106.0 192.4 104.8 193.2 104.6 C 194.5 104.4 193.9 105.6 194.4 106.1 C 195.5 107.1 199.0 106.7 199.0 108.0 C 199.1 109.4 202.0 107.1 202.8 108.8 C 203.1 109.4 204.3 110.3 204.6 110.0 C 203.8 110.6 206.4 111.5 206.8 111.7 C 207.5 112.1 208.1 111.6 208.8 111.6 C 209.6 111.5 209.9 112.6 210.4 113.1 C 211.5 114.3 211.5 111.7 212.3 112.9 C 213.6 114.9 213.8 111.1 214.5 111.2 C 214.7 111.2 215.0 113.8 215.2 114.1 C 215.5 114.7 215.8 113.5 216.1 114.0 C 216.3 114.7 216.8 115.9 217.9 115.3 C 218.3 115.0 218.3 113.4 218.8 113.8 C 218.9 113.9 219.6 114.9 219.7 114.6 C 220.9 112.3 220.8 117.6 219.5 116.1 C 220.0 116.8 224.3 118.7 224.7 117.7 C 224.9 117.1 223.0 116.3 223.5 115.8 C 224.6 115.0 227.3 118.0 226.0 118.0 C 226.9 118.0 228.1 120.3 229.5 120.0 C 229.7 119.9 230.5 120.6 230.6 120.4 C 230.8 120.0 231.0 119.0 231.4 118.9 C 232.3 118.5 234.2 118.4 234.2 117.2 C 234.2 116.9 233.9 112.3 233.7 112.5 C 234.0 112.2 235.2 112.7 235.4 112.1 C 235.8 111.2 232.1 111.1 233.0 109.9 C 233.0 109.9 231.9 109.3 232.0 108.9 C 232.2 107.8 232.6 108.3 231.4 107.7 C 230.4 107.2 231.1 107.9 230.5 108.3 C 230.1 108.5 229.9 106.3 228.1 106.7 C 229.3 107.5 228.5 107.8 228.9 108.8 C 229.5 110.2 227.5 109.5 226.9 109.4 C 224.6 108.9 224.0 108.0 222.6 106.4 C 221.8 105.5 225.6 103.5 222.9 104.6 C 221.7 105.1 218.2 103.0 216.8 103.0 C 216.9 103.0 217.6 104.0 217.6 104.1 C 217.0 106.2 213.2 102.8 212.8 102.1 C 212.1 101.1 212.0 101.9 212.2 102.8 C 212.5 104.0 211.2 103.7 210.5 103.4 C 210.1 103.2 209.1 102.5 208.6 102.7 C 208.0 102.9 207.6 99.6 207.2 99.2 C 206.5 98.3 205.8 99.4 204.8 98.4 C 204.7 98.3 202.6 96.0 202.5 96.5 C 202.0 97.8 206.3 100.1 202.3 99.2 C 202.0 99.1 197.5 97.8 198.3 97.3 C 198.7 97.0 199.2 97.4 199.5 97.4 C 197.9 97.4 198.5 94.2 196.1 94.2 C 195.0 94.2 190.5 91.7 191.5 93.9 C 192.5 95.8 190.2 95.8 189.2 94.5 C 188.3 93.3 188.0 92.9 186.6 93.2 C 186.4 93.2 183.3 92.6 183.9 92.0 C 184.3 91.5 185.2 92.2 185.6 91.4 C 185.9 90.9 185.4 90.2 184.9 90.3 C 184.3 90.3 183.9 91.0 183.4 91.3 C 183.3 91.3 182.3 90.4 182.1 90.3 C 181.4 89.9 180.3 89.7 179.7 89.0 C 179.3 88.5 180.4 88.3 180.1 88.0 C 178.6 86.0 179.3 90.4 179.5 90.2 C 179.4 90.3 176.6 90.4 176.3 90.3 C 174.4 89.9 174.1 88.9 174.3 87.3 C 174.3 87.0 176.9 87.6 176.9 87.6 C 176.2 85.1 173.7 85.9 172.2 85.1 C 171.7 84.8 169.0 82.7 169.0 84.6 C 169.0 85.8 168.0 84.9 167.6 84.8 C 167.7 84.8 168.9 87.0 169.1 87.4 C 167.8 87.1 166.5 86.8 165.2 86.3 C 164.5 86.1 163.6 85.9 163.0 85.3 C 162.7 85.0 163.0 83.6 161.9 83.8 C 162.6 83.7 163.3 83.8 164.0 83.8 C 163.4 83.4 162.8 80.8 161.5 81.4 C 161.1 81.7 161.5 82.4 160.8 82.3 C 160.1 82.1 159.3 81.9 158.6 81.9 C 157.9 81.9 157.3 84.4 155.6 82.5 C 155.7 82.6 155.4 80.5 155.4 80.6 C 155.5 79.7 155.5 79.3 154.6 78.9 C 155.2 79.1 154.0 81.8 152.6 81.6 C 151.1 81.3 148.4 80.1 149.2 78.2 C 148.4 77.4 148.1 75.9 146.4 76.6 C 145.3 77.0 143.3 76.6 142.6 75.4 C 142.5 75.1 144.0 75.3 144.2 75.1 C 144.5 74.9 143.5 74.0 143.3 73.9 M 145.6 75.4 C 145.8 76.0 144.1 75.1 144.9 74.7 C 145.3 74.7 145.5 75.0 145.6 75.4 M 144.3 75.9 C 143.9 76.1 143.9 75.7 144.1 75.6 C 144.3 75.6 144.6 75.8 144.3 75.9 C 144.3 75.9 144.3 75.9 144.3 75.9 Z M 157.5 81.7 C 156.7 81.5 156.9 81.3 157.4 81.2 C 158.0 81.0 158.2 81.8 157.5 81.7 C 157.5 81.7 157.5 81.7 157.5 81.7 Z M 164.0 96.8 C 163.3 96.6 163.4 96.4 163.9 96.3 C 164.5 96.2 164.8 96.9 164.0 96.8 C 164.0 96.8 164.0 96.8 164.0 96.8 Z M 166.4 85.3 C 166.4 85.5 166.0 85.3 166.1 85.1 C 166.2 84.9 166.5 85.1 166.4 85.3 C 166.4 85.3 166.4 85.3 166.4 85.3 Z M 152.4 80.6 C 152.4 80.7 152.0 80.6 152.1 80.4 C 152.2 80.2 152.5 80.4 152.4 80.6 C 152.4 80.6 152.4 80.6 152.4 80.6 Z M 166.2 83.4 C 166.5 83.7 165.1 84.4 165.1 82.6 C 165.0 82.1 166.4 83.0 166.4 83.2 C 166.5 83.3 165.9 83.1 166.2 83.4 M 178.2 87.1 C 178.5 87.3 178.5 87.5 178.2 87.8 C 178.2 87.8 177.2 87.0 178.2 87.1 M 199.2 109.9 C 199.5 110.1 199.5 110.3 199.2 110.5 C 199.2 110.6 198.2 109.7 199.2 109.9 M 206.3 97.5 C 206.7 97.4 207.1 98.3 206.9 98.4 C 206.4 98.6 205.6 97.7 206.3 97.5 M 189.2 93.2 C 189.4 93.1 191.3 93.9 190.8 94.1 C 190.3 94.3 189.1 93.2 189.2 93.2 M 215.4 102.0 C 215.0 101.7 214.6 101.3 214.3 101.0 C 214.2 100.9 217.3 101.3 217.0 102.1 C 216.8 102.6 215.5 102.1 215.4 102.0 M 220.1 102.6 C 220.4 102.6 221.4 103.2 221.2 103.6 C 220.8 104.1 219.6 102.8 220.1 102.6 M 199.5 95.6 C 199.8 95.8 199.4 96.1 199.1 95.9 C 198.7 95.6 199.3 95.5 199.5 95.6 C 199.5 95.6 199.5 95.6 199.5 95.6 Z M 188.0 91.9 C 187.8 91.9 186.7 91.1 187.1 90.9 C 188.4 90.4 191.3 92.5 188.0 91.9 M 159.7 80.7 C 159.7 80.7 160.9 80.5 160.8 81.5 C 160.5 82.8 159.7 80.7 159.7 80.7 M 154.0 79.6 C 154.3 79.8 154.0 80.1 153.8 79.8 C 153.5 79.5 153.7 79.4 154.0 79.6 C 154.0 79.6 154.0 79.6 154.0 79.6 Z M 208.2 99.2 C 208.5 99.5 207.5 99.3 207.6 99.1 C 207.7 98.9 207.8 98.8 208.2 99.2 C 208.2 99.2 208.2 99.2 208.2 99.2 Z M 213.5 100.8 C 213.8 101.2 212.8 101.0 212.9 100.7 C 213.0 100.5 213.2 100.5 213.5 100.8 C 213.5 100.8 213.5 100.8 213.5 100.8 Z M 217.6 116.3 C 217.9 116.6 216.9 116.4 217.0 116.2 C 217.1 116.0 217.2 115.9 217.6 116.3 C 217.6 116.3 217.6 116.3 217.6 116.3 Z M 156.1 86.2 C 155.7 86.2 155.5 86.1 155.5 85.7 C 155.6 85.4 155.9 85.3 156.2 85.4 C 155.8 85.3 154.0 84.4 155.2 84.1 C 156.3 83.8 156.8 85.2 157.8 85.2 C 158.1 85.2 158.7 84.6 158.7 84.4 C 158.7 84.5 159.4 85.0 159.3 86.2 C 159.2 87.6 156.6 86.0 156.1 86.2 M 183.2 94.3 C 183.3 94.5 184.8 95.2 184.7 95.4 C 183.4 97.1 180.4 93.6 181.7 92.2 C 183.3 90.4 183.7 94.7 183.2 94.3 M 219.8 105.6 C 218.6 105.2 221.0 107.1 220.7 107.6 C 220.2 108.4 218.5 106.0 218.3 105.6 C 217.6 103.3 221.2 104.7 221.0 105.8 C 220.6 106.0 220.2 105.9 219.8 105.6 M 227.2 107.4 C 227.6 108.0 224.6 107.3 224.4 107.0 C 224.0 106.6 224.6 105.9 225.0 105.7 C 226.3 105.3 226.7 106.6 227.2 107.4 M 177.6 89.2 C 178.2 90.3 174.6 89.4 175.2 88.4 C 175.5 87.9 177.4 88.8 177.6 89.2 M 196.6 104.2 C 196.4 103.4 199.0 104.6 199.2 104.6 C 199.6 104.5 198.8 102.9 199.0 103.0 C 200.2 103.8 206.1 106.2 200.9 105.5 C 199.9 105.4 198.6 106.4 197.6 106.2 C 195.5 105.9 197.0 105.4 196.6 104.2 M 145.8 78.1 C 146.6 78.6 146.5 77.2 147.0 77.2 C 147.7 77.2 148.0 78.9 147.4 79.2 C 144.9 80.2 143.2 76.4 145.8 78.1 M 159.4 83.6 C 158.8 83.1 159.3 82.8 159.7 83.1 C 160.1 83.3 160.0 84.0 159.4 83.6 C 159.4 83.6 159.4 83.6 159.4 83.6 Z M 165.0 85.0 C 165.3 85.0 165.8 85.8 165.5 86.1 C 165.0 86.6 163.8 84.7 165.0 85.0 M 149.2 75.7 C 149.6 75.8 150.0 76.5 149.7 76.8 C 149.2 77.3 148.0 75.4 149.2 75.7 M 198.0 100.3 C 198.3 100.4 198.8 101.2 198.4 101.5 C 197.9 101.9 196.7 100.0 198.0 100.3 M 187.9 93.8 C 188.8 94.0 189.0 96.3 188.2 95.8 C 187.6 95.4 186.0 93.3 187.9 93.8 M 172.3 95.9 C 172.5 96.0 172.7 96.2 172.8 96.3 C 173.3 98.3 169.0 94.8 172.3 95.9 M 197.0 95.6 C 198.7 96.1 196.6 98.4 195.7 98.0 C 193.7 97.0 195.4 95.1 197.0 95.6 M 185.4 92.4 C 185.1 92.0 186.0 92.0 186.2 92.7 C 186.3 92.9 185.6 92.8 185.4 92.4 C 185.4 92.4 185.4 92.4 185.4 92.4 Z M 197.9 105.1 C 197.9 105.4 197.5 105.4 197.5 105.1 C 197.5 104.9 197.8 104.8 197.9 105.1 C 197.9 105.1 197.9 105.1 197.9 105.1 Z M 199.5 105.5 C 199.8 105.7 199.1 105.9 198.9 105.6 C 198.6 105.1 199.3 105.3 199.5 105.5 C 199.5 105.5 199.5 105.5 199.5 105.5 Z M 201.8 96.9 C 202.0 97.1 201.3 97.3 201.1 97.0 C 200.8 96.5 201.5 96.7 201.8 96.9 C 201.8 96.9 201.8 96.9 201.8 96.9 Z M 150.1 89.0 C 151.7 89.4 151.4 89.9 150.2 89.4 C 149.4 89.0 148.5 88.6 150.1 89.0 C 150.1 89.0 150.1 89.0 150.1 89.0 Z M 170.4 85.0 C 172.9 85.5 171.7 88.6 169.7 86.9 C 169.7 86.9 168.0 84.5 170.4 85.0 C 170.4 85.0 170.4 85.0 170.4 85.0 Z M 175.8 92.1 C 176.1 92.0 176.0 92.7 175.6 92.7 C 175.2 92.8 175.5 92.3 175.8 92.1 C 175.8 92.1 175.8 92.1 175.8 92.1 Z M 195.4 92.6 C 195.7 92.5 195.7 93.2 195.2 93.2 C 194.9 93.2 195.1 92.7 195.4 92.6 C 195.4 92.6 195.4 92.6 195.4 92.6 Z M 151.8 90.2 C 152.1 90.0 152.0 90.7 151.6 90.7 C 151.2 90.8 151.5 90.3 151.8 90.2 C 151.8 90.2 151.8 90.2 151.8 90.2 Z M 211.7 102.8 C 212.0 102.7 211.9 103.4 211.4 103.4 C 211.1 103.4 211.4 102.9 211.7 102.8 C 211.7 102.8 211.7 102.8 211.7 102.8 Z M 187.6 101.8 C 187.5 101.1 189.2 102.0 188.3 102.0 C 187.3 102.0 187.6 102.5 187.6 101.8 C 187.6 101.8 187.6 101.8 187.6 101.8 Z M 193.1 104.0 C 193.1 103.5 193.9 103.7 193.6 104.0 C 193.4 104.3 193.1 104.3 193.1 104.0 C 193.1 104.0 193.1 104.0 193.1 104.0 Z M 221.6 102.9 C 221.6 102.5 222.4 102.7 222.1 103.0 C 221.9 103.2 221.6 103.3 221.6 102.9 C 221.6 102.9 221.6 102.9 221.6 102.9 Z M 206.1 112.5 C 206.1 112.1 206.9 112.3 206.6 112.6 C 206.3 112.8 206.1 112.9 206.1 112.5 C 206.1 112.5 206.1 112.5 206.1 112.5 Z M 212.3 110.2 C 212.8 110.6 212.2 110.9 212.0 110.3 C 211.8 109.9 211.8 109.8 212.3 110.2 C 212.3 110.2 212.3 110.2 212.3 110.2 Z M 200.4 97.4 C 200.6 97.1 204.0 98.6 202.2 98.4 C 201.2 98.3 200.1 98.1 200.4 97.4 C 200.4 97.4 200.4 97.4 200.4 97.4 Z M 226.5 114.3 C 227.0 114.1 227.1 114.9 226.7 115.1 C 226.7 115.1 226.1 114.4 226.5 114.3 C 226.5 114.3 226.5 114.3 226.5 114.3 Z M 231.1 110.6 C 231.6 110.5 231.7 111.2 231.3 111.5 C 231.3 111.5 230.7 110.8 231.1 110.6 C 231.1 110.6 231.1 110.6 231.1 110.6 Z M 233.5 108.6 C 233.9 108.5 234.0 109.2 233.7 109.5 C 233.7 109.5 233.0 108.8 233.5 108.6 C 233.5 108.6 233.5 108.6 233.5 108.6 Z M 163.0 90.0 C 162.2 90.1 162.8 89.4 162.8 89.4 C 163.8 89.9 163.8 89.9 163.0 90.0 C 163.0 90.0 163.0 90.0 163.0 90.0 Z M 163.7 81.5 C 163.3 81.6 163.6 81.2 163.6 81.2 C 164.0 81.5 164.0 81.5 163.7 81.5 C 163.7 81.5 163.7 81.5 163.7 81.5 Z M 171.4 84.0 C 171.0 84.0 171.3 83.7 171.3 83.7 C 171.7 83.9 171.7 83.9 171.4 84.0 C 171.4 84.0 171.4 84.0 171.4 84.0 Z M 159.9 94.2 C 159.4 94.2 159.7 93.8 159.7 93.8 C 160.4 94.1 160.4 94.1 159.9 94.2 C 159.9 94.2 159.9 94.2 159.9 94.2 Z M 190.6 98.2 C 189.9 98.4 190.4 97.7 190.4 97.7 C 191.4 98.1 191.4 98.1 190.6 98.2 C 190.6 98.2 190.6 98.2 190.6 98.2 Z M 192.1 102.3 C 191.3 102.5 191.9 101.7 191.9 101.7 C 192.9 102.2 192.9 102.2 192.1 102.3 C 192.1 102.3 192.1 102.3 192.1 102.3 Z M 184.1 104.0 C 183.7 104.1 184.0 103.8 184.0 103.8 C 184.4 104.0 184.4 104.0 184.1 104.0 C 184.1 104.0 184.1 104.0 184.1 104.0 Z M 193.2 105.8 C 192.8 105.9 193.1 105.5 193.1 105.5 C 193.5 105.8 193.5 105.8 193.2 105.8 C 193.2 105.8 193.2 105.8 193.2 105.8 Z M 141.5 85.6 C 142.0 85.8 141.9 86.1 141.3 85.8 C 141.0 85.7 140.9 85.5 141.5 85.6 C 141.5 85.6 141.5 85.6 141.5 85.6 Z M 143.1 79.5 C 143.9 79.7 143.6 80.6 142.5 80.0 C 141.9 79.7 142.2 79.3 143.1 79.5 C 143.1 79.5 143.1 79.5 143.1 79.5 Z M 193.1 94.3 C 192.9 94.1 193.9 94.2 194.0 94.2 C 194.3 94.4 194.2 95.2 194.3 95.3 C 194.0 94.9 193.5 94.6 193.1 94.3 M 182.0 91.0 C 182.4 91.3 182.0 91.4 181.8 91.2 C 181.5 91.0 181.7 90.7 182.0 91.0 C 182.0 91.0 182.0 91.0 182.0 91.0 Z M 211.2 101.3 C 211.6 102.4 209.3 101.7 209.2 100.8 C 209.1 100.6 210.8 100.2 211.2 101.3 C 211.2 101.3 211.2 101.3 211.2 101.3 Z M 201.8 109.0 C 201.9 108.9 202.4 109.2 202.0 109.2 C 201.6 109.2 201.6 109.1 201.8 109.0 C 201.8 109.0 201.8 109.0 201.8 109.0 Z M 205.0 109.1 C 205.6 109.0 205.7 110.3 205.3 110.0 C 204.6 109.5 204.3 109.1 205.0 109.1 C 205.0 109.1 205.0 109.1 205.0 109.1 Z M 222.9 108.5 C 223.4 108.7 223.5 109.1 223.5 109.5 C 223.6 110.4 221.6 107.9 222.9 108.5 M 181.4 88.4 C 181.9 88.5 182.2 88.7 182.3 89.2 C 182.5 90.5 180.0 87.7 181.4 88.4 M 214.8 102.8 C 215.2 103.1 214.4 103.1 214.2 102.8 C 214.1 102.4 214.3 102.4 214.8 102.8 C 214.8 102.8 214.8 102.8 214.8 102.8 Z M 226.9 108.5 C 227.3 108.9 226.5 108.9 226.3 108.6 C 226.2 108.1 226.4 108.2 226.9 108.5 C 226.9 108.5 226.9 108.5 226.9 108.5 Z M 173.2 87.1 C 174.5 87.3 172.9 88.8 172.3 88.8 C 171.0 89.0 172.4 87.7 172.4 87.6 C 172.4 87.5 172.2 88.3 172.5 88.2 C 173.2 87.8 172.8 87.0 173.2 87.1 M 151.4 80.0 C 152.2 80.4 151.7 81.1 151.3 80.6 C 150.8 80.1 150.6 79.5 151.4 80.0 C 151.4 80.0 151.4 80.0 151.4 80.0 Z M 244.7 112.9 C 244.2 111.2 242.5 111.2 240.8 110.4 C 240.6 110.2 238.9 110.4 239.2 110.8 C 240.2 112.2 238.6 114.2 238.4 112.1 C 238.2 110.8 239.6 109.4 237.6 109.2 C 236.1 109.1 237.2 111.2 235.7 111.2 C 235.4 111.2 233.8 111.0 233.7 111.5 C 233.7 112.0 234.5 112.1 234.4 112.6 C 234.2 113.2 233.4 113.7 233.0 114.1 C 232.3 114.9 232.1 116.9 232.7 117.8 C 233.1 118.3 235.0 119.1 233.8 119.7 C 231.6 120.8 236.5 124.4 237.2 123.4 C 237.8 122.6 238.7 122.5 239.6 122.2 C 241.0 121.8 240.9 123.9 241.7 124.4 C 245.6 126.7 243.2 122.4 244.2 121.9 C 244.7 121.6 246.2 122.3 246.7 122.5 C 248.5 123.5 246.7 124.3 246.2 125.9 C 246.0 126.4 250.8 128.6 250.7 126.7 C 252.6 127.5 250.7 128.1 253.3 129.0 C 254.1 129.2 253.5 127.9 254.6 128.2 C 257.1 129.2 255.0 129.5 256.0 129.9 C 256.9 130.3 258.0 130.2 258.8 129.7 C 259.5 129.3 259.5 129.9 260.0 130.3 C 260.8 131.0 261.2 129.5 262.1 129.9 C 265.4 131.5 260.5 131.7 261.6 132.2 C 266.1 134.0 265.7 132.2 268.2 133.2 C 269.2 133.6 269.7 137.0 272.1 135.5 C 275.1 133.5 273.8 137.1 275.8 137.7 C 276.6 137.9 277.0 138.0 277.7 138.3 C 278.2 138.6 277.7 136.8 278.0 136.5 C 278.3 136.3 280.8 135.6 280.5 135.0 C 279.6 133.3 279.1 135.5 277.4 134.8 C 275.5 134.0 277.2 133.8 277.6 133.6 C 278.0 133.7 278.6 133.8 279.0 133.7 C 279.4 133.4 278.5 132.5 278.8 132.1 C 279.1 131.8 282.8 133.3 282.7 133.6 C 282.6 134.3 281.0 133.4 281.3 135.0 C 281.7 136.4 281.5 136.4 280.1 136.6 C 278.1 137.0 280.3 139.5 281.2 139.8 C 281.9 140.1 283.3 140.8 284.0 140.9 C 285.4 140.9 283.6 139.2 286.7 140.8 C 288.4 141.6 293.1 141.1 293.7 142.3 C 293.9 142.7 291.3 143.3 293.8 144.3 C 295.0 144.7 296.2 145.4 297.4 145.9 C 301.3 147.4 298.3 145.6 299.3 145.6 C 300.9 145.6 301.9 147.4 303.3 147.6 C 304.4 147.9 305.3 147.0 306.2 147.9 C 307.2 149.0 307.2 149.3 308.7 149.8 C 308.9 149.9 311.9 150.4 311.8 150.3 C 311.7 149.8 309.8 149.6 310.1 149.2 C 311.2 147.7 312.9 149.4 313.7 150.1 C 314.2 150.6 316.3 150.6 316.0 151.5 C 315.8 152.1 313.9 151.7 314.2 151.9 C 318.1 153.8 320.0 153.0 321.4 153.6 C 323.3 154.4 320.9 154.3 322.9 155.1 C 323.7 155.5 324.4 155.2 325.1 155.0 C 326.0 154.7 326.5 153.7 327.2 153.2 C 328.3 152.3 329.0 152.1 329.4 150.8 C 329.7 150.1 330.0 149.3 329.9 148.5 C 329.9 147.9 328.9 147.7 329.1 147.0 C 329.3 146.3 331.4 145.9 331.2 145.6 C 329.5 143.5 329.0 145.5 328.5 145.5 C 328.1 145.5 328.0 144.6 327.7 144.3 C 327.2 143.8 326.5 143.2 326.6 144.8 C 326.7 144.7 323.8 144.4 323.4 143.1 C 323.2 142.3 320.3 142.0 318.8 141.3 C 318.9 141.9 320.4 144.2 318.2 143.6 C 317.1 143.3 316.7 143.2 316.3 142.0 C 316.2 141.6 317.6 141.7 317.4 141.4 C 317.2 141.2 316.9 141.0 316.6 140.9 C 316.4 140.7 318.1 140.3 317.9 140.2 C 316.1 138.5 312.1 137.2 312.6 139.3 C 312.7 139.7 315.5 141.5 313.9 141.1 C 312.2 140.7 310.8 140.0 309.6 139.6 C 309.8 139.7 309.3 141.3 307.6 140.2 C 307.4 140.2 306.3 139.8 306.6 140.1 C 306.8 140.3 308.5 140.7 308.4 141.2 C 308.3 141.7 306.6 140.6 305.2 139.8 C 303.7 139.0 304.9 140.4 304.0 140.1 C 301.5 139.2 305.7 137.8 301.6 136.5 C 301.3 136.4 302.2 138.0 302.2 138.0 C 302.4 138.9 298.2 134.9 300.7 135.6 C 301.5 135.8 302.5 135.6 301.7 134.7 C 300.7 133.5 300.6 134.4 299.5 134.6 C 300.0 134.5 298.6 133.1 298.5 133.0 C 298.0 132.7 297.4 133.6 297.0 133.2 C 296.8 133.0 294.8 130.3 295.1 132.4 C 295.1 132.9 296.3 134.5 296.1 135.0 C 295.8 135.4 293.4 134.1 293.1 134.0 C 292.3 133.5 292.5 132.5 292.6 132.5 C 291.6 131.8 289.1 133.4 290.3 131.0 C 290.5 130.5 291.0 129.9 290.9 129.3 C 290.9 128.8 289.0 128.5 289.0 128.7 C 288.8 129.6 289.6 130.1 288.8 131.0 C 288.1 131.9 288.8 131.7 288.6 132.2 C 288.5 132.4 286.4 131.8 286.8 131.2 C 287.1 130.8 288.0 130.4 287.5 129.8 C 287.4 129.6 285.7 128.0 285.7 128.4 C 285.6 130.3 284.3 128.9 284.9 128.7 C 285.8 128.5 284.8 126.3 284.0 126.9 C 283.5 127.2 284.7 129.2 282.6 128.6 C 282.5 128.6 281.3 126.3 281.0 128.0 C 280.8 128.9 281.5 130.0 280.2 129.6 C 279.6 129.4 276.8 128.8 276.8 128.0 C 276.8 127.3 279.4 127.6 279.1 126.6 C 278.8 125.8 277.8 127.2 277.5 126.5 C 276.3 124.2 276.8 126.7 275.5 126.3 C 273.9 125.9 274.6 124.0 275.9 124.4 C 275.8 124.4 278.7 125.8 278.2 125.0 C 277.6 124.0 273.1 122.0 273.4 123.7 C 273.5 124.6 273.6 126.6 272.1 125.6 C 272.5 125.8 271.8 121.6 271.1 122.7 C 270.4 124.0 272.0 125.1 270.2 125.4 C 268.0 125.7 266.8 124.5 264.8 123.9 C 264.5 123.8 263.1 123.1 263.2 122.4 C 263.3 121.7 264.3 121.7 264.5 121.8 C 265.7 122.3 261.8 119.0 264.8 119.9 C 265.2 120.0 262.7 119.0 262.3 118.8 C 260.6 118.2 263.3 122.1 261.7 121.5 C 260.7 121.2 257.9 120.5 258.2 119.0 C 258.7 116.7 255.7 119.5 255.3 119.9 C 255.0 120.1 252.4 119.1 251.9 118.6 C 250.4 117.3 252.3 116.8 251.5 116.3 C 251.0 115.9 249.6 115.5 250.7 114.9 C 251.8 114.4 250.1 113.9 249.7 113.8 C 248.8 113.7 247.8 116.6 246.6 116.1 C 244.5 115.5 245.3 114.7 244.7 112.9 M 251.9 117.7 C 252.1 117.3 253.4 117.7 253.2 118.1 C 252.9 118.7 251.7 118.1 251.9 117.7 M 234.9 109.3 C 235.0 108.9 236.4 109.3 236.2 109.7 C 235.9 110.3 234.7 109.7 234.9 109.3 M 259.6 119.3 C 259.8 118.7 261.0 119.6 261.0 120.0 C 260.9 120.8 259.3 119.9 259.6 119.3 M 306.3 138.9 C 305.8 138.8 305.4 138.8 305.2 138.4 C 304.9 137.9 307.2 138.5 306.3 138.9 M 242.0 111.7 C 242.2 111.2 243.8 111.7 243.5 112.3 C 243.1 113.2 241.8 112.2 242.0 111.7 M 237.7 113.4 C 237.9 113.4 238.1 113.5 238.1 113.8 C 238.2 114.1 237.3 113.7 237.7 113.4 M 312.1 137.6 C 312.4 137.6 312.5 137.7 312.6 137.9 C 312.6 138.3 311.8 137.8 312.1 137.6 M 299.5 132.8 C 299.8 132.8 300.1 132.9 300.3 133.3 C 300.3 133.4 298.9 133.2 299.5 132.8 M 294.3 145.2 C 294.7 145.2 294.9 145.3 295.1 145.7 C 295.1 145.8 293.7 145.6 294.3 145.2 M 319.1 140.0 C 319.4 139.6 320.6 140.3 320.6 140.7 C 320.6 141.3 318.8 140.4 319.1 140.0 M 325.2 145.4 C 325.5 145.1 326.9 145.6 326.9 146.1 C 326.8 146.8 325.0 145.7 325.2 145.4 M 248.7 121.5 C 249.7 121.9 248.6 122.2 248.4 121.9 C 248.1 121.5 247.6 121.1 248.7 121.5 C 248.7 121.5 248.7 121.5 248.7 121.5 Z M 270.8 133.3 C 270.5 133.2 269.8 133.1 270.0 132.6 C 270.1 132.2 272.0 133.6 271.8 134.0 C 271.3 134.9 270.8 133.3 270.8 133.3 M 269.6 123.5 C 270.5 125.0 269.4 124.5 268.4 124.5 C 267.7 124.5 268.6 121.9 269.6 123.5 C 269.6 123.5 269.6 123.5 269.6 123.5 Z M 265.1 123.1 C 265.5 123.3 264.7 123.4 264.7 123.4 C 264.4 123.0 264.6 122.9 265.1 123.1 C 265.1 123.1 265.1 123.1 265.1 123.1 Z M 278.2 128.2 C 278.2 128.4 277.5 128.4 277.7 128.1 C 277.8 127.9 278.1 128.0 278.2 128.2 C 278.2 128.2 278.2 128.2 278.2 128.2 Z M 275.4 127.4 C 275.4 127.6 274.1 127.2 274.3 127.0 C 274.4 126.8 275.3 127.2 275.4 127.4 C 275.4 127.4 275.4 127.4 275.4 127.4 Z M 291.4 142.7 C 291.5 142.9 290.2 142.5 290.4 142.3 C 290.5 142.0 291.4 142.5 291.4 142.7 C 291.4 142.7 291.4 142.7 291.4 142.7 Z M 270.9 126.7 C 270.9 127.4 269.2 127.6 269.8 126.6 C 270.2 125.8 270.9 126.0 270.9 126.7 C 270.9 126.7 270.9 126.7 270.9 126.7 Z M 282.7 138.1 C 283.5 137.6 283.7 139.4 283.9 139.4 C 283.7 139.4 282.1 138.4 282.7 138.1 M 314.6 139.0 C 315.4 138.6 315.6 140.4 315.8 140.4 C 315.6 140.4 314.0 139.4 314.6 139.0 M 287.1 127.9 C 287.9 127.4 288.0 129.2 288.2 129.2 C 288.0 129.2 286.5 128.2 287.1 127.9 M 253.8 117.1 C 254.2 116.8 254.7 118.3 254.4 118.3 C 253.9 118.4 253.5 117.4 253.8 117.1 M 265.1 134.0 C 265.2 133.5 266.5 134.3 266.3 134.5 C 266.0 134.9 265.0 134.5 265.1 134.0 M 239.2 123.3 C 239.3 122.8 240.6 123.6 240.4 123.8 C 240.1 124.2 239.2 123.8 239.2 123.3 M 306.3 149.4 C 306.3 148.8 307.7 149.8 307.4 149.9 C 307.2 149.9 306.2 149.5 306.3 149.4 M 288.8 133.2 C 288.2 132.8 292.9 135.4 289.7 135.3 C 289.0 135.3 288.4 134.9 288.1 134.7 C 286.4 133.7 289.4 134.5 289.4 134.1 C 289.4 133.8 288.6 133.6 288.6 133.6 C 288.6 133.6 289.4 133.6 288.8 133.2 C 288.8 133.2 288.8 133.2 288.8 133.2 Z M 295.4 142.3 C 295.6 142.0 296.4 143.3 296.2 143.4 C 295.7 143.6 295.0 142.8 295.4 142.3 M 294.0 132.5 C 294.3 132.2 295.0 133.5 294.8 133.5 C 294.4 133.7 293.6 132.9 294.0 132.5 M 308.2 138.0 C 308.8 137.7 309.2 139.5 308.7 139.5 C 307.9 139.5 307.3 138.6 308.2 138.0 M 310.2 138.0 C 310.5 138.2 310.1 138.5 310.0 138.3 C 309.8 138.0 310.0 137.7 310.2 138.0 C 310.2 138.0 310.2 138.0 310.2 138.0 Z M 326.3 142.8 C 326.5 143.1 326.1 143.3 326.0 143.1 C 325.8 142.8 326.0 142.5 326.3 142.8 C 326.3 142.8 326.3 142.8 326.3 142.8 Z M 303.5 136.7 C 303.8 136.9 303.4 137.2 303.2 136.9 C 303.1 136.7 303.3 136.4 303.5 136.7 C 303.5 136.7 303.5 136.7 303.5 136.7 Z M 312.8 151.2 C 313.0 151.3 312.9 151.7 312.7 151.6 C 312.3 151.4 312.5 151.2 312.8 151.2 C 312.8 151.2 312.8 151.2 312.8 151.2 Z M 311.7 149.1 C 312.0 149.2 311.9 149.5 311.6 149.4 C 311.3 149.2 311.4 149.0 311.7 149.1 C 311.7 149.1 311.7 149.1 311.7 149.1 Z M 246.0 113.4 C 245.8 112.6 247.2 113.2 247.3 114.4 C 247.4 115.2 247.2 115.3 246.5 115.1 C 245.0 114.7 246.2 114.3 246.0 113.4 M 318.6 151.7 C 319.8 152.5 318.7 152.7 317.6 152.2 C 317.6 152.2 317.4 150.9 318.6 151.7 C 318.6 151.7 318.6 151.7 318.6 151.7 Z M 301.0 138.2 C 301.8 138.1 302.4 139.3 301.2 139.4 C 300.5 139.4 300.4 138.2 301.0 138.2 M 311.0 138.6 C 311.8 138.5 312.4 139.7 311.3 139.8 C 310.5 139.8 310.4 138.6 311.0 138.6 M 270.3 121.1 C 271.1 121.0 271.7 122.3 270.6 122.3 C 269.8 122.4 269.8 121.2 270.3 121.1 M 321.8 143.2 C 323.2 143.2 325.0 145.4 322.5 145.3 C 321.2 145.2 320.5 143.2 321.8 143.2 M 266.4 122.4 C 265.9 122.5 265.5 121.7 266.2 121.6 C 266.7 121.5 266.8 122.3 266.4 122.4 M 279.5 132.7 C 280.1 132.8 280.6 133.0 281.0 133.3 C 281.9 134.7 278.3 132.9 279.5 132.7 M 292.1 133.8 C 292.3 133.8 291.7 134.3 291.6 134.1 C 291.5 133.8 291.9 133.7 292.1 133.8 C 292.1 133.8 292.1 133.8 292.1 133.8 Z M 285.5 131.3 C 285.3 131.5 283.7 130.6 283.9 130.5 C 284.1 130.4 285.7 131.1 285.5 131.3 C 285.5 131.3 285.5 131.3 285.5 131.3 Z M 248.2 116.9 C 249.7 117.8 247.7 117.5 247.8 117.3 C 247.9 116.7 247.9 116.7 248.2 116.9 C 248.2 116.9 248.2 116.9 248.2 116.9 Z M 316.6 148.0 C 317.1 148.3 315.9 148.6 315.9 148.4 C 316.0 147.7 316.0 147.6 316.6 148.0 C 316.6 148.0 316.6 148.0 316.6 148.0 Z M 303.4 134.6 C 303.9 135.0 302.3 134.7 302.4 134.4 C 302.5 133.7 302.9 134.2 303.4 134.6 C 303.4 134.6 303.4 134.6 303.4 134.6 Z M 328.6 143.7 C 329.1 144.1 327.5 143.7 327.5 143.5 C 327.7 142.8 328.1 143.3 328.6 143.7 C 328.6 143.7 328.6 143.7 328.6 143.7 Z M 243.4 114.6 C 244.6 115.5 241.6 116.5 241.7 115.7 C 242.1 113.8 242.1 113.6 243.4 114.6 C 243.4 114.6 243.4 114.6 243.4 114.6 Z M 288.8 130.6 C 289.1 130.8 288.3 131.1 288.3 130.9 C 288.4 130.4 288.4 130.3 288.8 130.6 C 288.8 130.6 288.8 130.6 288.8 130.6 Z M 261.0 118.1 C 261.3 118.4 260.5 118.7 260.6 118.5 C 260.7 117.9 260.7 117.9 261.0 118.1 C 261.0 118.1 261.0 118.1 261.0 118.1 Z M 255.3 118.7 C 255.5 118.9 254.9 119.1 254.9 119.0 C 255.0 118.5 255.0 118.5 255.3 118.7 C 255.3 118.7 255.3 118.7 255.3 118.7 Z M 252.9 129.2 C 253.2 129.4 252.5 129.6 252.5 129.4 C 252.6 129.0 252.6 128.9 252.9 129.2 C 252.9 129.2 252.9 129.2 252.9 129.2 Z M 256.3 125.2 C 257.1 125.8 255.2 126.4 255.2 125.9 C 255.5 124.7 255.5 124.6 256.3 125.2 C 256.3 125.2 256.3 125.2 256.3 125.2 Z M 245.7 123.2 C 246.1 123.5 245.1 123.9 245.1 123.6 C 245.3 122.9 245.3 122.9 245.7 123.2 C 245.7 123.2 245.7 123.2 245.7 123.2 Z M 245.4 124.6 C 245.6 124.8 245.1 125.0 245.1 124.8 C 245.2 124.5 245.2 124.5 245.4 124.6 C 245.4 124.6 245.4 124.6 245.4 124.6 Z M 310.0 141.4 C 310.4 141.8 309.3 142.2 309.4 141.9 C 309.5 141.1 309.6 141.0 310.0 141.4 C 310.0 141.4 310.0 141.4 310.0 141.4 Z M 303.1 143.6 C 304.3 142.7 305.7 145.1 304.0 144.4 C 302.4 143.8 301.9 144.4 303.1 143.6 C 303.1 143.6 303.1 143.6 303.1 143.6 Z M 272.1 129.6 C 272.7 129.1 273.4 130.4 272.5 130.1 C 271.7 129.8 271.4 130.1 272.1 129.6 C 272.1 129.6 272.1 129.6 272.1 129.6 Z M 273.6 136.3 C 273.9 136.1 274.1 136.7 273.8 136.6 C 273.5 136.4 273.3 136.6 273.6 136.3 C 273.6 136.3 273.6 136.3 273.6 136.3 Z M 256.2 116.3 C 256.6 116.9 255.6 117.5 255.6 116.9 C 255.5 116.2 255.8 115.6 256.2 116.3 C 256.2 116.3 256.2 116.3 256.2 116.3 Z M 249.5 115.7 C 249.4 115.8 248.8 116.4 248.7 116.1 C 248.2 114.8 249.9 115.4 249.5 115.7 M 280.5 125.9 C 281.6 126.1 281.2 127.4 280.2 126.7 C 279.2 126.1 279.8 125.8 280.5 125.9 C 280.5 125.9 280.5 125.9 280.5 125.9 Z M 298.5 136.4 C 299.0 136.5 298.7 137.0 298.2 136.9 C 297.9 136.8 298.1 136.4 298.5 136.4 C 298.5 136.4 298.5 136.4 298.5 136.4 Z M 318.2 142.3 C 319.0 142.3 318.4 143.2 317.6 143.1 C 317.1 142.9 317.4 142.2 318.2 142.3 C 318.2 142.3 318.2 142.3 318.2 142.3 Z M 292.4 130.7 C 293.2 130.8 292.6 131.6 291.8 131.4 C 291.2 131.3 291.5 130.6 292.4 130.7 C 292.4 130.7 292.4 130.7 292.4 130.7 Z M 282.5 129.2 C 283.4 129.3 282.8 130.1 281.9 129.9 C 281.3 129.8 281.7 129.1 282.5 129.2 C 282.5 129.2 282.5 129.2 282.5 129.2 Z M 321.3 146.8 C 321.7 147.5 320.9 147.6 320.7 147.1 C 320.4 146.4 320.9 146.1 321.3 146.8 C 321.3 146.8 321.3 146.8 321.3 146.8 Z M 294.6 131.2 C 294.8 131.5 294.4 131.6 294.3 131.3 C 294.2 131.0 294.4 130.8 294.6 131.2 C 294.6 131.2 294.6 131.2 294.6 131.2 Z M 297.7 139.9 C 298.6 140.0 297.6 141.1 296.9 140.3 C 296.3 139.6 297.4 139.9 297.7 139.9 C 297.7 139.9 297.7 139.9 297.7 139.9 Z M 251.5 113.0 C 251.9 113.0 251.4 113.6 251.2 113.3 C 250.9 112.9 251.4 113.0 251.5 113.0 C 251.5 113.0 251.5 113.0 251.5 113.0 Z M 322.5 144.1 C 322.9 144.1 322.4 144.7 322.2 144.3 C 322.0 144.0 322.4 144.1 322.5 144.1 C 322.5 144.1 322.5 144.1 322.5 144.1 Z M 324.4 142.6 C 324.8 142.6 324.3 143.2 324.1 142.9 C 323.8 142.5 324.3 142.6 324.4 142.6 C 324.4 142.6 324.4 142.6 324.4 142.6 Z M 307.1 147.6 C 306.6 147.6 304.4 146.8 305.3 146.1 C 306.5 145.2 306.9 146.7 308.0 147.1 C 308.9 147.5 307.1 145.7 309.7 146.7 C 310.4 147.0 309.1 145.8 309.3 145.3 C 309.4 144.8 314.5 147.1 313.1 147.8 C 312.6 148.0 311.0 147.8 310.5 147.7 C 309.2 147.4 309.5 147.9 308.2 148.0 C 307.8 147.9 307.5 147.7 307.1 147.6 C 307.1 147.6 307.1 147.6 307.1 147.6 Z M 333.8 145.3 C 331.2 144.7 332.8 145.4 331.2 146.3 C 330.9 146.5 328.5 146.8 328.6 147.2 C 328.7 147.9 330.3 147.8 330.5 148.4 C 330.8 149.7 328.5 149.1 328.1 149.4 C 327.0 150.4 327.8 152.0 328.5 153.0 C 329.3 154.4 329.6 152.6 330.4 152.7 C 331.1 152.7 330.3 154.0 330.1 154.3 C 329.3 155.5 328.2 154.1 328.0 156.1 C 327.8 157.4 327.7 157.9 329.2 158.0 C 330.4 158.0 330.8 156.7 331.5 156.0 C 331.9 155.6 335.2 157.1 334.0 157.9 C 333.1 158.3 332.5 158.9 333.8 159.3 C 334.3 159.4 334.8 159.3 335.2 159.1 C 336.0 158.8 336.2 159.8 337.0 159.7 C 338.9 159.5 340.2 162.8 342.5 162.8 C 342.9 162.7 345.6 160.9 345.6 163.4 C 346.1 163.7 346.7 162.5 347.0 162.7 C 348.1 163.2 347.5 163.9 347.8 164.3 C 348.5 164.7 352.3 164.0 351.9 165.2 C 351.3 167.1 354.7 167.4 355.0 167.0 C 355.2 166.9 357.7 168.4 359.3 168.7 C 359.1 168.5 359.0 168.3 358.8 168.2 C 359.1 168.2 359.6 168.2 359.7 168.2 C 359.2 168.0 357.5 166.7 357.3 166.1 C 357.2 165.9 361.4 166.3 360.7 167.5 C 360.3 168.1 360.0 168.6 361.1 168.6 C 362.6 168.8 361.0 169.1 361.9 169.8 C 363.2 170.8 364.1 168.9 364.9 170.5 C 365.5 171.6 365.8 170.9 366.7 171.0 C 368.5 171.3 368.1 172.7 369.6 173.1 C 369.7 173.1 372.7 174.1 372.2 173.2 C 371.8 172.5 370.5 171.8 370.3 171.0 C 370.0 169.4 373.4 172.5 373.0 172.2 C 373.8 172.7 376.4 171.8 376.8 172.4 C 377.1 172.9 374.3 173.4 374.0 173.5 C 372.8 174.0 376.7 175.2 376.7 175.1 C 377.2 175.5 378.2 175.0 378.5 175.4 C 379.0 176.1 379.0 176.3 379.9 176.5 C 380.5 176.7 380.8 176.9 381.4 177.1 C 382.2 177.4 382.9 176.2 383.6 176.0 C 384.9 175.8 384.4 177.0 384.9 177.5 C 386.0 178.5 389.4 178.1 389.5 179.3 C 389.5 180.8 392.5 178.5 393.3 180.2 C 393.5 180.8 394.7 181.6 395.1 181.4 C 394.2 182.0 396.8 182.9 397.3 183.1 C 397.9 183.5 398.6 183.0 399.2 183.0 C 400.1 182.9 400.4 184.0 400.8 184.5 C 401.9 185.7 402.0 183.1 402.8 184.3 C 404.1 186.3 404.3 182.5 404.9 182.5 C 405.2 182.6 405.4 185.2 405.6 185.5 C 405.9 186.1 406.3 184.8 406.5 185.4 C 406.8 186.1 407.3 187.2 408.3 186.7 C 408.8 186.4 408.7 184.8 409.2 185.2 C 409.3 185.3 410.0 186.2 410.2 186.0 C 411.3 183.7 411.2 189.0 409.9 187.5 C 410.5 188.2 414.7 190.1 415.1 189.1 C 415.4 188.5 413.4 187.7 414.0 187.2 C 415.0 186.4 417.8 189.3 416.5 189.4 C 417.4 189.4 418.5 191.6 419.9 191.4 C 420.2 191.3 421.0 192.0 421.1 191.8 C 421.3 191.4 421.5 190.4 421.9 190.3 C 422.7 189.9 424.6 189.8 424.6 188.6 C 424.7 188.3 424.3 183.7 424.1 183.9 C 424.5 183.5 425.6 184.1 425.8 183.5 C 426.3 182.6 422.5 182.5 423.4 181.3 C 423.4 181.3 422.4 180.7 422.5 180.3 C 422.6 179.2 423.0 179.7 421.9 179.1 C 420.9 178.6 421.6 179.2 420.9 179.7 C 420.5 179.9 420.3 177.7 418.5 178.1 C 419.7 178.9 419.0 179.2 419.4 180.2 C 419.9 181.6 417.9 180.9 417.4 180.8 C 415.1 180.3 414.4 179.4 413.1 177.8 C 412.3 176.9 416.0 174.9 413.3 176.0 C 412.1 176.5 408.7 174.4 407.3 174.4 C 407.3 174.4 408.1 175.4 408.0 175.5 C 407.4 177.6 403.7 174.2 403.2 173.5 C 402.5 172.5 402.4 173.2 402.6 174.2 C 402.9 175.4 401.7 175.1 401.0 174.8 C 400.6 174.6 399.5 173.9 399.1 174.1 C 398.5 174.3 398.1 171.0 397.7 170.6 C 396.9 169.7 396.2 170.8 395.2 169.8 C 395.1 169.7 393.1 167.3 392.9 167.9 C 392.5 169.1 396.7 171.4 392.7 170.6 C 392.5 170.5 387.9 169.2 388.7 168.6 C 389.1 168.4 389.6 168.8 390.0 168.8 C 388.4 168.8 388.9 165.6 386.6 165.6 C 385.4 165.6 380.9 163.0 382.0 165.2 C 382.9 167.2 380.6 167.2 379.6 165.8 C 378.8 164.6 378.5 164.3 377.0 164.6 C 376.8 164.6 373.8 164.0 374.4 163.3 C 374.7 162.9 375.7 163.6 376.1 162.8 C 376.3 162.3 375.9 161.6 375.3 161.7 C 374.7 161.7 374.4 162.4 373.9 162.7 C 373.8 162.7 372.7 161.8 372.6 161.7 C 371.9 161.3 370.7 161.1 370.2 160.4 C 369.8 159.9 370.9 159.7 370.6 159.3 C 369.1 157.4 369.8 161.7 369.9 161.6 C 369.9 161.7 367.0 161.8 366.7 161.7 C 364.8 161.3 364.6 160.3 364.7 158.6 C 364.7 158.3 367.4 159.0 367.4 159.0 C 366.7 156.5 364.1 157.3 362.7 156.5 C 362.2 156.2 359.5 154.1 359.5 156.0 C 359.4 157.1 358.5 156.3 358.0 156.2 C 358.2 156.2 359.3 158.4 359.6 158.8 C 358.3 158.5 356.9 158.2 355.7 157.7 C 355.0 157.5 354.0 157.2 353.5 156.7 C 353.2 156.4 353.4 154.9 352.4 155.2 C 353.0 155.0 353.8 155.2 354.4 155.2 C 353.8 154.8 353.3 152.1 352.0 152.8 C 351.6 153.1 351.9 153.8 351.2 153.7 C 350.5 153.5 349.8 153.3 349.0 153.3 C 348.4 153.3 347.8 155.7 346.1 153.9 C 346.2 154.0 345.9 151.9 345.8 152.0 C 346.0 151.1 346.0 150.7 345.0 150.3 C 345.6 150.5 344.4 153.2 343.0 153.0 C 341.6 152.7 338.8 151.5 339.7 149.5 C 338.9 148.8 338.6 147.3 336.8 147.9 C 335.7 148.4 333.7 148.0 333.1 146.8 C 332.9 146.5 334.5 146.7 334.7 146.5 C 335.0 146.3 334.0 145.3 333.8 145.3 M 336.1 146.7 C 336.2 147.4 334.5 146.5 335.4 146.1 C 335.7 146.1 336.0 146.4 336.1 146.7 M 334.7 147.3 C 334.3 147.4 334.4 147.0 334.5 147.0 C 334.7 147.0 335.1 147.2 334.7 147.3 C 334.7 147.3 334.7 147.3 334.7 147.3 Z M 347.9 153.1 C 347.2 152.9 347.3 152.7 347.9 152.6 C 348.4 152.4 348.7 153.2 347.9 153.1 C 347.9 153.1 347.9 153.1 347.9 153.1 Z M 354.5 168.2 C 353.7 168.0 353.8 167.8 354.4 167.7 C 355.0 167.6 355.2 168.3 354.5 168.2 C 354.5 168.2 354.5 168.2 354.5 168.2 Z M 356.9 156.7 C 356.8 156.8 356.5 156.7 356.5 156.5 C 356.6 156.3 356.9 156.5 356.9 156.7 C 356.9 156.7 356.9 156.7 356.9 156.7 Z M 342.9 152.0 C 342.8 152.1 342.5 152.0 342.5 151.8 C 342.6 151.6 342.9 151.8 342.9 152.0 C 342.9 152.0 342.9 152.0 342.9 152.0 Z M 356.6 154.7 C 357.0 155.1 355.6 155.8 355.5 153.9 C 355.5 153.5 356.8 154.4 356.9 154.6 C 357.0 154.7 356.4 154.5 356.6 154.7 M 368.6 158.5 C 368.9 158.7 368.9 158.9 368.6 159.2 C 368.6 159.2 367.7 158.3 368.6 158.5 M 389.6 181.2 C 389.9 181.5 389.9 181.7 389.7 181.9 C 389.6 182.0 388.7 181.1 389.6 181.2 M 396.7 168.9 C 397.1 168.8 397.5 169.7 397.3 169.8 C 396.9 170.0 396.0 169.1 396.7 168.9 M 379.7 164.6 C 379.9 164.5 381.7 165.2 381.2 165.5 C 380.7 165.6 379.5 164.6 379.7 164.6 M 405.8 173.4 C 405.5 173.1 405.1 172.7 404.8 172.4 C 404.6 172.3 407.7 172.7 407.4 173.5 C 407.2 174.0 406.0 173.5 405.8 173.4 M 410.6 174.0 C 410.9 173.9 411.8 174.6 411.6 175.0 C 411.3 175.5 410.1 174.2 410.6 174.0 M 390.0 167.0 C 390.2 167.2 389.9 167.5 389.5 167.3 C 389.1 167.0 389.7 166.8 390.0 167.0 C 390.0 167.0 390.0 167.0 390.0 167.0 Z M 378.4 163.3 C 378.2 163.3 377.1 162.4 377.6 162.2 C 378.8 161.7 381.7 163.9 378.4 163.3 M 350.1 152.1 C 350.1 152.1 351.4 151.9 351.2 152.9 C 350.9 154.1 350.2 152.1 350.1 152.1 M 344.5 151.0 C 344.8 151.2 344.4 151.5 344.2 151.2 C 343.9 150.9 344.2 150.8 344.5 151.0 C 344.5 151.0 344.5 151.0 344.5 151.0 Z M 398.6 170.5 C 398.9 170.9 398.0 170.7 398.1 170.5 C 398.1 170.3 398.3 170.2 398.6 170.5 C 398.6 170.5 398.6 170.5 398.6 170.5 Z M 403.9 172.2 C 404.3 172.6 403.3 172.4 403.4 172.1 C 403.4 171.9 403.6 171.9 403.9 172.2 C 403.9 172.2 403.9 172.2 403.9 172.2 Z M 408.0 187.7 C 408.3 188.0 407.4 187.8 407.5 187.6 C 407.5 187.4 407.7 187.3 408.0 187.7 C 408.0 187.7 408.0 187.7 408.0 187.7 Z M 346.5 157.6 C 346.1 157.6 345.9 157.5 345.9 157.1 C 346.1 156.8 346.3 156.7 346.6 156.8 C 346.2 156.7 344.5 155.8 345.7 155.5 C 346.7 155.2 347.3 156.6 348.2 156.6 C 348.6 156.6 349.2 156.0 349.2 155.8 C 349.2 155.9 349.9 156.4 349.8 157.6 C 349.7 159.0 347.0 157.4 346.5 157.6 M 373.6 165.7 C 373.8 165.8 375.2 166.6 375.1 166.8 C 373.8 168.5 370.8 165.0 372.1 163.6 C 373.7 161.8 374.1 166.1 373.6 165.7 M 410.2 177.0 C 409.0 176.6 411.5 178.5 411.2 179.0 C 410.6 179.7 408.9 177.4 408.8 177.0 C 408.1 174.7 411.7 176.1 411.5 177.2 C 411.1 177.3 410.6 177.3 410.2 177.0 M 417.6 178.8 C 418.0 179.4 415.1 178.6 414.8 178.4 C 414.4 177.9 415.0 177.3 415.4 177.1 C 416.7 176.7 417.1 178.0 417.6 178.8 M 368.0 160.6 C 368.7 161.7 365.0 160.8 365.6 159.8 C 365.9 159.3 367.8 160.2 368.0 160.6 M 387.1 175.6 C 386.8 174.8 389.5 176.0 389.7 175.9 C 390.1 175.9 389.2 174.3 389.4 174.4 C 390.6 175.2 396.5 177.6 391.4 176.9 C 390.3 176.8 389.1 177.8 388.1 177.6 C 386.0 177.3 387.5 176.8 387.1 175.6 M 336.3 149.5 C 337.0 150.0 336.9 148.6 337.5 148.6 C 338.2 148.6 338.4 150.3 337.8 150.6 C 335.4 151.6 333.7 147.8 336.3 149.5 M 349.8 154.9 C 349.2 154.5 349.7 154.2 350.1 154.5 C 350.6 154.7 350.5 155.3 349.8 154.9 C 349.8 154.9 349.8 154.9 349.8 154.9 Z M 355.4 156.4 C 355.8 156.4 356.2 157.2 355.9 157.5 C 355.4 158.0 354.2 156.1 355.4 156.4 M 339.7 147.1 C 340.0 147.1 340.5 147.9 340.1 148.2 C 339.6 148.7 338.4 146.8 339.7 147.1 M 388.4 171.7 C 388.7 171.8 389.2 172.6 388.9 172.9 C 388.4 173.3 387.2 171.4 388.4 171.7 M 378.3 165.1 C 379.3 165.4 379.5 167.7 378.6 167.1 C 378.0 166.8 376.5 164.7 378.3 165.1 M 362.8 167.3 C 363.0 167.4 363.1 167.6 363.3 167.7 C 363.7 169.6 359.4 166.2 362.8 167.3 M 387.5 167.0 C 389.2 167.5 387.0 169.8 386.1 169.4 C 384.1 168.4 385.9 166.5 387.5 167.0 M 375.8 163.8 C 375.6 163.4 376.5 163.4 376.7 164.1 C 376.7 164.3 376.1 164.2 375.8 163.8 C 375.8 163.8 375.8 163.8 375.8 163.8 Z M 388.3 176.5 C 388.3 176.8 388.0 176.8 388.0 176.5 C 387.9 176.2 388.3 176.2 388.3 176.5 C 388.3 176.5 388.3 176.5 388.3 176.5 Z M 390.0 176.9 C 390.2 177.1 389.6 177.3 389.4 177.0 C 389.0 176.5 389.7 176.7 390.0 176.9 C 390.0 176.9 390.0 176.9 390.0 176.9 Z M 392.2 168.3 C 392.5 168.5 391.8 168.7 391.6 168.4 C 391.3 167.9 392.0 168.1 392.2 168.3 C 392.2 168.3 392.2 168.3 392.2 168.3 Z M 340.5 160.4 C 342.1 160.8 341.8 161.3 340.6 160.8 C 339.9 160.4 339.0 160.0 340.5 160.4 C 340.5 160.4 340.5 160.4 340.5 160.4 Z M 360.9 156.4 C 363.4 156.9 362.2 160.0 360.2 158.3 C 360.2 158.3 358.5 155.9 360.9 156.4 C 360.9 156.4 360.9 156.4 360.9 156.4 Z M 366.2 163.5 C 366.5 163.4 366.4 164.1 366.0 164.1 C 365.7 164.1 365.9 163.6 366.2 163.5 C 366.2 163.5 366.2 163.5 366.2 163.5 Z M 385.9 164.0 C 386.2 163.9 386.1 164.5 385.7 164.6 C 385.3 164.6 385.6 164.1 385.9 164.0 C 385.9 164.0 385.9 164.0 385.9 164.0 Z M 342.2 161.5 C 342.5 161.4 342.5 162.1 342.0 162.1 C 341.7 162.1 341.9 161.7 342.2 161.5 C 342.2 161.5 342.2 161.5 342.2 161.5 Z M 402.1 174.2 C 402.4 174.0 402.3 174.7 401.9 174.8 C 401.6 174.8 401.8 174.3 402.1 174.2 C 402.1 174.2 402.1 174.2 402.1 174.2 Z M 378.0 173.2 C 377.9 172.5 379.7 173.4 378.8 173.4 C 377.8 173.4 378.1 173.9 378.0 173.2 C 378.0 173.2 378.0 173.2 378.0 173.2 Z M 383.6 175.3 C 383.6 174.9 384.4 175.1 384.0 175.4 C 383.8 175.6 383.5 175.7 383.6 175.3 C 383.6 175.3 383.6 175.3 383.6 175.3 Z M 412.1 174.3 C 412.1 173.9 412.9 174.1 412.5 174.4 C 412.3 174.6 412.0 174.7 412.1 174.3 C 412.1 174.3 412.1 174.3 412.1 174.3 Z M 396.6 183.9 C 396.6 183.5 397.4 183.7 397.0 184.0 C 396.8 184.2 396.5 184.3 396.6 183.9 C 396.6 183.9 396.6 183.9 396.6 183.9 Z M 402.7 181.6 C 403.2 182.0 402.7 182.3 402.5 181.7 C 402.3 181.3 402.3 181.2 402.7 181.6 C 402.7 181.6 402.7 181.6 402.7 181.6 Z M 390.9 168.8 C 391.1 168.5 394.4 170.0 392.6 169.8 C 391.7 169.7 390.5 169.5 390.9 168.8 C 390.9 168.8 390.9 168.8 390.9 168.8 Z M 417.0 185.7 C 417.4 185.5 417.5 186.2 417.2 186.5 C 417.2 186.5 416.5 185.8 417.0 185.7 C 417.0 185.7 417.0 185.7 417.0 185.7 Z M 421.6 182.0 C 422.0 181.9 422.1 182.6 421.8 182.9 C 421.8 182.9 421.1 182.2 421.6 182.0 C 421.6 182.0 421.6 182.0 421.6 182.0 Z M 423.9 180.0 C 424.4 179.9 424.5 180.6 424.1 180.9 C 424.1 180.9 423.5 180.2 423.9 180.0 C 423.9 180.0 423.9 180.0 423.9 180.0 Z M 353.4 161.4 C 352.6 161.5 353.2 160.8 353.2 160.8 C 354.3 161.3 354.3 161.3 353.4 161.4 C 353.4 161.4 353.4 161.4 353.4 161.4 Z M 354.1 152.9 C 353.8 153.0 354.0 152.6 354.0 152.6 C 354.5 152.8 354.5 152.8 354.1 152.9 C 354.1 152.9 354.1 152.9 354.1 152.9 Z M 361.8 155.4 C 361.5 155.4 361.7 155.1 361.7 155.1 C 362.2 155.3 362.1 155.3 361.8 155.4 C 361.8 155.4 361.8 155.4 361.8 155.4 Z M 350.3 165.5 C 349.8 165.6 350.2 165.2 350.2 165.2 C 350.8 165.5 350.8 165.5 350.3 165.5 C 350.3 165.5 350.3 165.5 350.3 165.5 Z M 381.1 169.6 C 380.3 169.7 380.9 169.0 380.9 169.0 C 381.9 169.5 381.9 169.5 381.1 169.6 C 381.1 169.6 381.1 169.6 381.1 169.6 Z M 382.6 173.7 C 381.8 173.8 382.3 173.1 382.3 173.1 C 383.3 173.6 383.3 173.6 382.6 173.7 C 382.6 173.7 382.6 173.7 382.6 173.7 Z M 374.5 175.4 C 374.2 175.5 374.4 175.2 374.4 175.2 C 374.8 175.4 374.8 175.4 374.5 175.4 C 374.5 175.4 374.5 175.4 374.5 175.4 Z M 383.6 177.2 C 383.3 177.2 383.5 176.9 383.5 176.9 C 384.0 177.1 384.0 177.1 383.6 177.2 C 383.6 177.2 383.6 177.2 383.6 177.2 Z M 331.9 157.0 C 332.4 157.2 332.3 157.5 331.8 157.2 C 331.4 157.1 331.4 156.9 331.9 157.0 C 331.9 157.0 331.9 157.0 331.9 157.0 Z M 333.5 150.9 C 334.4 151.1 334.1 152.0 332.9 151.3 C 332.4 151.0 332.7 150.7 333.5 150.9 C 333.5 150.9 333.5 150.9 333.5 150.9 Z M 383.6 165.7 C 383.3 165.5 384.4 165.6 384.4 165.6 C 384.8 165.8 384.7 166.6 384.8 166.7 C 384.4 166.3 383.9 166.0 383.6 165.7 M 372.5 162.4 C 372.8 162.6 372.4 162.8 372.2 162.6 C 372.0 162.4 372.1 162.1 372.5 162.4 C 372.5 162.4 372.5 162.4 372.5 162.4 Z M 401.6 172.7 C 402.0 173.8 399.8 173.1 399.6 172.2 C 399.6 172.0 401.2 171.5 401.6 172.7 C 401.6 172.7 401.6 172.7 401.6 172.7 Z M 392.2 180.4 C 392.4 180.3 392.8 180.6 392.5 180.6 C 392.0 180.6 392.0 180.5 392.2 180.4 C 392.2 180.4 392.2 180.4 392.2 180.4 Z M 395.4 180.5 C 396.1 180.4 396.2 181.7 395.7 181.3 C 395.1 180.9 394.7 180.5 395.4 180.5 C 395.4 180.5 395.4 180.5 395.4 180.5 Z M 413.4 179.9 C 413.8 180.1 414.0 180.5 414.0 180.9 C 414.1 181.8 412.0 179.3 413.4 179.9 M 371.9 159.8 C 372.3 159.9 372.6 160.1 372.8 160.5 C 372.9 161.8 370.4 159.1 371.9 159.8 M 405.2 174.1 C 405.7 174.5 404.8 174.5 404.7 174.2 C 404.5 173.7 404.7 173.8 405.2 174.1 C 405.2 174.1 405.2 174.1 405.2 174.1 Z M 417.3 179.9 C 417.8 180.3 416.9 180.3 416.8 180.0 C 416.6 179.5 416.9 179.6 417.3 179.9 C 417.3 179.9 417.3 179.9 417.3 179.9 Z M 363.6 158.5 C 364.9 158.7 363.3 160.2 362.8 160.2 C 361.4 160.4 362.9 159.0 362.9 159.0 C 362.9 158.9 362.6 159.7 362.9 159.6 C 363.6 159.2 363.2 158.4 363.6 158.5 M 341.9 151.3 C 342.7 151.8 342.2 152.5 341.7 152.0 C 341.2 151.5 341.0 150.9 341.9 151.3 C 341.9 151.3 341.9 151.3 341.9 151.3 Z M 341.9 151.3 " fill="#9437FF"></path><path d="M 433.2 223.2 C 432.4 224.3 428.6 224.1 431.8 222.8 C 432.0 222.7 433.5 222.7 433.2 223.2 Z M 439.6 222.0 C 439.1 222.2 438.7 222.1 438.3 221.9 C 437.4 220.9 441.3 221.7 439.6 222.0 Z M 429.9 222.4 C 429.8 222.6 427.7 223.0 428.0 222.5 C 428.4 222.1 430.0 222.3 429.9 222.4 Z M 445.0 218.5 C 445.0 219.1 442.8 219.4 442.4 219.2 C 441.2 218.6 444.9 217.3 445.0 218.5 Z M 433.9 204.2 C 433.9 204.0 434.0 203.8 434.0 203.7 C 434.0 203.9 433.9 204.0 433.9 204.2 Z M 475.2 214.4 C 474.9 214.6 474.0 214.2 474.1 213.8 C 474.3 213.1 476.5 214.0 475.2 214.4 Z M 445.9 169.0 C 445.9 169.0 445.2 169.7 445.0 169.2 C 444.9 168.8 445.6 168.7 445.9 169.0 Z M 445.2 168.8 C 444.7 168.8 444.8 168.0 445.2 168.2 C 445.6 168.6 445.7 168.8 445.2 168.8 Z M 470.6 186.7 C 470.8 186.9 471.0 187.0 470.7 187.0 C 470.4 187.0 470.3 186.4 470.6 186.7 Z M 469.5 186.5 C 468.9 186.5 469.1 185.6 469.5 185.8 C 469.9 186.2 470.1 186.4 469.5 186.5 Z M 467.7 179.5 C 467.9 179.7 468.1 179.8 467.8 179.8 C 467.5 179.8 467.3 179.2 467.7 179.5 Z M 439.1 182.8 C 438.9 182.5 439.6 181.5 440.0 181.7 C 440.6 182.1 439.2 183.3 439.1 182.8 Z M 439.3 181.3 C 438.9 181.3 439.1 180.4 439.4 180.8 C 439.6 181.0 439.7 181.3 439.3 181.3 Z M 438.5 186.0 C 439.1 186.2 438.6 187.4 438.4 187.6 C 438.1 187.9 437.8 188.4 437.4 188.7 C 437.3 188.8 437.7 185.7 438.5 186.0 Z M 435.6 195.5 C 435.4 195.4 435.3 195.3 435.6 194.9 C 436.0 194.6 435.8 195.6 435.6 195.5 Z M 437.2 190.1 C 437.0 190.0 436.9 189.9 437.3 189.5 C 437.6 189.2 437.4 190.2 437.2 190.1 Z M 457.3 217.6 C 457.6 218.0 455.9 218.0 455.7 217.9 C 455.6 217.8 456.2 217.7 455.9 217.6 C 455.4 217.5 456.1 216.2 457.3 217.6 Z M 443.2 221.2 C 442.8 221.2 442.7 221.0 442.8 220.7 C 442.8 220.6 444.1 220.8 443.2 221.2 Z M 454.8 216.1 C 454.9 216.3 454.5 216.3 454.4 216.1 C 454.4 216.0 454.8 215.9 454.8 216.1 Z M 455.9 215.6 C 455.6 215.7 454.7 215.4 454.8 214.9 C 454.9 214.3 457.1 215.2 455.9 215.6 Z M 459.4 217.9 C 458.9 218.0 458.9 218.0 459.2 217.7 C 459.4 217.5 459.4 217.9 459.4 217.9 Z M 451.3 220.2 C 450.7 220.2 450.7 220.2 451.0 220.0 C 451.3 219.8 451.3 220.2 451.3 220.2 Z M 463.1 216.2 C 463.1 216.2 462.1 217.0 461.7 216.1 C 461.1 214.9 463.0 216.1 463.1 216.2 Z M 468.7 213.9 C 468.3 213.9 468.4 213.5 468.7 213.6 C 469.2 213.6 469.0 213.9 468.7 213.9 Z M 470.4 211.6 C 471.2 211.7 471.7 212.1 470.7 212.2 C 469.7 212.2 469.7 211.4 470.4 211.6 Z M 469.4 212.2 C 469.4 212.0 469.8 212.0 469.8 212.2 C 469.9 212.4 469.5 212.4 469.4 212.2 Z M 464.8 214.5 C 464.3 214.9 463.7 214.4 464.4 214.1 C 465.1 213.8 465.2 214.1 464.8 214.5 Z M 429.7 208.1 C 429.7 208.4 429.2 208.2 429.0 207.9 C 428.9 207.6 429.6 207.7 429.7 208.1 Z M 439.3 188.8 C 438.9 189.0 438.9 188.7 439.3 188.2 C 439.6 187.8 439.7 188.6 439.3 188.8 Z M 445.1 176.5 C 444.7 176.7 444.7 176.4 445.1 175.9 C 445.4 175.5 445.5 176.3 445.1 176.5 Z M 437.4 193.9 C 437.1 194.0 436.6 192.3 437.8 191.9 C 439.0 191.5 438.3 193.8 437.4 193.9 Z M 442.8 210.2 C 442.9 210.5 442.5 210.3 442.5 210.3 C 442.7 209.8 442.7 209.8 442.8 210.2 Z M 440.0 191.6 C 440.0 191.9 439.5 191.7 439.3 191.4 C 439.2 191.1 439.9 191.2 440.0 191.6 Z M 443.5 178.5 C 443.0 178.9 442.3 178.3 442.2 177.9 C 441.7 176.5 443.1 176.1 443.9 175.6 C 444.5 175.2 443.8 178.2 443.5 178.5 Z M 430.4 211.9 C 430.7 211.6 430.9 211.3 431.0 211.1 C 430.8 210.9 430.9 210.7 431.2 210.6 C 431.6 209.3 430.7 208.0 430.7 207.2 C 430.6 205.0 433.3 205.2 433.9 204.2 C 433.8 204.4 433.7 204.7 433.8 205.0 C 434.4 205.8 435.7 201.2 435.8 200.9 C 436.6 196.9 434.3 201.2 433.0 200.7 C 432.4 200.5 434.9 198.5 435.0 198.4 C 436.0 197.3 434.8 196.7 435.7 195.9 C 436.1 195.5 439.5 195.1 439.3 194.5 C 439.1 194.0 439.8 192.9 440.0 192.5 C 440.3 191.8 440.6 190.6 439.3 190.8 C 438.4 191.1 437.6 190.9 438.7 190.2 C 439.4 189.8 442.8 186.0 440.7 185.4 C 440.5 185.3 439.5 186.1 439.5 186.1 C 439.5 184.7 441.6 181.2 441.1 180.0 C 439.9 177.3 442.0 181.0 442.9 180.2 C 444.5 178.9 445.5 178.2 446.0 175.9 C 446.0 175.3 446.7 173.3 445.3 173.9 C 444.2 174.2 443.9 173.5 443.2 174.7 C 442.6 172.9 445.0 172.7 444.7 172.3 C 444.3 171.6 443.6 172.3 444.1 171.3 C 444.7 170.1 444.2 170.5 445.4 170.7 C 445.7 170.8 446.4 169.7 446.4 169.7 C 446.5 169.8 446.6 169.8 446.7 169.9 C 447.0 168.8 445.5 166.4 446.1 166.3 C 446.6 166.2 447.7 167.3 448.1 167.5 C 448.2 167.4 448.3 167.3 448.4 167.3 C 448.4 166.7 447.9 165.4 448.2 165.3 C 448.4 165.2 450.0 166.7 449.7 166.0 C 449.3 165.3 450.8 163.3 451.4 163.4 C 452.1 163.5 454.8 163.9 455.1 163.5 C 455.5 163.1 456.3 164.4 456.7 164.7 C 457.0 165.0 456.9 166.2 456.9 166.4 C 456.9 166.6 457.8 167.4 457.8 167.4 C 457.8 167.4 458.3 167.6 458.9 168.3 C 459.5 168.9 459.5 169.9 460.0 171.0 C 460.4 172.1 461.3 172.0 462.0 172.8 C 462.8 173.5 462.1 175.3 462.5 176.2 C 462.9 177.1 463.9 176.2 464.8 177.0 C 465.6 177.9 465.7 178.6 465.3 178.5 C 464.9 178.3 464.9 178.8 465.1 179.1 C 465.3 179.3 465.8 180.7 466.3 180.9 C 466.8 181.1 465.5 177.7 468.2 181.2 C 469.5 183.0 469.3 185.1 468.9 184.7 C 467.8 183.5 468.3 187.4 468.8 187.0 C 469.4 186.6 471.6 189.6 472.0 188.2 C 472.1 187.7 474.8 190.4 474.9 191.0 C 475.1 191.5 476.4 192.7 475.8 193.8 C 475.5 194.3 478.0 195.0 478.3 195.4 C 478.6 195.8 480.3 198.2 480.5 198.9 C 480.6 199.6 479.7 198.5 479.3 197.9 C 478.9 197.4 478.8 196.3 478.3 196.0 C 477.9 195.6 478.2 196.9 478.6 197.5 C 479.0 198.1 478.6 198.7 478.9 199.3 C 479.2 199.4 479.4 199.8 479.7 200.4 C 479.9 200.6 480.1 200.7 480.3 200.5 C 480.6 200.3 480.5 199.8 480.8 199.8 C 480.9 199.7 481.5 199.9 482.1 200.6 C 482.6 201.4 483.0 202.0 483.5 203.2 C 483.9 204.4 484.4 204.4 485.0 205.0 C 485.6 205.6 486.0 206.2 485.8 206.4 C 485.6 206.6 484.8 205.9 484.6 206.0 C 484.4 206.0 484.6 207.3 484.8 207.7 C 486.0 209.6 483.4 209.4 484.6 211.3 C 485.3 212.4 483.9 211.8 482.8 211.7 C 482.9 211.9 482.8 212.1 481.9 212.4 C 481.9 212.8 480.5 212.7 479.8 212.9 C 479.3 213.0 476.7 214.0 478.2 213.0 C 478.4 212.9 478.5 212.8 478.6 212.8 C 478.6 212.7 478.5 212.7 478.5 212.7 C 478.5 212.7 479.1 211.5 479.1 211.5 C 479.1 211.5 478.5 212.7 478.5 212.7 C 478.1 212.3 477.7 212.0 477.5 211.7 C 477.3 211.9 477.2 212.0 477.1 212.1 C 477.1 212.2 477.1 212.2 477.0 212.2 C 477.0 212.3 477.0 212.3 477.0 212.3 C 477.2 212.7 477.0 212.7 476.6 212.6 C 475.7 213.3 473.3 213.0 472.3 212.8 C 474.4 210.0 470.1 210.9 468.7 211.5 C 467.3 212.0 467.9 214.9 468.6 214.8 C 467.6 215.0 467.3 214.6 466.8 213.8 C 466.9 213.9 465.4 212.4 465.5 212.4 C 462.9 211.8 463.8 214.2 463.3 214.6 C 462.7 215.0 461.9 215.2 461.2 215.5 C 460.5 215.8 461.2 216.2 461.0 216.6 C 460.4 217.9 458.2 216.0 457.5 216.0 C 458.1 215.7 458.8 215.3 459.2 214.9 C 458.5 215.6 457.8 214.3 457.4 214.2 C 456.6 214.1 455.6 214.4 454.8 214.6 C 453.5 214.9 452.1 215.5 450.8 215.9 C 451.3 216.1 453.6 217.3 453.8 217.2 C 453.3 217.4 451.9 217.2 452.6 218.2 C 453.8 219.8 450.1 219.5 449.6 219.5 C 447.8 219.7 446.1 221.8 444.0 220.1 C 444.0 220.1 446.6 219.2 446.5 218.9 C 445.6 217.5 444.7 216.8 442.9 217.5 C 442.5 217.6 440.2 219.3 440.2 219.4 C 440.2 219.2 443.5 222.4 441.0 221.6 C 440.5 221.5 441.3 220.7 440.7 220.5 C 439.8 220.3 438.7 220.8 437.8 220.8 C 437.6 220.8 436.2 220.6 436.1 220.7 C 435.8 221.2 435.9 222.0 435.4 222.3 C 435.0 222.7 434.2 222.4 434.1 221.9 C 434.1 221.8 434.1 221.7 434.1 221.7 C 433.9 221.7 433.8 221.5 433.8 221.2 C 433.6 221.3 433.2 221.4 432.8 221.1 C 432.6 221.0 433.3 220.7 433.7 220.9 C 433.7 220.7 433.7 220.5 433.7 220.3 C 433.0 220.5 432.3 220.8 432.2 220.9 C 431.1 222.0 431.3 222.5 429.2 221.3 C 427.5 220.4 428.0 215.9 429.5 213.6 C 429.5 213.1 429.8 212.5 430.4 211.9 Z M 480.0 202.0 C 480.0 201.9 479.9 201.9 479.9 201.8 C 479.7 202.0 479.4 202.2 479.2 202.4 C 479.5 203.0 479.5 201.9 479.9 202.5 C 480.2 203.2 480.4 202.9 480.0 202.0 Z M 477.5 207.6 C 477.9 207.8 477.9 207.6 477.8 207.3 C 477.6 207.4 477.5 207.5 477.5 207.6 Z M 477.7 210.4 C 478.5 210.0 476.9 209.2 475.6 209.7 C 476.6 210.2 477.3 210.4 477.7 210.4 Z M 475.8 212.0 C 475.8 211.9 475.9 211.7 475.9 211.5 C 475.9 211.1 475.1 211.7 475.2 211.4 C 475.2 211.1 476.0 210.5 475.4 210.4 C 475.2 210.4 475.1 210.3 474.9 210.3 C 474.8 210.4 474.7 210.4 474.7 210.6 C 474.4 211.0 475.2 212.0 475.8 212.0 Z M 475.9 200.2 C 476.3 200.3 476.2 200.0 476.0 199.9 C 475.7 199.6 475.5 200.0 475.9 200.2 Z M 474.6 194.5 C 474.7 195.1 475.1 195.4 475.2 194.8 C 475.2 194.3 474.6 194.0 474.6 194.5 Z M 466.0 198.8 C 466.3 198.8 466.1 198.7 465.9 198.5 C 465.5 198.2 465.6 198.8 466.0 198.8 Z M 463.9 203.3 C 463.5 203.6 463.9 204.2 464.1 204.0 C 464.3 203.7 464.2 203.2 463.9 203.3 Z M 468.5 192.9 C 468.1 192.7 468.1 193.1 468.4 193.2 C 468.8 193.3 468.8 193.1 468.5 192.9 Z M 467.1 199.6 C 467.0 199.0 466.8 199.1 466.5 199.2 C 466.3 199.2 466.3 199.6 466.6 200.0 C 467.1 200.4 467.3 200.3 467.1 199.6 Z M 466.0 203.7 C 464.6 203.9 464.7 204.5 466.3 204.0 C 467.9 203.4 466.8 203.5 466.0 203.7 Z M 473.4 190.4 C 473.5 190.7 474.1 191.1 474.1 191.1 C 474.1 191.1 473.1 189.4 473.4 190.4 Z M 461.6 214.2 C 462.1 214.2 462.4 213.6 461.6 213.7 C 460.8 213.7 461.1 214.3 461.6 214.2 Z M 460.0 211.4 C 460.7 212.5 461.6 212.5 461.6 212.6 C 461.5 212.4 461.7 211.6 462.0 211.4 C 462.8 210.9 464.1 211.7 464.9 210.9 C 465.7 210.0 463.6 210.2 463.3 210.3 C 463.5 210.2 463.7 210.0 463.7 209.7 C 463.4 209.4 463.2 209.3 462.9 209.6 C 462.5 210.0 459.2 210.2 460.0 211.4 Z M 464.3 200.2 C 464.7 200.6 465.3 200.5 465.1 199.8 C 464.9 199.2 464.6 198.8 464.4 198.8 C 464.2 198.9 463.9 199.9 464.3 200.2 Z M 465.2 196.6 C 465.7 196.6 465.6 196.4 465.3 196.1 C 464.6 195.5 464.6 196.6 465.2 196.6 Z M 464.3 179.2 C 463.8 179.2 464.4 179.9 464.6 179.7 C 464.8 179.5 464.6 179.3 464.3 179.2 Z M 462.3 185.2 C 461.4 184.6 461.8 185.8 462.0 185.8 C 462.3 185.9 462.8 185.5 462.3 185.2 Z M 464.4 190.0 C 464.1 189.6 464.2 190.4 464.5 190.4 C 464.8 190.4 464.6 190.1 464.4 190.0 Z M 464.0 192.3 C 463.7 192.1 463.5 192.7 464.1 192.9 C 464.3 193.0 464.3 192.7 464.0 192.3 Z M 455.1 210.7 C 455.1 210.7 455.2 209.8 454.5 210.3 C 453.9 210.9 453.9 210.9 455.1 210.7 Z M 459.2 204.5 C 460.0 204.3 460.6 204.0 460.7 201.9 C 460.8 199.7 460.2 200.3 459.5 201.4 C 458.7 202.4 459.1 199.0 457.7 201.0 C 457.2 201.9 458.5 204.8 459.2 204.5 Z M 460.4 191.2 C 460.7 192.7 462.5 193.0 461.8 191.9 C 461.1 190.7 460.2 190.1 460.4 191.2 Z M 460.7 190.4 C 460.9 190.5 460.9 190.3 460.6 190.0 C 460.3 189.7 460.3 190.2 460.7 190.4 Z M 451.2 218.6 C 453.6 217.7 450.6 216.6 450.6 216.6 C 447.8 216.4 448.7 219.6 451.2 218.6 Z M 447.3 171.3 C 447.2 171.3 447.2 171.4 447.1 171.5 C 447.1 171.5 447.1 171.6 447.1 171.6 C 447.3 172.1 448.0 171.4 448.0 171.4 C 447.8 171.2 447.5 171.1 447.3 171.3 Z M 442.2 183.2 C 442.4 182.7 442.5 182.3 442.3 181.8 C 441.2 181.7 439.8 185.3 442.2 184.6 C 442.5 184.5 445.0 182.8 444.2 182.2 C 443.7 181.9 441.7 184.4 442.2 183.2 Z M 445.1 180.0 C 444.5 181.3 447.0 179.3 446.1 179.3 C 445.7 179.3 445.3 179.5 445.1 180.0 Z M 452.5 170.5 C 452.4 168.3 449.4 167.5 449.8 171.1 C 450.2 174.7 451.3 175.3 451.5 173.6 C 451.7 172.0 452.6 173.7 452.5 170.5 Z M 446.6 186.2 C 444.6 185.1 444.9 186.2 446.2 187.3 C 446.5 187.6 447.8 186.9 446.6 186.2 Z M 445.3 190.7 C 444.8 191.2 444.9 191.2 445.3 191.0 C 446.0 190.8 445.7 190.2 445.3 190.7 Z M 456.6 168.4 C 456.5 167.6 455.9 166.7 456.4 166.9 C 456.9 167.1 456.7 166.9 456.5 166.3 C 456.3 165.6 455.9 166.6 455.8 167.1 C 455.7 167.5 456.6 169.3 456.6 168.4 Z M 457.2 187.9 C 457.0 187.6 457.0 188.1 457.3 188.3 C 457.5 188.4 457.5 188.2 457.2 187.9 Z M 453.2 205.4 C 453.2 205.4 453.2 204.8 452.9 205.2 C 452.4 205.5 452.4 205.5 453.2 205.4 Z M 447.5 218.5 C 447.9 218.3 447.1 217.8 447.5 217.2 C 447.6 216.9 447.8 217.5 447.9 217.6 C 447.8 217.4 448.2 215.7 447.2 216.5 C 446.7 216.9 446.3 219.0 447.5 218.5 Z M 455.0 192.3 C 455.3 193.3 457.0 190.6 457.3 191.3 C 457.7 192.0 457.8 191.7 457.4 190.8 C 457.0 190.0 454.6 191.3 455.0 192.3 Z M 457.2 185.0 C 457.1 185.5 458.0 187.2 458.0 186.4 C 457.9 185.5 457.3 184.7 457.8 184.9 C 458.3 185.0 458.1 184.8 457.9 184.3 C 457.7 183.6 457.3 184.6 457.2 185.0 Z M 461.1 173.0 C 461.2 173.3 461.9 174.1 461.7 173.4 C 461.7 173.0 461.1 172.7 461.1 173.0 Z M 448.0 205.7 C 448.5 205.2 448.4 205.0 447.7 205.3 C 446.9 205.6 447.6 206.1 448.0 205.7 Z M 458.7 173.4 C 459.1 174.3 459.1 173.0 459.4 173.6 C 459.8 174.3 459.9 174.0 459.5 173.2 C 459.2 172.4 458.4 172.4 458.7 173.4 Z M 442.2 215.7 C 442.4 215.5 442.3 214.9 442.0 215.1 C 441.6 215.4 442.0 216.0 442.2 215.7 Z M 442.2 210.7 C 442.4 210.7 442.6 210.7 442.8 210.7 C 446.4 209.7 440.5 209.3 442.2 210.7 Z M 445.1 204.0 C 445.0 205.0 445.9 204.1 445.8 204.0 C 445.6 203.8 445.3 203.8 445.1 204.0 Z M 447.8 196.5 C 447.5 196.2 447.4 197.0 447.8 197.0 C 448.2 197.1 448.1 196.8 447.8 196.5 Z M 437.5 220.2 C 437.9 220.2 437.9 219.9 437.6 219.9 C 437.3 219.8 437.0 220.2 437.5 220.2 Z M 444.2 201.4 C 444.3 201.6 444.4 201.6 444.4 201.2 C 444.4 200.8 444.0 201.2 444.2 201.4 Z M 452.5 178.6 C 452.7 178.9 452.8 179.2 452.9 179.4 C 453.4 179.3 454.1 178.0 454.6 178.2 C 454.6 178.2 454.6 178.2 454.7 178.2 C 454.7 178.2 454.7 178.2 454.8 178.2 C 455.0 178.4 455.1 178.7 454.9 178.6 C 454.9 178.9 454.9 179.2 454.8 179.5 C 455.4 179.2 455.9 178.8 455.7 178.3 C 455.5 177.7 454.6 177.2 453.7 177.0 C 453.4 177.2 453.2 177.4 453.0 177.7 C 453.0 177.7 453.1 177.8 453.1 177.8 C 453.5 178.3 453.6 178.7 453.2 178.6 C 452.9 178.5 452.8 178.3 452.7 178.1 C 452.6 178.3 452.6 178.5 452.5 178.6 Z M 444.2 198.2 C 444.3 198.9 444.6 198.5 445.1 197.9 C 445.4 197.4 444.1 197.5 444.2 198.2 Z M 437.1 219.0 C 437.1 218.8 437.1 218.6 437.0 218.4 C 436.9 218.5 436.8 218.6 436.8 218.7 C 436.5 219.0 436.3 219.4 436.0 219.8 C 436.5 220.0 437.0 219.8 437.1 219.0 Z M 437.4 211.7 C 437.4 211.9 436.2 214.6 437.0 214.3 C 438.2 213.9 438.8 215.5 439.1 213.4 C 439.3 212.3 438.2 211.0 438.3 210.0 C 439.0 204.8 436.5 210.8 435.8 212.0 C 435.6 212.2 437.3 211.3 437.4 211.7 Z M 438.2 204.8 C 437.9 204.5 437.1 205.0 437.0 205.3 C 436.7 206.6 438.7 205.4 438.2 204.8 Z M 432.5 218.0 C 432.5 218.1 432.6 218.1 432.8 218.1 C 432.8 218.0 432.7 217.9 432.6 217.8 C 432.5 217.9 432.5 217.9 432.5 218.0 Z M 430.7 221.2 C 432.6 220.5 430.0 219.7 429.3 219.7 C 428.2 219.8 429.8 221.5 430.7 221.2 Z M 434.7 207.6 C 435.1 206.7 432.7 204.5 432.2 206.3 C 431.7 207.9 433.7 209.7 434.7 207.6 Z M 434.9 196.2 C 435.1 196.7 434.1 197.5 434.0 196.9 C 433.8 196.4 434.8 196.0 434.9 196.2 Z M 427.7 210.6 C 428.0 210.3 428.0 210.7 428.0 210.7 C 427.5 210.8 427.5 210.8 427.7 210.6 Z M 430.3 210.0 C 429.9 210.3 429.6 210.9 429.3 211.2 C 429.1 211.5 429.2 210.4 429.2 210.3 C 429.4 210.0 430.2 210.1 430.3 210.0 Z M 433.5 202.1 C 433.0 202.4 433.3 201.7 433.4 201.4 C 433.6 201.2 433.9 201.9 433.5 202.1 Z M 432.1 203.7 C 432.3 203.5 432.6 203.8 432.4 204.1 C 432.2 204.6 432.0 204.0 432.1 203.7 Z M 435.0 201.0 C 434.9 202.0 434.7 203.2 434.0 202.8 C 433.6 202.6 435.1 199.2 435.0 201.0 Z M 435.0 201.0 " fill="#9437FF"></path></g></svg>