<?xml version="1.0" encoding="UTF-8" standalone="no"?><svg xmlns="http://www.w3.org/2000/svg" xmlns:xlink="http://www.w3.org/1999/xlink" clip-rule="evenodd" stroke-miterlimit="10" viewBox="0 0 212 38"><desc>SVG generated by Keynote</desc><defs></defs><g transform="matrix(1.00, 0.00, -0.00, -1.00, 0.0, 38.0)"><text xml:space="preserve" font-family="SourceSansPro-Regular,Source Sans Pro" font-size="50.0" fill="#000000" transform="matrix(1.00, 0.00, -0.00, -1.00, -0.4, 2.2)">S</text><text xml:space="preserve" font-family="SourceSansPro-Regular,Source Sans Pro" font-size="50.0" fill="#000000" transform="matrix(1.00, 0.00, -0.00, -1.00, 26.3, 2.2)">t</text><text xml:space="preserve" font-family="SourceSansPro-Regular,Source Sans Pro" font-size="50.0" fill="#000000" transform="matrix(1.00, 0.00, -0.00, -1.00, 43.2, 2.2)">r</text><text xml:space="preserve" font-family="SourceSansPro-Regular,Source Sans Pro" font-size="50.0" fill="#000000" transform="matrix(1.00, 0.00, -0.00, -1.00, 60.0, 2.2)">e</text><text xml:space="preserve" font-family="SourceSansPro-Regular,Source Sans Pro" font-size="50.0" fill="#000000" transform="matrix(1.00, 0.00, -0.00, -1.00, 84.1, 2.2)">a</text><text xml:space="preserve" font-family="SourceSansPro-Regular,Source Sans Pro" font-size="50.0" fill="#000000" transform="matrix(1.00, 0.00, -0.00, -1.00, 109.7, 2.2)">m</text><text xml:space="preserve" font-family="SourceSansPro-Regular,Source Sans Pro" font-size="50.0" fill="#000000" transform="matrix(1.00, 0.00, -0.00, -1.00, 151.2, 2.2)"> </text><text xml:space="preserve" font-family="SourceSansPro-Regular,Source Sans Pro" font-size="50.0" fill="#000000" transform="matrix(1.00, 0.00, -0.00, -1.00, 161.3, 2.2)">#</text><text xml:space="preserve" font-family="SourceSansPro-Regular,Source Sans Pro" font-size="50.0" fill="#000000" transform="matrix(1.00, 0.00, -0.00, -1.00, 186.1, 2.2)">3</text></g></svg>