<?xml version="1.0" encoding="UTF-8" standalone="no"?><svg xmlns="http://www.w3.org/2000/svg" xmlns:xlink="http://www.w3.org/1999/xlink" clip-rule="evenodd" stroke-miterlimit="10" viewBox="0 0 1920 1080"><desc>SVG generated by Keynote</desc><defs></defs><g transform="matrix(1.00, 0.00, -0.00, -1.00, 0.0, 1080.0)"><path d="M 0.0 1080.0 L 1920.0 1080.0 L 1920.0 0.0 L 0.0 0.0 Z M 0.0 1080.0 " fill="#FEFFFF"></path><image xlink:href="40A9FBE426C47649FD72772F2750F703.jpeg" width="4096.00" height="2731.00" transform="matrix(0.47, 0.00, -0.00, -0.47, -4.0, 1103.0)"></image><text xml:space="preserve" font-family="SourceSansPro-Regular,Source Sans Pro" font-size="112.0" fill="#000000" transform="matrix(1.00, 0.00, -0.00, -1.00, 863.2, 675.5)">T</text><text xml:space="preserve" font-family="SourceSansPro-Regular,Source Sans Pro" font-size="112.0" fill="#000000" transform="matrix(1.00, 0.00, -0.00, -1.00, 923.2, 675.5)">h</text><text xml:space="preserve" font-family="SourceSansPro-Regular,Source Sans Pro" font-size="112.0" fill="#000000" transform="matrix(1.00, 0.00, -0.00, -1.00, 984.1, 675.5)">e</text><text xml:space="preserve" font-family="SourceSansPro-Regular,Source Sans Pro" font-size="112.0" fill="#000000" transform="matrix(1.00, 0.00, -0.00, -1.00, 1039.7, 675.5)"> </text><text xml:space="preserve" font-family="SourceSansPro-Regular,Source Sans Pro" font-size="112.0" fill="#000000" transform="matrix(1.00, 0.00, -0.00, -1.00, 1062.3, 675.5)">S</text><text xml:space="preserve" font-family="SourceSansPro-Regular,Source Sans Pro" font-size="112.0" fill="#000000" transform="matrix(1.00, 0.00, -0.00, -1.00, 1122.1, 675.5)">t</text><text xml:space="preserve" font-family="SourceSansPro-Regular,Source Sans Pro" font-size="112.0" fill="#000000" transform="matrix(1.00, 0.00, -0.00, -1.00, 1157.9, 675.5)">a</text><text xml:space="preserve" font-family="SourceSansPro-Regular,Source Sans Pro" font-size="112.0" fill="#000000" transform="matrix(1.00, 0.00, -0.00, -1.00, 1215.3, 675.5)">t</text><text xml:space="preserve" font-family="SourceSansPro-Regular,Source Sans Pro" font-size="112.0" fill="#000000" transform="matrix(1.00, 0.00, -0.00, -1.00, 1252.0, 675.5)">e</text><text xml:space="preserve" font-family="SourceSansPro-Regular,Source Sans Pro" font-size="112.0" fill="#000000" transform="matrix(1.00, 0.00, -0.00, -1.00, 1307.6, 675.5)"> </text><text xml:space="preserve" font-family="SourceSansPro-Regular,Source Sans Pro" font-size="112.0" fill="#000000" transform="matrix(1.00, 0.00, -0.00, -1.00, 1330.2, 675.5)">R</text><text xml:space="preserve" font-family="SourceSansPro-Regular,Source Sans Pro" font-size="112.0" fill="#000000" transform="matrix(1.00, 0.00, -0.00, -1.00, 1394.2, 675.5)">e</text><text xml:space="preserve" font-family="SourceSansPro-Regular,Source Sans Pro" font-size="112.0" fill="#000000" transform="matrix(1.00, 0.00, -0.00, -1.00, 1449.7, 675.5)">c</text><text xml:space="preserve" font-family="SourceSansPro-Regular,Source Sans Pro" font-size="112.0" fill="#000000" transform="matrix(1.00, 0.00, -0.00, -1.00, 1498.4, 675.5)">o</text><text xml:space="preserve" font-family="SourceSansPro-Regular,Source Sans Pro" font-size="112.0" fill="#000000" transform="matrix(1.00, 0.00, -0.00, -1.00, 1559.1, 675.5)">r</text><text xml:space="preserve" font-family="SourceSansPro-Regular,Source Sans Pro" font-size="112.0" fill="#000000" transform="matrix(1.00, 0.00, -0.00, -1.00, 1596.9, 675.5)">d</text></g></svg>