<?xml version="1.0" encoding="UTF-8" standalone="no"?><svg xmlns="http://www.w3.org/2000/svg" xmlns:xlink="http://www.w3.org/1999/xlink" clip-rule="evenodd" stroke-miterlimit="10" viewBox="0 0 1920 1080"><desc>SVG generated by Keynote</desc><defs><linearGradient id="gradSh1.772" x1="-27.0" y1="0.0" x2="27.0" y2="0.0" gradientUnits="userSpaceOnUse" gradientTransform="matrix(0.00, -1.77, -1.77, 0.00, 496.2, 882.2)"><stop offset="0.00000" stop-color="#FFFFFF"></stop><stop offset="0.01833" stop-color="#FEFEFE"></stop><stop offset="1.00000" stop-color="#E3E3E3"></stop></linearGradient><linearGradient id="gradSh2.773" x1="-27.0" y1="0.0" x2="27.0" y2="0.0" gradientUnits="userSpaceOnUse" gradientTransform="matrix(0.00, -1.77, -1.77, 0.00, 240.8, 754.6)"><stop offset="0.00000" stop-color="#FFFFFF"></stop><stop offset="0.01833" stop-color="#FEFEFE"></stop><stop offset="1.00000" stop-color="#E3E3E3"></stop></linearGradient><linearGradient id="gradSh3.774" x1="-27.0" y1="0.0" x2="27.0" y2="0.0" gradientUnits="userSpaceOnUse" gradientTransform="matrix(0.00, -1.77, -1.77, 0.00, 496.2, 180.3)"><stop offset="0.00000" stop-color="#FFFFFF"></stop><stop offset="0.01833" stop-color="#FEFEFE"></stop><stop offset="1.00000" stop-color="#E3E3E3"></stop></linearGradient><linearGradient id="gradSh4.775" x1="-27.0" y1="0.0" x2="27.0" y2="0.0" gradientUnits="userSpaceOnUse" gradientTransform="matrix(0.00, -1.77, -1.77, 0.00, 240.8, 435.5)"><stop offset="0.00000" stop-color="#FFFFFF"></stop><stop offset="0.01833" stop-color="#FEFEFE"></stop><stop offset="1.00000" stop-color="#E3E3E3"></stop></linearGradient></defs><g transform="matrix(1.00, 0.00, -0.00, -1.00, 0.0, 1080.0)"><path d="M 0.0 1080.0 L 1920.0 1080.0 L 1920.0 0.0 L 0.0 0.0 Z M 0.0 1080.0 " fill="#FEFFFF"></path><g><clipPath id="clip0x7fd417baff60"><path d="M 145.0 120.0 L 553.0 120.0 L 553.0 1001.0 L 145.0 1001.0 Z M 145.0 120.0 "></path></clipPath><g clip-path="url(#clip0x7fd417baff60)"><image xlink:href="EBCAD3594076985FF1610075B5907AFC.png" width="97.00" height="56.00" transform="matrix(1.77, 0.00, -0.00, 1.77, 281.6, 763.5)"></image><image xlink:href="D1A1E0F46866BDA2CD4DF2571B922AAE.png" width="19.00" height="136.00" transform="matrix(1.77, 0.00, -0.00, 1.77, 231.9, 469.2)"></image><image xlink:href="../../B02E482B-C8D7-4F1A-BA9A-94C651F35A6D/assets/84D7644A2FD201640063688427AD0FFE.png" width="110.00" height="103.00" transform="matrix(1.77, 0.00, -0.00, 1.77, 279.8, 212.2)"></image><image xlink:href="547EF2C5DBB5283C268CE0B96E51FE6B.png" width="184.00" height="303.00" transform="matrix(1.77, 0.00, -0.00, 1.77, 145.0, 173.2)"></image><image xlink:href="../../B02E482B-C8D7-4F1A-BA9A-94C651F35A6D/assets/076919EA92D879EB930F676B7C23C66E.png" width="19.00" height="47.00" transform="matrix(1.77, 0.00, -0.00, 1.77, 487.4, 915.9)"></image><image xlink:href="../../B02E482B-C8D7-4F1A-BA9A-94C651F35A6D/assets/252B39EF83251546609468736A34A4BF.png" width="64.00" height="64.00" transform="matrix(1.77, 0.00, -0.00, 1.77, 439.5, 822.0)"></image></g></g><g><clipPath id="clip0x7fd4178d9180"><path d="M 455.4 930.1 L 537.0 930.1 C 541.0 930.1 544.1 926.9 544.1 923.0 L 544.1 841.5 C 544.1 837.5 541.0 834.4 537.0 834.4 L 455.4 834.4 C 451.5 834.4 448.3 837.5 448.3 841.5 L 448.3 923.0 C 448.3 926.9 451.5 930.1 455.4 930.1 Z M 455.4 930.1 "></path></clipPath><g clip-path="url(#clip0x7fd4178d9180)"><g><clipPath id="clip0x7fd417d46420"><path d="M 145.0 120.0 L 553.0 120.0 L 553.0 1001.0 L 145.0 1001.0 Z M 145.0 120.0 "></path></clipPath><g clip-path="url(#clip0x7fd417d46420)"><path d="M 145.0 120.0 L 553.0 120.0 L 553.0 1001.0 L 145.0 1001.0 Z M 145.0 120.0 " fill="url(#gradSh1.772)"></path></g></g></g></g><g><clipPath id="clip0x7fd417d971a0"><path d="M 145.0 120.0 L 553.0 120.0 L 553.0 1001.0 L 145.0 1001.0 Z M 145.0 120.0 "></path></clipPath><g clip-path="url(#clip0x7fd417d971a0)"><path d="M 301.0 81.0 L 347.0 81.0 C 349.2 81.0 351.0 82.8 351.0 85.0 L 351.0 131.0 C 351.0 133.2 349.2 135.0 347.0 135.0 L 301.0 135.0 C 298.8 135.0 297.0 133.2 297.0 131.0 L 297.0 85.0 C 297.0 82.8 298.8 81.0 301.0 81.0 Z M 301.0 81.0 " fill="none" stroke="#AAAAAA" stroke-width="2.00" stroke-linecap="round" stroke-linejoin="round" transform="matrix(1.77, 0.00, 0.00, -1.77, -78.5, 1073.7)"></path><text xml:space="preserve" font-family="Helvetica,Helvetica" font-size="10.0" fill="#616161" transform="matrix(1.77, 0.00, -0.00, -1.77, 482.4, 875.1)">i</text><text xml:space="preserve" font-family="Helvetica,Helvetica" font-size="10.0" fill="#616161" transform="matrix(1.77, 0.00, -0.00, -1.77, 486.4, 875.1)">d</text><text xml:space="preserve" font-family="Helvetica,Helvetica" font-size="10.0" fill="#616161" transform="matrix(1.77, 0.00, -0.00, -1.77, 496.2, 875.1)">l</text><text xml:space="preserve" font-family="Helvetica,Helvetica" font-size="10.0" fill="#616161" transform="matrix(1.77, 0.00, -0.00, -1.77, 500.2, 875.1)">e</text><image xlink:href="../../B02E482B-C8D7-4F1A-BA9A-94C651F35A6D/assets/252B39EF83251546609468736A34A4BF.png" width="64.00" height="64.00" transform="matrix(1.77, 0.00, -0.00, 1.77, 184.0, 694.3)"></image></g></g><g><clipPath id="clip0x7fd417d9bfe0"><path d="M 200.0 802.5 L 281.6 802.5 C 285.5 802.5 288.7 799.3 288.7 795.4 L 288.7 713.8 C 288.7 709.9 285.5 706.7 281.6 706.7 L 200.0 706.7 C 196.1 706.7 192.9 709.9 192.9 713.8 L 192.9 795.4 C 192.9 799.3 196.1 802.5 200.0 802.5 Z M 200.0 802.5 "></path></clipPath><g clip-path="url(#clip0x7fd417d9bfe0)"><g><clipPath id="clip0x7fd417d9d130"><path d="M 145.0 120.0 L 553.0 120.0 L 553.0 1001.0 L 145.0 1001.0 Z M 145.0 120.0 "></path></clipPath><g clip-path="url(#clip0x7fd417d9d130)"><path d="M 145.0 120.0 L 553.0 120.0 L 553.0 1001.0 L 145.0 1001.0 Z M 145.0 120.0 " fill="url(#gradSh2.773)"></path></g></g></g></g><g><clipPath id="clip0x7fd417deeec0"><path d="M 145.0 120.0 L 553.0 120.0 L 553.0 1001.0 L 145.0 1001.0 Z M 145.0 120.0 "></path></clipPath><g clip-path="url(#clip0x7fd417deeec0)"><path d="M 157.0 153.0 L 203.0 153.0 C 205.2 153.0 207.0 154.8 207.0 157.0 L 207.0 203.0 C 207.0 205.2 205.2 207.0 203.0 207.0 L 157.0 207.0 C 154.8 207.0 153.0 205.2 153.0 203.0 L 153.0 157.0 C 153.0 154.8 154.8 153.0 157.0 153.0 Z M 157.0 153.0 " fill="none" stroke="#AAAAAA" stroke-width="2.00" stroke-linecap="round" stroke-linejoin="round" transform="matrix(1.77, 0.00, 0.00, -1.77, -78.5, 1073.7)"></path><text xml:space="preserve" font-family="Helvetica,Helvetica" font-size="10.0" fill="#616161" transform="matrix(1.77, 0.00, -0.00, -1.77, 206.3, 758.1)">r</text><text xml:space="preserve" font-family="Helvetica,Helvetica" font-size="10.0" fill="#616161" transform="matrix(1.77, 0.00, -0.00, -1.77, 212.2, 758.1)">e</text><text xml:space="preserve" font-family="Helvetica,Helvetica" font-size="10.0" fill="#616161" transform="matrix(1.77, 0.00, -0.00, -1.77, 222.1, 758.1)">s</text><text xml:space="preserve" font-family="Helvetica,Helvetica" font-size="10.0" fill="#616161" transform="matrix(1.77, 0.00, -0.00, -1.77, 230.9, 758.1)">e</text><text xml:space="preserve" font-family="Helvetica,Helvetica" font-size="10.0" fill="#616161" transform="matrix(1.77, 0.00, -0.00, -1.77, 240.8, 758.1)">r</text><text xml:space="preserve" font-family="Helvetica,Helvetica" font-size="10.0" fill="#616161" transform="matrix(1.77, 0.00, -0.00, -1.77, 246.7, 758.1)">v</text><text xml:space="preserve" font-family="Helvetica,Helvetica" font-size="10.0" fill="#616161" transform="matrix(1.77, 0.00, -0.00, -1.77, 255.6, 758.1)">e</text><text xml:space="preserve" font-family="Helvetica,Helvetica" font-size="10.0" fill="#616161" transform="matrix(1.77, 0.00, -0.00, -1.77, 265.4, 758.1)">d</text><text xml:space="preserve" font-family="Helvetica,Helvetica" font-size="10.0" fill="#616161" transform="matrix(1.77, 0.00, -0.00, -1.77, 216.6, 736.9)">(</text><text xml:space="preserve" font-family="Helvetica,Helvetica" font-size="10.0" fill="#616161" transform="matrix(1.77, 0.00, -0.00, -1.77, 222.5, 736.9)">l</text><text xml:space="preserve" font-family="Helvetica,Helvetica" font-size="10.0" fill="#616161" transform="matrix(1.77, 0.00, -0.00, -1.77, 226.5, 736.9)">o</text><text xml:space="preserve" font-family="Helvetica,Helvetica" font-size="10.0" fill="#616161" transform="matrix(1.77, 0.00, -0.00, -1.77, 236.4, 736.9)">c</text><text xml:space="preserve" font-family="Helvetica,Helvetica" font-size="10.0" fill="#616161" transform="matrix(1.77, 0.00, -0.00, -1.77, 245.2, 736.9)">a</text><text xml:space="preserve" font-family="Helvetica,Helvetica" font-size="10.0" fill="#616161" transform="matrix(1.77, 0.00, -0.00, -1.77, 255.1, 736.9)">l</text><text xml:space="preserve" font-family="Helvetica,Helvetica" font-size="10.0" fill="#616161" transform="matrix(1.77, 0.00, -0.00, -1.77, 259.0, 736.9)">)</text><image xlink:href="../../B02E482B-C8D7-4F1A-BA9A-94C651F35A6D/assets/252B39EF83251546609468736A34A4BF.png" width="64.00" height="64.00" transform="matrix(1.77, 0.00, -0.00, 1.77, 439.5, 120.0)"></image></g></g><g><clipPath id="clip0x7fd417df76d0"><path d="M 455.4 228.1 L 537.0 228.1 C 541.0 228.1 544.1 225.0 544.1 221.0 L 544.1 139.5 C 544.1 135.6 541.0 132.4 537.0 132.4 L 455.4 132.4 C 451.5 132.4 448.3 135.6 448.3 139.5 L 448.3 221.0 C 448.3 225.0 451.5 228.1 455.4 228.1 Z M 455.4 228.1 "></path></clipPath><g clip-path="url(#clip0x7fd417df76d0)"><g><clipPath id="clip0x7fd417df8720"><path d="M 145.0 120.0 L 553.0 120.0 L 553.0 1001.0 L 145.0 1001.0 Z M 145.0 120.0 "></path></clipPath><g clip-path="url(#clip0x7fd417df8720)"><path d="M 145.0 120.0 L 553.0 120.0 L 553.0 1001.0 L 145.0 1001.0 Z M 145.0 120.0 " fill="url(#gradSh3.774)"></path></g></g></g></g><g><clipPath id="clip0x7fd41804e2d0"><path d="M 145.0 120.0 L 553.0 120.0 L 553.0 1001.0 L 145.0 1001.0 Z M 145.0 120.0 "></path></clipPath><g clip-path="url(#clip0x7fd41804e2d0)"><path d="M 301.0 477.0 L 347.0 477.0 C 349.2 477.0 351.0 478.8 351.0 481.0 L 351.0 527.0 C 351.0 529.2 349.2 531.0 347.0 531.0 L 301.0 531.0 C 298.8 531.0 297.0 529.2 297.0 527.0 L 297.0 481.0 C 297.0 478.8 298.8 477.0 301.0 477.0 Z M 301.0 477.0 " fill="none" stroke="#AAAAAA" stroke-width="2.00" stroke-linecap="round" stroke-linejoin="round" transform="matrix(1.77, 0.00, 0.00, -1.77, -78.5, 1073.7)"></path><text xml:space="preserve" font-family="Helvetica,Helvetica" font-size="10.0" fill="#616161" transform="matrix(1.77, 0.00, -0.00, -1.77, 470.6, 173.2)">c</text><text xml:space="preserve" font-family="Helvetica,Helvetica" font-size="10.0" fill="#616161" transform="matrix(1.77, 0.00, -0.00, -1.77, 479.5, 173.2)">l</text><text xml:space="preserve" font-family="Helvetica,Helvetica" font-size="10.0" fill="#616161" transform="matrix(1.77, 0.00, -0.00, -1.77, 483.4, 173.2)">o</text><text xml:space="preserve" font-family="Helvetica,Helvetica" font-size="10.0" fill="#616161" transform="matrix(1.77, 0.00, -0.00, -1.77, 493.3, 173.2)">s</text><text xml:space="preserve" font-family="Helvetica,Helvetica" font-size="10.0" fill="#616161" transform="matrix(1.77, 0.00, -0.00, -1.77, 502.1, 173.2)">e</text><text xml:space="preserve" font-family="Helvetica,Helvetica" font-size="10.0" fill="#616161" transform="matrix(1.77, 0.00, -0.00, -1.77, 512.0, 173.2)">d</text><image xlink:href="../../B02E482B-C8D7-4F1A-BA9A-94C651F35A6D/assets/252B39EF83251546609468736A34A4BF.png" width="64.00" height="64.00" transform="matrix(1.77, 0.00, -0.00, 1.77, 184.0, 375.3)"></image></g></g><g><clipPath id="clip0x7fd418052df0"><path d="M 200.0 483.4 L 281.6 483.4 C 285.5 483.4 288.7 480.2 288.7 476.3 L 288.7 394.8 C 288.7 390.8 285.5 387.7 281.6 387.7 L 200.0 387.7 C 196.1 387.7 192.9 390.8 192.9 394.8 L 192.9 476.3 C 192.9 480.2 196.1 483.4 200.0 483.4 Z M 200.0 483.4 "></path></clipPath><g clip-path="url(#clip0x7fd418052df0)"><g><clipPath id="clip0x7fd418053ec0"><path d="M 145.0 120.0 L 553.0 120.0 L 553.0 1001.0 L 145.0 1001.0 Z M 145.0 120.0 "></path></clipPath><g clip-path="url(#clip0x7fd418053ec0)"><path d="M 145.0 120.0 L 553.0 120.0 L 553.0 1001.0 L 145.0 1001.0 Z M 145.0 120.0 " fill="url(#gradSh4.775)"></path></g></g></g></g><g><clipPath id="clip0x7fd4180a5bf0"><path d="M 145.0 120.0 L 553.0 120.0 L 553.0 1001.0 L 145.0 1001.0 Z M 145.0 120.0 "></path></clipPath><g clip-path="url(#clip0x7fd4180a5bf0)"><path d="M 157.0 333.0 L 203.0 333.0 C 205.2 333.0 207.0 334.8 207.0 337.0 L 207.0 383.0 C 207.0 385.2 205.2 387.0 203.0 387.0 L 157.0 387.0 C 154.8 387.0 153.0 385.2 153.0 383.0 L 153.0 337.0 C 153.0 334.8 154.8 333.0 157.0 333.0 Z M 157.0 333.0 " fill="none" stroke="#AAAAAA" stroke-width="2.00" stroke-linecap="round" stroke-linejoin="round" transform="matrix(1.77, 0.00, 0.00, -1.77, -78.5, 1073.7)"></path><text xml:space="preserve" font-family="Helvetica,Helvetica" font-size="10.0" fill="#616161" transform="matrix(1.77, 0.00, -0.00, -1.77, 226.5, 449.7)">h</text><text xml:space="preserve" font-family="Helvetica,Helvetica" font-size="10.0" fill="#616161" transform="matrix(1.77, 0.00, -0.00, -1.77, 236.4, 449.7)">a</text><text xml:space="preserve" font-family="Helvetica,Helvetica" font-size="10.0" fill="#616161" transform="matrix(1.77, 0.00, -0.00, -1.77, 246.2, 449.7)">l</text><text xml:space="preserve" font-family="Helvetica,Helvetica" font-size="10.0" fill="#616161" transform="matrix(1.77, 0.00, -0.00, -1.77, 250.2, 449.7)">f</text><text xml:space="preserve" font-family="Helvetica,Helvetica" font-size="10.0" fill="#616161" transform="matrix(1.77, 0.00, -0.00, -1.77, 255.1, 449.7)"> </text><text xml:space="preserve" font-family="Helvetica,Helvetica" font-size="10.0" fill="#616161" transform="matrix(1.77, 0.00, -0.00, -1.77, 215.2, 428.4)">c</text><text xml:space="preserve" font-family="Helvetica,Helvetica" font-size="10.0" fill="#616161" transform="matrix(1.77, 0.00, -0.00, -1.77, 224.0, 428.4)">l</text><text xml:space="preserve" font-family="Helvetica,Helvetica" font-size="10.0" fill="#616161" transform="matrix(1.77, 0.00, -0.00, -1.77, 228.0, 428.4)">o</text><text xml:space="preserve" font-family="Helvetica,Helvetica" font-size="10.0" fill="#616161" transform="matrix(1.77, 0.00, -0.00, -1.77, 237.8, 428.4)">s</text><text xml:space="preserve" font-family="Helvetica,Helvetica" font-size="10.0" fill="#616161" transform="matrix(1.77, 0.00, -0.00, -1.77, 246.7, 428.4)">e</text><text xml:space="preserve" font-family="Helvetica,Helvetica" font-size="10.0" fill="#616161" transform="matrix(1.77, 0.00, -0.00, -1.77, 256.6, 428.4)">d</text><text xml:space="preserve" font-family="Helvetica,Helvetica" font-size="10.0" fill="#616161" transform="matrix(1.77, 0.00, -0.00, -1.77, 266.4, 428.4)"> </text><text xml:space="preserve" font-family="Helvetica,Helvetica" font-size="10.0" fill="#616161" transform="matrix(1.77, 0.00, -0.00, -1.77, 207.3, 407.2)">(</text><text xml:space="preserve" font-family="Helvetica,Helvetica" font-size="10.0" fill="#616161" transform="matrix(1.77, 0.00, -0.00, -1.77, 213.2, 407.2)">r</text><text xml:space="preserve" font-family="Helvetica,Helvetica" font-size="10.0" fill="#616161" transform="matrix(1.77, 0.00, -0.00, -1.77, 219.1, 407.2)">e</text><text xml:space="preserve" font-family="Helvetica,Helvetica" font-size="10.0" fill="#616161" transform="matrix(1.77, 0.00, -0.00, -1.77, 229.0, 407.2)">m</text><text xml:space="preserve" font-family="Helvetica,Helvetica" font-size="10.0" fill="#616161" transform="matrix(1.77, 0.00, -0.00, -1.77, 243.7, 407.2)">o</text><text xml:space="preserve" font-family="Helvetica,Helvetica" font-size="10.0" fill="#616161" transform="matrix(1.77, 0.00, -0.00, -1.77, 253.6, 407.2)">t</text><text xml:space="preserve" font-family="Helvetica,Helvetica" font-size="10.0" fill="#616161" transform="matrix(1.77, 0.00, -0.00, -1.77, 258.5, 407.2)">e</text><text xml:space="preserve" font-family="Helvetica,Helvetica" font-size="10.0" fill="#616161" transform="matrix(1.77, 0.00, -0.00, -1.77, 268.4, 407.2)">)</text><path d="M 216.7 161.6 L 296.1 121.9 " fill="none" stroke="#000000" stroke-width="1.00" stroke-linecap="round" stroke-linejoin="round" transform="matrix(1.77, 0.00, 0.00, -1.77, -78.5, 1073.7)"></path><path d="M 293.3 780.8 L 308.4 782.4 L 303.6 791.9 Z M 293.3 780.8 " fill="#000000"></path><path d="M 209.6 165.2 L 218.1 164.3 L 215.4 158.9 Z M 209.6 165.2 " fill="none" stroke="#000000" stroke-width="1.00" transform="matrix(1.77, 0.00, 0.00, -1.77, -78.5, 1073.7)"></path><path d="M 180.5 322.1 L 180.5 208.0 " fill="none" stroke="#000000" stroke-width="1.00" stroke-linecap="round" stroke-linejoin="round" transform="matrix(1.77, 0.00, 0.00, -1.77, -78.5, 1073.7)"></path><path d="M 241.7 488.5 L 247.0 502.7 L 236.4 502.7 Z M 241.7 488.5 " fill="#000000"></path><path d="M 180.5 330.1 L 183.5 322.1 L 177.5 322.1 Z M 180.5 330.1 " fill="none" stroke="#000000" stroke-width="1.00" transform="matrix(1.77, 0.00, 0.00, -1.77, -78.5, 1073.7)"></path><path d="M 290.5 470.5 L 206.5 386.5 " fill="none" stroke="#000000" stroke-width="1.00" stroke-linecap="round" stroke-linejoin="round" transform="matrix(1.77, 0.00, 0.00, -1.77, -78.5, 1073.7)"></path><path d="M 446.8 229.7 L 440.5 243.5 L 433.0 236.0 Z M 446.8 229.7 " fill="#000000"></path><path d="M 296.1 476.1 L 292.6 468.3 L 288.3 472.6 Z M 296.1 476.1 " fill="none" stroke="#000000" stroke-width="1.00" transform="matrix(1.77, 0.00, 0.00, -1.77, -78.5, 1073.7)"></path><path d="M 286.2 497.7 C 231.4 492.0 213.6 519.6 171.0 477.0 C 126.0 432.0 127.0 278.8 135.0 252.3 C 143.0 225.8 146.9 225.6 162.7 207.8 " fill="none" stroke="#000000" stroke-width="1.00" stroke-linecap="round" stroke-linejoin="round" transform="matrix(1.77, 0.00, 0.00, -1.77, -78.5, 1073.7)"></path><path d="M 443.3 189.5 L 429.9 196.7 L 428.5 186.1 Z M 443.3 189.5 " fill="#000000"></path><path d="M 294.1 498.8 L 286.6 494.8 L 285.8 500.7 Z M 294.1 498.8 " fill="none" stroke="#000000" stroke-width="1.00" transform="matrix(1.77, 0.00, 0.00, -1.77, -78.5, 1073.7)"></path><text xml:space="preserve" font-family="HelveticaNeue,Helvetica Neue" font-size="16.0" fill="#000000" transform="matrix(1.77, 0.00, -0.00, -1.77, 293.5, 839.6)">s</text><text xml:space="preserve" font-family="HelveticaNeue,Helvetica Neue" font-size="16.0" fill="#000000" transform="matrix(1.77, 0.00, -0.00, -1.77, 307.7, 839.6)">e</text><text xml:space="preserve" font-family="HelveticaNeue,Helvetica Neue" font-size="16.0" fill="#000000" transform="matrix(1.77, 0.00, -0.00, -1.77, 322.9, 839.6)">n</text><text xml:space="preserve" font-family="HelveticaNeue,Helvetica Neue" font-size="16.0" fill="#000000" transform="matrix(1.77, 0.00, -0.00, -1.77, 338.7, 839.6)">d</text><text xml:space="preserve" font-family="HelveticaNeue,Helvetica Neue" font-size="16.0" fill="#000000" transform="matrix(1.77, 0.00, -0.00, -1.77, 355.5, 839.6)"> </text><text xml:space="preserve" font-family="HelveticaNeue,Helvetica Neue" font-size="16.0" fill="#000000" transform="matrix(1.77, 0.00, -0.00, -1.77, 363.4, 839.6)">P</text><text xml:space="preserve" font-family="HelveticaNeue,Helvetica Neue" font-size="16.0" fill="#000000" transform="matrix(1.77, 0.00, -0.00, -1.77, 381.8, 839.6)">P</text><text xml:space="preserve" font-family="HelveticaNeue,Helvetica Neue" font-size="16.0" fill="#000000" transform="matrix(0.94, -1.50, -1.50, -0.94, 190.6, 287.3)">s</text><text xml:space="preserve" font-family="HelveticaNeue,Helvetica Neue" font-size="16.0" fill="#000000" transform="matrix(0.94, -1.50, -1.50, -0.94, 198.1, 275.3)">e</text><text xml:space="preserve" font-family="HelveticaNeue,Helvetica Neue" font-size="16.0" fill="#000000" transform="matrix(0.94, -1.50, -1.50, -0.94, 206.2, 262.4)">n</text><text xml:space="preserve" font-family="HelveticaNeue,Helvetica Neue" font-size="16.0" fill="#000000" transform="matrix(0.94, -1.50, -1.50, -0.94, 214.6, 249.0)">d</text><text xml:space="preserve" font-family="HelveticaNeue,Helvetica Neue" font-size="16.0" fill="#000000" transform="matrix(0.94, -1.50, -1.50, -0.94, 223.5, 234.7)"> </text><text xml:space="preserve" font-family="HelveticaNeue,Helvetica Neue" font-size="16.0" fill="#000000" transform="matrix(0.94, -1.50, -1.50, -0.94, 227.7, 228.0)">/</text><text xml:space="preserve" font-family="HelveticaNeue,Helvetica Neue" font-size="16.0" fill="#000000" transform="matrix(0.94, -1.50, -1.50, -0.94, 232.7, 220.0)"> </text><text xml:space="preserve" font-family="HelveticaNeue,Helvetica Neue" font-size="16.0" fill="#000000" transform="matrix(0.94, -1.50, -1.50, -0.94, 163.1, 271.1)">r</text><text xml:space="preserve" font-family="HelveticaNeue,Helvetica Neue" font-size="16.0" fill="#000000" transform="matrix(0.94, -1.50, -1.50, -0.94, 167.9, 263.5)">e</text><text xml:space="preserve" font-family="HelveticaNeue,Helvetica Neue" font-size="16.0" fill="#000000" transform="matrix(0.94, -1.50, -1.50, -0.94, 175.9, 250.6)">c</text><text xml:space="preserve" font-family="HelveticaNeue,Helvetica Neue" font-size="16.0" fill="#000000" transform="matrix(0.94, -1.50, -1.50, -0.94, 184.0, 237.6)">v</text><text xml:space="preserve" font-family="HelveticaNeue,Helvetica Neue" font-size="16.0" fill="#000000" transform="matrix(0.94, -1.50, -1.50, -0.94, 191.5, 225.6)"> </text><text xml:space="preserve" font-family="HelveticaNeue,Helvetica Neue" font-size="16.0" fill="#000000" transform="matrix(0.94, -1.50, -1.50, -0.94, 195.7, 218.9)">R</text><text xml:space="preserve" font-family="HelveticaNeue,Helvetica Neue" font-size="16.0" fill="#000000" transform="matrix(1.19, -1.32, -1.32, -1.19, 310.9, 381.8)">s</text><text xml:space="preserve" font-family="HelveticaNeue,Helvetica Neue" font-size="16.0" fill="#000000" transform="matrix(1.19, -1.32, -1.32, -1.19, 320.4, 371.3)">e</text><text xml:space="preserve" font-family="HelveticaNeue,Helvetica Neue" font-size="16.0" fill="#000000" transform="matrix(1.19, -1.32, -1.32, -1.19, 330.6, 360.0)">n</text><text xml:space="preserve" font-family="HelveticaNeue,Helvetica Neue" font-size="16.0" fill="#000000" transform="matrix(1.19, -1.32, -1.32, -1.19, 341.1, 348.2)">d</text><text xml:space="preserve" font-family="HelveticaNeue,Helvetica Neue" font-size="16.0" fill="#000000" transform="matrix(1.19, -1.32, -1.32, -1.19, 352.4, 335.7)"> </text><text xml:space="preserve" font-family="HelveticaNeue,Helvetica Neue" font-size="16.0" fill="#000000" transform="matrix(1.19, -1.32, -1.32, -1.19, 357.7, 329.9)">E</text><text xml:space="preserve" font-family="HelveticaNeue,Helvetica Neue" font-size="16.0" fill="#000000" transform="matrix(1.19, -1.32, -1.32, -1.19, 369.3, 317.0)">S</text><text xml:space="preserve" font-family="HelveticaNeue,Helvetica Neue" font-size="16.0" fill="#000000" transform="matrix(1.19, -1.32, -1.32, -1.19, 295.9, 350.7)">s</text><text xml:space="preserve" font-family="HelveticaNeue,Helvetica Neue" font-size="16.0" fill="#000000" transform="matrix(1.19, -1.32, -1.32, -1.19, 305.4, 340.2)">e</text><text xml:space="preserve" font-family="HelveticaNeue,Helvetica Neue" font-size="16.0" fill="#000000" transform="matrix(1.19, -1.32, -1.32, -1.19, 315.6, 328.9)">n</text><text xml:space="preserve" font-family="HelveticaNeue,Helvetica Neue" font-size="16.0" fill="#000000" transform="matrix(1.19, -1.32, -1.32, -1.19, 326.2, 317.1)">d</text><text xml:space="preserve" font-family="HelveticaNeue,Helvetica Neue" font-size="16.0" fill="#000000" transform="matrix(1.19, -1.32, -1.32, -1.19, 337.5, 304.6)"> </text><text xml:space="preserve" font-family="HelveticaNeue,Helvetica Neue" font-size="16.0" fill="#000000" transform="matrix(1.19, -1.32, -1.32, -1.19, 342.7, 298.8)">/</text><text xml:space="preserve" font-family="HelveticaNeue,Helvetica Neue" font-size="16.0" fill="#000000" transform="matrix(1.19, -1.32, -1.32, -1.19, 271.7, 329.9)">r</text><text xml:space="preserve" font-family="HelveticaNeue,Helvetica Neue" font-size="16.0" fill="#000000" transform="matrix(1.19, -1.32, -1.32, -1.19, 277.7, 323.3)">e</text><text xml:space="preserve" font-family="HelveticaNeue,Helvetica Neue" font-size="16.0" fill="#000000" transform="matrix(1.19, -1.32, -1.32, -1.19, 287.9, 312.0)">c</text><text xml:space="preserve" font-family="HelveticaNeue,Helvetica Neue" font-size="16.0" fill="#000000" transform="matrix(1.19, -1.32, -1.32, -1.19, 298.1, 300.7)">v</text><text xml:space="preserve" font-family="HelveticaNeue,Helvetica Neue" font-size="16.0" fill="#000000" transform="matrix(1.19, -1.32, -1.32, -1.19, 307.6, 290.1)"> </text><text xml:space="preserve" font-family="HelveticaNeue,Helvetica Neue" font-size="16.0" fill="#000000" transform="matrix(1.19, -1.32, -1.32, -1.19, 312.8, 284.3)">R</text><text xml:space="preserve" font-family="HelveticaNeue,Helvetica Neue" font-size="16.0" fill="#000000" transform="matrix(1.77, 0.00, -0.00, -1.77, 257.3, 619.8)">s</text><text xml:space="preserve" font-family="HelveticaNeue,Helvetica Neue" font-size="16.0" fill="#000000" transform="matrix(1.77, 0.00, -0.00, -1.77, 271.4, 619.8)">e</text><text xml:space="preserve" font-family="HelveticaNeue,Helvetica Neue" font-size="16.0" fill="#000000" transform="matrix(1.77, 0.00, -0.00, -1.77, 286.7, 619.8)">n</text><text xml:space="preserve" font-family="HelveticaNeue,Helvetica Neue" font-size="16.0" fill="#000000" transform="matrix(1.77, 0.00, -0.00, -1.77, 302.5, 619.8)">d</text><text xml:space="preserve" font-family="HelveticaNeue,Helvetica Neue" font-size="16.0" fill="#000000" transform="matrix(1.77, 0.00, -0.00, -1.77, 319.3, 619.8)"> </text><text xml:space="preserve" font-family="HelveticaNeue,Helvetica Neue" font-size="16.0" fill="#000000" transform="matrix(1.77, 0.00, -0.00, -1.77, 327.2, 619.8)">H</text><path d="M 324.5 70.1 L 324.5 45.0 " fill="none" stroke="#000000" stroke-width="1.00" stroke-linecap="round" stroke-linejoin="round" transform="matrix(1.77, 0.00, 0.00, -1.77, -78.5, 1073.7)"></path><path d="M 497.1 935.2 L 502.4 949.4 L 491.8 949.4 Z M 497.1 935.2 " fill="#000000"></path><path d="M 324.5 78.1 L 327.5 70.1 L 321.5 70.1 Z M 324.5 78.1 " fill="none" stroke="#000000" stroke-width="1.00" transform="matrix(1.77, 0.00, 0.00, -1.77, -78.5, 1073.7)"></path></g></g></g></svg>