<?xml version="1.0" encoding="UTF-8" standalone="no"?><svg xmlns="http://www.w3.org/2000/svg" xmlns:xlink="http://www.w3.org/1999/xlink" clip-rule="evenodd" stroke-miterlimit="10" viewBox="0 0 1920 1080"><desc>SVG generated by Keynote</desc><defs></defs><g transform="matrix(1.00, 0.00, -0.00, -1.00, 0.0, 1080.0)"><path d="M 0.0 1080.0 L 1920.0 1080.0 L 1920.0 0.0 L 0.0 0.0 Z M 0.0 1080.0 " fill="#FEFFFF"></path><image xlink:href="../../32086FDA-B13C-4E1F-AF1C-D418A40F6CF7/assets/8C4D388DFF977377D97FDA6F2C5FABB2.jpeg" width="4096.00" height="2731.00" transform="matrix(0.63, 0.00, -0.00, -0.63, -678.0, 1730.0)"></image><text xml:space="preserve" font-family="SourceSansPro-Regular,Source Sans Pro" font-size="94.1" fill="#FEFFFE" transform="matrix(1.00, 0.00, -0.00, -1.00, 1717.6, 625.7)">M</text><text xml:space="preserve" font-family="SourceSansPro-Regular,Source Sans Pro" font-size="94.1" fill="#FEFFFE" transform="matrix(1.00, 0.00, -0.00, -1.00, 1786.0, 625.7)">A</text><text xml:space="preserve" font-family="SourceSansPro-Regular,Source Sans Pro" font-size="94.1" fill="#FEFFFE" transform="matrix(1.00, 0.00, -0.00, -1.00, 1837.6, 625.7)">X</text><text xml:space="preserve" font-family="SourceSansPro-Regular,Source Sans Pro" font-size="94.1" fill="#FEFFFE" transform="matrix(1.00, 0.00, -0.00, -1.00, 1885.8, 625.7)"> </text><text xml:space="preserve" font-family="SourceSansPro-Regular,Source Sans Pro" font-size="94.1" fill="#FEFFFE" transform="matrix(1.00, 0.00, -0.00, -1.00, 1328.2, 506.7)">C</text><text xml:space="preserve" font-family="SourceSansPro-Regular,Source Sans Pro" font-size="94.1" fill="#FEFFFE" transform="matrix(1.00, 0.00, -0.00, -1.00, 1379.2, 506.7)">O</text><text xml:space="preserve" font-family="SourceSansPro-Regular,Source Sans Pro" font-size="94.1" fill="#FEFFFE" transform="matrix(1.00, 0.00, -0.00, -1.00, 1441.7, 506.7)">N</text><text xml:space="preserve" font-family="SourceSansPro-Regular,Source Sans Pro" font-size="94.1" fill="#FEFFFE" transform="matrix(1.00, 0.00, -0.00, -1.00, 1502.5, 506.7)">C</text><text xml:space="preserve" font-family="SourceSansPro-Regular,Source Sans Pro" font-size="94.1" fill="#FEFFFE" transform="matrix(1.00, 0.00, -0.00, -1.00, 1554.9, 506.7)">U</text><text xml:space="preserve" font-family="SourceSansPro-Regular,Source Sans Pro" font-size="94.1" fill="#FEFFFE" transform="matrix(1.00, 0.00, -0.00, -1.00, 1615.6, 506.7)">R</text><text xml:space="preserve" font-family="SourceSansPro-Regular,Source Sans Pro" font-size="94.1" fill="#FEFFFE" transform="matrix(1.00, 0.00, -0.00, -1.00, 1670.3, 506.7)">R</text><text xml:space="preserve" font-family="SourceSansPro-Regular,Source Sans Pro" font-size="94.1" fill="#FEFFFE" transform="matrix(1.00, 0.00, -0.00, -1.00, 1724.9, 506.7)">E</text><text xml:space="preserve" font-family="SourceSansPro-Regular,Source Sans Pro" font-size="94.1" fill="#FEFFFE" transform="matrix(1.00, 0.00, -0.00, -1.00, 1774.5, 506.7)">N</text><text xml:space="preserve" font-family="SourceSansPro-Regular,Source Sans Pro" font-size="94.1" fill="#FEFFFE" transform="matrix(1.00, 0.00, -0.00, -1.00, 1835.4, 506.7)">T</text><text xml:space="preserve" font-family="SourceSansPro-Regular,Source Sans Pro" font-size="94.1" fill="#FEFFFE" transform="matrix(1.00, 0.00, -0.00, -1.00, 1885.8, 506.7)"> </text><text xml:space="preserve" font-family="SourceSansPro-Regular,Source Sans Pro" font-size="94.1" fill="#FEFFFE" transform="matrix(1.00, 0.00, -0.00, -1.00, 1513.0, 387.7)">S</text><text xml:space="preserve" font-family="SourceSansPro-Regular,Source Sans Pro" font-size="94.1" fill="#FEFFFE" transform="matrix(1.00, 0.00, -0.00, -1.00, 1561.3, 387.7)">T</text><text xml:space="preserve" font-family="SourceSansPro-Regular,Source Sans Pro" font-size="94.1" fill="#FEFFFE" transform="matrix(1.00, 0.00, -0.00, -1.00, 1611.8, 387.7)">R</text><text xml:space="preserve" font-family="SourceSansPro-Regular,Source Sans Pro" font-size="94.1" fill="#FEFFFE" transform="matrix(1.00, 0.00, -0.00, -1.00, 1666.4, 387.7)">E</text><text xml:space="preserve" font-family="SourceSansPro-Regular,Source Sans Pro" font-size="94.1" fill="#FEFFFE" transform="matrix(1.00, 0.00, -0.00, -1.00, 1716.0, 387.7)">A</text><text xml:space="preserve" font-family="SourceSansPro-Regular,Source Sans Pro" font-size="94.1" fill="#FEFFFE" transform="matrix(1.00, 0.00, -0.00, -1.00, 1767.2, 387.7)">M</text><text xml:space="preserve" font-family="SourceSansPro-Regular,Source Sans Pro" font-size="94.1" fill="#FEFFFE" transform="matrix(1.00, 0.00, -0.00, -1.00, 1835.6, 387.7)">S</text></g></svg>