<?xml version="1.0" encoding="UTF-8" standalone="no"?><svg xmlns="http://www.w3.org/2000/svg" xmlns:xlink="http://www.w3.org/1999/xlink" clip-rule="evenodd" stroke-miterlimit="10" viewBox="0 0 245 700"><desc>SVG generated by Keynote</desc><defs><linearGradient id="gradSh1.281" x1="-72.0" y1="0.0" x2="72.0" y2="0.0" gradientUnits="userSpaceOnUse" gradientTransform="matrix(0.00, -1.57, -1.58, 0.00, 122.5, 579.9)"><stop offset="0.00000" stop-color="#FF9D3A"></stop><stop offset="0.00806" stop-color="#FF9C3A"></stop><stop offset="0.48607" stop-color="#E6781F"></stop><stop offset="0.49120" stop-color="#E6771F"></stop><stop offset="0.77419" stop-color="#D8620F"></stop><stop offset="0.77786" stop-color="#D8610F"></stop><stop offset="0.91789" stop-color="#D05707"></stop><stop offset="0.92155" stop-color="#D05607"></stop><stop offset="0.98974" stop-color="#CD5103"></stop><stop offset="0.99707" stop-color="#CC5103"></stop><stop offset="1.00000" stop-color="#CC5003"></stop></linearGradient><linearGradient id="gradSh2.282" x1="-72.0" y1="0.0" x2="72.0" y2="0.0" gradientUnits="userSpaceOnUse" gradientTransform="matrix(0.00, -1.57, -1.58, 0.00, 122.5, 126.4)"><stop offset="0.00000" stop-color="#FF9D3A"></stop><stop offset="0.00806" stop-color="#FF9C3A"></stop><stop offset="0.48607" stop-color="#E6781F"></stop><stop offset="0.49120" stop-color="#E6771F"></stop><stop offset="0.77419" stop-color="#D8620F"></stop><stop offset="0.77786" stop-color="#D8610F"></stop><stop offset="0.91789" stop-color="#D05707"></stop><stop offset="0.92155" stop-color="#D05607"></stop><stop offset="0.98974" stop-color="#CD5103"></stop><stop offset="0.99707" stop-color="#CC5103"></stop><stop offset="1.00000" stop-color="#CC5003"></stop></linearGradient></defs><g transform="matrix(1.00, 0.00, -0.00, -1.00, 0.0, 700.0)"><g><clipPath id="clip0x7fd421bcf6d0"><path d="M 1.0 2.0 L 244.0 2.0 L 244.0 698.0 L 1.0 698.0 Z M 1.0 2.0 "></path></clipPath><g clip-path="url(#clip0x7fd421bcf6d0)"><image xlink:href="../../E6B8465E-7962-4ED8-B438-E19499792DAC/assets/ED295B6B97FC018C35D4FA8482A0E127.png" width="41.00" height="166.00" transform="matrix(1.58, 0.00, -0.00, 1.57, 108.3, 225.6)"></image><image xlink:href="../../F36A6F62-F7B3-45ED-9907-0EDA78A152D7/assets/26D63AB0A3D55BB2EC547125617D0F43.png" width="154.00" height="154.00" transform="matrix(1.58, 0.00, -0.00, 1.57, 1.0, 455.5)"></image></g></g><g><clipPath id="clip0x7fd421bd1520"><path d="M 15.2 693.3 L 229.8 693.3 C 233.3 693.3 236.1 690.5 236.1 687.0 L 236.1 472.8 C 236.1 469.3 233.3 466.5 229.8 466.5 L 15.2 466.5 C 11.7 466.5 8.9 469.3 8.9 472.8 L 8.9 687.0 C 8.9 690.5 11.7 693.3 15.2 693.3 Z M 15.2 693.3 "></path></clipPath><g clip-path="url(#clip0x7fd421bd1520)"><g><clipPath id="clip0x7fd421b78090"><path d="M 1.0 2.0 L 244.0 2.0 L 244.0 698.0 L 1.0 698.0 Z M 1.0 2.0 "></path></clipPath><g clip-path="url(#clip0x7fd421b78090)"><path d="M 1.0 2.0 L 244.0 2.0 L 244.0 698.0 L 1.0 698.0 Z M 1.0 2.0 " fill="url(#gradSh1.281)"></path></g></g></g></g><g><clipPath id="clip0x7fd421f35210"><path d="M 1.0 2.0 L 244.0 2.0 L 244.0 698.0 L 1.0 698.0 Z M 1.0 2.0 "></path></clipPath><g clip-path="url(#clip0x7fd421f35210)"><path d="M 292.0 72.0 L 428.0 72.0 C 430.2 72.0 432.0 73.8 432.0 76.0 L 432.0 212.0 C 432.0 214.2 430.2 216.0 428.0 216.0 L 292.0 216.0 C 289.8 216.0 288.0 214.2 288.0 212.0 L 288.0 76.0 C 288.0 73.8 289.8 72.0 292.0 72.0 Z M 292.0 72.0 " fill="none" stroke="#AE653C" stroke-width="2.00" stroke-linecap="round" stroke-linejoin="round" transform="matrix(1.58, 0.00, 0.00, -1.57, -445.6, 806.7)"></path></g></g><image xlink:href="../../E6B8465E-7962-4ED8-B438-E19499792DAC/assets/4A6BDF95E86315E76584D23524ECE5AF.png" width="106.00" height="49.00" transform="matrix(1.00, 0.00, -0.00, -1.00, 70.0, 622.0)"></image><g><clipPath id="clip0x7fd421f373b0"><path d="M 1.0 2.0 L 244.0 2.0 L 244.0 698.0 L 1.0 698.0 Z M 1.0 2.0 "></path></clipPath><g clip-path="url(#clip0x7fd421f373b0)"><text xml:space="preserve" font-family="Helvetica-Bold,Helvetica" font-weight="bold" font-size="25.0" fill="#FFFFFF" transform="matrix(1.58, 0.00, -0.00, -1.57, 74.3, 589.3)">h</text><text xml:space="preserve" font-family="Helvetica-Bold,Helvetica" font-weight="bold" font-size="25.0" fill="#FFFFFF" transform="matrix(1.58, 0.00, -0.00, -1.57, 98.4, 589.3)">t</text><text xml:space="preserve" font-family="Helvetica-Bold,Helvetica" font-weight="bold" font-size="25.0" fill="#FFFFFF" transform="matrix(1.58, 0.00, -0.00, -1.57, 111.5, 589.3)">t</text><text xml:space="preserve" font-family="Helvetica-Bold,Helvetica" font-weight="bold" font-size="25.0" fill="#FFFFFF" transform="matrix(1.58, 0.00, -0.00, -1.57, 124.7, 589.3)">p</text><text xml:space="preserve" font-family="Helvetica-Bold,Helvetica" font-weight="bold" font-size="25.0" fill="#FFFFFF" transform="matrix(1.58, 0.00, -0.00, -1.57, 148.7, 589.3)">2</text></g></g><image xlink:href="../../E6B8465E-7962-4ED8-B438-E19499792DAC/assets/170F5D06808E2B4C9DA394A896855869.png" width="220.00" height="42.00" transform="matrix(1.00, 0.00, -0.00, -1.00, 12.0, 575.0)"></image><g><clipPath id="clip0x7fd421bd2470"><path d="M 1.0 2.0 L 244.0 2.0 L 244.0 698.0 L 1.0 698.0 Z M 1.0 2.0 "></path></clipPath><g clip-path="url(#clip0x7fd421bd2470)"><text xml:space="preserve" font-family="Helvetica-Bold,Helvetica" font-weight="bold" font-size="25.0" fill="#FFFFFF" transform="matrix(1.58, 0.00, -0.00, -1.57, 17.3, 542.1)">c</text><text xml:space="preserve" font-family="Helvetica-Bold,Helvetica" font-weight="bold" font-size="25.0" fill="#FFFFFF" transform="matrix(1.58, 0.00, -0.00, -1.57, 39.2, 542.1)">o</text><text xml:space="preserve" font-family="Helvetica-Bold,Helvetica" font-weight="bold" font-size="25.0" fill="#FFFFFF" transform="matrix(1.58, 0.00, -0.00, -1.57, 63.3, 542.1)">n</text><text xml:space="preserve" font-family="Helvetica-Bold,Helvetica" font-weight="bold" font-size="25.0" fill="#FFFFFF" transform="matrix(1.58, 0.00, -0.00, -1.57, 87.4, 542.1)">n</text><text xml:space="preserve" font-family="Helvetica-Bold,Helvetica" font-weight="bold" font-size="25.0" fill="#FFFFFF" transform="matrix(1.58, 0.00, -0.00, -1.57, 111.5, 542.1)">e</text><text xml:space="preserve" font-family="Helvetica-Bold,Helvetica" font-weight="bold" font-size="25.0" fill="#FFFFFF" transform="matrix(1.58, 0.00, -0.00, -1.57, 133.5, 542.1)">c</text><text xml:space="preserve" font-family="Helvetica-Bold,Helvetica" font-weight="bold" font-size="25.0" fill="#FFFFFF" transform="matrix(1.58, 0.00, -0.00, -1.57, 155.4, 542.1)">t</text><text xml:space="preserve" font-family="Helvetica-Bold,Helvetica" font-weight="bold" font-size="25.0" fill="#FFFFFF" transform="matrix(1.58, 0.00, -0.00, -1.57, 168.5, 542.1)">i</text><text xml:space="preserve" font-family="Helvetica-Bold,Helvetica" font-weight="bold" font-size="25.0" fill="#FFFFFF" transform="matrix(1.58, 0.00, -0.00, -1.57, 179.5, 542.1)">o</text><text xml:space="preserve" font-family="Helvetica-Bold,Helvetica" font-weight="bold" font-size="25.0" fill="#FFFFFF" transform="matrix(1.58, 0.00, -0.00, -1.57, 203.6, 542.1)">n</text></g></g><g><clipPath id="clip0x7fd421bd74c0"><path d="M 1.0 2.0 L 244.0 2.0 L 244.0 698.0 L 1.0 698.0 Z M 1.0 2.0 "></path></clipPath><g clip-path="url(#clip0x7fd421bd74c0)"><image xlink:href="../../F36A6F62-F7B3-45ED-9907-0EDA78A152D7/assets/26D63AB0A3D55BB2EC547125617D0F43.png" width="154.00" height="154.00" transform="matrix(1.58, 0.00, -0.00, 1.57, 1.0, 2.0)"></image></g></g><g><clipPath id="clip0x7fd421bd8200"><path d="M 15.2 239.8 L 229.8 239.8 C 233.3 239.8 236.1 237.0 236.1 233.5 L 236.1 19.3 C 236.1 15.8 233.3 13.0 229.8 13.0 L 15.2 13.0 C 11.7 13.0 8.9 15.8 8.9 19.3 L 8.9 233.5 C 8.9 237.0 11.7 239.8 15.2 239.8 Z M 15.2 239.8 "></path></clipPath><g clip-path="url(#clip0x7fd421bd8200)"><g><clipPath id="clip0x7fd421bd89d0"><path d="M 1.0 2.0 L 244.0 2.0 L 244.0 698.0 L 1.0 698.0 Z M 1.0 2.0 "></path></clipPath><g clip-path="url(#clip0x7fd421bd89d0)"><path d="M 1.0 2.0 L 244.0 2.0 L 244.0 698.0 L 1.0 698.0 Z M 1.0 2.0 " fill="url(#gradSh2.282)"></path></g></g></g></g><g><clipPath id="clip0x7fd42202fd70"><path d="M 1.0 2.0 L 244.0 2.0 L 244.0 698.0 L 1.0 698.0 Z M 1.0 2.0 "></path></clipPath><g clip-path="url(#clip0x7fd42202fd70)"><path d="M 292.0 360.0 L 428.0 360.0 C 430.2 360.0 432.0 361.8 432.0 364.0 L 432.0 500.0 C 432.0 502.2 430.2 504.0 428.0 504.0 L 292.0 504.0 C 289.8 504.0 288.0 502.2 288.0 500.0 L 288.0 364.0 C 288.0 361.8 289.8 360.0 292.0 360.0 Z M 292.0 360.0 " fill="none" stroke="#AE653C" stroke-width="2.00" stroke-linecap="round" stroke-linejoin="round" transform="matrix(1.58, 0.00, 0.00, -1.57, -445.6, 806.7)"></path></g></g><image xlink:href="../../E6B8465E-7962-4ED8-B438-E19499792DAC/assets/EFF96E6B0D9BE5748FAFBF748E3AC312.png" width="187.00" height="50.00" transform="matrix(1.00, 0.00, -0.00, -1.00, 30.0, 145.0)"></image><g><clipPath id="clip0x7fd421d0d3a0"><path d="M 1.0 2.0 L 244.0 2.0 L 244.0 698.0 L 1.0 698.0 Z M 1.0 2.0 "></path></clipPath><g clip-path="url(#clip0x7fd421d0d3a0)"><text xml:space="preserve" font-family="Helvetica-Bold,Helvetica" font-weight="bold" font-size="25.0" fill="#FFFFFF" transform="matrix(1.58, 0.00, -0.00, -1.57, 33.7, 112.2)">p</text><text xml:space="preserve" font-family="Helvetica-Bold,Helvetica" font-weight="bold" font-size="25.0" fill="#FFFFFF" transform="matrix(1.58, 0.00, -0.00, -1.57, 57.8, 112.2)">r</text><text xml:space="preserve" font-family="Helvetica-Bold,Helvetica" font-weight="bold" font-size="25.0" fill="#FFFFFF" transform="matrix(1.58, 0.00, -0.00, -1.57, 73.2, 112.2)">i</text><text xml:space="preserve" font-family="Helvetica-Bold,Helvetica" font-weight="bold" font-size="25.0" fill="#FFFFFF" transform="matrix(1.58, 0.00, -0.00, -1.57, 84.1, 112.2)">m</text><text xml:space="preserve" font-family="Helvetica-Bold,Helvetica" font-weight="bold" font-size="25.0" fill="#FFFFFF" transform="matrix(1.58, 0.00, -0.00, -1.57, 119.2, 112.2)">_</text><text xml:space="preserve" font-family="Helvetica-Bold,Helvetica" font-weight="bold" font-size="25.0" fill="#FFFFFF" transform="matrix(1.58, 0.00, -0.00, -1.57, 141.1, 112.2)">i</text><text xml:space="preserve" font-family="Helvetica-Bold,Helvetica" font-weight="bold" font-size="25.0" fill="#FFFFFF" transform="matrix(1.58, 0.00, -0.00, -1.57, 152.1, 112.2)">n</text><text xml:space="preserve" font-family="Helvetica-Bold,Helvetica" font-weight="bold" font-size="25.0" fill="#FFFFFF" transform="matrix(1.58, 0.00, -0.00, -1.57, 176.1, 112.2)">e</text><text xml:space="preserve" font-family="Helvetica-Bold,Helvetica" font-weight="bold" font-size="25.0" fill="#FFFFFF" transform="matrix(1.58, 0.00, -0.00, -1.57, 198.1, 112.2)">t</text></g></g><g><clipPath id="clip0x7fd421d10550"><path d="M 1.0 2.0 L 244.0 2.0 L 244.0 698.0 L 1.0 698.0 Z M 1.0 2.0 "></path></clipPath><g clip-path="url(#clip0x7fd421d10550)"><path d="M 360.5 359.0 L 360.5 238.9 " fill="none" stroke="#000000" stroke-width="5.00" stroke-linecap="round" stroke-linejoin="round" transform="matrix(1.58, 0.00, 0.00, -1.57, -445.6, 806.7)"></path><path d="M 122.5 453.1 L 114.0 430.5 L 131.0 430.5 Z M 122.5 453.1 " fill="#000000"></path><path d="M 360.0 224.5 L 354.6 238.9 L 365.4 238.9 Z M 360.0 224.5 " fill="none" stroke="#000000" stroke-width="5.00" transform="matrix(1.58, 0.00, 0.00, -1.57, -445.6, 806.7)"></path></g></g></g></svg>