<?xml version="1.0" encoding="UTF-8" standalone="no"?><svg xmlns="http://www.w3.org/2000/svg" xmlns:xlink="http://www.w3.org/1999/xlink" clip-rule="evenodd" stroke-miterlimit="10" viewBox="0 0 1920 1080"><desc>SVG generated by Keynote</desc><defs></defs><g transform="matrix(1.00, 0.00, -0.00, -1.00, 0.0, 1080.0)"><path d="M 0.0 1080.0 L 1920.0 1080.0 L 1920.0 0.0 L 0.0 0.0 Z M 0.0 1080.0 " fill="#FEFFFF"></path><image xlink:href="../../9B6F168F-EA0C-43F0-B304-96E75828061C/assets/4331135D0BD5FF33B05EC519F485380D.png" width="500.00" height="375.00" transform="matrix(2.89, 0.00, -0.00, -2.89, -0.2, 1081.1)"></image><text xml:space="preserve" font-family="SourceSansPro-Semibold,Source Sans Pro" font-weight="bold" font-size="109.2" fill="#000000" transform="matrix(1.00, 0.00, -0.00, -1.00, 1678.3, 706.2)">M</text><text xml:space="preserve" font-family="SourceSansPro-Semibold,Source Sans Pro" font-weight="bold" font-size="109.2" fill="#000000" transform="matrix(1.00, 0.00, -0.00, -1.00, 1759.6, 706.2)">A</text><text xml:space="preserve" font-family="SourceSansPro-Semibold,Source Sans Pro" font-weight="bold" font-size="109.2" fill="#000000" transform="matrix(1.00, 0.00, -0.00, -1.00, 1820.5, 706.2)">X</text><text xml:space="preserve" font-family="SourceSansPro-Semibold,Source Sans Pro" font-weight="bold" font-size="109.2" fill="#000000" transform="matrix(1.00, 0.00, -0.00, -1.00, 1879.6, 706.2)"> </text><text xml:space="preserve" font-family="SourceSansPro-Semibold,Source Sans Pro" font-weight="bold" font-size="109.2" fill="#000000" transform="matrix(1.00, 0.00, -0.00, -1.00, 1495.1, 569.2)">H</text><text xml:space="preserve" font-family="SourceSansPro-Semibold,Source Sans Pro" font-weight="bold" font-size="109.2" fill="#000000" transform="matrix(1.00, 0.00, -0.00, -1.00, 1567.5, 569.2)">E</text><text xml:space="preserve" font-family="SourceSansPro-Semibold,Source Sans Pro" font-weight="bold" font-size="109.2" fill="#000000" transform="matrix(1.00, 0.00, -0.00, -1.00, 1626.3, 569.2)">A</text><text xml:space="preserve" font-family="SourceSansPro-Semibold,Source Sans Pro" font-weight="bold" font-size="109.2" fill="#000000" transform="matrix(1.00, 0.00, -0.00, -1.00, 1687.2, 569.2)">D</text><text xml:space="preserve" font-family="SourceSansPro-Semibold,Source Sans Pro" font-weight="bold" font-size="109.2" fill="#000000" transform="matrix(1.00, 0.00, -0.00, -1.00, 1755.5, 569.2)">E</text><text xml:space="preserve" font-family="SourceSansPro-Semibold,Source Sans Pro" font-weight="bold" font-size="109.2" fill="#000000" transform="matrix(1.00, 0.00, -0.00, -1.00, 1814.2, 569.2)">R</text><text xml:space="preserve" font-family="SourceSansPro-Semibold,Source Sans Pro" font-weight="bold" font-size="109.2" fill="#000000" transform="matrix(1.00, 0.00, -0.00, -1.00, 1879.6, 569.2)"> </text><text xml:space="preserve" font-family="SourceSansPro-Semibold,Source Sans Pro" font-weight="bold" font-size="109.2" fill="#000000" transform="matrix(1.00, 0.00, -0.00, -1.00, 1677.1, 432.2)">L</text><text xml:space="preserve" font-family="SourceSansPro-Semibold,Source Sans Pro" font-weight="bold" font-size="109.2" fill="#000000" transform="matrix(1.00, 0.00, -0.00, -1.00, 1731.9, 432.2)">I</text><text xml:space="preserve" font-family="SourceSansPro-Semibold,Source Sans Pro" font-weight="bold" font-size="109.2" fill="#000000" transform="matrix(1.00, 0.00, -0.00, -1.00, 1762.7, 432.2)">S</text><text xml:space="preserve" font-family="SourceSansPro-Semibold,Source Sans Pro" font-weight="bold" font-size="109.2" fill="#000000" transform="matrix(1.00, 0.00, -0.00, -1.00, 1820.0, 432.2)">T</text><text xml:space="preserve" font-family="SourceSansPro-Semibold,Source Sans Pro" font-weight="bold" font-size="109.2" fill="#000000" transform="matrix(1.00, 0.00, -0.00, -1.00, 1879.6, 432.2)"> </text><text xml:space="preserve" font-family="SourceSansPro-Semibold,Source Sans Pro" font-weight="bold" font-size="109.2" fill="#000000" transform="matrix(1.00, 0.00, -0.00, -1.00, 1671.6, 295.2)">S</text><text xml:space="preserve" font-family="SourceSansPro-Semibold,Source Sans Pro" font-weight="bold" font-size="109.2" fill="#000000" transform="matrix(1.00, 0.00, -0.00, -1.00, 1731.1, 295.2)">I</text><text xml:space="preserve" font-family="SourceSansPro-Semibold,Source Sans Pro" font-weight="bold" font-size="109.2" fill="#000000" transform="matrix(1.00, 0.00, -0.00, -1.00, 1761.9, 295.2)">Z</text><text xml:space="preserve" font-family="SourceSansPro-Semibold,Source Sans Pro" font-weight="bold" font-size="109.2" fill="#000000" transform="matrix(1.00, 0.00, -0.00, -1.00, 1820.9, 295.2)">E</text></g></svg>