<?xml version="1.0" encoding="UTF-8" standalone="no"?><svg xmlns="http://www.w3.org/2000/svg" xmlns:xlink="http://www.w3.org/1999/xlink" clip-rule="evenodd" stroke-miterlimit="10" viewBox="0 0 1920 1080"><desc>SVG generated by Keynote</desc><defs></defs><g transform="matrix(1.00, 0.00, -0.00, -1.00, 0.0, 1080.0)"><path d="M 0.0 1080.0 L 1920.0 1080.0 L 1920.0 0.0 L 0.0 0.0 Z M 0.0 1080.0 " fill="#FEFFFF"></path><image xlink:href="../../D0B00131-C440-4EBF-BE03-E336488E0729/assets/BA88B6CEFAB1774AF4B868A0322457FB.png" width="3676.00" height="2801.00" transform="matrix(0.55, 0.00, -0.00, -0.55, -2.0, 1114.0)"></image><text xml:space="preserve" font-family="SourceSansPro-Semibold,Source Sans Pro" font-weight="bold" font-size="94.4" fill="#000000" transform="matrix(1.00, 0.00, -0.00, -1.00, 229.4, 883.5)">H</text><text xml:space="preserve" font-family="SourceSansPro-Semibold,Source Sans Pro" font-weight="bold" font-size="94.4" fill="#000000" transform="matrix(1.00, 0.00, -0.00, -1.00, 292.0, 883.5)">E</text><text xml:space="preserve" font-family="SourceSansPro-Semibold,Source Sans Pro" font-weight="bold" font-size="94.4" fill="#000000" transform="matrix(1.00, 0.00, -0.00, -1.00, 342.8, 883.5)">A</text><text xml:space="preserve" font-family="SourceSansPro-Semibold,Source Sans Pro" font-weight="bold" font-size="94.4" fill="#000000" transform="matrix(1.00, 0.00, -0.00, -1.00, 395.5, 883.5)">D</text><text xml:space="preserve" font-family="SourceSansPro-Semibold,Source Sans Pro" font-weight="bold" font-size="94.4" fill="#000000" transform="matrix(1.00, 0.00, -0.00, -1.00, 454.5, 883.5)">E</text><text xml:space="preserve" font-family="SourceSansPro-Semibold,Source Sans Pro" font-weight="bold" font-size="94.4" fill="#000000" transform="matrix(1.00, 0.00, -0.00, -1.00, 505.3, 883.5)">R</text><text xml:space="preserve" font-family="SourceSansPro-Semibold,Source Sans Pro" font-weight="bold" font-size="94.4" fill="#000000" transform="matrix(1.00, 0.00, -0.00, -1.00, 561.9, 883.5)"> </text><text xml:space="preserve" font-family="SourceSansPro-Semibold,Source Sans Pro" font-weight="bold" font-size="94.4" fill="#000000" transform="matrix(1.00, 0.00, -0.00, -1.00, 229.4, 764.5)">T</text><text xml:space="preserve" font-family="SourceSansPro-Semibold,Source Sans Pro" font-weight="bold" font-size="94.4" fill="#000000" transform="matrix(1.00, 0.00, -0.00, -1.00, 277.2, 764.5)">A</text><text xml:space="preserve" font-family="SourceSansPro-Semibold,Source Sans Pro" font-weight="bold" font-size="94.4" fill="#000000" transform="matrix(1.00, 0.00, -0.00, -1.00, 329.9, 764.5)">B</text><text xml:space="preserve" font-family="SourceSansPro-Semibold,Source Sans Pro" font-weight="bold" font-size="94.4" fill="#000000" transform="matrix(1.00, 0.00, -0.00, -1.00, 386.3, 764.5)">L</text><text xml:space="preserve" font-family="SourceSansPro-Semibold,Source Sans Pro" font-weight="bold" font-size="94.4" fill="#000000" transform="matrix(1.00, 0.00, -0.00, -1.00, 433.7, 764.5)">E</text><text xml:space="preserve" font-family="SourceSansPro-Semibold,Source Sans Pro" font-weight="bold" font-size="94.4" fill="#000000" transform="matrix(1.00, 0.00, -0.00, -1.00, 484.5, 764.5)"> </text><text xml:space="preserve" font-family="SourceSansPro-Semibold,Source Sans Pro" font-weight="bold" font-size="94.4" fill="#000000" transform="matrix(1.00, 0.00, -0.00, -1.00, 229.4, 645.5)">S</text><text xml:space="preserve" font-family="SourceSansPro-Semibold,Source Sans Pro" font-weight="bold" font-size="94.4" fill="#000000" transform="matrix(1.00, 0.00, -0.00, -1.00, 280.9, 645.5)">I</text><text xml:space="preserve" font-family="SourceSansPro-Semibold,Source Sans Pro" font-weight="bold" font-size="94.4" fill="#000000" transform="matrix(1.00, 0.00, -0.00, -1.00, 307.5, 645.5)">Z</text><text xml:space="preserve" font-family="SourceSansPro-Semibold,Source Sans Pro" font-weight="bold" font-size="94.4" fill="#000000" transform="matrix(1.00, 0.00, -0.00, -1.00, 358.5, 645.5)">E</text></g></svg>