<?xml version="1.0" encoding="UTF-8" standalone="no"?><svg xmlns="http://www.w3.org/2000/svg" xmlns:xlink="http://www.w3.org/1999/xlink" clip-rule="evenodd" stroke-miterlimit="10" viewBox="0 0 1125 864"><desc>SVG generated by Keynote</desc><defs><linearGradient id="gradSh1.57" x1="-72.0" y1="0.0" x2="72.0" y2="0.0" gradientUnits="userSpaceOnUse" gradientTransform="matrix(0.00, -1.00, -1.00, 0.00, 152.0, 633.7)"><stop offset="0.00000" stop-color="#FF9D3A"></stop><stop offset="0.00806" stop-color="#FF9C3A"></stop><stop offset="0.48607" stop-color="#E6781F"></stop><stop offset="0.49120" stop-color="#E6771F"></stop><stop offset="0.77419" stop-color="#D8620F"></stop><stop offset="0.77786" stop-color="#D8610F"></stop><stop offset="0.91789" stop-color="#D05707"></stop><stop offset="0.92155" stop-color="#D05607"></stop><stop offset="0.98974" stop-color="#CD5103"></stop><stop offset="0.99707" stop-color="#CC5103"></stop><stop offset="1.00000" stop-color="#CC5003"></stop></linearGradient><linearGradient id="gradSh2.58" x1="-72.0" y1="0.0" x2="72.0" y2="0.0" gradientUnits="userSpaceOnUse" gradientTransform="matrix(0.00, -1.00, -1.00, 0.00, 368.0, 633.7)"><stop offset="0.00000" stop-color="#FF9D3A"></stop><stop offset="0.00806" stop-color="#FF9C3A"></stop><stop offset="0.48607" stop-color="#E6781F"></stop><stop offset="0.49120" stop-color="#E6771F"></stop><stop offset="0.77419" stop-color="#D8620F"></stop><stop offset="0.77786" stop-color="#D8610F"></stop><stop offset="0.91789" stop-color="#D05707"></stop><stop offset="0.92155" stop-color="#D05607"></stop><stop offset="0.98974" stop-color="#CD5103"></stop><stop offset="0.99707" stop-color="#CC5103"></stop><stop offset="1.00000" stop-color="#CC5003"></stop></linearGradient><linearGradient id="gradSh3.59" x1="-72.0" y1="0.0" x2="72.0" y2="0.0" gradientUnits="userSpaceOnUse" gradientTransform="matrix(0.00, -1.00, -1.00, 0.00, 584.0, 633.7)"><stop offset="0.00000" stop-color="#FF9D3A"></stop><stop offset="0.00806" stop-color="#FF9C3A"></stop><stop offset="0.48607" stop-color="#E6781F"></stop><stop offset="0.49120" stop-color="#E6771F"></stop><stop offset="0.77419" stop-color="#D8620F"></stop><stop offset="0.77786" stop-color="#D8610F"></stop><stop offset="0.91789" stop-color="#D05707"></stop><stop offset="0.92155" stop-color="#D05607"></stop><stop offset="0.98974" stop-color="#CD5103"></stop><stop offset="0.99707" stop-color="#CC5103"></stop><stop offset="1.00000" stop-color="#CC5003"></stop></linearGradient><linearGradient id="gradSh4.60" x1="-72.0" y1="0.0" x2="72.0" y2="0.0" gradientUnits="userSpaceOnUse" gradientTransform="matrix(0.00, -1.00, -1.00, 0.00, 800.0, 633.7)"><stop offset="0.00000" stop-color="#FF9D3A"></stop><stop offset="0.00806" stop-color="#FF9C3A"></stop><stop offset="0.48607" stop-color="#E6781F"></stop><stop offset="0.49120" stop-color="#E6771F"></stop><stop offset="0.77419" stop-color="#D8620F"></stop><stop offset="0.77786" stop-color="#D8610F"></stop><stop offset="0.91789" stop-color="#D05707"></stop><stop offset="0.92155" stop-color="#D05607"></stop><stop offset="0.98974" stop-color="#CD5103"></stop><stop offset="0.99707" stop-color="#CC5103"></stop><stop offset="1.00000" stop-color="#CC5003"></stop></linearGradient><linearGradient id="gradSh5.61" x1="-72.0" y1="0.0" x2="72.0" y2="0.0" gradientUnits="userSpaceOnUse" gradientTransform="matrix(0.00, -1.00, -1.00, 0.00, 1016.0, 633.7)"><stop offset="0.00000" stop-color="#FF9D3A"></stop><stop offset="0.00806" stop-color="#FF9C3A"></stop><stop offset="0.48607" stop-color="#E6781F"></stop><stop offset="0.49120" stop-color="#E6771F"></stop><stop offset="0.77419" stop-color="#D8620F"></stop><stop offset="0.77786" stop-color="#D8610F"></stop><stop offset="0.91789" stop-color="#D05707"></stop><stop offset="0.92155" stop-color="#D05607"></stop><stop offset="0.98974" stop-color="#CD5103"></stop><stop offset="0.99707" stop-color="#CC5103"></stop><stop offset="1.00000" stop-color="#CC5003"></stop></linearGradient><linearGradient id="gradSh6.62" x1="-72.0" y1="0.0" x2="72.0" y2="0.0" gradientUnits="userSpaceOnUse" gradientTransform="matrix(0.00, -1.00, -1.00, 0.00, 800.0, 417.7)"><stop offset="0.00000" stop-color="#FF9D3A"></stop><stop offset="0.00806" stop-color="#FF9C3A"></stop><stop offset="0.48607" stop-color="#E6781F"></stop><stop offset="0.49120" stop-color="#E6771F"></stop><stop offset="0.77419" stop-color="#D8620F"></stop><stop offset="0.77786" stop-color="#D8610F"></stop><stop offset="0.91789" stop-color="#D05707"></stop><stop offset="0.92155" stop-color="#D05607"></stop><stop offset="0.98974" stop-color="#CD5103"></stop><stop offset="0.99707" stop-color="#CC5103"></stop><stop offset="1.00000" stop-color="#CC5003"></stop></linearGradient><linearGradient id="gradSh7.63" x1="-72.0" y1="0.0" x2="72.0" y2="0.0" gradientUnits="userSpaceOnUse" gradientTransform="matrix(0.00, -1.00, -1.00, 0.00, 800.0, 201.7)"><stop offset="0.00000" stop-color="#FF9D3A"></stop><stop offset="0.00806" stop-color="#FF9C3A"></stop><stop offset="0.48607" stop-color="#E6781F"></stop><stop offset="0.49120" stop-color="#E6771F"></stop><stop offset="0.77419" stop-color="#D8620F"></stop><stop offset="0.77786" stop-color="#D8610F"></stop><stop offset="0.91789" stop-color="#D05707"></stop><stop offset="0.92155" stop-color="#D05607"></stop><stop offset="0.98974" stop-color="#CD5103"></stop><stop offset="0.99707" stop-color="#CC5103"></stop><stop offset="1.00000" stop-color="#CC5003"></stop></linearGradient></defs><g transform="matrix(1.00, 0.00, -0.00, -1.00, 0.0, 864.0)"><g><clipPath id="clip0x7fd4361667a0"><path d="M 444.3 -7.3 L 680.4 -7.3 L 680.4 77.7 L 444.3 77.7 Z M 444.3 -7.3 "></path></clipPath><g clip-path="url(#clip0x7fd4361667a0)"><text xml:space="preserve" font-family="Courier-Bold,Courier" font-weight="bold" font-size="50.0" fill="#000000" transform="matrix(1.00, 0.00, -0.00, -1.00, 457.3, 17.5)">g</text><text xml:space="preserve" font-family="Courier-Bold,Courier" font-weight="bold" font-size="50.0" fill="#000000" transform="matrix(1.00, 0.00, -0.00, -1.00, 487.3, 17.5)">e</text><text xml:space="preserve" font-family="Courier-Bold,Courier" font-weight="bold" font-size="50.0" fill="#000000" transform="matrix(1.00, 0.00, -0.00, -1.00, 517.4, 17.5)">n</text><text xml:space="preserve" font-family="Courier-Bold,Courier" font-weight="bold" font-size="50.0" fill="#000000" transform="matrix(1.00, 0.00, -0.00, -1.00, 547.4, 17.5)">_</text><text xml:space="preserve" font-family="Courier-Bold,Courier" font-weight="bold" font-size="50.0" fill="#000000" transform="matrix(1.00, 0.00, -0.00, -1.00, 577.4, 17.5)">f</text><text xml:space="preserve" font-family="Courier-Bold,Courier" font-weight="bold" font-size="50.0" fill="#000000" transform="matrix(1.00, 0.00, -0.00, -1.00, 607.4, 17.5)">s</text><text xml:space="preserve" font-family="Courier-Bold,Courier" font-weight="bold" font-size="50.0" fill="#000000" transform="matrix(1.00, 0.00, -0.00, -1.00, 637.4, 17.5)">m</text></g></g><g><clipPath id="clip0x7fd4361c7f70"><path d="M 0.4 122.0 L 1124.0 122.0 L 1124.0 863.8 L 0.4 863.8 Z M 0.4 122.0 "></path></clipPath><g clip-path="url(#clip0x7fd4361c7f70)"><image xlink:href="09602989A7D55721ADAE3F8C1C8A5147.png" width="106.00" height="28.00" transform="matrix(1.00, 0.00, -0.00, 1.00, 0.0, 619.0)"></image><image xlink:href="009685358D09EE7C4D5764F0BE34FA17.png" width="105.00" height="28.00" transform="matrix(1.00, 0.00, -0.00, 1.00, 217.0, 619.0)"></image><image xlink:href="../../A7482197-03EF-4231-B37E-3A53DC93D8C8/assets/009685358D09EE7C4D5764F0BE34FA17.png" width="105.00" height="28.00" transform="matrix(1.00, 0.00, -0.00, 1.00, 433.0, 619.0)"></image><image xlink:href="../../A7482197-03EF-4231-B37E-3A53DC93D8C8/assets/009685358D09EE7C4D5764F0BE34FA17.png" width="105.00" height="28.00" transform="matrix(1.00, 0.00, -0.00, 1.00, 649.0, 619.0)"></image><image xlink:href="D205153572DF855D119D4811E0DBF965.png" width="106.00" height="28.00" transform="matrix(1.00, 0.00, -0.00, 1.00, 865.0, 619.0)"></image><image xlink:href="8B927DA05D1A10A5CC5D833DE6BD4F7D.png" width="148.00" height="134.00" transform="matrix(1.00, 0.00, -0.00, 1.00, 628.0, 454.0)"></image><image xlink:href="CB3C3451F24C657D5E4A184C6B852420.png" width="35.00" height="91.00" transform="matrix(1.00, 0.00, -0.00, 1.00, 792.0, 476.0)"></image><image xlink:href="696FE62B8EB454FC61793CEBD2770586.png" width="127.00" height="134.00" transform="matrix(1.00, 0.00, -0.00, 1.00, 844.0, 454.0)"></image><image xlink:href="9B7552C9D73FA88C1C3A7F21F563A4CD.png" width="160.00" height="145.00" transform="matrix(1.00, 0.00, -0.00, 1.00, 720.0, 684.0)"></image><image xlink:href="72E9D45C7EBD4634DFE16EDB8EE6E2FC.png" width="160.00" height="145.00" transform="matrix(1.00, 0.00, -0.00, 1.00, 937.0, 684.0)"></image><image xlink:href="7D1C5D2BB3A54289D5A9868DAF803C52.png" width="431.00" height="193.00" transform="matrix(1.00, 0.00, -0.00, 1.00, 692.0, 670.0)"></image><image xlink:href="../../A7482197-03EF-4231-B37E-3A53DC93D8C8/assets/CB3C3451F24C657D5E4A184C6B852420.png" width="35.00" height="91.00" transform="matrix(1.00, 0.00, -0.00, 1.00, 792.0, 260.0)"></image><image xlink:href="E498E56EC635E344BFD15C1DEE31D8C6.png" width="154.00" height="154.00" transform="matrix(1.00, 0.00, -0.00, 1.00, 75.0, 554.0)"></image></g></g><g><clipPath id="clip0x7fd4360a7690"><path d="M 202.9 684.6 C 231.0 656.5 231.0 610.9 202.9 582.8 C 174.8 554.6 129.2 554.6 101.1 582.8 C 73.0 610.9 73.0 656.5 101.1 684.6 C 129.2 712.7 174.8 712.7 202.9 684.6 "></path></clipPath><g clip-path="url(#clip0x7fd4360a7690)"><g><clipPath id="clip0x7fd4360a50e0"><path d="M 0.4 122.0 L 1124.0 122.0 L 1124.0 863.8 L 0.4 863.8 Z M 0.4 122.0 "></path></clipPath><g clip-path="url(#clip0x7fd4360a50e0)"><path d="M 0.4 122.0 L 1124.0 122.0 L 1124.0 863.8 L 0.4 863.8 Z M 0.4 122.0 " fill="url(#gradSh1.57)"></path></g></g></g></g><g><clipPath id="clip0x7fd4360f9ef0"><path d="M 0.4 122.0 L 1124.0 122.0 L 1124.0 863.8 L 0.4 863.8 Z M 0.4 122.0 "></path></clipPath><g clip-path="url(#clip0x7fd4360f9ef0)"><path d="M 626.9 226.4 C 655.0 254.5 655.0 300.1 626.9 328.2 C 598.8 356.4 553.2 356.4 525.1 328.2 C 497.0 300.1 497.0 254.5 525.1 226.4 C 553.2 198.3 598.8 198.3 626.9 226.4 " fill="none" stroke="#AE653C" stroke-width="2.00" stroke-linecap="round" stroke-linejoin="round" transform="matrix(1.00, 0.00, 0.00, -1.00, -424.0, 911.0)"></path></g></g><image xlink:href="82E2AEE50254811A631AAFB377E5231E.png" width="43.00" height="27.00" transform="matrix(1.00, 0.00, -0.00, -1.00, 131.0, 646.0)"></image><g><clipPath id="clip0x7fd4361d02c0"><path d="M 0.4 122.0 L 1124.0 122.0 L 1124.0 863.8 L 0.4 863.8 Z M 0.4 122.0 "></path></clipPath><g clip-path="url(#clip0x7fd4361d02c0)"><text xml:space="preserve" font-family="Helvetica-Bold,Helvetica" font-weight="bold" font-size="24.0" fill="#FFFFFF" transform="matrix(1.00, 0.00, -0.00, -1.00, 134.0, 625.2)">i</text><text xml:space="preserve" font-family="Helvetica-Bold,Helvetica" font-weight="bold" font-size="24.0" fill="#FFFFFF" transform="matrix(1.00, 0.00, -0.00, -1.00, 140.7, 625.2)">n</text><text xml:space="preserve" font-family="Helvetica-Bold,Helvetica" font-weight="bold" font-size="24.0" fill="#FFFFFF" transform="matrix(1.00, 0.00, -0.00, -1.00, 155.3, 625.2)">i</text><text xml:space="preserve" font-family="Helvetica-Bold,Helvetica" font-weight="bold" font-size="24.0" fill="#FFFFFF" transform="matrix(1.00, 0.00, -0.00, -1.00, 162.0, 625.2)">t</text></g></g><g><clipPath id="clip0x7fd4361d2cf0"><path d="M 0.4 122.0 L 1124.0 122.0 L 1124.0 863.8 L 0.4 863.8 Z M 0.4 122.0 "></path></clipPath><g clip-path="url(#clip0x7fd4361d2cf0)"><image xlink:href="../../A7482197-03EF-4231-B37E-3A53DC93D8C8/assets/E498E56EC635E344BFD15C1DEE31D8C6.png" width="154.00" height="154.00" transform="matrix(1.00, 0.00, -0.00, 1.00, 291.0, 554.0)"></image></g></g><g><clipPath id="clip0x7fd436217e90"><path d="M 418.9 684.6 C 447.0 656.5 447.0 610.9 418.9 582.8 C 390.8 554.6 345.2 554.6 317.1 582.8 C 289.0 610.9 289.0 656.5 317.1 684.6 C 345.2 712.7 390.8 712.7 418.9 684.6 "></path></clipPath><g clip-path="url(#clip0x7fd436217e90)"><g><clipPath id="clip0x7fd436218f50"><path d="M 0.4 122.0 L 1124.0 122.0 L 1124.0 863.8 L 0.4 863.8 Z M 0.4 122.0 "></path></clipPath><g clip-path="url(#clip0x7fd436218f50)"><path d="M 0.4 122.0 L 1124.0 122.0 L 1124.0 863.8 L 0.4 863.8 Z M 0.4 122.0 " fill="url(#gradSh2.58)"></path></g></g></g></g><g><clipPath id="clip0x7fd43626afc0"><path d="M 0.4 122.0 L 1124.0 122.0 L 1124.0 863.8 L 0.4 863.8 Z M 0.4 122.0 "></path></clipPath><g clip-path="url(#clip0x7fd43626afc0)"><path d="M 842.9 226.4 C 871.0 254.5 871.0 300.1 842.9 328.2 C 814.8 356.4 769.2 356.4 741.1 328.2 C 713.0 300.1 713.0 254.5 741.1 226.4 C 769.2 198.3 814.8 198.3 842.9 226.4 " fill="none" stroke="#AE653C" stroke-width="2.00" stroke-linecap="round" stroke-linejoin="round" transform="matrix(1.00, 0.00, 0.00, -1.00, -424.0, 911.0)"></path></g></g><image xlink:href="9F7811114C60C4BFBAA2EB9DAEBA2C87.png" width="84.00" height="30.00" transform="matrix(1.00, 0.00, -0.00, -1.00, 326.0, 645.0)"></image><g><clipPath id="clip0x7fd4361d3ad0"><path d="M 0.4 122.0 L 1124.0 122.0 L 1124.0 863.8 L 0.4 863.8 Z M 0.4 122.0 "></path></clipPath><g clip-path="url(#clip0x7fd4361d3ad0)"><text xml:space="preserve" font-family="Helvetica-Bold,Helvetica" font-weight="bold" font-size="24.0" fill="#FFFFFF" transform="matrix(1.00, 0.00, -0.00, -1.00, 330.0, 625.2)">a</text><text xml:space="preserve" font-family="Helvetica-Bold,Helvetica" font-weight="bold" font-size="24.0" fill="#FFFFFF" transform="matrix(1.00, 0.00, -0.00, -1.00, 343.3, 625.2)">c</text><text xml:space="preserve" font-family="Helvetica-Bold,Helvetica" font-weight="bold" font-size="24.0" fill="#FFFFFF" transform="matrix(1.00, 0.00, -0.00, -1.00, 356.7, 625.2)">c</text><text xml:space="preserve" font-family="Helvetica-Bold,Helvetica" font-weight="bold" font-size="24.0" fill="#FFFFFF" transform="matrix(1.00, 0.00, -0.00, -1.00, 370.0, 625.2)">e</text><text xml:space="preserve" font-family="Helvetica-Bold,Helvetica" font-weight="bold" font-size="24.0" fill="#FFFFFF" transform="matrix(1.00, 0.00, -0.00, -1.00, 383.4, 625.2)">p</text><text xml:space="preserve" font-family="Helvetica-Bold,Helvetica" font-weight="bold" font-size="24.0" fill="#FFFFFF" transform="matrix(1.00, 0.00, -0.00, -1.00, 398.1, 625.2)">t</text></g></g><g><clipPath id="clip0x7fd4361d7540"><path d="M 0.4 122.0 L 1124.0 122.0 L 1124.0 863.8 L 0.4 863.8 Z M 0.4 122.0 "></path></clipPath><g clip-path="url(#clip0x7fd4361d7540)"><image xlink:href="../../A7482197-03EF-4231-B37E-3A53DC93D8C8/assets/E498E56EC635E344BFD15C1DEE31D8C6.png" width="154.00" height="154.00" transform="matrix(1.00, 0.00, -0.00, 1.00, 507.0, 554.0)"></image></g></g><g><clipPath id="clip0x7fd435f84e50"><path d="M 634.9 684.6 C 663.0 656.5 663.0 610.9 634.9 582.8 C 606.8 554.6 561.2 554.6 533.1 582.8 C 505.0 610.9 505.0 656.5 533.1 684.6 C 561.2 712.7 606.8 712.7 634.9 684.6 "></path></clipPath><g clip-path="url(#clip0x7fd435f84e50)"><g><clipPath id="clip0x7fd435f837a0"><path d="M 0.4 122.0 L 1124.0 122.0 L 1124.0 863.8 L 0.4 863.8 Z M 0.4 122.0 "></path></clipPath><g clip-path="url(#clip0x7fd435f837a0)"><path d="M 0.4 122.0 L 1124.0 122.0 L 1124.0 863.8 L 0.4 863.8 Z M 0.4 122.0 " fill="url(#gradSh3.59)"></path></g></g></g></g><g><clipPath id="clip0x7fd435fd9130"><path d="M 0.4 122.0 L 1124.0 122.0 L 1124.0 863.8 L 0.4 863.8 Z M 0.4 122.0 "></path></clipPath><g clip-path="url(#clip0x7fd435fd9130)"><path d="M 1058.9 226.4 C 1087.0 254.5 1087.0 300.1 1058.9 328.2 C 1030.8 356.4 985.2 356.4 957.1 328.2 C 929.0 300.1 929.0 254.5 957.1 226.4 C 985.2 198.3 1030.8 198.3 1058.9 226.4 " fill="none" stroke="#AE653C" stroke-width="2.00" stroke-linecap="round" stroke-linejoin="round" transform="matrix(1.00, 0.00, 0.00, -1.00, -424.0, 911.0)"></path></g></g><image xlink:href="038BB80E2D13002CCCA69AAEB4CD2ACC.png" width="111.00" height="24.00" transform="matrix(1.00, 0.00, -0.00, -1.00, 529.0, 645.0)"></image><g><clipPath id="clip0x7fd435fdad50"><path d="M 0.4 122.0 L 1124.0 122.0 L 1124.0 863.8 L 0.4 863.8 Z M 0.4 122.0 "></path></clipPath><g clip-path="url(#clip0x7fd435fdad50)"><text xml:space="preserve" font-family="Helvetica-Bold,Helvetica" font-weight="bold" font-size="20.0" fill="#FFFFFF" transform="matrix(1.00, 0.00, -0.00, -1.00, 531.8, 626.7)">h</text><text xml:space="preserve" font-family="Helvetica-Bold,Helvetica" font-weight="bold" font-size="20.0" fill="#FFFFFF" transform="matrix(1.00, 0.00, -0.00, -1.00, 544.0, 626.7)">a</text><text xml:space="preserve" font-family="Helvetica-Bold,Helvetica" font-weight="bold" font-size="20.0" fill="#FFFFFF" transform="matrix(1.00, 0.00, -0.00, -1.00, 555.1, 626.7)">n</text><text xml:space="preserve" font-family="Helvetica-Bold,Helvetica" font-weight="bold" font-size="20.0" fill="#FFFFFF" transform="matrix(1.00, 0.00, -0.00, -1.00, 567.3, 626.7)">d</text><text xml:space="preserve" font-family="Helvetica-Bold,Helvetica" font-weight="bold" font-size="20.0" fill="#FFFFFF" transform="matrix(1.00, 0.00, -0.00, -1.00, 579.5, 626.7)">s</text><text xml:space="preserve" font-family="Helvetica-Bold,Helvetica" font-weight="bold" font-size="20.0" fill="#FFFFFF" transform="matrix(1.00, 0.00, -0.00, -1.00, 590.6, 626.7)">h</text><text xml:space="preserve" font-family="Helvetica-Bold,Helvetica" font-weight="bold" font-size="20.0" fill="#FFFFFF" transform="matrix(1.00, 0.00, -0.00, -1.00, 602.8, 626.7)">a</text><text xml:space="preserve" font-family="Helvetica-Bold,Helvetica" font-weight="bold" font-size="20.0" fill="#FFFFFF" transform="matrix(1.00, 0.00, -0.00, -1.00, 614.0, 626.7)">k</text><text xml:space="preserve" font-family="Helvetica-Bold,Helvetica" font-weight="bold" font-size="20.0" fill="#FFFFFF" transform="matrix(1.00, 0.00, -0.00, -1.00, 625.1, 626.7)">e</text></g></g><g><clipPath id="clip0x7fd435fe0310"><path d="M 0.4 122.0 L 1124.0 122.0 L 1124.0 863.8 L 0.4 863.8 Z M 0.4 122.0 "></path></clipPath><g clip-path="url(#clip0x7fd435fe0310)"><image xlink:href="../../A7482197-03EF-4231-B37E-3A53DC93D8C8/assets/E498E56EC635E344BFD15C1DEE31D8C6.png" width="154.00" height="154.00" transform="matrix(1.00, 0.00, -0.00, 1.00, 723.0, 554.0)"></image></g></g><g><clipPath id="clip0x7fd435fe2780"><path d="M 850.9 684.6 C 879.0 656.5 879.0 610.9 850.9 582.8 C 822.8 554.6 777.2 554.6 749.1 582.8 C 721.0 610.9 721.0 656.5 749.1 684.6 C 777.2 712.7 822.8 712.7 850.9 684.6 "></path></clipPath><g clip-path="url(#clip0x7fd435fe2780)"><g><clipPath id="clip0x7fd435fe16e0"><path d="M 0.4 122.0 L 1124.0 122.0 L 1124.0 863.8 L 0.4 863.8 Z M 0.4 122.0 "></path></clipPath><g clip-path="url(#clip0x7fd435fe16e0)"><path d="M 0.4 122.0 L 1124.0 122.0 L 1124.0 863.8 L 0.4 863.8 Z M 0.4 122.0 " fill="url(#gradSh4.60)"></path></g></g></g></g><g><clipPath id="clip0x7fd436438cc0"><path d="M 0.4 122.0 L 1124.0 122.0 L 1124.0 863.8 L 0.4 863.8 Z M 0.4 122.0 "></path></clipPath><g clip-path="url(#clip0x7fd436438cc0)"><path d="M 1274.9 226.4 C 1303.0 254.5 1303.0 300.1 1274.9 328.2 C 1246.8 356.4 1201.2 356.4 1173.1 328.2 C 1145.0 300.1 1145.0 254.5 1173.1 226.4 C 1201.2 198.3 1246.8 198.3 1274.9 226.4 " fill="none" stroke="#AE653C" stroke-width="2.00" stroke-linecap="round" stroke-linejoin="round" transform="matrix(1.00, 0.00, 0.00, -1.00, -424.0, 911.0)"></path></g></g><image xlink:href="223F1843CD10EE19C9108F9EBB2CDB42.png" width="112.00" height="25.00" transform="matrix(1.00, 0.00, -0.00, -1.00, 744.0, 645.0)"></image><g><clipPath id="clip0x7fd4360fb960"><path d="M 0.4 122.0 L 1124.0 122.0 L 1124.0 863.8 L 0.4 863.8 Z M 0.4 122.0 "></path></clipPath><g clip-path="url(#clip0x7fd4360fb960)"><text xml:space="preserve" font-family="Helvetica-Bold,Helvetica" font-weight="bold" font-size="21.0" fill="#FFFFFF" transform="matrix(1.00, 0.00, -0.00, -1.00, 747.5, 626.2)">c</text><text xml:space="preserve" font-family="Helvetica-Bold,Helvetica" font-weight="bold" font-size="21.0" fill="#FFFFFF" transform="matrix(1.00, 0.00, -0.00, -1.00, 759.2, 626.2)">o</text><text xml:space="preserve" font-family="Helvetica-Bold,Helvetica" font-weight="bold" font-size="21.0" fill="#FFFFFF" transform="matrix(1.00, 0.00, -0.00, -1.00, 772.0, 626.2)">n</text><text xml:space="preserve" font-family="Helvetica-Bold,Helvetica" font-weight="bold" font-size="21.0" fill="#FFFFFF" transform="matrix(1.00, 0.00, -0.00, -1.00, 784.8, 626.2)">n</text><text xml:space="preserve" font-family="Helvetica-Bold,Helvetica" font-weight="bold" font-size="21.0" fill="#FFFFFF" transform="matrix(1.00, 0.00, -0.00, -1.00, 797.6, 626.2)">e</text><text xml:space="preserve" font-family="Helvetica-Bold,Helvetica" font-weight="bold" font-size="21.0" fill="#FFFFFF" transform="matrix(1.00, 0.00, -0.00, -1.00, 809.3, 626.2)">c</text><text xml:space="preserve" font-family="Helvetica-Bold,Helvetica" font-weight="bold" font-size="21.0" fill="#FFFFFF" transform="matrix(1.00, 0.00, -0.00, -1.00, 821.0, 626.2)">t</text><text xml:space="preserve" font-family="Helvetica-Bold,Helvetica" font-weight="bold" font-size="21.0" fill="#FFFFFF" transform="matrix(1.00, 0.00, -0.00, -1.00, 828.0, 626.2)">e</text><text xml:space="preserve" font-family="Helvetica-Bold,Helvetica" font-weight="bold" font-size="21.0" fill="#FFFFFF" transform="matrix(1.00, 0.00, -0.00, -1.00, 839.7, 626.2)">d</text></g></g><g><clipPath id="clip0x7fd436305310"><path d="M 0.4 122.0 L 1124.0 122.0 L 1124.0 863.8 L 0.4 863.8 Z M 0.4 122.0 "></path></clipPath><g clip-path="url(#clip0x7fd436305310)"><image xlink:href="../../A7482197-03EF-4231-B37E-3A53DC93D8C8/assets/E498E56EC635E344BFD15C1DEE31D8C6.png" width="154.00" height="154.00" transform="matrix(1.00, 0.00, -0.00, 1.00, 939.0, 554.0)"></image></g></g><g><clipPath id="clip0x7fd43643b5d0"><path d="M 1066.9 684.6 C 1095.0 656.5 1095.0 610.9 1066.9 582.8 C 1038.8 554.6 993.2 554.6 965.1 582.8 C 937.0 610.9 937.0 656.5 965.1 684.6 C 993.2 712.7 1038.8 712.7 1066.9 684.6 "></path></clipPath><g clip-path="url(#clip0x7fd43643b5d0)"><g><clipPath id="clip0x7fd43643bf30"><path d="M 0.4 122.0 L 1124.0 122.0 L 1124.0 863.8 L 0.4 863.8 Z M 0.4 122.0 "></path></clipPath><g clip-path="url(#clip0x7fd43643bf30)"><path d="M 0.4 122.0 L 1124.0 122.0 L 1124.0 863.8 L 0.4 863.8 Z M 0.4 122.0 " fill="url(#gradSh5.61)"></path></g></g></g></g><g><clipPath id="clip0x7fd4362b2a40"><path d="M 0.4 122.0 L 1124.0 122.0 L 1124.0 863.8 L 0.4 863.8 Z M 0.4 122.0 "></path></clipPath><g clip-path="url(#clip0x7fd4362b2a40)"><path d="M 1490.9 226.4 C 1519.0 254.5 1519.0 300.1 1490.9 328.2 C 1462.8 356.4 1417.2 356.4 1389.1 328.2 C 1361.0 300.1 1361.0 254.5 1389.1 226.4 C 1417.2 198.3 1462.8 198.3 1490.9 226.4 " fill="none" stroke="#AE653C" stroke-width="2.00" stroke-linecap="round" stroke-linejoin="round" transform="matrix(1.00, 0.00, 0.00, -1.00, -424.0, 911.0)"></path></g></g><image xlink:href="41F5F69D2F83BCDCAABE917D03CCAEBA.png" width="109.00" height="21.00" transform="matrix(1.00, 0.00, -0.00, -1.00, 961.0, 643.0)"></image><g><clipPath id="clip0x7fd4363061a0"><path d="M 0.4 122.0 L 1124.0 122.0 L 1124.0 863.8 L 0.4 863.8 Z M 0.4 122.0 "></path></clipPath><g clip-path="url(#clip0x7fd4363061a0)"><text xml:space="preserve" font-family="Helvetica-Bold,Helvetica" font-weight="bold" font-size="17.0" fill="#FFFFFF" transform="matrix(1.00, 0.00, -0.00, -1.00, 965.0, 627.7)">c</text><text xml:space="preserve" font-family="Helvetica-Bold,Helvetica" font-weight="bold" font-size="17.0" fill="#FFFFFF" transform="matrix(1.00, 0.00, -0.00, -1.00, 974.5, 627.7)">o</text><text xml:space="preserve" font-family="Helvetica-Bold,Helvetica" font-weight="bold" font-size="17.0" fill="#FFFFFF" transform="matrix(1.00, 0.00, -0.00, -1.00, 984.8, 627.7)">n</text><text xml:space="preserve" font-family="Helvetica-Bold,Helvetica" font-weight="bold" font-size="17.0" fill="#FFFFFF" transform="matrix(1.00, 0.00, -0.00, -1.00, 995.2, 627.7)">t</text><text xml:space="preserve" font-family="Helvetica-Bold,Helvetica" font-weight="bold" font-size="17.0" fill="#FFFFFF" transform="matrix(1.00, 0.00, -0.00, -1.00, 1000.9, 627.7)">i</text><text xml:space="preserve" font-family="Helvetica-Bold,Helvetica" font-weight="bold" font-size="17.0" fill="#FFFFFF" transform="matrix(1.00, 0.00, -0.00, -1.00, 1005.6, 627.7)">n</text><text xml:space="preserve" font-family="Helvetica-Bold,Helvetica" font-weight="bold" font-size="17.0" fill="#FFFFFF" transform="matrix(1.00, 0.00, -0.00, -1.00, 1016.0, 627.7)">u</text><text xml:space="preserve" font-family="Helvetica-Bold,Helvetica" font-weight="bold" font-size="17.0" fill="#FFFFFF" transform="matrix(1.00, 0.00, -0.00, -1.00, 1026.4, 627.7)">a</text><text xml:space="preserve" font-family="Helvetica-Bold,Helvetica" font-weight="bold" font-size="17.0" fill="#FFFFFF" transform="matrix(1.00, 0.00, -0.00, -1.00, 1035.8, 627.7)">t</text><text xml:space="preserve" font-family="Helvetica-Bold,Helvetica" font-weight="bold" font-size="17.0" fill="#FFFFFF" transform="matrix(1.00, 0.00, -0.00, -1.00, 1041.5, 627.7)">i</text><text xml:space="preserve" font-family="Helvetica-Bold,Helvetica" font-weight="bold" font-size="17.0" fill="#FFFFFF" transform="matrix(1.00, 0.00, -0.00, -1.00, 1046.2, 627.7)">o</text><text xml:space="preserve" font-family="Helvetica-Bold,Helvetica" font-weight="bold" font-size="17.0" fill="#FFFFFF" transform="matrix(1.00, 0.00, -0.00, -1.00, 1056.6, 627.7)">n</text></g></g><g><clipPath id="clip0x7fd43630c970"><path d="M 0.4 122.0 L 1124.0 122.0 L 1124.0 863.8 L 0.4 863.8 Z M 0.4 122.0 "></path></clipPath><g clip-path="url(#clip0x7fd43630c970)"><image xlink:href="../../A7482197-03EF-4231-B37E-3A53DC93D8C8/assets/E498E56EC635E344BFD15C1DEE31D8C6.png" width="154.00" height="154.00" transform="matrix(1.00, 0.00, -0.00, 1.00, 723.0, 338.0)"></image></g></g><g><clipPath id="clip0x7fd4362b5350"><path d="M 850.9 468.6 C 879.0 440.5 879.0 394.9 850.9 366.8 C 822.8 338.6 777.2 338.6 749.1 366.8 C 721.0 394.9 721.0 440.5 749.1 468.6 C 777.2 496.7 822.8 496.7 850.9 468.6 "></path></clipPath><g clip-path="url(#clip0x7fd4362b5350)"><g><clipPath id="clip0x7fd4362b5c20"><path d="M 0.4 122.0 L 1124.0 122.0 L 1124.0 863.8 L 0.4 863.8 Z M 0.4 122.0 "></path></clipPath><g clip-path="url(#clip0x7fd4362b5c20)"><path d="M 0.4 122.0 L 1124.0 122.0 L 1124.0 863.8 L 0.4 863.8 Z M 0.4 122.0 " fill="url(#gradSh6.62)"></path></g></g></g></g><g><clipPath id="clip0x7fd43650c520"><path d="M 0.4 122.0 L 1124.0 122.0 L 1124.0 863.8 L 0.4 863.8 Z M 0.4 122.0 "></path></clipPath><g clip-path="url(#clip0x7fd43650c520)"><path d="M 1274.9 442.4 C 1303.0 470.5 1303.0 516.1 1274.9 544.2 C 1246.8 572.4 1201.2 572.4 1173.1 544.2 C 1145.0 516.1 1145.0 470.5 1173.1 442.4 C 1201.2 414.3 1246.8 414.3 1274.9 442.4 " fill="none" stroke="#AE653C" stroke-width="2.00" stroke-linecap="round" stroke-linejoin="round" transform="matrix(1.00, 0.00, 0.00, -1.00, -424.0, 911.0)"></path></g></g><image xlink:href="8C017012293A785D4F66E9E4AC0EEF99.png" width="91.00" height="32.00" transform="matrix(1.00, 0.00, -0.00, -1.00, 754.0, 430.0)"></image><g><clipPath id="clip0x7fd436449430"><path d="M 0.4 122.0 L 1124.0 122.0 L 1124.0 863.8 L 0.4 863.8 Z M 0.4 122.0 "></path></clipPath><g clip-path="url(#clip0x7fd436449430)"><text xml:space="preserve" font-family="Helvetica-Bold,Helvetica" font-weight="bold" font-size="24.0" fill="#FFFFFF" transform="matrix(1.00, 0.00, -0.00, -1.00, 758.0, 409.2)">c</text><text xml:space="preserve" font-family="Helvetica-Bold,Helvetica" font-weight="bold" font-size="24.0" fill="#FFFFFF" transform="matrix(1.00, 0.00, -0.00, -1.00, 771.3, 409.2)">l</text><text xml:space="preserve" font-family="Helvetica-Bold,Helvetica" font-weight="bold" font-size="24.0" fill="#FFFFFF" transform="matrix(1.00, 0.00, -0.00, -1.00, 778.0, 409.2)">o</text><text xml:space="preserve" font-family="Helvetica-Bold,Helvetica" font-weight="bold" font-size="24.0" fill="#FFFFFF" transform="matrix(1.00, 0.00, -0.00, -1.00, 792.7, 409.2)">s</text><text xml:space="preserve" font-family="Helvetica-Bold,Helvetica" font-weight="bold" font-size="24.0" fill="#FFFFFF" transform="matrix(1.00, 0.00, -0.00, -1.00, 806.0, 409.2)">i</text><text xml:space="preserve" font-family="Helvetica-Bold,Helvetica" font-weight="bold" font-size="24.0" fill="#FFFFFF" transform="matrix(1.00, 0.00, -0.00, -1.00, 812.7, 409.2)">n</text><text xml:space="preserve" font-family="Helvetica-Bold,Helvetica" font-weight="bold" font-size="24.0" fill="#FFFFFF" transform="matrix(1.00, 0.00, -0.00, -1.00, 827.4, 409.2)">g</text></g></g><g><clipPath id="clip0x7fd43644cdf0"><path d="M 0.4 122.0 L 1124.0 122.0 L 1124.0 863.8 L 0.4 863.8 Z M 0.4 122.0 "></path></clipPath><g clip-path="url(#clip0x7fd43644cdf0)"><path d="M 432.0 277.0 L 484.1 277.0 " fill="none" stroke="#000000" stroke-width="4.00" stroke-linecap="round" stroke-linejoin="round" transform="matrix(1.00, 0.00, 0.00, -1.00, -424.0, 911.0)"></path><path d="M 72.9 634.0 L 60.1 638.8 L 60.1 629.2 Z M 72.9 634.0 " fill="#000000"></path><path d="M 496.9 277.0 L 484.1 272.2 L 484.1 281.8 Z M 496.9 277.0 " fill="none" stroke="#000000" stroke-width="4.00" transform="matrix(1.00, 0.00, 0.00, -1.00, -424.0, 911.0)"></path><path d="M 649.0 277.0 L 700.1 277.0 " fill="none" stroke="#000000" stroke-width="4.00" stroke-linecap="round" stroke-linejoin="round" transform="matrix(1.00, 0.00, 0.00, -1.00, -424.0, 911.0)"></path><path d="M 288.9 634.0 L 276.1 638.8 L 276.1 629.2 Z M 288.9 634.0 " fill="#000000"></path><path d="M 712.9 277.0 L 700.1 272.2 L 700.1 281.8 Z M 712.9 277.0 " fill="none" stroke="#000000" stroke-width="4.00" transform="matrix(1.00, 0.00, 0.00, -1.00, -424.0, 911.0)"></path><path d="M 865.0 277.0 L 916.1 277.0 " fill="none" stroke="#000000" stroke-width="4.00" stroke-linecap="round" stroke-linejoin="round" transform="matrix(1.00, 0.00, 0.00, -1.00, -424.0, 911.0)"></path><path d="M 504.9 634.0 L 492.1 638.8 L 492.1 629.2 Z M 504.9 634.0 " fill="#000000"></path><path d="M 928.9 277.0 L 916.1 272.2 L 916.1 281.8 Z M 928.9 277.0 " fill="none" stroke="#000000" stroke-width="4.00" transform="matrix(1.00, 0.00, 0.00, -1.00, -424.0, 911.0)"></path><path d="M 1081.0 277.0 L 1132.1 277.0 " fill="none" stroke="#000000" stroke-width="4.00" stroke-linecap="round" stroke-linejoin="round" transform="matrix(1.00, 0.00, 0.00, -1.00, -424.0, 911.0)"></path><path d="M 720.9 634.0 L 708.1 638.8 L 708.1 629.2 Z M 720.9 634.0 " fill="#000000"></path><path d="M 1144.9 277.0 L 1132.1 272.2 L 1132.1 281.8 Z M 1144.9 277.0 " fill="none" stroke="#000000" stroke-width="4.00" transform="matrix(1.00, 0.00, 0.00, -1.00, -424.0, 911.0)"></path><path d="M 1297.0 277.3 L 1349.1 277.4 " fill="none" stroke="#000000" stroke-width="4.00" stroke-linecap="round" stroke-linejoin="round" transform="matrix(1.00, 0.00, 0.00, -1.00, -424.0, 911.0)"></path><path d="M 937.9 633.6 L 925.1 638.4 L 925.1 628.8 Z M 937.9 633.6 " fill="#000000"></path><path d="M 1361.9 277.4 L 1349.1 272.6 L 1349.1 282.2 Z M 1361.9 277.4 " fill="none" stroke="#000000" stroke-width="4.00" transform="matrix(1.00, 0.00, 0.00, -1.00, -424.0, 911.0)"></path><path d="M 1059.6 328.9 L 1159.0 428.3 " fill="none" stroke="#000000" stroke-width="4.00" stroke-linecap="round" stroke-linejoin="round" transform="matrix(1.00, 0.00, 0.00, -1.00, -424.0, 911.0)"></path><path d="M 744.1 473.6 L 738.4 486.1 L 731.6 479.3 Z M 744.1 473.6 " fill="#000000"></path><path d="M 1168.1 437.4 L 1162.4 424.9 L 1155.6 431.7 Z M 1168.1 437.4 " fill="none" stroke="#000000" stroke-width="4.00" transform="matrix(1.00, 0.00, 0.00, -1.00, -424.0, 911.0)"></path><path d="M 1224.0 350.3 L 1224.0 401.4 " fill="none" stroke="#000000" stroke-width="4.00" stroke-linecap="round" stroke-linejoin="round" transform="matrix(1.00, 0.00, 0.00, -1.00, -424.0, 911.0)"></path><path d="M 800.0 496.8 L 804.8 509.6 L 795.2 509.6 Z M 800.0 496.8 " fill="#000000"></path><path d="M 1224.0 414.2 L 1228.8 401.4 L 1219.2 401.4 Z M 1224.0 414.2 " fill="none" stroke="#000000" stroke-width="4.00" transform="matrix(1.00, 0.00, 0.00, -1.00, -424.0, 911.0)"></path><path d="M 1388.4 329.0 L 1289.0 428.3 " fill="none" stroke="#000000" stroke-width="4.00" stroke-linecap="round" stroke-linejoin="round" transform="matrix(1.00, 0.00, 0.00, -1.00, -424.0, 911.0)"></path><path d="M 855.9 473.6 L 868.4 479.3 L 861.6 486.0 Z M 855.9 473.6 " fill="#000000"></path><path d="M 1279.9 437.4 L 1292.4 431.7 L 1285.6 425.0 Z M 1279.9 437.4 " fill="none" stroke="#000000" stroke-width="4.00" transform="matrix(1.00, 0.00, 0.00, -1.00, -424.0, 911.0)"></path><path d="M 1256.2 212.9 C 1269.5 186.4 1301.4 154.1 1296.0 133.3 C 1290.6 112.6 1248.0 88.3 1224.0 88.3 C 1200.0 88.3 1157.4 112.7 1152.0 133.3 C 1147.6 149.8 1167.1 173.5 1181.7 195.8 " fill="none" stroke="#000000" stroke-width="4.00" stroke-linecap="round" stroke-linejoin="round" transform="matrix(1.00, 0.00, 0.00, -1.00, -424.0, 911.0)"></path><path d="M 764.2 704.2 L 761.8 717.7 L 753.6 712.8 Z M 764.2 704.2 " fill="#000000"></path><path d="M 1188.2 206.8 L 1185.8 193.3 L 1177.6 198.2 Z M 1188.2 206.8 " fill="none" stroke="#000000" stroke-width="4.00" transform="matrix(1.00, 0.00, 0.00, -1.00, -424.0, 911.0)"></path><path d="M 1473.0 212.2 C 1486.2 185.9 1518.1 154.0 1512.8 133.3 C 1507.4 112.7 1464.8 88.3 1440.8 88.3 C 1416.8 88.3 1374.3 112.7 1368.8 133.3 C 1364.4 149.8 1383.6 173.4 1398.0 195.6 " fill="none" stroke="#000000" stroke-width="4.00" stroke-linecap="round" stroke-linejoin="round" transform="matrix(1.00, 0.00, 0.00, -1.00, -424.0, 911.0)"></path><path d="M 980.5 704.4 L 978.2 717.9 L 969.9 713.0 Z M 980.5 704.4 " fill="#000000"></path><path d="M 1404.5 206.6 L 1402.2 193.1 L 1393.9 198.0 Z M 1404.5 206.6 " fill="none" stroke="#000000" stroke-width="4.00" transform="matrix(1.00, 0.00, 0.00, -1.00, -424.0, 911.0)"></path><path d="M 1490.9 226.4 C 1506.9 192.4 1547.5 151.8 1539.0 124.3 C 1530.5 96.8 1492.5 71.8 1440.0 61.3 C 1387.5 50.8 1276.5 52.3 1224.0 61.3 C 1171.5 70.3 1133.6 88.0 1125.0 115.3 C 1117.7 138.6 1145.9 175.5 1164.2 208.6 " fill="none" stroke="#000000" stroke-width="4.00" stroke-linecap="round" stroke-linejoin="round" transform="matrix(1.00, 0.00, 0.00, -1.00, -424.0, 911.0)"></path><path d="M 746.0 691.0 L 744.5 704.6 L 735.9 700.3 Z M 746.0 691.0 " fill="#000000"></path><path d="M 1170.0 220.0 L 1168.5 206.4 L 1159.9 210.7 Z M 1170.0 220.0 " fill="none" stroke="#000000" stroke-width="4.00" transform="matrix(1.00, 0.00, 0.00, -1.00, -424.0, 911.0)"></path><image xlink:href="../../A7482197-03EF-4231-B37E-3A53DC93D8C8/assets/E498E56EC635E344BFD15C1DEE31D8C6.png" width="154.00" height="154.00" transform="matrix(1.00, 0.00, -0.00, 1.00, 723.0, 122.0)"></image></g></g><g><clipPath id="clip0x7fd43650ee30"><path d="M 850.9 252.6 C 879.0 224.5 879.0 178.9 850.9 150.8 C 822.8 122.6 777.2 122.6 749.1 150.8 C 721.0 178.9 721.0 224.5 749.1 252.6 C 777.2 280.7 822.8 280.7 850.9 252.6 "></path></clipPath><g clip-path="url(#clip0x7fd43650ee30)"><g><clipPath id="clip0x7fd43650f700"><path d="M 0.4 122.0 L 1124.0 122.0 L 1124.0 863.8 L 0.4 863.8 Z M 0.4 122.0 "></path></clipPath><g clip-path="url(#clip0x7fd43650f700)"><path d="M 0.4 122.0 L 1124.0 122.0 L 1124.0 863.8 L 0.4 863.8 Z M 0.4 122.0 " fill="url(#gradSh7.63)"></path></g></g></g></g><g><clipPath id="clip0x7fd436562070"><path d="M 0.4 122.0 L 1124.0 122.0 L 1124.0 863.8 L 0.4 863.8 Z M 0.4 122.0 "></path></clipPath><g clip-path="url(#clip0x7fd436562070)"><path d="M 1274.9 658.4 C 1303.0 686.5 1303.0 732.1 1274.9 760.2 C 1246.8 788.4 1201.2 788.4 1173.1 760.2 C 1145.0 732.1 1145.0 686.5 1173.1 658.4 C 1201.2 630.3 1246.8 630.3 1274.9 658.4 " fill="none" stroke="#AE653C" stroke-width="2.00" stroke-linecap="round" stroke-linejoin="round" transform="matrix(1.00, 0.00, 0.00, -1.00, -424.0, 911.0)"></path></g></g><image xlink:href="51B5EB15F0C9F733E707B068DE969BC4.png" width="112.00" height="26.00" transform="matrix(1.00, 0.00, -0.00, -1.00, 744.0, 213.0)"></image><g><clipPath id="clip0x7fd43630d8d0"><path d="M 0.4 122.0 L 1124.0 122.0 L 1124.0 863.8 L 0.4 863.8 Z M 0.4 122.0 "></path></clipPath><g clip-path="url(#clip0x7fd43630d8d0)"><text xml:space="preserve" font-family="Helvetica-Bold,Helvetica" font-weight="bold" font-size="23.0" fill="#FFFFFF" transform="matrix(1.00, 0.00, -0.00, -1.00, 748.2, 192.7)">t</text><text xml:space="preserve" font-family="Helvetica-Bold,Helvetica" font-weight="bold" font-size="23.0" fill="#FFFFFF" transform="matrix(1.00, 0.00, -0.00, -1.00, 755.9, 192.7)">e</text><text xml:space="preserve" font-family="Helvetica-Bold,Helvetica" font-weight="bold" font-size="23.0" fill="#FFFFFF" transform="matrix(1.00, 0.00, -0.00, -1.00, 768.7, 192.7)">r</text><text xml:space="preserve" font-family="Helvetica-Bold,Helvetica" font-weight="bold" font-size="23.0" fill="#FFFFFF" transform="matrix(1.00, 0.00, -0.00, -1.00, 777.6, 192.7)">m</text><text xml:space="preserve" font-family="Helvetica-Bold,Helvetica" font-weight="bold" font-size="23.0" fill="#FFFFFF" transform="matrix(1.00, 0.00, -0.00, -1.00, 798.1, 192.7)">i</text><text xml:space="preserve" font-family="Helvetica-Bold,Helvetica" font-weight="bold" font-size="23.0" fill="#FFFFFF" transform="matrix(1.00, 0.00, -0.00, -1.00, 804.5, 192.7)">n</text><text xml:space="preserve" font-family="Helvetica-Bold,Helvetica" font-weight="bold" font-size="23.0" fill="#FFFFFF" transform="matrix(1.00, 0.00, -0.00, -1.00, 818.5, 192.7)">a</text><text xml:space="preserve" font-family="Helvetica-Bold,Helvetica" font-weight="bold" font-size="23.0" fill="#FFFFFF" transform="matrix(1.00, 0.00, -0.00, -1.00, 831.3, 192.7)">t</text><text xml:space="preserve" font-family="Helvetica-Bold,Helvetica" font-weight="bold" font-size="23.0" fill="#FFFFFF" transform="matrix(1.00, 0.00, -0.00, -1.00, 839.0, 192.7)">e</text></g></g><g><clipPath id="clip0x7fd436312dd0"><path d="M 0.4 122.0 L 1124.0 122.0 L 1124.0 863.8 L 0.4 863.8 Z M 0.4 122.0 "></path></clipPath><g clip-path="url(#clip0x7fd436312dd0)"><path d="M 1224.0 566.3 L 1224.0 617.4 " fill="none" stroke="#000000" stroke-width="4.00" stroke-linecap="round" stroke-linejoin="round" transform="matrix(1.00, 0.00, 0.00, -1.00, -424.0, 911.0)"></path><path d="M 800.0 280.8 L 804.8 293.6 L 795.2 293.6 Z M 800.0 280.8 " fill="#000000"></path><path d="M 1224.0 630.2 L 1228.8 617.4 L 1219.2 617.4 Z M 1224.0 630.2 " fill="none" stroke="#000000" stroke-width="4.00" transform="matrix(1.00, 0.00, 0.00, -1.00, -424.0, 911.0)"></path></g></g></g></svg>