<?xml version="1.0" encoding="UTF-8" standalone="no"?><svg xmlns="http://www.w3.org/2000/svg" xmlns:xlink="http://www.w3.org/1999/xlink" clip-rule="evenodd" stroke-miterlimit="10" viewBox="0 0 712 886"><desc>SVG generated by Keynote</desc><defs><linearGradient id="gradSh1.104" x1="-36.0" y1="0.0" x2="36.0" y2="0.0" gradientUnits="userSpaceOnUse" gradientTransform="matrix(0.00, 2.43, 2.42, 0.00, 443.3, 792.7)"><stop offset="0.00000" stop-color="#FFFFFF"></stop><stop offset="0.01833" stop-color="#FEFEFE"></stop><stop offset="1.00000" stop-color="#E3E3E3"></stop></linearGradient><linearGradient id="gradSh2.105" x1="-36.0" y1="0.0" x2="36.0" y2="0.0" gradientUnits="userSpaceOnUse" gradientTransform="matrix(0.00, 2.43, 2.42, 0.00, 268.7, 792.7)"><stop offset="0.00000" stop-color="#FFFFFF"></stop><stop offset="0.01833" stop-color="#FEFEFE"></stop><stop offset="1.00000" stop-color="#E3E3E3"></stop></linearGradient><linearGradient id="gradSh3.106" x1="-36.0" y1="0.0" x2="36.0" y2="0.0" gradientUnits="userSpaceOnUse" gradientTransform="matrix(0.00, 2.43, 2.42, 0.00, 94.1, 792.7)"><stop offset="0.00000" stop-color="#FFFFFF"></stop><stop offset="0.01833" stop-color="#FEFEFE"></stop><stop offset="1.00000" stop-color="#E3E3E3"></stop></linearGradient><linearGradient id="gradSh4.107" x1="-36.0" y1="0.0" x2="36.0" y2="0.0" gradientUnits="userSpaceOnUse" gradientTransform="matrix(0.00, 2.43, 2.42, 0.00, 617.9, 792.7)"><stop offset="0.00000" stop-color="#FFFFFF"></stop><stop offset="0.01833" stop-color="#FEFEFE"></stop><stop offset="1.00000" stop-color="#E3E3E3"></stop></linearGradient><linearGradient id="gradSh5.108" x1="-36.0" y1="0.0" x2="36.0" y2="0.0" gradientUnits="userSpaceOnUse" gradientTransform="matrix(0.00, -2.43, -2.42, 0.00, 443.3, 617.9)"><stop offset="0.00000" stop-color="#FFFFFF"></stop><stop offset="0.01833" stop-color="#FEFEFE"></stop><stop offset="1.00000" stop-color="#E3E3E3"></stop></linearGradient><linearGradient id="gradSh6.109" x1="-36.0" y1="0.0" x2="36.0" y2="0.0" gradientUnits="userSpaceOnUse" gradientTransform="matrix(0.00, -2.43, -2.42, 0.00, 268.7, 617.9)"><stop offset="0.00000" stop-color="#FFFFFF"></stop><stop offset="0.01833" stop-color="#FEFEFE"></stop><stop offset="1.00000" stop-color="#E3E3E3"></stop></linearGradient><linearGradient id="gradSh7.110" x1="-36.0" y1="0.0" x2="36.0" y2="0.0" gradientUnits="userSpaceOnUse" gradientTransform="matrix(0.00, -2.43, -2.42, 0.00, 94.1, 617.9)"><stop offset="0.00000" stop-color="#FFFFFF"></stop><stop offset="0.01833" stop-color="#FEFEFE"></stop><stop offset="1.00000" stop-color="#E3E3E3"></stop></linearGradient><linearGradient id="gradSh8.111" x1="-36.0" y1="0.0" x2="36.0" y2="0.0" gradientUnits="userSpaceOnUse" gradientTransform="matrix(0.00, -2.43, -2.42, 0.00, 617.9, 617.9)"><stop offset="0.00000" stop-color="#FFFFFF"></stop><stop offset="0.01833" stop-color="#FEFEFE"></stop><stop offset="1.00000" stop-color="#E3E3E3"></stop></linearGradient><linearGradient id="gradSh9.112" x1="-36.0" y1="0.0" x2="36.0" y2="0.0" gradientUnits="userSpaceOnUse" gradientTransform="matrix(0.00, -2.43, -2.42, 0.00, 443.3, 443.0)"><stop offset="0.00000" stop-color="#FFFFFF"></stop><stop offset="0.01833" stop-color="#FEFEFE"></stop><stop offset="1.00000" stop-color="#E3E3E3"></stop></linearGradient><linearGradient id="gradSh10.113" x1="-36.0" y1="0.0" x2="36.0" y2="0.0" gradientUnits="userSpaceOnUse" gradientTransform="matrix(0.00, -2.43, -2.42, 0.00, 268.7, 443.0)"><stop offset="0.00000" stop-color="#FFFFFF"></stop><stop offset="0.01833" stop-color="#FEFEFE"></stop><stop offset="1.00000" stop-color="#E3E3E3"></stop></linearGradient><linearGradient id="gradSh11.114" x1="-36.0" y1="0.0" x2="36.0" y2="0.0" gradientUnits="userSpaceOnUse" gradientTransform="matrix(0.00, -2.43, -2.42, 0.00, 94.1, 443.0)"><stop offset="0.00000" stop-color="#FFFFFF"></stop><stop offset="0.01833" stop-color="#FEFEFE"></stop><stop offset="1.00000" stop-color="#E3E3E3"></stop></linearGradient><linearGradient id="gradSh12.115" x1="-36.0" y1="0.0" x2="36.0" y2="0.0" gradientUnits="userSpaceOnUse" gradientTransform="matrix(0.00, -2.43, -2.42, 0.00, 617.9, 443.0)"><stop offset="0.00000" stop-color="#FFFFFF"></stop><stop offset="0.01833" stop-color="#FEFEFE"></stop><stop offset="1.00000" stop-color="#E3E3E3"></stop></linearGradient><linearGradient id="gradSh13.116" x1="-36.0" y1="0.0" x2="36.0" y2="0.0" gradientUnits="userSpaceOnUse" gradientTransform="matrix(0.00, -2.43, -2.42, 0.00, 443.3, 268.1)"><stop offset="0.00000" stop-color="#FFFFFF"></stop><stop offset="0.01833" stop-color="#FEFEFE"></stop><stop offset="1.00000" stop-color="#E3E3E3"></stop></linearGradient><linearGradient id="gradSh14.117" x1="-36.0" y1="0.0" x2="36.0" y2="0.0" gradientUnits="userSpaceOnUse" gradientTransform="matrix(0.00, -2.43, -2.42, 0.00, 268.7, 268.1)"><stop offset="0.00000" stop-color="#FFFFFF"></stop><stop offset="0.01833" stop-color="#FEFEFE"></stop><stop offset="1.00000" stop-color="#E3E3E3"></stop></linearGradient><linearGradient id="gradSh15.118" x1="-36.0" y1="0.0" x2="36.0" y2="0.0" gradientUnits="userSpaceOnUse" gradientTransform="matrix(0.00, -2.43, -2.42, 0.00, 94.1, 268.1)"><stop offset="0.00000" stop-color="#FFFFFF"></stop><stop offset="0.01833" stop-color="#FEFEFE"></stop><stop offset="1.00000" stop-color="#E3E3E3"></stop></linearGradient><linearGradient id="gradSh16.119" x1="-36.0" y1="0.0" x2="36.0" y2="0.0" gradientUnits="userSpaceOnUse" gradientTransform="matrix(0.00, -2.43, -2.42, 0.00, 617.9, 268.1)"><stop offset="0.00000" stop-color="#FFFFFF"></stop><stop offset="0.01833" stop-color="#FEFEFE"></stop><stop offset="1.00000" stop-color="#E3E3E3"></stop></linearGradient><linearGradient id="gradSh17.120" x1="-36.0" y1="0.0" x2="36.0" y2="0.0" gradientUnits="userSpaceOnUse" gradientTransform="matrix(0.00, -2.43, -2.42, 0.00, 443.3, 93.3)"><stop offset="0.00000" stop-color="#FFFFFF"></stop><stop offset="0.01833" stop-color="#FEFEFE"></stop><stop offset="1.00000" stop-color="#E3E3E3"></stop></linearGradient><linearGradient id="gradSh18.121" x1="-36.0" y1="0.0" x2="36.0" y2="0.0" gradientUnits="userSpaceOnUse" gradientTransform="matrix(0.00, -2.43, -2.42, 0.00, 268.7, 93.3)"><stop offset="0.00000" stop-color="#FFFFFF"></stop><stop offset="0.01833" stop-color="#FEFEFE"></stop><stop offset="1.00000" stop-color="#E3E3E3"></stop></linearGradient><linearGradient id="gradSh19.122" x1="-36.0" y1="0.0" x2="36.0" y2="0.0" gradientUnits="userSpaceOnUse" gradientTransform="matrix(0.00, -2.43, -2.42, 0.00, 94.1, 93.3)"><stop offset="0.00000" stop-color="#FFFFFF"></stop><stop offset="0.01833" stop-color="#FEFEFE"></stop><stop offset="1.00000" stop-color="#E3E3E3"></stop></linearGradient><linearGradient id="gradSh20.123" x1="-36.0" y1="0.0" x2="36.0" y2="0.0" gradientUnits="userSpaceOnUse" gradientTransform="matrix(0.00, -2.43, -2.42, 0.00, 617.9, 93.3)"><stop offset="0.00000" stop-color="#FFFFFF"></stop><stop offset="0.01833" stop-color="#FEFEFE"></stop><stop offset="1.00000" stop-color="#E3E3E3"></stop></linearGradient></defs><g transform="matrix(1.00, 0.00, -0.00, -1.00, 0.0, 886.0)"><g><clipPath id="clip0x7fd436891fb0"><path d="M 356.0 880.1 L 530.6 880.1 L 530.6 705.3 L 356.0 705.3 Z M 356.0 880.1 "></path></clipPath><g clip-path="url(#clip0x7fd436891fb0)"><g><clipPath id="clip0x7fd436b68600"><path d="M 2.0 1.0 L 710.0 1.0 L 710.0 885.0 L 2.0 885.0 Z M 2.0 1.0 "></path></clipPath><g clip-path="url(#clip0x7fd436b68600)"><path d="M 2.0 1.0 L 710.0 1.0 L 710.0 885.0 L 2.0 885.0 Z M 2.0 1.0 " fill="url(#gradSh1.104)"></path></g></g></g></g><g><clipPath id="clip0x7fd4373bbc10"><path d="M 2.0 1.0 L 710.0 1.0 L 710.0 885.0 L 2.0 885.0 Z M 2.0 1.0 "></path></clipPath><g clip-path="url(#clip0x7fd4373bbc10)"><path d="M 432.0 288.0 L 504.0 288.0 L 504.0 360.0 L 432.0 360.0 Z M 432.0 288.0 " fill="none" stroke="#AAAAAA" stroke-width="2.00" stroke-linecap="round" stroke-linejoin="round" transform="matrix(2.42, 0.00, 0.00, -2.43, -691.5, 1579.6)"></path></g></g><g><clipPath id="clip0x7fd4373bcff0"><path d="M 181.4 880.1 L 356.0 880.1 L 356.0 705.3 L 181.4 705.3 Z M 181.4 880.1 "></path></clipPath><g clip-path="url(#clip0x7fd4373bcff0)"><g><clipPath id="clip0x7fd4373bd710"><path d="M 2.0 1.0 L 710.0 1.0 L 710.0 885.0 L 2.0 885.0 Z M 2.0 1.0 "></path></clipPath><g clip-path="url(#clip0x7fd4373bd710)"><path d="M 2.0 1.0 L 710.0 1.0 L 710.0 885.0 L 2.0 885.0 Z M 2.0 1.0 " fill="url(#gradSh2.105)"></path></g></g></g></g><g><clipPath id="clip0x7fd436ab8e70"><path d="M 2.0 1.0 L 710.0 1.0 L 710.0 885.0 L 2.0 885.0 Z M 2.0 1.0 "></path></clipPath><g clip-path="url(#clip0x7fd436ab8e70)"><path d="M 360.0 288.0 L 432.0 288.0 L 432.0 360.0 L 360.0 360.0 Z M 360.0 288.0 " fill="none" stroke="#AAAAAA" stroke-width="2.00" stroke-linecap="round" stroke-linejoin="round" transform="matrix(2.42, 0.00, 0.00, -2.43, -691.5, 1579.6)"></path></g></g><g><clipPath id="clip0x7fd436ab9fd0"><path d="M 6.8 880.1 L 181.4 880.1 L 181.4 705.3 L 6.8 705.3 Z M 6.8 880.1 "></path></clipPath><g clip-path="url(#clip0x7fd436ab9fd0)"><g><clipPath id="clip0x7fd436aba6f0"><path d="M 2.0 1.0 L 710.0 1.0 L 710.0 885.0 L 2.0 885.0 Z M 2.0 1.0 "></path></clipPath><g clip-path="url(#clip0x7fd436aba6f0)"><path d="M 2.0 1.0 L 710.0 1.0 L 710.0 885.0 L 2.0 885.0 Z M 2.0 1.0 " fill="url(#gradSh3.106)"></path></g></g></g></g><g><clipPath id="clip0x7fd437410160"><path d="M 2.0 1.0 L 710.0 1.0 L 710.0 885.0 L 2.0 885.0 Z M 2.0 1.0 "></path></clipPath><g clip-path="url(#clip0x7fd437410160)"><path d="M 288.0 288.0 L 360.0 288.0 L 360.0 360.0 L 288.0 360.0 Z M 288.0 288.0 " fill="none" stroke="#AAAAAA" stroke-width="2.00" stroke-linecap="round" stroke-linejoin="round" transform="matrix(2.42, 0.00, 0.00, -2.43, -691.5, 1579.6)"></path></g></g><g><clipPath id="clip0x7fd4374112d0"><path d="M 530.6 880.1 L 705.2 880.1 L 705.2 705.3 L 530.6 705.3 Z M 530.6 880.1 "></path></clipPath><g clip-path="url(#clip0x7fd4374112d0)"><g><clipPath id="clip0x7fd437411a40"><path d="M 2.0 1.0 L 710.0 1.0 L 710.0 885.0 L 2.0 885.0 Z M 2.0 1.0 "></path></clipPath><g clip-path="url(#clip0x7fd437411a40)"><path d="M 2.0 1.0 L 710.0 1.0 L 710.0 885.0 L 2.0 885.0 Z M 2.0 1.0 " fill="url(#gradSh4.107)"></path></g></g></g></g><g><clipPath id="clip0x7fd4374637a0"><path d="M 2.0 1.0 L 710.0 1.0 L 710.0 885.0 L 2.0 885.0 Z M 2.0 1.0 "></path></clipPath><g clip-path="url(#clip0x7fd4374637a0)"><path d="M 504.0 288.0 L 576.0 288.0 L 576.0 360.0 L 504.0 360.0 Z M 504.0 288.0 " fill="none" stroke="#AAAAAA" stroke-width="2.00" stroke-linecap="round" stroke-linejoin="round" transform="matrix(2.42, 0.00, 0.00, -2.43, -691.5, 1579.6)"></path></g></g><g><clipPath id="clip0x7fd4374648e0"><path d="M 356.0 705.3 L 530.6 705.3 L 530.6 530.4 L 356.0 530.4 Z M 356.0 705.3 "></path></clipPath><g clip-path="url(#clip0x7fd4374648e0)"><g><clipPath id="clip0x7fd437465050"><path d="M 2.0 1.0 L 710.0 1.0 L 710.0 885.0 L 2.0 885.0 Z M 2.0 1.0 "></path></clipPath><g clip-path="url(#clip0x7fd437465050)"><path d="M 2.0 1.0 L 710.0 1.0 L 710.0 885.0 L 2.0 885.0 Z M 2.0 1.0 " fill="url(#gradSh5.108)"></path></g></g></g></g><g><clipPath id="clip0x7fd4374b6dd0"><path d="M 2.0 1.0 L 710.0 1.0 L 710.0 885.0 L 2.0 885.0 Z M 2.0 1.0 "></path></clipPath><g clip-path="url(#clip0x7fd4374b6dd0)"><path d="M 432.0 360.0 L 504.0 360.0 L 504.0 432.0 L 432.0 432.0 Z M 432.0 360.0 " fill="none" stroke="#AAAAAA" stroke-width="2.00" stroke-linecap="round" stroke-linejoin="round" transform="matrix(2.42, 0.00, 0.00, -2.43, -691.5, 1579.6)"></path></g></g><g><clipPath id="clip0x7fd4374b7f10"><path d="M 181.4 705.3 L 356.0 705.3 L 356.0 530.4 L 181.4 530.4 Z M 181.4 705.3 "></path></clipPath><g clip-path="url(#clip0x7fd4374b7f10)"><g><clipPath id="clip0x7fd4374b8670"><path d="M 2.0 1.0 L 710.0 1.0 L 710.0 885.0 L 2.0 885.0 Z M 2.0 1.0 "></path></clipPath><g clip-path="url(#clip0x7fd4374b8670)"><path d="M 2.0 1.0 L 710.0 1.0 L 710.0 885.0 L 2.0 885.0 Z M 2.0 1.0 " fill="url(#gradSh6.109)"></path></g></g></g></g><g><clipPath id="clip0x7fd43750e360"><path d="M 2.0 1.0 L 710.0 1.0 L 710.0 885.0 L 2.0 885.0 Z M 2.0 1.0 "></path></clipPath><g clip-path="url(#clip0x7fd43750e360)"><path d="M 360.0 360.0 L 432.0 360.0 L 432.0 432.0 L 360.0 432.0 Z M 360.0 360.0 " fill="none" stroke="#AAAAAA" stroke-width="2.00" stroke-linecap="round" stroke-linejoin="round" transform="matrix(2.42, 0.00, 0.00, -2.43, -691.5, 1579.6)"></path></g></g><g><clipPath id="clip0x7fd43750f4a0"><path d="M 6.8 705.3 L 181.4 705.3 L 181.4 530.4 L 6.8 530.4 Z M 6.8 705.3 "></path></clipPath><g clip-path="url(#clip0x7fd43750f4a0)"><g><clipPath id="clip0x7fd43750fbc0"><path d="M 2.0 1.0 L 710.0 1.0 L 710.0 885.0 L 2.0 885.0 Z M 2.0 1.0 "></path></clipPath><g clip-path="url(#clip0x7fd43750fbc0)"><path d="M 2.0 1.0 L 710.0 1.0 L 710.0 885.0 L 2.0 885.0 Z M 2.0 1.0 " fill="url(#gradSh7.110)"></path></g></g></g></g><g><clipPath id="clip0x7fd437561950"><path d="M 2.0 1.0 L 710.0 1.0 L 710.0 885.0 L 2.0 885.0 Z M 2.0 1.0 "></path></clipPath><g clip-path="url(#clip0x7fd437561950)"><path d="M 288.0 360.0 L 360.0 360.0 L 360.0 432.0 L 288.0 432.0 Z M 288.0 360.0 " fill="none" stroke="#AAAAAA" stroke-width="2.00" stroke-linecap="round" stroke-linejoin="round" transform="matrix(2.42, 0.00, 0.00, -2.43, -691.5, 1579.6)"></path></g></g><g><clipPath id="clip0x7fd437562b40"><path d="M 530.6 705.3 L 705.2 705.3 L 705.2 530.4 L 530.6 530.4 Z M 530.6 705.3 "></path></clipPath><g clip-path="url(#clip0x7fd437562b40)"><g><clipPath id="clip0x7fd437563260"><path d="M 2.0 1.0 L 710.0 1.0 L 710.0 885.0 L 2.0 885.0 Z M 2.0 1.0 "></path></clipPath><g clip-path="url(#clip0x7fd437563260)"><path d="M 2.0 1.0 L 710.0 1.0 L 710.0 885.0 L 2.0 885.0 Z M 2.0 1.0 " fill="url(#gradSh8.111)"></path></g></g></g></g><g><clipPath id="clip0x7fd4375b4f90"><path d="M 2.0 1.0 L 710.0 1.0 L 710.0 885.0 L 2.0 885.0 Z M 2.0 1.0 "></path></clipPath><g clip-path="url(#clip0x7fd4375b4f90)"><path d="M 504.0 360.0 L 576.0 360.0 L 576.0 432.0 L 504.0 432.0 Z M 504.0 360.0 " fill="none" stroke="#AAAAAA" stroke-width="2.00" stroke-linecap="round" stroke-linejoin="round" transform="matrix(2.42, 0.00, 0.00, -2.43, -691.5, 1579.6)"></path></g></g><g><clipPath id="clip0x7fd4375b60d0"><path d="M 356.0 530.4 L 530.6 530.4 L 530.6 355.6 L 356.0 355.6 Z M 356.0 530.4 "></path></clipPath><g clip-path="url(#clip0x7fd4375b60d0)"><g><clipPath id="clip0x7fd4375b6840"><path d="M 2.0 1.0 L 710.0 1.0 L 710.0 885.0 L 2.0 885.0 Z M 2.0 1.0 "></path></clipPath><g clip-path="url(#clip0x7fd4375b6840)"><path d="M 2.0 1.0 L 710.0 1.0 L 710.0 885.0 L 2.0 885.0 Z M 2.0 1.0 " fill="url(#gradSh9.112)"></path></g></g></g></g><g><clipPath id="clip0x7fd43760c520"><path d="M 2.0 1.0 L 710.0 1.0 L 710.0 885.0 L 2.0 885.0 Z M 2.0 1.0 "></path></clipPath><g clip-path="url(#clip0x7fd43760c520)"><path d="M 432.0 432.0 L 504.0 432.0 L 504.0 504.0 L 432.0 504.0 Z M 432.0 432.0 " fill="none" stroke="#AAAAAA" stroke-width="2.00" stroke-linecap="round" stroke-linejoin="round" transform="matrix(2.42, 0.00, 0.00, -2.43, -691.5, 1579.6)"></path></g></g><g><clipPath id="clip0x7fd43760d660"><path d="M 181.4 530.4 L 356.0 530.4 L 356.0 355.6 L 181.4 355.6 Z M 181.4 530.4 "></path></clipPath><g clip-path="url(#clip0x7fd43760d660)"><g><clipPath id="clip0x7fd43760dd80"><path d="M 2.0 1.0 L 710.0 1.0 L 710.0 885.0 L 2.0 885.0 Z M 2.0 1.0 "></path></clipPath><g clip-path="url(#clip0x7fd43760dd80)"><path d="M 2.0 1.0 L 710.0 1.0 L 710.0 885.0 L 2.0 885.0 Z M 2.0 1.0 " fill="url(#gradSh10.113)"></path></g></g></g></g><g><clipPath id="clip0x7fd43765fae0"><path d="M 2.0 1.0 L 710.0 1.0 L 710.0 885.0 L 2.0 885.0 Z M 2.0 1.0 "></path></clipPath><g clip-path="url(#clip0x7fd43765fae0)"><path d="M 360.0 432.0 L 432.0 432.0 L 432.0 504.0 L 360.0 504.0 Z M 360.0 432.0 " fill="none" stroke="#AAAAAA" stroke-width="2.00" stroke-linecap="round" stroke-linejoin="round" transform="matrix(2.42, 0.00, 0.00, -2.43, -691.5, 1579.6)"></path></g></g><g><clipPath id="clip0x7fd437660c20"><path d="M 6.8 530.4 L 181.4 530.4 L 181.4 355.6 L 6.8 355.6 Z M 6.8 530.4 "></path></clipPath><g clip-path="url(#clip0x7fd437660c20)"><g><clipPath id="clip0x7fd437661340"><path d="M 2.0 1.0 L 710.0 1.0 L 710.0 885.0 L 2.0 885.0 Z M 2.0 1.0 "></path></clipPath><g clip-path="url(#clip0x7fd437661340)"><path d="M 2.0 1.0 L 710.0 1.0 L 710.0 885.0 L 2.0 885.0 Z M 2.0 1.0 " fill="url(#gradSh11.114)"></path></g></g></g></g><g><clipPath id="clip0x7fd4376b30d0"><path d="M 2.0 1.0 L 710.0 1.0 L 710.0 885.0 L 2.0 885.0 Z M 2.0 1.0 "></path></clipPath><g clip-path="url(#clip0x7fd4376b30d0)"><path d="M 288.0 432.0 L 360.0 432.0 L 360.0 504.0 L 288.0 504.0 Z M 288.0 432.0 " fill="none" stroke="#AAAAAA" stroke-width="2.00" stroke-linecap="round" stroke-linejoin="round" transform="matrix(2.42, 0.00, 0.00, -2.43, -691.5, 1579.6)"></path></g></g><g><clipPath id="clip0x7fd4376b42f0"><path d="M 530.6 530.4 L 705.2 530.4 L 705.2 355.6 L 530.6 355.6 Z M 530.6 530.4 "></path></clipPath><g clip-path="url(#clip0x7fd4376b42f0)"><g><clipPath id="clip0x7fd4376b4a10"><path d="M 2.0 1.0 L 710.0 1.0 L 710.0 885.0 L 2.0 885.0 Z M 2.0 1.0 "></path></clipPath><g clip-path="url(#clip0x7fd4376b4a10)"><path d="M 2.0 1.0 L 710.0 1.0 L 710.0 885.0 L 2.0 885.0 Z M 2.0 1.0 " fill="url(#gradSh12.115)"></path></g></g></g></g><g><clipPath id="clip0x7fd43770a6e0"><path d="M 2.0 1.0 L 710.0 1.0 L 710.0 885.0 L 2.0 885.0 Z M 2.0 1.0 "></path></clipPath><g clip-path="url(#clip0x7fd43770a6e0)"><path d="M 504.0 432.0 L 576.0 432.0 L 576.0 504.0 L 504.0 504.0 Z M 504.0 432.0 " fill="none" stroke="#AAAAAA" stroke-width="2.00" stroke-linecap="round" stroke-linejoin="round" transform="matrix(2.42, 0.00, 0.00, -2.43, -691.5, 1579.6)"></path></g></g><g><clipPath id="clip0x7fd43770b820"><path d="M 356.0 355.6 L 530.6 355.6 L 530.6 180.7 L 356.0 180.7 Z M 356.0 355.6 "></path></clipPath><g clip-path="url(#clip0x7fd43770b820)"><g><clipPath id="clip0x7fd43770bf40"><path d="M 2.0 1.0 L 710.0 1.0 L 710.0 885.0 L 2.0 885.0 Z M 2.0 1.0 "></path></clipPath><g clip-path="url(#clip0x7fd43770bf40)"><path d="M 2.0 1.0 L 710.0 1.0 L 710.0 885.0 L 2.0 885.0 Z M 2.0 1.0 " fill="url(#gradSh13.116)"></path></g></g></g></g><g><clipPath id="clip0x7fd43775dca0"><path d="M 2.0 1.0 L 710.0 1.0 L 710.0 885.0 L 2.0 885.0 Z M 2.0 1.0 "></path></clipPath><g clip-path="url(#clip0x7fd43775dca0)"><path d="M 432.0 504.0 L 504.0 504.0 L 504.0 576.0 L 432.0 576.0 Z M 432.0 504.0 " fill="none" stroke="#AAAAAA" stroke-width="2.00" stroke-linecap="round" stroke-linejoin="round" transform="matrix(2.42, 0.00, 0.00, -2.43, -691.5, 1579.6)"></path></g></g><g><clipPath id="clip0x7fd43775ede0"><path d="M 181.4 355.6 L 356.0 355.6 L 356.0 180.7 L 181.4 180.7 Z M 181.4 355.6 "></path></clipPath><g clip-path="url(#clip0x7fd43775ede0)"><g><clipPath id="clip0x7fd43775f5d0"><path d="M 2.0 1.0 L 710.0 1.0 L 710.0 885.0 L 2.0 885.0 Z M 2.0 1.0 "></path></clipPath><g clip-path="url(#clip0x7fd43775f5d0)"><path d="M 2.0 1.0 L 710.0 1.0 L 710.0 885.0 L 2.0 885.0 Z M 2.0 1.0 " fill="url(#gradSh14.117)"></path></g></g></g></g><g><clipPath id="clip0x7fd4377b12e0"><path d="M 2.0 1.0 L 710.0 1.0 L 710.0 885.0 L 2.0 885.0 Z M 2.0 1.0 "></path></clipPath><g clip-path="url(#clip0x7fd4377b12e0)"><path d="M 360.0 504.0 L 432.0 504.0 L 432.0 576.0 L 360.0 576.0 Z M 360.0 504.0 " fill="none" stroke="#AAAAAA" stroke-width="2.00" stroke-linecap="round" stroke-linejoin="round" transform="matrix(2.42, 0.00, 0.00, -2.43, -691.5, 1579.6)"></path></g></g><g><clipPath id="clip0x7fd4377b2420"><path d="M 6.8 355.6 L 181.4 355.6 L 181.4 180.7 L 6.8 180.7 Z M 6.8 355.6 "></path></clipPath><g clip-path="url(#clip0x7fd4377b2420)"><g><clipPath id="clip0x7fd4377b2b40"><path d="M 2.0 1.0 L 710.0 1.0 L 710.0 885.0 L 2.0 885.0 Z M 2.0 1.0 "></path></clipPath><g clip-path="url(#clip0x7fd4377b2b40)"><path d="M 2.0 1.0 L 710.0 1.0 L 710.0 885.0 L 2.0 885.0 Z M 2.0 1.0 " fill="url(#gradSh15.118)"></path></g></g></g></g><g><clipPath id="clip0x7fd437808820"><path d="M 2.0 1.0 L 710.0 1.0 L 710.0 885.0 L 2.0 885.0 Z M 2.0 1.0 "></path></clipPath><g clip-path="url(#clip0x7fd437808820)"><path d="M 288.0 504.0 L 360.0 504.0 L 360.0 576.0 L 288.0 576.0 Z M 288.0 504.0 " fill="none" stroke="#AAAAAA" stroke-width="2.00" stroke-linecap="round" stroke-linejoin="round" transform="matrix(2.42, 0.00, 0.00, -2.43, -691.5, 1579.6)"></path></g></g><g><clipPath id="clip0x7fd437809960"><path d="M 530.6 355.6 L 705.2 355.6 L 705.2 180.7 L 530.6 180.7 Z M 530.6 355.6 "></path></clipPath><g clip-path="url(#clip0x7fd437809960)"><g><clipPath id="clip0x7fd43780a080"><path d="M 2.0 1.0 L 710.0 1.0 L 710.0 885.0 L 2.0 885.0 Z M 2.0 1.0 "></path></clipPath><g clip-path="url(#clip0x7fd43780a080)"><path d="M 2.0 1.0 L 710.0 1.0 L 710.0 885.0 L 2.0 885.0 Z M 2.0 1.0 " fill="url(#gradSh16.119)"></path></g></g></g></g><g><clipPath id="clip0x7fd43785bde0"><path d="M 2.0 1.0 L 710.0 1.0 L 710.0 885.0 L 2.0 885.0 Z M 2.0 1.0 "></path></clipPath><g clip-path="url(#clip0x7fd43785bde0)"><path d="M 504.0 504.0 L 576.0 504.0 L 576.0 576.0 L 504.0 576.0 Z M 504.0 504.0 " fill="none" stroke="#AAAAAA" stroke-width="2.00" stroke-linecap="round" stroke-linejoin="round" transform="matrix(2.42, 0.00, 0.00, -2.43, -691.5, 1579.6)"></path></g></g><g><clipPath id="clip0x7fd43785cf20"><path d="M 356.0 180.7 L 530.6 180.7 L 530.6 5.9 L 356.0 5.9 Z M 356.0 180.7 "></path></clipPath><g clip-path="url(#clip0x7fd43785cf20)"><g><clipPath id="clip0x7fd43785d640"><path d="M 2.0 1.0 L 710.0 1.0 L 710.0 885.0 L 2.0 885.0 Z M 2.0 1.0 "></path></clipPath><g clip-path="url(#clip0x7fd43785d640)"><path d="M 2.0 1.0 L 710.0 1.0 L 710.0 885.0 L 2.0 885.0 Z M 2.0 1.0 " fill="url(#gradSh17.120)"></path></g></g></g></g><g><clipPath id="clip0x7fd4379112f0"><path d="M 2.0 1.0 L 710.0 1.0 L 710.0 885.0 L 2.0 885.0 Z M 2.0 1.0 "></path></clipPath><g clip-path="url(#clip0x7fd4379112f0)"><path d="M 432.0 576.0 L 504.0 576.0 L 504.0 648.0 L 432.0 648.0 Z M 432.0 576.0 " fill="none" stroke="#AAAAAA" stroke-width="2.00" stroke-linecap="round" stroke-linejoin="round" transform="matrix(2.42, 0.00, 0.00, -2.43, -691.5, 1579.6)"></path></g></g><g><clipPath id="clip0x7fd437912420"><path d="M 181.4 180.7 L 356.0 180.7 L 356.0 5.9 L 181.4 5.9 Z M 181.4 180.7 "></path></clipPath><g clip-path="url(#clip0x7fd437912420)"><g><clipPath id="clip0x7fd437912eb0"><path d="M 2.0 1.0 L 710.0 1.0 L 710.0 885.0 L 2.0 885.0 Z M 2.0 1.0 "></path></clipPath><g clip-path="url(#clip0x7fd437912eb0)"><path d="M 2.0 1.0 L 710.0 1.0 L 710.0 885.0 L 2.0 885.0 Z M 2.0 1.0 " fill="url(#gradSh18.121)"></path></g></g></g></g><g><clipPath id="clip0x7fd437964bf0"><path d="M 2.0 1.0 L 710.0 1.0 L 710.0 885.0 L 2.0 885.0 Z M 2.0 1.0 "></path></clipPath><g clip-path="url(#clip0x7fd437964bf0)"><path d="M 360.0 576.0 L 432.0 576.0 L 432.0 648.0 L 360.0 648.0 Z M 360.0 576.0 " fill="none" stroke="#AAAAAA" stroke-width="2.00" stroke-linecap="round" stroke-linejoin="round" transform="matrix(2.42, 0.00, 0.00, -2.43, -691.5, 1579.6)"></path></g></g><g><clipPath id="clip0x7fd437965d00"><path d="M 6.8 180.7 L 181.4 180.7 L 181.4 5.9 L 6.8 5.9 Z M 6.8 180.7 "></path></clipPath><g clip-path="url(#clip0x7fd437965d00)"><g><clipPath id="clip0x7fd437966420"><path d="M 2.0 1.0 L 710.0 1.0 L 710.0 885.0 L 2.0 885.0 Z M 2.0 1.0 "></path></clipPath><g clip-path="url(#clip0x7fd437966420)"><path d="M 2.0 1.0 L 710.0 1.0 L 710.0 885.0 L 2.0 885.0 Z M 2.0 1.0 " fill="url(#gradSh19.122)"></path></g></g></g></g><g><clipPath id="clip0x7fd4379b8190"><path d="M 2.0 1.0 L 710.0 1.0 L 710.0 885.0 L 2.0 885.0 Z M 2.0 1.0 "></path></clipPath><g clip-path="url(#clip0x7fd4379b8190)"><path d="M 288.0 576.0 L 360.0 576.0 L 360.0 648.0 L 288.0 648.0 Z M 288.0 576.0 " fill="none" stroke="#AAAAAA" stroke-width="2.00" stroke-linecap="round" stroke-linejoin="round" transform="matrix(2.42, 0.00, 0.00, -2.43, -691.5, 1579.6)"></path></g></g><g><clipPath id="clip0x7fd4379b92d0"><path d="M 530.6 180.7 L 705.2 180.7 L 705.2 5.9 L 530.6 5.9 Z M 530.6 180.7 "></path></clipPath><g clip-path="url(#clip0x7fd4379b92d0)"><g><clipPath id="clip0x7fd4379b99f0"><path d="M 2.0 1.0 L 710.0 1.0 L 710.0 885.0 L 2.0 885.0 Z M 2.0 1.0 "></path></clipPath><g clip-path="url(#clip0x7fd4379b99f0)"><path d="M 2.0 1.0 L 710.0 1.0 L 710.0 885.0 L 2.0 885.0 Z M 2.0 1.0 " fill="url(#gradSh20.123)"></path></g></g></g></g><g><clipPath id="clip0x7fd437a0f6e0"><path d="M 2.0 1.0 L 710.0 1.0 L 710.0 885.0 L 2.0 885.0 Z M 2.0 1.0 "></path></clipPath><g clip-path="url(#clip0x7fd437a0f6e0)"><path d="M 504.0 576.0 L 576.0 576.0 L 576.0 648.0 L 504.0 648.0 Z M 504.0 576.0 " fill="none" stroke="#AAAAAA" stroke-width="2.00" stroke-linecap="round" stroke-linejoin="round" transform="matrix(2.42, 0.00, 0.00, -2.43, -691.5, 1579.6)"></path></g></g></g></svg>