<?xml version="1.0" encoding="UTF-8" standalone="no"?><svg xmlns="http://www.w3.org/2000/svg" xmlns:xlink="http://www.w3.org/1999/xlink" clip-rule="evenodd" stroke-miterlimit="10" viewBox="0 0 753 106"><desc>SVG generated by Keynote</desc><defs></defs><g transform="matrix(1.00, 0.00, -0.00, -1.00, 0.0, 106.0)"><text xml:space="preserve" font-family="SourceSansPro-Regular,Source Sans Pro" font-size="33.8" fill="#000000" transform="matrix(1.00, 0.00, -0.00, -1.00, 0.8, 72.0)">•</text><text xml:space="preserve" font-family="SourceSansPro-Regular,Source Sans Pro" font-size="45.0" fill="#000000" transform="matrix(1.00, 0.00, -0.00, -1.00, 44.8, 68.1)">H</text><text xml:space="preserve" font-family="SourceSansPro-Regular,Source Sans Pro" font-size="45.0" fill="#000000" transform="matrix(1.00, 0.00, -0.00, -1.00, 74.1, 68.1)">o</text><text xml:space="preserve" font-family="SourceSansPro-Regular,Source Sans Pro" font-size="45.0" fill="#000000" transform="matrix(1.00, 0.00, -0.00, -1.00, 98.3, 68.1)">w</text><text xml:space="preserve" font-family="SourceSansPro-Regular,Source Sans Pro" font-size="45.0" fill="#000000" transform="matrix(1.00, 0.00, -0.00, -1.00, 130.6, 68.1)"> </text><text xml:space="preserve" font-family="SourceSansPro-Regular,Source Sans Pro" font-size="45.0" fill="#000000" transform="matrix(1.00, 0.00, -0.00, -1.00, 139.7, 68.1)">t</text><text xml:space="preserve" font-family="SourceSansPro-Regular,Source Sans Pro" font-size="45.0" fill="#000000" transform="matrix(1.00, 0.00, -0.00, -1.00, 154.5, 68.1)">o</text><text xml:space="preserve" font-family="SourceSansPro-Regular,Source Sans Pro" font-size="45.0" fill="#000000" transform="matrix(1.00, 0.00, -0.00, -1.00, 178.9, 68.1)"> </text><text xml:space="preserve" font-family="SourceSansPro-Regular,Source Sans Pro" font-size="45.0" fill="#000000" transform="matrix(1.00, 0.00, -0.00, -1.00, 188.0, 68.1)">r</text><text xml:space="preserve" font-family="SourceSansPro-Regular,Source Sans Pro" font-size="45.0" fill="#000000" transform="matrix(1.00, 0.00, -0.00, -1.00, 203.1, 68.1)">e</text><text xml:space="preserve" font-family="SourceSansPro-Regular,Source Sans Pro" font-size="45.0" fill="#000000" transform="matrix(1.00, 0.00, -0.00, -1.00, 225.4, 68.1)">p</text><text xml:space="preserve" font-family="SourceSansPro-Regular,Source Sans Pro" font-size="45.0" fill="#000000" transform="matrix(1.00, 0.00, -0.00, -1.00, 250.4, 68.1)">r</text><text xml:space="preserve" font-family="SourceSansPro-Regular,Source Sans Pro" font-size="45.0" fill="#000000" transform="matrix(1.00, 0.00, -0.00, -1.00, 265.6, 68.1)">e</text><text xml:space="preserve" font-family="SourceSansPro-Regular,Source Sans Pro" font-size="45.0" fill="#000000" transform="matrix(1.00, 0.00, -0.00, -1.00, 287.9, 68.1)">s</text><text xml:space="preserve" font-family="SourceSansPro-Regular,Source Sans Pro" font-size="45.0" fill="#000000" transform="matrix(1.00, 0.00, -0.00, -1.00, 306.8, 68.1)">e</text><text xml:space="preserve" font-family="SourceSansPro-Regular,Source Sans Pro" font-size="45.0" fill="#000000" transform="matrix(1.00, 0.00, -0.00, -1.00, 329.1, 68.1)">n</text><text xml:space="preserve" font-family="SourceSansPro-Regular,Source Sans Pro" font-size="45.0" fill="#000000" transform="matrix(1.00, 0.00, -0.00, -1.00, 353.7, 68.1)">t</text><text xml:space="preserve" font-family="SourceSansPro-Regular,Source Sans Pro" font-size="45.0" fill="#000000" transform="matrix(1.00, 0.00, -0.00, -1.00, 368.9, 68.1)"> </text><text xml:space="preserve" font-family="SourceSansPro-Regular,Source Sans Pro" font-size="45.0" fill="#000000" transform="matrix(1.00, 0.00, -0.00, -1.00, 378.0, 68.1)">t</text><text xml:space="preserve" font-family="SourceSansPro-Regular,Source Sans Pro" font-size="45.0" fill="#000000" transform="matrix(1.00, 0.00, -0.00, -1.00, 393.2, 68.1)">h</text><text xml:space="preserve" font-family="SourceSansPro-Regular,Source Sans Pro" font-size="45.0" fill="#000000" transform="matrix(1.00, 0.00, -0.00, -1.00, 417.7, 68.1)">e</text><text xml:space="preserve" font-family="SourceSansPro-Regular,Source Sans Pro" font-size="45.0" fill="#000000" transform="matrix(1.00, 0.00, -0.00, -1.00, 440.0, 68.1)"> </text><text xml:space="preserve" font-family="SourceSansPro-Regular,Source Sans Pro" font-size="45.0" fill="#000000" transform="matrix(1.00, 0.00, -0.00, -1.00, 449.1, 68.1)">f</text><text xml:space="preserve" font-family="SourceSansPro-Regular,Source Sans Pro" font-size="45.0" fill="#000000" transform="matrix(1.00, 0.00, -0.00, -1.00, 462.2, 68.1)">r</text><text xml:space="preserve" font-family="SourceSansPro-Regular,Source Sans Pro" font-size="45.0" fill="#000000" transform="matrix(1.00, 0.00, -0.00, -1.00, 476.7, 68.1)">a</text><text xml:space="preserve" font-family="SourceSansPro-Regular,Source Sans Pro" font-size="45.0" fill="#000000" transform="matrix(1.00, 0.00, -0.00, -1.00, 499.8, 68.1)">m</text><text xml:space="preserve" font-family="SourceSansPro-Regular,Source Sans Pro" font-size="45.0" fill="#000000" transform="matrix(1.00, 0.00, -0.00, -1.00, 537.1, 68.1)">e</text><text xml:space="preserve" font-family="SourceSansPro-Regular,Source Sans Pro" font-size="45.0" fill="#000000" transform="matrix(1.00, 0.00, -0.00, -1.00, 559.4, 68.1)"> </text><text xml:space="preserve" font-family="SourceSansPro-Regular,Source Sans Pro" font-size="45.0" fill="#000000" transform="matrix(1.00, 0.00, -0.00, -1.00, 568.5, 68.1)">h</text><text xml:space="preserve" font-family="SourceSansPro-Regular,Source Sans Pro" font-size="45.0" fill="#000000" transform="matrix(1.00, 0.00, -0.00, -1.00, 593.0, 68.1)">e</text><text xml:space="preserve" font-family="SourceSansPro-Regular,Source Sans Pro" font-size="45.0" fill="#000000" transform="matrix(1.00, 0.00, -0.00, -1.00, 614.7, 68.1)">a</text><text xml:space="preserve" font-family="SourceSansPro-Regular,Source Sans Pro" font-size="45.0" fill="#000000" transform="matrix(1.00, 0.00, -0.00, -1.00, 637.7, 68.1)">d</text><text xml:space="preserve" font-family="SourceSansPro-Regular,Source Sans Pro" font-size="45.0" fill="#000000" transform="matrix(1.00, 0.00, -0.00, -1.00, 662.7, 68.1)">e</text><text xml:space="preserve" font-family="SourceSansPro-Regular,Source Sans Pro" font-size="45.0" fill="#000000" transform="matrix(1.00, 0.00, -0.00, -1.00, 685.0, 68.1)">r</text><text xml:space="preserve" font-family="SourceSansPro-Regular,Source Sans Pro" font-size="45.0" fill="#000000" transform="matrix(1.00, 0.00, -0.00, -1.00, 700.6, 68.1)"> </text><text xml:space="preserve" font-family="SourceSansPro-Regular,Source Sans Pro" font-size="45.0" fill="#000000" transform="matrix(1.00, 0.00, -0.00, -1.00, 709.7, 68.1)">a</text><text xml:space="preserve" font-family="SourceSansPro-Regular,Source Sans Pro" font-size="45.0" fill="#000000" transform="matrix(1.00, 0.00, -0.00, -1.00, 732.7, 68.1)">s</text><text xml:space="preserve" font-family="SourceSansPro-Regular,Source Sans Pro" font-size="45.0" fill="#000000" transform="matrix(1.00, 0.00, -0.00, -1.00, 751.6, 68.1)"> </text><text xml:space="preserve" font-family="SourceSansPro-Regular,Source Sans Pro" font-size="45.0" fill="#000000" transform="matrix(1.00, 0.00, -0.00, -1.00, 44.8, 12.1)">b</text><text xml:space="preserve" font-family="SourceSansPro-Regular,Source Sans Pro" font-size="45.0" fill="#000000" transform="matrix(1.00, 0.00, -0.00, -1.00, 69.7, 12.1)">i</text><text xml:space="preserve" font-family="SourceSansPro-Regular,Source Sans Pro" font-size="45.0" fill="#000000" transform="matrix(1.00, 0.00, -0.00, -1.00, 80.8, 12.1)">n</text><text xml:space="preserve" font-family="SourceSansPro-Regular,Source Sans Pro" font-size="45.0" fill="#000000" transform="matrix(1.00, 0.00, -0.00, -1.00, 105.4, 12.1)">a</text><text xml:space="preserve" font-family="SourceSansPro-Regular,Source Sans Pro" font-size="45.0" fill="#000000" transform="matrix(1.00, 0.00, -0.00, -1.00, 128.5, 12.1)">r</text><text xml:space="preserve" font-family="SourceSansPro-Regular,Source Sans Pro" font-size="45.0" fill="#000000" transform="matrix(1.00, 0.00, -0.00, -1.00, 144.9, 12.1)">y</text><text xml:space="preserve" font-family="SourceSansPro-Regular,Source Sans Pro" font-size="45.0" fill="#000000" transform="matrix(1.00, 0.00, -0.00, -1.00, 166.0, 12.1)"> </text><text xml:space="preserve" font-family="SourceSansPro-Regular,Source Sans Pro" font-size="45.0" fill="#000000" transform="matrix(1.00, 0.00, -0.00, -1.00, 175.0, 12.1)">d</text><text xml:space="preserve" font-family="SourceSansPro-Regular,Source Sans Pro" font-size="45.0" fill="#000000" transform="matrix(1.00, 0.00, -0.00, -1.00, 200.0, 12.1)">a</text><text xml:space="preserve" font-family="SourceSansPro-Regular,Source Sans Pro" font-size="45.0" fill="#000000" transform="matrix(1.00, 0.00, -0.00, -1.00, 223.1, 12.1)">t</text><text xml:space="preserve" font-family="SourceSansPro-Regular,Source Sans Pro" font-size="45.0" fill="#000000" transform="matrix(1.00, 0.00, -0.00, -1.00, 237.5, 12.1)">a</text></g></svg>