<?xml version="1.0" encoding="UTF-8" standalone="no"?><svg xmlns="http://www.w3.org/2000/svg" xmlns:xlink="http://www.w3.org/1999/xlink" clip-rule="evenodd" stroke-miterlimit="10" viewBox="0 0 1583 187"><desc>SVG generated by Keynote</desc><defs><linearGradient id="gradSh1.124" x1="-36.0" y1="0.0" x2="36.0" y2="0.0" gradientUnits="userSpaceOnUse" gradientTransform="matrix(0.00, -2.42, -2.42, 0.00, 93.1, 94.0)"><stop offset="0.00000" stop-color="#FFCF40"></stop><stop offset="0.00147" stop-color="#FFCF3F"></stop><stop offset="0.01026" stop-color="#FFCE3F"></stop><stop offset="0.50440" stop-color="#EEAD1F"></stop><stop offset="0.51979" stop-color="#EEAC1F"></stop><stop offset="0.75660" stop-color="#E69D0F"></stop><stop offset="0.75953" stop-color="#E69C0F"></stop><stop offset="0.88270" stop-color="#E29407"></stop><stop offset="0.88710" stop-color="#E19407"></stop><stop offset="0.94501" stop-color="#E09003"></stop><stop offset="0.94721" stop-color="#DF9003"></stop><stop offset="0.97654" stop-color="#DF8E01"></stop><stop offset="0.97727" stop-color="#DE8E01"></stop><stop offset="0.99267" stop-color="#DE8D00"></stop><stop offset="0.99927" stop-color="#DE8C00"></stop><stop offset="1.00000" stop-color="#DE8C00"></stop></linearGradient><linearGradient id="gradSh2.125" x1="-36.0" y1="0.0" x2="36.0" y2="0.0" gradientUnits="userSpaceOnUse" gradientTransform="matrix(0.00, -2.42, -2.42, 0.00, 267.6, 94.0)"><stop offset="0.00000" stop-color="#FFCF40"></stop><stop offset="0.00147" stop-color="#FFCF3F"></stop><stop offset="0.01026" stop-color="#FFCE3F"></stop><stop offset="0.50440" stop-color="#EEAD1F"></stop><stop offset="0.51979" stop-color="#EEAC1F"></stop><stop offset="0.75660" stop-color="#E69D0F"></stop><stop offset="0.75953" stop-color="#E69C0F"></stop><stop offset="0.88270" stop-color="#E29407"></stop><stop offset="0.88710" stop-color="#E19407"></stop><stop offset="0.94501" stop-color="#E09003"></stop><stop offset="0.94721" stop-color="#DF9003"></stop><stop offset="0.97654" stop-color="#DF8E01"></stop><stop offset="0.97727" stop-color="#DE8E01"></stop><stop offset="0.99267" stop-color="#DE8D00"></stop><stop offset="0.99927" stop-color="#DE8C00"></stop><stop offset="1.00000" stop-color="#DE8C00"></stop></linearGradient><linearGradient id="gradSh3.126" x1="-36.0" y1="0.0" x2="36.0" y2="0.0" gradientUnits="userSpaceOnUse" gradientTransform="matrix(0.00, -2.42, -2.42, 0.00, 442.0, 94.0)"><stop offset="0.00000" stop-color="#FFCF40"></stop><stop offset="0.00147" stop-color="#FFCF3F"></stop><stop offset="0.01026" stop-color="#FFCE3F"></stop><stop offset="0.50440" stop-color="#EEAD1F"></stop><stop offset="0.51979" stop-color="#EEAC1F"></stop><stop offset="0.75660" stop-color="#E69D0F"></stop><stop offset="0.75953" stop-color="#E69C0F"></stop><stop offset="0.88270" stop-color="#E29407"></stop><stop offset="0.88710" stop-color="#E19407"></stop><stop offset="0.94501" stop-color="#E09003"></stop><stop offset="0.94721" stop-color="#DF9003"></stop><stop offset="0.97654" stop-color="#DF8E01"></stop><stop offset="0.97727" stop-color="#DE8E01"></stop><stop offset="0.99267" stop-color="#DE8D00"></stop><stop offset="0.99927" stop-color="#DE8C00"></stop><stop offset="1.00000" stop-color="#DE8C00"></stop></linearGradient><linearGradient id="gradSh4.127" x1="-36.0" y1="0.0" x2="36.0" y2="0.0" gradientUnits="userSpaceOnUse" gradientTransform="matrix(0.00, -2.42, -2.42, 0.00, 791.0, 94.0)"><stop offset="0.00000" stop-color="#E97373"></stop><stop offset="0.00513" stop-color="#E87373"></stop><stop offset="0.62537" stop-color="#BE3F3F"></stop><stop offset="0.63783" stop-color="#BE3E3E"></stop><stop offset="1.00000" stop-color="#A52121"></stop></linearGradient><linearGradient id="gradSh5.128" x1="-36.0" y1="0.0" x2="36.0" y2="0.0" gradientUnits="userSpaceOnUse" gradientTransform="matrix(0.00, -2.42, -2.42, 0.00, 616.5, 94.0)"><stop offset="0.00000" stop-color="#797BD5"></stop><stop offset="0.00367" stop-color="#797AD5"></stop><stop offset="0.78152" stop-color="#3F468B"></stop><stop offset="0.78886" stop-color="#3F458A"></stop><stop offset="1.00000" stop-color="#2F3776"></stop></linearGradient><linearGradient id="gradSh6.129" x1="-36.0" y1="0.0" x2="36.0" y2="0.0" gradientUnits="userSpaceOnUse" gradientTransform="matrix(0.00, -2.42, -2.42, 0.00, 889.1, 94.0)"><stop offset="0.00000" stop-color="#52A2AA"></stop><stop offset="0.00220" stop-color="#51A2AA"></stop><stop offset="0.47947" stop-color="#2B7F88"></stop><stop offset="0.48021" stop-color="#2A7F87"></stop><stop offset="1.00000" stop-color="#005A62"></stop></linearGradient><linearGradient id="gradSh7.130" x1="-36.0" y1="0.0" x2="36.0" y2="0.0" gradientUnits="userSpaceOnUse" gradientTransform="matrix(0.00, -2.42, -2.42, 0.00, 976.4, 94.0)"><stop offset="0.00000" stop-color="#86D040"></stop><stop offset="0.00073" stop-color="#85D040"></stop><stop offset="0.14956" stop-color="#7BC33F"></stop><stop offset="0.15029" stop-color="#7AC23F"></stop><stop offset="1.00000" stop-color="#3C773C"></stop></linearGradient><linearGradient id="gradSh8.131" x1="-36.0" y1="0.0" x2="36.0" y2="0.0" gradientUnits="userSpaceOnUse" gradientTransform="matrix(0.00, -2.42, -2.42, 0.00, 1140.0, 94.0)"><stop offset="0.00000" stop-color="#86D040"></stop><stop offset="0.00073" stop-color="#85D040"></stop><stop offset="0.14956" stop-color="#7BC33F"></stop><stop offset="0.15029" stop-color="#7AC23F"></stop><stop offset="1.00000" stop-color="#3C773C"></stop></linearGradient><linearGradient id="gradSh9.132" x1="-36.0" y1="0.0" x2="36.0" y2="0.0" gradientUnits="userSpaceOnUse" gradientTransform="matrix(0.00, -2.42, -2.42, 0.00, 1314.4, 94.0)"><stop offset="0.00000" stop-color="#86D040"></stop><stop offset="0.00073" stop-color="#85D040"></stop><stop offset="0.14956" stop-color="#7BC33F"></stop><stop offset="0.15029" stop-color="#7AC23F"></stop><stop offset="1.00000" stop-color="#3C773C"></stop></linearGradient><linearGradient id="gradSh10.133" x1="-36.0" y1="0.0" x2="36.0" y2="0.0" gradientUnits="userSpaceOnUse" gradientTransform="matrix(0.00, -2.42, -2.42, 0.00, 1488.9, 94.0)"><stop offset="0.00000" stop-color="#86D040"></stop><stop offset="0.00073" stop-color="#85D040"></stop><stop offset="0.14956" stop-color="#7BC33F"></stop><stop offset="0.15029" stop-color="#7AC23F"></stop><stop offset="1.00000" stop-color="#3C773C"></stop></linearGradient></defs><g transform="matrix(1.00, 0.00, -0.00, -1.00, 0.0, 187.0)"><g><clipPath id="clip0x7fd4369a38f0"><path d="M 5.8 181.2 L 180.3 181.2 L 180.3 6.8 L 5.8 6.8 Z M 5.8 181.2 "></path></clipPath><g clip-path="url(#clip0x7fd4369a38f0)"><g><clipPath id="clip0x7fd4369f7740"><path d="M 1.0 2.0 L 1581.0 2.0 L 1581.0 186.0 L 1.0 186.0 Z M 1.0 2.0 "></path></clipPath><g clip-path="url(#clip0x7fd4369f7740)"><path d="M 1.0 2.0 L 1581.0 2.0 L 1581.0 186.0 L 1.0 186.0 Z M 1.0 2.0 " fill="url(#gradSh1.124)"></path></g></g></g></g><g><clipPath id="clip0x7fd437a51890"><path d="M 1.0 2.0 L 1581.0 2.0 L 1581.0 186.0 L 1.0 186.0 Z M 1.0 2.0 "></path></clipPath><g clip-path="url(#clip0x7fd437a51890)"><path d="M 144.0 144.0 L 216.0 144.0 L 216.0 216.0 L 144.0 216.0 Z M 144.0 144.0 " fill="none" stroke="#C47900" stroke-width="2.00" stroke-linecap="round" stroke-linejoin="round" transform="matrix(2.42, 0.00, 0.00, -2.42, -343.1, 529.8)"></path></g></g><g><clipPath id="clip0x7fd437a52c70"><path d="M 180.3 181.2 L 354.8 181.2 L 354.8 6.8 L 180.3 6.8 Z M 180.3 181.2 "></path></clipPath><g clip-path="url(#clip0x7fd437a52c70)"><g><clipPath id="clip0x7fd437a53390"><path d="M 1.0 2.0 L 1581.0 2.0 L 1581.0 186.0 L 1.0 186.0 Z M 1.0 2.0 "></path></clipPath><g clip-path="url(#clip0x7fd437a53390)"><path d="M 1.0 2.0 L 1581.0 2.0 L 1581.0 186.0 L 1.0 186.0 Z M 1.0 2.0 " fill="url(#gradSh2.125)"></path></g></g></g></g><g><clipPath id="clip0x7fd437aa6430"><path d="M 1.0 2.0 L 1581.0 2.0 L 1581.0 186.0 L 1.0 186.0 Z M 1.0 2.0 "></path></clipPath><g clip-path="url(#clip0x7fd437aa6430)"><path d="M 216.0 144.0 L 288.0 144.0 L 288.0 216.0 L 216.0 216.0 Z M 216.0 144.0 " fill="none" stroke="#C47900" stroke-width="2.00" stroke-linecap="round" stroke-linejoin="round" transform="matrix(2.42, 0.00, 0.00, -2.42, -343.1, 529.8)"></path></g></g><image xlink:href="../../F2798D85-7E53-43FD-8610-65E8067C0CEC/assets/25282ADF2E13A70403CEBB7A16472678.png" width="106.00" height="46.00" transform="matrix(1.00, 0.00, -0.00, -1.00, 216.0, 111.0)"></image><g><clipPath id="clip0x7fd437aa8210"><path d="M 1.0 2.0 L 1581.0 2.0 L 1581.0 186.0 L 1.0 186.0 Z M 1.0 2.0 "></path></clipPath><g clip-path="url(#clip0x7fd437aa8210)"><text xml:space="preserve" font-family="Helvetica-Bold,Helvetica" font-weight="bold" font-size="11.0" fill="#FFFFFF" transform="matrix(2.42, 0.00, -0.00, -2.42, 223.1, 85.5)">L</text><text xml:space="preserve" font-family="Helvetica-Bold,Helvetica" font-weight="bold" font-size="11.0" fill="#FFFFFF" transform="matrix(2.42, 0.00, -0.00, -2.42, 239.4, 85.5)">e</text><text xml:space="preserve" font-family="Helvetica-Bold,Helvetica" font-weight="bold" font-size="11.0" fill="#FFFFFF" transform="matrix(2.42, 0.00, -0.00, -2.42, 254.3, 85.5)">n</text><text xml:space="preserve" font-family="Helvetica-Bold,Helvetica" font-weight="bold" font-size="11.0" fill="#FFFFFF" transform="matrix(2.42, 0.00, -0.00, -2.42, 270.5, 85.5)">g</text><text xml:space="preserve" font-family="Helvetica-Bold,Helvetica" font-weight="bold" font-size="11.0" fill="#FFFFFF" transform="matrix(2.42, 0.00, -0.00, -2.42, 286.8, 85.5)">t</text><text xml:space="preserve" font-family="Helvetica-Bold,Helvetica" font-weight="bold" font-size="11.0" fill="#FFFFFF" transform="matrix(2.42, 0.00, -0.00, -2.42, 295.7, 85.5)">h</text></g></g><g><clipPath id="clip0x7fd437aaca90"><path d="M 354.8 181.2 L 529.3 181.2 L 529.3 6.8 L 354.8 6.8 Z M 354.8 181.2 "></path></clipPath><g clip-path="url(#clip0x7fd437aaca90)"><g><clipPath id="clip0x7fd437aad200"><path d="M 1.0 2.0 L 1581.0 2.0 L 1581.0 186.0 L 1.0 186.0 Z M 1.0 2.0 "></path></clipPath><g clip-path="url(#clip0x7fd437aad200)"><path d="M 1.0 2.0 L 1581.0 2.0 L 1581.0 186.0 L 1.0 186.0 Z M 1.0 2.0 " fill="url(#gradSh3.126)"></path></g></g></g></g><g><clipPath id="clip0x7fd437c04170"><path d="M 1.0 2.0 L 1581.0 2.0 L 1581.0 186.0 L 1.0 186.0 Z M 1.0 2.0 "></path></clipPath><g clip-path="url(#clip0x7fd437c04170)"><path d="M 288.0 144.0 L 360.0 144.0 L 360.0 216.0 L 288.0 216.0 Z M 288.0 144.0 " fill="none" stroke="#C47900" stroke-width="2.00" stroke-linecap="round" stroke-linejoin="round" transform="matrix(2.42, 0.00, 0.00, -2.42, -343.1, 529.8)"></path></g></g><g><clipPath id="clip0x7fd437c052a0"><path d="M 703.8 181.2 L 878.2 181.2 L 878.2 6.8 L 703.8 6.8 Z M 703.8 181.2 "></path></clipPath><g clip-path="url(#clip0x7fd437c052a0)"><g><clipPath id="clip0x7fd437c059c0"><path d="M 1.0 2.0 L 1581.0 2.0 L 1581.0 186.0 L 1.0 186.0 Z M 1.0 2.0 "></path></clipPath><g clip-path="url(#clip0x7fd437c059c0)"><path d="M 1.0 2.0 L 1581.0 2.0 L 1581.0 186.0 L 1.0 186.0 Z M 1.0 2.0 " fill="url(#gradSh4.127)"></path></g></g></g></g><g><clipPath id="clip0x7fd437c57960"><path d="M 1.0 2.0 L 1581.0 2.0 L 1581.0 186.0 L 1.0 186.0 Z M 1.0 2.0 "></path></clipPath><g clip-path="url(#clip0x7fd437c57960)"><path d="M 432.0 144.0 L 504.0 144.0 L 504.0 216.0 L 432.0 216.0 Z M 432.0 144.0 " fill="none" stroke="#A32829" stroke-width="2.00" stroke-linecap="round" stroke-linejoin="round" transform="matrix(2.42, 0.00, 0.00, -2.42, -343.1, 529.8)"></path></g></g><image xlink:href="../../F2798D85-7E53-43FD-8610-65E8067C0CEC/assets/F1577F81FC9A61E0639183241A1B55D1.png" width="81.00" height="43.00" transform="matrix(1.00, 0.00, -0.00, -1.00, 752.0, 108.0)"></image><g><clipPath id="clip0x7fd437c597d0"><path d="M 1.0 2.0 L 1581.0 2.0 L 1581.0 186.0 L 1.0 186.0 Z M 1.0 2.0 "></path></clipPath><g clip-path="url(#clip0x7fd437c597d0)"><text xml:space="preserve" font-family="Helvetica-Bold,Helvetica" font-weight="bold" font-size="10.0" fill="#FFFFFF" transform="matrix(2.42, 0.00, -0.00, -2.42, 759.4, 84.3)">F</text><text xml:space="preserve" font-family="Helvetica-Bold,Helvetica" font-weight="bold" font-size="10.0" fill="#FFFFFF" transform="matrix(2.42, 0.00, -0.00, -2.42, 774.2, 84.3)">l</text><text xml:space="preserve" font-family="Helvetica-Bold,Helvetica" font-weight="bold" font-size="10.0" fill="#FFFFFF" transform="matrix(2.42, 0.00, -0.00, -2.42, 780.9, 84.3)">a</text><text xml:space="preserve" font-family="Helvetica-Bold,Helvetica" font-weight="bold" font-size="10.0" fill="#FFFFFF" transform="matrix(2.42, 0.00, -0.00, -2.42, 794.4, 84.3)">g</text><text xml:space="preserve" font-family="Helvetica-Bold,Helvetica" font-weight="bold" font-size="10.0" fill="#FFFFFF" transform="matrix(2.42, 0.00, -0.00, -2.42, 809.1, 84.3)">s</text></g></g><g><clipPath id="clip0x7fd437c5dac0"><path d="M 529.3 181.2 L 703.8 181.2 L 703.8 6.8 L 529.3 6.8 Z M 529.3 181.2 "></path></clipPath><g clip-path="url(#clip0x7fd437c5dac0)"><g><clipPath id="clip0x7fd437c5e1c0"><path d="M 1.0 2.0 L 1581.0 2.0 L 1581.0 186.0 L 1.0 186.0 Z M 1.0 2.0 "></path></clipPath><g clip-path="url(#clip0x7fd437c5e1c0)"><path d="M 1.0 2.0 L 1581.0 2.0 L 1581.0 186.0 L 1.0 186.0 Z M 1.0 2.0 " fill="url(#gradSh5.128)"></path></g></g></g></g><g><clipPath id="clip0x7fd437cb0160"><path d="M 1.0 2.0 L 1581.0 2.0 L 1581.0 186.0 L 1.0 186.0 Z M 1.0 2.0 "></path></clipPath><g clip-path="url(#clip0x7fd437cb0160)"><path d="M 360.0 144.0 L 432.0 144.0 L 432.0 216.0 L 360.0 216.0 Z M 360.0 144.0 " fill="none" stroke="#37417B" stroke-width="2.00" stroke-linecap="round" stroke-linejoin="round" transform="matrix(2.42, 0.00, 0.00, -2.42, -343.1, 529.8)"></path></g></g><image xlink:href="../../F2798D85-7E53-43FD-8610-65E8067C0CEC/assets/F231A2262FA4BD152ADD45834FE36D9F.png" width="75.00" height="43.00" transform="matrix(1.00, 0.00, -0.00, -1.00, 580.0, 108.0)"></image><g><clipPath id="clip0x7fd437cb1f60"><path d="M 1.0 2.0 L 1581.0 2.0 L 1581.0 186.0 L 1.0 186.0 Z M 1.0 2.0 "></path></clipPath><g clip-path="url(#clip0x7fd437cb1f60)"><text xml:space="preserve" font-family="Helvetica-Bold,Helvetica" font-weight="bold" font-size="10.0" fill="#FFFFFF" transform="matrix(2.42, 0.00, -0.00, -2.42, 589.1, 84.3)">T</text><text xml:space="preserve" font-family="Helvetica-Bold,Helvetica" font-weight="bold" font-size="10.0" fill="#FFFFFF" transform="matrix(2.42, 0.00, -0.00, -2.42, 602.1, 84.3)">y</text><text xml:space="preserve" font-family="Helvetica-Bold,Helvetica" font-weight="bold" font-size="10.0" fill="#FFFFFF" transform="matrix(2.42, 0.00, -0.00, -2.42, 615.6, 84.3)">p</text><text xml:space="preserve" font-family="Helvetica-Bold,Helvetica" font-weight="bold" font-size="10.0" fill="#FFFFFF" transform="matrix(2.42, 0.00, -0.00, -2.42, 630.4, 84.3)">e</text></g></g><g><clipPath id="clip0x7fd437cb4ec0"><path d="M 878.2 181.2 L 900.0 181.2 L 900.0 6.8 L 878.2 6.8 Z M 878.2 181.2 "></path></clipPath><g clip-path="url(#clip0x7fd437cb4ec0)"><g><clipPath id="clip0x7fd437cb5610"><path d="M 1.0 2.0 L 1581.0 2.0 L 1581.0 186.0 L 1.0 186.0 Z M 1.0 2.0 "></path></clipPath><g clip-path="url(#clip0x7fd437cb5610)"><path d="M 1.0 2.0 L 1581.0 2.0 L 1581.0 186.0 L 1.0 186.0 Z M 1.0 2.0 " fill="url(#gradSh6.129)"></path></g></g></g></g><g><clipPath id="clip0x7fd437d0b560"><path d="M 1.0 2.0 L 1581.0 2.0 L 1581.0 186.0 L 1.0 186.0 Z M 1.0 2.0 "></path></clipPath><g clip-path="url(#clip0x7fd437d0b560)"><path d="M 504.0 144.0 L 513.0 144.0 L 513.0 216.0 L 504.0 216.0 Z M 504.0 144.0 " fill="none" stroke="#00656C" stroke-width="2.00" stroke-linecap="round" stroke-linejoin="round" transform="matrix(2.42, 0.00, 0.00, -2.42, -343.1, 529.8)"></path></g></g><g><clipPath id="clip0x7fd437d0c730"><path d="M 900.0 181.2 L 1052.7 181.2 L 1052.7 6.8 L 900.0 6.8 Z M 900.0 181.2 "></path></clipPath><g clip-path="url(#clip0x7fd437d0c730)"><g><clipPath id="clip0x7fd437d0ce50"><path d="M 1.0 2.0 L 1581.0 2.0 L 1581.0 186.0 L 1.0 186.0 Z M 1.0 2.0 "></path></clipPath><g clip-path="url(#clip0x7fd437d0ce50)"><path d="M 1.0 2.0 L 1581.0 2.0 L 1581.0 186.0 L 1.0 186.0 Z M 1.0 2.0 " fill="url(#gradSh7.130)"></path></g></g></g></g><g><clipPath id="clip0x7fd437d5eea0"><path d="M 1.0 2.0 L 1581.0 2.0 L 1581.0 186.0 L 1.0 186.0 Z M 1.0 2.0 "></path></clipPath><g clip-path="url(#clip0x7fd437d5eea0)"><path d="M 513.0 144.0 L 576.0 144.0 L 576.0 216.0 L 513.0 216.0 Z M 513.0 144.0 " fill="none" stroke="#427A40" stroke-width="2.00" stroke-linecap="round" stroke-linejoin="round" transform="matrix(2.42, 0.00, 0.00, -2.42, -343.1, 529.8)"></path></g></g><g><clipPath id="clip0x7fd437d5ffd0"><path d="M 1052.7 181.2 L 1227.2 181.2 L 1227.2 6.8 L 1052.7 6.8 Z M 1052.7 181.2 "></path></clipPath><g clip-path="url(#clip0x7fd437d5ffd0)"><g><clipPath id="clip0x7fd437d606f0"><path d="M 1.0 2.0 L 1581.0 2.0 L 1581.0 186.0 L 1.0 186.0 Z M 1.0 2.0 "></path></clipPath><g clip-path="url(#clip0x7fd437d606f0)"><path d="M 1.0 2.0 L 1581.0 2.0 L 1581.0 186.0 L 1.0 186.0 Z M 1.0 2.0 " fill="url(#gradSh8.131)"></path></g></g></g></g><g><clipPath id="clip0x7fd437db2710"><path d="M 1.0 2.0 L 1581.0 2.0 L 1581.0 186.0 L 1.0 186.0 Z M 1.0 2.0 "></path></clipPath><g clip-path="url(#clip0x7fd437db2710)"><path d="M 576.0 144.0 L 648.0 144.0 L 648.0 216.0 L 576.0 216.0 Z M 576.0 144.0 " fill="none" stroke="#427A40" stroke-width="2.00" stroke-linecap="round" stroke-linejoin="round" transform="matrix(2.42, 0.00, 0.00, -2.42, -343.1, 529.8)"></path></g></g><image xlink:href="../../F2798D85-7E53-43FD-8610-65E8067C0CEC/assets/EA40CF7FFCC4395853751F500F48BF99.png" width="129.00" height="40.00" transform="matrix(1.00, 0.00, -0.00, -1.00, 1076.0, 109.0)"></image><g><clipPath id="clip0x7fd437db5770"><path d="M 1.0 2.0 L 1581.0 2.0 L 1581.0 186.0 L 1.0 186.0 Z M 1.0 2.0 "></path></clipPath><g clip-path="url(#clip0x7fd437db5770)"><text xml:space="preserve" font-family="Helvetica-Bold,Helvetica" font-weight="bold" font-size="10.0" fill="#FFFFFF" transform="matrix(2.42, 0.00, -0.00, -2.42, 1084.7, 84.3)">S</text><text xml:space="preserve" font-family="Helvetica-Bold,Helvetica" font-weight="bold" font-size="10.0" fill="#FFFFFF" transform="matrix(2.42, 0.00, -0.00, -2.42, 1100.9, 84.3)">t</text><text xml:space="preserve" font-family="Helvetica-Bold,Helvetica" font-weight="bold" font-size="10.0" fill="#FFFFFF" transform="matrix(2.42, 0.00, -0.00, -2.42, 1109.0, 84.3)">r</text><text xml:space="preserve" font-family="Helvetica-Bold,Helvetica" font-weight="bold" font-size="10.0" fill="#FFFFFF" transform="matrix(2.42, 0.00, -0.00, -2.42, 1118.4, 84.3)">e</text><text xml:space="preserve" font-family="Helvetica-Bold,Helvetica" font-weight="bold" font-size="10.0" fill="#FFFFFF" transform="matrix(2.42, 0.00, -0.00, -2.42, 1131.9, 84.3)">a</text><text xml:space="preserve" font-family="Helvetica-Bold,Helvetica" font-weight="bold" font-size="10.0" fill="#FFFFFF" transform="matrix(2.42, 0.00, -0.00, -2.42, 1145.4, 84.3)">m</text><text xml:space="preserve" font-family="Helvetica-Bold,Helvetica" font-weight="bold" font-size="10.0" fill="#FFFFFF" transform="matrix(2.42, 0.00, -0.00, -2.42, 1166.9, 84.3)"> </text><text xml:space="preserve" font-family="Helvetica-Bold,Helvetica" font-weight="bold" font-size="10.0" fill="#FFFFFF" transform="matrix(2.42, 0.00, -0.00, -2.42, 1173.7, 84.3)">I</text><text xml:space="preserve" font-family="Helvetica-Bold,Helvetica" font-weight="bold" font-size="10.0" fill="#FFFFFF" transform="matrix(2.42, 0.00, -0.00, -2.42, 1180.4, 84.3)">d</text></g></g><g><clipPath id="clip0x7fd437db9440"><path d="M 1227.2 181.2 L 1401.7 181.2 L 1401.7 6.8 L 1227.2 6.8 Z M 1227.2 181.2 "></path></clipPath><g clip-path="url(#clip0x7fd437db9440)"><g><clipPath id="clip0x7fd437db9b10"><path d="M 1.0 2.0 L 1581.0 2.0 L 1581.0 186.0 L 1.0 186.0 Z M 1.0 2.0 "></path></clipPath><g clip-path="url(#clip0x7fd437db9b10)"><path d="M 1.0 2.0 L 1581.0 2.0 L 1581.0 186.0 L 1.0 186.0 Z M 1.0 2.0 " fill="url(#gradSh9.132)"></path></g></g></g></g><g><clipPath id="clip0x7fd437e0fa20"><path d="M 1.0 2.0 L 1581.0 2.0 L 1581.0 186.0 L 1.0 186.0 Z M 1.0 2.0 "></path></clipPath><g clip-path="url(#clip0x7fd437e0fa20)"><path d="M 648.0 144.0 L 720.0 144.0 L 720.0 216.0 L 648.0 216.0 Z M 648.0 144.0 " fill="none" stroke="#427A40" stroke-width="2.00" stroke-linecap="round" stroke-linejoin="round" transform="matrix(2.42, 0.00, 0.00, -2.42, -343.1, 529.8)"></path></g></g><g><clipPath id="clip0x7fd437e10b50"><path d="M 1401.7 181.2 L 1576.2 181.2 L 1576.2 6.8 L 1401.7 6.8 Z M 1401.7 181.2 "></path></clipPath><g clip-path="url(#clip0x7fd437e10b50)"><g><clipPath id="clip0x7fd437e11340"><path d="M 1.0 2.0 L 1581.0 2.0 L 1581.0 186.0 L 1.0 186.0 Z M 1.0 2.0 "></path></clipPath><g clip-path="url(#clip0x7fd437e11340)"><path d="M 1.0 2.0 L 1581.0 2.0 L 1581.0 186.0 L 1.0 186.0 Z M 1.0 2.0 " fill="url(#gradSh10.133)"></path></g></g></g></g><g><clipPath id="clip0x7fd437e63330"><path d="M 1.0 2.0 L 1581.0 2.0 L 1581.0 186.0 L 1.0 186.0 Z M 1.0 2.0 "></path></clipPath><g clip-path="url(#clip0x7fd437e63330)"><path d="M 720.0 144.0 L 792.0 144.0 L 792.0 216.0 L 720.0 216.0 Z M 720.0 144.0 " fill="none" stroke="#427A40" stroke-width="2.00" stroke-linecap="round" stroke-linejoin="round" transform="matrix(2.42, 0.00, 0.00, -2.42, -343.1, 529.8)"></path></g></g></g></svg>