<?xml version="1.0" encoding="UTF-8" standalone="no"?><svg xmlns="http://www.w3.org/2000/svg" xmlns:xlink="http://www.w3.org/1999/xlink" clip-rule="evenodd" stroke-miterlimit="10" viewBox="0 0 1920 1080"><desc>SVG generated by Keynote</desc><defs></defs><g transform="matrix(1.00, 0.00, -0.00, -1.00, 0.0, 1080.0)"><path d="M 0.0 1080.0 L 1920.0 1080.0 L 1920.0 0.0 L 0.0 0.0 Z M 0.0 1080.0 " fill="#FEFFFF"></path><text xml:space="preserve" font-family="Courier-Bold,Courier" font-weight="bold" font-size="84.0" fill="#000000" transform="matrix(1.00, 0.00, -0.00, -1.00, 632.3, 952.0)">h</text><text xml:space="preserve" font-family="Courier-Bold,Courier" font-weight="bold" font-size="84.0" fill="#000000" transform="matrix(1.00, 0.00, -0.00, -1.00, 682.8, 952.0)">a</text><text xml:space="preserve" font-family="Courier-Bold,Courier" font-weight="bold" font-size="84.0" fill="#000000" transform="matrix(1.00, 0.00, -0.00, -1.00, 733.2, 952.0)">n</text><text xml:space="preserve" font-family="Courier-Bold,Courier" font-weight="bold" font-size="84.0" fill="#000000" transform="matrix(1.00, 0.00, -0.00, -1.00, 783.6, 952.0)">d</text><text xml:space="preserve" font-family="Courier-Bold,Courier" font-weight="bold" font-size="84.0" fill="#000000" transform="matrix(1.00, 0.00, -0.00, -1.00, 834.0, 952.0)">l</text><text xml:space="preserve" font-family="Courier-Bold,Courier" font-weight="bold" font-size="84.0" fill="#000000" transform="matrix(1.00, 0.00, -0.00, -1.00, 884.4, 952.0)">e</text><text xml:space="preserve" font-family="Courier-Bold,Courier" font-weight="bold" font-size="84.0" fill="#000000" transform="matrix(1.00, 0.00, -0.00, -1.00, 934.8, 952.0)">_</text><text xml:space="preserve" font-family="Courier-Bold,Courier" font-weight="bold" font-size="84.0" fill="#000000" transform="matrix(1.00, 0.00, -0.00, -1.00, 985.3, 952.0)">i</text><text xml:space="preserve" font-family="Courier-Bold,Courier" font-weight="bold" font-size="84.0" fill="#000000" transform="matrix(1.00, 0.00, -0.00, -1.00, 1035.7, 952.0)">n</text><text xml:space="preserve" font-family="Courier-Bold,Courier" font-weight="bold" font-size="84.0" fill="#000000" transform="matrix(1.00, 0.00, -0.00, -1.00, 1086.1, 952.0)">f</text><text xml:space="preserve" font-family="Courier-Bold,Courier" font-weight="bold" font-size="84.0" fill="#000000" transform="matrix(1.00, 0.00, -0.00, -1.00, 1136.5, 952.0)">o</text><text xml:space="preserve" font-family="Courier-Bold,Courier" font-weight="bold" font-size="84.0" fill="#000000" transform="matrix(1.00, 0.00, -0.00, -1.00, 1186.9, 952.0)">/</text><text xml:space="preserve" font-family="Courier-Bold,Courier" font-weight="bold" font-size="84.0" fill="#000000" transform="matrix(1.00, 0.00, -0.00, -1.00, 1237.3, 952.0)">3</text><text xml:space="preserve" font-family="Courier-Bold,Courier" font-weight="bold" font-size="84.0" fill="#000000" transform="matrix(1.00, 0.00, -0.00, -1.00, 607.1, 851.0)">h</text><text xml:space="preserve" font-family="Courier-Bold,Courier" font-weight="bold" font-size="84.0" fill="#000000" transform="matrix(1.00, 0.00, -0.00, -1.00, 657.6, 851.0)">a</text><text xml:space="preserve" font-family="Courier-Bold,Courier" font-weight="bold" font-size="84.0" fill="#000000" transform="matrix(1.00, 0.00, -0.00, -1.00, 708.0, 851.0)">n</text><text xml:space="preserve" font-family="Courier-Bold,Courier" font-weight="bold" font-size="84.0" fill="#000000" transform="matrix(1.00, 0.00, -0.00, -1.00, 758.4, 851.0)">d</text><text xml:space="preserve" font-family="Courier-Bold,Courier" font-weight="bold" font-size="84.0" fill="#000000" transform="matrix(1.00, 0.00, -0.00, -1.00, 808.8, 851.0)">l</text><text xml:space="preserve" font-family="Courier-Bold,Courier" font-weight="bold" font-size="84.0" fill="#000000" transform="matrix(1.00, 0.00, -0.00, -1.00, 859.2, 851.0)">e</text><text xml:space="preserve" font-family="Courier-Bold,Courier" font-weight="bold" font-size="84.0" fill="#000000" transform="matrix(1.00, 0.00, -0.00, -1.00, 909.6, 851.0)">_</text><text xml:space="preserve" font-family="Courier-Bold,Courier" font-weight="bold" font-size="84.0" fill="#000000" transform="matrix(1.00, 0.00, -0.00, -1.00, 960.1, 851.0)">e</text><text xml:space="preserve" font-family="Courier-Bold,Courier" font-weight="bold" font-size="84.0" fill="#000000" transform="matrix(1.00, 0.00, -0.00, -1.00, 1010.5, 851.0)">v</text><text xml:space="preserve" font-family="Courier-Bold,Courier" font-weight="bold" font-size="84.0" fill="#000000" transform="matrix(1.00, 0.00, -0.00, -1.00, 1060.9, 851.0)">e</text><text xml:space="preserve" font-family="Courier-Bold,Courier" font-weight="bold" font-size="84.0" fill="#000000" transform="matrix(1.00, 0.00, -0.00, -1.00, 1111.3, 851.0)">n</text><text xml:space="preserve" font-family="Courier-Bold,Courier" font-weight="bold" font-size="84.0" fill="#000000" transform="matrix(1.00, 0.00, -0.00, -1.00, 1161.7, 851.0)">t</text><text xml:space="preserve" font-family="Courier-Bold,Courier" font-weight="bold" font-size="84.0" fill="#000000" transform="matrix(1.00, 0.00, -0.00, -1.00, 1212.1, 851.0)">/</text><text xml:space="preserve" font-family="Courier-Bold,Courier" font-weight="bold" font-size="84.0" fill="#000000" transform="matrix(1.00, 0.00, -0.00, -1.00, 1262.6, 851.0)">3</text><text xml:space="preserve" font-family="Courier-Bold,Courier" font-weight="bold" font-size="84.0" fill="#000000" transform="matrix(1.00, 0.00, -0.00, -1.00, 682.8, 750.0)">S</text><text xml:space="preserve" font-family="Courier-Bold,Courier" font-weight="bold" font-size="84.0" fill="#000000" transform="matrix(1.00, 0.00, -0.00, -1.00, 733.2, 750.0)">t</text><text xml:space="preserve" font-family="Courier-Bold,Courier" font-weight="bold" font-size="84.0" fill="#000000" transform="matrix(1.00, 0.00, -0.00, -1.00, 783.6, 750.0)">a</text><text xml:space="preserve" font-family="Courier-Bold,Courier" font-weight="bold" font-size="84.0" fill="#000000" transform="matrix(1.00, 0.00, -0.00, -1.00, 834.0, 750.0)">t</text><text xml:space="preserve" font-family="Courier-Bold,Courier" font-weight="bold" font-size="84.0" fill="#000000" transform="matrix(1.00, 0.00, -0.00, -1.00, 884.4, 750.0)">e</text><text xml:space="preserve" font-family="Courier-Bold,Courier" font-weight="bold" font-size="84.0" fill="#000000" transform="matrix(1.00, 0.00, -0.00, -1.00, 934.8, 750.0)">N</text><text xml:space="preserve" font-family="Courier-Bold,Courier" font-weight="bold" font-size="84.0" fill="#000000" transform="matrix(1.00, 0.00, -0.00, -1.00, 985.3, 750.0)">a</text><text xml:space="preserve" font-family="Courier-Bold,Courier" font-weight="bold" font-size="84.0" fill="#000000" transform="matrix(1.00, 0.00, -0.00, -1.00, 1035.7, 750.0)">m</text><text xml:space="preserve" font-family="Courier-Bold,Courier" font-weight="bold" font-size="84.0" fill="#000000" transform="matrix(1.00, 0.00, -0.00, -1.00, 1086.1, 750.0)">e</text><text xml:space="preserve" font-family="Courier-Bold,Courier" font-weight="bold" font-size="84.0" fill="#000000" transform="matrix(1.00, 0.00, -0.00, -1.00, 1136.5, 750.0)">/</text><text xml:space="preserve" font-family="Courier-Bold,Courier" font-weight="bold" font-size="84.0" fill="#000000" transform="matrix(1.00, 0.00, -0.00, -1.00, 1186.9, 750.0)">2</text><text xml:space="preserve" font-family="SourceSansPro-Regular,Source Sans Pro" font-size="84.0" fill="#000000" transform="matrix(1.00, 0.00, -0.00, -1.00, 587.2, 646.2)">T</text><text xml:space="preserve" font-family="SourceSansPro-Regular,Source Sans Pro" font-size="84.0" fill="#000000" transform="matrix(1.00, 0.00, -0.00, -1.00, 628.4, 646.2)">r</text><text xml:space="preserve" font-family="SourceSansPro-Regular,Source Sans Pro" font-size="84.0" fill="#000000" transform="matrix(1.00, 0.00, -0.00, -1.00, 655.5, 646.2)">a</text><text xml:space="preserve" font-family="SourceSansPro-Regular,Source Sans Pro" font-size="84.0" fill="#000000" transform="matrix(1.00, 0.00, -0.00, -1.00, 698.5, 646.2)">n</text><text xml:space="preserve" font-family="SourceSansPro-Regular,Source Sans Pro" font-size="84.0" fill="#000000" transform="matrix(1.00, 0.00, -0.00, -1.00, 744.4, 646.2)">s</text><text xml:space="preserve" font-family="SourceSansPro-Regular,Source Sans Pro" font-size="84.0" fill="#000000" transform="matrix(1.00, 0.00, -0.00, -1.00, 779.6, 646.2)">i</text><text xml:space="preserve" font-family="SourceSansPro-Regular,Source Sans Pro" font-size="84.0" fill="#000000" transform="matrix(1.00, 0.00, -0.00, -1.00, 800.3, 646.2)">t</text><text xml:space="preserve" font-family="SourceSansPro-Regular,Source Sans Pro" font-size="84.0" fill="#000000" transform="matrix(1.00, 0.00, -0.00, -1.00, 828.7, 646.2)">i</text><text xml:space="preserve" font-family="SourceSansPro-Regular,Source Sans Pro" font-size="84.0" fill="#000000" transform="matrix(1.00, 0.00, -0.00, -1.00, 849.3, 646.2)">o</text><text xml:space="preserve" font-family="SourceSansPro-Regular,Source Sans Pro" font-size="84.0" fill="#000000" transform="matrix(1.00, 0.00, -0.00, -1.00, 894.9, 646.2)">n</text><text xml:space="preserve" font-family="SourceSansPro-Regular,Source Sans Pro" font-size="84.0" fill="#000000" transform="matrix(1.00, 0.00, -0.00, -1.00, 940.8, 646.2)"> </text><text xml:space="preserve" font-family="SourceSansPro-Regular,Source Sans Pro" font-size="84.0" fill="#000000" transform="matrix(1.00, 0.00, -0.00, -1.00, 957.8, 646.2)">R</text><text xml:space="preserve" font-family="SourceSansPro-Regular,Source Sans Pro" font-size="84.0" fill="#000000" transform="matrix(1.00, 0.00, -0.00, -1.00, 1005.7, 646.2)">e</text><text xml:space="preserve" font-family="SourceSansPro-Regular,Source Sans Pro" font-size="84.0" fill="#000000" transform="matrix(1.00, 0.00, -0.00, -1.00, 1047.4, 646.2)">s</text><text xml:space="preserve" font-family="SourceSansPro-Regular,Source Sans Pro" font-size="84.0" fill="#000000" transform="matrix(1.00, 0.00, -0.00, -1.00, 1082.6, 646.2)">p</text><text xml:space="preserve" font-family="SourceSansPro-Regular,Source Sans Pro" font-size="84.0" fill="#000000" transform="matrix(1.00, 0.00, -0.00, -1.00, 1129.2, 646.2)">o</text><text xml:space="preserve" font-family="SourceSansPro-Regular,Source Sans Pro" font-size="84.0" fill="#000000" transform="matrix(1.00, 0.00, -0.00, -1.00, 1174.7, 646.2)">n</text><text xml:space="preserve" font-family="SourceSansPro-Regular,Source Sans Pro" font-size="84.0" fill="#000000" transform="matrix(1.00, 0.00, -0.00, -1.00, 1220.7, 646.2)">s</text><text xml:space="preserve" font-family="SourceSansPro-Regular,Source Sans Pro" font-size="84.0" fill="#000000" transform="matrix(1.00, 0.00, -0.00, -1.00, 1255.9, 646.2)">e</text><text xml:space="preserve" font-family="SourceSansPro-Regular,Source Sans Pro" font-size="84.0" fill="#000000" transform="matrix(1.00, 0.00, -0.00, -1.00, 1297.6, 646.2)">s</text><text xml:space="preserve" font-family="Courier-Bold,Courier" font-weight="bold" font-size="52.0" fill="#A6AAA8" transform="matrix(1.00, 0.00, -0.00, -1.00, 179.4, 509.3)">{</text><text xml:space="preserve" font-family="Courier-Bold,Courier" font-weight="bold" font-size="52.0" fill="#A6AAA8" transform="matrix(1.00, 0.00, -0.00, -1.00, 210.6, 509.3)">n</text><text xml:space="preserve" font-family="Courier-Bold,Courier" font-weight="bold" font-size="52.0" fill="#A6AAA8" transform="matrix(1.00, 0.00, -0.00, -1.00, 241.8, 509.3)">e</text><text xml:space="preserve" font-family="Courier-Bold,Courier" font-weight="bold" font-size="52.0" fill="#A6AAA8" transform="matrix(1.00, 0.00, -0.00, -1.00, 273.0, 509.3)">x</text><text xml:space="preserve" font-family="Courier-Bold,Courier" font-weight="bold" font-size="52.0" fill="#A6AAA8" transform="matrix(1.00, 0.00, -0.00, -1.00, 304.2, 509.3)">t</text><text xml:space="preserve" font-family="Courier-Bold,Courier" font-weight="bold" font-size="52.0" fill="#A6AAA8" transform="matrix(1.00, 0.00, -0.00, -1.00, 335.4, 509.3)">_</text><text xml:space="preserve" font-family="Courier-Bold,Courier" font-weight="bold" font-size="52.0" fill="#A6AAA8" transform="matrix(1.00, 0.00, -0.00, -1.00, 366.6, 509.3)">s</text><text xml:space="preserve" font-family="Courier-Bold,Courier" font-weight="bold" font-size="52.0" fill="#A6AAA8" transform="matrix(1.00, 0.00, -0.00, -1.00, 397.8, 509.3)">t</text><text xml:space="preserve" font-family="Courier-Bold,Courier" font-weight="bold" font-size="52.0" fill="#A6AAA8" transform="matrix(1.00, 0.00, -0.00, -1.00, 429.1, 509.3)">a</text><text xml:space="preserve" font-family="Courier-Bold,Courier" font-weight="bold" font-size="52.0" fill="#A6AAA8" transform="matrix(1.00, 0.00, -0.00, -1.00, 460.3, 509.3)">t</text><text xml:space="preserve" font-family="Courier-Bold,Courier" font-weight="bold" font-size="52.0" fill="#A6AAA8" transform="matrix(1.00, 0.00, -0.00, -1.00, 491.5, 509.3)">e</text><text xml:space="preserve" font-family="Courier-Bold,Courier" font-weight="bold" font-size="52.0" fill="#A6AAA8" transform="matrix(1.00, 0.00, -0.00, -1.00, 522.7, 509.3)">,</text><text xml:space="preserve" font-family="Courier-Bold,Courier" font-weight="bold" font-size="52.0" fill="#A6AAA8" transform="matrix(1.00, 0.00, -0.00, -1.00, 553.9, 509.3)">N</text><text xml:space="preserve" font-family="Courier-Bold,Courier" font-weight="bold" font-size="52.0" fill="#A6AAA8" transform="matrix(1.00, 0.00, -0.00, -1.00, 585.1, 509.3)">e</text><text xml:space="preserve" font-family="Courier-Bold,Courier" font-weight="bold" font-size="52.0" fill="#A6AAA8" transform="matrix(1.00, 0.00, -0.00, -1.00, 616.3, 509.3)">x</text><text xml:space="preserve" font-family="Courier-Bold,Courier" font-weight="bold" font-size="52.0" fill="#A6AAA8" transform="matrix(1.00, 0.00, -0.00, -1.00, 647.5, 509.3)">t</text><text xml:space="preserve" font-family="Courier-Bold,Courier" font-weight="bold" font-size="52.0" fill="#A6AAA8" transform="matrix(1.00, 0.00, -0.00, -1.00, 678.7, 509.3)">S</text><text xml:space="preserve" font-family="Courier-Bold,Courier" font-weight="bold" font-size="52.0" fill="#A6AAA8" transform="matrix(1.00, 0.00, -0.00, -1.00, 709.9, 509.3)">t</text><text xml:space="preserve" font-family="Courier-Bold,Courier" font-weight="bold" font-size="52.0" fill="#A6AAA8" transform="matrix(1.00, 0.00, -0.00, -1.00, 741.2, 509.3)">a</text><text xml:space="preserve" font-family="Courier-Bold,Courier" font-weight="bold" font-size="52.0" fill="#A6AAA8" transform="matrix(1.00, 0.00, -0.00, -1.00, 772.4, 509.3)">t</text><text xml:space="preserve" font-family="Courier-Bold,Courier" font-weight="bold" font-size="52.0" fill="#A6AAA8" transform="matrix(1.00, 0.00, -0.00, -1.00, 803.6, 509.3)">e</text><text xml:space="preserve" font-family="Courier-Bold,Courier" font-weight="bold" font-size="52.0" fill="#A6AAA8" transform="matrix(1.00, 0.00, -0.00, -1.00, 834.8, 509.3)">N</text><text xml:space="preserve" font-family="Courier-Bold,Courier" font-weight="bold" font-size="52.0" fill="#A6AAA8" transform="matrix(1.00, 0.00, -0.00, -1.00, 866.0, 509.3)">a</text><text xml:space="preserve" font-family="Courier-Bold,Courier" font-weight="bold" font-size="52.0" fill="#A6AAA8" transform="matrix(1.00, 0.00, -0.00, -1.00, 897.2, 509.3)">m</text><text xml:space="preserve" font-family="Courier-Bold,Courier" font-weight="bold" font-size="52.0" fill="#A6AAA8" transform="matrix(1.00, 0.00, -0.00, -1.00, 928.4, 509.3)">e</text><text xml:space="preserve" font-family="Courier-Bold,Courier" font-weight="bold" font-size="52.0" fill="#A6AAA8" transform="matrix(1.00, 0.00, -0.00, -1.00, 959.6, 509.3)">,</text><text xml:space="preserve" font-family="Courier-Bold,Courier" font-weight="bold" font-size="52.0" fill="#A6AAA8" transform="matrix(1.00, 0.00, -0.00, -1.00, 990.8, 509.3)">N</text><text xml:space="preserve" font-family="Courier-Bold,Courier" font-weight="bold" font-size="52.0" fill="#A6AAA8" transform="matrix(1.00, 0.00, -0.00, -1.00, 1022.1, 509.3)">e</text><text xml:space="preserve" font-family="Courier-Bold,Courier" font-weight="bold" font-size="52.0" fill="#A6AAA8" transform="matrix(1.00, 0.00, -0.00, -1.00, 1053.3, 509.3)">w</text><text xml:space="preserve" font-family="Courier-Bold,Courier" font-weight="bold" font-size="52.0" fill="#A6AAA8" transform="matrix(1.00, 0.00, -0.00, -1.00, 1084.5, 509.3)">S</text><text xml:space="preserve" font-family="Courier-Bold,Courier" font-weight="bold" font-size="52.0" fill="#A6AAA8" transform="matrix(1.00, 0.00, -0.00, -1.00, 1115.7, 509.3)">t</text><text xml:space="preserve" font-family="Courier-Bold,Courier" font-weight="bold" font-size="52.0" fill="#A6AAA8" transform="matrix(1.00, 0.00, -0.00, -1.00, 1146.9, 509.3)">a</text><text xml:space="preserve" font-family="Courier-Bold,Courier" font-weight="bold" font-size="52.0" fill="#A6AAA8" transform="matrix(1.00, 0.00, -0.00, -1.00, 1178.1, 509.3)">t</text><text xml:space="preserve" font-family="Courier-Bold,Courier" font-weight="bold" font-size="52.0" fill="#A6AAA8" transform="matrix(1.00, 0.00, -0.00, -1.00, 1209.3, 509.3)">e</text><text xml:space="preserve" font-family="Courier-Bold,Courier" font-weight="bold" font-size="52.0" fill="#A6AAA8" transform="matrix(1.00, 0.00, -0.00, -1.00, 1240.5, 509.3)">D</text><text xml:space="preserve" font-family="Courier-Bold,Courier" font-weight="bold" font-size="52.0" fill="#A6AAA8" transform="matrix(1.00, 0.00, -0.00, -1.00, 1271.7, 509.3)">a</text><text xml:space="preserve" font-family="Courier-Bold,Courier" font-weight="bold" font-size="52.0" fill="#A6AAA8" transform="matrix(1.00, 0.00, -0.00, -1.00, 1302.9, 509.3)">t</text><text xml:space="preserve" font-family="Courier-Bold,Courier" font-weight="bold" font-size="52.0" fill="#A6AAA8" transform="matrix(1.00, 0.00, -0.00, -1.00, 1334.2, 509.3)">a</text><text xml:space="preserve" font-family="Courier-Bold,Courier" font-weight="bold" font-size="52.0" fill="#A6AAA8" transform="matrix(1.00, 0.00, -0.00, -1.00, 1365.4, 509.3)">}</text><text xml:space="preserve" font-family="Courier-Bold,Courier" font-weight="bold" font-size="52.0" fill="#000000" transform="matrix(1.00, 0.00, -0.00, -1.00, 179.4, 385.3)">{</text><text xml:space="preserve" font-family="Courier-Bold,Courier" font-weight="bold" font-size="52.0" fill="#000000" transform="matrix(1.00, 0.00, -0.00, -1.00, 210.6, 385.3)">n</text><text xml:space="preserve" font-family="Courier-Bold,Courier" font-weight="bold" font-size="52.0" fill="#000000" transform="matrix(1.00, 0.00, -0.00, -1.00, 241.8, 385.3)">e</text><text xml:space="preserve" font-family="Courier-Bold,Courier" font-weight="bold" font-size="52.0" fill="#000000" transform="matrix(1.00, 0.00, -0.00, -1.00, 273.0, 385.3)">x</text><text xml:space="preserve" font-family="Courier-Bold,Courier" font-weight="bold" font-size="52.0" fill="#000000" transform="matrix(1.00, 0.00, -0.00, -1.00, 304.2, 385.3)">t</text><text xml:space="preserve" font-family="Courier-Bold,Courier" font-weight="bold" font-size="52.0" fill="#000000" transform="matrix(1.00, 0.00, -0.00, -1.00, 335.4, 385.3)">_</text><text xml:space="preserve" font-family="Courier-Bold,Courier" font-weight="bold" font-size="52.0" fill="#000000" transform="matrix(1.00, 0.00, -0.00, -1.00, 366.6, 385.3)">s</text><text xml:space="preserve" font-family="Courier-Bold,Courier" font-weight="bold" font-size="52.0" fill="#000000" transform="matrix(1.00, 0.00, -0.00, -1.00, 397.8, 385.3)">t</text><text xml:space="preserve" font-family="Courier-Bold,Courier" font-weight="bold" font-size="52.0" fill="#000000" transform="matrix(1.00, 0.00, -0.00, -1.00, 429.1, 385.3)">a</text><text xml:space="preserve" font-family="Courier-Bold,Courier" font-weight="bold" font-size="52.0" fill="#000000" transform="matrix(1.00, 0.00, -0.00, -1.00, 460.3, 385.3)">t</text><text xml:space="preserve" font-family="Courier-Bold,Courier" font-weight="bold" font-size="52.0" fill="#000000" transform="matrix(1.00, 0.00, -0.00, -1.00, 491.5, 385.3)">e</text><text xml:space="preserve" font-family="Courier-Bold,Courier" font-weight="bold" font-size="52.0" fill="#000000" transform="matrix(1.00, 0.00, -0.00, -1.00, 522.7, 385.3)">,</text><text xml:space="preserve" font-family="Courier-Bold,Courier" font-weight="bold" font-size="52.0" fill="#EAB600" transform="matrix(1.00, 0.00, -0.00, -1.00, 553.8, 385.3)">N</text><text xml:space="preserve" font-family="Courier-Bold,Courier" font-weight="bold" font-size="52.0" fill="#EAB600" transform="matrix(1.00, 0.00, -0.00, -1.00, 585.0, 385.3)">e</text><text xml:space="preserve" font-family="Courier-Bold,Courier" font-weight="bold" font-size="52.0" fill="#EAB600" transform="matrix(1.00, 0.00, -0.00, -1.00, 616.3, 385.3)">x</text><text xml:space="preserve" font-family="Courier-Bold,Courier" font-weight="bold" font-size="52.0" fill="#EAB600" transform="matrix(1.00, 0.00, -0.00, -1.00, 647.5, 385.3)">t</text><text xml:space="preserve" font-family="Courier-Bold,Courier" font-weight="bold" font-size="52.0" fill="#EAB600" transform="matrix(1.00, 0.00, -0.00, -1.00, 678.7, 385.3)">S</text><text xml:space="preserve" font-family="Courier-Bold,Courier" font-weight="bold" font-size="52.0" fill="#EAB600" transform="matrix(1.00, 0.00, -0.00, -1.00, 709.9, 385.3)">t</text><text xml:space="preserve" font-family="Courier-Bold,Courier" font-weight="bold" font-size="52.0" fill="#EAB600" transform="matrix(1.00, 0.00, -0.00, -1.00, 741.1, 385.3)">a</text><text xml:space="preserve" font-family="Courier-Bold,Courier" font-weight="bold" font-size="52.0" fill="#EAB600" transform="matrix(1.00, 0.00, -0.00, -1.00, 772.3, 385.3)">t</text><text xml:space="preserve" font-family="Courier-Bold,Courier" font-weight="bold" font-size="52.0" fill="#EAB600" transform="matrix(1.00, 0.00, -0.00, -1.00, 803.5, 385.3)">e</text><text xml:space="preserve" font-family="Courier-Bold,Courier" font-weight="bold" font-size="52.0" fill="#EAB600" transform="matrix(1.00, 0.00, -0.00, -1.00, 834.7, 385.3)">N</text><text xml:space="preserve" font-family="Courier-Bold,Courier" font-weight="bold" font-size="52.0" fill="#EAB600" transform="matrix(1.00, 0.00, -0.00, -1.00, 865.9, 385.3)">a</text><text xml:space="preserve" font-family="Courier-Bold,Courier" font-weight="bold" font-size="52.0" fill="#EAB600" transform="matrix(1.00, 0.00, -0.00, -1.00, 897.1, 385.3)">m</text><text xml:space="preserve" font-family="Courier-Bold,Courier" font-weight="bold" font-size="52.0" fill="#EAB600" transform="matrix(1.00, 0.00, -0.00, -1.00, 928.4, 385.3)">e</text><text xml:space="preserve" font-family="Courier-Bold,Courier" font-weight="bold" font-size="52.0" fill="#000000" transform="matrix(1.00, 0.00, -0.00, -1.00, 959.5, 385.3)">,</text><text xml:space="preserve" font-family="Courier-Bold,Courier" font-weight="bold" font-size="52.0" fill="#EAB600" transform="matrix(1.00, 0.00, -0.00, -1.00, 990.7, 385.3)">N</text><text xml:space="preserve" font-family="Courier-Bold,Courier" font-weight="bold" font-size="52.0" fill="#EAB600" transform="matrix(1.00, 0.00, -0.00, -1.00, 1021.9, 385.3)">e</text><text xml:space="preserve" font-family="Courier-Bold,Courier" font-weight="bold" font-size="52.0" fill="#EAB600" transform="matrix(1.00, 0.00, -0.00, -1.00, 1053.1, 385.3)">w</text><text xml:space="preserve" font-family="Courier-Bold,Courier" font-weight="bold" font-size="52.0" fill="#EAB600" transform="matrix(1.00, 0.00, -0.00, -1.00, 1084.3, 385.3)">S</text><text xml:space="preserve" font-family="Courier-Bold,Courier" font-weight="bold" font-size="52.0" fill="#EAB600" transform="matrix(1.00, 0.00, -0.00, -1.00, 1115.5, 385.3)">t</text><text xml:space="preserve" font-family="Courier-Bold,Courier" font-weight="bold" font-size="52.0" fill="#EAB600" transform="matrix(1.00, 0.00, -0.00, -1.00, 1146.8, 385.3)">a</text><text xml:space="preserve" font-family="Courier-Bold,Courier" font-weight="bold" font-size="52.0" fill="#EAB600" transform="matrix(1.00, 0.00, -0.00, -1.00, 1178.0, 385.3)">t</text><text xml:space="preserve" font-family="Courier-Bold,Courier" font-weight="bold" font-size="52.0" fill="#EAB600" transform="matrix(1.00, 0.00, -0.00, -1.00, 1209.2, 385.3)">e</text><text xml:space="preserve" font-family="Courier-Bold,Courier" font-weight="bold" font-size="52.0" fill="#EAB600" transform="matrix(1.00, 0.00, -0.00, -1.00, 1240.4, 385.3)">D</text><text xml:space="preserve" font-family="Courier-Bold,Courier" font-weight="bold" font-size="52.0" fill="#EAB600" transform="matrix(1.00, 0.00, -0.00, -1.00, 1271.6, 385.3)">a</text><text xml:space="preserve" font-family="Courier-Bold,Courier" font-weight="bold" font-size="52.0" fill="#EAB600" transform="matrix(1.00, 0.00, -0.00, -1.00, 1302.8, 385.3)">t</text><text xml:space="preserve" font-family="Courier-Bold,Courier" font-weight="bold" font-size="52.0" fill="#EAB600" transform="matrix(1.00, 0.00, -0.00, -1.00, 1334.0, 385.3)">a</text><text xml:space="preserve" font-family="Courier-Bold,Courier" font-weight="bold" font-size="52.0" fill="#000000" transform="matrix(1.00, 0.00, -0.00, -1.00, 1365.2, 385.3)">,</text><text xml:space="preserve" font-family="Courier-Bold,Courier" font-weight="bold" font-size="52.0" fill="#EAB600" transform="matrix(1.00, 0.00, -0.00, -1.00, 1396.4, 385.3)">T</text><text xml:space="preserve" font-family="Courier-Bold,Courier" font-weight="bold" font-size="52.0" fill="#EAB600" transform="matrix(1.00, 0.00, -0.00, -1.00, 1427.6, 385.3)">i</text><text xml:space="preserve" font-family="Courier-Bold,Courier" font-weight="bold" font-size="52.0" fill="#EAB600" transform="matrix(1.00, 0.00, -0.00, -1.00, 1458.8, 385.3)">m</text><text xml:space="preserve" font-family="Courier-Bold,Courier" font-weight="bold" font-size="52.0" fill="#EAB600" transform="matrix(1.00, 0.00, -0.00, -1.00, 1490.0, 385.3)">e</text><text xml:space="preserve" font-family="Courier-Bold,Courier" font-weight="bold" font-size="52.0" fill="#EAB600" transform="matrix(1.00, 0.00, -0.00, -1.00, 1521.2, 385.3)">o</text><text xml:space="preserve" font-family="Courier-Bold,Courier" font-weight="bold" font-size="52.0" fill="#EAB600" transform="matrix(1.00, 0.00, -0.00, -1.00, 1552.4, 385.3)">u</text><text xml:space="preserve" font-family="Courier-Bold,Courier" font-weight="bold" font-size="52.0" fill="#EAB600" transform="matrix(1.00, 0.00, -0.00, -1.00, 1583.6, 385.3)">t</text><text xml:space="preserve" font-family="Courier-Bold,Courier" font-weight="bold" font-size="52.0" fill="#000000" transform="matrix(1.00, 0.00, -0.00, -1.00, 1614.8, 385.3)">}</text><text xml:space="preserve" font-family="Courier-Bold,Courier" font-weight="bold" font-size="52.0" fill="#A6AAA8" transform="matrix(1.00, 0.00, -0.00, -1.00, 179.4, 261.3)">{</text><text xml:space="preserve" font-family="Courier-Bold,Courier" font-weight="bold" font-size="52.0" fill="#A6AAA8" transform="matrix(1.00, 0.00, -0.00, -1.00, 210.6, 261.3)">n</text><text xml:space="preserve" font-family="Courier-Bold,Courier" font-weight="bold" font-size="52.0" fill="#A6AAA8" transform="matrix(1.00, 0.00, -0.00, -1.00, 241.8, 261.3)">e</text><text xml:space="preserve" font-family="Courier-Bold,Courier" font-weight="bold" font-size="52.0" fill="#A6AAA8" transform="matrix(1.00, 0.00, -0.00, -1.00, 273.0, 261.3)">x</text><text xml:space="preserve" font-family="Courier-Bold,Courier" font-weight="bold" font-size="52.0" fill="#A6AAA8" transform="matrix(1.00, 0.00, -0.00, -1.00, 304.2, 261.3)">t</text><text xml:space="preserve" font-family="Courier-Bold,Courier" font-weight="bold" font-size="52.0" fill="#A6AAA8" transform="matrix(1.00, 0.00, -0.00, -1.00, 335.4, 261.3)">_</text><text xml:space="preserve" font-family="Courier-Bold,Courier" font-weight="bold" font-size="52.0" fill="#A6AAA8" transform="matrix(1.00, 0.00, -0.00, -1.00, 366.6, 261.3)">s</text><text xml:space="preserve" font-family="Courier-Bold,Courier" font-weight="bold" font-size="52.0" fill="#A6AAA8" transform="matrix(1.00, 0.00, -0.00, -1.00, 397.8, 261.3)">t</text><text xml:space="preserve" font-family="Courier-Bold,Courier" font-weight="bold" font-size="52.0" fill="#A6AAA8" transform="matrix(1.00, 0.00, -0.00, -1.00, 429.1, 261.3)">a</text><text xml:space="preserve" font-family="Courier-Bold,Courier" font-weight="bold" font-size="52.0" fill="#A6AAA8" transform="matrix(1.00, 0.00, -0.00, -1.00, 460.3, 261.3)">t</text><text xml:space="preserve" font-family="Courier-Bold,Courier" font-weight="bold" font-size="52.0" fill="#A6AAA8" transform="matrix(1.00, 0.00, -0.00, -1.00, 491.5, 261.3)">e</text><text xml:space="preserve" font-family="Courier-Bold,Courier" font-weight="bold" font-size="52.0" fill="#A6AAA8" transform="matrix(1.00, 0.00, -0.00, -1.00, 522.7, 261.3)">,</text><text xml:space="preserve" font-family="Courier-Bold,Courier" font-weight="bold" font-size="52.0" fill="#A6AAA8" transform="matrix(1.00, 0.00, -0.00, -1.00, 553.9, 261.3)">N</text><text xml:space="preserve" font-family="Courier-Bold,Courier" font-weight="bold" font-size="52.0" fill="#A6AAA8" transform="matrix(1.00, 0.00, -0.00, -1.00, 585.1, 261.3)">e</text><text xml:space="preserve" font-family="Courier-Bold,Courier" font-weight="bold" font-size="52.0" fill="#A6AAA8" transform="matrix(1.00, 0.00, -0.00, -1.00, 616.3, 261.3)">x</text><text xml:space="preserve" font-family="Courier-Bold,Courier" font-weight="bold" font-size="52.0" fill="#A6AAA8" transform="matrix(1.00, 0.00, -0.00, -1.00, 647.5, 261.3)">t</text><text xml:space="preserve" font-family="Courier-Bold,Courier" font-weight="bold" font-size="52.0" fill="#A6AAA8" transform="matrix(1.00, 0.00, -0.00, -1.00, 678.7, 261.3)">S</text><text xml:space="preserve" font-family="Courier-Bold,Courier" font-weight="bold" font-size="52.0" fill="#A6AAA8" transform="matrix(1.00, 0.00, -0.00, -1.00, 709.9, 261.3)">t</text><text xml:space="preserve" font-family="Courier-Bold,Courier" font-weight="bold" font-size="52.0" fill="#A6AAA8" transform="matrix(1.00, 0.00, -0.00, -1.00, 741.2, 261.3)">a</text><text xml:space="preserve" font-family="Courier-Bold,Courier" font-weight="bold" font-size="52.0" fill="#A6AAA8" transform="matrix(1.00, 0.00, -0.00, -1.00, 772.4, 261.3)">t</text><text xml:space="preserve" font-family="Courier-Bold,Courier" font-weight="bold" font-size="52.0" fill="#A6AAA8" transform="matrix(1.00, 0.00, -0.00, -1.00, 803.6, 261.3)">e</text><text xml:space="preserve" font-family="Courier-Bold,Courier" font-weight="bold" font-size="52.0" fill="#A6AAA8" transform="matrix(1.00, 0.00, -0.00, -1.00, 834.8, 261.3)">N</text><text xml:space="preserve" font-family="Courier-Bold,Courier" font-weight="bold" font-size="52.0" fill="#A6AAA8" transform="matrix(1.00, 0.00, -0.00, -1.00, 866.0, 261.3)">a</text><text xml:space="preserve" font-family="Courier-Bold,Courier" font-weight="bold" font-size="52.0" fill="#A6AAA8" transform="matrix(1.00, 0.00, -0.00, -1.00, 897.2, 261.3)">m</text><text xml:space="preserve" font-family="Courier-Bold,Courier" font-weight="bold" font-size="52.0" fill="#A6AAA8" transform="matrix(1.00, 0.00, -0.00, -1.00, 928.4, 261.3)">e</text><text xml:space="preserve" font-family="Courier-Bold,Courier" font-weight="bold" font-size="52.0" fill="#A6AAA8" transform="matrix(1.00, 0.00, -0.00, -1.00, 959.6, 261.3)">,</text><text xml:space="preserve" font-family="Courier-Bold,Courier" font-weight="bold" font-size="52.0" fill="#A6AAA8" transform="matrix(1.00, 0.00, -0.00, -1.00, 990.8, 261.3)">N</text><text xml:space="preserve" font-family="Courier-Bold,Courier" font-weight="bold" font-size="52.0" fill="#A6AAA8" transform="matrix(1.00, 0.00, -0.00, -1.00, 1022.1, 261.3)">e</text><text xml:space="preserve" font-family="Courier-Bold,Courier" font-weight="bold" font-size="52.0" fill="#A6AAA8" transform="matrix(1.00, 0.00, -0.00, -1.00, 1053.3, 261.3)">w</text><text xml:space="preserve" font-family="Courier-Bold,Courier" font-weight="bold" font-size="52.0" fill="#A6AAA8" transform="matrix(1.00, 0.00, -0.00, -1.00, 1084.5, 261.3)">S</text><text xml:space="preserve" font-family="Courier-Bold,Courier" font-weight="bold" font-size="52.0" fill="#A6AAA8" transform="matrix(1.00, 0.00, -0.00, -1.00, 1115.7, 261.3)">t</text><text xml:space="preserve" font-family="Courier-Bold,Courier" font-weight="bold" font-size="52.0" fill="#A6AAA8" transform="matrix(1.00, 0.00, -0.00, -1.00, 1146.9, 261.3)">a</text><text xml:space="preserve" font-family="Courier-Bold,Courier" font-weight="bold" font-size="52.0" fill="#A6AAA8" transform="matrix(1.00, 0.00, -0.00, -1.00, 1178.1, 261.3)">t</text><text xml:space="preserve" font-family="Courier-Bold,Courier" font-weight="bold" font-size="52.0" fill="#A6AAA8" transform="matrix(1.00, 0.00, -0.00, -1.00, 1209.3, 261.3)">e</text><text xml:space="preserve" font-family="Courier-Bold,Courier" font-weight="bold" font-size="52.0" fill="#A6AAA8" transform="matrix(1.00, 0.00, -0.00, -1.00, 1240.5, 261.3)">D</text><text xml:space="preserve" font-family="Courier-Bold,Courier" font-weight="bold" font-size="52.0" fill="#A6AAA8" transform="matrix(1.00, 0.00, -0.00, -1.00, 1271.7, 261.3)">a</text><text xml:space="preserve" font-family="Courier-Bold,Courier" font-weight="bold" font-size="52.0" fill="#A6AAA8" transform="matrix(1.00, 0.00, -0.00, -1.00, 1302.9, 261.3)">t</text><text xml:space="preserve" font-family="Courier-Bold,Courier" font-weight="bold" font-size="52.0" fill="#A6AAA8" transform="matrix(1.00, 0.00, -0.00, -1.00, 1334.2, 261.3)">a</text><text xml:space="preserve" font-family="Courier-Bold,Courier" font-weight="bold" font-size="52.0" fill="#A6AAA8" transform="matrix(1.00, 0.00, -0.00, -1.00, 1365.4, 261.3)">,</text><text xml:space="preserve" font-family="Courier-Bold,Courier" font-weight="bold" font-size="52.0" fill="#A6AAA8" transform="matrix(1.00, 0.00, -0.00, -1.00, 1396.6, 261.3)">h</text><text xml:space="preserve" font-family="Courier-Bold,Courier" font-weight="bold" font-size="52.0" fill="#A6AAA8" transform="matrix(1.00, 0.00, -0.00, -1.00, 1427.8, 261.3)">i</text><text xml:space="preserve" font-family="Courier-Bold,Courier" font-weight="bold" font-size="52.0" fill="#A6AAA8" transform="matrix(1.00, 0.00, -0.00, -1.00, 1459.0, 261.3)">b</text><text xml:space="preserve" font-family="Courier-Bold,Courier" font-weight="bold" font-size="52.0" fill="#A6AAA8" transform="matrix(1.00, 0.00, -0.00, -1.00, 1490.2, 261.3)">e</text><text xml:space="preserve" font-family="Courier-Bold,Courier" font-weight="bold" font-size="52.0" fill="#A6AAA8" transform="matrix(1.00, 0.00, -0.00, -1.00, 1521.4, 261.3)">r</text><text xml:space="preserve" font-family="Courier-Bold,Courier" font-weight="bold" font-size="52.0" fill="#A6AAA8" transform="matrix(1.00, 0.00, -0.00, -1.00, 1552.6, 261.3)">n</text><text xml:space="preserve" font-family="Courier-Bold,Courier" font-weight="bold" font-size="52.0" fill="#A6AAA8" transform="matrix(1.00, 0.00, -0.00, -1.00, 1583.8, 261.3)">a</text><text xml:space="preserve" font-family="Courier-Bold,Courier" font-weight="bold" font-size="52.0" fill="#A6AAA8" transform="matrix(1.00, 0.00, -0.00, -1.00, 1615.0, 261.3)">t</text><text xml:space="preserve" font-family="Courier-Bold,Courier" font-weight="bold" font-size="52.0" fill="#A6AAA8" transform="matrix(1.00, 0.00, -0.00, -1.00, 1646.3, 261.3)">e</text><text xml:space="preserve" font-family="Courier-Bold,Courier" font-weight="bold" font-size="52.0" fill="#A6AAA8" transform="matrix(1.00, 0.00, -0.00, -1.00, 1677.5, 261.3)">}</text><text xml:space="preserve" font-family="Courier-Bold,Courier" font-weight="bold" font-size="52.0" fill="#000000" transform="matrix(1.00, 0.00, -0.00, -1.00, 179.4, 137.3)">{</text><text xml:space="preserve" font-family="Courier-Bold,Courier" font-weight="bold" font-size="52.0" fill="#000000" transform="matrix(1.00, 0.00, -0.00, -1.00, 210.6, 137.3)">s</text><text xml:space="preserve" font-family="Courier-Bold,Courier" font-weight="bold" font-size="52.0" fill="#000000" transform="matrix(1.00, 0.00, -0.00, -1.00, 241.8, 137.3)">t</text><text xml:space="preserve" font-family="Courier-Bold,Courier" font-weight="bold" font-size="52.0" fill="#000000" transform="matrix(1.00, 0.00, -0.00, -1.00, 273.0, 137.3)">o</text><text xml:space="preserve" font-family="Courier-Bold,Courier" font-weight="bold" font-size="52.0" fill="#000000" transform="matrix(1.00, 0.00, -0.00, -1.00, 304.2, 137.3)">p</text><text xml:space="preserve" font-family="Courier-Bold,Courier" font-weight="bold" font-size="52.0" fill="#000000" transform="matrix(1.00, 0.00, -0.00, -1.00, 335.4, 137.3)">,</text><text xml:space="preserve" font-family="Courier-Bold,Courier" font-weight="bold" font-size="52.0" fill="#EAB600" transform="matrix(1.00, 0.00, -0.00, -1.00, 366.6, 137.3)">R</text><text xml:space="preserve" font-family="Courier-Bold,Courier" font-weight="bold" font-size="52.0" fill="#EAB600" transform="matrix(1.00, 0.00, -0.00, -1.00, 397.8, 137.3)">e</text><text xml:space="preserve" font-family="Courier-Bold,Courier" font-weight="bold" font-size="52.0" fill="#EAB600" transform="matrix(1.00, 0.00, -0.00, -1.00, 429.0, 137.3)">a</text><text xml:space="preserve" font-family="Courier-Bold,Courier" font-weight="bold" font-size="52.0" fill="#EAB600" transform="matrix(1.00, 0.00, -0.00, -1.00, 460.2, 137.3)">s</text><text xml:space="preserve" font-family="Courier-Bold,Courier" font-weight="bold" font-size="52.0" fill="#EAB600" transform="matrix(1.00, 0.00, -0.00, -1.00, 491.4, 137.3)">o</text><text xml:space="preserve" font-family="Courier-Bold,Courier" font-weight="bold" font-size="52.0" fill="#EAB600" transform="matrix(1.00, 0.00, -0.00, -1.00, 522.7, 137.3)">n</text><text xml:space="preserve" font-family="Courier-Bold,Courier" font-weight="bold" font-size="52.0" fill="#000000" transform="matrix(1.00, 0.00, -0.00, -1.00, 553.8, 137.3)">,</text><text xml:space="preserve" font-family="Courier-Bold,Courier" font-weight="bold" font-size="52.0" fill="#EAB600" transform="matrix(1.00, 0.00, -0.00, -1.00, 585.0, 137.3)">N</text><text xml:space="preserve" font-family="Courier-Bold,Courier" font-weight="bold" font-size="52.0" fill="#EAB600" transform="matrix(1.00, 0.00, -0.00, -1.00, 616.2, 137.3)">e</text><text xml:space="preserve" font-family="Courier-Bold,Courier" font-weight="bold" font-size="52.0" fill="#EAB600" transform="matrix(1.00, 0.00, -0.00, -1.00, 647.5, 137.3)">w</text><text xml:space="preserve" font-family="Courier-Bold,Courier" font-weight="bold" font-size="52.0" fill="#EAB600" transform="matrix(1.00, 0.00, -0.00, -1.00, 678.7, 137.3)">S</text><text xml:space="preserve" font-family="Courier-Bold,Courier" font-weight="bold" font-size="52.0" fill="#EAB600" transform="matrix(1.00, 0.00, -0.00, -1.00, 709.9, 137.3)">t</text><text xml:space="preserve" font-family="Courier-Bold,Courier" font-weight="bold" font-size="52.0" fill="#EAB600" transform="matrix(1.00, 0.00, -0.00, -1.00, 741.1, 137.3)">a</text><text xml:space="preserve" font-family="Courier-Bold,Courier" font-weight="bold" font-size="52.0" fill="#EAB600" transform="matrix(1.00, 0.00, -0.00, -1.00, 772.3, 137.3)">t</text><text xml:space="preserve" font-family="Courier-Bold,Courier" font-weight="bold" font-size="52.0" fill="#EAB600" transform="matrix(1.00, 0.00, -0.00, -1.00, 803.5, 137.3)">e</text><text xml:space="preserve" font-family="Courier-Bold,Courier" font-weight="bold" font-size="52.0" fill="#EAB600" transform="matrix(1.00, 0.00, -0.00, -1.00, 834.7, 137.3)">D</text><text xml:space="preserve" font-family="Courier-Bold,Courier" font-weight="bold" font-size="52.0" fill="#EAB600" transform="matrix(1.00, 0.00, -0.00, -1.00, 865.9, 137.3)">a</text><text xml:space="preserve" font-family="Courier-Bold,Courier" font-weight="bold" font-size="52.0" fill="#EAB600" transform="matrix(1.00, 0.00, -0.00, -1.00, 897.1, 137.3)">t</text><text xml:space="preserve" font-family="Courier-Bold,Courier" font-weight="bold" font-size="52.0" fill="#EAB600" transform="matrix(1.00, 0.00, -0.00, -1.00, 928.4, 137.3)">a</text><text xml:space="preserve" font-family="Courier-Bold,Courier" font-weight="bold" font-size="52.0" fill="#000000" transform="matrix(1.00, 0.00, -0.00, -1.00, 959.5, 137.3)">}</text></g></svg>