<?xml version="1.0" encoding="UTF-8" standalone="no"?><svg xmlns="http://www.w3.org/2000/svg" xmlns:xlink="http://www.w3.org/1999/xlink" clip-rule="evenodd" stroke-miterlimit="10" viewBox="0 0 1532 420"><desc>SVG generated by Keynote</desc><defs></defs><g transform="matrix(1.00, 0.00, -0.00, -1.00, 0.0, 420.0)"><text xml:space="preserve" font-family="Courier-Bold,Courier" font-weight="bold" font-size="52.0" fill="#000000" transform="matrix(1.00, 0.00, -0.00, -1.00, 0.4, 384.3)">{</text><text xml:space="preserve" font-family="Courier-Bold,Courier" font-weight="bold" font-size="52.0" fill="#000000" transform="matrix(1.00, 0.00, -0.00, -1.00, 31.6, 384.3)">n</text><text xml:space="preserve" font-family="Courier-Bold,Courier" font-weight="bold" font-size="52.0" fill="#000000" transform="matrix(1.00, 0.00, -0.00, -1.00, 62.8, 384.3)">e</text><text xml:space="preserve" font-family="Courier-Bold,Courier" font-weight="bold" font-size="52.0" fill="#000000" transform="matrix(1.00, 0.00, -0.00, -1.00, 94.0, 384.3)">x</text><text xml:space="preserve" font-family="Courier-Bold,Courier" font-weight="bold" font-size="52.0" fill="#000000" transform="matrix(1.00, 0.00, -0.00, -1.00, 125.2, 384.3)">t</text><text xml:space="preserve" font-family="Courier-Bold,Courier" font-weight="bold" font-size="52.0" fill="#000000" transform="matrix(1.00, 0.00, -0.00, -1.00, 156.4, 384.3)">_</text><text xml:space="preserve" font-family="Courier-Bold,Courier" font-weight="bold" font-size="52.0" fill="#000000" transform="matrix(1.00, 0.00, -0.00, -1.00, 187.6, 384.3)">s</text><text xml:space="preserve" font-family="Courier-Bold,Courier" font-weight="bold" font-size="52.0" fill="#000000" transform="matrix(1.00, 0.00, -0.00, -1.00, 218.8, 384.3)">t</text><text xml:space="preserve" font-family="Courier-Bold,Courier" font-weight="bold" font-size="52.0" fill="#000000" transform="matrix(1.00, 0.00, -0.00, -1.00, 250.1, 384.3)">a</text><text xml:space="preserve" font-family="Courier-Bold,Courier" font-weight="bold" font-size="52.0" fill="#000000" transform="matrix(1.00, 0.00, -0.00, -1.00, 281.3, 384.3)">t</text><text xml:space="preserve" font-family="Courier-Bold,Courier" font-weight="bold" font-size="52.0" fill="#000000" transform="matrix(1.00, 0.00, -0.00, -1.00, 312.5, 384.3)">e</text><text xml:space="preserve" font-family="Courier-Bold,Courier" font-weight="bold" font-size="52.0" fill="#000000" transform="matrix(1.00, 0.00, -0.00, -1.00, 343.7, 384.3)">,</text><text xml:space="preserve" font-family="Courier-Bold,Courier" font-weight="bold" font-size="52.0" fill="#EAB600" transform="matrix(1.00, 0.00, -0.00, -1.00, 374.8, 384.3)">N</text><text xml:space="preserve" font-family="Courier-Bold,Courier" font-weight="bold" font-size="52.0" fill="#EAB600" transform="matrix(1.00, 0.00, -0.00, -1.00, 406.0, 384.3)">e</text><text xml:space="preserve" font-family="Courier-Bold,Courier" font-weight="bold" font-size="52.0" fill="#EAB600" transform="matrix(1.00, 0.00, -0.00, -1.00, 437.3, 384.3)">x</text><text xml:space="preserve" font-family="Courier-Bold,Courier" font-weight="bold" font-size="52.0" fill="#EAB600" transform="matrix(1.00, 0.00, -0.00, -1.00, 468.5, 384.3)">t</text><text xml:space="preserve" font-family="Courier-Bold,Courier" font-weight="bold" font-size="52.0" fill="#EAB600" transform="matrix(1.00, 0.00, -0.00, -1.00, 499.7, 384.3)">S</text><text xml:space="preserve" font-family="Courier-Bold,Courier" font-weight="bold" font-size="52.0" fill="#EAB600" transform="matrix(1.00, 0.00, -0.00, -1.00, 530.9, 384.3)">t</text><text xml:space="preserve" font-family="Courier-Bold,Courier" font-weight="bold" font-size="52.0" fill="#EAB600" transform="matrix(1.00, 0.00, -0.00, -1.00, 562.1, 384.3)">a</text><text xml:space="preserve" font-family="Courier-Bold,Courier" font-weight="bold" font-size="52.0" fill="#EAB600" transform="matrix(1.00, 0.00, -0.00, -1.00, 593.3, 384.3)">t</text><text xml:space="preserve" font-family="Courier-Bold,Courier" font-weight="bold" font-size="52.0" fill="#EAB600" transform="matrix(1.00, 0.00, -0.00, -1.00, 624.5, 384.3)">e</text><text xml:space="preserve" font-family="Courier-Bold,Courier" font-weight="bold" font-size="52.0" fill="#EAB600" transform="matrix(1.00, 0.00, -0.00, -1.00, 655.7, 384.3)">N</text><text xml:space="preserve" font-family="Courier-Bold,Courier" font-weight="bold" font-size="52.0" fill="#EAB600" transform="matrix(1.00, 0.00, -0.00, -1.00, 686.9, 384.3)">a</text><text xml:space="preserve" font-family="Courier-Bold,Courier" font-weight="bold" font-size="52.0" fill="#EAB600" transform="matrix(1.00, 0.00, -0.00, -1.00, 718.1, 384.3)">m</text><text xml:space="preserve" font-family="Courier-Bold,Courier" font-weight="bold" font-size="52.0" fill="#EAB600" transform="matrix(1.00, 0.00, -0.00, -1.00, 749.4, 384.3)">e</text><text xml:space="preserve" font-family="Courier-Bold,Courier" font-weight="bold" font-size="52.0" fill="#000000" transform="matrix(1.00, 0.00, -0.00, -1.00, 780.5, 384.3)">,</text><text xml:space="preserve" font-family="Courier-Bold,Courier" font-weight="bold" font-size="52.0" fill="#EAB600" transform="matrix(1.00, 0.00, -0.00, -1.00, 811.7, 384.3)">N</text><text xml:space="preserve" font-family="Courier-Bold,Courier" font-weight="bold" font-size="52.0" fill="#EAB600" transform="matrix(1.00, 0.00, -0.00, -1.00, 842.9, 384.3)">e</text><text xml:space="preserve" font-family="Courier-Bold,Courier" font-weight="bold" font-size="52.0" fill="#EAB600" transform="matrix(1.00, 0.00, -0.00, -1.00, 874.1, 384.3)">w</text><text xml:space="preserve" font-family="Courier-Bold,Courier" font-weight="bold" font-size="52.0" fill="#EAB600" transform="matrix(1.00, 0.00, -0.00, -1.00, 905.3, 384.3)">S</text><text xml:space="preserve" font-family="Courier-Bold,Courier" font-weight="bold" font-size="52.0" fill="#EAB600" transform="matrix(1.00, 0.00, -0.00, -1.00, 936.5, 384.3)">t</text><text xml:space="preserve" font-family="Courier-Bold,Courier" font-weight="bold" font-size="52.0" fill="#EAB600" transform="matrix(1.00, 0.00, -0.00, -1.00, 967.8, 384.3)">a</text><text xml:space="preserve" font-family="Courier-Bold,Courier" font-weight="bold" font-size="52.0" fill="#EAB600" transform="matrix(1.00, 0.00, -0.00, -1.00, 999.0, 384.3)">t</text><text xml:space="preserve" font-family="Courier-Bold,Courier" font-weight="bold" font-size="52.0" fill="#EAB600" transform="matrix(1.00, 0.00, -0.00, -1.00, 1030.2, 384.3)">e</text><text xml:space="preserve" font-family="Courier-Bold,Courier" font-weight="bold" font-size="52.0" fill="#EAB600" transform="matrix(1.00, 0.00, -0.00, -1.00, 1061.4, 384.3)">D</text><text xml:space="preserve" font-family="Courier-Bold,Courier" font-weight="bold" font-size="52.0" fill="#EAB600" transform="matrix(1.00, 0.00, -0.00, -1.00, 1092.6, 384.3)">a</text><text xml:space="preserve" font-family="Courier-Bold,Courier" font-weight="bold" font-size="52.0" fill="#EAB600" transform="matrix(1.00, 0.00, -0.00, -1.00, 1123.8, 384.3)">t</text><text xml:space="preserve" font-family="Courier-Bold,Courier" font-weight="bold" font-size="52.0" fill="#EAB600" transform="matrix(1.00, 0.00, -0.00, -1.00, 1155.0, 384.3)">a</text><text xml:space="preserve" font-family="Courier-Bold,Courier" font-weight="bold" font-size="52.0" fill="#000000" transform="matrix(1.00, 0.00, -0.00, -1.00, 1186.2, 384.3)">}</text><text xml:space="preserve" font-family="Courier-Bold,Courier" font-weight="bold" font-size="52.0" fill="#000000" transform="matrix(1.00, 0.00, -0.00, -1.00, 0.4, 260.3)">{</text><text xml:space="preserve" font-family="Courier-Bold,Courier" font-weight="bold" font-size="52.0" fill="#000000" transform="matrix(1.00, 0.00, -0.00, -1.00, 31.6, 260.3)">n</text><text xml:space="preserve" font-family="Courier-Bold,Courier" font-weight="bold" font-size="52.0" fill="#000000" transform="matrix(1.00, 0.00, -0.00, -1.00, 62.8, 260.3)">e</text><text xml:space="preserve" font-family="Courier-Bold,Courier" font-weight="bold" font-size="52.0" fill="#000000" transform="matrix(1.00, 0.00, -0.00, -1.00, 94.0, 260.3)">x</text><text xml:space="preserve" font-family="Courier-Bold,Courier" font-weight="bold" font-size="52.0" fill="#000000" transform="matrix(1.00, 0.00, -0.00, -1.00, 125.2, 260.3)">t</text><text xml:space="preserve" font-family="Courier-Bold,Courier" font-weight="bold" font-size="52.0" fill="#000000" transform="matrix(1.00, 0.00, -0.00, -1.00, 156.4, 260.3)">_</text><text xml:space="preserve" font-family="Courier-Bold,Courier" font-weight="bold" font-size="52.0" fill="#000000" transform="matrix(1.00, 0.00, -0.00, -1.00, 187.6, 260.3)">s</text><text xml:space="preserve" font-family="Courier-Bold,Courier" font-weight="bold" font-size="52.0" fill="#000000" transform="matrix(1.00, 0.00, -0.00, -1.00, 218.8, 260.3)">t</text><text xml:space="preserve" font-family="Courier-Bold,Courier" font-weight="bold" font-size="52.0" fill="#000000" transform="matrix(1.00, 0.00, -0.00, -1.00, 250.1, 260.3)">a</text><text xml:space="preserve" font-family="Courier-Bold,Courier" font-weight="bold" font-size="52.0" fill="#000000" transform="matrix(1.00, 0.00, -0.00, -1.00, 281.3, 260.3)">t</text><text xml:space="preserve" font-family="Courier-Bold,Courier" font-weight="bold" font-size="52.0" fill="#000000" transform="matrix(1.00, 0.00, -0.00, -1.00, 312.5, 260.3)">e</text><text xml:space="preserve" font-family="Courier-Bold,Courier" font-weight="bold" font-size="52.0" fill="#000000" transform="matrix(1.00, 0.00, -0.00, -1.00, 343.7, 260.3)">,</text><text xml:space="preserve" font-family="Courier-Bold,Courier" font-weight="bold" font-size="52.0" fill="#EAB600" transform="matrix(1.00, 0.00, -0.00, -1.00, 374.8, 260.3)">N</text><text xml:space="preserve" font-family="Courier-Bold,Courier" font-weight="bold" font-size="52.0" fill="#EAB600" transform="matrix(1.00, 0.00, -0.00, -1.00, 406.0, 260.3)">e</text><text xml:space="preserve" font-family="Courier-Bold,Courier" font-weight="bold" font-size="52.0" fill="#EAB600" transform="matrix(1.00, 0.00, -0.00, -1.00, 437.3, 260.3)">x</text><text xml:space="preserve" font-family="Courier-Bold,Courier" font-weight="bold" font-size="52.0" fill="#EAB600" transform="matrix(1.00, 0.00, -0.00, -1.00, 468.5, 260.3)">t</text><text xml:space="preserve" font-family="Courier-Bold,Courier" font-weight="bold" font-size="52.0" fill="#EAB600" transform="matrix(1.00, 0.00, -0.00, -1.00, 499.7, 260.3)">S</text><text xml:space="preserve" font-family="Courier-Bold,Courier" font-weight="bold" font-size="52.0" fill="#EAB600" transform="matrix(1.00, 0.00, -0.00, -1.00, 530.9, 260.3)">t</text><text xml:space="preserve" font-family="Courier-Bold,Courier" font-weight="bold" font-size="52.0" fill="#EAB600" transform="matrix(1.00, 0.00, -0.00, -1.00, 562.1, 260.3)">a</text><text xml:space="preserve" font-family="Courier-Bold,Courier" font-weight="bold" font-size="52.0" fill="#EAB600" transform="matrix(1.00, 0.00, -0.00, -1.00, 593.3, 260.3)">t</text><text xml:space="preserve" font-family="Courier-Bold,Courier" font-weight="bold" font-size="52.0" fill="#EAB600" transform="matrix(1.00, 0.00, -0.00, -1.00, 624.5, 260.3)">e</text><text xml:space="preserve" font-family="Courier-Bold,Courier" font-weight="bold" font-size="52.0" fill="#EAB600" transform="matrix(1.00, 0.00, -0.00, -1.00, 655.7, 260.3)">N</text><text xml:space="preserve" font-family="Courier-Bold,Courier" font-weight="bold" font-size="52.0" fill="#EAB600" transform="matrix(1.00, 0.00, -0.00, -1.00, 686.9, 260.3)">a</text><text xml:space="preserve" font-family="Courier-Bold,Courier" font-weight="bold" font-size="52.0" fill="#EAB600" transform="matrix(1.00, 0.00, -0.00, -1.00, 718.1, 260.3)">m</text><text xml:space="preserve" font-family="Courier-Bold,Courier" font-weight="bold" font-size="52.0" fill="#EAB600" transform="matrix(1.00, 0.00, -0.00, -1.00, 749.4, 260.3)">e</text><text xml:space="preserve" font-family="Courier-Bold,Courier" font-weight="bold" font-size="52.0" fill="#000000" transform="matrix(1.00, 0.00, -0.00, -1.00, 780.5, 260.3)">,</text><text xml:space="preserve" font-family="Courier-Bold,Courier" font-weight="bold" font-size="52.0" fill="#EAB600" transform="matrix(1.00, 0.00, -0.00, -1.00, 811.7, 260.3)">N</text><text xml:space="preserve" font-family="Courier-Bold,Courier" font-weight="bold" font-size="52.0" fill="#EAB600" transform="matrix(1.00, 0.00, -0.00, -1.00, 842.9, 260.3)">e</text><text xml:space="preserve" font-family="Courier-Bold,Courier" font-weight="bold" font-size="52.0" fill="#EAB600" transform="matrix(1.00, 0.00, -0.00, -1.00, 874.1, 260.3)">w</text><text xml:space="preserve" font-family="Courier-Bold,Courier" font-weight="bold" font-size="52.0" fill="#EAB600" transform="matrix(1.00, 0.00, -0.00, -1.00, 905.3, 260.3)">S</text><text xml:space="preserve" font-family="Courier-Bold,Courier" font-weight="bold" font-size="52.0" fill="#EAB600" transform="matrix(1.00, 0.00, -0.00, -1.00, 936.5, 260.3)">t</text><text xml:space="preserve" font-family="Courier-Bold,Courier" font-weight="bold" font-size="52.0" fill="#EAB600" transform="matrix(1.00, 0.00, -0.00, -1.00, 967.8, 260.3)">a</text><text xml:space="preserve" font-family="Courier-Bold,Courier" font-weight="bold" font-size="52.0" fill="#EAB600" transform="matrix(1.00, 0.00, -0.00, -1.00, 999.0, 260.3)">t</text><text xml:space="preserve" font-family="Courier-Bold,Courier" font-weight="bold" font-size="52.0" fill="#EAB600" transform="matrix(1.00, 0.00, -0.00, -1.00, 1030.2, 260.3)">e</text><text xml:space="preserve" font-family="Courier-Bold,Courier" font-weight="bold" font-size="52.0" fill="#EAB600" transform="matrix(1.00, 0.00, -0.00, -1.00, 1061.4, 260.3)">D</text><text xml:space="preserve" font-family="Courier-Bold,Courier" font-weight="bold" font-size="52.0" fill="#EAB600" transform="matrix(1.00, 0.00, -0.00, -1.00, 1092.6, 260.3)">a</text><text xml:space="preserve" font-family="Courier-Bold,Courier" font-weight="bold" font-size="52.0" fill="#EAB600" transform="matrix(1.00, 0.00, -0.00, -1.00, 1123.8, 260.3)">t</text><text xml:space="preserve" font-family="Courier-Bold,Courier" font-weight="bold" font-size="52.0" fill="#EAB600" transform="matrix(1.00, 0.00, -0.00, -1.00, 1155.0, 260.3)">a</text><text xml:space="preserve" font-family="Courier-Bold,Courier" font-weight="bold" font-size="52.0" fill="#000000" transform="matrix(1.00, 0.00, -0.00, -1.00, 1186.2, 260.3)">,</text><text xml:space="preserve" font-family="Courier-Bold,Courier" font-weight="bold" font-size="52.0" fill="#EAB600" transform="matrix(1.00, 0.00, -0.00, -1.00, 1217.4, 260.3)">T</text><text xml:space="preserve" font-family="Courier-Bold,Courier" font-weight="bold" font-size="52.0" fill="#EAB600" transform="matrix(1.00, 0.00, -0.00, -1.00, 1248.6, 260.3)">i</text><text xml:space="preserve" font-family="Courier-Bold,Courier" font-weight="bold" font-size="52.0" fill="#EAB600" transform="matrix(1.00, 0.00, -0.00, -1.00, 1279.8, 260.3)">m</text><text xml:space="preserve" font-family="Courier-Bold,Courier" font-weight="bold" font-size="52.0" fill="#EAB600" transform="matrix(1.00, 0.00, -0.00, -1.00, 1311.0, 260.3)">e</text><text xml:space="preserve" font-family="Courier-Bold,Courier" font-weight="bold" font-size="52.0" fill="#EAB600" transform="matrix(1.00, 0.00, -0.00, -1.00, 1342.2, 260.3)">o</text><text xml:space="preserve" font-family="Courier-Bold,Courier" font-weight="bold" font-size="52.0" fill="#EAB600" transform="matrix(1.00, 0.00, -0.00, -1.00, 1373.4, 260.3)">u</text><text xml:space="preserve" font-family="Courier-Bold,Courier" font-weight="bold" font-size="52.0" fill="#EAB600" transform="matrix(1.00, 0.00, -0.00, -1.00, 1404.6, 260.3)">t</text><text xml:space="preserve" font-family="Courier-Bold,Courier" font-weight="bold" font-size="52.0" fill="#000000" transform="matrix(1.00, 0.00, -0.00, -1.00, 1435.8, 260.3)">}</text><text xml:space="preserve" font-family="Courier-Bold,Courier" font-weight="bold" font-size="52.0" fill="#000000" transform="matrix(1.00, 0.00, -0.00, -1.00, 0.4, 136.3)">{</text><text xml:space="preserve" font-family="Courier-Bold,Courier" font-weight="bold" font-size="52.0" fill="#000000" transform="matrix(1.00, 0.00, -0.00, -1.00, 31.6, 136.3)">n</text><text xml:space="preserve" font-family="Courier-Bold,Courier" font-weight="bold" font-size="52.0" fill="#000000" transform="matrix(1.00, 0.00, -0.00, -1.00, 62.8, 136.3)">e</text><text xml:space="preserve" font-family="Courier-Bold,Courier" font-weight="bold" font-size="52.0" fill="#000000" transform="matrix(1.00, 0.00, -0.00, -1.00, 94.0, 136.3)">x</text><text xml:space="preserve" font-family="Courier-Bold,Courier" font-weight="bold" font-size="52.0" fill="#000000" transform="matrix(1.00, 0.00, -0.00, -1.00, 125.2, 136.3)">t</text><text xml:space="preserve" font-family="Courier-Bold,Courier" font-weight="bold" font-size="52.0" fill="#000000" transform="matrix(1.00, 0.00, -0.00, -1.00, 156.4, 136.3)">_</text><text xml:space="preserve" font-family="Courier-Bold,Courier" font-weight="bold" font-size="52.0" fill="#000000" transform="matrix(1.00, 0.00, -0.00, -1.00, 187.6, 136.3)">s</text><text xml:space="preserve" font-family="Courier-Bold,Courier" font-weight="bold" font-size="52.0" fill="#000000" transform="matrix(1.00, 0.00, -0.00, -1.00, 218.8, 136.3)">t</text><text xml:space="preserve" font-family="Courier-Bold,Courier" font-weight="bold" font-size="52.0" fill="#000000" transform="matrix(1.00, 0.00, -0.00, -1.00, 250.1, 136.3)">a</text><text xml:space="preserve" font-family="Courier-Bold,Courier" font-weight="bold" font-size="52.0" fill="#000000" transform="matrix(1.00, 0.00, -0.00, -1.00, 281.3, 136.3)">t</text><text xml:space="preserve" font-family="Courier-Bold,Courier" font-weight="bold" font-size="52.0" fill="#000000" transform="matrix(1.00, 0.00, -0.00, -1.00, 312.5, 136.3)">e</text><text xml:space="preserve" font-family="Courier-Bold,Courier" font-weight="bold" font-size="52.0" fill="#000000" transform="matrix(1.00, 0.00, -0.00, -1.00, 343.7, 136.3)">,</text><text xml:space="preserve" font-family="Courier-Bold,Courier" font-weight="bold" font-size="52.0" fill="#EAB600" transform="matrix(1.00, 0.00, -0.00, -1.00, 374.8, 136.3)">N</text><text xml:space="preserve" font-family="Courier-Bold,Courier" font-weight="bold" font-size="52.0" fill="#EAB600" transform="matrix(1.00, 0.00, -0.00, -1.00, 406.0, 136.3)">e</text><text xml:space="preserve" font-family="Courier-Bold,Courier" font-weight="bold" font-size="52.0" fill="#EAB600" transform="matrix(1.00, 0.00, -0.00, -1.00, 437.3, 136.3)">x</text><text xml:space="preserve" font-family="Courier-Bold,Courier" font-weight="bold" font-size="52.0" fill="#EAB600" transform="matrix(1.00, 0.00, -0.00, -1.00, 468.5, 136.3)">t</text><text xml:space="preserve" font-family="Courier-Bold,Courier" font-weight="bold" font-size="52.0" fill="#EAB600" transform="matrix(1.00, 0.00, -0.00, -1.00, 499.7, 136.3)">S</text><text xml:space="preserve" font-family="Courier-Bold,Courier" font-weight="bold" font-size="52.0" fill="#EAB600" transform="matrix(1.00, 0.00, -0.00, -1.00, 530.9, 136.3)">t</text><text xml:space="preserve" font-family="Courier-Bold,Courier" font-weight="bold" font-size="52.0" fill="#EAB600" transform="matrix(1.00, 0.00, -0.00, -1.00, 562.1, 136.3)">a</text><text xml:space="preserve" font-family="Courier-Bold,Courier" font-weight="bold" font-size="52.0" fill="#EAB600" transform="matrix(1.00, 0.00, -0.00, -1.00, 593.3, 136.3)">t</text><text xml:space="preserve" font-family="Courier-Bold,Courier" font-weight="bold" font-size="52.0" fill="#EAB600" transform="matrix(1.00, 0.00, -0.00, -1.00, 624.5, 136.3)">e</text><text xml:space="preserve" font-family="Courier-Bold,Courier" font-weight="bold" font-size="52.0" fill="#EAB600" transform="matrix(1.00, 0.00, -0.00, -1.00, 655.7, 136.3)">N</text><text xml:space="preserve" font-family="Courier-Bold,Courier" font-weight="bold" font-size="52.0" fill="#EAB600" transform="matrix(1.00, 0.00, -0.00, -1.00, 686.9, 136.3)">a</text><text xml:space="preserve" font-family="Courier-Bold,Courier" font-weight="bold" font-size="52.0" fill="#EAB600" transform="matrix(1.00, 0.00, -0.00, -1.00, 718.1, 136.3)">m</text><text xml:space="preserve" font-family="Courier-Bold,Courier" font-weight="bold" font-size="52.0" fill="#EAB600" transform="matrix(1.00, 0.00, -0.00, -1.00, 749.4, 136.3)">e</text><text xml:space="preserve" font-family="Courier-Bold,Courier" font-weight="bold" font-size="52.0" fill="#000000" transform="matrix(1.00, 0.00, -0.00, -1.00, 780.5, 136.3)">,</text><text xml:space="preserve" font-family="Courier-Bold,Courier" font-weight="bold" font-size="52.0" fill="#EAB600" transform="matrix(1.00, 0.00, -0.00, -1.00, 811.7, 136.3)">N</text><text xml:space="preserve" font-family="Courier-Bold,Courier" font-weight="bold" font-size="52.0" fill="#EAB600" transform="matrix(1.00, 0.00, -0.00, -1.00, 842.9, 136.3)">e</text><text xml:space="preserve" font-family="Courier-Bold,Courier" font-weight="bold" font-size="52.0" fill="#EAB600" transform="matrix(1.00, 0.00, -0.00, -1.00, 874.1, 136.3)">w</text><text xml:space="preserve" font-family="Courier-Bold,Courier" font-weight="bold" font-size="52.0" fill="#EAB600" transform="matrix(1.00, 0.00, -0.00, -1.00, 905.3, 136.3)">S</text><text xml:space="preserve" font-family="Courier-Bold,Courier" font-weight="bold" font-size="52.0" fill="#EAB600" transform="matrix(1.00, 0.00, -0.00, -1.00, 936.5, 136.3)">t</text><text xml:space="preserve" font-family="Courier-Bold,Courier" font-weight="bold" font-size="52.0" fill="#EAB600" transform="matrix(1.00, 0.00, -0.00, -1.00, 967.8, 136.3)">a</text><text xml:space="preserve" font-family="Courier-Bold,Courier" font-weight="bold" font-size="52.0" fill="#EAB600" transform="matrix(1.00, 0.00, -0.00, -1.00, 999.0, 136.3)">t</text><text xml:space="preserve" font-family="Courier-Bold,Courier" font-weight="bold" font-size="52.0" fill="#EAB600" transform="matrix(1.00, 0.00, -0.00, -1.00, 1030.2, 136.3)">e</text><text xml:space="preserve" font-family="Courier-Bold,Courier" font-weight="bold" font-size="52.0" fill="#EAB600" transform="matrix(1.00, 0.00, -0.00, -1.00, 1061.4, 136.3)">D</text><text xml:space="preserve" font-family="Courier-Bold,Courier" font-weight="bold" font-size="52.0" fill="#EAB600" transform="matrix(1.00, 0.00, -0.00, -1.00, 1092.6, 136.3)">a</text><text xml:space="preserve" font-family="Courier-Bold,Courier" font-weight="bold" font-size="52.0" fill="#EAB600" transform="matrix(1.00, 0.00, -0.00, -1.00, 1123.8, 136.3)">t</text><text xml:space="preserve" font-family="Courier-Bold,Courier" font-weight="bold" font-size="52.0" fill="#EAB600" transform="matrix(1.00, 0.00, -0.00, -1.00, 1155.0, 136.3)">a</text><text xml:space="preserve" font-family="Courier-Bold,Courier" font-weight="bold" font-size="52.0" fill="#000000" transform="matrix(1.00, 0.00, -0.00, -1.00, 1186.2, 136.3)">,</text><text xml:space="preserve" font-family="Courier-Bold,Courier" font-weight="bold" font-size="52.0" fill="#000000" transform="matrix(1.00, 0.00, -0.00, -1.00, 1217.4, 136.3)">h</text><text xml:space="preserve" font-family="Courier-Bold,Courier" font-weight="bold" font-size="52.0" fill="#000000" transform="matrix(1.00, 0.00, -0.00, -1.00, 1248.6, 136.3)">i</text><text xml:space="preserve" font-family="Courier-Bold,Courier" font-weight="bold" font-size="52.0" fill="#000000" transform="matrix(1.00, 0.00, -0.00, -1.00, 1279.8, 136.3)">b</text><text xml:space="preserve" font-family="Courier-Bold,Courier" font-weight="bold" font-size="52.0" fill="#000000" transform="matrix(1.00, 0.00, -0.00, -1.00, 1311.0, 136.3)">e</text><text xml:space="preserve" font-family="Courier-Bold,Courier" font-weight="bold" font-size="52.0" fill="#000000" transform="matrix(1.00, 0.00, -0.00, -1.00, 1342.2, 136.3)">r</text><text xml:space="preserve" font-family="Courier-Bold,Courier" font-weight="bold" font-size="52.0" fill="#000000" transform="matrix(1.00, 0.00, -0.00, -1.00, 1373.4, 136.3)">n</text><text xml:space="preserve" font-family="Courier-Bold,Courier" font-weight="bold" font-size="52.0" fill="#000000" transform="matrix(1.00, 0.00, -0.00, -1.00, 1404.6, 136.3)">a</text><text xml:space="preserve" font-family="Courier-Bold,Courier" font-weight="bold" font-size="52.0" fill="#000000" transform="matrix(1.00, 0.00, -0.00, -1.00, 1435.8, 136.3)">t</text><text xml:space="preserve" font-family="Courier-Bold,Courier" font-weight="bold" font-size="52.0" fill="#000000" transform="matrix(1.00, 0.00, -0.00, -1.00, 1467.1, 136.3)">e</text><text xml:space="preserve" font-family="Courier-Bold,Courier" font-weight="bold" font-size="52.0" fill="#000000" transform="matrix(1.00, 0.00, -0.00, -1.00, 1498.3, 136.3)">}</text><text xml:space="preserve" font-family="Courier-Bold,Courier" font-weight="bold" font-size="52.0" fill="#000000" transform="matrix(1.00, 0.00, -0.00, -1.00, 0.4, 12.3)">{</text><text xml:space="preserve" font-family="Courier-Bold,Courier" font-weight="bold" font-size="52.0" fill="#000000" transform="matrix(1.00, 0.00, -0.00, -1.00, 31.6, 12.3)">s</text><text xml:space="preserve" font-family="Courier-Bold,Courier" font-weight="bold" font-size="52.0" fill="#000000" transform="matrix(1.00, 0.00, -0.00, -1.00, 62.8, 12.3)">t</text><text xml:space="preserve" font-family="Courier-Bold,Courier" font-weight="bold" font-size="52.0" fill="#000000" transform="matrix(1.00, 0.00, -0.00, -1.00, 94.0, 12.3)">o</text><text xml:space="preserve" font-family="Courier-Bold,Courier" font-weight="bold" font-size="52.0" fill="#000000" transform="matrix(1.00, 0.00, -0.00, -1.00, 125.2, 12.3)">p</text><text xml:space="preserve" font-family="Courier-Bold,Courier" font-weight="bold" font-size="52.0" fill="#000000" transform="matrix(1.00, 0.00, -0.00, -1.00, 156.4, 12.3)">,</text><text xml:space="preserve" font-family="Courier-Bold,Courier" font-weight="bold" font-size="52.0" fill="#EAB600" transform="matrix(1.00, 0.00, -0.00, -1.00, 187.6, 12.3)">R</text><text xml:space="preserve" font-family="Courier-Bold,Courier" font-weight="bold" font-size="52.0" fill="#EAB600" transform="matrix(1.00, 0.00, -0.00, -1.00, 218.8, 12.3)">e</text><text xml:space="preserve" font-family="Courier-Bold,Courier" font-weight="bold" font-size="52.0" fill="#EAB600" transform="matrix(1.00, 0.00, -0.00, -1.00, 250.0, 12.3)">a</text><text xml:space="preserve" font-family="Courier-Bold,Courier" font-weight="bold" font-size="52.0" fill="#EAB600" transform="matrix(1.00, 0.00, -0.00, -1.00, 281.2, 12.3)">s</text><text xml:space="preserve" font-family="Courier-Bold,Courier" font-weight="bold" font-size="52.0" fill="#EAB600" transform="matrix(1.00, 0.00, -0.00, -1.00, 312.4, 12.3)">o</text><text xml:space="preserve" font-family="Courier-Bold,Courier" font-weight="bold" font-size="52.0" fill="#EAB600" transform="matrix(1.00, 0.00, -0.00, -1.00, 343.7, 12.3)">n</text><text xml:space="preserve" font-family="Courier-Bold,Courier" font-weight="bold" font-size="52.0" fill="#000000" transform="matrix(1.00, 0.00, -0.00, -1.00, 374.8, 12.3)">,</text><text xml:space="preserve" font-family="Courier-Bold,Courier" font-weight="bold" font-size="52.0" fill="#EAB600" transform="matrix(1.00, 0.00, -0.00, -1.00, 406.0, 12.3)">N</text><text xml:space="preserve" font-family="Courier-Bold,Courier" font-weight="bold" font-size="52.0" fill="#EAB600" transform="matrix(1.00, 0.00, -0.00, -1.00, 437.2, 12.3)">e</text><text xml:space="preserve" font-family="Courier-Bold,Courier" font-weight="bold" font-size="52.0" fill="#EAB600" transform="matrix(1.00, 0.00, -0.00, -1.00, 468.5, 12.3)">w</text><text xml:space="preserve" font-family="Courier-Bold,Courier" font-weight="bold" font-size="52.0" fill="#EAB600" transform="matrix(1.00, 0.00, -0.00, -1.00, 499.7, 12.3)">S</text><text xml:space="preserve" font-family="Courier-Bold,Courier" font-weight="bold" font-size="52.0" fill="#EAB600" transform="matrix(1.00, 0.00, -0.00, -1.00, 530.9, 12.3)">t</text><text xml:space="preserve" font-family="Courier-Bold,Courier" font-weight="bold" font-size="52.0" fill="#EAB600" transform="matrix(1.00, 0.00, -0.00, -1.00, 562.1, 12.3)">a</text><text xml:space="preserve" font-family="Courier-Bold,Courier" font-weight="bold" font-size="52.0" fill="#EAB600" transform="matrix(1.00, 0.00, -0.00, -1.00, 593.3, 12.3)">t</text><text xml:space="preserve" font-family="Courier-Bold,Courier" font-weight="bold" font-size="52.0" fill="#EAB600" transform="matrix(1.00, 0.00, -0.00, -1.00, 624.5, 12.3)">e</text><text xml:space="preserve" font-family="Courier-Bold,Courier" font-weight="bold" font-size="52.0" fill="#EAB600" transform="matrix(1.00, 0.00, -0.00, -1.00, 655.7, 12.3)">D</text><text xml:space="preserve" font-family="Courier-Bold,Courier" font-weight="bold" font-size="52.0" fill="#EAB600" transform="matrix(1.00, 0.00, -0.00, -1.00, 686.9, 12.3)">a</text><text xml:space="preserve" font-family="Courier-Bold,Courier" font-weight="bold" font-size="52.0" fill="#EAB600" transform="matrix(1.00, 0.00, -0.00, -1.00, 718.1, 12.3)">t</text><text xml:space="preserve" font-family="Courier-Bold,Courier" font-weight="bold" font-size="52.0" fill="#EAB600" transform="matrix(1.00, 0.00, -0.00, -1.00, 749.4, 12.3)">a</text><text xml:space="preserve" font-family="Courier-Bold,Courier" font-weight="bold" font-size="52.0" fill="#000000" transform="matrix(1.00, 0.00, -0.00, -1.00, 780.5, 12.3)">}</text></g></svg>