<?xml version="1.0" encoding="UTF-8" standalone="no"?><svg xmlns="http://www.w3.org/2000/svg" xmlns:xlink="http://www.w3.org/1999/xlink" clip-rule="evenodd" stroke-miterlimit="10" viewBox="0 0 804 193"><desc>SVG generated by Keynote</desc><defs></defs><g transform="matrix(1.00, 0.00, -0.00, -1.00, 0.0, 193.0)"><text xml:space="preserve" font-family="SourceSansPro-Semibold,Source Sans Pro" font-weight="bold" font-size="87.0" fill="#000000" transform="matrix(1.00, 0.00, -0.00, -1.00, 0.6, 128.9)">[</text><text xml:space="preserve" font-family="SourceSansPro-Semibold,Source Sans Pro" font-weight="bold" font-size="87.0" fill="#000000" transform="matrix(1.00, 0.00, -0.00, -1.00, 28.8, 128.9)">E</text><text xml:space="preserve" font-family="SourceSansPro-Semibold,Source Sans Pro" font-weight="bold" font-size="87.0" fill="#000000" transform="matrix(1.00, 0.00, -0.00, -1.00, 75.6, 128.9)">m</text><text xml:space="preserve" font-family="SourceSansPro-Semibold,Source Sans Pro" font-weight="bold" font-size="87.0" fill="#000000" transform="matrix(1.00, 0.00, -0.00, -1.00, 149.0, 128.9)">p</text><text xml:space="preserve" font-family="SourceSansPro-Semibold,Source Sans Pro" font-weight="bold" font-size="87.0" fill="#000000" transform="matrix(1.00, 0.00, -0.00, -1.00, 198.0, 128.9)">i</text><text xml:space="preserve" font-family="SourceSansPro-Semibold,Source Sans Pro" font-weight="bold" font-size="87.0" fill="#000000" transform="matrix(1.00, 0.00, -0.00, -1.00, 220.8, 128.9)">r</text><text xml:space="preserve" font-family="SourceSansPro-Semibold,Source Sans Pro" font-weight="bold" font-size="87.0" fill="#000000" transform="matrix(1.00, 0.00, -0.00, -1.00, 252.4, 128.9)">e</text><text xml:space="preserve" font-family="SourceSansPro-Semibold,Source Sans Pro" font-weight="bold" font-size="87.0" fill="#000000" transform="matrix(1.00, 0.00, -0.00, -1.00, 296.5, 128.9)"> </text><text xml:space="preserve" font-family="SourceSansPro-Semibold,Source Sans Pro" font-weight="bold" font-size="87.0" fill="#000000" transform="matrix(1.00, 0.00, -0.00, -1.00, 314.3, 128.9)">S</text><text xml:space="preserve" font-family="SourceSansPro-Semibold,Source Sans Pro" font-weight="bold" font-size="87.0" fill="#000000" transform="matrix(1.00, 0.00, -0.00, -1.00, 361.8, 128.9)">t</text><text xml:space="preserve" font-family="SourceSansPro-Semibold,Source Sans Pro" font-weight="bold" font-size="87.0" fill="#000000" transform="matrix(1.00, 0.00, -0.00, -1.00, 393.2, 128.9)">r</text><text xml:space="preserve" font-family="SourceSansPro-Semibold,Source Sans Pro" font-weight="bold" font-size="87.0" fill="#000000" transform="matrix(1.00, 0.00, -0.00, -1.00, 425.6, 128.9)">i</text><text xml:space="preserve" font-family="SourceSansPro-Semibold,Source Sans Pro" font-weight="bold" font-size="87.0" fill="#000000" transform="matrix(1.00, 0.00, -0.00, -1.00, 448.4, 128.9)">k</text><text xml:space="preserve" font-family="SourceSansPro-Semibold,Source Sans Pro" font-weight="bold" font-size="87.0" fill="#000000" transform="matrix(1.00, 0.00, -0.00, -1.00, 491.8, 128.9)">e</text><text xml:space="preserve" font-family="SourceSansPro-Semibold,Source Sans Pro" font-weight="bold" font-size="87.0" fill="#000000" transform="matrix(1.00, 0.00, -0.00, -1.00, 535.9, 128.9)">s</text><text xml:space="preserve" font-family="SourceSansPro-Semibold,Source Sans Pro" font-weight="bold" font-size="87.0" fill="#000000" transform="matrix(1.00, 0.00, -0.00, -1.00, 573.4, 128.9)">]</text><text xml:space="preserve" font-family="SourceSansPro-Semibold,Source Sans Pro" font-weight="bold" font-size="87.0" fill="#000000" transform="matrix(1.00, 0.00, -0.00, -1.00, 601.6, 128.9)"> </text><text xml:space="preserve" font-family="SourceSansPro-Semibold,Source Sans Pro" font-weight="bold" font-size="87.0" fill="#000000" transform="matrix(1.00, 0.00, -0.00, -1.00, 619.5, 128.9)">B</text><text xml:space="preserve" font-family="SourceSansPro-Semibold,Source Sans Pro" font-weight="bold" font-size="87.0" fill="#000000" transform="matrix(1.00, 0.00, -0.00, -1.00, 671.4, 128.9)">a</text><text xml:space="preserve" font-family="SourceSansPro-Semibold,Source Sans Pro" font-weight="bold" font-size="87.0" fill="#000000" transform="matrix(1.00, 0.00, -0.00, -1.00, 716.9, 128.9)">c</text><text xml:space="preserve" font-family="SourceSansPro-Semibold,Source Sans Pro" font-weight="bold" font-size="87.0" fill="#000000" transform="matrix(1.00, 0.00, -0.00, -1.00, 757.1, 128.9)">k</text><text xml:space="preserve" font-family="SourceSansPro-Semibold,Source Sans Pro" font-weight="bold" font-size="87.0" fill="#000000" transform="matrix(1.00, 0.00, -0.00, -1.00, 802.5, 128.9)"> </text><text xml:space="preserve" font-family="SourceSansPro-Semibold,Source Sans Pro" font-weight="bold" font-size="87.0" fill="#000000" transform="matrix(1.00, 0.00, -0.00, -1.00, 0.6, 18.9)">t</text><text xml:space="preserve" font-family="SourceSansPro-Semibold,Source Sans Pro" font-weight="bold" font-size="87.0" fill="#000000" transform="matrix(1.00, 0.00, -0.00, -1.00, 31.2, 18.9)">o</text><text xml:space="preserve" font-family="SourceSansPro-Semibold,Source Sans Pro" font-weight="bold" font-size="87.0" fill="#000000" transform="matrix(1.00, 0.00, -0.00, -1.00, 78.9, 18.9)"> </text><text xml:space="preserve" font-family="SourceSansPro-Semibold,Source Sans Pro" font-weight="bold" font-size="87.0" fill="#000000" transform="matrix(1.00, 0.00, -0.00, -1.00, 96.8, 18.9)">t</text><text xml:space="preserve" font-family="SourceSansPro-Semibold,Source Sans Pro" font-weight="bold" font-size="87.0" fill="#000000" transform="matrix(1.00, 0.00, -0.00, -1.00, 128.2, 18.9)">h</text><text xml:space="preserve" font-family="SourceSansPro-Semibold,Source Sans Pro" font-weight="bold" font-size="87.0" fill="#000000" transform="matrix(1.00, 0.00, -0.00, -1.00, 176.7, 18.9)">e</text><text xml:space="preserve" font-family="SourceSansPro-Semibold,Source Sans Pro" font-weight="bold" font-size="87.0" fill="#000000" transform="matrix(1.00, 0.00, -0.00, -1.00, 220.8, 18.9)"> </text><text xml:space="preserve" font-family="SourceSansPro-Semibold,Source Sans Pro" font-weight="bold" font-size="87.0" fill="#000000" transform="matrix(1.00, 0.00, -0.00, -1.00, 238.7, 18.9)">p</text><text xml:space="preserve" font-family="SourceSansPro-Semibold,Source Sans Pro" font-weight="bold" font-size="87.0" fill="#000000" transform="matrix(1.00, 0.00, -0.00, -1.00, 287.7, 18.9)">r</text><text xml:space="preserve" font-family="SourceSansPro-Semibold,Source Sans Pro" font-weight="bold" font-size="87.0" fill="#000000" transform="matrix(1.00, 0.00, -0.00, -1.00, 319.3, 18.9)">o</text><text xml:space="preserve" font-family="SourceSansPro-Semibold,Source Sans Pro" font-weight="bold" font-size="87.0" fill="#000000" transform="matrix(1.00, 0.00, -0.00, -1.00, 367.1, 18.9)">t</text><text xml:space="preserve" font-family="SourceSansPro-Semibold,Source Sans Pro" font-weight="bold" font-size="87.0" fill="#000000" transform="matrix(1.00, 0.00, -0.00, -1.00, 397.6, 18.9)">o</text><text xml:space="preserve" font-family="SourceSansPro-Semibold,Source Sans Pro" font-weight="bold" font-size="87.0" fill="#000000" transform="matrix(1.00, 0.00, -0.00, -1.00, 445.4, 18.9)">c</text><text xml:space="preserve" font-family="SourceSansPro-Semibold,Source Sans Pro" font-weight="bold" font-size="87.0" fill="#000000" transform="matrix(1.00, 0.00, -0.00, -1.00, 483.5, 18.9)">o</text><text xml:space="preserve" font-family="SourceSansPro-Semibold,Source Sans Pro" font-weight="bold" font-size="87.0" fill="#000000" transform="matrix(1.00, 0.00, -0.00, -1.00, 531.2, 18.9)">l</text></g></svg>