<?xml version="1.0" encoding="UTF-8" standalone="no"?><svg xmlns="http://www.w3.org/2000/svg" xmlns:xlink="http://www.w3.org/1999/xlink" clip-rule="evenodd" stroke-miterlimit="10" viewBox="0 0 489 413"><desc>SVG generated by Keynote</desc><defs></defs><g transform="matrix(1.00, 0.00, -0.00, -1.00, 0.0, 413.0)"><text xml:space="preserve" font-family="Courier-Bold,Courier" font-weight="bold" font-size="39.0" fill="#000000" transform="matrix(1.00, 0.00, -0.00, -1.00, 0.6, 379.1)">•</text><text xml:space="preserve" font-family="Courier-Bold,Courier" font-weight="bold" font-size="52.0" fill="#000000" transform="matrix(1.00, 0.00, -0.00, -1.00, 50.6, 374.8)">h</text><text xml:space="preserve" font-family="Courier-Bold,Courier" font-weight="bold" font-size="52.0" fill="#000000" transform="matrix(1.00, 0.00, -0.00, -1.00, 81.9, 374.8)">a</text><text xml:space="preserve" font-family="Courier-Bold,Courier" font-weight="bold" font-size="52.0" fill="#000000" transform="matrix(1.00, 0.00, -0.00, -1.00, 113.1, 374.8)">n</text><text xml:space="preserve" font-family="Courier-Bold,Courier" font-weight="bold" font-size="52.0" fill="#000000" transform="matrix(1.00, 0.00, -0.00, -1.00, 144.3, 374.8)">d</text><text xml:space="preserve" font-family="Courier-Bold,Courier" font-weight="bold" font-size="52.0" fill="#000000" transform="matrix(1.00, 0.00, -0.00, -1.00, 175.5, 374.8)">s</text><text xml:space="preserve" font-family="Courier-Bold,Courier" font-weight="bold" font-size="52.0" fill="#000000" transform="matrix(1.00, 0.00, -0.00, -1.00, 206.7, 374.8)">h</text><text xml:space="preserve" font-family="Courier-Bold,Courier" font-weight="bold" font-size="52.0" fill="#000000" transform="matrix(1.00, 0.00, -0.00, -1.00, 237.9, 374.8)">a</text><text xml:space="preserve" font-family="Courier-Bold,Courier" font-weight="bold" font-size="52.0" fill="#000000" transform="matrix(1.00, 0.00, -0.00, -1.00, 269.1, 374.8)">k</text><text xml:space="preserve" font-family="Courier-Bold,Courier" font-weight="bold" font-size="52.0" fill="#000000" transform="matrix(1.00, 0.00, -0.00, -1.00, 300.3, 374.8)">e</text><text xml:space="preserve" font-family="Courier-Bold,Courier" font-weight="bold" font-size="52.0" fill="#000000" transform="matrix(1.00, 0.00, -0.00, -1.00, 331.5, 374.8)">/</text><text xml:space="preserve" font-family="Courier-Bold,Courier" font-weight="bold" font-size="52.0" fill="#000000" transform="matrix(1.00, 0.00, -0.00, -1.00, 362.7, 374.8)">2</text><text xml:space="preserve" font-family="Courier-Bold,Courier" font-weight="bold" font-size="39.0" fill="#000000" transform="matrix(1.00, 0.00, -0.00, -1.00, 0.6, 258.1)">•</text><text xml:space="preserve" font-family="Courier-Bold,Courier" font-weight="bold" font-size="52.0" fill="#000000" transform="matrix(1.00, 0.00, -0.00, -1.00, 50.6, 253.8)">c</text><text xml:space="preserve" font-family="Courier-Bold,Courier" font-weight="bold" font-size="52.0" fill="#000000" transform="matrix(1.00, 0.00, -0.00, -1.00, 81.9, 253.8)">o</text><text xml:space="preserve" font-family="Courier-Bold,Courier" font-weight="bold" font-size="52.0" fill="#000000" transform="matrix(1.00, 0.00, -0.00, -1.00, 113.1, 253.8)">n</text><text xml:space="preserve" font-family="Courier-Bold,Courier" font-weight="bold" font-size="52.0" fill="#000000" transform="matrix(1.00, 0.00, -0.00, -1.00, 144.3, 253.8)">n</text><text xml:space="preserve" font-family="Courier-Bold,Courier" font-weight="bold" font-size="52.0" fill="#000000" transform="matrix(1.00, 0.00, -0.00, -1.00, 175.5, 253.8)">e</text><text xml:space="preserve" font-family="Courier-Bold,Courier" font-weight="bold" font-size="52.0" fill="#000000" transform="matrix(1.00, 0.00, -0.00, -1.00, 206.7, 253.8)">c</text><text xml:space="preserve" font-family="Courier-Bold,Courier" font-weight="bold" font-size="52.0" fill="#000000" transform="matrix(1.00, 0.00, -0.00, -1.00, 237.9, 253.8)">t</text><text xml:space="preserve" font-family="Courier-Bold,Courier" font-weight="bold" font-size="52.0" fill="#000000" transform="matrix(1.00, 0.00, -0.00, -1.00, 269.1, 253.8)">e</text><text xml:space="preserve" font-family="Courier-Bold,Courier" font-weight="bold" font-size="52.0" fill="#000000" transform="matrix(1.00, 0.00, -0.00, -1.00, 300.3, 253.8)">d</text><text xml:space="preserve" font-family="Courier-Bold,Courier" font-weight="bold" font-size="52.0" fill="#000000" transform="matrix(1.00, 0.00, -0.00, -1.00, 331.5, 253.8)">/</text><text xml:space="preserve" font-family="Courier-Bold,Courier" font-weight="bold" font-size="52.0" fill="#000000" transform="matrix(1.00, 0.00, -0.00, -1.00, 362.7, 253.8)">2</text><text xml:space="preserve" font-family="Courier-Bold,Courier" font-weight="bold" font-size="39.0" fill="#000000" transform="matrix(1.00, 0.00, -0.00, -1.00, 0.6, 137.1)">•</text><text xml:space="preserve" font-family="Courier-Bold,Courier" font-weight="bold" font-size="52.0" fill="#000000" transform="matrix(1.00, 0.00, -0.00, -1.00, 50.6, 132.8)">c</text><text xml:space="preserve" font-family="Courier-Bold,Courier" font-weight="bold" font-size="52.0" fill="#000000" transform="matrix(1.00, 0.00, -0.00, -1.00, 81.9, 132.8)">o</text><text xml:space="preserve" font-family="Courier-Bold,Courier" font-weight="bold" font-size="52.0" fill="#000000" transform="matrix(1.00, 0.00, -0.00, -1.00, 113.1, 132.8)">n</text><text xml:space="preserve" font-family="Courier-Bold,Courier" font-weight="bold" font-size="52.0" fill="#000000" transform="matrix(1.00, 0.00, -0.00, -1.00, 144.3, 132.8)">t</text><text xml:space="preserve" font-family="Courier-Bold,Courier" font-weight="bold" font-size="52.0" fill="#000000" transform="matrix(1.00, 0.00, -0.00, -1.00, 175.5, 132.8)">i</text><text xml:space="preserve" font-family="Courier-Bold,Courier" font-weight="bold" font-size="52.0" fill="#000000" transform="matrix(1.00, 0.00, -0.00, -1.00, 206.7, 132.8)">n</text><text xml:space="preserve" font-family="Courier-Bold,Courier" font-weight="bold" font-size="52.0" fill="#000000" transform="matrix(1.00, 0.00, -0.00, -1.00, 237.9, 132.8)">u</text><text xml:space="preserve" font-family="Courier-Bold,Courier" font-weight="bold" font-size="52.0" fill="#000000" transform="matrix(1.00, 0.00, -0.00, -1.00, 269.1, 132.8)">a</text><text xml:space="preserve" font-family="Courier-Bold,Courier" font-weight="bold" font-size="52.0" fill="#000000" transform="matrix(1.00, 0.00, -0.00, -1.00, 300.3, 132.8)">t</text><text xml:space="preserve" font-family="Courier-Bold,Courier" font-weight="bold" font-size="52.0" fill="#000000" transform="matrix(1.00, 0.00, -0.00, -1.00, 331.5, 132.8)">i</text><text xml:space="preserve" font-family="Courier-Bold,Courier" font-weight="bold" font-size="52.0" fill="#000000" transform="matrix(1.00, 0.00, -0.00, -1.00, 362.7, 132.8)">o</text><text xml:space="preserve" font-family="Courier-Bold,Courier" font-weight="bold" font-size="52.0" fill="#000000" transform="matrix(1.00, 0.00, -0.00, -1.00, 394.0, 132.8)">n</text><text xml:space="preserve" font-family="Courier-Bold,Courier" font-weight="bold" font-size="52.0" fill="#000000" transform="matrix(1.00, 0.00, -0.00, -1.00, 425.2, 132.8)">/</text><text xml:space="preserve" font-family="Courier-Bold,Courier" font-weight="bold" font-size="52.0" fill="#000000" transform="matrix(1.00, 0.00, -0.00, -1.00, 456.4, 132.8)">2</text><text xml:space="preserve" font-family="Courier-Bold,Courier" font-weight="bold" font-size="39.0" fill="#000000" transform="matrix(1.00, 0.00, -0.00, -1.00, 0.6, 16.1)">•</text><text xml:space="preserve" font-family="Courier-Bold,Courier" font-weight="bold" font-size="52.0" fill="#000000" transform="matrix(1.00, 0.00, -0.00, -1.00, 50.6, 11.8)">c</text><text xml:space="preserve" font-family="Courier-Bold,Courier" font-weight="bold" font-size="52.0" fill="#000000" transform="matrix(1.00, 0.00, -0.00, -1.00, 81.9, 11.8)">l</text><text xml:space="preserve" font-family="Courier-Bold,Courier" font-weight="bold" font-size="52.0" fill="#000000" transform="matrix(1.00, 0.00, -0.00, -1.00, 113.1, 11.8)">o</text><text xml:space="preserve" font-family="Courier-Bold,Courier" font-weight="bold" font-size="52.0" fill="#000000" transform="matrix(1.00, 0.00, -0.00, -1.00, 144.3, 11.8)">s</text><text xml:space="preserve" font-family="Courier-Bold,Courier" font-weight="bold" font-size="52.0" fill="#000000" transform="matrix(1.00, 0.00, -0.00, -1.00, 175.5, 11.8)">i</text><text xml:space="preserve" font-family="Courier-Bold,Courier" font-weight="bold" font-size="52.0" fill="#000000" transform="matrix(1.00, 0.00, -0.00, -1.00, 206.7, 11.8)">n</text><text xml:space="preserve" font-family="Courier-Bold,Courier" font-weight="bold" font-size="52.0" fill="#000000" transform="matrix(1.00, 0.00, -0.00, -1.00, 237.9, 11.8)">g</text><text xml:space="preserve" font-family="Courier-Bold,Courier" font-weight="bold" font-size="52.0" fill="#000000" transform="matrix(1.00, 0.00, -0.00, -1.00, 269.1, 11.8)">/</text><text xml:space="preserve" font-family="Courier-Bold,Courier" font-weight="bold" font-size="52.0" fill="#000000" transform="matrix(1.00, 0.00, -0.00, -1.00, 300.3, 11.8)">2</text></g></svg>