<?xml version="1.0" encoding="UTF-8" standalone="no"?><svg xmlns="http://www.w3.org/2000/svg" xmlns:xlink="http://www.w3.org/1999/xlink" clip-rule="evenodd" stroke-miterlimit="10" viewBox="0 0 924 109"><desc>SVG generated by Keynote</desc><defs></defs><g transform="matrix(1.00, 0.00, -0.00, -1.00, 0.0, 109.0)"><text xml:space="preserve" font-family="Courier-Bold,Courier" font-weight="bold" font-size="112.0" fill="#000000" transform="matrix(1.00, 0.00, -0.00, -1.00, -2.4, 27.6)">g</text><text xml:space="preserve" font-family="Courier-Bold,Courier" font-weight="bold" font-size="112.0" fill="#000000" transform="matrix(1.00, 0.00, -0.00, -1.00, 64.8, 27.6)">e</text><text xml:space="preserve" font-family="Courier-Bold,Courier" font-weight="bold" font-size="112.0" fill="#000000" transform="matrix(1.00, 0.00, -0.00, -1.00, 132.0, 27.6)">n</text><text xml:space="preserve" font-family="Courier-Bold,Courier" font-weight="bold" font-size="112.0" fill="#000000" transform="matrix(1.00, 0.00, -0.00, -1.00, 199.2, 27.6)">_</text><text xml:space="preserve" font-family="Courier-Bold,Courier" font-weight="bold" font-size="112.0" fill="#000000" transform="matrix(1.00, 0.00, -0.00, -1.00, 266.4, 27.6)">f</text><text xml:space="preserve" font-family="Courier-Bold,Courier" font-weight="bold" font-size="112.0" fill="#000000" transform="matrix(1.00, 0.00, -0.00, -1.00, 333.7, 27.6)">s</text><text xml:space="preserve" font-family="Courier-Bold,Courier" font-weight="bold" font-size="112.0" fill="#000000" transform="matrix(1.00, 0.00, -0.00, -1.00, 400.9, 27.6)">m</text><text xml:space="preserve" font-family="SourceSansPro-Regular,Source Sans Pro" font-size="112.0" fill="#000000" transform="matrix(1.00, 0.00, -0.00, -1.00, 468.0, 27.6)"> </text><text xml:space="preserve" font-family="SourceSansPro-Regular,Source Sans Pro" font-size="112.0" fill="#000000" transform="matrix(1.00, 0.00, -0.00, -1.00, 490.7, 27.6)">c</text><text xml:space="preserve" font-family="SourceSansPro-Regular,Source Sans Pro" font-size="112.0" fill="#000000" transform="matrix(1.00, 0.00, -0.00, -1.00, 540.6, 27.6)">a</text><text xml:space="preserve" font-family="SourceSansPro-Regular,Source Sans Pro" font-size="112.0" fill="#000000" transform="matrix(1.00, 0.00, -0.00, -1.00, 598.0, 27.6)">l</text><text xml:space="preserve" font-family="SourceSansPro-Regular,Source Sans Pro" font-size="112.0" fill="#000000" transform="matrix(1.00, 0.00, -0.00, -1.00, 626.5, 27.6)">l</text><text xml:space="preserve" font-family="SourceSansPro-Regular,Source Sans Pro" font-size="112.0" fill="#000000" transform="matrix(1.00, 0.00, -0.00, -1.00, 655.1, 27.6)">b</text><text xml:space="preserve" font-family="SourceSansPro-Regular,Source Sans Pro" font-size="112.0" fill="#000000" transform="matrix(1.00, 0.00, -0.00, -1.00, 715.7, 27.6)">a</text><text xml:space="preserve" font-family="SourceSansPro-Regular,Source Sans Pro" font-size="112.0" fill="#000000" transform="matrix(1.00, 0.00, -0.00, -1.00, 773.0, 27.6)">c</text><text xml:space="preserve" font-family="SourceSansPro-Regular,Source Sans Pro" font-size="112.0" fill="#000000" transform="matrix(1.00, 0.00, -0.00, -1.00, 824.1, 27.6)">k</text><text xml:space="preserve" font-family="SourceSansPro-Regular,Source Sans Pro" font-size="112.0" fill="#000000" transform="matrix(1.00, 0.00, -0.00, -1.00, 879.5, 27.6)">s</text></g></svg>