<?xml version="1.0" encoding="UTF-8" standalone="no"?><svg xmlns="http://www.w3.org/2000/svg" xmlns:xlink="http://www.w3.org/1999/xlink" clip-rule="evenodd" stroke-miterlimit="10" viewBox="0 0 644 657"><desc>SVG generated by Keynote</desc><defs></defs><g transform="matrix(1.00, 0.00, -0.00, -1.00, 0.0, 657.0)"><text xml:space="preserve" font-family="Courier-Bold,Courier" font-weight="bold" font-size="39.0" fill="#000000" transform="matrix(1.00, 0.00, -0.00, -1.00, 0.0, 623.1)">•</text><text xml:space="preserve" font-family="Courier-Bold,Courier" font-weight="bold" font-size="52.0" fill="#000000" transform="matrix(1.00, 0.00, -0.00, -1.00, 50.0, 618.8)">i</text><text xml:space="preserve" font-family="Courier-Bold,Courier" font-weight="bold" font-size="52.0" fill="#000000" transform="matrix(1.00, 0.00, -0.00, -1.00, 81.2, 618.8)">n</text><text xml:space="preserve" font-family="Courier-Bold,Courier" font-weight="bold" font-size="52.0" fill="#000000" transform="matrix(1.00, 0.00, -0.00, -1.00, 112.4, 618.8)">i</text><text xml:space="preserve" font-family="Courier-Bold,Courier" font-weight="bold" font-size="52.0" fill="#000000" transform="matrix(1.00, 0.00, -0.00, -1.00, 143.6, 618.8)">t</text><text xml:space="preserve" font-family="Courier-Bold,Courier" font-weight="bold" font-size="52.0" fill="#000000" transform="matrix(1.00, 0.00, -0.00, -1.00, 174.8, 618.8)">/</text><text xml:space="preserve" font-family="Courier-Bold,Courier" font-weight="bold" font-size="52.0" fill="#000000" transform="matrix(1.00, 0.00, -0.00, -1.00, 206.1, 618.8)">1</text><text xml:space="preserve" font-family="Courier-Bold,Courier" font-weight="bold" font-size="39.0" fill="#000000" transform="matrix(1.00, 0.00, -0.00, -1.00, 0.0, 502.1)">•</text><text xml:space="preserve" font-family="Courier-Bold,Courier" font-weight="bold" font-size="52.0" fill="#000000" transform="matrix(1.00, 0.00, -0.00, -1.00, 50.0, 497.8)">t</text><text xml:space="preserve" font-family="Courier-Bold,Courier" font-weight="bold" font-size="52.0" fill="#000000" transform="matrix(1.00, 0.00, -0.00, -1.00, 81.2, 497.8)">e</text><text xml:space="preserve" font-family="Courier-Bold,Courier" font-weight="bold" font-size="52.0" fill="#000000" transform="matrix(1.00, 0.00, -0.00, -1.00, 112.4, 497.8)">r</text><text xml:space="preserve" font-family="Courier-Bold,Courier" font-weight="bold" font-size="52.0" fill="#000000" transform="matrix(1.00, 0.00, -0.00, -1.00, 143.6, 497.8)">m</text><text xml:space="preserve" font-family="Courier-Bold,Courier" font-weight="bold" font-size="52.0" fill="#000000" transform="matrix(1.00, 0.00, -0.00, -1.00, 174.8, 497.8)">i</text><text xml:space="preserve" font-family="Courier-Bold,Courier" font-weight="bold" font-size="52.0" fill="#000000" transform="matrix(1.00, 0.00, -0.00, -1.00, 206.1, 497.8)">n</text><text xml:space="preserve" font-family="Courier-Bold,Courier" font-weight="bold" font-size="52.0" fill="#000000" transform="matrix(1.00, 0.00, -0.00, -1.00, 237.3, 497.8)">a</text><text xml:space="preserve" font-family="Courier-Bold,Courier" font-weight="bold" font-size="52.0" fill="#000000" transform="matrix(1.00, 0.00, -0.00, -1.00, 268.5, 497.8)">t</text><text xml:space="preserve" font-family="Courier-Bold,Courier" font-weight="bold" font-size="52.0" fill="#000000" transform="matrix(1.00, 0.00, -0.00, -1.00, 299.7, 497.8)">e</text><text xml:space="preserve" font-family="Courier-Bold,Courier" font-weight="bold" font-size="52.0" fill="#000000" transform="matrix(1.00, 0.00, -0.00, -1.00, 330.9, 497.8)">/</text><text xml:space="preserve" font-family="Courier-Bold,Courier" font-weight="bold" font-size="52.0" fill="#000000" transform="matrix(1.00, 0.00, -0.00, -1.00, 362.1, 497.8)">3</text><text xml:space="preserve" font-family="Courier-Bold,Courier" font-weight="bold" font-size="39.0" fill="#000000" transform="matrix(1.00, 0.00, -0.00, -1.00, 0.0, 381.1)">•</text><text xml:space="preserve" font-family="Courier-Bold,Courier" font-weight="bold" font-size="52.0" fill="#000000" transform="matrix(1.00, 0.00, -0.00, -1.00, 50.0, 376.8)">h</text><text xml:space="preserve" font-family="Courier-Bold,Courier" font-weight="bold" font-size="52.0" fill="#000000" transform="matrix(1.00, 0.00, -0.00, -1.00, 81.2, 376.8)">a</text><text xml:space="preserve" font-family="Courier-Bold,Courier" font-weight="bold" font-size="52.0" fill="#000000" transform="matrix(1.00, 0.00, -0.00, -1.00, 112.4, 376.8)">n</text><text xml:space="preserve" font-family="Courier-Bold,Courier" font-weight="bold" font-size="52.0" fill="#000000" transform="matrix(1.00, 0.00, -0.00, -1.00, 143.6, 376.8)">d</text><text xml:space="preserve" font-family="Courier-Bold,Courier" font-weight="bold" font-size="52.0" fill="#000000" transform="matrix(1.00, 0.00, -0.00, -1.00, 174.8, 376.8)">l</text><text xml:space="preserve" font-family="Courier-Bold,Courier" font-weight="bold" font-size="52.0" fill="#000000" transform="matrix(1.00, 0.00, -0.00, -1.00, 206.1, 376.8)">e</text><text xml:space="preserve" font-family="Courier-Bold,Courier" font-weight="bold" font-size="52.0" fill="#000000" transform="matrix(1.00, 0.00, -0.00, -1.00, 237.3, 376.8)">_</text><text xml:space="preserve" font-family="Courier-Bold,Courier" font-weight="bold" font-size="52.0" fill="#000000" transform="matrix(1.00, 0.00, -0.00, -1.00, 268.5, 376.8)">e</text><text xml:space="preserve" font-family="Courier-Bold,Courier" font-weight="bold" font-size="52.0" fill="#000000" transform="matrix(1.00, 0.00, -0.00, -1.00, 299.7, 376.8)">v</text><text xml:space="preserve" font-family="Courier-Bold,Courier" font-weight="bold" font-size="52.0" fill="#000000" transform="matrix(1.00, 0.00, -0.00, -1.00, 330.9, 376.8)">e</text><text xml:space="preserve" font-family="Courier-Bold,Courier" font-weight="bold" font-size="52.0" fill="#000000" transform="matrix(1.00, 0.00, -0.00, -1.00, 362.1, 376.8)">n</text><text xml:space="preserve" font-family="Courier-Bold,Courier" font-weight="bold" font-size="52.0" fill="#000000" transform="matrix(1.00, 0.00, -0.00, -1.00, 393.3, 376.8)">t</text><text xml:space="preserve" font-family="Courier-Bold,Courier" font-weight="bold" font-size="52.0" fill="#000000" transform="matrix(1.00, 0.00, -0.00, -1.00, 424.5, 376.8)">/</text><text xml:space="preserve" font-family="Courier-Bold,Courier" font-weight="bold" font-size="52.0" fill="#000000" transform="matrix(1.00, 0.00, -0.00, -1.00, 455.7, 376.8)">3</text><text xml:space="preserve" font-family="Courier-Bold,Courier" font-weight="bold" font-size="39.0" fill="#000000" transform="matrix(1.00, 0.00, -0.00, -1.00, 0.0, 260.1)">•</text><text xml:space="preserve" font-family="Courier-Bold,Courier" font-weight="bold" font-size="52.0" fill="#000000" transform="matrix(1.00, 0.00, -0.00, -1.00, 50.0, 255.8)">h</text><text xml:space="preserve" font-family="Courier-Bold,Courier" font-weight="bold" font-size="52.0" fill="#000000" transform="matrix(1.00, 0.00, -0.00, -1.00, 81.2, 255.8)">a</text><text xml:space="preserve" font-family="Courier-Bold,Courier" font-weight="bold" font-size="52.0" fill="#000000" transform="matrix(1.00, 0.00, -0.00, -1.00, 112.4, 255.8)">n</text><text xml:space="preserve" font-family="Courier-Bold,Courier" font-weight="bold" font-size="52.0" fill="#000000" transform="matrix(1.00, 0.00, -0.00, -1.00, 143.6, 255.8)">d</text><text xml:space="preserve" font-family="Courier-Bold,Courier" font-weight="bold" font-size="52.0" fill="#000000" transform="matrix(1.00, 0.00, -0.00, -1.00, 174.8, 255.8)">l</text><text xml:space="preserve" font-family="Courier-Bold,Courier" font-weight="bold" font-size="52.0" fill="#000000" transform="matrix(1.00, 0.00, -0.00, -1.00, 206.1, 255.8)">e</text><text xml:space="preserve" font-family="Courier-Bold,Courier" font-weight="bold" font-size="52.0" fill="#000000" transform="matrix(1.00, 0.00, -0.00, -1.00, 237.3, 255.8)">_</text><text xml:space="preserve" font-family="Courier-Bold,Courier" font-weight="bold" font-size="52.0" fill="#000000" transform="matrix(1.00, 0.00, -0.00, -1.00, 268.5, 255.8)">s</text><text xml:space="preserve" font-family="Courier-Bold,Courier" font-weight="bold" font-size="52.0" fill="#000000" transform="matrix(1.00, 0.00, -0.00, -1.00, 299.7, 255.8)">y</text><text xml:space="preserve" font-family="Courier-Bold,Courier" font-weight="bold" font-size="52.0" fill="#000000" transform="matrix(1.00, 0.00, -0.00, -1.00, 330.9, 255.8)">n</text><text xml:space="preserve" font-family="Courier-Bold,Courier" font-weight="bold" font-size="52.0" fill="#000000" transform="matrix(1.00, 0.00, -0.00, -1.00, 362.1, 255.8)">c</text><text xml:space="preserve" font-family="Courier-Bold,Courier" font-weight="bold" font-size="52.0" fill="#000000" transform="matrix(1.00, 0.00, -0.00, -1.00, 393.3, 255.8)">_</text><text xml:space="preserve" font-family="Courier-Bold,Courier" font-weight="bold" font-size="52.0" fill="#000000" transform="matrix(1.00, 0.00, -0.00, -1.00, 424.5, 255.8)">e</text><text xml:space="preserve" font-family="Courier-Bold,Courier" font-weight="bold" font-size="52.0" fill="#000000" transform="matrix(1.00, 0.00, -0.00, -1.00, 455.7, 255.8)">v</text><text xml:space="preserve" font-family="Courier-Bold,Courier" font-weight="bold" font-size="52.0" fill="#000000" transform="matrix(1.00, 0.00, -0.00, -1.00, 486.9, 255.8)">e</text><text xml:space="preserve" font-family="Courier-Bold,Courier" font-weight="bold" font-size="52.0" fill="#000000" transform="matrix(1.00, 0.00, -0.00, -1.00, 518.2, 255.8)">n</text><text xml:space="preserve" font-family="Courier-Bold,Courier" font-weight="bold" font-size="52.0" fill="#000000" transform="matrix(1.00, 0.00, -0.00, -1.00, 549.4, 255.8)">t</text><text xml:space="preserve" font-family="Courier-Bold,Courier" font-weight="bold" font-size="52.0" fill="#000000" transform="matrix(1.00, 0.00, -0.00, -1.00, 580.6, 255.8)">/</text><text xml:space="preserve" font-family="Courier-Bold,Courier" font-weight="bold" font-size="52.0" fill="#000000" transform="matrix(1.00, 0.00, -0.00, -1.00, 611.8, 255.8)">4</text><text xml:space="preserve" font-family="Courier-Bold,Courier" font-weight="bold" font-size="39.0" fill="#000000" transform="matrix(1.00, 0.00, -0.00, -1.00, 0.0, 139.1)">•</text><text xml:space="preserve" font-family="Courier-Bold,Courier" font-weight="bold" font-size="52.0" fill="#000000" transform="matrix(1.00, 0.00, -0.00, -1.00, 50.0, 134.8)">h</text><text xml:space="preserve" font-family="Courier-Bold,Courier" font-weight="bold" font-size="52.0" fill="#000000" transform="matrix(1.00, 0.00, -0.00, -1.00, 81.2, 134.8)">a</text><text xml:space="preserve" font-family="Courier-Bold,Courier" font-weight="bold" font-size="52.0" fill="#000000" transform="matrix(1.00, 0.00, -0.00, -1.00, 112.4, 134.8)">n</text><text xml:space="preserve" font-family="Courier-Bold,Courier" font-weight="bold" font-size="52.0" fill="#000000" transform="matrix(1.00, 0.00, -0.00, -1.00, 143.6, 134.8)">d</text><text xml:space="preserve" font-family="Courier-Bold,Courier" font-weight="bold" font-size="52.0" fill="#000000" transform="matrix(1.00, 0.00, -0.00, -1.00, 174.8, 134.8)">l</text><text xml:space="preserve" font-family="Courier-Bold,Courier" font-weight="bold" font-size="52.0" fill="#000000" transform="matrix(1.00, 0.00, -0.00, -1.00, 206.1, 134.8)">e</text><text xml:space="preserve" font-family="Courier-Bold,Courier" font-weight="bold" font-size="52.0" fill="#000000" transform="matrix(1.00, 0.00, -0.00, -1.00, 237.3, 134.8)">_</text><text xml:space="preserve" font-family="Courier-Bold,Courier" font-weight="bold" font-size="52.0" fill="#000000" transform="matrix(1.00, 0.00, -0.00, -1.00, 268.5, 134.8)">i</text><text xml:space="preserve" font-family="Courier-Bold,Courier" font-weight="bold" font-size="52.0" fill="#000000" transform="matrix(1.00, 0.00, -0.00, -1.00, 299.7, 134.8)">n</text><text xml:space="preserve" font-family="Courier-Bold,Courier" font-weight="bold" font-size="52.0" fill="#000000" transform="matrix(1.00, 0.00, -0.00, -1.00, 330.9, 134.8)">f</text><text xml:space="preserve" font-family="Courier-Bold,Courier" font-weight="bold" font-size="52.0" fill="#000000" transform="matrix(1.00, 0.00, -0.00, -1.00, 362.1, 134.8)">o</text><text xml:space="preserve" font-family="Courier-Bold,Courier" font-weight="bold" font-size="52.0" fill="#000000" transform="matrix(1.00, 0.00, -0.00, -1.00, 393.3, 134.8)">/</text><text xml:space="preserve" font-family="Courier-Bold,Courier" font-weight="bold" font-size="52.0" fill="#000000" transform="matrix(1.00, 0.00, -0.00, -1.00, 424.5, 134.8)">3</text><text xml:space="preserve" font-family="Courier-Bold,Courier" font-weight="bold" font-size="39.0" fill="#000000" transform="matrix(1.00, 0.00, -0.00, -1.00, 0.0, 18.1)">•</text><text xml:space="preserve" font-family="Courier-Bold,Courier" font-weight="bold" font-size="52.0" fill="#000000" transform="matrix(1.00, 0.00, -0.00, -1.00, 50.0, 13.8)">c</text><text xml:space="preserve" font-family="Courier-Bold,Courier" font-weight="bold" font-size="52.0" fill="#000000" transform="matrix(1.00, 0.00, -0.00, -1.00, 81.2, 13.8)">o</text><text xml:space="preserve" font-family="Courier-Bold,Courier" font-weight="bold" font-size="52.0" fill="#000000" transform="matrix(1.00, 0.00, -0.00, -1.00, 112.4, 13.8)">d</text><text xml:space="preserve" font-family="Courier-Bold,Courier" font-weight="bold" font-size="52.0" fill="#000000" transform="matrix(1.00, 0.00, -0.00, -1.00, 143.6, 13.8)">e</text><text xml:space="preserve" font-family="Courier-Bold,Courier" font-weight="bold" font-size="52.0" fill="#000000" transform="matrix(1.00, 0.00, -0.00, -1.00, 174.8, 13.8)">_</text><text xml:space="preserve" font-family="Courier-Bold,Courier" font-weight="bold" font-size="52.0" fill="#000000" transform="matrix(1.00, 0.00, -0.00, -1.00, 206.1, 13.8)">c</text><text xml:space="preserve" font-family="Courier-Bold,Courier" font-weight="bold" font-size="52.0" fill="#000000" transform="matrix(1.00, 0.00, -0.00, -1.00, 237.3, 13.8)">h</text><text xml:space="preserve" font-family="Courier-Bold,Courier" font-weight="bold" font-size="52.0" fill="#000000" transform="matrix(1.00, 0.00, -0.00, -1.00, 268.5, 13.8)">a</text><text xml:space="preserve" font-family="Courier-Bold,Courier" font-weight="bold" font-size="52.0" fill="#000000" transform="matrix(1.00, 0.00, -0.00, -1.00, 299.7, 13.8)">n</text><text xml:space="preserve" font-family="Courier-Bold,Courier" font-weight="bold" font-size="52.0" fill="#000000" transform="matrix(1.00, 0.00, -0.00, -1.00, 330.9, 13.8)">g</text><text xml:space="preserve" font-family="Courier-Bold,Courier" font-weight="bold" font-size="52.0" fill="#000000" transform="matrix(1.00, 0.00, -0.00, -1.00, 362.1, 13.8)">e</text><text xml:space="preserve" font-family="Courier-Bold,Courier" font-weight="bold" font-size="52.0" fill="#000000" transform="matrix(1.00, 0.00, -0.00, -1.00, 393.3, 13.8)">/</text><text xml:space="preserve" font-family="Courier-Bold,Courier" font-weight="bold" font-size="52.0" fill="#000000" transform="matrix(1.00, 0.00, -0.00, -1.00, 424.5, 13.8)">4</text></g></svg>