<?xml version="1.0" encoding="UTF-8" standalone="no"?><svg xmlns="http://www.w3.org/2000/svg" xmlns:xlink="http://www.w3.org/1999/xlink" clip-rule="evenodd" stroke-miterlimit="10" viewBox="0 0 1920 1080"><desc>SVG generated by Keynote</desc><defs><linearGradient id="gradSh1.592" x1="-72.0" y1="0.0" x2="72.0" y2="0.0" gradientUnits="userSpaceOnUse" gradientTransform="matrix(0.00, -1.00, -1.00, 0.00, 1375.0, 772.0)"><stop offset="0.00000" stop-color="#FFFFFF"></stop><stop offset="0.01833" stop-color="#FEFEFE"></stop><stop offset="1.00000" stop-color="#E3E3E3"></stop></linearGradient><linearGradient id="gradSh2.593" x1="-72.0" y1="0.0" x2="72.0" y2="0.0" gradientUnits="userSpaceOnUse" gradientTransform="matrix(0.00, -1.00, -1.00, 0.00, 1570.0, 772.0)"><stop offset="0.00000" stop-color="#FF9D3A"></stop><stop offset="0.00806" stop-color="#FF9C3A"></stop><stop offset="0.48607" stop-color="#E6781F"></stop><stop offset="0.49120" stop-color="#E6771F"></stop><stop offset="0.77419" stop-color="#D8620F"></stop><stop offset="0.77786" stop-color="#D8610F"></stop><stop offset="0.91789" stop-color="#D05707"></stop><stop offset="0.92155" stop-color="#D05607"></stop><stop offset="0.98974" stop-color="#CD5103"></stop><stop offset="0.99707" stop-color="#CC5103"></stop><stop offset="1.00000" stop-color="#CC5003"></stop></linearGradient><linearGradient id="gradSh3.594" x1="-26.1" y1="0.0" x2="26.1" y2="0.0" gradientUnits="userSpaceOnUse" gradientTransform="matrix(0.00, -1.00, -1.00, 0.00, 1083.0, 852.9)"><stop offset="0.00000" stop-color="#FFCF40"></stop><stop offset="0.00147" stop-color="#FFCF3F"></stop><stop offset="0.01026" stop-color="#FFCE3F"></stop><stop offset="0.50440" stop-color="#EEAD1F"></stop><stop offset="0.51979" stop-color="#EEAC1F"></stop><stop offset="0.75660" stop-color="#E69D0F"></stop><stop offset="0.75953" stop-color="#E69C0F"></stop><stop offset="0.88270" stop-color="#E29407"></stop><stop offset="0.88710" stop-color="#E19407"></stop><stop offset="0.94501" stop-color="#E09003"></stop><stop offset="0.94721" stop-color="#DF9003"></stop><stop offset="0.97654" stop-color="#DF8E01"></stop><stop offset="0.97727" stop-color="#DE8E01"></stop><stop offset="0.99267" stop-color="#DE8D00"></stop><stop offset="0.99927" stop-color="#DE8C00"></stop><stop offset="1.00000" stop-color="#DE8C00"></stop></linearGradient><linearGradient id="gradSh4.595" x1="-29.2" y1="0.0" x2="29.2" y2="0.0" gradientUnits="userSpaceOnUse" gradientTransform="matrix(0.00, -1.00, -1.00, 0.00, 1083.0, 797.5)"><stop offset="0.00000" stop-color="#797BD5"></stop><stop offset="0.00367" stop-color="#797AD5"></stop><stop offset="0.78152" stop-color="#3F468B"></stop><stop offset="0.78886" stop-color="#3F458A"></stop><stop offset="1.00000" stop-color="#2F3776"></stop></linearGradient><linearGradient id="gradSh5.596" x1="-29.2" y1="0.0" x2="29.2" y2="0.0" gradientUnits="userSpaceOnUse" gradientTransform="matrix(0.00, -1.00, -1.00, 0.00, 1083.0, 738.7)"><stop offset="0.00000" stop-color="#E97373"></stop><stop offset="0.00513" stop-color="#E87373"></stop><stop offset="0.62537" stop-color="#BE3F3F"></stop><stop offset="0.63783" stop-color="#BE3E3E"></stop><stop offset="1.00000" stop-color="#A52121"></stop></linearGradient><linearGradient id="gradSh6.597" x1="-26.1" y1="0.0" x2="26.1" y2="0.0" gradientUnits="userSpaceOnUse" gradientTransform="matrix(0.00, -1.00, -1.00, 0.00, 1083.0, 687.8)"><stop offset="0.00000" stop-color="#86D040"></stop><stop offset="0.00073" stop-color="#85D040"></stop><stop offset="0.14956" stop-color="#7BC33F"></stop><stop offset="0.15029" stop-color="#7AC23F"></stop><stop offset="1.00000" stop-color="#3C773C"></stop></linearGradient><linearGradient id="gradSh7.598" x1="-72.0" y1="0.0" x2="72.0" y2="0.0" gradientUnits="userSpaceOnUse" gradientTransform="matrix(0.00, -1.00, -1.00, 0.00, 1055.0, 337.0)"><stop offset="0.00000" stop-color="#FF9D3A"></stop><stop offset="0.00806" stop-color="#FF9C3A"></stop><stop offset="0.48607" stop-color="#E6781F"></stop><stop offset="0.49120" stop-color="#E6771F"></stop><stop offset="0.77419" stop-color="#D8620F"></stop><stop offset="0.77786" stop-color="#D8610F"></stop><stop offset="0.91789" stop-color="#D05707"></stop><stop offset="0.92155" stop-color="#D05607"></stop><stop offset="0.98974" stop-color="#CD5103"></stop><stop offset="0.99707" stop-color="#CC5103"></stop><stop offset="1.00000" stop-color="#CC5003"></stop></linearGradient><linearGradient id="gradSh8.599" x1="-72.0" y1="0.0" x2="72.0" y2="0.0" gradientUnits="userSpaceOnUse" gradientTransform="matrix(0.00, -1.00, -1.00, 0.00, 865.0, 337.0)"><stop offset="0.00000" stop-color="#FFFFFF"></stop><stop offset="0.01833" stop-color="#FEFEFE"></stop><stop offset="1.00000" stop-color="#E3E3E3"></stop></linearGradient></defs><g transform="matrix(1.00, 0.00, -0.00, -1.00, 0.0, 1080.0)"><path d="M 0.0 1080.0 L 1920.0 1080.0 L 1920.0 0.0 L 0.0 0.0 Z M 0.0 1080.0 " fill="#FEFFFF"></path><g><clipPath id="clip0x7fd40edac300"><path d="M 153.6 729.9 L 1766.4 729.9 L 1766.4 823.4 L 153.6 823.4 Z M 153.6 729.9 "></path></clipPath><g clip-path="url(#clip0x7fd40edac300)"><text xml:space="preserve" font-family="Courier-Bold,Courier" font-weight="bold" font-size="55.0" fill="#4271AE" transform="matrix(1.00, 0.00, -0.00, -1.00, 167.4, 757.1)">h</text><text xml:space="preserve" font-family="Courier-Bold,Courier" font-weight="bold" font-size="55.0" fill="#4271AE" transform="matrix(1.00, 0.00, -0.00, -1.00, 200.4, 757.1)">t</text><text xml:space="preserve" font-family="Courier-Bold,Courier" font-weight="bold" font-size="55.0" fill="#4271AE" transform="matrix(1.00, 0.00, -0.00, -1.00, 233.4, 757.1)">t</text><text xml:space="preserve" font-family="Courier-Bold,Courier" font-weight="bold" font-size="55.0" fill="#4271AE" transform="matrix(1.00, 0.00, -0.00, -1.00, 266.4, 757.1)">p</text><text xml:space="preserve" font-family="Courier-Bold,Courier" font-weight="bold" font-size="55.0" fill="#4271AE" transform="matrix(1.00, 0.00, -0.00, -1.00, 299.4, 757.1)">2</text><text xml:space="preserve" font-family="Courier-Bold,Courier" font-weight="bold" font-size="55.0" fill="#4271AE" transform="matrix(1.00, 0.00, -0.00, -1.00, 332.4, 757.1)">_</text><text xml:space="preserve" font-family="Courier-Bold,Courier" font-weight="bold" font-size="55.0" fill="#4271AE" transform="matrix(1.00, 0.00, -0.00, -1.00, 365.4, 757.1)">s</text><text xml:space="preserve" font-family="Courier-Bold,Courier" font-weight="bold" font-size="55.0" fill="#4271AE" transform="matrix(1.00, 0.00, -0.00, -1.00, 398.4, 757.1)">t</text><text xml:space="preserve" font-family="Courier-Bold,Courier" font-weight="bold" font-size="55.0" fill="#4271AE" transform="matrix(1.00, 0.00, -0.00, -1.00, 431.5, 757.1)">r</text><text xml:space="preserve" font-family="Courier-Bold,Courier" font-weight="bold" font-size="55.0" fill="#4271AE" transform="matrix(1.00, 0.00, -0.00, -1.00, 464.5, 757.1)">e</text><text xml:space="preserve" font-family="Courier-Bold,Courier" font-weight="bold" font-size="55.0" fill="#4271AE" transform="matrix(1.00, 0.00, -0.00, -1.00, 497.5, 757.1)">a</text><text xml:space="preserve" font-family="Courier-Bold,Courier" font-weight="bold" font-size="55.0" fill="#4271AE" transform="matrix(1.00, 0.00, -0.00, -1.00, 530.5, 757.1)">m</text><text xml:space="preserve" font-family="Courier-Bold,Courier" font-weight="bold" font-size="55.0" fill="#000000" transform="matrix(1.00, 0.00, -0.00, -1.00, 563.4, 757.1)">:</text><text xml:space="preserve" font-family="Courier-Bold,Courier" font-weight="bold" font-size="55.0" fill="#4271AE" transform="matrix(1.00, 0.00, -0.00, -1.00, 596.4, 757.1)">r</text><text xml:space="preserve" font-family="Courier-Bold,Courier" font-weight="bold" font-size="55.0" fill="#4271AE" transform="matrix(1.00, 0.00, -0.00, -1.00, 629.5, 757.1)">e</text><text xml:space="preserve" font-family="Courier-Bold,Courier" font-weight="bold" font-size="55.0" fill="#4271AE" transform="matrix(1.00, 0.00, -0.00, -1.00, 662.5, 757.1)">c</text><text xml:space="preserve" font-family="Courier-Bold,Courier" font-weight="bold" font-size="55.0" fill="#4271AE" transform="matrix(1.00, 0.00, -0.00, -1.00, 695.5, 757.1)">v</text><text xml:space="preserve" font-family="Courier-Bold,Courier" font-weight="bold" font-size="55.0" fill="#4271AE" transform="matrix(1.00, 0.00, -0.00, -1.00, 728.5, 757.1)">_</text><text xml:space="preserve" font-family="Courier-Bold,Courier" font-weight="bold" font-size="55.0" fill="#4271AE" transform="matrix(1.00, 0.00, -0.00, -1.00, 761.5, 757.1)">f</text><text xml:space="preserve" font-family="Courier-Bold,Courier" font-weight="bold" font-size="55.0" fill="#4271AE" transform="matrix(1.00, 0.00, -0.00, -1.00, 794.5, 757.1)">r</text><text xml:space="preserve" font-family="Courier-Bold,Courier" font-weight="bold" font-size="55.0" fill="#4271AE" transform="matrix(1.00, 0.00, -0.00, -1.00, 827.5, 757.1)">a</text><text xml:space="preserve" font-family="Courier-Bold,Courier" font-weight="bold" font-size="55.0" fill="#4271AE" transform="matrix(1.00, 0.00, -0.00, -1.00, 860.5, 757.1)">m</text><text xml:space="preserve" font-family="Courier-Bold,Courier" font-weight="bold" font-size="55.0" fill="#4271AE" transform="matrix(1.00, 0.00, -0.00, -1.00, 893.5, 757.1)">e</text><text xml:space="preserve" font-family="Courier-Bold,Courier" font-weight="bold" font-size="55.0" fill="#000000" transform="matrix(1.00, 0.00, -0.00, -1.00, 926.5, 757.1)">(</text><text xml:space="preserve" font-family="Courier-Bold,Courier" font-weight="bold" font-size="55.0" fill="#000000" transform="matrix(1.00, 0.00, -0.00, -1.00, 959.5, 757.1)"> </text><text xml:space="preserve" font-family="Courier-Bold,Courier" font-weight="bold" font-size="55.0" fill="#000000" transform="matrix(1.00, 0.00, -0.00, -1.00, 992.5, 757.1)"> </text><text xml:space="preserve" font-family="Courier-Bold,Courier" font-weight="bold" font-size="55.0" fill="#000000" transform="matrix(1.00, 0.00, -0.00, -1.00, 1025.5, 757.1)"> </text><text xml:space="preserve" font-family="Courier-Bold,Courier" font-weight="bold" font-size="55.0" fill="#000000" transform="matrix(1.00, 0.00, -0.00, -1.00, 1058.5, 757.1)"> </text><text xml:space="preserve" font-family="Courier-Bold,Courier" font-weight="bold" font-size="55.0" fill="#000000" transform="matrix(1.00, 0.00, -0.00, -1.00, 1091.5, 757.1)"> </text><text xml:space="preserve" font-family="Courier-Bold,Courier" font-weight="bold" font-size="55.0" fill="#000000" transform="matrix(1.00, 0.00, -0.00, -1.00, 1124.6, 757.1)"> </text><text xml:space="preserve" font-family="Courier-Bold,Courier" font-weight="bold" font-size="55.0" fill="#000000" transform="matrix(1.00, 0.00, -0.00, -1.00, 1157.6, 757.1)"> </text><text xml:space="preserve" font-family="Courier-Bold,Courier" font-weight="bold" font-size="55.0" fill="#000000" transform="matrix(1.00, 0.00, -0.00, -1.00, 1190.6, 757.1)">,</text><text xml:space="preserve" font-family="Courier-Bold,Courier" font-weight="bold" font-size="55.0" fill="#000000" transform="matrix(1.00, 0.00, -0.00, -1.00, 1223.6, 757.1)"> </text><text xml:space="preserve" font-family="Courier-Bold,Courier" font-weight="bold" font-size="55.0" fill="#000000" transform="matrix(1.00, 0.00, -0.00, -1.00, 1256.6, 757.1)">{</text><text xml:space="preserve" font-family="Courier-Bold,Courier" font-weight="bold" font-size="55.0" fill="#000000" transform="matrix(1.00, 0.00, -0.00, -1.00, 1289.6, 757.1)"> </text><text xml:space="preserve" font-family="Courier-Bold,Courier" font-weight="bold" font-size="55.0" fill="#000000" transform="matrix(1.00, 0.00, -0.00, -1.00, 1322.6, 757.1)"> </text><text xml:space="preserve" font-family="Courier-Bold,Courier" font-weight="bold" font-size="55.0" fill="#000000" transform="matrix(1.00, 0.00, -0.00, -1.00, 1355.6, 757.1)"> </text><text xml:space="preserve" font-family="Courier-Bold,Courier" font-weight="bold" font-size="55.0" fill="#000000" transform="matrix(1.00, 0.00, -0.00, -1.00, 1388.6, 757.1)"> </text><text xml:space="preserve" font-family="Courier-Bold,Courier" font-weight="bold" font-size="55.0" fill="#000000" transform="matrix(1.00, 0.00, -0.00, -1.00, 1421.7, 757.1)"> </text><text xml:space="preserve" font-family="Courier-Bold,Courier" font-weight="bold" font-size="55.0" fill="#000000" transform="matrix(1.00, 0.00, -0.00, -1.00, 1454.7, 757.1)">,</text><text xml:space="preserve" font-family="Courier-Bold,Courier" font-weight="bold" font-size="55.0" fill="#000000" transform="matrix(1.00, 0.00, -0.00, -1.00, 1487.7, 757.1)"> </text><text xml:space="preserve" font-family="Courier-Bold,Courier" font-weight="bold" font-size="55.0" fill="#000000" transform="matrix(1.00, 0.00, -0.00, -1.00, 1520.7, 757.1)"> </text><text xml:space="preserve" font-family="Courier-Bold,Courier" font-weight="bold" font-size="55.0" fill="#000000" transform="matrix(1.00, 0.00, -0.00, -1.00, 1553.7, 757.1)"> </text><text xml:space="preserve" font-family="Courier-Bold,Courier" font-weight="bold" font-size="55.0" fill="#000000" transform="matrix(1.00, 0.00, -0.00, -1.00, 1586.7, 757.1)"> </text><text xml:space="preserve" font-family="Courier-Bold,Courier" font-weight="bold" font-size="55.0" fill="#000000" transform="matrix(1.00, 0.00, -0.00, -1.00, 1619.7, 757.1)"> </text><text xml:space="preserve" font-family="Courier-Bold,Courier" font-weight="bold" font-size="55.0" fill="#000000" transform="matrix(1.00, 0.00, -0.00, -1.00, 1652.6, 757.1)">}</text><text xml:space="preserve" font-family="Courier-Bold,Courier" font-weight="bold" font-size="55.0" fill="#000000" transform="matrix(1.00, 0.00, -0.00, -1.00, 1685.6, 757.1)">)</text><text xml:space="preserve" font-family="Courier-Bold,Courier" font-weight="bold" font-size="55.0" fill="#000000" transform="matrix(1.00, 0.00, -0.00, -1.00, 1718.6, 757.1)">,</text></g></g><g><clipPath id="clip0x7fd40edd4330"><path d="M 1298.2 693.0 L 1452.0 693.0 L 1452.0 846.6 L 1298.2 846.6 Z M 1298.2 693.0 "></path></clipPath><g clip-path="url(#clip0x7fd40edd4330)"><image xlink:href="../../F36A6F62-F7B3-45ED-9907-0EDA78A152D7/assets/26D63AB0A3D55BB2EC547125617D0F43.png" width="154.00" height="154.00" transform="matrix(1.00, 0.00, -0.00, 1.00, 1298.0, 693.0)"></image></g></g><g><clipPath id="clip0x7fd40eb90020"><path d="M 1307.0 844.0 L 1443.0 844.0 C 1445.2 844.0 1447.0 842.2 1447.0 840.0 L 1447.0 704.0 C 1447.0 701.8 1445.2 700.0 1443.0 700.0 L 1307.0 700.0 C 1304.8 700.0 1303.0 701.8 1303.0 704.0 L 1303.0 840.0 C 1303.0 842.2 1304.8 844.0 1307.0 844.0 Z M 1307.0 844.0 "></path></clipPath><g clip-path="url(#clip0x7fd40eb90020)"><g><clipPath id="clip0x7fd40eb908a0"><path d="M 1298.2 693.0 L 1452.0 693.0 L 1452.0 846.6 L 1298.2 846.6 Z M 1298.2 693.0 "></path></clipPath><g clip-path="url(#clip0x7fd40eb908a0)"><path d="M 1298.2 693.0 L 1452.0 693.0 L 1452.0 846.6 L 1298.2 846.6 Z M 1298.2 693.0 " fill="url(#gradSh1.592)"></path></g></g></g></g><g><clipPath id="clip0x7fd40ebdfaa0"><path d="M 1298.2 693.0 L 1452.0 693.0 L 1452.0 846.6 L 1298.2 846.6 Z M 1298.2 693.0 "></path></clipPath><g clip-path="url(#clip0x7fd40ebdfaa0)"><path d="M 652.0 144.0 L 788.0 144.0 C 790.2 144.0 792.0 145.8 792.0 148.0 L 792.0 284.0 C 792.0 286.2 790.2 288.0 788.0 288.0 L 652.0 288.0 C 649.8 288.0 648.0 286.2 648.0 284.0 L 648.0 148.0 C 648.0 145.8 649.8 144.0 652.0 144.0 Z M 652.0 144.0 " fill="none" stroke="#AAAAAA" stroke-width="2.00" stroke-linecap="round" stroke-linejoin="round" transform="matrix(1.00, 0.00, 0.00, -1.00, 655.0, 988.0)"></path><text xml:space="preserve" font-family="Helvetica,Helvetica" font-size="39.0" fill="#616161" transform="matrix(1.00, 0.00, -0.00, -1.00, 1312.1, 781.0)">S</text><text xml:space="preserve" font-family="Helvetica,Helvetica" font-size="39.0" fill="#616161" transform="matrix(1.00, 0.00, -0.00, -1.00, 1338.2, 781.0)">t</text><text xml:space="preserve" font-family="Helvetica,Helvetica" font-size="39.0" fill="#616161" transform="matrix(1.00, 0.00, -0.00, -1.00, 1349.0, 781.0)">r</text><text xml:space="preserve" font-family="Helvetica,Helvetica" font-size="39.0" fill="#616161" transform="matrix(1.00, 0.00, -0.00, -1.00, 1362.0, 781.0)">e</text><text xml:space="preserve" font-family="Helvetica,Helvetica" font-size="39.0" fill="#616161" transform="matrix(1.00, 0.00, -0.00, -1.00, 1383.7, 781.0)">a</text><text xml:space="preserve" font-family="Helvetica,Helvetica" font-size="39.0" fill="#616161" transform="matrix(1.00, 0.00, -0.00, -1.00, 1405.4, 781.0)">m</text><text xml:space="preserve" font-family="Helvetica,Helvetica" font-size="39.0" fill="#616161" transform="matrix(1.00, 0.00, -0.00, -1.00, 1329.5, 734.0)">S</text><text xml:space="preserve" font-family="Helvetica,Helvetica" font-size="39.0" fill="#616161" transform="matrix(1.00, 0.00, -0.00, -1.00, 1355.5, 734.0)">t</text><text xml:space="preserve" font-family="Helvetica,Helvetica" font-size="39.0" fill="#616161" transform="matrix(1.00, 0.00, -0.00, -1.00, 1366.3, 734.0)">a</text><text xml:space="preserve" font-family="Helvetica,Helvetica" font-size="39.0" fill="#616161" transform="matrix(1.00, 0.00, -0.00, -1.00, 1388.0, 734.0)">t</text><text xml:space="preserve" font-family="Helvetica,Helvetica" font-size="39.0" fill="#616161" transform="matrix(1.00, 0.00, -0.00, -1.00, 1398.8, 734.0)">e</text></g></g><g><clipPath id="clip0x7fd40ebe6b30"><path d="M 1493.0 693.0 L 1646.8 693.0 L 1646.8 846.6 L 1493.0 846.6 Z M 1493.0 693.0 "></path></clipPath><g clip-path="url(#clip0x7fd40ebe6b30)"><image xlink:href="../../F36A6F62-F7B3-45ED-9907-0EDA78A152D7/assets/26D63AB0A3D55BB2EC547125617D0F43.png" width="154.00" height="154.00" transform="matrix(1.00, 0.00, -0.00, 1.00, 1493.0, 693.0)"></image></g></g><g><clipPath id="clip0x7fd40edd62e0"><path d="M 1502.0 844.0 L 1638.0 844.0 C 1640.2 844.0 1642.0 842.2 1642.0 840.0 L 1642.0 704.0 C 1642.0 701.8 1640.2 700.0 1638.0 700.0 L 1502.0 700.0 C 1499.8 700.0 1498.0 701.8 1498.0 704.0 L 1498.0 840.0 C 1498.0 842.2 1499.8 844.0 1502.0 844.0 Z M 1502.0 844.0 "></path></clipPath><g clip-path="url(#clip0x7fd40edd62e0)"><g><clipPath id="clip0x7fd40edd67d0"><path d="M 1493.0 693.0 L 1646.8 693.0 L 1646.8 846.6 L 1493.0 846.6 Z M 1493.0 693.0 "></path></clipPath><g clip-path="url(#clip0x7fd40edd67d0)"><path d="M 1493.0 693.0 L 1646.8 693.0 L 1646.8 846.6 L 1493.0 846.6 Z M 1493.0 693.0 " fill="url(#gradSh2.593)"></path></g></g></g></g><g><clipPath id="clip0x7fd40ee27cb0"><path d="M 1493.0 693.0 L 1646.8 693.0 L 1646.8 846.6 L 1493.0 846.6 Z M 1493.0 693.0 "></path></clipPath><g clip-path="url(#clip0x7fd40ee27cb0)"><path d="M 1066.0 153.0 L 1202.0 153.0 C 1204.2 153.0 1206.0 154.8 1206.0 157.0 L 1206.0 293.0 C 1206.0 295.2 1204.2 297.0 1202.0 297.0 L 1066.0 297.0 C 1063.8 297.0 1062.0 295.2 1062.0 293.0 L 1062.0 157.0 C 1062.0 154.8 1063.8 153.0 1066.0 153.0 Z M 1066.0 153.0 " fill="none" stroke="#AE653C" stroke-width="2.00" stroke-linecap="round" stroke-linejoin="round" transform="matrix(1.00, 0.00, 0.00, -1.00, 436.0, 997.0)"></path></g></g><image xlink:href="B1D50ABB6661D57A12B4396738286B9C.png" width="109.00" height="40.00" transform="matrix(1.00, 0.00, -0.00, -1.00, 1515.0, 815.0)"></image><g><clipPath id="clip0x7fd40e8b31c0"><path d="M 1493.0 693.0 L 1646.8 693.0 L 1646.8 846.6 L 1493.0 846.6 Z M 1493.0 693.0 "></path></clipPath><g clip-path="url(#clip0x7fd40e8b31c0)"><text xml:space="preserve" font-family="Helvetica-Bold,Helvetica" font-weight="bold" font-size="41.0" fill="#FFFFFF" transform="matrix(1.00, 0.00, -0.00, -1.00, 1517.6, 781.0)">C</text><text xml:space="preserve" font-family="Helvetica-Bold,Helvetica" font-weight="bold" font-size="41.0" fill="#FFFFFF" transform="matrix(1.00, 0.00, -0.00, -1.00, 1547.2, 781.0)">o</text><text xml:space="preserve" font-family="Helvetica-Bold,Helvetica" font-weight="bold" font-size="41.0" fill="#FFFFFF" transform="matrix(1.00, 0.00, -0.00, -1.00, 1572.3, 781.0)">n</text><text xml:space="preserve" font-family="Helvetica-Bold,Helvetica" font-weight="bold" font-size="41.0" fill="#FFFFFF" transform="matrix(1.00, 0.00, -0.00, -1.00, 1597.4, 781.0)">n</text></g></g><image xlink:href="E3CB9DA3F281A6AA9A00EE7BAE49817D.png" width="106.00" height="40.00" transform="matrix(1.00, 0.00, -0.00, -1.00, 1517.0, 766.0)"></image><g><clipPath id="clip0x7fd40ecf2360"><path d="M 1493.0 693.0 L 1646.8 693.0 L 1646.8 846.6 L 1493.0 846.6 Z M 1493.0 693.0 "></path></clipPath><g clip-path="url(#clip0x7fd40ecf2360)"><text xml:space="preserve" font-family="Helvetica-Bold,Helvetica" font-weight="bold" font-size="41.0" fill="#FFFFFF" transform="matrix(1.00, 0.00, -0.00, -1.00, 1519.9, 732.0)">S</text><text xml:space="preserve" font-family="Helvetica-Bold,Helvetica" font-weight="bold" font-size="41.0" fill="#FFFFFF" transform="matrix(1.00, 0.00, -0.00, -1.00, 1547.2, 732.0)">t</text><text xml:space="preserve" font-family="Helvetica-Bold,Helvetica" font-weight="bold" font-size="41.0" fill="#FFFFFF" transform="matrix(1.00, 0.00, -0.00, -1.00, 1560.9, 732.0)">a</text><text xml:space="preserve" font-family="Helvetica-Bold,Helvetica" font-weight="bold" font-size="41.0" fill="#FFFFFF" transform="matrix(1.00, 0.00, -0.00, -1.00, 1583.7, 732.0)">t</text><text xml:space="preserve" font-family="Helvetica-Bold,Helvetica" font-weight="bold" font-size="41.0" fill="#FFFFFF" transform="matrix(1.00, 0.00, -0.00, -1.00, 1597.3, 732.0)">e</text></g></g><g><clipPath id="clip0x7fd40ecf5e60"><path d="M 975.0 879.0 L 1191.0 879.0 L 1191.0 827.0 L 975.0 827.0 Z M 975.0 879.0 "></path></clipPath><g clip-path="url(#clip0x7fd40ecf5e60)"><g><clipPath id="clip0x7fd40ecf65a0"><path d="M 973.0 659.0 L 1192.7 659.0 L 1192.7 880.6 L 973.0 880.6 Z M 973.0 659.0 "></path></clipPath><g clip-path="url(#clip0x7fd40ecf65a0)"><path d="M 973.0 659.0 L 1192.7 659.0 L 1192.7 880.6 L 973.0 880.6 Z M 973.0 659.0 " fill="url(#gradSh3.594)"></path></g></g></g></g><g><clipPath id="clip0x7fd40ef48700"><path d="M 973.0 659.0 L 1192.7 659.0 L 1192.7 880.6 L 973.0 880.6 Z M 973.0 659.0 "></path></clipPath><g clip-path="url(#clip0x7fd40ef48700)"><path d="M 801.0 882.0 L 1017.0 882.0 L 1017.0 934.0 L 801.0 934.0 Z M 801.0 882.0 " fill="none" stroke="#C47900" stroke-width="2.00" stroke-linecap="round" stroke-linejoin="round" transform="matrix(1.00, 0.00, 0.00, -1.00, 174.0, 1761.0)"></path></g></g><image xlink:href="30A5CF4127BCD99A88E7F9589C919FAC.png" width="137.00" height="46.00" transform="matrix(1.00, 0.00, -0.00, -1.00, 1015.0, 870.0)"></image><g><clipPath id="clip0x7fd40ebe7b60"><path d="M 973.0 659.0 L 1192.7 659.0 L 1192.7 880.6 L 973.0 880.6 Z M 973.0 659.0 "></path></clipPath><g clip-path="url(#clip0x7fd40ebe7b60)"><text xml:space="preserve" font-family="Helvetica-Bold,Helvetica" font-weight="bold" font-size="40.0" fill="#FFFFFF" transform="matrix(1.00, 0.00, -0.00, -1.00, 1016.3, 837.9)">L</text><text xml:space="preserve" font-family="Helvetica-Bold,Helvetica" font-weight="bold" font-size="40.0" fill="#FFFFFF" transform="matrix(1.00, 0.00, -0.00, -1.00, 1040.8, 837.9)">e</text><text xml:space="preserve" font-family="Helvetica-Bold,Helvetica" font-weight="bold" font-size="40.0" fill="#FFFFFF" transform="matrix(1.00, 0.00, -0.00, -1.00, 1063.0, 837.9)">n</text><text xml:space="preserve" font-family="Helvetica-Bold,Helvetica" font-weight="bold" font-size="40.0" fill="#FFFFFF" transform="matrix(1.00, 0.00, -0.00, -1.00, 1087.5, 837.9)">g</text><text xml:space="preserve" font-family="Helvetica-Bold,Helvetica" font-weight="bold" font-size="40.0" fill="#FFFFFF" transform="matrix(1.00, 0.00, -0.00, -1.00, 1111.9, 837.9)">t</text><text xml:space="preserve" font-family="Helvetica-Bold,Helvetica" font-weight="bold" font-size="40.0" fill="#FFFFFF" transform="matrix(1.00, 0.00, -0.00, -1.00, 1125.2, 837.9)">h</text></g></g><g><clipPath id="clip0x7fd40ebec400"><path d="M 975.0 827.0 L 1191.0 827.0 L 1191.0 768.0 L 975.0 768.0 Z M 975.0 826.7 "></path></clipPath><g clip-path="url(#clip0x7fd40ebec400)"><g><clipPath id="clip0x7fd40ebecc40"><path d="M 973.0 659.0 L 1192.7 659.0 L 1192.7 880.6 L 973.0 880.6 Z M 973.0 659.0 "></path></clipPath><g clip-path="url(#clip0x7fd40ebecc40)"><path d="M 973.0 659.0 L 1192.7 659.0 L 1192.7 880.6 L 973.0 880.6 Z M 973.0 659.0 " fill="url(#gradSh4.595)"></path></g></g></g></g><g><clipPath id="clip0x7fd40f042ac0"><path d="M 973.0 659.0 L 1192.7 659.0 L 1192.7 880.6 L 973.0 880.6 Z M 973.0 659.0 "></path></clipPath><g clip-path="url(#clip0x7fd40f042ac0)"><path d="M 801.0 934.0 L 1017.0 934.0 L 1017.0 993.0 L 801.0 993.0 Z M 801.0 934.3 " fill="none" stroke="#37417B" stroke-width="2.00" stroke-linecap="round" stroke-linejoin="round" transform="matrix(1.00, 0.00, 0.00, -1.00, 174.0, 1761.0)"></path></g></g><image xlink:href="C268F8F8DB9D9DB2A52FD1220AF18A40.png" width="98.00" height="47.00" transform="matrix(1.00, 0.00, -0.00, -1.00, 1034.0, 815.0)"></image><g><clipPath id="clip0x7fd428e1f1a0"><path d="M 973.0 659.0 L 1192.7 659.0 L 1192.7 880.6 L 973.0 880.6 Z M 973.0 659.0 "></path></clipPath><g clip-path="url(#clip0x7fd428e1f1a0)"><text xml:space="preserve" font-family="Helvetica-Bold,Helvetica" font-weight="bold" font-size="40.0" fill="#FFFFFF" transform="matrix(1.00, 0.00, -0.00, -1.00, 1037.8, 782.5)">T</text><text xml:space="preserve" font-family="Helvetica-Bold,Helvetica" font-weight="bold" font-size="40.0" fill="#FFFFFF" transform="matrix(1.00, 0.00, -0.00, -1.00, 1059.3, 782.5)">y</text><text xml:space="preserve" font-family="Helvetica-Bold,Helvetica" font-weight="bold" font-size="40.0" fill="#FFFFFF" transform="matrix(1.00, 0.00, -0.00, -1.00, 1081.5, 782.5)">p</text><text xml:space="preserve" font-family="Helvetica-Bold,Helvetica" font-weight="bold" font-size="40.0" fill="#FFFFFF" transform="matrix(1.00, 0.00, -0.00, -1.00, 1106.0, 782.5)">e</text></g></g><g><clipPath id="clip0x7fd409d05f10"><path d="M 975.0 768.0 L 1191.0 768.0 L 1191.0 710.0 L 975.0 710.0 Z M 975.0 767.9 "></path></clipPath><g clip-path="url(#clip0x7fd409d05f10)"><g><clipPath id="clip0x7fd409d06b00"><path d="M 973.0 659.0 L 1192.7 659.0 L 1192.7 880.6 L 973.0 880.6 Z M 973.0 659.0 "></path></clipPath><g clip-path="url(#clip0x7fd409d06b00)"><path d="M 973.0 659.0 L 1192.7 659.0 L 1192.7 880.6 L 973.0 880.6 Z M 973.0 659.0 " fill="url(#gradSh5.596)"></path></g></g></g></g><g><clipPath id="clip0x7fd40e8e0320"><path d="M 973.0 659.0 L 1192.7 659.0 L 1192.7 880.6 L 973.0 880.6 Z M 973.0 659.0 "></path></clipPath><g clip-path="url(#clip0x7fd40e8e0320)"><path d="M 801.0 993.0 L 1017.0 993.0 L 1017.0 1051.0 L 801.0 1051.0 Z M 801.0 993.1 " fill="none" stroke="#A32829" stroke-width="2.00" stroke-linecap="round" stroke-linejoin="round" transform="matrix(1.00, 0.00, 0.00, -1.00, 174.0, 1761.0)"></path></g></g><image xlink:href="9F41B015E0FA0FC45F753EEC893B129D.png" width="109.00" height="46.00" transform="matrix(1.00, 0.00, -0.00, -1.00, 1029.0, 756.0)"></image><g><clipPath id="clip0x7fd40f0444d0"><path d="M 973.0 659.0 L 1192.7 659.0 L 1192.7 880.6 L 973.0 880.6 Z M 973.0 659.0 "></path></clipPath><g clip-path="url(#clip0x7fd40f0444d0)"><text xml:space="preserve" font-family="Helvetica-Bold,Helvetica" font-weight="bold" font-size="40.0" fill="#FFFFFF" transform="matrix(1.00, 0.00, -0.00, -1.00, 1030.8, 723.7)">F</text><text xml:space="preserve" font-family="Helvetica-Bold,Helvetica" font-weight="bold" font-size="40.0" fill="#FFFFFF" transform="matrix(1.00, 0.00, -0.00, -1.00, 1055.2, 723.7)">l</text><text xml:space="preserve" font-family="Helvetica-Bold,Helvetica" font-weight="bold" font-size="40.0" fill="#FFFFFF" transform="matrix(1.00, 0.00, -0.00, -1.00, 1066.3, 723.7)">a</text><text xml:space="preserve" font-family="Helvetica-Bold,Helvetica" font-weight="bold" font-size="40.0" fill="#FFFFFF" transform="matrix(1.00, 0.00, -0.00, -1.00, 1088.5, 723.7)">g</text><text xml:space="preserve" font-family="Helvetica-Bold,Helvetica" font-weight="bold" font-size="40.0" fill="#FFFFFF" transform="matrix(1.00, 0.00, -0.00, -1.00, 1113.0, 723.7)">s</text></g></g><g><clipPath id="clip0x7fd40f047c40"><path d="M 975.0 714.0 L 1191.0 714.0 L 1191.0 662.0 L 975.0 662.0 Z M 975.0 713.9 "></path></clipPath><g clip-path="url(#clip0x7fd40f047c40)"><g><clipPath id="clip0x7fd40f0483a0"><path d="M 973.0 659.0 L 1192.7 659.0 L 1192.7 880.6 L 973.0 880.6 Z M 973.0 659.0 "></path></clipPath><g clip-path="url(#clip0x7fd40f0483a0)"><path d="M 973.0 659.0 L 1192.7 659.0 L 1192.7 880.6 L 973.0 880.6 Z M 973.0 659.0 " fill="url(#gradSh6.597)"></path></g></g></g></g><g><clipPath id="clip0x7fd40f09a3e0"><path d="M 973.0 659.0 L 1192.7 659.0 L 1192.7 880.6 L 973.0 880.6 Z M 973.0 659.0 "></path></clipPath><g clip-path="url(#clip0x7fd40f09a3e0)"><path d="M 801.0 1047.0 L 1017.0 1047.0 L 1017.0 1099.0 L 801.0 1099.0 Z M 801.0 1047.1 " fill="none" stroke="#427A40" stroke-width="2.00" stroke-linecap="round" stroke-linejoin="round" transform="matrix(1.00, 0.00, 0.00, -1.00, 174.0, 1761.0)"></path></g></g><image xlink:href="27F87A24E56A968686E5C25750FB9DEC.png" width="141.00" height="39.00" transform="matrix(1.00, 0.00, -0.00, -1.00, 1012.0, 706.0)"></image><g><clipPath id="clip0x7fd40e8e31e0"><path d="M 973.0 659.0 L 1192.7 659.0 L 1192.7 880.6 L 973.0 880.6 Z M 973.0 659.0 "></path></clipPath><g clip-path="url(#clip0x7fd40e8e31e0)"><text xml:space="preserve" font-family="Helvetica-Bold,Helvetica" font-weight="bold" font-size="40.0" fill="#FFFFFF" transform="matrix(1.00, 0.00, -0.00, -1.00, 1015.2, 672.8)">S</text><text xml:space="preserve" font-family="Helvetica-Bold,Helvetica" font-weight="bold" font-size="40.0" fill="#FFFFFF" transform="matrix(1.00, 0.00, -0.00, -1.00, 1041.9, 672.8)">t</text><text xml:space="preserve" font-family="Helvetica-Bold,Helvetica" font-weight="bold" font-size="40.0" fill="#FFFFFF" transform="matrix(1.00, 0.00, -0.00, -1.00, 1055.2, 672.8)">r</text><text xml:space="preserve" font-family="Helvetica-Bold,Helvetica" font-weight="bold" font-size="40.0" fill="#FFFFFF" transform="matrix(1.00, 0.00, -0.00, -1.00, 1070.8, 672.8)">e</text><text xml:space="preserve" font-family="Helvetica-Bold,Helvetica" font-weight="bold" font-size="40.0" fill="#FFFFFF" transform="matrix(1.00, 0.00, -0.00, -1.00, 1093.0, 672.8)">a</text><text xml:space="preserve" font-family="Helvetica-Bold,Helvetica" font-weight="bold" font-size="40.0" fill="#FFFFFF" transform="matrix(1.00, 0.00, -0.00, -1.00, 1115.3, 672.8)">m</text></g></g><g><clipPath id="clip0x7fd40e8e5c60"><path d="M 978.3 258.2 L 1132.0 258.2 L 1132.0 412.0 L 978.3 412.0 Z M 978.3 258.2 "></path></clipPath><g clip-path="url(#clip0x7fd40e8e5c60)"><image xlink:href="../../F36A6F62-F7B3-45ED-9907-0EDA78A152D7/assets/26D63AB0A3D55BB2EC547125617D0F43.png" width="154.00" height="154.00" transform="matrix(1.00, 0.00, -0.00, 1.00, 978.0, 258.0)"></image></g></g><g><clipPath id="clip0x7fd40ef4baa0"><path d="M 987.0 409.0 L 1123.0 409.0 C 1125.2 409.0 1127.0 407.2 1127.0 405.0 L 1127.0 269.0 C 1127.0 266.8 1125.2 265.0 1123.0 265.0 L 987.0 265.0 C 984.8 265.0 983.0 266.8 983.0 269.0 L 983.0 405.0 C 983.0 407.2 984.8 409.0 987.0 409.0 Z M 987.0 409.0 "></path></clipPath><g clip-path="url(#clip0x7fd40ef4baa0)"><g><clipPath id="clip0x7fd40ef4aa50"><path d="M 978.3 258.2 L 1132.0 258.2 L 1132.0 412.0 L 978.3 412.0 Z M 978.3 258.2 "></path></clipPath><g clip-path="url(#clip0x7fd40ef4aa50)"><path d="M 978.3 258.2 L 1132.0 258.2 L 1132.0 412.0 L 978.3 412.0 Z M 978.3 258.2 " fill="url(#gradSh7.598)"></path></g></g></g></g><g><clipPath id="clip0x7fd40ef9e170"><path d="M 978.3 258.2 L 1132.0 258.2 L 1132.0 412.0 L 978.3 412.0 Z M 978.3 258.2 "></path></clipPath><g clip-path="url(#clip0x7fd40ef9e170)"><path d="M 1066.0 153.0 L 1202.0 153.0 C 1204.2 153.0 1206.0 154.8 1206.0 157.0 L 1206.0 293.0 C 1206.0 295.2 1204.2 297.0 1202.0 297.0 L 1066.0 297.0 C 1063.8 297.0 1062.0 295.2 1062.0 293.0 L 1062.0 157.0 C 1062.0 154.8 1063.8 153.0 1066.0 153.0 Z M 1066.0 153.0 " fill="none" stroke="#AE653C" stroke-width="2.00" stroke-linecap="round" stroke-linejoin="round" transform="matrix(1.00, 0.00, 0.00, -1.00, -79.0, 562.0)"></path></g></g><image xlink:href="2A565825FC79CB67B8064A62A16986DD.png" width="90.00" height="40.00" transform="matrix(1.00, 0.00, -0.00, -1.00, 1011.0, 404.0)"></image><g><clipPath id="clip0x7fd40e8e6fd0"><path d="M 978.3 258.2 L 1132.0 258.2 L 1132.0 412.0 L 978.3 412.0 Z M 978.3 258.2 "></path></clipPath><g clip-path="url(#clip0x7fd40e8e6fd0)"><text xml:space="preserve" font-family="Helvetica-Bold,Helvetica" font-weight="bold" font-size="41.0" fill="#FFFFFF" transform="matrix(1.00, 0.00, -0.00, -1.00, 1012.8, 370.5)">N</text><text xml:space="preserve" font-family="Helvetica-Bold,Helvetica" font-weight="bold" font-size="41.0" fill="#FFFFFF" transform="matrix(1.00, 0.00, -0.00, -1.00, 1042.5, 370.5)">e</text><text xml:space="preserve" font-family="Helvetica-Bold,Helvetica" font-weight="bold" font-size="41.0" fill="#FFFFFF" transform="matrix(1.00, 0.00, -0.00, -1.00, 1065.3, 370.5)">w</text></g></g><image xlink:href="EEB26FD5F550AC7A1D79B343F45B820E.png" width="109.00" height="40.00" transform="matrix(1.00, 0.00, -0.00, -1.00, 1000.0, 355.0)"></image><g><clipPath id="clip0x7fd40efa05a0"><path d="M 978.3 258.2 L 1132.0 258.2 L 1132.0 412.0 L 978.3 412.0 Z M 978.3 258.2 "></path></clipPath><g clip-path="url(#clip0x7fd40efa05a0)"><text xml:space="preserve" font-family="Helvetica-Bold,Helvetica" font-weight="bold" font-size="41.0" fill="#FFFFFF" transform="matrix(1.00, 0.00, -0.00, -1.00, 1002.6, 321.5)">C</text><text xml:space="preserve" font-family="Helvetica-Bold,Helvetica" font-weight="bold" font-size="41.0" fill="#FFFFFF" transform="matrix(1.00, 0.00, -0.00, -1.00, 1032.2, 321.5)">o</text><text xml:space="preserve" font-family="Helvetica-Bold,Helvetica" font-weight="bold" font-size="41.0" fill="#FFFFFF" transform="matrix(1.00, 0.00, -0.00, -1.00, 1057.3, 321.5)">n</text><text xml:space="preserve" font-family="Helvetica-Bold,Helvetica" font-weight="bold" font-size="41.0" fill="#FFFFFF" transform="matrix(1.00, 0.00, -0.00, -1.00, 1082.4, 321.5)">n</text></g></g><image xlink:href="51F2D541D284D1118DD81852A3B75AB1.png" width="106.00" height="40.00" transform="matrix(1.00, 0.00, -0.00, -1.00, 1002.0, 306.0)"></image><g><clipPath id="clip0x7fd40e8eb530"><path d="M 978.3 258.2 L 1132.0 258.2 L 1132.0 412.0 L 978.3 412.0 Z M 978.3 258.2 "></path></clipPath><g clip-path="url(#clip0x7fd40e8eb530)"><text xml:space="preserve" font-family="Helvetica-Bold,Helvetica" font-weight="bold" font-size="41.0" fill="#FFFFFF" transform="matrix(1.00, 0.00, -0.00, -1.00, 1004.9, 272.5)">S</text><text xml:space="preserve" font-family="Helvetica-Bold,Helvetica" font-weight="bold" font-size="41.0" fill="#FFFFFF" transform="matrix(1.00, 0.00, -0.00, -1.00, 1032.2, 272.5)">t</text><text xml:space="preserve" font-family="Helvetica-Bold,Helvetica" font-weight="bold" font-size="41.0" fill="#FFFFFF" transform="matrix(1.00, 0.00, -0.00, -1.00, 1045.9, 272.5)">a</text><text xml:space="preserve" font-family="Helvetica-Bold,Helvetica" font-weight="bold" font-size="41.0" fill="#FFFFFF" transform="matrix(1.00, 0.00, -0.00, -1.00, 1068.7, 272.5)">t</text><text xml:space="preserve" font-family="Helvetica-Bold,Helvetica" font-weight="bold" font-size="41.0" fill="#FFFFFF" transform="matrix(1.00, 0.00, -0.00, -1.00, 1082.3, 272.5)">e</text></g></g><g><clipPath id="clip0x7fd40e8ed820"><path d="M 788.0 258.2 L 941.7 258.2 L 941.7 412.0 L 788.0 412.0 Z M 788.0 258.2 "></path></clipPath><g clip-path="url(#clip0x7fd40e8ed820)"><image xlink:href="../../F36A6F62-F7B3-45ED-9907-0EDA78A152D7/assets/26D63AB0A3D55BB2EC547125617D0F43.png" width="154.00" height="154.00" transform="matrix(1.00, 0.00, -0.00, 1.00, 788.0, 258.0)"></image></g></g><g><clipPath id="clip0x7fd40f09d4e0"><path d="M 797.0 409.0 L 933.0 409.0 C 935.2 409.0 937.0 407.2 937.0 405.0 L 937.0 269.0 C 937.0 266.8 935.2 265.0 933.0 265.0 L 797.0 265.0 C 794.8 265.0 793.0 266.8 793.0 269.0 L 793.0 405.0 C 793.0 407.2 794.8 409.0 797.0 409.0 Z M 797.0 409.0 "></path></clipPath><g clip-path="url(#clip0x7fd40f09d4e0)"><g><clipPath id="clip0x7fd40f09c800"><path d="M 788.0 258.2 L 941.7 258.2 L 941.7 412.0 L 788.0 412.0 Z M 788.0 258.2 "></path></clipPath><g clip-path="url(#clip0x7fd40f09c800)"><path d="M 788.0 258.2 L 941.7 258.2 L 941.7 412.0 L 788.0 412.0 Z M 788.0 258.2 " fill="url(#gradSh8.599)"></path></g></g></g></g><g><clipPath id="clip0x7fd40f0ef290"><path d="M 788.0 258.2 L 941.7 258.2 L 941.7 412.0 L 788.0 412.0 Z M 788.0 258.2 "></path></clipPath><g clip-path="url(#clip0x7fd40f0ef290)"><path d="M 652.0 144.0 L 788.0 144.0 C 790.2 144.0 792.0 145.8 792.0 148.0 L 792.0 284.0 C 792.0 286.2 790.2 288.0 788.0 288.0 L 652.0 288.0 C 649.8 288.0 648.0 286.2 648.0 284.0 L 648.0 148.0 C 648.0 145.8 649.8 144.0 652.0 144.0 Z M 652.0 144.0 " fill="none" stroke="#AAAAAA" stroke-width="2.00" stroke-linecap="round" stroke-linejoin="round" transform="matrix(1.00, 0.00, 0.00, -1.00, 145.0, 553.0)"></path><text xml:space="preserve" font-family="Helvetica,Helvetica" font-size="39.0" fill="#616161" transform="matrix(1.00, 0.00, -0.00, -1.00, 826.0, 369.5)">N</text><text xml:space="preserve" font-family="Helvetica,Helvetica" font-size="39.0" fill="#616161" transform="matrix(1.00, 0.00, -0.00, -1.00, 854.2, 369.5)">e</text><text xml:space="preserve" font-family="Helvetica,Helvetica" font-size="39.0" fill="#616161" transform="matrix(1.00, 0.00, -0.00, -1.00, 875.9, 369.5)">w</text><text xml:space="preserve" font-family="Helvetica,Helvetica" font-size="39.0" fill="#616161" transform="matrix(1.00, 0.00, -0.00, -1.00, 802.1, 322.5)">S</text><text xml:space="preserve" font-family="Helvetica,Helvetica" font-size="39.0" fill="#616161" transform="matrix(1.00, 0.00, -0.00, -1.00, 828.2, 322.5)">t</text><text xml:space="preserve" font-family="Helvetica,Helvetica" font-size="39.0" fill="#616161" transform="matrix(1.00, 0.00, -0.00, -1.00, 839.0, 322.5)">r</text><text xml:space="preserve" font-family="Helvetica,Helvetica" font-size="39.0" fill="#616161" transform="matrix(1.00, 0.00, -0.00, -1.00, 852.0, 322.5)">e</text><text xml:space="preserve" font-family="Helvetica,Helvetica" font-size="39.0" fill="#616161" transform="matrix(1.00, 0.00, -0.00, -1.00, 873.7, 322.5)">a</text><text xml:space="preserve" font-family="Helvetica,Helvetica" font-size="39.0" fill="#616161" transform="matrix(1.00, 0.00, -0.00, -1.00, 895.4, 322.5)">m</text><text xml:space="preserve" font-family="Helvetica,Helvetica" font-size="39.0" fill="#616161" transform="matrix(1.00, 0.00, -0.00, -1.00, 819.5, 275.5)">S</text><text xml:space="preserve" font-family="Helvetica,Helvetica" font-size="39.0" fill="#616161" transform="matrix(1.00, 0.00, -0.00, -1.00, 845.5, 275.5)">t</text><text xml:space="preserve" font-family="Helvetica,Helvetica" font-size="39.0" fill="#616161" transform="matrix(1.00, 0.00, -0.00, -1.00, 856.3, 275.5)">a</text><text xml:space="preserve" font-family="Helvetica,Helvetica" font-size="39.0" fill="#616161" transform="matrix(1.00, 0.00, -0.00, -1.00, 878.0, 275.5)">t</text><text xml:space="preserve" font-family="Helvetica,Helvetica" font-size="39.0" fill="#616161" transform="matrix(1.00, 0.00, -0.00, -1.00, 888.8, 275.5)">e</text></g></g><g><clipPath id="clip0x7fd40f0f7390"><path d="M 731.2 288.5 L 1188.8 288.5 L 1188.8 382.0 L 731.2 382.0 Z M 731.2 288.5 "></path></clipPath><g clip-path="url(#clip0x7fd40f0f7390)"><text xml:space="preserve" font-family="Courier-Bold,Courier" font-weight="bold" font-size="55.0" fill="#000000" transform="matrix(1.00, 0.00, -0.00, -1.00, 745.0, 315.8)">{</text><text xml:space="preserve" font-family="Courier-Bold,Courier" font-weight="bold" font-size="55.0" fill="#000000" transform="matrix(1.00, 0.00, -0.00, -1.00, 778.0, 315.8)"> </text><text xml:space="preserve" font-family="Courier-Bold,Courier" font-weight="bold" font-size="55.0" fill="#000000" transform="matrix(1.00, 0.00, -0.00, -1.00, 811.0, 315.8)"> </text><text xml:space="preserve" font-family="Courier-Bold,Courier" font-weight="bold" font-size="55.0" fill="#000000" transform="matrix(1.00, 0.00, -0.00, -1.00, 844.0, 315.8)"> </text><text xml:space="preserve" font-family="Courier-Bold,Courier" font-weight="bold" font-size="55.0" fill="#000000" transform="matrix(1.00, 0.00, -0.00, -1.00, 877.0, 315.8)"> </text><text xml:space="preserve" font-family="Courier-Bold,Courier" font-weight="bold" font-size="55.0" fill="#000000" transform="matrix(1.00, 0.00, -0.00, -1.00, 910.0, 315.8)"> </text><text xml:space="preserve" font-family="Courier-Bold,Courier" font-weight="bold" font-size="55.0" fill="#000000" transform="matrix(1.00, 0.00, -0.00, -1.00, 943.0, 315.8)">,</text><text xml:space="preserve" font-family="Courier-Bold,Courier" font-weight="bold" font-size="55.0" fill="#000000" transform="matrix(1.00, 0.00, -0.00, -1.00, 976.0, 315.8)"> </text><text xml:space="preserve" font-family="Courier-Bold,Courier" font-weight="bold" font-size="55.0" fill="#000000" transform="matrix(1.00, 0.00, -0.00, -1.00, 1009.1, 315.8)"> </text><text xml:space="preserve" font-family="Courier-Bold,Courier" font-weight="bold" font-size="55.0" fill="#000000" transform="matrix(1.00, 0.00, -0.00, -1.00, 1042.1, 315.8)"> </text><text xml:space="preserve" font-family="Courier-Bold,Courier" font-weight="bold" font-size="55.0" fill="#000000" transform="matrix(1.00, 0.00, -0.00, -1.00, 1075.1, 315.8)"> </text><text xml:space="preserve" font-family="Courier-Bold,Courier" font-weight="bold" font-size="55.0" fill="#000000" transform="matrix(1.00, 0.00, -0.00, -1.00, 1108.1, 315.8)"> </text><text xml:space="preserve" font-family="Courier-Bold,Courier" font-weight="bold" font-size="55.0" fill="#000000" transform="matrix(1.00, 0.00, -0.00, -1.00, 1141.0, 315.8)">}</text></g></g><path d="M 957.3 604.2 C 957.6 604.7 957.1 606.1 957.4 606.5 M 957.3 604.2 C 955.2 605.6 955.1 608.0 954.7 611.2 C 954.7 614.7 956.6 611.1 957.4 611.5 C 958.2 616.1 956.8 616.1 954.6 615.4 C 956.1 617.1 953.5 622.4 956.2 621.3 C 956.2 613.9 956.8 626.5 958.4 620.3 C 958.8 619.6 959.5 621.4 959.5 622.1 C 960.7 620.1 962.0 623.5 962.8 620.3 C 964.5 619.8 963.8 620.4 965.1 618.3 C 965.3 617.4 964.7 617.8 964.3 617.9 C 962.3 617.6 965.4 615.4 964.2 613.7 C 966.8 612.1 963.7 610.5 962.6 611.9 C 962.9 610.3 965.6 608.5 963.7 606.9 C 965.1 606.0 964.2 601.8 962.5 604.3 C 961.5 606.1 960.7 604.1 960.1 603.8 C 959.5 604.5 960.4 607.0 959.9 607.4 C 959.4 606.6 958.5 603.3 958.6 606.8 C 957.7 605.7 957.1 607.4 957.3 604.2 C 957.3 604.2 957.3 604.2 957.3 604.2 Z M 955.8 616.7 C 955.0 616.7 955.8 615.5 955.8 616.7 C 955.8 616.7 955.8 616.7 955.8 616.7 Z M 965.1 608.2 C 964.4 608.2 965.1 607.0 965.1 608.2 C 965.1 608.2 965.1 608.2 965.1 608.2 Z M 964.4 617.3 C 963.7 617.3 964.4 616.1 964.4 617.3 C 964.4 617.3 964.4 617.3 964.4 617.3 Z M 956.2 613.4 C 956.8 611.5 957.2 615.1 956.5 615.4 C 956.6 615.0 955.6 613.9 956.2 613.4 C 956.2 613.4 956.2 613.4 956.2 613.4 Z M 960.2 613.2 C 960.0 613.0 959.9 612.2 960.6 612.3 C 960.8 612.8 960.5 613.3 960.2 613.2 C 960.2 613.2 960.2 613.2 960.2 613.2 Z M 957.4 622.9 C 957.1 622.7 957.0 621.9 957.7 622.0 C 957.9 622.5 957.6 623.0 957.4 622.9 C 957.4 622.9 957.4 622.9 957.4 622.9 Z M 958.1 611.2 C 958.2 610.7 958.8 610.5 958.9 611.1 C 958.6 611.4 958.5 612.8 958.1 611.2 C 958.1 611.2 958.1 611.2 958.1 611.2 Z M 955.7 608.1 C 956.1 606.5 957.1 609.8 956.8 609.8 C 956.3 610.3 955.2 609.1 955.7 608.1 C 955.7 608.1 955.7 608.1 955.7 608.1 Z M 959.0 610.3 C 959.3 608.9 959.5 610.8 959.0 610.3 C 959.0 610.3 959.0 610.3 959.0 610.3 Z M 962.5 621.5 C 962.9 620.2 963.1 622.1 962.5 621.5 C 962.5 621.5 962.5 621.5 962.5 621.5 Z M 964.7 614.4 C 965.0 613.1 965.2 615.0 964.7 614.4 C 964.7 614.4 964.7 614.4 964.7 614.4 Z M 957.6 617.1 C 957.5 619.4 955.8 617.4 957.6 617.1 C 957.6 617.1 957.6 617.1 957.6 617.1 Z M 955.6 604.4 C 955.5 606.7 953.8 604.7 955.6 604.4 C 955.6 604.4 955.6 604.4 955.6 604.4 Z M 956.2 447.8 C 955.8 445.7 953.5 454.1 956.3 450.9 C 958.5 450.0 958.3 455.7 956.2 454.2 C 956.0 455.9 955.9 455.9 956.9 456.9 C 955.2 457.1 954.4 461.2 955.3 462.5 C 956.7 463.4 955.5 459.9 957.0 462.1 C 957.4 467.1 958.5 461.8 960.4 463.7 C 960.4 463.9 959.5 464.0 960.0 464.5 C 961.8 464.6 962.9 461.8 964.3 463.1 C 964.0 462.3 965.9 458.7 964.4 460.2 C 962.7 460.7 966.4 456.3 963.7 456.6 C 964.9 455.4 963.2 454.2 964.7 453.1 C 965.0 452.1 963.6 452.2 963.2 452.3 C 962.0 452.4 966.1 451.2 963.8 449.8 C 964.5 449.7 964.2 445.7 963.3 448.7 C 963.4 447.8 964.0 443.2 961.6 445.6 C 960.5 448.8 959.1 442.3 959.0 446.1 C 958.7 449.0 959.2 449.6 958.0 447.4 C 958.1 446.7 957.9 443.4 956.8 446.2 C 957.1 446.9 956.9 448.2 956.2 447.8 C 956.2 447.8 956.2 447.8 956.2 447.8 Z M 959.8 447.2 C 959.9 448.9 958.8 447.4 959.8 447.2 C 959.8 447.2 959.8 447.2 959.8 447.2 Z M 965.2 453.3 C 965.4 455.0 964.3 453.4 965.2 453.3 C 965.2 453.3 965.2 453.3 965.2 453.3 Z M 955.6 453.1 C 956.3 453.9 953.8 454.1 955.6 453.1 C 955.6 453.1 955.6 453.1 955.6 453.1 Z M 963.2 450.5 C 963.2 450.6 962.9 450.2 962.8 449.9 C 962.9 450.0 963.2 450.4 963.2 450.5 C 963.2 450.5 963.2 450.5 963.2 450.5 Z M 955.6 455.9 C 956.8 458.4 953.6 456.4 955.6 455.9 C 955.6 455.9 955.6 455.9 955.6 455.9 Z M 958.0 460.9 C 960.5 461.2 957.4 463.5 958.0 460.9 C 958.0 460.9 958.0 460.9 958.0 460.9 Z M 963.5 457.4 C 962.9 457.0 963.8 457.0 963.5 457.4 C 963.5 457.4 963.5 457.4 963.5 457.4 Z M 963.8 446.5 C 963.3 446.1 964.2 446.1 963.8 446.5 C 963.8 446.5 963.8 446.5 963.8 446.5 Z M 963.3 460.6 C 962.3 460.3 963.7 459.6 963.3 460.6 C 963.3 460.6 963.3 460.6 963.3 460.6 Z M 956.6 453.5 C 954.6 451.2 959.5 450.8 956.6 453.5 C 956.6 453.5 956.6 453.5 956.6 453.5 Z M 956.4 449.4 C 956.0 447.9 957.6 449.7 957.3 450.4 C 957.1 450.3 956.5 449.7 956.4 449.4 C 956.4 449.4 956.4 449.4 956.4 449.4 Z M 956.8 455.9 C 955.8 454.4 957.4 454.5 956.8 455.9 C 956.8 455.9 956.8 455.9 956.8 455.9 Z M 955.7 452.0 C 955.9 451.2 956.0 452.6 955.7 452.0 C 955.7 452.0 955.7 452.0 955.7 452.0 Z M 954.7 459.0 C 955.0 458.3 955.0 459.7 954.7 459.0 C 954.7 459.0 954.7 459.0 954.7 459.0 Z M 955.4 447.5 C 955.6 446.7 955.6 448.2 955.4 447.5 C 955.4 447.5 955.4 447.5 955.4 447.5 Z M 956.0 458.4 C 957.0 458.6 958.9 456.4 957.2 460.4 C 956.6 461.1 955.3 459.4 956.0 458.4 C 956.0 458.4 956.0 458.4 956.0 458.4 Z M 957.3 597.5 C 954.5 607.2 959.4 604.9 960.3 605.3 C 961.7 606.6 962.5 605.3 963.5 603.4 C 966.6 601.4 960.3 600.4 963.3 598.9 C 967.5 596.3 959.7 596.0 964.1 594.9 C 965.3 595.3 964.3 591.5 964.0 591.9 C 966.1 590.0 962.4 587.3 962.0 587.3 C 962.6 586.0 966.5 585.9 963.6 582.0 C 962.5 579.0 966.4 577.7 963.7 578.5 C 966.8 576.3 962.9 577.0 963.9 574.8 C 965.5 573.2 961.3 574.7 964.5 572.0 C 962.0 570.7 966.2 573.2 964.4 565.8 C 964.2 569.4 962.4 562.3 964.1 563.7 C 965.9 566.3 963.4 560.2 964.5 556.8 C 963.5 555.9 961.3 551.9 963.8 552.6 C 966.7 549.1 962.0 549.0 964.4 547.5 C 965.4 546.3 963.2 545.9 963.4 545.1 C 965.2 543.9 964.0 542.8 964.5 538.4 C 965.4 528.9 959.9 537.0 959.3 533.3 C 958.5 532.8 952.6 538.0 957.0 535.9 C 955.8 536.6 960.3 544.4 955.5 540.5 C 957.4 543.5 953.5 539.9 955.8 545.9 C 959.2 537.7 957.2 555.1 955.5 547.3 C 954.5 548.6 954.7 551.8 955.6 549.5 C 958.7 548.6 954.1 555.1 957.9 551.8 C 956.9 556.8 960.3 555.5 957.9 556.9 C 953.8 558.1 958.9 556.7 957.8 559.2 C 957.7 565.1 953.1 560.6 956.1 564.1 C 954.1 569.9 957.9 565.4 958.4 567.4 C 961.2 568.0 956.3 573.3 955.9 568.9 C 957.4 571.2 954.5 569.3 956.3 572.0 C 958.9 570.0 953.6 575.4 955.7 574.6 C 956.3 577.0 957.9 575.7 957.9 576.5 C 958.0 580.0 955.4 578.9 957.3 579.6 C 958.4 580.4 955.0 582.1 955.8 582.6 C 956.0 578.9 958.6 585.6 957.2 585.9 C 957.0 583.7 953.8 587.1 955.8 588.5 C 961.5 586.7 954.3 591.6 956.4 593.3 C 959.5 591.7 956.7 601.2 955.3 597.6 C 955.5 597.8 957.3 597.5 957.3 597.5 M 956.3 583.6 C 956.5 580.6 956.9 586.8 956.3 583.6 M 955.4 583.7 C 956.5 582.4 954.7 586.6 955.1 583.6 C 955.1 583.5 955.4 583.9 955.4 583.7 M 955.3 571.4 C 956.2 571.8 954.8 573.1 955.3 571.4 M 957.3 569.0 C 958.1 567.1 957.4 571.7 957.3 569.0 M 956.7 541.8 C 961.4 544.5 954.0 544.7 956.7 541.8 M 955.7 559.8 C 956.3 563.1 953.7 558.6 955.7 559.8 M 956.9 560.8 C 957.7 562.3 955.8 561.1 956.9 560.8 M 956.7 547.0 C 956.8 546.7 956.8 546.7 956.7 547.0 C 956.7 547.0 956.7 547.0 956.7 547.0 Z M 956.8 538.9 C 956.7 538.8 956.7 538.8 956.8 538.9 C 956.8 538.9 956.8 538.9 956.8 538.9 Z M 957.2 554.8 C 956.1 557.3 956.7 550.7 957.2 554.8 C 957.2 554.8 957.2 554.8 957.2 554.8 Z M 964.0 542.7 C 964.0 542.9 964.0 542.9 964.0 542.7 C 964.0 542.7 964.0 542.7 964.0 542.7 Z M 958.4 586.0 C 958.5 586.1 958.5 586.1 958.4 586.0 C 958.4 586.0 958.4 586.0 958.4 586.0 Z M 956.7 595.2 C 957.3 595.0 956.2 596.8 956.7 595.2 C 956.7 595.2 956.7 595.2 956.7 595.2 Z M 962.0 602.6 C 962.1 602.7 962.1 602.7 962.0 602.6 C 962.0 602.6 962.0 602.6 962.0 602.6 Z M 960.9 589.0 C 961.0 589.2 961.0 589.2 960.9 589.0 C 960.9 589.0 960.9 589.0 960.9 589.0 Z M 957.4 587.7 C 954.8 589.2 958.1 584.2 957.4 587.7 C 957.4 587.7 957.4 587.7 957.4 587.7 Z M 963.7 557.9 C 962.5 557.8 964.1 555.8 963.7 557.9 C 963.7 557.9 963.7 557.9 963.7 557.9 Z M 958.3 568.7 C 957.7 568.3 958.6 567.3 958.3 568.7 C 958.3 568.7 958.3 568.7 958.3 568.7 Z M 954.8 573.7 C 954.2 573.3 955.1 572.4 954.8 573.7 C 954.8 573.7 954.8 573.7 954.8 573.7 Z M 955.9 595.0 C 955.8 594.8 955.8 594.8 955.9 595.0 C 955.9 595.0 955.9 595.0 955.9 595.0 Z M 957.9 591.7 C 955.5 594.0 959.2 588.2 957.9 591.7 C 957.9 591.7 957.9 591.7 957.9 591.7 Z M 958.6 595.6 C 959.5 594.4 958.2 598.6 958.6 595.6 M 962.3 593.4 C 961.3 590.6 966.7 595.9 962.3 593.4 C 962.3 593.4 962.3 593.4 962.3 593.4 Z M 963.3 579.2 C 963.4 579.0 963.4 579.0 963.3 579.2 C 963.3 579.2 963.3 579.2 963.3 579.2 Z M 956.2 580.7 C 956.3 578.2 956.8 582.3 956.2 580.7 C 956.2 580.7 956.2 580.7 956.2 580.7 Z M 955.7 602.0 C 955.7 599.6 956.2 603.6 955.7 602.0 C 955.7 602.0 955.7 602.0 955.7 602.0 Z M 960.9 571.0 C 960.5 567.0 962.2 573.4 960.9 571.0 C 960.9 571.0 960.9 571.0 960.9 571.0 Z M 958.1 556.2 C 958.2 556.1 958.2 556.1 958.1 556.2 C 958.1 556.2 958.1 556.2 958.1 556.2 Z M 957.1 553.4 C 957.2 553.4 957.2 553.4 957.1 553.4 C 957.1 553.4 957.1 553.4 957.1 553.4 Z M 959.6 542.0 C 959.7 541.8 959.7 541.8 959.6 542.0 C 959.6 542.0 959.6 542.0 959.6 542.0 Z M 955.9 551.0 C 956.0 550.9 956.0 550.9 955.9 551.0 C 955.9 551.0 955.9 551.0 955.9 551.0 Z M 956.6 543.0 C 956.7 542.9 956.7 542.9 956.6 543.0 C 956.6 543.0 956.6 543.0 956.6 543.0 Z M 954.5 544.1 C 954.6 544.0 954.6 544.0 954.5 544.1 C 954.5 544.1 954.5 544.1 954.5 544.1 Z M 965.1 561.8 C 965.2 561.6 965.2 561.6 965.1 561.8 C 965.1 561.8 965.1 561.8 965.1 561.8 Z M 955.1 590.7 C 955.3 590.5 955.3 590.5 955.1 590.7 C 955.1 590.7 955.1 590.7 955.1 590.7 Z M 957.5 543.7 C 957.6 543.6 957.6 543.6 957.5 543.7 C 957.5 543.7 957.5 543.7 957.5 543.7 Z M 959.4 563.0 C 961.5 562.9 956.7 564.7 959.3 562.5 C 959.4 562.6 959.1 563.2 959.4 563.0 M 962.9 560.4 C 962.9 560.5 962.9 560.5 962.9 560.4 C 962.9 560.4 962.9 560.4 962.9 560.4 Z M 964.2 569.2 C 964.2 569.3 964.2 569.3 964.2 569.2 C 964.2 569.2 964.2 569.2 964.2 569.2 Z M 955.5 552.3 C 954.4 552.7 956.4 550.2 955.6 552.7 M 963.2 541.9 C 962.1 542.3 964.1 539.7 963.3 542.2 M 956.4 604.8 C 957.3 605.2 955.9 606.5 956.4 604.8 M 965.2 571.2 C 966.1 571.5 964.7 572.8 965.2 571.2 M 962.6 567.1 C 961.4 567.4 963.5 564.9 962.7 567.4 M 963.2 547.9 C 963.2 547.8 963.2 547.8 963.2 547.9 C 963.2 547.9 963.2 547.9 963.2 547.9 Z M 956.4 577.0 C 956.5 576.8 956.5 576.8 956.4 577.0 C 956.4 577.0 956.4 577.0 956.4 577.0 Z M 958.9 566.2 C 957.3 567.7 959.9 564.3 958.9 566.2 M 959.2 580.1 C 957.2 582.2 959.8 576.7 959.2 580.1 M 963.7 537.4 C 961.3 539.7 965.0 535.6 963.7 537.4 M 957.8 549.1 C 955.4 551.5 959.1 547.4 957.8 549.1 M 957.4 574.8 C 956.2 574.9 958.2 572.4 957.4 574.8 M 956.2 599.3 C 956.0 601.5 955.3 596.3 956.2 599.3 M 963.2 553.8 C 963.3 553.6 963.3 553.6 963.2 553.8 C 963.2 553.8 963.2 553.8 963.2 553.8 Z M 965.3 591.9 C 965.4 591.8 965.4 591.8 965.3 591.9 C 965.3 591.9 965.3 591.9 965.3 591.9 Z M 955.9 534.3 C 956.0 534.2 956.0 534.2 955.9 534.3 C 955.9 534.3 955.9 534.3 955.9 534.3 Z M 958.9 550.6 C 959.0 550.5 959.0 550.5 958.9 550.6 C 958.9 550.6 958.9 550.6 958.9 550.6 Z M 955.6 538.9 C 955.8 538.7 955.8 538.7 955.6 538.9 C 955.6 538.9 955.6 538.9 955.6 538.9 Z M 960.7 558.0 C 960.8 558.0 960.8 558.0 960.7 558.0 C 960.7 558.0 960.7 558.0 960.7 558.0 Z M 954.7 559.5 C 954.7 559.5 954.7 559.5 954.7 559.5 C 954.7 559.5 954.7 559.5 954.7 559.5 Z M 957.2 567.6 C 957.3 567.6 957.3 567.6 957.2 567.6 C 957.2 567.6 957.2 567.6 957.2 567.6 Z M 955.1 555.8 C 954.8 550.9 957.1 558.3 955.1 555.8 C 955.1 555.8 955.1 555.8 955.1 555.8 Z M 961.2 564.2 C 961.2 564.1 961.2 564.1 961.2 564.2 C 961.2 564.2 961.2 564.2 961.2 564.2 Z M 956.9 564.9 C 955.2 561.8 959.8 563.2 956.9 564.9 M 955.5 578.4 C 954.6 577.4 956.9 577.9 955.5 578.4 M 963.4 583.8 C 963.5 583.8 963.5 583.8 963.4 583.8 C 963.4 583.8 963.4 583.8 963.4 583.8 Z M 962.8 582.3 C 962.9 582.2 962.9 582.2 962.8 582.3 C 962.8 582.3 962.8 582.3 962.8 582.3 Z M 955.1 581.7 C 955.1 581.6 955.1 581.6 955.1 581.7 C 955.1 581.7 955.1 581.7 955.1 581.7 Z M 965.1 582.1 C 965.1 582.0 965.1 582.0 965.1 582.1 C 965.1 582.1 965.1 582.1 965.1 582.1 Z M 954.8 561.4 C 954.8 561.3 954.8 561.3 954.8 561.4 C 954.8 561.4 954.8 561.4 954.8 561.4 Z M 954.7 536.5 C 954.8 536.4 954.8 536.4 954.7 536.5 C 954.7 536.5 954.7 536.5 954.7 536.5 Z M 962.6 598.6 C 962.7 598.4 962.7 598.4 962.6 598.6 C 962.6 598.6 962.6 598.6 962.6 598.6 Z M 957.2 558.8 C 957.3 558.7 957.3 558.7 957.2 558.8 C 957.2 558.8 957.2 558.8 957.2 558.8 Z M 963.1 587.3 C 963.1 587.2 963.1 587.2 963.1 587.3 C 963.1 587.3 963.1 587.3 963.1 587.3 Z M 956.7 560.4 C 956.7 560.3 956.7 560.3 956.7 560.4 C 956.7 560.4 956.7 560.4 956.7 560.4 Z M 963.7 554.5 C 963.8 554.5 963.8 554.5 963.7 554.5 C 963.7 554.5 963.7 554.5 963.7 554.5 Z M 965.1 549.2 C 965.1 549.1 965.1 549.1 965.1 549.2 C 965.1 549.2 965.1 549.2 965.1 549.2 Z M 959.5 554.9 C 959.6 554.8 959.6 554.8 959.5 554.9 C 959.5 554.9 959.5 554.9 959.5 554.9 Z M 960.4 589.0 C 958.4 598.8 959.5 581.3 960.4 589.0 M 960.0 553.2 C 959.5 560.1 957.7 547.8 960.0 553.2 C 959.4 552.5 959.9 553.2 960.0 553.2 M 954.9 531.9 C 957.2 534.7 959.3 534.7 961.6 533.5 C 962.7 532.1 958.3 532.1 962.1 532.1 C 962.8 535.3 967.7 530.7 962.9 530.8 C 962.2 526.5 966.0 530.1 964.0 527.5 C 963.5 523.0 965.0 525.4 964.7 521.9 C 962.0 519.9 966.0 519.9 963.5 519.0 C 966.2 520.7 962.7 515.3 964.0 515.1 C 965.6 518.3 964.0 503.1 963.2 511.4 C 961.9 508.0 964.2 508.6 964.5 507.5 C 962.9 506.0 965.8 502.0 964.2 499.9 C 963.8 500.3 963.7 501.3 963.2 501.6 C 962.2 502.2 963.4 499.3 963.3 499.6 C 962.7 498.2 961.1 492.8 964.0 498.6 C 965.3 498.9 963.4 493.9 964.5 494.1 C 964.6 489.0 961.9 492.8 963.9 490.5 C 963.9 487.0 964.0 484.4 963.6 484.4 C 963.9 482.2 965.4 481.7 964.0 479.8 C 966.9 475.4 958.4 476.7 964.1 475.0 C 962.7 473.7 966.4 472.5 962.9 472.7 C 964.5 474.2 965.6 465.2 963.1 469.1 C 962.3 468.1 966.7 462.4 963.1 463.2 C 960.5 461.2 958.0 461.5 955.5 465.9 C 957.5 465.5 953.4 470.6 956.9 467.3 C 958.0 463.5 958.1 474.3 956.8 472.0 C 952.7 471.4 959.4 477.2 956.5 479.5 C 958.1 477.6 958.9 486.4 955.8 483.8 C 955.6 485.5 957.1 485.8 955.3 487.6 C 955.5 482.4 958.5 489.6 956.6 489.3 C 955.4 488.4 954.5 496.3 956.2 495.4 C 960.5 492.7 955.4 497.5 957.0 498.8 C 958.0 503.1 953.4 498.2 956.5 501.4 C 956.0 502.2 956.0 508.0 955.1 504.3 C 955.5 503.0 959.8 507.7 956.1 508.4 C 954.1 502.2 955.0 515.4 956.2 513.3 C 958.1 503.9 958.4 523.4 956.4 516.0 C 954.4 520.2 955.6 514.7 956.5 519.9 C 957.6 519.2 958.8 523.3 956.5 522.3 C 953.0 523.2 961.1 523.8 956.3 527.0 C 954.3 527.4 957.8 533.3 955.6 531.0 C 955.3 530.9 954.9 531.7 954.9 531.9 M 955.3 530.0 C 956.1 530.7 954.4 531.2 955.3 530.0 M 956.1 530.8 C 956.0 530.8 956.0 530.8 956.1 530.8 C 956.1 530.8 956.1 530.8 956.1 530.8 Z M 956.6 520.7 C 956.5 520.8 956.5 520.8 956.6 520.7 C 956.6 520.7 956.6 520.7 956.6 520.7 Z M 965.3 512.7 C 965.2 512.8 965.2 512.8 965.3 512.7 C 965.3 512.7 965.3 512.7 965.3 512.7 Z M 956.8 514.0 C 956.8 514.1 956.8 514.1 956.8 514.0 C 956.8 514.0 956.8 514.0 956.8 514.0 Z M 957.2 524.3 C 957.2 524.4 957.2 524.4 957.2 524.3 C 957.2 524.3 957.2 524.3 957.2 524.3 Z M 955.6 514.6 C 956.9 514.1 954.6 516.9 955.4 514.5 C 955.4 514.4 955.4 514.8 955.6 514.6 M 955.0 505.8 C 955.2 505.8 955.2 505.8 955.0 505.8 M 965.2 486.5 C 965.4 486.4 965.4 486.4 965.2 486.5 M 954.9 484.9 C 955.1 484.7 955.1 484.7 954.9 484.9 M 956.4 497.1 C 956.2 494.4 957.0 496.4 956.4 497.1 M 955.7 477.8 C 954.8 481.2 955.0 474.2 955.7 477.8 M 954.9 474.6 C 955.0 474.3 955.0 474.3 954.9 474.6 M 955.4 489.8 C 955.5 489.8 955.5 489.8 955.4 489.8 C 955.4 489.8 955.4 489.8 955.4 489.8 Z M 955.8 498.2 C 955.1 501.7 954.6 494.7 955.8 498.2 M 955.4 519.5 C 954.7 517.6 957.0 519.5 955.4 519.5 M 956.1 523.5 C 956.2 523.5 956.2 523.5 956.1 523.5 C 956.1 523.5 956.1 523.5 956.1 523.5 Z M 955.6 483.2 C 955.6 483.4 955.6 483.4 955.6 483.2 C 955.6 483.2 955.6 483.2 955.6 483.2 Z M 955.4 479.4 C 955.4 479.5 955.4 479.5 955.4 479.4 C 955.4 479.4 955.4 479.4 955.4 479.4 Z M 964.9 472.9 C 965.0 473.0 965.0 473.0 964.9 472.9 C 964.9 472.9 964.9 472.9 964.9 472.9 Z M 960.1 520.5 C 959.4 523.1 957.0 517.9 959.3 518.4 C 960.3 518.1 959.9 520.2 960.1 520.5 M 958.7 500.8 C 962.0 500.1 954.3 503.4 958.7 500.8 M 957.0 474.1 C 960.9 471.5 954.3 477.4 957.0 474.1 M 956.4 468.8 C 957.2 467.2 956.8 478.6 955.8 470.6 C 955.2 469.9 956.0 469.3 956.4 468.8 M 956.6 505.7 C 958.4 504.9 955.8 509.9 956.6 505.7 M 962.0 489.6 C 960.9 488.3 959.8 485.0 961.8 486.4 C 964.3 486.5 963.0 491.1 962.0 489.6 M 957.2 529.2 C 954.3 527.1 959.6 529.3 957.2 529.2 M 957.4 519.0 C 957.3 519.0 957.3 519.0 957.4 519.0 C 957.4 519.0 957.4 519.0 957.4 519.0 Z M 957.0 515.0 C 957.2 514.8 957.2 514.8 957.0 515.0 M 954.6 527.6 C 954.9 527.4 954.9 527.4 954.6 527.6 M 959.0 489.6 C 959.2 489.4 959.2 489.4 959.0 489.6 M 957.1 497.9 C 960.0 494.0 957.7 500.0 957.1 497.9 M 962.6 507.5 C 963.9 506.3 962.7 510.0 962.6 507.5 M 956.0 491.4 C 958.7 488.6 958.6 495.2 956.0 491.4 M 956.8 499.8 C 956.8 499.6 956.8 499.6 956.8 499.8 C 956.8 499.8 956.8 499.8 956.8 499.8 Z M 962.3 488.5 C 962.4 488.6 962.4 488.6 962.3 488.5 C 962.3 488.5 962.3 488.5 962.3 488.5 Z M 962.2 487.3 C 962.2 487.5 962.2 487.5 962.2 487.3 C 962.2 487.3 962.2 487.3 962.2 487.3 Z M 955.7 488.0 C 955.8 488.1 955.8 488.1 955.7 488.0 C 955.7 488.0 955.7 488.0 955.7 488.0 Z M 963.6 523.8 C 963.8 521.0 964.0 525.9 963.6 523.8 C 963.6 523.8 963.6 523.8 963.6 523.8 Z M 955.6 511.4 C 957.7 506.8 957.6 514.6 955.6 511.4 C 955.6 511.4 955.6 511.4 955.6 511.4 Z M 959.1 506.2 C 959.3 506.2 959.3 506.2 959.1 506.2 C 959.1 506.2 959.1 506.2 959.1 506.2 Z M 954.4 493.2 C 954.5 493.2 954.5 493.2 954.4 493.2 C 954.4 493.2 954.4 493.2 954.4 493.2 Z M 963.9 522.4 C 964.1 522.4 964.1 522.4 963.9 522.4 C 963.9 522.4 963.9 522.4 963.9 522.4 Z M 957.2 480.1 C 957.3 480.1 957.3 480.1 957.2 480.1 C 957.2 480.1 957.2 480.1 957.2 480.1 Z M 962.7 496.1 C 961.7 495.1 963.6 495.9 962.7 496.1 C 962.7 496.1 962.7 496.1 962.7 496.1 Z M 962.8 491.9 C 962.7 491.8 962.7 491.8 962.8 491.9 C 962.8 491.9 962.8 491.9 962.8 491.9 Z M 954.7 473.5 C 954.7 473.4 954.7 473.4 954.7 473.5 C 954.7 473.5 954.7 473.5 954.7 473.5 Z M 965.3 481.3 C 965.3 481.2 965.3 481.2 965.3 481.3 C 965.3 481.3 965.3 481.3 965.3 481.3 Z M 962.1 477.8 C 962.2 477.9 962.2 477.9 962.1 477.8 C 962.1 477.8 962.1 477.8 962.1 477.8 Z M 956.4 488.7 C 955.9 484.6 957.6 489.7 956.4 488.7 C 956.4 488.7 956.4 488.7 956.4 488.7 Z M 961.3 467.5 C 961.4 467.4 961.4 467.4 961.3 467.5 C 961.3 467.5 961.3 467.5 961.3 467.5 Z M 957.6 465.4 C 957.7 465.3 957.7 465.3 957.6 465.4 C 957.6 465.4 957.6 465.4 957.6 465.4 Z M 955.6 464.4 C 955.8 464.2 955.8 464.2 955.6 464.4 C 955.6 464.4 955.6 464.4 955.6 464.4 Z M 960.9 515.1 C 960.8 515.2 960.8 515.2 960.9 515.1 C 960.9 515.1 960.9 515.1 960.9 515.1 Z M 954.9 516.7 C 954.9 516.7 954.9 516.7 954.9 516.7 C 954.9 516.7 954.9 516.7 954.9 516.7 Z M 954.6 511.1 C 954.6 511.1 954.6 511.1 954.6 511.1 C 954.6 511.1 954.6 511.1 954.6 511.1 Z M 964.6 516.1 C 964.5 516.1 964.5 516.1 964.6 516.1 C 964.6 516.1 964.6 516.1 964.6 516.1 Z M 959.5 494.9 C 959.4 495.0 959.4 495.0 959.5 494.9 C 959.5 494.9 959.5 494.9 959.5 494.9 Z M 961.9 493.0 C 961.8 493.1 961.8 493.1 961.9 493.0 C 961.9 493.0 961.9 493.0 961.9 493.0 Z M 965.1 497.8 C 965.1 497.9 965.1 497.9 965.1 497.8 C 965.1 497.8 965.1 497.8 965.1 497.8 Z M 964.0 491.4 C 964.0 491.5 964.0 491.5 964.0 491.4 C 964.0 491.4 964.0 491.4 964.0 491.4 Z M 963.5 530.2 C 963.5 530.2 963.5 530.2 963.5 530.2 C 963.5 530.2 963.5 530.2 963.5 530.2 Z M 958.9 530.7 C 959.0 530.8 959.0 530.8 958.9 530.7 C 958.9 530.7 958.9 530.7 958.9 530.7 Z M 956.1 494.3 C 955.1 493.4 957.4 492.4 956.1 494.3 M 956.7 502.4 C 956.8 502.4 956.8 502.4 956.7 502.4 C 956.7 502.4 956.7 502.4 956.7 502.4 Z M 956.3 480.8 C 958.1 479.7 955.4 484.6 956.3 480.8 C 956.3 480.8 956.3 480.8 956.3 480.8 Z M 964.0 485.0 C 964.0 484.9 964.0 484.9 964.0 485.0 C 964.0 485.0 964.0 485.0 964.0 485.0 Z M 963.2 482.9 C 963.4 482.8 963.4 482.8 963.2 482.9 C 963.2 482.9 963.2 482.9 963.2 482.9 Z M 958.2 471.3 C 958.4 471.1 958.4 471.1 958.2 471.3 M 955.1 503.4 C 955.9 502.2 955.7 502.4 955.1 503.4 M 956.4 478.1 C 956.4 478.2 956.4 478.2 956.4 478.1 C 956.4 478.1 956.4 478.1 956.4 478.1 Z M 957.2 468.7 C 957.3 468.8 957.3 468.8 957.2 468.7 C 957.2 468.7 957.2 468.7 957.2 468.7 Z M 956.3 509.1 C 958.5 508.9 958.0 510.0 956.3 509.1 M 957.0 525.1 C 957.2 525.1 957.2 525.1 957.0 525.1 C 957.0 525.1 957.0 525.1 957.0 525.1 Z M 957.0 525.1 " fill="#DE6A10"></path><path d="M 983.2 447.0 C 984.1 447.2 985.0 449.9 983.3 448.1 C 983.2 448.0 982.8 446.9 983.2 447.0 Z M 980.7 442.8 C 980.9 443.1 981.0 443.4 980.9 443.7 C 980.5 444.6 980.1 441.7 980.7 442.8 Z M 983.5 449.4 C 983.7 449.5 984.5 450.8 984.1 450.7 C 983.7 450.6 983.4 449.4 983.5 449.4 Z M 976.8 440.0 C 977.2 439.8 978.0 441.3 978.0 441.6 C 977.9 442.6 976.0 440.3 976.8 440.0 Z M 969.7 451.5 C 969.6 451.5 969.5 451.5 969.4 451.5 C 969.5 451.5 969.6 451.5 969.7 451.5 Z M 966.1 420.0 C 966.3 420.2 966.3 420.9 965.9 420.9 C 965.4 421.0 965.5 419.2 966.1 420.0 Z M 942.1 452.3 C 942.1 452.3 942.8 452.6 942.5 452.8 C 942.2 453.1 941.9 452.6 942.1 452.3 Z M 942.1 452.8 C 942.3 453.1 941.6 453.3 941.8 453.0 C 941.9 452.6 942.0 452.4 942.1 452.8 Z M 948.0 430.4 C 948.1 430.2 948.1 430.1 948.2 430.3 C 948.2 430.5 947.9 430.7 948.0 430.4 Z M 948.1 431.3 C 948.3 431.7 947.6 431.8 947.7 431.4 C 947.8 431.0 947.9 430.9 948.1 431.3 Z M 943.7 434.3 C 943.8 434.2 943.8 434.0 943.9 434.2 C 944.0 434.4 943.6 434.7 943.7 434.3 Z M 953.5 453.5 C 953.3 453.6 952.5 453.4 952.5 453.1 C 952.6 452.6 953.8 453.2 953.5 453.5 Z M 952.4 453.7 C 952.5 454.0 951.8 454.1 952.0 453.7 C 952.1 453.5 952.3 453.4 952.4 453.7 Z M 955.9 453.0 C 955.9 452.6 956.8 452.5 957.0 452.6 C 957.3 452.8 957.7 452.9 958.0 453.0 C 958.2 453.1 955.9 453.6 955.9 453.0 Z M 963.3 452.6 C 963.3 452.7 963.2 452.8 962.9 452.7 C 962.5 452.5 963.3 452.4 963.3 452.6 Z M 959.1 452.8 C 959.1 453.0 959.0 453.1 958.7 452.9 C 958.3 452.8 959.1 452.6 959.1 452.8 Z M 973.0 431.6 C 973.2 431.3 973.6 432.5 973.6 432.6 C 973.6 432.8 973.3 432.3 973.4 432.6 C 973.4 433.0 972.3 432.8 973.0 431.6 Z M 979.2 440.5 C 979.3 440.8 979.2 440.9 978.9 441.0 C 978.9 441.0 978.7 440.0 979.2 440.5 Z M 972.6 433.8 C 972.7 433.7 972.8 433.9 972.7 434.0 C 972.6 434.1 972.5 433.8 972.6 433.8 Z M 972.0 433.1 C 972.1 433.3 972.1 434.1 971.8 434.1 C 971.3 434.2 971.3 432.4 972.0 433.1 Z M 972.7 430.1 C 972.8 430.4 972.8 430.4 972.6 430.3 C 972.4 430.2 972.7 430.1 972.7 430.1 Z M 976.4 435.2 C 976.5 435.5 976.5 435.5 976.3 435.4 C 976.1 435.3 976.4 435.2 976.4 435.2 Z M 970.5 428.0 C 970.5 427.9 971.3 428.4 970.8 429.0 C 970.1 429.7 970.5 428.0 970.5 428.0 Z M 967.4 424.7 C 967.5 425.0 967.2 425.0 967.2 424.7 C 967.1 424.4 967.3 424.4 967.4 424.7 Z M 965.4 424.1 C 965.3 423.5 965.4 423.0 965.7 423.7 C 966.0 424.4 965.4 424.6 965.4 424.1 Z M 966.1 424.6 C 966.0 424.7 965.8 424.4 965.9 424.3 C 966.1 424.2 966.2 424.5 966.1 424.6 Z M 968.9 427.2 C 969.3 427.4 969.1 428.0 968.7 427.6 C 968.3 427.2 968.5 427.1 968.9 427.2 Z M 973.6 453.4 C 973.8 453.3 973.8 453.7 973.6 453.9 C 973.4 454.1 973.3 453.5 973.6 453.4 Z M 957.6 451.7 C 957.8 452.0 957.7 452.0 957.2 451.9 C 956.8 451.8 957.4 451.5 957.6 451.7 Z M 947.5 450.9 C 947.8 451.2 947.6 451.2 947.2 451.1 C 946.7 450.9 947.3 450.7 947.5 450.9 Z M 961.7 451.7 C 961.8 451.9 960.7 452.7 960.2 452.0 C 959.6 451.2 961.4 451.1 961.7 451.7 Z M 971.6 443.7 C 971.8 443.6 971.7 443.8 971.7 443.8 C 971.4 443.8 971.4 443.8 971.6 443.7 Z M 959.4 450.5 C 959.6 450.4 959.6 450.8 959.4 451.0 C 959.2 451.2 959.1 450.6 959.4 450.5 Z M 949.3 451.5 C 949.7 451.7 949.5 452.4 949.3 452.6 C 948.4 453.2 947.8 452.4 947.2 452.0 C 946.8 451.6 949.1 451.4 949.3 451.5 Z M 976.0 451.9 C 975.8 451.8 975.5 451.7 975.3 451.7 C 975.3 451.9 975.1 451.8 974.9 451.6 C 973.9 451.8 973.3 452.7 972.7 452.9 C 971.2 453.5 970.6 451.6 969.7 451.5 C 970.0 451.5 970.2 451.5 970.3 451.3 C 970.7 450.7 967.2 451.0 967.0 451.0 C 963.9 451.5 967.6 452.0 967.6 453.0 C 967.6 453.4 965.5 452.3 965.4 452.2 C 964.4 451.8 964.3 452.8 963.5 452.4 C 963.1 452.2 961.9 449.9 961.6 450.2 C 961.3 450.5 960.4 450.3 960.0 450.2 C 959.5 450.2 958.5 450.3 959.0 451.2 C 959.4 451.8 959.6 452.4 958.8 451.8 C 958.3 451.4 954.7 450.0 954.9 451.7 C 954.9 451.8 955.7 452.3 955.7 452.3 C 954.7 452.7 951.7 452.1 951.0 452.8 C 949.4 454.3 951.5 451.9 950.7 451.4 C 949.3 450.7 948.6 450.2 946.9 450.5 C 946.5 450.5 944.9 450.6 945.6 451.5 C 946.2 452.1 945.8 452.5 946.8 452.7 C 945.6 453.5 944.9 451.9 944.7 452.2 C 944.3 452.7 945.0 453.0 944.2 452.9 C 943.2 452.8 943.6 453.1 943.4 452.2 C 943.4 451.9 942.5 451.7 942.5 451.7 C 942.5 451.7 942.5 451.6 942.5 451.5 C 941.6 451.6 940.4 453.2 940.2 452.8 C 940.0 452.5 940.4 451.5 940.4 451.1 C 940.3 451.1 940.3 451.1 940.2 451.0 C 939.9 451.2 939.0 451.8 938.9 451.7 C 938.8 451.5 939.4 450.0 939.0 450.5 C 938.6 450.9 936.8 450.3 936.7 449.9 C 936.6 449.4 936.2 447.4 935.8 447.3 C 935.5 447.2 936.2 446.2 936.3 445.9 C 936.4 445.6 937.2 445.3 937.4 445.3 C 937.6 445.2 937.9 444.4 937.9 444.4 C 937.9 444.4 937.9 444.0 938.2 443.4 C 938.5 442.8 939.1 442.6 939.8 442.0 C 940.4 441.4 940.2 440.8 940.5 440.0 C 940.8 439.3 942.3 439.4 942.8 438.8 C 943.3 438.3 942.4 437.8 942.8 437.0 C 943.1 436.2 943.6 435.9 943.6 436.3 C 943.6 436.6 944.0 436.5 944.1 436.3 C 944.2 436.1 945.0 435.4 945.1 434.9 C 945.1 434.5 943.0 436.3 944.8 433.6 C 945.7 432.2 947.2 431.8 947.0 432.1 C 946.4 433.2 949.1 431.9 948.7 431.6 C 948.2 431.3 949.8 429.0 948.7 429.1 C 948.3 429.1 949.5 426.6 949.8 426.3 C 950.2 426.1 950.6 424.8 951.6 425.0 C 952.0 425.0 951.8 423.1 952.0 422.8 C 952.2 422.5 953.5 420.6 953.9 420.4 C 954.3 420.1 953.8 421.0 953.5 421.4 C 953.3 421.9 952.5 422.2 952.4 422.6 C 952.3 423.0 953.1 422.5 953.4 422.0 C 953.8 421.6 954.2 421.7 954.6 421.4 C 954.6 421.1 954.8 420.9 955.1 420.5 C 955.2 420.3 955.2 420.1 955.1 420.1 C 954.8 419.9 954.5 420.1 954.4 419.9 C 954.3 419.8 954.3 419.4 954.7 418.8 C 955.1 418.2 955.4 417.8 956.1 417.2 C 956.8 416.5 956.7 416.2 956.9 415.6 C 957.2 415.1 957.6 414.6 957.7 414.7 C 957.9 414.8 957.6 415.5 957.7 415.6 C 957.9 415.8 958.7 415.3 958.9 415.0 C 959.9 413.7 960.5 415.6 961.5 414.2 C 962.1 413.5 962.0 414.6 962.2 415.4 C 962.3 415.3 962.5 415.3 963.0 415.9 C 963.2 415.7 963.5 416.8 963.8 417.2 C 964.1 417.5 965.4 419.0 964.3 418.2 C 964.2 418.2 964.1 418.1 964.1 418.0 C 964.1 418.1 964.1 418.1 964.0 418.1 C 964.0 418.1 963.0 418.0 963.0 418.0 C 963.0 418.0 964.0 418.1 964.0 418.1 C 963.9 418.5 963.7 418.8 963.6 419.1 C 963.8 419.2 963.9 419.2 964.0 419.2 C 964.0 419.2 964.1 419.3 964.1 419.3 C 964.1 419.3 964.1 419.3 964.1 419.3 C 964.4 419.1 964.4 419.2 964.5 419.4 C 965.2 419.9 965.6 421.7 965.7 422.4 C 963.3 421.7 965.0 424.5 965.7 425.3 C 966.5 426.1 968.4 424.9 968.1 424.5 C 968.5 425.2 968.3 425.5 967.9 426.0 C 967.9 425.9 967.2 427.4 967.2 427.3 C 967.5 429.3 968.9 428.0 969.3 428.3 C 969.8 428.6 970.1 429.1 970.5 429.5 C 970.9 429.9 971.0 429.3 971.3 429.3 C 972.4 429.4 971.6 431.4 971.8 431.9 C 971.4 431.6 971.0 431.2 970.6 431.0 C 971.3 431.3 970.6 432.2 970.6 432.5 C 970.7 433.1 971.2 433.7 971.6 434.1 C 972.1 435.0 972.9 435.8 973.5 436.6 C 973.5 436.2 973.7 434.3 973.7 434.2 C 973.9 434.5 974.1 435.5 974.6 434.7 C 975.4 433.5 976.2 436.1 976.4 436.5 C 976.9 437.7 978.8 438.3 978.2 440.3 C 978.2 440.3 976.9 438.7 976.7 438.8 C 976.0 439.8 975.7 440.6 976.7 441.7 C 976.9 441.9 978.7 443.1 978.7 443.1 C 978.6 443.2 980.0 440.0 980.1 442.0 C 980.1 442.3 979.3 442.0 979.4 442.5 C 979.4 443.1 980.1 443.8 980.3 444.4 C 980.4 444.5 980.6 445.6 980.7 445.6 C 981.1 445.7 981.6 445.4 982.0 445.6 C 982.4 445.9 982.4 446.5 982.0 446.7 C 982.0 446.7 981.9 446.7 981.9 446.7 C 981.9 446.9 981.9 447.0 981.6 447.1 C 981.8 447.2 981.9 447.5 981.8 447.8 C 981.8 448.0 981.5 447.6 981.5 447.2 C 981.3 447.2 981.2 447.3 981.0 447.4 C 981.4 447.8 981.8 448.2 981.9 448.3 C 982.9 448.7 983.2 448.5 983.0 450.3 C 982.8 451.6 979.5 452.5 977.5 452.1 C 977.1 452.2 976.6 452.2 976.0 451.9 Z M 956.2 419.9 C 956.2 419.9 956.1 420.0 956.1 420.0 C 956.3 420.1 956.4 420.2 956.7 420.3 C 957.0 420.0 956.2 420.2 956.6 419.8 C 956.9 419.4 956.7 419.4 956.2 419.9 Z M 960.7 420.2 C 960.8 419.8 960.7 419.9 960.4 420.0 C 960.6 420.1 960.6 420.2 960.7 420.2 Z M 962.6 419.3 C 962.2 418.8 962.0 420.1 962.7 420.9 C 962.8 420.1 962.8 419.6 962.6 419.3 Z M 964.3 420.2 C 964.1 420.2 964.0 420.2 963.9 420.2 C 963.6 420.3 964.2 420.7 964.0 420.8 C 963.8 420.9 963.2 420.4 963.2 420.9 C 963.3 421.0 963.3 421.1 963.3 421.3 C 963.4 421.3 963.5 421.3 963.5 421.4 C 964.0 421.5 964.4 420.6 964.3 420.2 Z M 956.0 423.2 C 956.0 422.9 955.8 423.1 955.7 423.2 C 955.7 423.5 955.9 423.6 956.0 423.2 Z M 952.4 425.6 C 952.7 425.4 952.9 425.0 952.4 425.1 C 952.0 425.2 952.0 425.7 952.4 425.6 Z M 957.6 430.5 C 957.5 430.3 957.5 430.4 957.5 430.6 C 957.3 430.9 957.7 430.7 957.6 430.5 Z M 961.3 430.7 C 961.6 430.9 961.9 430.5 961.7 430.5 C 961.5 430.4 961.1 430.6 961.3 430.7 Z M 952.9 430.3 C 952.8 430.6 953.1 430.5 953.1 430.3 C 953.0 430.0 952.9 430.0 952.9 430.3 Z M 957.9 429.5 C 957.5 429.8 957.6 429.9 957.7 430.0 C 957.8 430.2 958.1 430.1 958.3 429.7 C 958.4 429.3 958.3 429.2 957.9 429.5 Z M 961.0 429.2 C 961.5 430.1 962.0 429.9 961.2 428.9 C 960.4 428.0 960.7 428.7 961.0 429.2 Z M 949.9 427.5 C 950.0 427.4 950.1 426.8 950.1 426.8 C 950.1 426.8 949.2 428.0 949.9 427.5 Z M 969.5 429.5 C 969.4 429.2 968.9 429.1 969.1 429.7 C 969.3 430.2 969.7 429.9 969.5 429.5 Z M 968.0 431.4 C 968.5 430.6 968.3 430.0 968.4 429.9 C 968.3 430.0 967.6 430.2 967.4 430.0 C 966.9 429.6 967.1 428.4 966.3 428.1 C 965.5 427.8 966.2 429.2 966.4 429.4 C 966.2 429.2 966.0 429.2 965.8 429.2 C 965.7 429.5 965.7 429.7 966.0 429.8 C 966.4 430.0 967.3 432.2 968.0 431.4 Z M 959.1 431.3 C 959.2 430.9 959.0 430.6 958.6 430.8 C 958.2 431.1 957.9 431.5 958.1 431.6 C 958.2 431.7 958.9 431.7 959.1 431.3 Z M 956.3 431.6 C 956.1 431.2 956.0 431.4 955.9 431.7 C 955.7 432.3 956.4 432.0 956.3 431.6 Z M 944.4 436.8 C 944.5 437.1 944.9 436.6 944.7 436.5 C 944.5 436.4 944.4 436.6 944.4 436.8 Z M 949.1 436.6 C 948.9 437.4 949.6 436.8 949.6 436.6 C 949.6 436.5 949.2 436.2 949.1 436.6 Z M 951.9 433.9 C 951.7 434.2 952.2 433.9 952.2 433.7 C 952.1 433.5 951.9 433.7 951.9 433.9 Z M 953.6 433.6 C 953.5 433.9 954.0 433.8 954.0 433.4 C 954.0 433.2 953.8 433.3 953.6 433.6 Z M 968.8 435.0 C 968.8 435.0 968.1 435.2 968.7 435.5 C 969.2 435.8 969.2 435.8 968.8 435.0 Z M 963.4 433.7 C 963.0 433.2 962.6 432.9 961.1 433.4 C 959.6 433.8 960.2 434.2 961.1 434.4 C 962.1 434.6 959.6 435.3 961.3 435.7 C 962.1 435.8 963.7 434.1 963.4 433.7 Z M 953.8 436.3 C 954.7 435.8 954.5 434.5 953.9 435.2 C 953.2 436.1 953.0 436.8 953.8 436.3 Z M 953.1 436.4 C 953.2 436.2 953.0 436.2 952.9 436.5 C 952.8 436.8 953.1 436.7 953.1 436.4 Z M 975.3 435.6 C 974.0 434.2 974.1 436.6 974.1 436.6 C 974.6 438.5 976.6 437.1 975.3 435.6 Z M 943.3 450.7 C 943.4 450.7 943.4 450.8 943.5 450.8 C 943.5 450.8 943.6 450.8 943.6 450.7 C 943.9 450.5 943.2 450.2 943.2 450.2 C 943.1 450.4 943.2 450.6 943.3 450.7 Z M 952.9 451.2 C 952.6 451.1 952.3 451.2 952.0 451.4 C 952.2 452.3 955.1 452.3 953.9 450.8 C 953.8 450.6 951.9 449.3 951.7 450.1 C 951.6 450.5 953.9 451.2 952.9 451.2 Z M 949.9 450.0 C 951.1 450.1 948.9 448.8 949.2 449.4 C 949.3 449.7 949.6 449.9 949.9 450.0 Z M 941.4 447.3 C 939.9 447.9 940.1 450.2 942.6 449.0 C 944.9 447.8 945.1 446.8 943.9 447.2 C 942.6 447.5 943.6 446.4 941.4 447.3 Z M 953.9 447.3 C 953.6 449.0 954.4 448.5 954.8 447.3 C 954.9 447.0 954.1 446.3 953.9 447.3 Z M 957.4 447.0 C 957.9 447.2 957.8 447.2 957.6 446.9 C 957.3 446.5 956.9 446.9 957.4 447.0 Z M 938.9 445.0 C 938.3 445.3 937.9 445.9 937.9 445.5 C 937.9 445.1 937.8 445.3 937.4 445.6 C 937.0 446.0 937.8 446.0 938.2 445.9 C 938.5 445.9 939.5 444.8 938.9 445.0 Z M 952.3 439.4 C 952.2 439.7 952.5 439.6 952.6 439.3 C 952.6 439.1 952.5 439.1 952.3 439.4 Z M 965.6 437.7 C 965.6 437.7 965.2 437.8 965.5 438.0 C 965.8 438.2 965.8 438.2 965.6 437.7 Z M 976.2 438.2 C 975.9 438.0 975.8 438.7 975.3 438.6 C 975.1 438.6 975.4 438.3 975.5 438.2 C 975.3 438.3 974.0 438.5 974.9 439.0 C 975.3 439.2 976.9 439.0 976.2 438.2 Z M 956.0 439.9 C 956.6 439.3 954.3 438.9 954.7 438.5 C 955.0 438.1 954.8 438.0 954.3 438.6 C 953.8 439.0 955.4 440.4 956.0 439.9 Z M 950.3 440.2 C 950.7 440.2 951.6 439.1 951.1 439.3 C 950.5 439.6 950.1 440.2 950.1 439.8 C 950.0 439.4 949.9 439.6 949.6 439.9 C 949.2 440.3 950.0 440.3 950.3 440.2 Z M 940.9 440.6 C 941.1 440.5 941.5 439.8 941.0 440.1 C 940.7 440.2 940.7 440.7 940.9 440.6 Z M 967.1 441.2 C 966.7 441.0 966.5 441.1 966.9 441.6 C 967.3 442.0 967.5 441.4 967.1 441.2 Z M 941.8 442.2 C 942.4 441.7 941.4 442.1 941.8 441.6 C 942.2 441.2 941.9 441.2 941.4 441.7 C 941.0 442.1 941.2 442.7 941.8 442.2 Z M 975.7 442.7 C 975.4 442.6 975.1 442.8 975.3 443.0 C 975.6 443.1 975.9 442.7 975.7 442.7 Z M 972.1 444.0 C 972.1 443.9 972.0 443.7 972.0 443.6 C 970.4 441.3 971.6 445.5 972.1 444.0 Z M 966.7 443.7 C 967.4 443.5 966.5 443.2 966.5 443.2 C 966.4 443.4 966.5 443.6 966.7 443.7 Z M 960.8 443.7 C 960.6 444.0 961.2 443.9 961.1 443.7 C 961.1 443.4 960.9 443.5 960.8 443.7 Z M 980.0 444.8 C 979.9 444.4 979.7 444.5 979.7 444.8 C 979.8 445.0 980.1 445.1 980.0 444.8 Z M 965.2 445.0 C 965.2 444.9 965.2 444.8 964.9 444.9 C 964.7 445.0 965.1 445.1 965.2 445.0 Z M 947.1 445.1 C 947.2 445.0 947.4 444.8 947.5 444.7 C 947.3 444.3 946.2 444.2 946.2 443.8 C 946.2 443.8 946.2 443.8 946.2 443.8 C 946.2 443.7 946.2 443.7 946.2 443.7 C 946.2 443.5 946.4 443.3 946.5 443.5 C 946.6 443.4 946.8 443.4 947.1 443.3 C 946.7 443.0 946.3 442.7 946.0 443.0 C 945.6 443.3 945.5 444.1 945.6 444.8 C 945.8 444.9 946.1 445.0 946.3 445.1 C 946.3 445.0 946.3 445.0 946.3 445.0 C 946.6 444.6 946.9 444.4 946.9 444.7 C 946.9 444.9 946.8 445.1 946.7 445.1 C 946.8 445.2 946.9 445.2 947.1 445.1 Z M 962.9 445.9 C 963.3 445.6 963.0 445.5 962.4 445.3 C 962.0 445.2 962.4 446.1 962.9 445.9 Z M 979.3 445.4 C 979.1 445.4 979.0 445.5 978.8 445.6 C 978.9 445.6 979.0 445.7 979.1 445.7 C 979.4 445.7 979.8 445.8 980.1 445.9 C 980.1 445.5 979.9 445.2 979.3 445.4 Z M 974.1 447.1 C 974.3 447.0 976.4 447.1 976.0 446.6 C 975.4 445.9 976.4 445.1 974.8 445.4 C 974.0 445.6 973.4 446.7 972.7 446.8 C 968.8 447.8 973.7 447.9 974.7 448.1 C 974.9 448.2 973.8 447.2 974.1 447.1 Z M 969.1 448.3 C 968.9 448.6 969.5 449.0 969.7 449.0 C 970.7 448.9 969.3 447.8 969.1 448.3 Z M 979.8 448.8 C 979.8 448.8 979.8 448.7 979.8 448.5 C 979.7 448.6 979.7 448.7 979.6 448.8 C 979.7 448.8 979.7 448.8 979.8 448.8 Z M 982.4 449.2 C 981.5 448.1 981.6 450.1 981.8 450.6 C 982.1 451.4 982.9 449.8 982.4 449.2 Z M 971.9 450.0 C 971.2 450.0 970.3 452.2 971.7 452.1 C 972.9 452.0 973.6 450.2 971.9 450.0 Z M 964.0 452.9 C 964.2 452.6 965.1 453.0 964.6 453.3 C 964.4 453.5 963.8 453.0 964.0 452.9 Z M 975.8 454.1 C 975.6 454.0 975.9 453.9 975.9 453.9 C 976.1 454.2 976.1 454.2 975.8 454.1 Z M 974.7 452.5 C 975.1 452.6 975.6 452.7 975.9 452.8 C 976.1 452.9 975.3 453.1 975.3 453.1 C 975.0 453.1 974.8 452.5 974.7 452.5 Z M 968.4 452.3 C 968.7 452.5 968.2 452.6 968.0 452.5 C 967.7 452.4 968.1 452.1 968.4 452.3 Z M 969.9 452.8 C 969.7 452.7 969.8 452.5 970.1 452.5 C 970.5 452.6 970.1 452.9 969.9 452.8 Z M 967.3 451.5 C 967.9 451.3 968.9 451.2 968.8 451.8 C 968.7 452.1 965.9 451.9 967.3 451.5 Z M 967.3 451.5 " fill="#DE6A10"></path></g></svg>