<?xml version="1.0" encoding="UTF-8" standalone="no"?><svg xmlns="http://www.w3.org/2000/svg" xmlns:xlink="http://www.w3.org/1999/xlink" clip-rule="evenodd" stroke-miterlimit="10" viewBox="0 0 1650 457"><desc>SVG generated by Keynote</desc><defs></defs><g transform="matrix(1.00, 0.00, -0.00, -1.00, 0.0, 457.0)"><text xml:space="preserve" font-family="Courier-Bold,Courier" font-weight="bold" font-size="56.0" fill="#F4871E" transform="matrix(1.00, 0.00, -0.00, -1.00, 1.1, 417.4)">h</text><text xml:space="preserve" font-family="Courier-Bold,Courier" font-weight="bold" font-size="56.0" fill="#F4871E" transform="matrix(1.00, 0.00, -0.00, -1.00, 34.7, 417.4)">a</text><text xml:space="preserve" font-family="Courier-Bold,Courier" font-weight="bold" font-size="56.0" fill="#F4871E" transform="matrix(1.00, 0.00, -0.00, -1.00, 68.3, 417.4)">n</text><text xml:space="preserve" font-family="Courier-Bold,Courier" font-weight="bold" font-size="56.0" fill="#F4871E" transform="matrix(1.00, 0.00, -0.00, -1.00, 101.9, 417.4)">d</text><text xml:space="preserve" font-family="Courier-Bold,Courier" font-weight="bold" font-size="56.0" fill="#F4871E" transform="matrix(1.00, 0.00, -0.00, -1.00, 135.5, 417.4)">s</text><text xml:space="preserve" font-family="Courier-Bold,Courier" font-weight="bold" font-size="56.0" fill="#F4871E" transform="matrix(1.00, 0.00, -0.00, -1.00, 169.1, 417.4)">h</text><text xml:space="preserve" font-family="Courier-Bold,Courier" font-weight="bold" font-size="56.0" fill="#F4871E" transform="matrix(1.00, 0.00, -0.00, -1.00, 202.7, 417.4)">a</text><text xml:space="preserve" font-family="Courier-Bold,Courier" font-weight="bold" font-size="56.0" fill="#F4871E" transform="matrix(1.00, 0.00, -0.00, -1.00, 236.3, 417.4)">k</text><text xml:space="preserve" font-family="Courier-Bold,Courier" font-weight="bold" font-size="56.0" fill="#F4871E" transform="matrix(1.00, 0.00, -0.00, -1.00, 270.0, 417.4)">e</text><text xml:space="preserve" font-family="Courier-Bold,Courier" font-weight="bold" font-size="56.0" fill="#000000" transform="matrix(1.00, 0.00, -0.00, -1.00, 303.5, 417.4)">(</text><text xml:space="preserve" font-family="Courier-Bold,Courier" font-weight="bold" font-size="56.0" fill="#000000" transform="matrix(1.00, 0.00, -0.00, -1.00, 337.1, 417.4)">t</text><text xml:space="preserve" font-family="Courier-Bold,Courier" font-weight="bold" font-size="56.0" fill="#000000" transform="matrix(1.00, 0.00, -0.00, -1.00, 370.7, 417.4)">i</text><text xml:space="preserve" font-family="Courier-Bold,Courier" font-weight="bold" font-size="56.0" fill="#000000" transform="matrix(1.00, 0.00, -0.00, -1.00, 404.4, 417.4)">m</text><text xml:space="preserve" font-family="Courier-Bold,Courier" font-weight="bold" font-size="56.0" fill="#000000" transform="matrix(1.00, 0.00, -0.00, -1.00, 438.0, 417.4)">e</text><text xml:space="preserve" font-family="Courier-Bold,Courier" font-weight="bold" font-size="56.0" fill="#000000" transform="matrix(1.00, 0.00, -0.00, -1.00, 471.6, 417.4)">o</text><text xml:space="preserve" font-family="Courier-Bold,Courier" font-weight="bold" font-size="56.0" fill="#000000" transform="matrix(1.00, 0.00, -0.00, -1.00, 505.2, 417.4)">u</text><text xml:space="preserve" font-family="Courier-Bold,Courier" font-weight="bold" font-size="56.0" fill="#000000" transform="matrix(1.00, 0.00, -0.00, -1.00, 538.8, 417.4)">t</text><text xml:space="preserve" font-family="Courier-Bold,Courier" font-weight="bold" font-size="56.0" fill="#000000" transform="matrix(1.00, 0.00, -0.00, -1.00, 572.4, 417.4)">,</text><text xml:space="preserve" font-family="Courier-Bold,Courier" font-weight="bold" font-size="56.0" fill="#000000" transform="matrix(1.00, 0.00, -0.00, -1.00, 1.1, 350.4)"> </text><text xml:space="preserve" font-family="Courier-Bold,Courier" font-weight="bold" font-size="56.0" fill="#000000" transform="matrix(1.00, 0.00, -0.00, -1.00, 34.7, 350.4)"> </text><text xml:space="preserve" font-family="Courier-Bold,Courier" font-weight="bold" font-size="56.0" fill="#000000" transform="matrix(1.00, 0.00, -0.00, -1.00, 68.3, 350.4)"> </text><text xml:space="preserve" font-family="Courier-Bold,Courier" font-weight="bold" font-size="56.0" fill="#000000" transform="matrix(1.00, 0.00, -0.00, -1.00, 101.9, 350.4)"> </text><text xml:space="preserve" font-family="Courier-Bold,Courier" font-weight="bold" font-size="56.0" fill="#000000" transform="matrix(1.00, 0.00, -0.00, -1.00, 135.5, 350.4)"> </text><text xml:space="preserve" font-family="Courier-Bold,Courier" font-weight="bold" font-size="56.0" fill="#000000" transform="matrix(1.00, 0.00, -0.00, -1.00, 169.1, 350.4)"> </text><text xml:space="preserve" font-family="Courier-Bold,Courier" font-weight="bold" font-size="56.0" fill="#000000" transform="matrix(1.00, 0.00, -0.00, -1.00, 202.7, 350.4)"> </text><text xml:space="preserve" font-family="Courier-Bold,Courier" font-weight="bold" font-size="56.0" fill="#000000" transform="matrix(1.00, 0.00, -0.00, -1.00, 236.3, 350.4)"> </text><text xml:space="preserve" font-family="Courier-Bold,Courier" font-weight="bold" font-size="56.0" fill="#000000" transform="matrix(1.00, 0.00, -0.00, -1.00, 270.0, 350.4)"> </text><text xml:space="preserve" font-family="Courier-Bold,Courier" font-weight="bold" font-size="56.0" fill="#000000" transform="matrix(1.00, 0.00, -0.00, -1.00, 303.6, 350.4)"> </text><text xml:space="preserve" font-family="Courier-Bold,Courier" font-weight="bold" font-size="56.0" fill="#EAB600" transform="matrix(1.00, 0.00, -0.00, -1.00, 337.1, 350.4)">S</text><text xml:space="preserve" font-family="Courier-Bold,Courier" font-weight="bold" font-size="56.0" fill="#EAB600" transform="matrix(1.00, 0.00, -0.00, -1.00, 370.7, 350.4)">t</text><text xml:space="preserve" font-family="Courier-Bold,Courier" font-weight="bold" font-size="56.0" fill="#EAB600" transform="matrix(1.00, 0.00, -0.00, -1.00, 404.3, 350.4)">a</text><text xml:space="preserve" font-family="Courier-Bold,Courier" font-weight="bold" font-size="56.0" fill="#EAB600" transform="matrix(1.00, 0.00, -0.00, -1.00, 438.0, 350.4)">t</text><text xml:space="preserve" font-family="Courier-Bold,Courier" font-weight="bold" font-size="56.0" fill="#EAB600" transform="matrix(1.00, 0.00, -0.00, -1.00, 471.6, 350.4)">e</text><text xml:space="preserve" font-family="Courier-Bold,Courier" font-weight="bold" font-size="56.0" fill="#EAB600" transform="matrix(1.00, 0.00, -0.00, -1.00, 505.2, 350.4)">W</text><text xml:space="preserve" font-family="Courier-Bold,Courier" font-weight="bold" font-size="56.0" fill="#EAB600" transform="matrix(1.00, 0.00, -0.00, -1.00, 538.8, 350.4)">i</text><text xml:space="preserve" font-family="Courier-Bold,Courier" font-weight="bold" font-size="56.0" fill="#EAB600" transform="matrix(1.00, 0.00, -0.00, -1.00, 572.4, 350.4)">t</text><text xml:space="preserve" font-family="Courier-Bold,Courier" font-weight="bold" font-size="56.0" fill="#EAB600" transform="matrix(1.00, 0.00, -0.00, -1.00, 606.0, 350.4)">h</text><text xml:space="preserve" font-family="Courier-Bold,Courier" font-weight="bold" font-size="56.0" fill="#EAB600" transform="matrix(1.00, 0.00, -0.00, -1.00, 639.6, 350.4)">S</text><text xml:space="preserve" font-family="Courier-Bold,Courier" font-weight="bold" font-size="56.0" fill="#EAB600" transform="matrix(1.00, 0.00, -0.00, -1.00, 673.2, 350.4)">o</text><text xml:space="preserve" font-family="Courier-Bold,Courier" font-weight="bold" font-size="56.0" fill="#EAB600" transform="matrix(1.00, 0.00, -0.00, -1.00, 706.8, 350.4)">c</text><text xml:space="preserve" font-family="Courier-Bold,Courier" font-weight="bold" font-size="56.0" fill="#EAB600" transform="matrix(1.00, 0.00, -0.00, -1.00, 740.5, 350.4)">k</text><text xml:space="preserve" font-family="Courier-Bold,Courier" font-weight="bold" font-size="56.0" fill="#EAB600" transform="matrix(1.00, 0.00, -0.00, -1.00, 774.1, 350.4)">e</text><text xml:space="preserve" font-family="Courier-Bold,Courier" font-weight="bold" font-size="56.0" fill="#EAB600" transform="matrix(1.00, 0.00, -0.00, -1.00, 807.7, 350.4)">t</text><text xml:space="preserve" font-family="Courier-Bold,Courier" font-weight="bold" font-size="56.0" fill="#000000" transform="matrix(1.00, 0.00, -0.00, -1.00, 841.2, 350.4)">=</text><text xml:space="preserve" font-family="Courier-Bold,Courier" font-weight="bold" font-size="56.0" fill="#000000" transform="matrix(1.00, 0.00, -0.00, -1.00, 874.8, 350.4)">#</text><text xml:space="preserve" font-family="Courier-Bold,Courier" font-weight="bold" font-size="56.0" fill="#4271AE" transform="matrix(1.00, 0.00, -0.00, -1.00, 908.4, 350.4)">c</text><text xml:space="preserve" font-family="Courier-Bold,Courier" font-weight="bold" font-size="56.0" fill="#4271AE" transform="matrix(1.00, 0.00, -0.00, -1.00, 942.0, 350.4)">o</text><text xml:space="preserve" font-family="Courier-Bold,Courier" font-weight="bold" font-size="56.0" fill="#4271AE" transform="matrix(1.00, 0.00, -0.00, -1.00, 975.6, 350.4)">n</text><text xml:space="preserve" font-family="Courier-Bold,Courier" font-weight="bold" font-size="56.0" fill="#4271AE" transform="matrix(1.00, 0.00, -0.00, -1.00, 1009.3, 350.4)">n</text><text xml:space="preserve" font-family="Courier-Bold,Courier" font-weight="bold" font-size="56.0" fill="#4271AE" transform="matrix(1.00, 0.00, -0.00, -1.00, 1042.9, 350.4)">e</text><text xml:space="preserve" font-family="Courier-Bold,Courier" font-weight="bold" font-size="56.0" fill="#4271AE" transform="matrix(1.00, 0.00, -0.00, -1.00, 1076.5, 350.4)">c</text><text xml:space="preserve" font-family="Courier-Bold,Courier" font-weight="bold" font-size="56.0" fill="#4271AE" transform="matrix(1.00, 0.00, -0.00, -1.00, 1110.1, 350.4)">t</text><text xml:space="preserve" font-family="Courier-Bold,Courier" font-weight="bold" font-size="56.0" fill="#4271AE" transform="matrix(1.00, 0.00, -0.00, -1.00, 1143.7, 350.4)">i</text><text xml:space="preserve" font-family="Courier-Bold,Courier" font-weight="bold" font-size="56.0" fill="#4271AE" transform="matrix(1.00, 0.00, -0.00, -1.00, 1177.3, 350.4)">o</text><text xml:space="preserve" font-family="Courier-Bold,Courier" font-weight="bold" font-size="56.0" fill="#4271AE" transform="matrix(1.00, 0.00, -0.00, -1.00, 1210.9, 350.4)">n</text><text xml:space="preserve" font-family="Courier-Bold,Courier" font-weight="bold" font-size="56.0" fill="#4271AE" transform="matrix(1.00, 0.00, -0.00, -1.00, 1244.5, 350.4)">_</text><text xml:space="preserve" font-family="Courier-Bold,Courier" font-weight="bold" font-size="56.0" fill="#4271AE" transform="matrix(1.00, 0.00, -0.00, -1.00, 1278.1, 350.4)">s</text><text xml:space="preserve" font-family="Courier-Bold,Courier" font-weight="bold" font-size="56.0" fill="#4271AE" transform="matrix(1.00, 0.00, -0.00, -1.00, 1311.7, 350.4)">t</text><text xml:space="preserve" font-family="Courier-Bold,Courier" font-weight="bold" font-size="56.0" fill="#4271AE" transform="matrix(1.00, 0.00, -0.00, -1.00, 1345.4, 350.4)">a</text><text xml:space="preserve" font-family="Courier-Bold,Courier" font-weight="bold" font-size="56.0" fill="#4271AE" transform="matrix(1.00, 0.00, -0.00, -1.00, 1379.0, 350.4)">t</text><text xml:space="preserve" font-family="Courier-Bold,Courier" font-weight="bold" font-size="56.0" fill="#4271AE" transform="matrix(1.00, 0.00, -0.00, -1.00, 1412.6, 350.4)">e</text><text xml:space="preserve" font-family="Courier-Bold,Courier" font-weight="bold" font-size="56.0" fill="#000000" transform="matrix(1.00, 0.00, -0.00, -1.00, 1446.1, 350.4)">{</text><text xml:space="preserve" font-family="Courier-Bold,Courier" font-weight="bold" font-size="56.0" fill="#000000" transform="matrix(1.00, 0.00, -0.00, -1.00, 1.1, 283.4)"> </text><text xml:space="preserve" font-family="Courier-Bold,Courier" font-weight="bold" font-size="56.0" fill="#000000" transform="matrix(1.00, 0.00, -0.00, -1.00, 34.7, 283.4)"> </text><text xml:space="preserve" font-family="Courier-Bold,Courier" font-weight="bold" font-size="56.0" fill="#000000" transform="matrix(1.00, 0.00, -0.00, -1.00, 68.3, 283.4)"> </text><text xml:space="preserve" font-family="Courier-Bold,Courier" font-weight="bold" font-size="56.0" fill="#000000" transform="matrix(1.00, 0.00, -0.00, -1.00, 101.9, 283.4)"> </text><text xml:space="preserve" font-family="Courier-Bold,Courier" font-weight="bold" font-size="56.0" fill="#000000" transform="matrix(1.00, 0.00, -0.00, -1.00, 135.5, 283.4)"> </text><text xml:space="preserve" font-family="Courier-Bold,Courier" font-weight="bold" font-size="56.0" fill="#000000" transform="matrix(1.00, 0.00, -0.00, -1.00, 169.1, 283.4)"> </text><text xml:space="preserve" font-family="Courier-Bold,Courier" font-weight="bold" font-size="56.0" fill="#000000" transform="matrix(1.00, 0.00, -0.00, -1.00, 202.7, 283.4)"> </text><text xml:space="preserve" font-family="Courier-Bold,Courier" font-weight="bold" font-size="56.0" fill="#000000" transform="matrix(1.00, 0.00, -0.00, -1.00, 236.3, 283.4)"> </text><text xml:space="preserve" font-family="Courier-Bold,Courier" font-weight="bold" font-size="56.0" fill="#000000" transform="matrix(1.00, 0.00, -0.00, -1.00, 270.0, 283.4)"> </text><text xml:space="preserve" font-family="Courier-Bold,Courier" font-weight="bold" font-size="56.0" fill="#000000" transform="matrix(1.00, 0.00, -0.00, -1.00, 303.6, 283.4)"> </text><text xml:space="preserve" font-family="Courier-Bold,Courier" font-weight="bold" font-size="56.0" fill="#000000" transform="matrix(1.00, 0.00, -0.00, -1.00, 337.2, 283.4)"> </text><text xml:space="preserve" font-family="Courier-Bold,Courier" font-weight="bold" font-size="56.0" fill="#000000" transform="matrix(1.00, 0.00, -0.00, -1.00, 370.8, 283.4)"> </text><text xml:space="preserve" font-family="Courier-Bold,Courier" font-weight="bold" font-size="56.0" fill="#000000" transform="matrix(1.00, 0.00, -0.00, -1.00, 404.4, 283.4)">s</text><text xml:space="preserve" font-family="Courier-Bold,Courier" font-weight="bold" font-size="56.0" fill="#000000" transform="matrix(1.00, 0.00, -0.00, -1.00, 438.0, 283.4)">o</text><text xml:space="preserve" font-family="Courier-Bold,Courier" font-weight="bold" font-size="56.0" fill="#000000" transform="matrix(1.00, 0.00, -0.00, -1.00, 471.6, 283.4)">c</text><text xml:space="preserve" font-family="Courier-Bold,Courier" font-weight="bold" font-size="56.0" fill="#000000" transform="matrix(1.00, 0.00, -0.00, -1.00, 505.2, 283.4)">k</text><text xml:space="preserve" font-family="Courier-Bold,Courier" font-weight="bold" font-size="56.0" fill="#000000" transform="matrix(1.00, 0.00, -0.00, -1.00, 538.8, 283.4)">e</text><text xml:space="preserve" font-family="Courier-Bold,Courier" font-weight="bold" font-size="56.0" fill="#000000" transform="matrix(1.00, 0.00, -0.00, -1.00, 572.5, 283.4)">t</text><text xml:space="preserve" font-family="Courier-Bold,Courier" font-weight="bold" font-size="56.0" fill="#000000" transform="matrix(1.00, 0.00, -0.00, -1.00, 606.1, 283.4)">=</text><text xml:space="preserve" font-family="Courier-Bold,Courier" font-weight="bold" font-size="56.0" fill="#000000" transform="matrix(1.00, 0.00, -0.00, -1.00, 639.7, 283.4)">{</text><text xml:space="preserve" font-family="Courier-Bold,Courier" font-weight="bold" font-size="56.0" fill="#EAB600" transform="matrix(1.00, 0.00, -0.00, -1.00, 673.2, 283.4)">T</text><text xml:space="preserve" font-family="Courier-Bold,Courier" font-weight="bold" font-size="56.0" fill="#EAB600" transform="matrix(1.00, 0.00, -0.00, -1.00, 706.8, 283.4)">r</text><text xml:space="preserve" font-family="Courier-Bold,Courier" font-weight="bold" font-size="56.0" fill="#EAB600" transform="matrix(1.00, 0.00, -0.00, -1.00, 740.4, 283.4)">a</text><text xml:space="preserve" font-family="Courier-Bold,Courier" font-weight="bold" font-size="56.0" fill="#EAB600" transform="matrix(1.00, 0.00, -0.00, -1.00, 774.0, 283.4)">n</text><text xml:space="preserve" font-family="Courier-Bold,Courier" font-weight="bold" font-size="56.0" fill="#EAB600" transform="matrix(1.00, 0.00, -0.00, -1.00, 807.6, 283.4)">s</text><text xml:space="preserve" font-family="Courier-Bold,Courier" font-weight="bold" font-size="56.0" fill="#EAB600" transform="matrix(1.00, 0.00, -0.00, -1.00, 841.2, 283.4)">p</text><text xml:space="preserve" font-family="Courier-Bold,Courier" font-weight="bold" font-size="56.0" fill="#EAB600" transform="matrix(1.00, 0.00, -0.00, -1.00, 874.8, 283.4)">o</text><text xml:space="preserve" font-family="Courier-Bold,Courier" font-weight="bold" font-size="56.0" fill="#EAB600" transform="matrix(1.00, 0.00, -0.00, -1.00, 908.5, 283.4)">r</text><text xml:space="preserve" font-family="Courier-Bold,Courier" font-weight="bold" font-size="56.0" fill="#EAB600" transform="matrix(1.00, 0.00, -0.00, -1.00, 942.1, 283.4)">t</text><text xml:space="preserve" font-family="Courier-Bold,Courier" font-weight="bold" font-size="56.0" fill="#000000" transform="matrix(1.00, 0.00, -0.00, -1.00, 975.6, 283.4)">,</text><text xml:space="preserve" font-family="Courier-Bold,Courier" font-weight="bold" font-size="56.0" fill="#000000" transform="matrix(1.00, 0.00, -0.00, -1.00, 1009.2, 283.4)"> </text><text xml:space="preserve" font-family="Courier-Bold,Courier" font-weight="bold" font-size="56.0" fill="#EAB600" transform="matrix(1.00, 0.00, -0.00, -1.00, 1042.8, 283.4)">S</text><text xml:space="preserve" font-family="Courier-Bold,Courier" font-weight="bold" font-size="56.0" fill="#EAB600" transform="matrix(1.00, 0.00, -0.00, -1.00, 1076.5, 283.4)">o</text><text xml:space="preserve" font-family="Courier-Bold,Courier" font-weight="bold" font-size="56.0" fill="#EAB600" transform="matrix(1.00, 0.00, -0.00, -1.00, 1110.1, 283.4)">c</text><text xml:space="preserve" font-family="Courier-Bold,Courier" font-weight="bold" font-size="56.0" fill="#EAB600" transform="matrix(1.00, 0.00, -0.00, -1.00, 1143.7, 283.4)">k</text><text xml:space="preserve" font-family="Courier-Bold,Courier" font-weight="bold" font-size="56.0" fill="#EAB600" transform="matrix(1.00, 0.00, -0.00, -1.00, 1177.3, 283.4)">e</text><text xml:space="preserve" font-family="Courier-Bold,Courier" font-weight="bold" font-size="56.0" fill="#EAB600" transform="matrix(1.00, 0.00, -0.00, -1.00, 1210.9, 283.4)">t</text><text xml:space="preserve" font-family="Courier-Bold,Courier" font-weight="bold" font-size="56.0" fill="#000000" transform="matrix(1.00, 0.00, -0.00, -1.00, 1244.5, 283.4)">}</text><text xml:space="preserve" font-family="Courier-Bold,Courier" font-weight="bold" font-size="56.0" fill="#000000" transform="matrix(1.00, 0.00, -0.00, -1.00, 1.1, 216.4)"> </text><text xml:space="preserve" font-family="Courier-Bold,Courier" font-weight="bold" font-size="56.0" fill="#000000" transform="matrix(1.00, 0.00, -0.00, -1.00, 34.7, 216.4)"> </text><text xml:space="preserve" font-family="Courier-Bold,Courier" font-weight="bold" font-size="56.0" fill="#000000" transform="matrix(1.00, 0.00, -0.00, -1.00, 68.3, 216.4)"> </text><text xml:space="preserve" font-family="Courier-Bold,Courier" font-weight="bold" font-size="56.0" fill="#000000" transform="matrix(1.00, 0.00, -0.00, -1.00, 101.9, 216.4)"> </text><text xml:space="preserve" font-family="Courier-Bold,Courier" font-weight="bold" font-size="56.0" fill="#000000" transform="matrix(1.00, 0.00, -0.00, -1.00, 135.5, 216.4)"> </text><text xml:space="preserve" font-family="Courier-Bold,Courier" font-weight="bold" font-size="56.0" fill="#000000" transform="matrix(1.00, 0.00, -0.00, -1.00, 169.1, 216.4)"> </text><text xml:space="preserve" font-family="Courier-Bold,Courier" font-weight="bold" font-size="56.0" fill="#000000" transform="matrix(1.00, 0.00, -0.00, -1.00, 202.7, 216.4)"> </text><text xml:space="preserve" font-family="Courier-Bold,Courier" font-weight="bold" font-size="56.0" fill="#000000" transform="matrix(1.00, 0.00, -0.00, -1.00, 236.3, 216.4)"> </text><text xml:space="preserve" font-family="Courier-Bold,Courier" font-weight="bold" font-size="56.0" fill="#000000" transform="matrix(1.00, 0.00, -0.00, -1.00, 270.0, 216.4)"> </text><text xml:space="preserve" font-family="Courier-Bold,Courier" font-weight="bold" font-size="56.0" fill="#000000" transform="matrix(1.00, 0.00, -0.00, -1.00, 303.6, 216.4)"> </text><text xml:space="preserve" font-family="Courier-Bold,Courier" font-weight="bold" font-size="56.0" fill="#000000" transform="matrix(1.00, 0.00, -0.00, -1.00, 337.2, 216.4)">}</text><text xml:space="preserve" font-family="Courier-Bold,Courier" font-weight="bold" font-size="56.0" fill="#000000" transform="matrix(1.00, 0.00, -0.00, -1.00, 370.8, 216.4)">)</text><text xml:space="preserve" font-family="Courier-Bold,Courier" font-weight="bold" font-size="56.0" fill="#000000" transform="matrix(1.00, 0.00, -0.00, -1.00, 404.4, 216.4)"> </text><text xml:space="preserve" font-family="Courier-Bold,Courier" font-weight="bold" font-size="56.0" fill="#000000" transform="matrix(1.00, 0.00, -0.00, -1.00, 438.0, 216.4)">-</text><text xml:space="preserve" font-family="Courier-Bold,Courier" font-weight="bold" font-size="56.0" fill="#000000" transform="matrix(1.00, 0.00, -0.00, -1.00, 471.6, 216.4)">&gt;</text><text xml:space="preserve" font-family="Courier-Bold,Courier" font-weight="bold" font-size="56.0" fill="#3E989E" transform="matrix(1.00, 0.00, -0.00, -1.00, 1.1, 149.4)"> </text><text xml:space="preserve" font-family="Courier-Bold,Courier" font-weight="bold" font-size="56.0" fill="#3E989E" transform="matrix(1.00, 0.00, -0.00, -1.00, 34.7, 149.4)"> </text><text xml:space="preserve" font-family="Courier-Bold,Courier" font-weight="bold" font-size="56.0" fill="#3E989E" transform="matrix(1.00, 0.00, -0.00, -1.00, 68.3, 149.4)"> </text><text xml:space="preserve" font-family="Courier-Bold,Courier" font-weight="bold" font-size="56.0" fill="#3E989E" transform="matrix(1.00, 0.00, -0.00, -1.00, 101.9, 149.4)"> </text><text xml:space="preserve" font-family="Courier-Bold,Courier" font-weight="bold" font-size="56.0" fill="#000000" transform="matrix(1.00, 0.00, -0.00, -1.00, 135.5, 149.4)">{</text><text xml:space="preserve" font-family="Courier-Bold,Courier" font-weight="bold" font-size="56.0" fill="#000000" transform="matrix(1.00, 0.00, -0.00, -1.00, 169.1, 149.4)">o</text><text xml:space="preserve" font-family="Courier-Bold,Courier" font-weight="bold" font-size="56.0" fill="#000000" transform="matrix(1.00, 0.00, -0.00, -1.00, 202.7, 149.4)">k</text><text xml:space="preserve" font-family="Courier-Bold,Courier" font-weight="bold" font-size="56.0" fill="#000000" transform="matrix(1.00, 0.00, -0.00, -1.00, 236.3, 149.4)">,</text><text xml:space="preserve" font-family="Courier-Bold,Courier" font-weight="bold" font-size="56.0" fill="#000000" transform="matrix(1.00, 0.00, -0.00, -1.00, 269.9, 149.4)"> </text><text xml:space="preserve" font-family="Courier-Bold,Courier" font-weight="bold" font-size="56.0" fill="#000000" transform="matrix(1.00, 0.00, -0.00, -1.00, 303.5, 149.4)">&lt;</text><text xml:space="preserve" font-family="Courier-Bold,Courier" font-weight="bold" font-size="56.0" fill="#000000" transform="matrix(1.00, 0.00, -0.00, -1.00, 337.2, 149.4)">&lt;</text><text xml:space="preserve" font-family="Courier-Bold,Courier" font-weight="bold" font-size="56.0" fill="#3E989E" transform="matrix(1.00, 0.00, -0.00, -1.00, 370.7, 149.4)">"</text><text xml:space="preserve" font-family="Courier-Bold,Courier" font-weight="bold" font-size="56.0" fill="#3E989E" transform="matrix(1.00, 0.00, -0.00, -1.00, 404.3, 149.4)">P</text><text xml:space="preserve" font-family="Courier-Bold,Courier" font-weight="bold" font-size="56.0" fill="#3E989E" transform="matrix(1.00, 0.00, -0.00, -1.00, 438.0, 149.4)">R</text><text xml:space="preserve" font-family="Courier-Bold,Courier" font-weight="bold" font-size="56.0" fill="#3E989E" transform="matrix(1.00, 0.00, -0.00, -1.00, 471.6, 149.4)">I</text><text xml:space="preserve" font-family="Courier-Bold,Courier" font-weight="bold" font-size="56.0" fill="#3E989E" transform="matrix(1.00, 0.00, -0.00, -1.00, 505.2, 149.4)"> </text><text xml:space="preserve" font-family="Courier-Bold,Courier" font-weight="bold" font-size="56.0" fill="#3E989E" transform="matrix(1.00, 0.00, -0.00, -1.00, 538.8, 149.4)">*</text><text xml:space="preserve" font-family="Courier-Bold,Courier" font-weight="bold" font-size="56.0" fill="#3E989E" transform="matrix(1.00, 0.00, -0.00, -1.00, 572.4, 149.4)"> </text><text xml:space="preserve" font-family="Courier-Bold,Courier" font-weight="bold" font-size="56.0" fill="#3E989E" transform="matrix(1.00, 0.00, -0.00, -1.00, 606.0, 149.4)">H</text><text xml:space="preserve" font-family="Courier-Bold,Courier" font-weight="bold" font-size="56.0" fill="#3E989E" transform="matrix(1.00, 0.00, -0.00, -1.00, 639.6, 149.4)">T</text><text xml:space="preserve" font-family="Courier-Bold,Courier" font-weight="bold" font-size="56.0" fill="#3E989E" transform="matrix(1.00, 0.00, -0.00, -1.00, 673.2, 149.4)">T</text><text xml:space="preserve" font-family="Courier-Bold,Courier" font-weight="bold" font-size="56.0" fill="#3E989E" transform="matrix(1.00, 0.00, -0.00, -1.00, 706.8, 149.4)">P</text><text xml:space="preserve" font-family="Courier-Bold,Courier" font-weight="bold" font-size="56.0" fill="#3E989E" transform="matrix(1.00, 0.00, -0.00, -1.00, 740.5, 149.4)">/</text><text xml:space="preserve" font-family="Courier-Bold,Courier" font-weight="bold" font-size="56.0" fill="#3E989E" transform="matrix(1.00, 0.00, -0.00, -1.00, 774.1, 149.4)">2</text><text xml:space="preserve" font-family="Courier-Bold,Courier" font-weight="bold" font-size="56.0" fill="#3E989E" transform="matrix(1.00, 0.00, -0.00, -1.00, 807.7, 149.4)">.</text><text xml:space="preserve" font-family="Courier-Bold,Courier" font-weight="bold" font-size="56.0" fill="#3E989E" transform="matrix(1.00, 0.00, -0.00, -1.00, 841.3, 149.4)">0</text><text xml:space="preserve" font-family="Courier-Bold,Courier" font-weight="bold" font-size="56.0" fill="#3E989E" transform="matrix(1.00, 0.00, -0.00, -1.00, 874.9, 149.4)">\</text><text xml:space="preserve" font-family="Courier-Bold,Courier" font-weight="bold" font-size="56.0" fill="#3E989E" transform="matrix(1.00, 0.00, -0.00, -1.00, 908.5, 149.4)">r</text><text xml:space="preserve" font-family="Courier-Bold,Courier" font-weight="bold" font-size="56.0" fill="#3E989E" transform="matrix(1.00, 0.00, -0.00, -1.00, 942.1, 149.4)">\</text><text xml:space="preserve" font-family="Courier-Bold,Courier" font-weight="bold" font-size="56.0" fill="#3E989E" transform="matrix(1.00, 0.00, -0.00, -1.00, 975.7, 149.4)">n</text><text xml:space="preserve" font-family="Courier-Bold,Courier" font-weight="bold" font-size="56.0" fill="#3E989E" transform="matrix(1.00, 0.00, -0.00, -1.00, 1009.3, 149.4)">\</text><text xml:space="preserve" font-family="Courier-Bold,Courier" font-weight="bold" font-size="56.0" fill="#3E989E" transform="matrix(1.00, 0.00, -0.00, -1.00, 1043.0, 149.4)">r</text><text xml:space="preserve" font-family="Courier-Bold,Courier" font-weight="bold" font-size="56.0" fill="#3E989E" transform="matrix(1.00, 0.00, -0.00, -1.00, 1076.6, 149.4)">\</text><text xml:space="preserve" font-family="Courier-Bold,Courier" font-weight="bold" font-size="56.0" fill="#3E989E" transform="matrix(1.00, 0.00, -0.00, -1.00, 1110.2, 149.4)">n</text><text xml:space="preserve" font-family="Courier-Bold,Courier" font-weight="bold" font-size="56.0" fill="#3E989E" transform="matrix(1.00, 0.00, -0.00, -1.00, 1143.8, 149.4)">S</text><text xml:space="preserve" font-family="Courier-Bold,Courier" font-weight="bold" font-size="56.0" fill="#3E989E" transform="matrix(1.00, 0.00, -0.00, -1.00, 1177.4, 149.4)">M</text><text xml:space="preserve" font-family="Courier-Bold,Courier" font-weight="bold" font-size="56.0" fill="#3E989E" transform="matrix(1.00, 0.00, -0.00, -1.00, 1211.0, 149.4)">\</text><text xml:space="preserve" font-family="Courier-Bold,Courier" font-weight="bold" font-size="56.0" fill="#3E989E" transform="matrix(1.00, 0.00, -0.00, -1.00, 1244.6, 149.4)">r</text><text xml:space="preserve" font-family="Courier-Bold,Courier" font-weight="bold" font-size="56.0" fill="#3E989E" transform="matrix(1.00, 0.00, -0.00, -1.00, 1278.2, 149.4)">\</text><text xml:space="preserve" font-family="Courier-Bold,Courier" font-weight="bold" font-size="56.0" fill="#3E989E" transform="matrix(1.00, 0.00, -0.00, -1.00, 1311.8, 149.4)">n</text><text xml:space="preserve" font-family="Courier-Bold,Courier" font-weight="bold" font-size="56.0" fill="#3E989E" transform="matrix(1.00, 0.00, -0.00, -1.00, 1345.5, 149.4)">\</text><text xml:space="preserve" font-family="Courier-Bold,Courier" font-weight="bold" font-size="56.0" fill="#3E989E" transform="matrix(1.00, 0.00, -0.00, -1.00, 1379.1, 149.4)">r</text><text xml:space="preserve" font-family="Courier-Bold,Courier" font-weight="bold" font-size="56.0" fill="#3E989E" transform="matrix(1.00, 0.00, -0.00, -1.00, 1412.7, 149.4)">\</text><text xml:space="preserve" font-family="Courier-Bold,Courier" font-weight="bold" font-size="56.0" fill="#3E989E" transform="matrix(1.00, 0.00, -0.00, -1.00, 1446.3, 149.4)">n</text><text xml:space="preserve" font-family="Courier-Bold,Courier" font-weight="bold" font-size="56.0" fill="#3E989E" transform="matrix(1.00, 0.00, -0.00, -1.00, 1479.9, 149.4)">"</text><text xml:space="preserve" font-family="Courier-Bold,Courier" font-weight="bold" font-size="56.0" fill="#000000" transform="matrix(1.00, 0.00, -0.00, -1.00, 1513.3, 149.4)">&gt;</text><text xml:space="preserve" font-family="Courier-Bold,Courier" font-weight="bold" font-size="56.0" fill="#000000" transform="matrix(1.00, 0.00, -0.00, -1.00, 1546.9, 149.4)">&gt;</text><text xml:space="preserve" font-family="Courier-Bold,Courier" font-weight="bold" font-size="56.0" fill="#000000" transform="matrix(1.00, 0.00, -0.00, -1.00, 1580.5, 149.4)">}</text><text xml:space="preserve" font-family="Courier-Bold,Courier" font-weight="bold" font-size="56.0" fill="#000000" transform="matrix(1.00, 0.00, -0.00, -1.00, 1.1, 82.4)"> </text><text xml:space="preserve" font-family="Courier-Bold,Courier" font-weight="bold" font-size="56.0" fill="#000000" transform="matrix(1.00, 0.00, -0.00, -1.00, 34.7, 82.4)"> </text><text xml:space="preserve" font-family="Courier-Bold,Courier" font-weight="bold" font-size="56.0" fill="#000000" transform="matrix(1.00, 0.00, -0.00, -1.00, 68.3, 82.4)"> </text><text xml:space="preserve" font-family="Courier-Bold,Courier" font-weight="bold" font-size="56.0" fill="#000000" transform="matrix(1.00, 0.00, -0.00, -1.00, 101.9, 82.4)"> </text><text xml:space="preserve" font-family="Courier-Bold,Courier" font-weight="bold" font-size="56.0" fill="#000000" transform="matrix(1.00, 0.00, -0.00, -1.00, 135.5, 82.4)"> </text><text xml:space="preserve" font-family="Courier-Bold,Courier" font-weight="bold" font-size="56.0" fill="#000000" transform="matrix(1.00, 0.00, -0.00, -1.00, 169.1, 82.4)"> </text><text xml:space="preserve" font-family="Courier-Bold,Courier" font-weight="bold" font-size="56.0" fill="#000000" transform="matrix(1.00, 0.00, -0.00, -1.00, 202.7, 82.4)"> </text><text xml:space="preserve" font-family="Courier-Bold,Courier" font-weight="bold" font-size="56.0" fill="#000000" transform="matrix(1.00, 0.00, -0.00, -1.00, 236.3, 82.4)"> </text><text xml:space="preserve" font-family="Courier-Bold,Courier" font-weight="bold" font-size="56.0" fill="#000000" transform="matrix(1.00, 0.00, -0.00, -1.00, 270.0, 82.4)">=</text><text xml:space="preserve" font-family="Courier-Bold,Courier" font-weight="bold" font-size="56.0" fill="#000000" transform="matrix(1.00, 0.00, -0.00, -1.00, 303.6, 82.4)"> </text><text xml:space="preserve" font-family="Courier-Bold,Courier" font-weight="bold" font-size="56.0" fill="#EAB600" transform="matrix(1.00, 0.00, -0.00, -1.00, 337.1, 82.4)">T</text><text xml:space="preserve" font-family="Courier-Bold,Courier" font-weight="bold" font-size="56.0" fill="#EAB600" transform="matrix(1.00, 0.00, -0.00, -1.00, 370.7, 82.4)">r</text><text xml:space="preserve" font-family="Courier-Bold,Courier" font-weight="bold" font-size="56.0" fill="#EAB600" transform="matrix(1.00, 0.00, -0.00, -1.00, 404.3, 82.4)">a</text><text xml:space="preserve" font-family="Courier-Bold,Courier" font-weight="bold" font-size="56.0" fill="#EAB600" transform="matrix(1.00, 0.00, -0.00, -1.00, 438.0, 82.4)">n</text><text xml:space="preserve" font-family="Courier-Bold,Courier" font-weight="bold" font-size="56.0" fill="#EAB600" transform="matrix(1.00, 0.00, -0.00, -1.00, 471.6, 82.4)">s</text><text xml:space="preserve" font-family="Courier-Bold,Courier" font-weight="bold" font-size="56.0" fill="#EAB600" transform="matrix(1.00, 0.00, -0.00, -1.00, 505.2, 82.4)">p</text><text xml:space="preserve" font-family="Courier-Bold,Courier" font-weight="bold" font-size="56.0" fill="#EAB600" transform="matrix(1.00, 0.00, -0.00, -1.00, 538.8, 82.4)">o</text><text xml:space="preserve" font-family="Courier-Bold,Courier" font-weight="bold" font-size="56.0" fill="#EAB600" transform="matrix(1.00, 0.00, -0.00, -1.00, 572.4, 82.4)">r</text><text xml:space="preserve" font-family="Courier-Bold,Courier" font-weight="bold" font-size="56.0" fill="#EAB600" transform="matrix(1.00, 0.00, -0.00, -1.00, 606.0, 82.4)">t</text><text xml:space="preserve" font-family="Courier-Bold,Courier" font-weight="bold" font-size="56.0" fill="#000000" transform="matrix(1.00, 0.00, -0.00, -1.00, 639.6, 82.4)">:</text><text xml:space="preserve" font-family="Courier-Bold,Courier" font-weight="bold" font-size="56.0" fill="#4271AE" transform="matrix(1.00, 0.00, -0.00, -1.00, 673.2, 82.4)">r</text><text xml:space="preserve" font-family="Courier-Bold,Courier" font-weight="bold" font-size="56.0" fill="#4271AE" transform="matrix(1.00, 0.00, -0.00, -1.00, 706.8, 82.4)">e</text><text xml:space="preserve" font-family="Courier-Bold,Courier" font-weight="bold" font-size="56.0" fill="#4271AE" transform="matrix(1.00, 0.00, -0.00, -1.00, 740.4, 82.4)">c</text><text xml:space="preserve" font-family="Courier-Bold,Courier" font-weight="bold" font-size="56.0" fill="#4271AE" transform="matrix(1.00, 0.00, -0.00, -1.00, 774.0, 82.4)">v</text><text xml:space="preserve" font-family="Courier-Bold,Courier" font-weight="bold" font-size="56.0" fill="#000000" transform="matrix(1.00, 0.00, -0.00, -1.00, 807.6, 82.4)">(</text><text xml:space="preserve" font-family="Courier-Bold,Courier" font-weight="bold" font-size="56.0" fill="#EAB600" transform="matrix(1.00, 0.00, -0.00, -1.00, 841.2, 82.4)">A</text><text xml:space="preserve" font-family="Courier-Bold,Courier" font-weight="bold" font-size="56.0" fill="#EAB600" transform="matrix(1.00, 0.00, -0.00, -1.00, 874.8, 82.4)">c</text><text xml:space="preserve" font-family="Courier-Bold,Courier" font-weight="bold" font-size="56.0" fill="#EAB600" transform="matrix(1.00, 0.00, -0.00, -1.00, 908.4, 82.4)">c</text><text xml:space="preserve" font-family="Courier-Bold,Courier" font-weight="bold" font-size="56.0" fill="#EAB600" transform="matrix(1.00, 0.00, -0.00, -1.00, 942.0, 82.4)">e</text><text xml:space="preserve" font-family="Courier-Bold,Courier" font-weight="bold" font-size="56.0" fill="#EAB600" transform="matrix(1.00, 0.00, -0.00, -1.00, 975.7, 82.4)">p</text><text xml:space="preserve" font-family="Courier-Bold,Courier" font-weight="bold" font-size="56.0" fill="#EAB600" transform="matrix(1.00, 0.00, -0.00, -1.00, 1009.3, 82.4)">t</text><text xml:space="preserve" font-family="Courier-Bold,Courier" font-weight="bold" font-size="56.0" fill="#EAB600" transform="matrix(1.00, 0.00, -0.00, -1.00, 1042.9, 82.4)">S</text><text xml:space="preserve" font-family="Courier-Bold,Courier" font-weight="bold" font-size="56.0" fill="#EAB600" transform="matrix(1.00, 0.00, -0.00, -1.00, 1076.5, 82.4)">o</text><text xml:space="preserve" font-family="Courier-Bold,Courier" font-weight="bold" font-size="56.0" fill="#EAB600" transform="matrix(1.00, 0.00, -0.00, -1.00, 1110.1, 82.4)">c</text><text xml:space="preserve" font-family="Courier-Bold,Courier" font-weight="bold" font-size="56.0" fill="#EAB600" transform="matrix(1.00, 0.00, -0.00, -1.00, 1143.7, 82.4)">k</text><text xml:space="preserve" font-family="Courier-Bold,Courier" font-weight="bold" font-size="56.0" fill="#EAB600" transform="matrix(1.00, 0.00, -0.00, -1.00, 1177.3, 82.4)">e</text><text xml:space="preserve" font-family="Courier-Bold,Courier" font-weight="bold" font-size="56.0" fill="#EAB600" transform="matrix(1.00, 0.00, -0.00, -1.00, 1210.9, 82.4)">t</text><text xml:space="preserve" font-family="Courier-Bold,Courier" font-weight="bold" font-size="56.0" fill="#000000" transform="matrix(1.00, 0.00, -0.00, -1.00, 1244.5, 82.4)">,</text><text xml:space="preserve" font-family="Courier-Bold,Courier" font-weight="bold" font-size="56.0" fill="#000000" transform="matrix(1.00, 0.00, -0.00, -1.00, 1278.1, 82.4)"> </text><text xml:space="preserve" font-family="Courier-Bold,Courier" font-weight="bold" font-size="56.0" fill="#000000" transform="matrix(1.00, 0.00, -0.00, -1.00, 1311.7, 82.4)">2</text><text xml:space="preserve" font-family="Courier-Bold,Courier" font-weight="bold" font-size="56.0" fill="#000000" transform="matrix(1.00, 0.00, -0.00, -1.00, 1345.3, 82.4)">4</text><text xml:space="preserve" font-family="Courier-Bold,Courier" font-weight="bold" font-size="56.0" fill="#000000" transform="matrix(1.00, 0.00, -0.00, -1.00, 1378.9, 82.4)">,</text><text xml:space="preserve" font-family="Courier-Bold,Courier" font-weight="bold" font-size="56.0" fill="#000000" transform="matrix(1.00, 0.00, -0.00, -1.00, 1412.5, 82.4)"> </text><text xml:space="preserve" font-family="Courier-Bold,Courier" font-weight="bold" font-size="56.0" fill="#000000" transform="matrix(1.00, 0.00, -0.00, -1.00, 1446.1, 82.4)">5</text><text xml:space="preserve" font-family="Courier-Bold,Courier" font-weight="bold" font-size="56.0" fill="#000000" transform="matrix(1.00, 0.00, -0.00, -1.00, 1479.7, 82.4)">0</text><text xml:space="preserve" font-family="Courier-Bold,Courier" font-weight="bold" font-size="56.0" fill="#000000" transform="matrix(1.00, 0.00, -0.00, -1.00, 1513.4, 82.4)">0</text><text xml:space="preserve" font-family="Courier-Bold,Courier" font-weight="bold" font-size="56.0" fill="#000000" transform="matrix(1.00, 0.00, -0.00, -1.00, 1547.0, 82.4)">0</text><text xml:space="preserve" font-family="Courier-Bold,Courier" font-weight="bold" font-size="56.0" fill="#000000" transform="matrix(1.00, 0.00, -0.00, -1.00, 1580.6, 82.4)">)</text><text xml:space="preserve" font-family="Courier-Bold,Courier" font-weight="bold" font-size="56.0" fill="#000000" transform="matrix(1.00, 0.00, -0.00, -1.00, 1614.2, 82.4)">,</text><text xml:space="preserve" font-family="Courier-Bold,Courier" font-weight="bold" font-size="56.0" fill="#000000" transform="matrix(1.00, 0.00, -0.00, -1.00, 1.1, 15.4)"> </text><text xml:space="preserve" font-family="Courier-Bold,Courier" font-weight="bold" font-size="56.0" fill="#000000" transform="matrix(1.00, 0.00, -0.00, -1.00, 34.7, 15.4)"> </text><text xml:space="preserve" font-family="Courier-Bold,Courier" font-weight="bold" font-size="56.0" fill="#000000" transform="matrix(1.00, 0.00, -0.00, -1.00, 68.3, 15.4)"> </text><text xml:space="preserve" font-family="Courier-Bold,Courier" font-weight="bold" font-size="56.0" fill="#000000" transform="matrix(1.00, 0.00, -0.00, -1.00, 101.9, 15.4)"> </text><text xml:space="preserve" font-family="Courier-Bold,Courier" font-weight="bold" font-size="56.0" fill="#000000" transform="matrix(1.00, 0.00, -0.00, -1.00, 135.5, 15.4)">{</text><text xml:space="preserve" font-family="Courier-Bold,Courier" font-weight="bold" font-size="56.0" fill="#000000" transform="matrix(1.00, 0.00, -0.00, -1.00, 169.1, 15.4)">n</text><text xml:space="preserve" font-family="Courier-Bold,Courier" font-weight="bold" font-size="56.0" fill="#000000" transform="matrix(1.00, 0.00, -0.00, -1.00, 202.7, 15.4)">e</text><text xml:space="preserve" font-family="Courier-Bold,Courier" font-weight="bold" font-size="56.0" fill="#000000" transform="matrix(1.00, 0.00, -0.00, -1.00, 236.3, 15.4)">x</text><text xml:space="preserve" font-family="Courier-Bold,Courier" font-weight="bold" font-size="56.0" fill="#000000" transform="matrix(1.00, 0.00, -0.00, -1.00, 270.0, 15.4)">t</text><text xml:space="preserve" font-family="Courier-Bold,Courier" font-weight="bold" font-size="56.0" fill="#000000" transform="matrix(1.00, 0.00, -0.00, -1.00, 303.6, 15.4)">_</text><text xml:space="preserve" font-family="Courier-Bold,Courier" font-weight="bold" font-size="56.0" fill="#000000" transform="matrix(1.00, 0.00, -0.00, -1.00, 337.2, 15.4)">s</text><text xml:space="preserve" font-family="Courier-Bold,Courier" font-weight="bold" font-size="56.0" fill="#000000" transform="matrix(1.00, 0.00, -0.00, -1.00, 370.8, 15.4)">t</text><text xml:space="preserve" font-family="Courier-Bold,Courier" font-weight="bold" font-size="56.0" fill="#000000" transform="matrix(1.00, 0.00, -0.00, -1.00, 404.4, 15.4)">a</text><text xml:space="preserve" font-family="Courier-Bold,Courier" font-weight="bold" font-size="56.0" fill="#000000" transform="matrix(1.00, 0.00, -0.00, -1.00, 438.0, 15.4)">t</text><text xml:space="preserve" font-family="Courier-Bold,Courier" font-weight="bold" font-size="56.0" fill="#000000" transform="matrix(1.00, 0.00, -0.00, -1.00, 471.6, 15.4)">e</text><text xml:space="preserve" font-family="Courier-Bold,Courier" font-weight="bold" font-size="56.0" fill="#000000" transform="matrix(1.00, 0.00, -0.00, -1.00, 505.2, 15.4)">,</text><text xml:space="preserve" font-family="Courier-Bold,Courier" font-weight="bold" font-size="56.0" fill="#000000" transform="matrix(1.00, 0.00, -0.00, -1.00, 538.8, 15.4)"> </text><text xml:space="preserve" font-family="Courier-Bold,Courier" font-weight="bold" font-size="56.0" fill="#000000" transform="matrix(1.00, 0.00, -0.00, -1.00, 572.5, 15.4)">c</text><text xml:space="preserve" font-family="Courier-Bold,Courier" font-weight="bold" font-size="56.0" fill="#000000" transform="matrix(1.00, 0.00, -0.00, -1.00, 606.1, 15.4)">o</text><text xml:space="preserve" font-family="Courier-Bold,Courier" font-weight="bold" font-size="56.0" fill="#000000" transform="matrix(1.00, 0.00, -0.00, -1.00, 639.7, 15.4)">n</text><text xml:space="preserve" font-family="Courier-Bold,Courier" font-weight="bold" font-size="56.0" fill="#000000" transform="matrix(1.00, 0.00, -0.00, -1.00, 673.3, 15.4)">n</text><text xml:space="preserve" font-family="Courier-Bold,Courier" font-weight="bold" font-size="56.0" fill="#000000" transform="matrix(1.00, 0.00, -0.00, -1.00, 706.9, 15.4)">e</text><text xml:space="preserve" font-family="Courier-Bold,Courier" font-weight="bold" font-size="56.0" fill="#000000" transform="matrix(1.00, 0.00, -0.00, -1.00, 740.5, 15.4)">c</text><text xml:space="preserve" font-family="Courier-Bold,Courier" font-weight="bold" font-size="56.0" fill="#000000" transform="matrix(1.00, 0.00, -0.00, -1.00, 774.1, 15.4)">t</text><text xml:space="preserve" font-family="Courier-Bold,Courier" font-weight="bold" font-size="56.0" fill="#000000" transform="matrix(1.00, 0.00, -0.00, -1.00, 807.7, 15.4)">e</text><text xml:space="preserve" font-family="Courier-Bold,Courier" font-weight="bold" font-size="56.0" fill="#000000" transform="matrix(1.00, 0.00, -0.00, -1.00, 841.3, 15.4)">d</text><text xml:space="preserve" font-family="Courier-Bold,Courier" font-weight="bold" font-size="56.0" fill="#000000" transform="matrix(1.00, 0.00, -0.00, -1.00, 875.0, 15.4)">,</text><text xml:space="preserve" font-family="Courier-Bold,Courier" font-weight="bold" font-size="56.0" fill="#000000" transform="matrix(1.00, 0.00, -0.00, -1.00, 908.6, 15.4)"> </text><text xml:space="preserve" font-family="Courier-Bold,Courier" font-weight="bold" font-size="56.0" fill="#EAB600" transform="matrix(1.00, 0.00, -0.00, -1.00, 942.0, 15.4)">S</text><text xml:space="preserve" font-family="Courier-Bold,Courier" font-weight="bold" font-size="56.0" fill="#EAB600" transform="matrix(1.00, 0.00, -0.00, -1.00, 975.6, 15.4)">t</text><text xml:space="preserve" font-family="Courier-Bold,Courier" font-weight="bold" font-size="56.0" fill="#EAB600" transform="matrix(1.00, 0.00, -0.00, -1.00, 1009.2, 15.4)">a</text><text xml:space="preserve" font-family="Courier-Bold,Courier" font-weight="bold" font-size="56.0" fill="#EAB600" transform="matrix(1.00, 0.00, -0.00, -1.00, 1042.9, 15.4)">t</text><text xml:space="preserve" font-family="Courier-Bold,Courier" font-weight="bold" font-size="56.0" fill="#EAB600" transform="matrix(1.00, 0.00, -0.00, -1.00, 1076.5, 15.4)">e</text><text xml:space="preserve" font-family="Courier-Bold,Courier" font-weight="bold" font-size="56.0" fill="#EAB600" transform="matrix(1.00, 0.00, -0.00, -1.00, 1110.1, 15.4)">W</text><text xml:space="preserve" font-family="Courier-Bold,Courier" font-weight="bold" font-size="56.0" fill="#EAB600" transform="matrix(1.00, 0.00, -0.00, -1.00, 1143.7, 15.4)">i</text><text xml:space="preserve" font-family="Courier-Bold,Courier" font-weight="bold" font-size="56.0" fill="#EAB600" transform="matrix(1.00, 0.00, -0.00, -1.00, 1177.3, 15.4)">t</text><text xml:space="preserve" font-family="Courier-Bold,Courier" font-weight="bold" font-size="56.0" fill="#EAB600" transform="matrix(1.00, 0.00, -0.00, -1.00, 1210.9, 15.4)">h</text><text xml:space="preserve" font-family="Courier-Bold,Courier" font-weight="bold" font-size="56.0" fill="#EAB600" transform="matrix(1.00, 0.00, -0.00, -1.00, 1244.5, 15.4)">S</text><text xml:space="preserve" font-family="Courier-Bold,Courier" font-weight="bold" font-size="56.0" fill="#EAB600" transform="matrix(1.00, 0.00, -0.00, -1.00, 1278.1, 15.4)">o</text><text xml:space="preserve" font-family="Courier-Bold,Courier" font-weight="bold" font-size="56.0" fill="#EAB600" transform="matrix(1.00, 0.00, -0.00, -1.00, 1311.7, 15.4)">c</text><text xml:space="preserve" font-family="Courier-Bold,Courier" font-weight="bold" font-size="56.0" fill="#EAB600" transform="matrix(1.00, 0.00, -0.00, -1.00, 1345.4, 15.4)">k</text><text xml:space="preserve" font-family="Courier-Bold,Courier" font-weight="bold" font-size="56.0" fill="#EAB600" transform="matrix(1.00, 0.00, -0.00, -1.00, 1379.0, 15.4)">e</text><text xml:space="preserve" font-family="Courier-Bold,Courier" font-weight="bold" font-size="56.0" fill="#EAB600" transform="matrix(1.00, 0.00, -0.00, -1.00, 1412.6, 15.4)">t</text><text xml:space="preserve" font-family="Courier-Bold,Courier" font-weight="bold" font-size="56.0" fill="#000000" transform="matrix(1.00, 0.00, -0.00, -1.00, 1446.1, 15.4)">,</text><text xml:space="preserve" font-family="Courier-Bold,Courier" font-weight="bold" font-size="56.0" fill="#000000" transform="matrix(1.00, 0.00, -0.00, -1.00, 1479.7, 15.4)"> </text><text xml:space="preserve" font-family="Courier-Bold,Courier" font-weight="bold" font-size="56.0" fill="#000000" transform="matrix(1.00, 0.00, -0.00, -1.00, 1513.3, 15.4)">0</text><text xml:space="preserve" font-family="Courier-Bold,Courier" font-weight="bold" font-size="56.0" fill="#000000" transform="matrix(1.00, 0.00, -0.00, -1.00, 1546.9, 15.4)">}</text><text xml:space="preserve" font-family="Courier-Bold,Courier" font-weight="bold" font-size="56.0" fill="#000000" transform="matrix(1.00, 0.00, -0.00, -1.00, 1580.5, 15.4)">.</text></g></svg>