<?xml version="1.0" encoding="UTF-8" standalone="no"?><svg xmlns="http://www.w3.org/2000/svg" xmlns:xlink="http://www.w3.org/1999/xlink" clip-rule="evenodd" stroke-miterlimit="10" viewBox="0 0 1920 1080"><desc>SVG generated by Keynote</desc><defs><linearGradient id="gradSh1.668" x1="-27.0" y1="0.0" x2="27.0" y2="0.0" gradientUnits="userSpaceOnUse" gradientTransform="matrix(0.00, -2.04, -2.04, 0.00, 455.7, 910.3)"><stop offset="0.00000" stop-color="#FFFFFF"></stop><stop offset="0.01833" stop-color="#FEFEFE"></stop><stop offset="1.00000" stop-color="#E3E3E3"></stop></linearGradient><linearGradient id="gradSh2.669" x1="-27.0" y1="0.0" x2="27.0" y2="0.0" gradientUnits="userSpaceOnUse" gradientTransform="matrix(0.00, -2.04, -2.04, 0.00, 455.7, 616.5)"><stop offset="0.00000" stop-color="#FFFFFF"></stop><stop offset="0.01833" stop-color="#FEFEFE"></stop><stop offset="1.00000" stop-color="#E3E3E3"></stop></linearGradient><linearGradient id="gradSh3.670" x1="-27.0" y1="0.0" x2="27.0" y2="0.0" gradientUnits="userSpaceOnUse" gradientTransform="matrix(0.00, -2.04, -2.04, 0.00, 455.7, 102.4)"><stop offset="0.00000" stop-color="#FFFFFF"></stop><stop offset="0.01833" stop-color="#FEFEFE"></stop><stop offset="1.00000" stop-color="#E3E3E3"></stop></linearGradient><linearGradient id="gradSh4.671" x1="-27.0" y1="0.0" x2="27.0" y2="0.0" gradientUnits="userSpaceOnUse" gradientTransform="matrix(0.00, -2.04, -2.04, 0.00, 161.4, 396.2)"><stop offset="0.00000" stop-color="#FFFFFF"></stop><stop offset="0.01833" stop-color="#FEFEFE"></stop><stop offset="1.00000" stop-color="#E3E3E3"></stop></linearGradient></defs><g transform="matrix(1.00, 0.00, -0.00, -1.00, 0.0, 1080.0)"><path d="M 0.0 1080.0 L 1920.0 1080.0 L 1920.0 0.0 L 0.0 0.0 Z M 0.0 1080.0 " fill="#FEFFFF"></path><g><clipPath id="clip0x7fd4135b2080"><path d="M 96.0 33.0 L 566.0 33.0 L 566.0 1047.0 L 96.0 1047.0 Z M 96.0 33.0 "></path></clipPath><g clip-path="url(#clip0x7fd4135b2080)"><image xlink:href="../../B02E482B-C8D7-4F1A-BA9A-94C651F35A6D/assets/A2B304A8042BB56F36E4B414A04A0988.png" width="19.00" height="100.00" transform="matrix(2.04, 0.00, -0.00, 2.04, 445.4, 655.3)"></image><image xlink:href="../../B02E482B-C8D7-4F1A-BA9A-94C651F35A6D/assets/428C57410BD56DB40C70C5CA0040093E.png" width="97.00" height="78.00" transform="matrix(2.04, 0.00, -0.00, 2.04, 208.4, 420.6)"></image><image xlink:href="../../B02E482B-C8D7-4F1A-BA9A-94C651F35A6D/assets/92EB1256DDE08D15C7DB4E435CAE6FB5.png" width="19.00" height="208.00" transform="matrix(2.04, 0.00, -0.00, 2.04, 445.4, 141.1)"></image><image xlink:href="../../B02E482B-C8D7-4F1A-BA9A-94C651F35A6D/assets/84D7644A2FD201640063688427AD0FFE.png" width="110.00" height="103.00" transform="matrix(2.04, 0.00, -0.00, 2.04, 206.3, 139.1)"></image><image xlink:href="../../B02E482B-C8D7-4F1A-BA9A-94C651F35A6D/assets/076919EA92D879EB930F676B7C23C66E.png" width="19.00" height="47.00" transform="matrix(2.04, 0.00, -0.00, 2.04, 445.4, 949.1)"></image><image xlink:href="../../B02E482B-C8D7-4F1A-BA9A-94C651F35A6D/assets/252B39EF83251546609468736A34A4BF.png" width="64.00" height="64.00" transform="matrix(2.04, 0.00, -0.00, 2.04, 390.3, 840.9)"></image></g></g><g><clipPath id="clip0x7fd4136bf1e0"><path d="M 408.7 965.4 L 502.7 965.4 C 507.2 965.4 510.8 961.7 510.8 957.2 L 510.8 863.4 C 510.8 858.9 507.2 855.2 502.7 855.2 L 408.7 855.2 C 404.1 855.2 400.5 858.9 400.5 863.4 L 400.5 957.2 C 400.5 961.7 404.1 965.4 408.7 965.4 Z M 408.7 965.4 "></path></clipPath><g clip-path="url(#clip0x7fd4136bf1e0)"><g><clipPath id="clip0x7fd4136c1060"><path d="M 96.0 33.0 L 566.0 33.0 L 566.0 1047.0 L 96.0 1047.0 Z M 96.0 33.0 "></path></clipPath><g clip-path="url(#clip0x7fd4136c1060)"><path d="M 96.0 33.0 L 566.0 33.0 L 566.0 1047.0 L 96.0 1047.0 Z M 96.0 33.0 " fill="url(#gradSh1.668)"></path></g></g></g></g><g><clipPath id="clip0x7fd4137167c0"><path d="M 96.0 33.0 L 566.0 33.0 L 566.0 1047.0 L 96.0 1047.0 Z M 96.0 33.0 "></path></clipPath><g clip-path="url(#clip0x7fd4137167c0)"><path d="M 643.0 81.0 L 689.0 81.0 C 691.2 81.0 693.0 82.8 693.0 85.0 L 693.0 131.0 C 693.0 133.2 691.2 135.0 689.0 135.0 L 643.0 135.0 C 640.8 135.0 639.0 133.2 639.0 131.0 L 639.0 85.0 C 639.0 82.8 640.8 81.0 643.0 81.0 Z M 643.0 81.0 " fill="none" stroke="#AAAAAA" stroke-width="2.00" stroke-linecap="round" stroke-linejoin="round" transform="matrix(2.04, 0.00, 0.00, -2.04, -905.3, 1130.7)"></path><text xml:space="preserve" font-family="Helvetica,Helvetica" font-size="10.0" fill="#616161" transform="matrix(2.04, 0.00, -0.00, -2.04, 439.7, 902.1)">i</text><text xml:space="preserve" font-family="Helvetica,Helvetica" font-size="10.0" fill="#616161" transform="matrix(2.04, 0.00, -0.00, -2.04, 444.3, 902.1)">d</text><text xml:space="preserve" font-family="Helvetica,Helvetica" font-size="10.0" fill="#616161" transform="matrix(2.04, 0.00, -0.00, -2.04, 455.7, 902.1)">l</text><text xml:space="preserve" font-family="Helvetica,Helvetica" font-size="10.0" fill="#616161" transform="matrix(2.04, 0.00, -0.00, -2.04, 460.2, 902.1)">e</text><image xlink:href="../../B02E482B-C8D7-4F1A-BA9A-94C651F35A6D/assets/252B39EF83251546609468736A34A4BF.png" width="64.00" height="64.00" transform="matrix(2.04, 0.00, -0.00, 2.04, 390.3, 547.1)"></image></g></g><g><clipPath id="clip0x7fd41371b5d0"><path d="M 408.7 671.6 L 502.7 671.6 C 507.2 671.6 510.8 667.9 510.8 663.4 L 510.8 569.6 C 510.8 565.1 507.2 561.4 502.7 561.4 L 408.7 561.4 C 404.1 561.4 400.5 565.1 400.5 569.6 L 400.5 663.4 C 400.5 667.9 404.1 671.6 408.7 671.6 Z M 408.7 671.6 "></path></clipPath><g clip-path="url(#clip0x7fd41371b5d0)"><g><clipPath id="clip0x7fd41371c720"><path d="M 96.0 33.0 L 566.0 33.0 L 566.0 1047.0 L 96.0 1047.0 Z M 96.0 33.0 "></path></clipPath><g clip-path="url(#clip0x7fd41371c720)"><path d="M 96.0 33.0 L 566.0 33.0 L 566.0 1047.0 L 96.0 1047.0 Z M 96.0 33.0 " fill="url(#gradSh2.669)"></path></g></g></g></g><g><clipPath id="clip0x7fd41376e4b0"><path d="M 96.0 33.0 L 566.0 33.0 L 566.0 1047.0 L 96.0 1047.0 Z M 96.0 33.0 "></path></clipPath><g clip-path="url(#clip0x7fd41376e4b0)"><path d="M 643.0 225.0 L 689.0 225.0 C 691.2 225.0 693.0 226.8 693.0 229.0 L 693.0 275.0 C 693.0 277.2 691.2 279.0 689.0 279.0 L 643.0 279.0 C 640.8 279.0 639.0 277.2 639.0 275.0 L 639.0 229.0 C 639.0 226.8 640.8 225.0 643.0 225.0 Z M 643.0 225.0 " fill="none" stroke="#AAAAAA" stroke-width="2.00" stroke-linecap="round" stroke-linejoin="round" transform="matrix(2.04, 0.00, 0.00, -2.04, -905.3, 1130.7)"></path><text xml:space="preserve" font-family="Helvetica,Helvetica" font-size="10.0" fill="#616161" transform="matrix(2.04, 0.00, -0.00, -2.04, 432.9, 608.3)">o</text><text xml:space="preserve" font-family="Helvetica,Helvetica" font-size="10.0" fill="#616161" transform="matrix(2.04, 0.00, -0.00, -2.04, 444.3, 608.3)">p</text><text xml:space="preserve" font-family="Helvetica,Helvetica" font-size="10.0" fill="#616161" transform="matrix(2.04, 0.00, -0.00, -2.04, 455.7, 608.3)">e</text><text xml:space="preserve" font-family="Helvetica,Helvetica" font-size="10.0" fill="#616161" transform="matrix(2.04, 0.00, -0.00, -2.04, 467.0, 608.3)">n</text><image xlink:href="../../B02E482B-C8D7-4F1A-BA9A-94C651F35A6D/assets/252B39EF83251546609468736A34A4BF.png" width="64.00" height="64.00" transform="matrix(2.04, 0.00, -0.00, 2.04, 390.3, 33.0)"></image></g></g><g><clipPath id="clip0x7fd4137723a0"><path d="M 408.7 157.5 L 502.7 157.5 C 507.2 157.5 510.8 153.8 510.8 149.3 L 510.8 55.4 C 510.8 50.9 507.2 47.3 502.7 47.3 L 408.7 47.3 C 404.1 47.3 400.5 50.9 400.5 55.4 L 400.5 149.3 C 400.5 153.8 404.1 157.5 408.7 157.5 Z M 408.7 157.5 "></path></clipPath><g clip-path="url(#clip0x7fd4137723a0)"><g><clipPath id="clip0x7fd413773530"><path d="M 96.0 33.0 L 566.0 33.0 L 566.0 1047.0 L 96.0 1047.0 Z M 96.0 33.0 "></path></clipPath><g clip-path="url(#clip0x7fd413773530)"><path d="M 96.0 33.0 L 566.0 33.0 L 566.0 1047.0 L 96.0 1047.0 Z M 96.0 33.0 " fill="url(#gradSh3.670)"></path></g></g></g></g><g><clipPath id="clip0x7fd4137c5260"><path d="M 96.0 33.0 L 566.0 33.0 L 566.0 1047.0 L 96.0 1047.0 Z M 96.0 33.0 "></path></clipPath><g clip-path="url(#clip0x7fd4137c5260)"><path d="M 643.0 477.0 L 689.0 477.0 C 691.2 477.0 693.0 478.8 693.0 481.0 L 693.0 527.0 C 693.0 529.2 691.2 531.0 689.0 531.0 L 643.0 531.0 C 640.8 531.0 639.0 529.2 639.0 527.0 L 639.0 481.0 C 639.0 478.8 640.8 477.0 643.0 477.0 Z M 643.0 477.0 " fill="none" stroke="#AAAAAA" stroke-width="2.00" stroke-linecap="round" stroke-linejoin="round" transform="matrix(2.04, 0.00, 0.00, -2.04, -905.3, 1130.7)"></path><text xml:space="preserve" font-family="Helvetica,Helvetica" font-size="10.0" fill="#616161" transform="matrix(2.04, 0.00, -0.00, -2.04, 426.1, 94.2)">c</text><text xml:space="preserve" font-family="Helvetica,Helvetica" font-size="10.0" fill="#616161" transform="matrix(2.04, 0.00, -0.00, -2.04, 436.3, 94.2)">l</text><text xml:space="preserve" font-family="Helvetica,Helvetica" font-size="10.0" fill="#616161" transform="matrix(2.04, 0.00, -0.00, -2.04, 440.9, 94.2)">o</text><text xml:space="preserve" font-family="Helvetica,Helvetica" font-size="10.0" fill="#616161" transform="matrix(2.04, 0.00, -0.00, -2.04, 452.2, 94.2)">s</text><text xml:space="preserve" font-family="Helvetica,Helvetica" font-size="10.0" fill="#616161" transform="matrix(2.04, 0.00, -0.00, -2.04, 462.5, 94.2)">e</text><text xml:space="preserve" font-family="Helvetica,Helvetica" font-size="10.0" fill="#616161" transform="matrix(2.04, 0.00, -0.00, -2.04, 473.8, 94.2)">d</text><image xlink:href="../../B02E482B-C8D7-4F1A-BA9A-94C651F35A6D/assets/252B39EF83251546609468736A34A4BF.png" width="64.00" height="64.00" transform="matrix(2.04, 0.00, -0.00, 2.04, 96.0, 326.8)"></image></g></g><g><clipPath id="clip0x7fd4137c9ea0"><path d="M 114.4 451.2 L 208.4 451.2 C 212.9 451.2 216.6 447.6 216.6 443.1 L 216.6 349.2 C 216.6 344.7 212.9 341.1 208.4 341.1 L 114.4 341.1 C 109.9 341.1 106.2 344.7 106.2 349.2 L 106.2 443.1 C 106.2 447.6 109.9 451.2 114.4 451.2 Z M 114.4 451.2 "></path></clipPath><g clip-path="url(#clip0x7fd4137c9ea0)"><g><clipPath id="clip0x7fd4137cafb0"><path d="M 96.0 33.0 L 566.0 33.0 L 566.0 1047.0 L 96.0 1047.0 Z M 96.0 33.0 "></path></clipPath><g clip-path="url(#clip0x7fd4137cafb0)"><path d="M 96.0 33.0 L 566.0 33.0 L 566.0 1047.0 L 96.0 1047.0 Z M 96.0 33.0 " fill="url(#gradSh4.671)"></path></g></g></g></g><g><clipPath id="clip0x7fd414020bc0"><path d="M 96.0 33.0 L 566.0 33.0 L 566.0 1047.0 L 96.0 1047.0 Z M 96.0 33.0 "></path></clipPath><g clip-path="url(#clip0x7fd414020bc0)"><path d="M 499.0 333.0 L 545.0 333.0 C 547.2 333.0 549.0 334.8 549.0 337.0 L 549.0 383.0 C 549.0 385.2 547.2 387.0 545.0 387.0 L 499.0 387.0 C 496.8 387.0 495.0 385.2 495.0 383.0 L 495.0 337.0 C 495.0 334.8 496.8 333.0 499.0 333.0 Z M 499.0 333.0 " fill="none" stroke="#AAAAAA" stroke-width="2.00" stroke-linecap="round" stroke-linejoin="round" transform="matrix(2.04, 0.00, 0.00, -2.04, -905.3, 1130.7)"></path><text xml:space="preserve" font-family="Helvetica,Helvetica" font-size="10.0" fill="#616161" transform="matrix(2.04, 0.00, -0.00, -2.04, 144.9, 412.5)">h</text><text xml:space="preserve" font-family="Helvetica,Helvetica" font-size="10.0" fill="#616161" transform="matrix(2.04, 0.00, -0.00, -2.04, 156.3, 412.5)">a</text><text xml:space="preserve" font-family="Helvetica,Helvetica" font-size="10.0" fill="#616161" transform="matrix(2.04, 0.00, -0.00, -2.04, 167.7, 412.5)">l</text><text xml:space="preserve" font-family="Helvetica,Helvetica" font-size="10.0" fill="#616161" transform="matrix(2.04, 0.00, -0.00, -2.04, 172.2, 412.5)">f</text><text xml:space="preserve" font-family="Helvetica,Helvetica" font-size="10.0" fill="#616161" transform="matrix(2.04, 0.00, -0.00, -2.04, 177.9, 412.5)"> </text><text xml:space="preserve" font-family="Helvetica,Helvetica" font-size="10.0" fill="#616161" transform="matrix(2.04, 0.00, -0.00, -2.04, 131.9, 388.0)">c</text><text xml:space="preserve" font-family="Helvetica,Helvetica" font-size="10.0" fill="#616161" transform="matrix(2.04, 0.00, -0.00, -2.04, 142.1, 388.0)">l</text><text xml:space="preserve" font-family="Helvetica,Helvetica" font-size="10.0" fill="#616161" transform="matrix(2.04, 0.00, -0.00, -2.04, 146.6, 388.0)">o</text><text xml:space="preserve" font-family="Helvetica,Helvetica" font-size="10.0" fill="#616161" transform="matrix(2.04, 0.00, -0.00, -2.04, 158.0, 388.0)">s</text><text xml:space="preserve" font-family="Helvetica,Helvetica" font-size="10.0" fill="#616161" transform="matrix(2.04, 0.00, -0.00, -2.04, 168.2, 388.0)">e</text><text xml:space="preserve" font-family="Helvetica,Helvetica" font-size="10.0" fill="#616161" transform="matrix(2.04, 0.00, -0.00, -2.04, 179.6, 388.0)">d</text><text xml:space="preserve" font-family="Helvetica,Helvetica" font-size="10.0" fill="#616161" transform="matrix(2.04, 0.00, -0.00, -2.04, 190.9, 388.0)"> </text><text xml:space="preserve" font-family="Helvetica,Helvetica" font-size="10.0" fill="#616161" transform="matrix(2.04, 0.00, -0.00, -2.04, 122.8, 363.5)">(</text><text xml:space="preserve" font-family="Helvetica,Helvetica" font-size="10.0" fill="#616161" transform="matrix(2.04, 0.00, -0.00, -2.04, 129.6, 363.5)">r</text><text xml:space="preserve" font-family="Helvetica,Helvetica" font-size="10.0" fill="#616161" transform="matrix(2.04, 0.00, -0.00, -2.04, 136.4, 363.5)">e</text><text xml:space="preserve" font-family="Helvetica,Helvetica" font-size="10.0" fill="#616161" transform="matrix(2.04, 0.00, -0.00, -2.04, 147.8, 363.5)">m</text><text xml:space="preserve" font-family="Helvetica,Helvetica" font-size="10.0" fill="#616161" transform="matrix(2.04, 0.00, -0.00, -2.04, 164.8, 363.5)">o</text><text xml:space="preserve" font-family="Helvetica,Helvetica" font-size="10.0" fill="#616161" transform="matrix(2.04, 0.00, -0.00, -2.04, 176.2, 363.5)">t</text><text xml:space="preserve" font-family="Helvetica,Helvetica" font-size="10.0" fill="#616161" transform="matrix(2.04, 0.00, -0.00, -2.04, 181.8, 363.5)">e</text><text xml:space="preserve" font-family="Helvetica,Helvetica" font-size="10.0" fill="#616161" transform="matrix(2.04, 0.00, -0.00, -2.04, 193.2, 363.5)">)</text><path d="M 666.5 214.1 L 666.5 136.0 " fill="none" stroke="#000000" stroke-width="1.00" stroke-linecap="round" stroke-linejoin="round" transform="matrix(2.04, 0.00, 0.00, -2.04, -905.3, 1130.7)"></path><path d="M 456.7 677.5 L 462.8 693.8 L 450.5 693.8 Z M 456.7 677.5 " fill="#000000"></path><path d="M 666.5 222.1 L 669.5 214.1 L 663.5 214.1 Z M 666.5 222.1 " fill="none" stroke="#000000" stroke-width="1.00" transform="matrix(2.04, 0.00, 0.00, -2.04, -905.3, 1130.7)"></path><path d="M 557.7 333.2 L 638.2 272.9 " fill="none" stroke="#000000" stroke-width="1.00" stroke-linecap="round" stroke-linejoin="round" transform="matrix(2.04, 0.00, 0.00, -2.04, -905.3, 1130.7)"></path><path d="M 221.3 441.0 L 238.1 445.9 L 230.7 455.7 Z M 221.3 441.0 " fill="#000000"></path><path d="M 551.3 338.0 L 559.5 335.6 L 555.9 330.8 Z M 551.3 338.0 " fill="none" stroke="#000000" stroke-width="1.00" transform="matrix(2.04, 0.00, 0.00, -2.04, -905.3, 1130.7)"></path><path d="M 666.5 466.1 L 666.5 280.0 " fill="none" stroke="#000000" stroke-width="1.00" stroke-linecap="round" stroke-linejoin="round" transform="matrix(2.04, 0.00, 0.00, -2.04, -905.3, 1130.7)"></path><path d="M 456.7 163.4 L 462.8 179.7 L 450.5 179.7 Z M 456.7 163.4 " fill="#000000"></path><path d="M 666.5 474.1 L 669.5 466.1 L 663.5 466.1 Z M 666.5 474.1 " fill="none" stroke="#000000" stroke-width="1.00" transform="matrix(2.04, 0.00, 0.00, -2.04, -905.3, 1130.7)"></path><path d="M 632.5 470.5 L 548.5 386.5 " fill="none" stroke="#000000" stroke-width="1.00" stroke-linecap="round" stroke-linejoin="round" transform="matrix(2.04, 0.00, 0.00, -2.04, -905.3, 1130.7)"></path><path d="M 398.7 159.2 L 391.5 175.1 L 382.8 166.5 Z M 398.7 159.2 " fill="#000000"></path><path d="M 638.1 476.1 L 634.6 468.3 L 630.3 472.6 Z M 638.1 476.1 " fill="none" stroke="#000000" stroke-width="1.00" transform="matrix(2.04, 0.00, 0.00, -2.04, -905.3, 1130.7)"></path><text xml:space="preserve" font-family="HelveticaNeue,Helvetica Neue" font-size="16.0" fill="#000000" transform="matrix(2.04, 0.00, -0.00, -2.04, 462.0, 729.1)">r</text><text xml:space="preserve" font-family="HelveticaNeue,Helvetica Neue" font-size="16.0" fill="#000000" transform="matrix(2.04, 0.00, -0.00, -2.04, 472.3, 729.1)">e</text><text xml:space="preserve" font-family="HelveticaNeue,Helvetica Neue" font-size="16.0" fill="#000000" transform="matrix(2.04, 0.00, -0.00, -2.04, 489.9, 729.1)">c</text><text xml:space="preserve" font-family="HelveticaNeue,Helvetica Neue" font-size="16.0" fill="#000000" transform="matrix(2.04, 0.00, -0.00, -2.04, 507.4, 729.1)">v</text><text xml:space="preserve" font-family="HelveticaNeue,Helvetica Neue" font-size="16.0" fill="#000000" transform="matrix(2.04, 0.00, -0.00, -2.04, 523.8, 729.1)"> </text><text xml:space="preserve" font-family="HelveticaNeue,Helvetica Neue" font-size="16.0" fill="#000000" transform="matrix(2.04, 0.00, -0.00, -2.04, 532.9, 729.1)">H</text><text xml:space="preserve" font-family="HelveticaNeue,Helvetica Neue" font-size="16.0" fill="#000000" transform="matrix(1.61, 1.26, 1.26, -1.61, 311.5, 515.4)">r</text><text xml:space="preserve" font-family="HelveticaNeue,Helvetica Neue" font-size="16.0" fill="#000000" transform="matrix(1.61, 1.26, 1.26, -1.61, 319.6, 521.8)">e</text><text xml:space="preserve" font-family="HelveticaNeue,Helvetica Neue" font-size="16.0" fill="#000000" transform="matrix(1.61, 1.26, 1.26, -1.61, 333.4, 532.6)">c</text><text xml:space="preserve" font-family="HelveticaNeue,Helvetica Neue" font-size="16.0" fill="#000000" transform="matrix(1.61, 1.26, 1.26, -1.61, 347.3, 543.4)">v</text><text xml:space="preserve" font-family="HelveticaNeue,Helvetica Neue" font-size="16.0" fill="#000000" transform="matrix(1.61, 1.26, 1.26, -1.61, 360.2, 553.4)"> </text><text xml:space="preserve" font-family="HelveticaNeue,Helvetica Neue" font-size="16.0" fill="#000000" transform="matrix(1.61, 1.26, 1.26, -1.61, 342.2, 492.8)">E</text><text xml:space="preserve" font-family="HelveticaNeue,Helvetica Neue" font-size="16.0" fill="#000000" transform="matrix(1.61, 1.26, 1.26, -1.61, 358.0, 505.1)">S</text><text xml:space="preserve" font-family="HelveticaNeue,Helvetica Neue" font-size="16.0" fill="#000000" transform="matrix(2.04, 0.00, -0.00, -2.04, 467.6, 404.2)">s</text><text xml:space="preserve" font-family="HelveticaNeue,Helvetica Neue" font-size="16.0" fill="#000000" transform="matrix(2.04, 0.00, -0.00, -2.04, 483.9, 404.2)">e</text><text xml:space="preserve" font-family="HelveticaNeue,Helvetica Neue" font-size="16.0" fill="#000000" transform="matrix(2.04, 0.00, -0.00, -2.04, 501.5, 404.2)">n</text><text xml:space="preserve" font-family="HelveticaNeue,Helvetica Neue" font-size="16.0" fill="#000000" transform="matrix(2.04, 0.00, -0.00, -2.04, 519.6, 404.2)">d</text><text xml:space="preserve" font-family="HelveticaNeue,Helvetica Neue" font-size="16.0" fill="#000000" transform="matrix(2.04, 0.00, -0.00, -2.04, 539.0, 404.2)"> </text><text xml:space="preserve" font-family="HelveticaNeue,Helvetica Neue" font-size="16.0" fill="#000000" transform="matrix(2.04, 0.00, -0.00, -2.04, 548.1, 404.2)">/</text><text xml:space="preserve" font-family="HelveticaNeue,Helvetica Neue" font-size="16.0" fill="#000000" transform="matrix(2.04, 0.00, -0.00, -2.04, 559.0, 404.2)"> </text><text xml:space="preserve" font-family="HelveticaNeue,Helvetica Neue" font-size="16.0" fill="#000000" transform="matrix(2.04, 0.00, -0.00, -2.04, 466.7, 367.4)">r</text><text xml:space="preserve" font-family="HelveticaNeue,Helvetica Neue" font-size="16.0" fill="#000000" transform="matrix(2.04, 0.00, -0.00, -2.04, 477.0, 367.4)">e</text><text xml:space="preserve" font-family="HelveticaNeue,Helvetica Neue" font-size="16.0" fill="#000000" transform="matrix(2.04, 0.00, -0.00, -2.04, 494.5, 367.4)">c</text><text xml:space="preserve" font-family="HelveticaNeue,Helvetica Neue" font-size="16.0" fill="#000000" transform="matrix(2.04, 0.00, -0.00, -2.04, 512.1, 367.4)">v</text><text xml:space="preserve" font-family="HelveticaNeue,Helvetica Neue" font-size="16.0" fill="#000000" transform="matrix(2.04, 0.00, -0.00, -2.04, 528.4, 367.4)"> </text><text xml:space="preserve" font-family="HelveticaNeue,Helvetica Neue" font-size="16.0" fill="#000000" transform="matrix(2.04, 0.00, -0.00, -2.04, 537.5, 367.4)">R</text><text xml:space="preserve" font-family="HelveticaNeue,Helvetica Neue" font-size="16.0" fill="#000000" transform="matrix(1.37, -1.52, -1.52, -1.37, 242.1, 334.3)">s</text><text xml:space="preserve" font-family="HelveticaNeue,Helvetica Neue" font-size="16.0" fill="#000000" transform="matrix(1.37, -1.52, -1.52, -1.37, 253.1, 322.2)">e</text><text xml:space="preserve" font-family="HelveticaNeue,Helvetica Neue" font-size="16.0" fill="#000000" transform="matrix(1.37, -1.52, -1.52, -1.37, 264.8, 309.2)">n</text><text xml:space="preserve" font-family="HelveticaNeue,Helvetica Neue" font-size="16.0" fill="#000000" transform="matrix(1.37, -1.52, -1.52, -1.37, 277.0, 295.7)">d</text><text xml:space="preserve" font-family="HelveticaNeue,Helvetica Neue" font-size="16.0" fill="#000000" transform="matrix(1.37, -1.52, -1.52, -1.37, 290.0, 281.3)"> </text><text xml:space="preserve" font-family="HelveticaNeue,Helvetica Neue" font-size="16.0" fill="#000000" transform="matrix(1.37, -1.52, -1.52, -1.37, 296.0, 274.6)">E</text><text xml:space="preserve" font-family="HelveticaNeue,Helvetica Neue" font-size="16.0" fill="#000000" transform="matrix(1.37, -1.52, -1.52, -1.37, 309.4, 259.7)">S</text><text xml:space="preserve" font-family="HelveticaNeue,Helvetica Neue" font-size="16.0" fill="#000000" transform="matrix(1.37, -1.52, -1.52, -1.37, 224.9, 298.5)">s</text><text xml:space="preserve" font-family="HelveticaNeue,Helvetica Neue" font-size="16.0" fill="#000000" transform="matrix(1.37, -1.52, -1.52, -1.37, 235.9, 286.4)">e</text><text xml:space="preserve" font-family="HelveticaNeue,Helvetica Neue" font-size="16.0" fill="#000000" transform="matrix(1.37, -1.52, -1.52, -1.37, 247.6, 273.4)">n</text><text xml:space="preserve" font-family="HelveticaNeue,Helvetica Neue" font-size="16.0" fill="#000000" transform="matrix(1.37, -1.52, -1.52, -1.37, 259.8, 259.9)">d</text><text xml:space="preserve" font-family="HelveticaNeue,Helvetica Neue" font-size="16.0" fill="#000000" transform="matrix(1.37, -1.52, -1.52, -1.37, 272.7, 245.5)"> </text><text xml:space="preserve" font-family="HelveticaNeue,Helvetica Neue" font-size="16.0" fill="#000000" transform="matrix(1.37, -1.52, -1.52, -1.37, 278.8, 238.8)">/</text><text xml:space="preserve" font-family="HelveticaNeue,Helvetica Neue" font-size="16.0" fill="#000000" transform="matrix(1.37, -1.52, -1.52, -1.37, 197.0, 274.6)">r</text><text xml:space="preserve" font-family="HelveticaNeue,Helvetica Neue" font-size="16.0" fill="#000000" transform="matrix(1.37, -1.52, -1.52, -1.37, 203.9, 267.0)">e</text><text xml:space="preserve" font-family="HelveticaNeue,Helvetica Neue" font-size="16.0" fill="#000000" transform="matrix(1.37, -1.52, -1.52, -1.37, 215.6, 254.0)">c</text><text xml:space="preserve" font-family="HelveticaNeue,Helvetica Neue" font-size="16.0" fill="#000000" transform="matrix(1.37, -1.52, -1.52, -1.37, 227.4, 240.9)">v</text><text xml:space="preserve" font-family="HelveticaNeue,Helvetica Neue" font-size="16.0" fill="#000000" transform="matrix(1.37, -1.52, -1.52, -1.37, 238.3, 228.8)"> </text><text xml:space="preserve" font-family="HelveticaNeue,Helvetica Neue" font-size="16.0" fill="#000000" transform="matrix(1.37, -1.52, -1.52, -1.37, 244.4, 222.1)">R</text><path d="M 666.5 70.1 L 666.5 45.0 " fill="none" stroke="#000000" stroke-width="1.00" stroke-linecap="round" stroke-linejoin="round" transform="matrix(2.04, 0.00, 0.00, -2.04, -905.3, 1130.7)"></path><path d="M 456.7 971.3 L 462.8 987.6 L 450.5 987.6 Z M 456.7 971.3 " fill="#000000"></path><path d="M 666.5 78.1 L 669.5 70.1 L 663.5 70.1 Z M 666.5 78.1 " fill="none" stroke="#000000" stroke-width="1.00" transform="matrix(2.04, 0.00, 0.00, -2.04, -905.3, 1130.7)"></path></g></g><text xml:space="preserve" font-family="SourceSansPro-Regular,Source Sans Pro" font-size="50.0" fill="#000000" transform="matrix(1.00, 0.00, -0.00, -1.00, 762.4, 282.5)">H</text><text xml:space="preserve" font-family="SourceSansPro-Regular,Source Sans Pro" font-size="50.0" fill="#000000" transform="matrix(1.00, 0.00, -0.00, -1.00, 795.0, 282.5)">:</text><text xml:space="preserve" font-family="SourceSansPro-Regular,Source Sans Pro" font-size="50.0" fill="#000000" transform="matrix(1.00, 0.00, -0.00, -1.00, 807.5, 282.5)"> </text><text xml:space="preserve" font-family="SourceSansPro-Regular,Source Sans Pro" font-size="50.0" fill="#000000" transform="matrix(1.00, 0.00, -0.00, -1.00, 817.6, 282.5)">H</text><text xml:space="preserve" font-family="SourceSansPro-Regular,Source Sans Pro" font-size="50.0" fill="#000000" transform="matrix(1.00, 0.00, -0.00, -1.00, 850.2, 282.5)">E</text><text xml:space="preserve" font-family="SourceSansPro-Regular,Source Sans Pro" font-size="50.0" fill="#000000" transform="matrix(1.00, 0.00, -0.00, -1.00, 876.5, 282.5)">A</text><text xml:space="preserve" font-family="SourceSansPro-Regular,Source Sans Pro" font-size="50.0" fill="#000000" transform="matrix(1.00, 0.00, -0.00, -1.00, 903.7, 282.5)">D</text><text xml:space="preserve" font-family="SourceSansPro-Regular,Source Sans Pro" font-size="50.0" fill="#000000" transform="matrix(1.00, 0.00, -0.00, -1.00, 934.5, 282.5)">E</text><text xml:space="preserve" font-family="SourceSansPro-Regular,Source Sans Pro" font-size="50.0" fill="#000000" transform="matrix(1.00, 0.00, -0.00, -1.00, 960.8, 282.5)">R</text><text xml:space="preserve" font-family="SourceSansPro-Regular,Source Sans Pro" font-size="50.0" fill="#000000" transform="matrix(1.00, 0.00, -0.00, -1.00, 989.2, 282.5)">S</text><text xml:space="preserve" font-family="SourceSansPro-Regular,Source Sans Pro" font-size="50.0" fill="#000000" transform="matrix(1.00, 0.00, -0.00, -1.00, 1015.9, 282.5)"> </text><text xml:space="preserve" font-family="SourceSansPro-Regular,Source Sans Pro" font-size="50.0" fill="#000000" transform="matrix(1.00, 0.00, -0.00, -1.00, 1026.0, 282.5)">F</text><text xml:space="preserve" font-family="SourceSansPro-Regular,Source Sans Pro" font-size="50.0" fill="#000000" transform="matrix(1.00, 0.00, -0.00, -1.00, 1049.7, 282.5)">r</text><text xml:space="preserve" font-family="SourceSansPro-Regular,Source Sans Pro" font-size="50.0" fill="#000000" transform="matrix(1.00, 0.00, -0.00, -1.00, 1065.8, 282.5)">a</text><text xml:space="preserve" font-family="SourceSansPro-Regular,Source Sans Pro" font-size="50.0" fill="#000000" transform="matrix(1.00, 0.00, -0.00, -1.00, 1091.4, 282.5)">m</text><text xml:space="preserve" font-family="SourceSansPro-Regular,Source Sans Pro" font-size="50.0" fill="#000000" transform="matrix(1.00, 0.00, -0.00, -1.00, 1132.8, 282.5)">e</text><text xml:space="preserve" font-family="SourceSansPro-Regular,Source Sans Pro" font-size="50.0" fill="#000000" transform="matrix(1.00, 0.00, -0.00, -1.00, 1157.6, 282.5)"> </text><text xml:space="preserve" font-family="SourceSansPro-Regular,Source Sans Pro" font-size="50.0" fill="#000000" transform="matrix(1.00, 0.00, -0.00, -1.00, 613.1, 219.5)">E</text><text xml:space="preserve" font-family="SourceSansPro-Regular,Source Sans Pro" font-size="50.0" fill="#000000" transform="matrix(1.00, 0.00, -0.00, -1.00, 639.4, 219.5)">S</text><text xml:space="preserve" font-family="SourceSansPro-Regular,Source Sans Pro" font-size="50.0" fill="#000000" transform="matrix(1.00, 0.00, -0.00, -1.00, 666.1, 219.5)">:</text><text xml:space="preserve" font-family="SourceSansPro-Regular,Source Sans Pro" font-size="50.0" fill="#000000" transform="matrix(1.00, 0.00, -0.00, -1.00, 678.6, 219.5)"> </text><text xml:space="preserve" font-family="SourceSansPro-Regular,Source Sans Pro" font-size="50.0" fill="#000000" transform="matrix(1.00, 0.00, -0.00, -1.00, 688.7, 219.5)">F</text><text xml:space="preserve" font-family="SourceSansPro-Regular,Source Sans Pro" font-size="50.0" fill="#000000" transform="matrix(1.00, 0.00, -0.00, -1.00, 712.4, 219.5)">r</text><text xml:space="preserve" font-family="SourceSansPro-Regular,Source Sans Pro" font-size="50.0" fill="#000000" transform="matrix(1.00, 0.00, -0.00, -1.00, 728.5, 219.5)">a</text><text xml:space="preserve" font-family="SourceSansPro-Regular,Source Sans Pro" font-size="50.0" fill="#000000" transform="matrix(1.00, 0.00, -0.00, -1.00, 754.1, 219.5)">m</text><text xml:space="preserve" font-family="SourceSansPro-Regular,Source Sans Pro" font-size="50.0" fill="#000000" transform="matrix(1.00, 0.00, -0.00, -1.00, 795.5, 219.5)">e</text><text xml:space="preserve" font-family="SourceSansPro-Regular,Source Sans Pro" font-size="50.0" fill="#000000" transform="matrix(1.00, 0.00, -0.00, -1.00, 820.3, 219.5)"> </text><text xml:space="preserve" font-family="SourceSansPro-Regular,Source Sans Pro" font-size="50.0" fill="#000000" transform="matrix(1.00, 0.00, -0.00, -1.00, 830.4, 219.5)">w</text><text xml:space="preserve" font-family="SourceSansPro-Regular,Source Sans Pro" font-size="50.0" fill="#000000" transform="matrix(1.00, 0.00, -0.00, -1.00, 866.3, 219.5)">i</text><text xml:space="preserve" font-family="SourceSansPro-Regular,Source Sans Pro" font-size="50.0" fill="#000000" transform="matrix(1.00, 0.00, -0.00, -1.00, 878.6, 219.5)">t</text><text xml:space="preserve" font-family="SourceSansPro-Regular,Source Sans Pro" font-size="50.0" fill="#000000" transform="matrix(1.00, 0.00, -0.00, -1.00, 895.5, 219.5)">h</text><text xml:space="preserve" font-family="SourceSansPro-Regular,Source Sans Pro" font-size="50.0" fill="#000000" transform="matrix(1.00, 0.00, -0.00, -1.00, 922.7, 219.5)"> </text><text xml:space="preserve" font-family="SourceSansPro-Regular,Source Sans Pro" font-size="50.0" fill="#000000" transform="matrix(1.00, 0.00, -0.00, -1.00, 932.8, 219.5)">E</text><text xml:space="preserve" font-family="SourceSansPro-Regular,Source Sans Pro" font-size="50.0" fill="#000000" transform="matrix(1.00, 0.00, -0.00, -1.00, 959.2, 219.5)">N</text><text xml:space="preserve" font-family="SourceSansPro-Regular,Source Sans Pro" font-size="50.0" fill="#000000" transform="matrix(1.00, 0.00, -0.00, -1.00, 991.5, 219.5)">D</text><text xml:space="preserve" font-family="SourceSansPro-Regular,Source Sans Pro" font-size="50.0" fill="#000000" transform="matrix(1.00, 0.00, -0.00, -1.00, 1022.3, 219.5)">_</text><text xml:space="preserve" font-family="SourceSansPro-Regular,Source Sans Pro" font-size="50.0" fill="#000000" transform="matrix(1.00, 0.00, -0.00, -1.00, 1047.2, 219.5)">S</text><text xml:space="preserve" font-family="SourceSansPro-Regular,Source Sans Pro" font-size="50.0" fill="#000000" transform="matrix(1.00, 0.00, -0.00, -1.00, 1073.0, 219.5)">T</text><text xml:space="preserve" font-family="SourceSansPro-Regular,Source Sans Pro" font-size="50.0" fill="#000000" transform="matrix(1.00, 0.00, -0.00, -1.00, 1099.8, 219.5)">R</text><text xml:space="preserve" font-family="SourceSansPro-Regular,Source Sans Pro" font-size="50.0" fill="#000000" transform="matrix(1.00, 0.00, -0.00, -1.00, 1128.8, 219.5)">E</text><text xml:space="preserve" font-family="SourceSansPro-Regular,Source Sans Pro" font-size="50.0" fill="#000000" transform="matrix(1.00, 0.00, -0.00, -1.00, 1155.2, 219.5)">A</text><text xml:space="preserve" font-family="SourceSansPro-Regular,Source Sans Pro" font-size="50.0" fill="#000000" transform="matrix(1.00, 0.00, -0.00, -1.00, 1182.4, 219.5)">M</text><text xml:space="preserve" font-family="SourceSansPro-Regular,Source Sans Pro" font-size="50.0" fill="#000000" transform="matrix(1.00, 0.00, -0.00, -1.00, 1218.7, 219.5)"> </text><text xml:space="preserve" font-family="SourceSansPro-Regular,Source Sans Pro" font-size="50.0" fill="#000000" transform="matrix(1.00, 0.00, -0.00, -1.00, 1228.8, 219.5)">f</text><text xml:space="preserve" font-family="SourceSansPro-Regular,Source Sans Pro" font-size="50.0" fill="#000000" transform="matrix(1.00, 0.00, -0.00, -1.00, 1243.4, 219.5)">l</text><text xml:space="preserve" font-family="SourceSansPro-Regular,Source Sans Pro" font-size="50.0" fill="#000000" transform="matrix(1.00, 0.00, -0.00, -1.00, 1256.2, 219.5)">a</text><text xml:space="preserve" font-family="SourceSansPro-Regular,Source Sans Pro" font-size="50.0" fill="#000000" transform="matrix(1.00, 0.00, -0.00, -1.00, 1281.8, 219.5)">g</text><text xml:space="preserve" font-family="SourceSansPro-Regular,Source Sans Pro" font-size="50.0" fill="#000000" transform="matrix(1.00, 0.00, -0.00, -1.00, 1307.0, 219.5)"> </text><text xml:space="preserve" font-family="SourceSansPro-Regular,Source Sans Pro" font-size="50.0" fill="#000000" transform="matrix(1.00, 0.00, -0.00, -1.00, 724.7, 156.5)">R</text><text xml:space="preserve" font-family="SourceSansPro-Regular,Source Sans Pro" font-size="50.0" fill="#000000" transform="matrix(1.00, 0.00, -0.00, -1.00, 753.7, 156.5)">:</text><text xml:space="preserve" font-family="SourceSansPro-Regular,Source Sans Pro" font-size="50.0" fill="#000000" transform="matrix(1.00, 0.00, -0.00, -1.00, 766.2, 156.5)"> </text><text xml:space="preserve" font-family="SourceSansPro-Regular,Source Sans Pro" font-size="50.0" fill="#000000" transform="matrix(1.00, 0.00, -0.00, -1.00, 776.3, 156.5)">R</text><text xml:space="preserve" font-family="SourceSansPro-Regular,Source Sans Pro" font-size="50.0" fill="#000000" transform="matrix(1.00, 0.00, -0.00, -1.00, 804.6, 156.5)">S</text><text xml:space="preserve" font-family="SourceSansPro-Regular,Source Sans Pro" font-size="50.0" fill="#000000" transform="matrix(1.00, 0.00, -0.00, -1.00, 830.3, 156.5)">T</text><text xml:space="preserve" font-family="SourceSansPro-Regular,Source Sans Pro" font-size="50.0" fill="#000000" transform="matrix(1.00, 0.00, -0.00, -1.00, 857.1, 156.5)">_</text><text xml:space="preserve" font-family="SourceSansPro-Regular,Source Sans Pro" font-size="50.0" fill="#000000" transform="matrix(1.00, 0.00, -0.00, -1.00, 882.1, 156.5)">S</text><text xml:space="preserve" font-family="SourceSansPro-Regular,Source Sans Pro" font-size="50.0" fill="#000000" transform="matrix(1.00, 0.00, -0.00, -1.00, 907.8, 156.5)">T</text><text xml:space="preserve" font-family="SourceSansPro-Regular,Source Sans Pro" font-size="50.0" fill="#000000" transform="matrix(1.00, 0.00, -0.00, -1.00, 934.6, 156.5)">R</text><text xml:space="preserve" font-family="SourceSansPro-Regular,Source Sans Pro" font-size="50.0" fill="#000000" transform="matrix(1.00, 0.00, -0.00, -1.00, 963.7, 156.5)">E</text><text xml:space="preserve" font-family="SourceSansPro-Regular,Source Sans Pro" font-size="50.0" fill="#000000" transform="matrix(1.00, 0.00, -0.00, -1.00, 990.0, 156.5)">A</text><text xml:space="preserve" font-family="SourceSansPro-Regular,Source Sans Pro" font-size="50.0" fill="#000000" transform="matrix(1.00, 0.00, -0.00, -1.00, 1017.2, 156.5)">M</text><text xml:space="preserve" font-family="SourceSansPro-Regular,Source Sans Pro" font-size="50.0" fill="#000000" transform="matrix(1.00, 0.00, -0.00, -1.00, 1053.6, 156.5)"> </text><text xml:space="preserve" font-family="SourceSansPro-Regular,Source Sans Pro" font-size="50.0" fill="#000000" transform="matrix(1.00, 0.00, -0.00, -1.00, 1063.7, 156.5)">F</text><text xml:space="preserve" font-family="SourceSansPro-Regular,Source Sans Pro" font-size="50.0" fill="#000000" transform="matrix(1.00, 0.00, -0.00, -1.00, 1087.4, 156.5)">r</text><text xml:space="preserve" font-family="SourceSansPro-Regular,Source Sans Pro" font-size="50.0" fill="#000000" transform="matrix(1.00, 0.00, -0.00, -1.00, 1103.5, 156.5)">a</text><text xml:space="preserve" font-family="SourceSansPro-Regular,Source Sans Pro" font-size="50.0" fill="#000000" transform="matrix(1.00, 0.00, -0.00, -1.00, 1129.1, 156.5)">m</text><text xml:space="preserve" font-family="SourceSansPro-Regular,Source Sans Pro" font-size="50.0" fill="#000000" transform="matrix(1.00, 0.00, -0.00, -1.00, 1170.5, 156.5)">e</text></g></svg>