<?xml version="1.0" encoding="UTF-8" standalone="no"?><svg xmlns="http://www.w3.org/2000/svg" xmlns:xlink="http://www.w3.org/1999/xlink" clip-rule="evenodd" stroke-miterlimit="10" viewBox="0 0 1920 1080"><desc>SVG generated by Keynote</desc><defs><linearGradient id="gradSh1.272" x1="-72.0" y1="0.0" x2="72.0" y2="0.0" gradientUnits="userSpaceOnUse" gradientTransform="matrix(0.00, -1.57, -1.58, 0.00, 399.5, 769.9)"><stop offset="0.00000" stop-color="#FF9D3A"></stop><stop offset="0.00806" stop-color="#FF9C3A"></stop><stop offset="0.48607" stop-color="#E6781F"></stop><stop offset="0.49120" stop-color="#E6771F"></stop><stop offset="0.77419" stop-color="#D8620F"></stop><stop offset="0.77786" stop-color="#D8610F"></stop><stop offset="0.91789" stop-color="#D05707"></stop><stop offset="0.92155" stop-color="#D05607"></stop><stop offset="0.98974" stop-color="#CD5103"></stop><stop offset="0.99707" stop-color="#CC5103"></stop><stop offset="1.00000" stop-color="#CC5003"></stop></linearGradient><linearGradient id="gradSh2.273" x1="-72.0" y1="0.0" x2="72.0" y2="0.0" gradientUnits="userSpaceOnUse" gradientTransform="matrix(0.00, -1.57, -1.58, 0.00, 399.5, 316.4)"><stop offset="0.00000" stop-color="#FF9D3A"></stop><stop offset="0.00806" stop-color="#FF9C3A"></stop><stop offset="0.48607" stop-color="#E6781F"></stop><stop offset="0.49120" stop-color="#E6771F"></stop><stop offset="0.77419" stop-color="#D8620F"></stop><stop offset="0.77786" stop-color="#D8610F"></stop><stop offset="0.91789" stop-color="#D05707"></stop><stop offset="0.92155" stop-color="#D05607"></stop><stop offset="0.98974" stop-color="#CD5103"></stop><stop offset="0.99707" stop-color="#CC5103"></stop><stop offset="1.00000" stop-color="#CC5003"></stop></linearGradient><linearGradient id="gradSh3.274" x1="-72.0" y1="0.0" x2="72.0" y2="0.0" gradientUnits="userSpaceOnUse" gradientTransform="matrix(0.00, -0.40, -0.40, 0.00, 1526.5, 986.9)"><stop offset="0.00000" stop-color="#FFFFFF"></stop><stop offset="0.01393" stop-color="#FEFEFE"></stop><stop offset="1.00000" stop-color="#DADADA"></stop></linearGradient><linearGradient id="gradSh4.275" x1="-72.0" y1="0.0" x2="72.0" y2="0.0" gradientUnits="userSpaceOnUse" gradientTransform="matrix(0.00, -0.40, -0.40, 0.00, 1701.2, 986.9)"><stop offset="0.00000" stop-color="#FFFFFF"></stop><stop offset="0.01393" stop-color="#FEFEFE"></stop><stop offset="1.00000" stop-color="#DADADA"></stop></linearGradient><linearGradient id="gradSh5.276" x1="-72.0" y1="0.0" x2="72.0" y2="0.0" gradientUnits="userSpaceOnUse" gradientTransform="matrix(0.00, -0.40, -0.40, 0.00, 1788.6, 986.9)"><stop offset="0.00000" stop-color="#FFFFFF"></stop><stop offset="0.01393" stop-color="#FEFEFE"></stop><stop offset="1.00000" stop-color="#DADADA"></stop></linearGradient><linearGradient id="gradSh6.277" x1="-72.0" y1="0.0" x2="72.0" y2="0.0" gradientUnits="userSpaceOnUse" gradientTransform="matrix(0.00, -0.40, -0.40, 0.00, 1875.9, 986.9)"><stop offset="0.00000" stop-color="#FFFFFF"></stop><stop offset="0.01393" stop-color="#FEFEFE"></stop><stop offset="1.00000" stop-color="#DADADA"></stop></linearGradient><linearGradient id="gradSh7.278" x1="-72.0" y1="0.0" x2="72.0" y2="0.0" gradientUnits="userSpaceOnUse" gradientTransform="matrix(0.00, -0.40, -0.40, 0.00, 1788.6, 899.5)"><stop offset="0.00000" stop-color="#FFFFFF"></stop><stop offset="0.01393" stop-color="#FEFEFE"></stop><stop offset="1.00000" stop-color="#DADADA"></stop></linearGradient><linearGradient id="gradSh8.279" x1="-72.0" y1="0.0" x2="72.0" y2="0.0" gradientUnits="userSpaceOnUse" gradientTransform="matrix(0.00, -0.40, -0.40, 0.00, 1788.6, 812.2)"><stop offset="0.00000" stop-color="#FFFFFF"></stop><stop offset="0.01393" stop-color="#FEFEFE"></stop><stop offset="1.00000" stop-color="#DADADA"></stop></linearGradient><linearGradient id="gradSh9.280" x1="-72.0" y1="0.0" x2="72.0" y2="0.0" gradientUnits="userSpaceOnUse" gradientTransform="matrix(0.00, -0.40, -0.40, 0.00, 1613.8, 986.2)"><stop offset="0.00000" stop-color="#FF9D3A"></stop><stop offset="0.00806" stop-color="#FF9C3A"></stop><stop offset="0.48607" stop-color="#E6781F"></stop><stop offset="0.49120" stop-color="#E6771F"></stop><stop offset="0.77419" stop-color="#D8620F"></stop><stop offset="0.77786" stop-color="#D8610F"></stop><stop offset="0.91789" stop-color="#D05707"></stop><stop offset="0.92155" stop-color="#D05607"></stop><stop offset="0.98974" stop-color="#CD5103"></stop><stop offset="0.99707" stop-color="#CC5103"></stop><stop offset="1.00000" stop-color="#CC5003"></stop></linearGradient></defs><g transform="matrix(1.00, 0.00, -0.00, -1.00, 0.0, 1080.0)"><path d="M 0.0 1080.0 L 1920.0 1080.0 L 1920.0 0.0 L 0.0 0.0 Z M 0.0 1080.0 " fill="#FEFFFF"></path><g><clipPath id="clip0x7fd42181ee70"><path d="M 278.0 192.0 L 521.0 192.0 L 521.0 888.0 L 278.0 888.0 Z M 278.0 192.0 "></path></clipPath><g clip-path="url(#clip0x7fd42181ee70)"><image xlink:href="ED295B6B97FC018C35D4FA8482A0E127.png" width="41.00" height="166.00" transform="matrix(1.58, 0.00, -0.00, 1.57, 385.3, 415.6)"></image><image xlink:href="../../F36A6F62-F7B3-45ED-9907-0EDA78A152D7/assets/26D63AB0A3D55BB2EC547125617D0F43.png" width="154.00" height="154.00" transform="matrix(1.58, 0.00, -0.00, 1.57, 278.0, 645.5)"></image></g></g><g><clipPath id="clip0x7fd421c55300"><path d="M 292.2 883.3 L 506.8 883.3 C 510.3 883.3 513.1 880.5 513.1 877.0 L 513.1 662.8 C 513.1 659.3 510.3 656.5 506.8 656.5 L 292.2 656.5 C 288.7 656.5 285.9 659.3 285.9 662.8 L 285.9 877.0 C 285.9 880.5 288.7 883.3 292.2 883.3 Z M 292.2 883.3 "></path></clipPath><g clip-path="url(#clip0x7fd421c55300)"><g><clipPath id="clip0x7fd421c504a0"><path d="M 278.0 192.0 L 521.0 192.0 L 521.0 888.0 L 278.0 888.0 Z M 278.0 192.0 "></path></clipPath><g clip-path="url(#clip0x7fd421c504a0)"><path d="M 278.0 192.0 L 521.0 192.0 L 521.0 888.0 L 278.0 888.0 Z M 278.0 192.0 " fill="url(#gradSh1.272)"></path></g></g></g></g><g><clipPath id="clip0x7fd421ca72c0"><path d="M 278.0 192.0 L 521.0 192.0 L 521.0 888.0 L 278.0 888.0 Z M 278.0 192.0 "></path></clipPath><g clip-path="url(#clip0x7fd421ca72c0)"><path d="M 292.0 72.0 L 428.0 72.0 C 430.2 72.0 432.0 73.8 432.0 76.0 L 432.0 212.0 C 432.0 214.2 430.2 216.0 428.0 216.0 L 292.0 216.0 C 289.8 216.0 288.0 214.2 288.0 212.0 L 288.0 76.0 C 288.0 73.8 289.8 72.0 292.0 72.0 Z M 292.0 72.0 " fill="none" stroke="#AE653C" stroke-width="2.00" stroke-linecap="round" stroke-linejoin="round" transform="matrix(1.58, 0.00, 0.00, -1.57, -168.6, 996.7)"></path></g></g><image xlink:href="4A6BDF95E86315E76584D23524ECE5AF.png" width="106.00" height="49.00" transform="matrix(1.00, 0.00, -0.00, -1.00, 347.0, 812.0)"></image><g><clipPath id="clip0x7fd421a456f0"><path d="M 278.0 192.0 L 521.0 192.0 L 521.0 888.0 L 278.0 888.0 Z M 278.0 192.0 "></path></clipPath><g clip-path="url(#clip0x7fd421a456f0)"><text xml:space="preserve" font-family="Helvetica-Bold,Helvetica" font-weight="bold" font-size="25.0" fill="#FFFFFF" transform="matrix(1.58, 0.00, -0.00, -1.57, 351.3, 779.3)">h</text><text xml:space="preserve" font-family="Helvetica-Bold,Helvetica" font-weight="bold" font-size="25.0" fill="#FFFFFF" transform="matrix(1.58, 0.00, -0.00, -1.57, 375.4, 779.3)">t</text><text xml:space="preserve" font-family="Helvetica-Bold,Helvetica" font-weight="bold" font-size="25.0" fill="#FFFFFF" transform="matrix(1.58, 0.00, -0.00, -1.57, 388.5, 779.3)">t</text><text xml:space="preserve" font-family="Helvetica-Bold,Helvetica" font-weight="bold" font-size="25.0" fill="#FFFFFF" transform="matrix(1.58, 0.00, -0.00, -1.57, 401.7, 779.3)">p</text><text xml:space="preserve" font-family="Helvetica-Bold,Helvetica" font-weight="bold" font-size="25.0" fill="#FFFFFF" transform="matrix(1.58, 0.00, -0.00, -1.57, 425.7, 779.3)">2</text></g></g><image xlink:href="170F5D06808E2B4C9DA394A896855869.png" width="220.00" height="42.00" transform="matrix(1.00, 0.00, -0.00, -1.00, 289.0, 765.0)"></image><g><clipPath id="clip0x7fd421aa14b0"><path d="M 278.0 192.0 L 521.0 192.0 L 521.0 888.0 L 278.0 888.0 Z M 278.0 192.0 "></path></clipPath><g clip-path="url(#clip0x7fd421aa14b0)"><text xml:space="preserve" font-family="Helvetica-Bold,Helvetica" font-weight="bold" font-size="25.0" fill="#FFFFFF" transform="matrix(1.58, 0.00, -0.00, -1.57, 294.3, 732.1)">c</text><text xml:space="preserve" font-family="Helvetica-Bold,Helvetica" font-weight="bold" font-size="25.0" fill="#FFFFFF" transform="matrix(1.58, 0.00, -0.00, -1.57, 316.2, 732.1)">o</text><text xml:space="preserve" font-family="Helvetica-Bold,Helvetica" font-weight="bold" font-size="25.0" fill="#FFFFFF" transform="matrix(1.58, 0.00, -0.00, -1.57, 340.3, 732.1)">n</text><text xml:space="preserve" font-family="Helvetica-Bold,Helvetica" font-weight="bold" font-size="25.0" fill="#FFFFFF" transform="matrix(1.58, 0.00, -0.00, -1.57, 364.4, 732.1)">n</text><text xml:space="preserve" font-family="Helvetica-Bold,Helvetica" font-weight="bold" font-size="25.0" fill="#FFFFFF" transform="matrix(1.58, 0.00, -0.00, -1.57, 388.5, 732.1)">e</text><text xml:space="preserve" font-family="Helvetica-Bold,Helvetica" font-weight="bold" font-size="25.0" fill="#FFFFFF" transform="matrix(1.58, 0.00, -0.00, -1.57, 410.5, 732.1)">c</text><text xml:space="preserve" font-family="Helvetica-Bold,Helvetica" font-weight="bold" font-size="25.0" fill="#FFFFFF" transform="matrix(1.58, 0.00, -0.00, -1.57, 432.4, 732.1)">t</text><text xml:space="preserve" font-family="Helvetica-Bold,Helvetica" font-weight="bold" font-size="25.0" fill="#FFFFFF" transform="matrix(1.58, 0.00, -0.00, -1.57, 445.5, 732.1)">i</text><text xml:space="preserve" font-family="Helvetica-Bold,Helvetica" font-weight="bold" font-size="25.0" fill="#FFFFFF" transform="matrix(1.58, 0.00, -0.00, -1.57, 456.5, 732.1)">o</text><text xml:space="preserve" font-family="Helvetica-Bold,Helvetica" font-weight="bold" font-size="25.0" fill="#FFFFFF" transform="matrix(1.58, 0.00, -0.00, -1.57, 480.6, 732.1)">n</text></g></g><g><clipPath id="clip0x7fd421aa6aa0"><path d="M 278.0 192.0 L 521.0 192.0 L 521.0 888.0 L 278.0 888.0 Z M 278.0 192.0 "></path></clipPath><g clip-path="url(#clip0x7fd421aa6aa0)"><image xlink:href="../../F36A6F62-F7B3-45ED-9907-0EDA78A152D7/assets/26D63AB0A3D55BB2EC547125617D0F43.png" width="154.00" height="154.00" transform="matrix(1.58, 0.00, -0.00, 1.57, 278.0, 192.0)"></image></g></g><g><clipPath id="clip0x7fd4217b8b10"><path d="M 292.2 429.8 L 506.8 429.8 C 510.3 429.8 513.1 427.0 513.1 423.5 L 513.1 209.3 C 513.1 205.8 510.3 203.0 506.8 203.0 L 292.2 203.0 C 288.7 203.0 285.9 205.8 285.9 209.3 L 285.9 423.5 C 285.9 427.0 288.7 429.8 292.2 429.8 Z M 292.2 429.8 "></path></clipPath><g clip-path="url(#clip0x7fd4217b8b10)"><g><clipPath id="clip0x7fd4217b8d40"><path d="M 278.0 192.0 L 521.0 192.0 L 521.0 888.0 L 278.0 888.0 Z M 278.0 192.0 "></path></clipPath><g clip-path="url(#clip0x7fd4217b8d40)"><path d="M 278.0 192.0 L 521.0 192.0 L 521.0 888.0 L 278.0 888.0 Z M 278.0 192.0 " fill="url(#gradSh2.273)"></path></g></g></g></g><g><clipPath id="clip0x7fd421b6a820"><path d="M 278.0 192.0 L 521.0 192.0 L 521.0 888.0 L 278.0 888.0 Z M 278.0 192.0 "></path></clipPath><g clip-path="url(#clip0x7fd421b6a820)"><path d="M 292.0 360.0 L 428.0 360.0 C 430.2 360.0 432.0 361.8 432.0 364.0 L 432.0 500.0 C 432.0 502.2 430.2 504.0 428.0 504.0 L 292.0 504.0 C 289.8 504.0 288.0 502.2 288.0 500.0 L 288.0 364.0 C 288.0 361.8 289.8 360.0 292.0 360.0 Z M 292.0 360.0 " fill="none" stroke="#AE653C" stroke-width="2.00" stroke-linecap="round" stroke-linejoin="round" transform="matrix(1.58, 0.00, 0.00, -1.57, -168.6, 996.7)"></path></g></g><image xlink:href="EFF96E6B0D9BE5748FAFBF748E3AC312.png" width="187.00" height="50.00" transform="matrix(1.00, 0.00, -0.00, -1.00, 307.0, 335.0)"></image><g><clipPath id="clip0x7fd4218209f0"><path d="M 278.0 192.0 L 521.0 192.0 L 521.0 888.0 L 278.0 888.0 Z M 278.0 192.0 "></path></clipPath><g clip-path="url(#clip0x7fd4218209f0)"><text xml:space="preserve" font-family="Helvetica-Bold,Helvetica" font-weight="bold" font-size="25.0" fill="#FFFFFF" transform="matrix(1.58, 0.00, -0.00, -1.57, 310.7, 302.2)">p</text><text xml:space="preserve" font-family="Helvetica-Bold,Helvetica" font-weight="bold" font-size="25.0" fill="#FFFFFF" transform="matrix(1.58, 0.00, -0.00, -1.57, 334.8, 302.2)">r</text><text xml:space="preserve" font-family="Helvetica-Bold,Helvetica" font-weight="bold" font-size="25.0" fill="#FFFFFF" transform="matrix(1.58, 0.00, -0.00, -1.57, 350.2, 302.2)">i</text><text xml:space="preserve" font-family="Helvetica-Bold,Helvetica" font-weight="bold" font-size="25.0" fill="#FFFFFF" transform="matrix(1.58, 0.00, -0.00, -1.57, 361.1, 302.2)">m</text><text xml:space="preserve" font-family="Helvetica-Bold,Helvetica" font-weight="bold" font-size="25.0" fill="#FFFFFF" transform="matrix(1.58, 0.00, -0.00, -1.57, 396.2, 302.2)">_</text><text xml:space="preserve" font-family="Helvetica-Bold,Helvetica" font-weight="bold" font-size="25.0" fill="#FFFFFF" transform="matrix(1.58, 0.00, -0.00, -1.57, 418.1, 302.2)">i</text><text xml:space="preserve" font-family="Helvetica-Bold,Helvetica" font-weight="bold" font-size="25.0" fill="#FFFFFF" transform="matrix(1.58, 0.00, -0.00, -1.57, 429.1, 302.2)">n</text><text xml:space="preserve" font-family="Helvetica-Bold,Helvetica" font-weight="bold" font-size="25.0" fill="#FFFFFF" transform="matrix(1.58, 0.00, -0.00, -1.57, 453.1, 302.2)">e</text><text xml:space="preserve" font-family="Helvetica-Bold,Helvetica" font-weight="bold" font-size="25.0" fill="#FFFFFF" transform="matrix(1.58, 0.00, -0.00, -1.57, 475.1, 302.2)">t</text></g></g><g><clipPath id="clip0x7fd421824fd0"><path d="M 278.0 192.0 L 521.0 192.0 L 521.0 888.0 L 278.0 888.0 Z M 278.0 192.0 "></path></clipPath><g clip-path="url(#clip0x7fd421824fd0)"><path d="M 360.5 359.0 L 360.5 238.9 " fill="none" stroke="#000000" stroke-width="5.00" stroke-linecap="round" stroke-linejoin="round" transform="matrix(1.58, 0.00, 0.00, -1.57, -168.6, 996.7)"></path><path d="M 399.5 643.1 L 391.0 620.5 L 408.0 620.5 Z M 399.5 643.1 " fill="#000000"></path><path d="M 360.0 224.5 L 354.6 238.9 L 365.4 238.9 Z M 360.0 224.5 " fill="none" stroke="#000000" stroke-width="5.00" transform="matrix(1.58, 0.00, 0.00, -1.57, -168.6, 996.7)"></path></g></g><text xml:space="preserve" font-family="SourceSansPro-Regular,Source Sans Pro" font-size="50.0" fill="#000000" transform="matrix(1.00, 0.00, -0.00, -1.00, 602.6, 294.1)">s</text><text xml:space="preserve" font-family="SourceSansPro-Regular,Source Sans Pro" font-size="50.0" fill="#000000" transform="matrix(1.00, 0.00, -0.00, -1.00, 623.5, 294.1)">e</text><text xml:space="preserve" font-family="SourceSansPro-Regular,Source Sans Pro" font-size="50.0" fill="#000000" transform="matrix(1.00, 0.00, -0.00, -1.00, 648.3, 294.1)">n</text><text xml:space="preserve" font-family="SourceSansPro-Regular,Source Sans Pro" font-size="50.0" fill="#000000" transform="matrix(1.00, 0.00, -0.00, -1.00, 675.7, 294.1)">d</text><text xml:space="preserve" font-family="SourceSansPro-Regular,Source Sans Pro" font-size="50.0" fill="#000000" transform="matrix(1.00, 0.00, -0.00, -1.00, 703.4, 294.1)">s</text><text xml:space="preserve" font-family="SourceSansPro-Regular,Source Sans Pro" font-size="50.0" fill="#000000" transform="matrix(1.00, 0.00, -0.00, -1.00, 724.4, 294.1)"> </text><text xml:space="preserve" font-family="SourceSansPro-Regular,Source Sans Pro" font-size="50.0" fill="#000000" transform="matrix(1.00, 0.00, -0.00, -1.00, 734.5, 294.1)">m</text><text xml:space="preserve" font-family="SourceSansPro-Regular,Source Sans Pro" font-size="50.0" fill="#000000" transform="matrix(1.00, 0.00, -0.00, -1.00, 775.9, 294.1)">e</text><text xml:space="preserve" font-family="SourceSansPro-Regular,Source Sans Pro" font-size="50.0" fill="#000000" transform="matrix(1.00, 0.00, -0.00, -1.00, 800.7, 294.1)">s</text><text xml:space="preserve" font-family="SourceSansPro-Regular,Source Sans Pro" font-size="50.0" fill="#000000" transform="matrix(1.00, 0.00, -0.00, -1.00, 821.7, 294.1)">s</text><text xml:space="preserve" font-family="SourceSansPro-Regular,Source Sans Pro" font-size="50.0" fill="#000000" transform="matrix(1.00, 0.00, -0.00, -1.00, 842.6, 294.1)">a</text><text xml:space="preserve" font-family="SourceSansPro-Regular,Source Sans Pro" font-size="50.0" fill="#000000" transform="matrix(1.00, 0.00, -0.00, -1.00, 868.2, 294.1)">g</text><text xml:space="preserve" font-family="SourceSansPro-Regular,Source Sans Pro" font-size="50.0" fill="#000000" transform="matrix(1.00, 0.00, -0.00, -1.00, 892.7, 294.1)">e</text><text xml:space="preserve" font-family="SourceSansPro-Regular,Source Sans Pro" font-size="50.0" fill="#000000" transform="matrix(1.00, 0.00, -0.00, -1.00, 917.5, 294.1)"> </text><text xml:space="preserve" font-family="SourceSansPro-Regular,Source Sans Pro" font-size="50.0" fill="#000000" transform="matrix(1.00, 0.00, -0.00, -1.00, 927.6, 294.1)">w</text><text xml:space="preserve" font-family="SourceSansPro-Regular,Source Sans Pro" font-size="50.0" fill="#000000" transform="matrix(1.00, 0.00, -0.00, -1.00, 963.5, 294.1)">h</text><text xml:space="preserve" font-family="SourceSansPro-Regular,Source Sans Pro" font-size="50.0" fill="#000000" transform="matrix(1.00, 0.00, -0.00, -1.00, 990.7, 294.1)">e</text><text xml:space="preserve" font-family="SourceSansPro-Regular,Source Sans Pro" font-size="50.0" fill="#000000" transform="matrix(1.00, 0.00, -0.00, -1.00, 1015.5, 294.1)">n</text><text xml:space="preserve" font-family="SourceSansPro-Regular,Source Sans Pro" font-size="50.0" fill="#000000" transform="matrix(1.00, 0.00, -0.00, -1.00, 1042.9, 294.1)"> </text><text xml:space="preserve" font-family="SourceSansPro-Regular,Source Sans Pro" font-size="50.0" fill="#000000" transform="matrix(1.00, 0.00, -0.00, -1.00, 1053.0, 294.1)">s</text><text xml:space="preserve" font-family="SourceSansPro-Regular,Source Sans Pro" font-size="50.0" fill="#000000" transform="matrix(1.00, 0.00, -0.00, -1.00, 1073.9, 294.1)">o</text><text xml:space="preserve" font-family="SourceSansPro-Regular,Source Sans Pro" font-size="50.0" fill="#000000" transform="matrix(1.00, 0.00, -0.00, -1.00, 1101.0, 294.1)">c</text><text xml:space="preserve" font-family="SourceSansPro-Regular,Source Sans Pro" font-size="50.0" fill="#000000" transform="matrix(1.00, 0.00, -0.00, -1.00, 1123.8, 294.1)">k</text><text xml:space="preserve" font-family="SourceSansPro-Regular,Source Sans Pro" font-size="50.0" fill="#000000" transform="matrix(1.00, 0.00, -0.00, -1.00, 1147.7, 294.1)">e</text><text xml:space="preserve" font-family="SourceSansPro-Regular,Source Sans Pro" font-size="50.0" fill="#000000" transform="matrix(1.00, 0.00, -0.00, -1.00, 1171.8, 294.1)">t</text><text xml:space="preserve" font-family="SourceSansPro-Regular,Source Sans Pro" font-size="50.0" fill="#000000" transform="matrix(1.00, 0.00, -0.00, -1.00, 1188.7, 294.1)"> </text><text xml:space="preserve" font-family="SourceSansPro-Regular,Source Sans Pro" font-size="50.0" fill="#000000" transform="matrix(1.00, 0.00, -0.00, -1.00, 1198.8, 294.1)">a</text><text xml:space="preserve" font-family="SourceSansPro-Regular,Source Sans Pro" font-size="50.0" fill="#000000" transform="matrix(1.00, 0.00, -0.00, -1.00, 1224.4, 294.1)">c</text><text xml:space="preserve" font-family="SourceSansPro-Regular,Source Sans Pro" font-size="50.0" fill="#000000" transform="matrix(1.00, 0.00, -0.00, -1.00, 1246.1, 294.1)">c</text><text xml:space="preserve" font-family="SourceSansPro-Regular,Source Sans Pro" font-size="50.0" fill="#000000" transform="matrix(1.00, 0.00, -0.00, -1.00, 1267.9, 294.1)">e</text><text xml:space="preserve" font-family="SourceSansPro-Regular,Source Sans Pro" font-size="50.0" fill="#000000" transform="matrix(1.00, 0.00, -0.00, -1.00, 1292.7, 294.1)">p</text><text xml:space="preserve" font-family="SourceSansPro-Regular,Source Sans Pro" font-size="50.0" fill="#000000" transform="matrix(1.00, 0.00, -0.00, -1.00, 1320.4, 294.1)">t</text><text xml:space="preserve" font-family="SourceSansPro-Regular,Source Sans Pro" font-size="50.0" fill="#000000" transform="matrix(1.00, 0.00, -0.00, -1.00, 1336.8, 294.1)">e</text><text xml:space="preserve" font-family="SourceSansPro-Regular,Source Sans Pro" font-size="50.0" fill="#000000" transform="matrix(1.00, 0.00, -0.00, -1.00, 1361.6, 294.1)">d</text><g><clipPath id="clip0x7fd4218357c0"><path d="M 1465.0 780.0 L 1920.0 780.0 L 1920.0 1080.0 L 1465.0 1080.0 Z M 1465.0 780.0 "></path></clipPath><g clip-path="url(#clip0x7fd4218357c0)"><image xlink:href="../../A7482197-03EF-4231-B37E-3A53DC93D8C8/assets/09602989A7D55721ADAE3F8C1C8A5147.png" width="106.00" height="28.00" transform="matrix(0.40, 0.00, -0.00, 0.40, 1465.0, 980.9)"></image><image xlink:href="../../FD50DE45-1F9C-40EC-8C3A-82D8B10F0EE1/assets/7F660C953B3A0E4918554E799590B328.png" width="105.00" height="28.00" transform="matrix(0.40, 0.00, -0.00, 0.40, 1552.8, 980.1)"></image><image xlink:href="../../FD50DE45-1F9C-40EC-8C3A-82D8B10F0EE1/assets/F617339D4F33C0AA513B1A5876C6477E.png" width="105.00" height="28.00" transform="matrix(0.40, 0.00, -0.00, 0.40, 1640.1, 980.5)"></image><image xlink:href="../../A7482197-03EF-4231-B37E-3A53DC93D8C8/assets/009685358D09EE7C4D5764F0BE34FA17.png" width="105.00" height="28.00" transform="matrix(0.40, 0.00, -0.00, 0.40, 1727.5, 980.9)"></image><image xlink:href="../../A7482197-03EF-4231-B37E-3A53DC93D8C8/assets/D205153572DF855D119D4811E0DBF965.png" width="106.00" height="28.00" transform="matrix(0.40, 0.00, -0.00, 0.40, 1814.8, 980.9)"></image><image xlink:href="../../F36A6F62-F7B3-45ED-9907-0EDA78A152D7/assets/2D78A39335047FF13A38229B9C587EAF.png" width="108.00" height="94.00" transform="matrix(0.40, 0.00, -0.00, 0.40, 1727.1, 922.3)"></image><image xlink:href="../../A7482197-03EF-4231-B37E-3A53DC93D8C8/assets/CB3C3451F24C657D5E4A184C6B852420.png" width="35.00" height="91.00" transform="matrix(0.40, 0.00, -0.00, 0.40, 1785.3, 923.1)"></image><image xlink:href="../../F36A6F62-F7B3-45ED-9907-0EDA78A152D7/assets/A1BDC2748FE4CF74B1DD2954BA710F9C.png" width="88.00" height="94.00" transform="matrix(0.40, 0.00, -0.00, 0.40, 1814.4, 922.3)"></image><image xlink:href="../../F36A6F62-F7B3-45ED-9907-0EDA78A152D7/assets/6BF1096C48344CCCB40187B16D25AA02.png" width="160.00" height="138.00" transform="matrix(0.40, 0.00, -0.00, 0.40, 1756.2, 1010.1)"></image><image xlink:href="../../F36A6F62-F7B3-45ED-9907-0EDA78A152D7/assets/C959DDAC340CD58CE7EAA9342B44783F.png" width="160.00" height="138.00" transform="matrix(0.40, 0.00, -0.00, 0.40, 1843.6, 1010.1)"></image><image xlink:href="../../F36A6F62-F7B3-45ED-9907-0EDA78A152D7/assets/A78A315689918EC4EA76FB93CFCF6B0C.png" width="434.00" height="173.00" transform="matrix(0.40, 0.00, -0.00, 0.40, 1744.5, 1009.6)"></image><image xlink:href="../../A7482197-03EF-4231-B37E-3A53DC93D8C8/assets/CB3C3451F24C657D5E4A184C6B852420.png" width="35.00" height="91.00" transform="matrix(0.40, 0.00, -0.00, 0.40, 1785.3, 835.8)"></image><image xlink:href="../../F36A6F62-F7B3-45ED-9907-0EDA78A152D7/assets/26D63AB0A3D55BB2EC547125617D0F43.png" width="154.00" height="154.00" transform="matrix(0.40, 0.00, -0.00, 0.40, 1495.3, 954.7)"></image></g></g><g><clipPath id="clip0x7fd421838030"><path d="M 1499.0 1016.1 L 1554.0 1016.1 C 1554.9 1016.1 1555.6 1015.4 1555.6 1014.5 L 1555.6 959.5 C 1555.6 958.6 1554.9 957.9 1554.0 957.9 L 1499.0 957.9 C 1498.1 957.9 1497.4 958.6 1497.4 959.5 L 1497.4 1014.5 C 1497.4 1015.4 1498.1 1016.1 1499.0 1016.1 Z M 1499.0 1016.1 "></path></clipPath><g clip-path="url(#clip0x7fd421838030)"><g><clipPath id="clip0x7fd421839df0"><path d="M 1465.0 780.0 L 1920.0 780.0 L 1920.0 1080.0 L 1465.0 1080.0 Z M 1465.0 780.0 "></path></clipPath><g clip-path="url(#clip0x7fd421839df0)"><path d="M 1465.0 780.0 L 1920.0 780.0 L 1920.0 1080.0 L 1465.0 1080.0 Z M 1465.0 780.0 " fill="url(#gradSh3.274)"></path></g></g></g></g><g><clipPath id="clip0x7fd42188b050"><path d="M 1465.0 780.0 L 1920.0 780.0 L 1920.0 1080.0 L 1465.0 1080.0 Z M 1465.0 780.0 "></path></clipPath><g clip-path="url(#clip0x7fd42188b050)"><path d="M 130.0 997.0 L 266.0 997.0 C 268.2 997.0 270.0 998.8 270.0 1001.0 L 270.0 1137.0 C 270.0 1139.2 268.2 1141.0 266.0 1141.0 L 130.0 1141.0 C 127.8 1141.0 126.0 1139.2 126.0 1137.0 L 126.0 1001.0 C 126.0 998.8 127.8 997.0 130.0 997.0 Z M 130.0 997.0 " fill="none" stroke="#A9A9A9" stroke-width="2.00" stroke-linecap="round" stroke-linejoin="round" transform="matrix(0.40, 0.00, 0.00, -0.40, 1446.4, 1419.2)"></path><text xml:space="preserve" font-family="Helvetica,Helvetica" font-size="24.0" fill="#5E5E5E" transform="matrix(0.40, 0.00, -0.00, -0.40, 1520.3, 983.4)">i</text><text xml:space="preserve" font-family="Helvetica,Helvetica" font-size="24.0" fill="#5E5E5E" transform="matrix(0.40, 0.00, -0.00, -0.40, 1522.4, 983.4)">n</text><text xml:space="preserve" font-family="Helvetica,Helvetica" font-size="24.0" fill="#5E5E5E" transform="matrix(0.40, 0.00, -0.00, -0.40, 1527.8, 983.4)">i</text><text xml:space="preserve" font-family="Helvetica,Helvetica" font-size="24.0" fill="#5E5E5E" transform="matrix(0.40, 0.00, -0.00, -0.40, 1530.0, 983.4)">t</text><image xlink:href="../../F36A6F62-F7B3-45ED-9907-0EDA78A152D7/assets/26D63AB0A3D55BB2EC547125617D0F43.png" width="154.00" height="154.00" transform="matrix(0.40, 0.00, -0.00, 0.40, 1670.1, 954.7)"></image></g></g><g><clipPath id="clip0x7fd421aa94c0"><path d="M 1673.7 1016.1 L 1728.7 1016.1 C 1729.6 1016.1 1730.3 1015.4 1730.3 1014.5 L 1730.3 959.5 C 1730.3 958.6 1729.6 957.9 1728.7 957.9 L 1673.7 957.9 C 1672.8 957.9 1672.1 958.6 1672.1 959.5 L 1672.1 1014.5 C 1672.1 1015.4 1672.8 1016.1 1673.7 1016.1 Z M 1673.7 1016.1 "></path></clipPath><g clip-path="url(#clip0x7fd421aa94c0)"><g><clipPath id="clip0x7fd421aaa3c0"><path d="M 1465.0 780.0 L 1920.0 780.0 L 1920.0 1080.0 L 1465.0 1080.0 Z M 1465.0 780.0 "></path></clipPath><g clip-path="url(#clip0x7fd421aaa3c0)"><path d="M 1465.0 780.0 L 1920.0 780.0 L 1920.0 1080.0 L 1465.0 1080.0 Z M 1465.0 780.0 " fill="url(#gradSh4.275)"></path></g></g></g></g><g><clipPath id="clip0x7fd421afbee0"><path d="M 1465.0 780.0 L 1920.0 780.0 L 1920.0 1080.0 L 1465.0 1080.0 Z M 1465.0 780.0 "></path></clipPath><g clip-path="url(#clip0x7fd421afbee0)"><path d="M 562.0 997.0 L 698.0 997.0 C 700.2 997.0 702.0 998.8 702.0 1001.0 L 702.0 1137.0 C 702.0 1139.2 700.2 1141.0 698.0 1141.0 L 562.0 1141.0 C 559.8 1141.0 558.0 1139.2 558.0 1137.0 L 558.0 1001.0 C 558.0 998.8 559.8 997.0 562.0 997.0 Z M 562.0 997.0 " fill="none" stroke="#A9A9A9" stroke-width="2.00" stroke-linecap="round" stroke-linejoin="round" transform="matrix(0.40, 0.00, 0.00, -0.40, 1446.4, 1419.2)"></path><text xml:space="preserve" font-family="Helvetica,Helvetica" font-size="24.0" fill="#5E5E5E" transform="matrix(0.40, 0.00, -0.00, -0.40, 1677.4, 983.4)">h</text><text xml:space="preserve" font-family="Helvetica,Helvetica" font-size="24.0" fill="#5E5E5E" transform="matrix(0.40, 0.00, -0.00, -0.40, 1682.8, 983.4)">a</text><text xml:space="preserve" font-family="Helvetica,Helvetica" font-size="24.0" fill="#5E5E5E" transform="matrix(0.40, 0.00, -0.00, -0.40, 1688.2, 983.4)">n</text><text xml:space="preserve" font-family="Helvetica,Helvetica" font-size="24.0" fill="#5E5E5E" transform="matrix(0.40, 0.00, -0.00, -0.40, 1693.6, 983.4)">d</text><text xml:space="preserve" font-family="Helvetica,Helvetica" font-size="24.0" fill="#5E5E5E" transform="matrix(0.40, 0.00, -0.00, -0.40, 1699.0, 983.4)">s</text><text xml:space="preserve" font-family="Helvetica,Helvetica" font-size="24.0" fill="#5E5E5E" transform="matrix(0.40, 0.00, -0.00, -0.40, 1703.9, 983.4)">h</text><text xml:space="preserve" font-family="Helvetica,Helvetica" font-size="24.0" fill="#5E5E5E" transform="matrix(0.40, 0.00, -0.00, -0.40, 1709.3, 983.4)">a</text><text xml:space="preserve" font-family="Helvetica,Helvetica" font-size="24.0" fill="#5E5E5E" transform="matrix(0.40, 0.00, -0.00, -0.40, 1714.7, 983.4)">k</text><text xml:space="preserve" font-family="Helvetica,Helvetica" font-size="24.0" fill="#5E5E5E" transform="matrix(0.40, 0.00, -0.00, -0.40, 1719.6, 983.4)">e</text><image xlink:href="../../F36A6F62-F7B3-45ED-9907-0EDA78A152D7/assets/26D63AB0A3D55BB2EC547125617D0F43.png" width="154.00" height="154.00" transform="matrix(0.40, 0.00, -0.00, 0.40, 1757.4, 954.7)"></image></g></g><g><clipPath id="clip0x7fd421caa020"><path d="M 1761.1 1016.1 L 1816.1 1016.1 C 1817.0 1016.1 1817.7 1015.4 1817.7 1014.5 L 1817.7 959.5 C 1817.7 958.6 1817.0 957.9 1816.1 957.9 L 1761.1 957.9 C 1760.2 957.9 1759.4 958.6 1759.4 959.5 L 1759.4 1014.5 C 1759.4 1015.4 1760.2 1016.1 1761.1 1016.1 Z M 1761.1 1016.1 "></path></clipPath><g clip-path="url(#clip0x7fd421caa020)"><g><clipPath id="clip0x7fd421caaad0"><path d="M 1465.0 780.0 L 1920.0 780.0 L 1920.0 1080.0 L 1465.0 1080.0 Z M 1465.0 780.0 "></path></clipPath><g clip-path="url(#clip0x7fd421caaad0)"><path d="M 1465.0 780.0 L 1920.0 780.0 L 1920.0 1080.0 L 1465.0 1080.0 Z M 1465.0 780.0 " fill="url(#gradSh5.276)"></path></g></g></g></g><g><clipPath id="clip0x7fd421e00750"><path d="M 1465.0 780.0 L 1920.0 780.0 L 1920.0 1080.0 L 1465.0 1080.0 Z M 1465.0 780.0 "></path></clipPath><g clip-path="url(#clip0x7fd421e00750)"><path d="M 778.0 997.0 L 914.0 997.0 C 916.2 997.0 918.0 998.8 918.0 1001.0 L 918.0 1137.0 C 918.0 1139.2 916.2 1141.0 914.0 1141.0 L 778.0 1141.0 C 775.8 1141.0 774.0 1139.2 774.0 1137.0 L 774.0 1001.0 C 774.0 998.8 775.8 997.0 778.0 997.0 Z M 778.0 997.0 " fill="none" stroke="#A9A9A9" stroke-width="2.00" stroke-linecap="round" stroke-linejoin="round" transform="matrix(0.40, 0.00, 0.00, -0.40, 1446.4, 1419.2)"></path><text xml:space="preserve" font-family="Helvetica,Helvetica" font-size="24.0" fill="#5E5E5E" transform="matrix(0.40, 0.00, -0.00, -0.40, 1766.2, 983.4)">c</text><text xml:space="preserve" font-family="Helvetica,Helvetica" font-size="24.0" fill="#5E5E5E" transform="matrix(0.40, 0.00, -0.00, -0.40, 1771.0, 983.4)">o</text><text xml:space="preserve" font-family="Helvetica,Helvetica" font-size="24.0" fill="#5E5E5E" transform="matrix(0.40, 0.00, -0.00, -0.40, 1776.4, 983.4)">n</text><text xml:space="preserve" font-family="Helvetica,Helvetica" font-size="24.0" fill="#5E5E5E" transform="matrix(0.40, 0.00, -0.00, -0.40, 1781.8, 983.4)">n</text><text xml:space="preserve" font-family="Helvetica,Helvetica" font-size="24.0" fill="#5E5E5E" transform="matrix(0.40, 0.00, -0.00, -0.40, 1787.2, 983.4)">e</text><text xml:space="preserve" font-family="Helvetica,Helvetica" font-size="24.0" fill="#5E5E5E" transform="matrix(0.40, 0.00, -0.00, -0.40, 1792.6, 983.4)">c</text><text xml:space="preserve" font-family="Helvetica,Helvetica" font-size="24.0" fill="#5E5E5E" transform="matrix(0.40, 0.00, -0.00, -0.40, 1797.5, 983.4)">t</text><text xml:space="preserve" font-family="Helvetica,Helvetica" font-size="24.0" fill="#5E5E5E" transform="matrix(0.40, 0.00, -0.00, -0.40, 1800.2, 983.4)">e</text><text xml:space="preserve" font-family="Helvetica,Helvetica" font-size="24.0" fill="#5E5E5E" transform="matrix(0.40, 0.00, -0.00, -0.40, 1805.6, 983.4)">d</text><image xlink:href="../../F36A6F62-F7B3-45ED-9907-0EDA78A152D7/assets/26D63AB0A3D55BB2EC547125617D0F43.png" width="154.00" height="154.00" transform="matrix(0.40, 0.00, -0.00, 0.40, 1844.8, 954.7)"></image></g></g><g><clipPath id="clip0x7fd421e05ef0"><path d="M 1848.4 1016.1 L 1903.4 1016.1 C 1904.3 1016.1 1905.0 1015.4 1905.0 1014.5 L 1905.0 959.5 C 1905.0 958.6 1904.3 957.9 1903.4 957.9 L 1848.4 957.9 C 1847.5 957.9 1846.8 958.6 1846.8 959.5 L 1846.8 1014.5 C 1846.8 1015.4 1847.5 1016.1 1848.4 1016.1 Z M 1848.4 1016.1 "></path></clipPath><g clip-path="url(#clip0x7fd421e05ef0)"><g><clipPath id="clip0x7fd421e06750"><path d="M 1465.0 780.0 L 1920.0 780.0 L 1920.0 1080.0 L 1465.0 1080.0 Z M 1465.0 780.0 "></path></clipPath><g clip-path="url(#clip0x7fd421e06750)"><path d="M 1465.0 780.0 L 1920.0 780.0 L 1920.0 1080.0 L 1465.0 1080.0 Z M 1465.0 780.0 " fill="url(#gradSh6.277)"></path></g></g></g></g><g><clipPath id="clip0x7fd421e59220"><path d="M 1465.0 780.0 L 1920.0 780.0 L 1920.0 1080.0 L 1465.0 1080.0 Z M 1465.0 780.0 "></path></clipPath><g clip-path="url(#clip0x7fd421e59220)"><path d="M 994.0 997.0 L 1130.0 997.0 C 1132.2 997.0 1134.0 998.8 1134.0 1001.0 L 1134.0 1137.0 C 1134.0 1139.2 1132.2 1141.0 1130.0 1141.0 L 994.0 1141.0 C 991.8 1141.0 990.0 1139.2 990.0 1137.0 L 990.0 1001.0 C 990.0 998.8 991.8 997.0 994.0 997.0 Z M 994.0 997.0 " fill="none" stroke="#A9A9A9" stroke-width="2.00" stroke-linecap="round" stroke-linejoin="round" transform="matrix(0.40, 0.00, 0.00, -0.40, 1446.4, 1419.2)"></path><text xml:space="preserve" font-family="Helvetica,Helvetica" font-size="22.0" fill="#5E5E5E" transform="matrix(0.40, 0.00, -0.00, -0.40, 1851.9, 983.6)">c</text><text xml:space="preserve" font-family="Helvetica,Helvetica" font-size="22.0" fill="#5E5E5E" transform="matrix(0.40, 0.00, -0.00, -0.40, 1856.4, 983.6)">o</text><text xml:space="preserve" font-family="Helvetica,Helvetica" font-size="22.0" fill="#5E5E5E" transform="matrix(0.40, 0.00, -0.00, -0.40, 1861.3, 983.6)">n</text><text xml:space="preserve" font-family="Helvetica,Helvetica" font-size="22.0" fill="#5E5E5E" transform="matrix(0.40, 0.00, -0.00, -0.40, 1866.3, 983.6)">t</text><text xml:space="preserve" font-family="Helvetica,Helvetica" font-size="22.0" fill="#5E5E5E" transform="matrix(0.40, 0.00, -0.00, -0.40, 1868.7, 983.6)">i</text><text xml:space="preserve" font-family="Helvetica,Helvetica" font-size="22.0" fill="#5E5E5E" transform="matrix(0.40, 0.00, -0.00, -0.40, 1870.7, 983.6)">n</text><text xml:space="preserve" font-family="Helvetica,Helvetica" font-size="22.0" fill="#5E5E5E" transform="matrix(0.40, 0.00, -0.00, -0.40, 1875.7, 983.6)">u</text><text xml:space="preserve" font-family="Helvetica,Helvetica" font-size="22.0" fill="#5E5E5E" transform="matrix(0.40, 0.00, -0.00, -0.40, 1880.6, 983.6)">a</text><text xml:space="preserve" font-family="Helvetica,Helvetica" font-size="22.0" fill="#5E5E5E" transform="matrix(0.40, 0.00, -0.00, -0.40, 1885.6, 983.6)">t</text><text xml:space="preserve" font-family="Helvetica,Helvetica" font-size="22.0" fill="#5E5E5E" transform="matrix(0.40, 0.00, -0.00, -0.40, 1888.0, 983.6)">i</text><text xml:space="preserve" font-family="Helvetica,Helvetica" font-size="22.0" fill="#5E5E5E" transform="matrix(0.40, 0.00, -0.00, -0.40, 1890.0, 983.6)">o</text><text xml:space="preserve" font-family="Helvetica,Helvetica" font-size="22.0" fill="#5E5E5E" transform="matrix(0.40, 0.00, -0.00, -0.40, 1895.0, 983.6)">n</text><image xlink:href="../../F36A6F62-F7B3-45ED-9907-0EDA78A152D7/assets/26D63AB0A3D55BB2EC547125617D0F43.png" width="154.00" height="154.00" transform="matrix(0.40, 0.00, -0.00, 0.40, 1757.4, 867.3)"></image></g></g><g><clipPath id="clip0x7fd421e5fdb0"><path d="M 1761.1 928.8 L 1816.1 928.8 C 1817.0 928.8 1817.7 928.1 1817.7 927.2 L 1817.7 872.2 C 1817.7 871.3 1817.0 870.6 1816.1 870.6 L 1761.1 870.6 C 1760.2 870.6 1759.4 871.3 1759.4 872.2 L 1759.4 927.2 C 1759.4 928.1 1760.2 928.8 1761.1 928.8 Z M 1761.1 928.8 "></path></clipPath><g clip-path="url(#clip0x7fd421e5fdb0)"><g><clipPath id="clip0x7fd421e60630"><path d="M 1465.0 780.0 L 1920.0 780.0 L 1920.0 1080.0 L 1465.0 1080.0 Z M 1465.0 780.0 "></path></clipPath><g clip-path="url(#clip0x7fd421e60630)"><path d="M 1465.0 780.0 L 1920.0 780.0 L 1920.0 1080.0 L 1465.0 1080.0 Z M 1465.0 780.0 " fill="url(#gradSh7.278)"></path></g></g></g></g><g><clipPath id="clip0x7fd421eb30a0"><path d="M 1465.0 780.0 L 1920.0 780.0 L 1920.0 1080.0 L 1465.0 1080.0 Z M 1465.0 780.0 "></path></clipPath><g clip-path="url(#clip0x7fd421eb30a0)"><path d="M 778.0 1213.0 L 914.0 1213.0 C 916.2 1213.0 918.0 1214.8 918.0 1217.0 L 918.0 1353.0 C 918.0 1355.2 916.2 1357.0 914.0 1357.0 L 778.0 1357.0 C 775.8 1357.0 774.0 1355.2 774.0 1353.0 L 774.0 1217.0 C 774.0 1214.8 775.8 1213.0 778.0 1213.0 Z M 778.0 1213.0 " fill="none" stroke="#A9A9A9" stroke-width="2.00" stroke-linecap="round" stroke-linejoin="round" transform="matrix(0.40, 0.00, 0.00, -0.40, 1446.4, 1419.2)"></path><text xml:space="preserve" font-family="Helvetica,Helvetica" font-size="24.0" fill="#5E5E5E" transform="matrix(0.40, 0.00, -0.00, -0.40, 1773.4, 896.1)">c</text><text xml:space="preserve" font-family="Helvetica,Helvetica" font-size="24.0" fill="#5E5E5E" transform="matrix(0.40, 0.00, -0.00, -0.40, 1778.3, 896.1)">l</text><text xml:space="preserve" font-family="Helvetica,Helvetica" font-size="24.0" fill="#5E5E5E" transform="matrix(0.40, 0.00, -0.00, -0.40, 1780.5, 896.1)">o</text><text xml:space="preserve" font-family="Helvetica,Helvetica" font-size="24.0" fill="#5E5E5E" transform="matrix(0.40, 0.00, -0.00, -0.40, 1785.9, 896.1)">s</text><text xml:space="preserve" font-family="Helvetica,Helvetica" font-size="24.0" fill="#5E5E5E" transform="matrix(0.40, 0.00, -0.00, -0.40, 1790.7, 896.1)">i</text><text xml:space="preserve" font-family="Helvetica,Helvetica" font-size="24.0" fill="#5E5E5E" transform="matrix(0.40, 0.00, -0.00, -0.40, 1792.9, 896.1)">n</text><text xml:space="preserve" font-family="Helvetica,Helvetica" font-size="24.0" fill="#5E5E5E" transform="matrix(0.40, 0.00, -0.00, -0.40, 1798.3, 896.1)">g</text><path d="M 54.0 1069.0 L 106.1 1069.0 " fill="none" stroke="#000000" stroke-width="4.00" stroke-linecap="round" stroke-linejoin="round" transform="matrix(0.40, 0.00, 0.00, -0.40, 1446.4, 1419.2)"></path><path d="M 1494.5 987.0 L 1489.3 988.9 L 1489.3 985.1 Z M 1494.5 987.0 " fill="#000000"></path><path d="M 118.9 1069.0 L 106.1 1064.2 L 106.1 1073.8 Z M 118.9 1069.0 " fill="none" stroke="#000000" stroke-width="4.00" transform="matrix(0.40, 0.00, 0.00, -0.40, 1446.4, 1419.2)"></path><path d="M 271.0 1070.1 L 322.1 1070.7 " fill="none" stroke="#000000" stroke-width="4.00" stroke-linecap="round" stroke-linejoin="round" transform="matrix(0.40, 0.00, 0.00, -0.40, 1446.4, 1419.2)"></path><path d="M 1581.8 986.3 L 1576.7 988.3 L 1576.6 984.4 Z M 1581.8 986.3 " fill="#000000"></path><path d="M 334.9 1070.8 L 322.2 1065.9 L 322.0 1075.5 Z M 334.9 1070.8 " fill="none" stroke="#000000" stroke-width="4.00" transform="matrix(0.40, 0.00, 0.00, -0.40, 1446.4, 1419.2)"></path><path d="M 487.0 1070.5 L 538.1 1070.2 " fill="none" stroke="#000000" stroke-width="4.00" stroke-linecap="round" stroke-linejoin="round" transform="matrix(0.40, 0.00, 0.00, -0.40, 1446.4, 1419.2)"></path><path d="M 1669.2 986.5 L 1664.0 988.5 L 1664.0 984.6 Z M 1669.2 986.5 " fill="#000000"></path><path d="M 550.9 1070.1 L 538.1 1065.4 L 538.1 1075.0 Z M 550.9 1070.1 " fill="none" stroke="#000000" stroke-width="4.00" transform="matrix(0.40, 0.00, 0.00, -0.40, 1446.4, 1419.2)"></path><path d="M 703.0 1069.0 L 754.1 1069.0 " fill="none" stroke="#000000" stroke-width="4.00" stroke-linecap="round" stroke-linejoin="round" transform="matrix(0.40, 0.00, 0.00, -0.40, 1446.4, 1419.2)"></path><path d="M 1756.6 987.0 L 1751.4 988.9 L 1751.4 985.1 Z M 1756.6 987.0 " fill="#000000"></path><path d="M 766.9 1069.0 L 754.1 1064.2 L 754.1 1073.8 Z M 766.9 1069.0 " fill="none" stroke="#000000" stroke-width="4.00" transform="matrix(0.40, 0.00, 0.00, -0.40, 1446.4, 1419.2)"></path><path d="M 919.0 1069.3 L 971.1 1069.4 " fill="none" stroke="#000000" stroke-width="4.00" stroke-linecap="round" stroke-linejoin="round" transform="matrix(0.40, 0.00, 0.00, -0.40, 1446.4, 1419.2)"></path><path d="M 1844.3 986.9 L 1839.2 988.8 L 1839.2 984.9 Z M 1844.3 986.9 " fill="#000000"></path><path d="M 983.9 1069.4 L 971.1 1064.6 L 971.1 1074.2 Z M 983.9 1069.4 " fill="none" stroke="#000000" stroke-width="4.00" transform="matrix(0.40, 0.00, 0.00, -0.40, 1446.4, 1419.2)"></path><path d="M 701.5 1140.9 L 761.1 1200.4 " fill="none" stroke="#000000" stroke-width="4.00" stroke-linecap="round" stroke-linejoin="round" transform="matrix(0.40, 0.00, 0.00, -0.40, 1446.4, 1419.2)"></path><path d="M 1757.9 930.2 L 1755.6 935.2 L 1752.8 932.5 Z M 1757.9 930.2 " fill="#000000"></path><path d="M 770.2 1209.5 L 764.5 1197.0 L 757.7 1203.8 Z M 770.2 1209.5 " fill="none" stroke="#000000" stroke-width="4.00" transform="matrix(0.40, 0.00, 0.00, -0.40, 1446.4, 1419.2)"></path><path d="M 846.0 1142.3 L 846.0 1193.4 " fill="none" stroke="#000000" stroke-width="4.00" stroke-linecap="round" stroke-linejoin="round" transform="matrix(0.40, 0.00, 0.00, -0.40, 1446.4, 1419.2)"></path><path d="M 1788.6 931.5 L 1790.5 936.7 L 1786.6 936.7 Z M 1788.6 931.5 " fill="#000000"></path><path d="M 846.0 1206.2 L 850.8 1193.4 L 841.2 1193.4 Z M 846.0 1206.2 " fill="none" stroke="#000000" stroke-width="4.00" transform="matrix(0.40, 0.00, 0.00, -0.40, 1446.4, 1419.2)"></path><path d="M 990.5 1140.9 L 930.9 1200.4 " fill="none" stroke="#000000" stroke-width="4.00" stroke-linecap="round" stroke-linejoin="round" transform="matrix(0.40, 0.00, 0.00, -0.40, 1446.4, 1419.2)"></path><path d="M 1819.2 930.2 L 1824.3 932.5 L 1821.5 935.2 Z M 1819.2 930.2 " fill="#000000"></path><path d="M 921.9 1209.5 L 934.3 1203.8 L 927.5 1197.0 Z M 921.9 1209.5 " fill="none" stroke="#000000" stroke-width="4.00" transform="matrix(0.40, 0.00, 0.00, -0.40, 1446.4, 1419.2)"></path><path d="M 882.0 997.3 C 894.0 973.3 924.0 944.8 918.0 925.3 C 912.0 905.8 870.0 880.3 846.0 880.3 C 822.0 880.3 780.0 905.8 774.0 925.3 C 769.3 940.6 786.7 961.4 800.2 981.2 " fill="none" stroke="#000000" stroke-width="4.00" stroke-linecap="round" stroke-linejoin="round" transform="matrix(0.40, 0.00, 0.00, -0.40, 1446.4, 1419.2)"></path><path d="M 1772.7 1018.1 L 1771.7 1023.5 L 1768.4 1021.5 Z M 1772.7 1018.1 " fill="#000000"></path><path d="M 806.8 992.1 L 804.3 978.7 L 796.1 983.7 Z M 806.8 992.1 " fill="none" stroke="#000000" stroke-width="4.00" transform="matrix(0.40, 0.00, 0.00, -0.40, 1446.4, 1419.2)"></path><path d="M 1098.8 997.3 C 1110.8 973.3 1140.8 944.8 1134.8 925.3 C 1128.8 905.8 1086.8 880.3 1062.8 880.3 C 1038.8 880.3 996.8 905.8 990.8 925.3 C 986.1 940.6 1003.4 961.4 1017.0 981.2 " fill="none" stroke="#000000" stroke-width="4.00" stroke-linecap="round" stroke-linejoin="round" transform="matrix(0.40, 0.00, 0.00, -0.40, 1446.4, 1419.2)"></path><path d="M 1860.4 1018.1 L 1859.4 1023.5 L 1856.0 1021.5 Z M 1860.4 1018.1 " fill="#000000"></path><path d="M 1023.6 992.1 L 1021.1 978.7 L 1012.9 983.7 Z M 1023.6 992.1 " fill="none" stroke="#000000" stroke-width="4.00" transform="matrix(0.40, 0.00, 0.00, -0.40, 1446.4, 1419.2)"></path><path d="M 1132.8 998.5 C 1142.2 971.1 1172.8 940.5 1161.0 916.3 C 1149.2 892.1 1114.5 863.8 1062.0 853.3 C 1009.5 842.8 898.5 844.3 846.0 853.3 C 793.5 862.3 758.9 883.3 747.0 907.3 C 737.4 926.8 755.6 954.3 767.8 980.0 " fill="none" stroke="#000000" stroke-width="4.00" stroke-linecap="round" stroke-linejoin="round" transform="matrix(0.40, 0.00, 0.00, -0.40, 1446.4, 1419.2)"></path><path d="M 1758.9 1018.2 L 1758.7 1023.7 L 1755.1 1022.3 Z M 1758.9 1018.2 " fill="#000000"></path><path d="M 772.6 991.9 L 772.2 978.2 L 763.3 981.8 Z M 772.6 991.9 " fill="none" stroke="#000000" stroke-width="4.00" transform="matrix(0.40, 0.00, 0.00, -0.40, 1446.4, 1419.2)"></path><image xlink:href="../../F36A6F62-F7B3-45ED-9907-0EDA78A152D7/assets/26D63AB0A3D55BB2EC547125617D0F43.png" width="154.00" height="154.00" transform="matrix(0.40, 0.00, -0.00, 0.40, 1757.4, 780.0)"></image></g></g><g><clipPath id="clip0x7fd421b765d0"><path d="M 1761.1 841.5 L 1816.1 841.5 C 1817.0 841.5 1817.7 840.7 1817.7 839.8 L 1817.7 784.9 C 1817.7 784.0 1817.0 783.2 1816.1 783.2 L 1761.1 783.2 C 1760.2 783.2 1759.4 784.0 1759.4 784.9 L 1759.4 839.8 C 1759.4 840.7 1760.2 841.5 1761.1 841.5 Z M 1761.1 841.5 "></path></clipPath><g clip-path="url(#clip0x7fd421b765d0)"><g><clipPath id="clip0x7fd421b77620"><path d="M 1465.0 780.0 L 1920.0 780.0 L 1920.0 1080.0 L 1465.0 1080.0 Z M 1465.0 780.0 "></path></clipPath><g clip-path="url(#clip0x7fd421b77620)"><path d="M 1465.0 780.0 L 1920.0 780.0 L 1920.0 1080.0 L 1465.0 1080.0 Z M 1465.0 780.0 " fill="url(#gradSh8.279)"></path></g></g></g></g><g><clipPath id="clip0x7fd421bc9140"><path d="M 1465.0 780.0 L 1920.0 780.0 L 1920.0 1080.0 L 1465.0 1080.0 Z M 1465.0 780.0 "></path></clipPath><g clip-path="url(#clip0x7fd421bc9140)"><path d="M 778.0 1429.0 L 914.0 1429.0 C 916.2 1429.0 918.0 1430.8 918.0 1433.0 L 918.0 1569.0 C 918.0 1571.2 916.2 1573.0 914.0 1573.0 L 778.0 1573.0 C 775.8 1573.0 774.0 1571.2 774.0 1569.0 L 774.0 1433.0 C 774.0 1430.8 775.8 1429.0 778.0 1429.0 Z M 778.0 1429.0 " fill="none" stroke="#A9A9A9" stroke-width="2.00" stroke-linecap="round" stroke-linejoin="round" transform="matrix(0.40, 0.00, 0.00, -0.40, 1446.4, 1419.2)"></path><text xml:space="preserve" font-family="Helvetica,Helvetica" font-size="24.0" fill="#5E5E5E" transform="matrix(0.40, 0.00, -0.00, -0.40, 1768.3, 808.8)">t</text><text xml:space="preserve" font-family="Helvetica,Helvetica" font-size="24.0" fill="#5E5E5E" transform="matrix(0.40, 0.00, -0.00, -0.40, 1771.0, 808.8)">e</text><text xml:space="preserve" font-family="Helvetica,Helvetica" font-size="24.0" fill="#5E5E5E" transform="matrix(0.40, 0.00, -0.00, -0.40, 1776.4, 808.8)">r</text><text xml:space="preserve" font-family="Helvetica,Helvetica" font-size="24.0" fill="#5E5E5E" transform="matrix(0.40, 0.00, -0.00, -0.40, 1779.7, 808.8)">m</text><text xml:space="preserve" font-family="Helvetica,Helvetica" font-size="24.0" fill="#5E5E5E" transform="matrix(0.40, 0.00, -0.00, -0.40, 1787.7, 808.8)">i</text><text xml:space="preserve" font-family="Helvetica,Helvetica" font-size="24.0" fill="#5E5E5E" transform="matrix(0.40, 0.00, -0.00, -0.40, 1789.9, 808.8)">n</text><text xml:space="preserve" font-family="Helvetica,Helvetica" font-size="24.0" fill="#5E5E5E" transform="matrix(0.40, 0.00, -0.00, -0.40, 1795.3, 808.8)">a</text><text xml:space="preserve" font-family="Helvetica,Helvetica" font-size="24.0" fill="#5E5E5E" transform="matrix(0.40, 0.00, -0.00, -0.40, 1800.7, 808.8)">t</text><text xml:space="preserve" font-family="Helvetica,Helvetica" font-size="24.0" fill="#5E5E5E" transform="matrix(0.40, 0.00, -0.00, -0.40, 1803.4, 808.8)">e</text><path d="M 846.0 1358.3 L 846.0 1409.4 " fill="none" stroke="#000000" stroke-width="4.00" stroke-linecap="round" stroke-linejoin="round" transform="matrix(0.40, 0.00, 0.00, -0.40, 1446.4, 1419.2)"></path><path d="M 1788.6 844.2 L 1790.5 849.4 L 1786.6 849.4 Z M 1788.6 844.2 " fill="#000000"></path><path d="M 846.0 1422.2 L 850.8 1409.4 L 841.2 1409.4 Z M 846.0 1422.2 " fill="none" stroke="#000000" stroke-width="4.00" transform="matrix(0.40, 0.00, 0.00, -0.40, 1446.4, 1419.2)"></path><image xlink:href="../../F36A6F62-F7B3-45ED-9907-0EDA78A152D7/assets/26D63AB0A3D55BB2EC547125617D0F43.png" width="154.00" height="154.00" transform="matrix(0.40, 0.00, -0.00, 0.40, 1582.7, 954.3)"></image></g></g><g><clipPath id="clip0x7fd42188fc00"><path d="M 1586.3 1015.3 L 1641.3 1015.3 C 1642.2 1015.3 1643.0 1014.6 1643.0 1013.7 L 1643.0 958.7 C 1643.0 957.8 1642.2 957.1 1641.3 957.1 L 1586.3 957.1 C 1585.4 957.1 1584.7 957.8 1584.7 958.7 L 1584.7 1013.7 C 1584.7 1014.6 1585.4 1015.3 1586.3 1015.3 Z M 1586.3 1015.3 "></path></clipPath><g clip-path="url(#clip0x7fd42188fc00)"><g><clipPath id="clip0x7fd421890090"><path d="M 1465.0 780.0 L 1920.0 780.0 L 1920.0 1080.0 L 1465.0 1080.0 Z M 1465.0 780.0 "></path></clipPath><g clip-path="url(#clip0x7fd421890090)"><path d="M 1465.0 780.0 L 1920.0 780.0 L 1920.0 1080.0 L 1465.0 1080.0 Z M 1465.0 780.0 " fill="url(#gradSh9.280)"></path></g></g></g></g><g><clipPath id="clip0x7fd4218e2970"><path d="M 1465.0 780.0 L 1920.0 780.0 L 1920.0 1080.0 L 1465.0 1080.0 Z M 1465.0 780.0 "></path></clipPath><g clip-path="url(#clip0x7fd4218e2970)"><path d="M 346.0 999.0 L 482.0 999.0 C 484.2 999.0 486.0 1000.8 486.0 1003.0 L 486.0 1139.0 C 486.0 1141.2 484.2 1143.0 482.0 1143.0 L 346.0 1143.0 C 343.8 1143.0 342.0 1141.2 342.0 1139.0 L 342.0 1003.0 C 342.0 1000.8 343.8 999.0 346.0 999.0 Z M 346.0 999.0 " fill="none" stroke="#AE653C" stroke-width="2.00" stroke-linecap="round" stroke-linejoin="round" transform="matrix(0.40, 0.00, 0.00, -0.40, 1446.4, 1419.2)"></path></g></g><image xlink:href="06B7BB7F24104F2DD81F79CAC8563AD9.png" width="35.00" height="14.00" transform="matrix(1.00, 0.00, -0.00, -1.00, 1596.0, 991.0)"></image><g><clipPath id="clip0x7fd421d067d0"><path d="M 1465.0 780.0 L 1920.0 780.0 L 1920.0 1080.0 L 1465.0 1080.0 Z M 1465.0 780.0 "></path></clipPath><g clip-path="url(#clip0x7fd421d067d0)"><text xml:space="preserve" font-family="Helvetica-Bold,Helvetica" font-weight="bold" font-size="24.0" fill="#FFFFFF" transform="matrix(0.40, 0.00, -0.00, -0.40, 1598.5, 982.8)">a</text><text xml:space="preserve" font-family="Helvetica-Bold,Helvetica" font-weight="bold" font-size="24.0" fill="#FFFFFF" transform="matrix(0.40, 0.00, -0.00, -0.40, 1603.9, 982.8)">c</text><text xml:space="preserve" font-family="Helvetica-Bold,Helvetica" font-weight="bold" font-size="24.0" fill="#FFFFFF" transform="matrix(0.40, 0.00, -0.00, -0.40, 1609.3, 982.8)">c</text><text xml:space="preserve" font-family="Helvetica-Bold,Helvetica" font-weight="bold" font-size="24.0" fill="#FFFFFF" transform="matrix(0.40, 0.00, -0.00, -0.40, 1614.7, 982.8)">e</text><text xml:space="preserve" font-family="Helvetica-Bold,Helvetica" font-weight="bold" font-size="24.0" fill="#FFFFFF" transform="matrix(0.40, 0.00, -0.00, -0.40, 1620.1, 982.8)">p</text><text xml:space="preserve" font-family="Helvetica-Bold,Helvetica" font-weight="bold" font-size="24.0" fill="#FFFFFF" transform="matrix(0.40, 0.00, -0.00, -0.40, 1626.0, 982.8)">t</text></g></g></g></svg>