<?xml version="1.0" encoding="UTF-8" standalone="no"?><svg xmlns="http://www.w3.org/2000/svg" xmlns:xlink="http://www.w3.org/1999/xlink" clip-rule="evenodd" stroke-miterlimit="10" viewBox="0 0 1920 1080"><desc>SVG generated by Keynote</desc><defs><linearGradient id="gradSh1.51" x1="-72.0" y1="0.0" x2="72.0" y2="0.0" gradientUnits="userSpaceOnUse" gradientTransform="matrix(0.00, -1.00, -1.00, 0.00, 322.0, 781.0)"><stop offset="0.00000" stop-color="#FF9D3A"></stop><stop offset="0.00806" stop-color="#FF9C3A"></stop><stop offset="0.48607" stop-color="#E6781F"></stop><stop offset="0.49120" stop-color="#E6771F"></stop><stop offset="0.77419" stop-color="#D8620F"></stop><stop offset="0.77786" stop-color="#D8610F"></stop><stop offset="0.91789" stop-color="#D05707"></stop><stop offset="0.92155" stop-color="#D05607"></stop><stop offset="0.98974" stop-color="#CD5103"></stop><stop offset="0.99707" stop-color="#CC5103"></stop><stop offset="1.00000" stop-color="#CC5003"></stop></linearGradient><linearGradient id="gradSh2.52" x1="-72.0" y1="0.0" x2="72.0" y2="0.0" gradientUnits="userSpaceOnUse" gradientTransform="matrix(0.00, -1.00, -1.00, 0.00, 322.0, 565.0)"><stop offset="0.00000" stop-color="#FF9D3A"></stop><stop offset="0.00806" stop-color="#FF9C3A"></stop><stop offset="0.48607" stop-color="#E6781F"></stop><stop offset="0.49120" stop-color="#E6771F"></stop><stop offset="0.77419" stop-color="#D8620F"></stop><stop offset="0.77786" stop-color="#D8610F"></stop><stop offset="0.91789" stop-color="#D05707"></stop><stop offset="0.92155" stop-color="#D05607"></stop><stop offset="0.98974" stop-color="#CD5103"></stop><stop offset="0.99707" stop-color="#CC5103"></stop><stop offset="1.00000" stop-color="#CC5003"></stop></linearGradient><linearGradient id="gradSh3.53" x1="-72.0" y1="0.0" x2="72.0" y2="0.0" gradientUnits="userSpaceOnUse" gradientTransform="matrix(0.00, -1.00, -1.00, 0.00, 322.0, 349.0)"><stop offset="0.00000" stop-color="#FF9D3A"></stop><stop offset="0.00806" stop-color="#FF9C3A"></stop><stop offset="0.48607" stop-color="#E6781F"></stop><stop offset="0.49120" stop-color="#E6771F"></stop><stop offset="0.77419" stop-color="#D8620F"></stop><stop offset="0.77786" stop-color="#D8610F"></stop><stop offset="0.91789" stop-color="#D05707"></stop><stop offset="0.92155" stop-color="#D05607"></stop><stop offset="0.98974" stop-color="#CD5103"></stop><stop offset="0.99707" stop-color="#CC5103"></stop><stop offset="1.00000" stop-color="#CC5003"></stop></linearGradient></defs><g transform="matrix(1.00, 0.00, -0.00, -1.00, 0.0, 1080.0)"><path d="M 0.0 1080.0 L 1920.0 1080.0 L 1920.0 0.0 L 0.0 0.0 Z M 0.0 1080.0 " fill="#FEFFFF"></path><g><clipPath id="clip0x7fd435f7e1d0"><path d="M 245.3 270.0 L 474.0 270.0 L 474.0 931.7 L 245.3 931.7 Z M 245.3 270.0 "></path></clipPath><g clip-path="url(#clip0x7fd435f7e1d0)"><image xlink:href="3AC0882468E8F1A7822833332FEE3F73.png" width="35.00" height="91.00" transform="matrix(1.00, 0.00, -0.00, 1.00, 314.0, 623.0)"></image><image xlink:href="../../F0CE256A-9D19-49D0-996A-BECC94AFDD7E/assets/3AC0882468E8F1A7822833332FEE3F73.png" width="35.00" height="91.00" transform="matrix(1.00, 0.00, -0.00, 1.00, 314.0, 407.0)"></image><image xlink:href="2F1C2239C37A99A4D1FD1E2C83FF014B.png" width="98.00" height="161.00" transform="matrix(1.00, 0.00, -0.00, 1.00, 375.0, 483.0)"></image><image xlink:href="32577B985ED7C0896CD7815739613A40.png" width="35.00" height="92.00" transform="matrix(1.00, 0.00, -0.00, 1.00, 314.0, 839.0)"></image><image xlink:href="C7797AC59157FBF684D36D2BBC53DA03.png" width="154.00" height="154.00" transform="matrix(1.00, 0.00, -0.00, 1.00, 245.0, 702.0)"></image></g></g><g><clipPath id="clip0x7fd435a97340"><path d="M 372.9 831.9 C 401.0 803.8 401.0 758.2 372.9 730.1 C 344.8 702.0 299.2 702.0 271.1 730.1 C 243.0 758.2 243.0 803.8 271.1 831.9 C 299.2 860.0 344.8 860.0 372.9 831.9 "></path></clipPath><g clip-path="url(#clip0x7fd435a97340)"><g><clipPath id="clip0x7fd435aa4a20"><path d="M 245.3 270.0 L 474.0 270.0 L 474.0 931.7 L 245.3 931.7 Z M 245.3 270.0 "></path></clipPath><g clip-path="url(#clip0x7fd435aa4a20)"><path d="M 245.3 270.0 L 474.0 270.0 L 474.0 931.7 L 245.3 931.7 Z M 245.3 270.0 " fill="url(#gradSh1.51)"></path></g></g></g></g><g><clipPath id="clip0x7fd4360050f0"><path d="M 245.3 270.0 L 474.0 270.0 L 474.0 931.7 L 245.3 931.7 Z M 245.3 270.0 "></path></clipPath><g clip-path="url(#clip0x7fd4360050f0)"><path d="M 266.9 165.1 C 295.0 193.2 295.0 238.8 266.9 266.9 C 238.8 295.0 193.2 295.0 165.1 266.9 C 137.0 238.8 137.0 193.2 165.1 165.1 C 193.2 137.0 238.8 137.0 266.9 165.1 " fill="none" stroke="#AE653C" stroke-width="2.00" stroke-linecap="round" stroke-linejoin="round" transform="matrix(1.00, 0.00, 0.00, -1.00, 106.0, 997.0)"></path></g></g><image xlink:href="AB1D10723C61109FA39345FF6B3AC086.png" width="45.00" height="28.00" transform="matrix(1.00, 0.00, -0.00, -1.00, 300.0, 794.0)"></image><g><clipPath id="clip0x7fd436006f20"><path d="M 245.3 270.0 L 474.0 270.0 L 474.0 931.7 L 245.3 931.7 Z M 245.3 270.0 "></path></clipPath><g clip-path="url(#clip0x7fd436006f20)"><text xml:space="preserve" font-family="Helvetica-Bold,Helvetica" font-weight="bold" font-size="25.0" fill="#FFFFFF" transform="matrix(1.00, 0.00, -0.00, -1.00, 303.3, 772.0)">i</text><text xml:space="preserve" font-family="Helvetica-Bold,Helvetica" font-weight="bold" font-size="25.0" fill="#FFFFFF" transform="matrix(1.00, 0.00, -0.00, -1.00, 310.2, 772.0)">n</text><text xml:space="preserve" font-family="Helvetica-Bold,Helvetica" font-weight="bold" font-size="25.0" fill="#FFFFFF" transform="matrix(1.00, 0.00, -0.00, -1.00, 325.5, 772.0)">i</text><text xml:space="preserve" font-family="Helvetica-Bold,Helvetica" font-weight="bold" font-size="25.0" fill="#FFFFFF" transform="matrix(1.00, 0.00, -0.00, -1.00, 332.4, 772.0)">t</text></g></g><g><clipPath id="clip0x7fd43600ab60"><path d="M 245.3 270.0 L 474.0 270.0 L 474.0 931.7 L 245.3 931.7 Z M 245.3 270.0 "></path></clipPath><g clip-path="url(#clip0x7fd43600ab60)"><image xlink:href="../../F0CE256A-9D19-49D0-996A-BECC94AFDD7E/assets/C7797AC59157FBF684D36D2BBC53DA03.png" width="154.00" height="154.00" transform="matrix(1.00, 0.00, -0.00, 1.00, 245.0, 486.0)"></image></g></g><g><clipPath id="clip0x7fd43600cf60"><path d="M 372.9 615.9 C 401.0 587.8 401.0 542.2 372.9 514.1 C 344.8 486.0 299.2 486.0 271.1 514.1 C 243.0 542.2 243.0 587.8 271.1 615.9 C 299.2 644.0 344.8 644.0 372.9 615.9 "></path></clipPath><g clip-path="url(#clip0x7fd43600cf60)"><g><clipPath id="clip0x7fd43600bec0"><path d="M 245.3 270.0 L 474.0 270.0 L 474.0 931.7 L 245.3 931.7 Z M 245.3 270.0 "></path></clipPath><g clip-path="url(#clip0x7fd43600bec0)"><path d="M 245.3 270.0 L 474.0 270.0 L 474.0 931.7 L 245.3 931.7 Z M 245.3 270.0 " fill="url(#gradSh2.52)"></path></g></g></g></g><g><clipPath id="clip0x7fd43605f5a0"><path d="M 245.3 270.0 L 474.0 270.0 L 474.0 931.7 L 245.3 931.7 Z M 245.3 270.0 "></path></clipPath><g clip-path="url(#clip0x7fd43605f5a0)"><path d="M 266.9 381.1 C 295.0 409.2 295.0 454.8 266.9 482.9 C 238.8 511.0 193.2 511.0 165.1 482.9 C 137.0 454.8 137.0 409.2 165.1 381.1 C 193.2 353.0 238.8 353.0 266.9 381.1 " fill="none" stroke="#AE653C" stroke-width="2.00" stroke-linecap="round" stroke-linejoin="round" transform="matrix(1.00, 0.00, 0.00, -1.00, 106.0, 997.0)"></path></g></g><image xlink:href="971F7069FD60C11B264D7795D2395144.png" width="98.00" height="33.00" transform="matrix(1.00, 0.00, -0.00, -1.00, 273.0, 578.0)"></image><g><clipPath id="clip0x7fd4351d48a0"><path d="M 245.3 270.0 L 474.0 270.0 L 474.0 931.7 L 245.3 931.7 Z M 245.3 270.0 "></path></clipPath><g clip-path="url(#clip0x7fd4351d48a0)"><text xml:space="preserve" font-family="Helvetica-Bold,Helvetica" font-weight="bold" font-size="25.0" fill="#FFFFFF" transform="matrix(1.00, 0.00, -0.00, -1.00, 275.5, 556.0)">r</text><text xml:space="preserve" font-family="Helvetica-Bold,Helvetica" font-weight="bold" font-size="25.0" fill="#FFFFFF" transform="matrix(1.00, 0.00, -0.00, -1.00, 285.2, 556.0)">u</text><text xml:space="preserve" font-family="Helvetica-Bold,Helvetica" font-weight="bold" font-size="25.0" fill="#FFFFFF" transform="matrix(1.00, 0.00, -0.00, -1.00, 300.5, 556.0)">n</text><text xml:space="preserve" font-family="Helvetica-Bold,Helvetica" font-weight="bold" font-size="25.0" fill="#FFFFFF" transform="matrix(1.00, 0.00, -0.00, -1.00, 315.8, 556.0)">n</text><text xml:space="preserve" font-family="Helvetica-Bold,Helvetica" font-weight="bold" font-size="25.0" fill="#FFFFFF" transform="matrix(1.00, 0.00, -0.00, -1.00, 331.0, 556.0)">i</text><text xml:space="preserve" font-family="Helvetica-Bold,Helvetica" font-weight="bold" font-size="25.0" fill="#FFFFFF" transform="matrix(1.00, 0.00, -0.00, -1.00, 338.0, 556.0)">n</text><text xml:space="preserve" font-family="Helvetica-Bold,Helvetica" font-weight="bold" font-size="25.0" fill="#FFFFFF" transform="matrix(1.00, 0.00, -0.00, -1.00, 353.3, 556.0)">g</text></g></g><g><clipPath id="clip0x7fd4351f9bb0"><path d="M 245.3 270.0 L 474.0 270.0 L 474.0 931.7 L 245.3 931.7 Z M 245.3 270.0 "></path></clipPath><g clip-path="url(#clip0x7fd4351f9bb0)"><image xlink:href="../../F0CE256A-9D19-49D0-996A-BECC94AFDD7E/assets/C7797AC59157FBF684D36D2BBC53DA03.png" width="154.00" height="154.00" transform="matrix(1.00, 0.00, -0.00, 1.00, 245.0, 270.0)"></image></g></g><g><clipPath id="clip0x7fd436061b30"><path d="M 372.9 399.9 C 401.0 371.8 401.0 326.2 372.9 298.1 C 344.8 270.0 299.2 270.0 271.1 298.1 C 243.0 326.2 243.0 371.8 271.1 399.9 C 299.2 428.0 344.8 428.0 372.9 399.9 "></path></clipPath><g clip-path="url(#clip0x7fd436061b30)"><g><clipPath id="clip0x7fd436062700"><path d="M 245.3 270.0 L 474.0 270.0 L 474.0 931.7 L 245.3 931.7 Z M 245.3 270.0 "></path></clipPath><g clip-path="url(#clip0x7fd436062700)"><path d="M 245.3 270.0 L 474.0 270.0 L 474.0 931.7 L 245.3 931.7 Z M 245.3 270.0 " fill="url(#gradSh3.53)"></path></g></g></g></g><g><clipPath id="clip0x7fd436109980"><path d="M 245.3 270.0 L 474.0 270.0 L 474.0 931.7 L 245.3 931.7 Z M 245.3 270.0 "></path></clipPath><g clip-path="url(#clip0x7fd436109980)"><path d="M 266.9 597.1 C 295.0 625.2 295.0 670.8 266.9 698.9 C 238.8 727.0 193.2 727.0 165.1 698.9 C 137.0 670.8 137.0 625.2 165.1 597.1 C 193.2 569.0 238.8 569.0 266.9 597.1 " fill="none" stroke="#AE653C" stroke-width="2.00" stroke-linecap="round" stroke-linejoin="round" transform="matrix(1.00, 0.00, 0.00, -1.00, 106.0, 997.0)"></path></g></g><image xlink:href="1E115C9007283D3C66226721A4B4F8D7.png" width="107.00" height="25.00" transform="matrix(1.00, 0.00, -0.00, -1.00, 268.0, 360.0)"></image><g><clipPath id="clip0x7fd435d99820"><path d="M 245.3 270.0 L 474.0 270.0 L 474.0 931.7 L 245.3 931.7 Z M 245.3 270.0 "></path></clipPath><g clip-path="url(#clip0x7fd435d99820)"><text xml:space="preserve" font-family="Helvetica-Bold,Helvetica" font-weight="bold" font-size="22.0" fill="#FFFFFF" transform="matrix(1.00, 0.00, -0.00, -1.00, 272.5, 341.0)">t</text><text xml:space="preserve" font-family="Helvetica-Bold,Helvetica" font-weight="bold" font-size="22.0" fill="#FFFFFF" transform="matrix(1.00, 0.00, -0.00, -1.00, 279.8, 341.0)">e</text><text xml:space="preserve" font-family="Helvetica-Bold,Helvetica" font-weight="bold" font-size="22.0" fill="#FFFFFF" transform="matrix(1.00, 0.00, -0.00, -1.00, 292.0, 341.0)">r</text><text xml:space="preserve" font-family="Helvetica-Bold,Helvetica" font-weight="bold" font-size="22.0" fill="#FFFFFF" transform="matrix(1.00, 0.00, -0.00, -1.00, 300.6, 341.0)">m</text><text xml:space="preserve" font-family="Helvetica-Bold,Helvetica" font-weight="bold" font-size="22.0" fill="#FFFFFF" transform="matrix(1.00, 0.00, -0.00, -1.00, 320.2, 341.0)">i</text><text xml:space="preserve" font-family="Helvetica-Bold,Helvetica" font-weight="bold" font-size="22.0" fill="#FFFFFF" transform="matrix(1.00, 0.00, -0.00, -1.00, 326.3, 341.0)">n</text><text xml:space="preserve" font-family="Helvetica-Bold,Helvetica" font-weight="bold" font-size="22.0" fill="#FFFFFF" transform="matrix(1.00, 0.00, -0.00, -1.00, 339.7, 341.0)">a</text><text xml:space="preserve" font-family="Helvetica-Bold,Helvetica" font-weight="bold" font-size="22.0" fill="#FFFFFF" transform="matrix(1.00, 0.00, -0.00, -1.00, 352.0, 341.0)">t</text><text xml:space="preserve" font-family="Helvetica-Bold,Helvetica" font-weight="bold" font-size="22.0" fill="#FFFFFF" transform="matrix(1.00, 0.00, -0.00, -1.00, 359.3, 341.0)">e</text></g></g><g><clipPath id="clip0x7fd435d9e580"><path d="M 245.3 270.0 L 474.0 270.0 L 474.0 931.7 L 245.3 931.7 Z M 245.3 270.0 "></path></clipPath><g clip-path="url(#clip0x7fd435d9e580)"><path d="M 216.0 340.1 L 216.0 289.0 " fill="none" stroke="#000000" stroke-width="4.00" stroke-linecap="round" stroke-linejoin="round" transform="matrix(1.00, 0.00, 0.00, -1.00, 106.0, 997.0)"></path><path d="M 322.0 644.1 L 326.8 656.9 L 317.2 656.9 Z M 322.0 644.1 " fill="#000000"></path><path d="M 216.0 352.9 L 220.8 340.1 L 211.2 340.1 Z M 216.0 352.9 " fill="none" stroke="#000000" stroke-width="4.00" transform="matrix(1.00, 0.00, 0.00, -1.00, 106.0, 997.0)"></path><path d="M 216.0 556.1 L 216.0 505.0 " fill="none" stroke="#000000" stroke-width="4.00" stroke-linecap="round" stroke-linejoin="round" transform="matrix(1.00, 0.00, 0.00, -1.00, 106.0, 997.0)"></path><path d="M 322.0 428.1 L 326.8 440.9 L 317.2 440.9 Z M 322.0 428.1 " fill="#000000"></path><path d="M 216.0 568.9 L 220.8 556.1 L 211.2 556.1 Z M 216.0 568.9 " fill="none" stroke="#000000" stroke-width="4.00" transform="matrix(1.00, 0.00, 0.00, -1.00, 106.0, 997.0)"></path><path d="M 291.0 484.9 C 302.5 496.3 314.2 508.8 324.0 504.0 C 337.9 497.3 360.0 456.0 360.0 432.0 C 360.0 408.0 337.9 366.7 324.0 360.0 C 310.1 353.3 292.5 381.0 276.8 391.5 " fill="none" stroke="#000000" stroke-width="4.00" stroke-linecap="round" stroke-linejoin="round" transform="matrix(1.00, 0.00, 0.00, -1.00, 106.0, 997.0)"></path><path d="M 387.3 520.5 L 393.8 508.5 L 400.1 515.7 Z M 387.3 520.5 " fill="#000000"></path><path d="M 281.3 476.5 L 287.8 488.5 L 294.1 481.3 Z M 281.3 476.5 " fill="none" stroke="#000000" stroke-width="4.00" transform="matrix(1.00, 0.00, 0.00, -1.00, 106.0, 997.0)"></path><path d="M 216.0 72.0 L 216.0 124.1 " fill="none" stroke="#000000" stroke-width="4.00" stroke-linecap="round" stroke-linejoin="round" transform="matrix(1.00, 0.00, 0.00, -1.00, 106.0, 997.0)"></path><path d="M 322.0 860.1 L 326.8 872.9 L 317.2 872.9 Z M 322.0 860.1 " fill="#000000"></path><path d="M 216.0 136.9 L 220.8 124.1 L 211.2 124.1 Z M 216.0 136.9 " fill="none" stroke="#000000" stroke-width="4.00" transform="matrix(1.00, 0.00, 0.00, -1.00, 106.0, 997.0)"></path></g></g><g><clipPath id="clip0x7fd435da43b0"><path d="M 196.7 139.8 L 522.8 139.8 L 522.8 224.8 L 196.7 224.8 Z M 196.7 139.8 "></path></clipPath><g clip-path="url(#clip0x7fd435da43b0)"><text xml:space="preserve" font-family="Courier-Bold,Courier" font-weight="bold" font-size="50.0" fill="#000000" transform="matrix(1.00, 0.00, -0.00, -1.00, 209.7, 164.6)">g</text><text xml:space="preserve" font-family="Courier-Bold,Courier" font-weight="bold" font-size="50.0" fill="#000000" transform="matrix(1.00, 0.00, -0.00, -1.00, 239.7, 164.6)">e</text><text xml:space="preserve" font-family="Courier-Bold,Courier" font-weight="bold" font-size="50.0" fill="#000000" transform="matrix(1.00, 0.00, -0.00, -1.00, 269.8, 164.6)">n</text><text xml:space="preserve" font-family="Courier-Bold,Courier" font-weight="bold" font-size="50.0" fill="#000000" transform="matrix(1.00, 0.00, -0.00, -1.00, 299.8, 164.6)">_</text><text xml:space="preserve" font-family="Courier-Bold,Courier" font-weight="bold" font-size="50.0" fill="#000000" transform="matrix(1.00, 0.00, -0.00, -1.00, 329.8, 164.6)">s</text><text xml:space="preserve" font-family="Courier-Bold,Courier" font-weight="bold" font-size="50.0" fill="#000000" transform="matrix(1.00, 0.00, -0.00, -1.00, 359.8, 164.6)">e</text><text xml:space="preserve" font-family="Courier-Bold,Courier" font-weight="bold" font-size="50.0" fill="#000000" transform="matrix(1.00, 0.00, -0.00, -1.00, 389.8, 164.6)">r</text><text xml:space="preserve" font-family="Courier-Bold,Courier" font-weight="bold" font-size="50.0" fill="#000000" transform="matrix(1.00, 0.00, -0.00, -1.00, 419.8, 164.6)">v</text><text xml:space="preserve" font-family="Courier-Bold,Courier" font-weight="bold" font-size="50.0" fill="#000000" transform="matrix(1.00, 0.00, -0.00, -1.00, 449.8, 164.6)">e</text><text xml:space="preserve" font-family="Courier-Bold,Courier" font-weight="bold" font-size="50.0" fill="#000000" transform="matrix(1.00, 0.00, -0.00, -1.00, 479.8, 164.6)">r</text></g></g></g></svg>