<?xml version="1.0" encoding="UTF-8" standalone="no"?><svg xmlns="http://www.w3.org/2000/svg" xmlns:xlink="http://www.w3.org/1999/xlink" clip-rule="evenodd" stroke-miterlimit="10" viewBox="0 0 1920 1080"><desc>SVG generated by Keynote</desc><defs></defs><g transform="matrix(1.00, 0.00, -0.00, -1.00, 0.0, 1080.0)"><path d="M 0.0 1080.0 L 1920.0 1080.0 L 1920.0 0.0 L 0.0 0.0 Z M 0.0 1080.0 " fill="#FEFFFF"></path><g><clipPath id="clip0x7fd40b390460"><path d="M 0.0 1080.0 L 1920.0 1080.0 L 1920.0 0.0 L 0.0 0.0 Z M 0.0 1080.0 "></path></clipPath><g clip-path="url(#clip0x7fd40b390460)"><image xlink:href="40B13CE7F2E1C7BECA87ED72964BEAA9.jpeg" width="1920.00" height="1080.00" transform="matrix(1.00, 0.00, -0.00, -1.00, 0.0, 1080.0)"></image></g></g><text xml:space="preserve" font-family="SourceSansPro-Semibold,Source Sans Pro" font-weight="bold" font-size="87.0" fill="#000000" transform="matrix(1.00, 0.00, -0.00, -1.00, 25.6, 973.9)">[</text><text xml:space="preserve" font-family="SourceSansPro-Semibold,Source Sans Pro" font-weight="bold" font-size="87.0" fill="#000000" transform="matrix(1.00, 0.00, -0.00, -1.00, 53.8, 973.9)">E</text><text xml:space="preserve" font-family="SourceSansPro-Semibold,Source Sans Pro" font-weight="bold" font-size="87.0" fill="#000000" transform="matrix(1.00, 0.00, -0.00, -1.00, 100.6, 973.9)">m</text><text xml:space="preserve" font-family="SourceSansPro-Semibold,Source Sans Pro" font-weight="bold" font-size="87.0" fill="#000000" transform="matrix(1.00, 0.00, -0.00, -1.00, 174.0, 973.9)">p</text><text xml:space="preserve" font-family="SourceSansPro-Semibold,Source Sans Pro" font-weight="bold" font-size="87.0" fill="#000000" transform="matrix(1.00, 0.00, -0.00, -1.00, 223.0, 973.9)">i</text><text xml:space="preserve" font-family="SourceSansPro-Semibold,Source Sans Pro" font-weight="bold" font-size="87.0" fill="#000000" transform="matrix(1.00, 0.00, -0.00, -1.00, 245.8, 973.9)">r</text><text xml:space="preserve" font-family="SourceSansPro-Semibold,Source Sans Pro" font-weight="bold" font-size="87.0" fill="#000000" transform="matrix(1.00, 0.00, -0.00, -1.00, 277.4, 973.9)">e</text><text xml:space="preserve" font-family="SourceSansPro-Semibold,Source Sans Pro" font-weight="bold" font-size="87.0" fill="#000000" transform="matrix(1.00, 0.00, -0.00, -1.00, 321.5, 973.9)"> </text><text xml:space="preserve" font-family="SourceSansPro-Semibold,Source Sans Pro" font-weight="bold" font-size="87.0" fill="#000000" transform="matrix(1.00, 0.00, -0.00, -1.00, 339.3, 973.9)">S</text><text xml:space="preserve" font-family="SourceSansPro-Semibold,Source Sans Pro" font-weight="bold" font-size="87.0" fill="#000000" transform="matrix(1.00, 0.00, -0.00, -1.00, 386.8, 973.9)">t</text><text xml:space="preserve" font-family="SourceSansPro-Semibold,Source Sans Pro" font-weight="bold" font-size="87.0" fill="#000000" transform="matrix(1.00, 0.00, -0.00, -1.00, 418.2, 973.9)">r</text><text xml:space="preserve" font-family="SourceSansPro-Semibold,Source Sans Pro" font-weight="bold" font-size="87.0" fill="#000000" transform="matrix(1.00, 0.00, -0.00, -1.00, 450.6, 973.9)">i</text><text xml:space="preserve" font-family="SourceSansPro-Semibold,Source Sans Pro" font-weight="bold" font-size="87.0" fill="#000000" transform="matrix(1.00, 0.00, -0.00, -1.00, 473.4, 973.9)">k</text><text xml:space="preserve" font-family="SourceSansPro-Semibold,Source Sans Pro" font-weight="bold" font-size="87.0" fill="#000000" transform="matrix(1.00, 0.00, -0.00, -1.00, 516.8, 973.9)">e</text><text xml:space="preserve" font-family="SourceSansPro-Semibold,Source Sans Pro" font-weight="bold" font-size="87.0" fill="#000000" transform="matrix(1.00, 0.00, -0.00, -1.00, 560.9, 973.9)">s</text><text xml:space="preserve" font-family="SourceSansPro-Semibold,Source Sans Pro" font-weight="bold" font-size="87.0" fill="#000000" transform="matrix(1.00, 0.00, -0.00, -1.00, 598.4, 973.9)">]</text><text xml:space="preserve" font-family="SourceSansPro-Semibold,Source Sans Pro" font-weight="bold" font-size="87.0" fill="#000000" transform="matrix(1.00, 0.00, -0.00, -1.00, 626.6, 973.9)"> </text><text xml:space="preserve" font-family="SourceSansPro-Semibold,Source Sans Pro" font-weight="bold" font-size="87.0" fill="#000000" transform="matrix(1.00, 0.00, -0.00, -1.00, 644.5, 973.9)">B</text><text xml:space="preserve" font-family="SourceSansPro-Semibold,Source Sans Pro" font-weight="bold" font-size="87.0" fill="#000000" transform="matrix(1.00, 0.00, -0.00, -1.00, 696.4, 973.9)">a</text><text xml:space="preserve" font-family="SourceSansPro-Semibold,Source Sans Pro" font-weight="bold" font-size="87.0" fill="#000000" transform="matrix(1.00, 0.00, -0.00, -1.00, 741.9, 973.9)">c</text><text xml:space="preserve" font-family="SourceSansPro-Semibold,Source Sans Pro" font-weight="bold" font-size="87.0" fill="#000000" transform="matrix(1.00, 0.00, -0.00, -1.00, 782.1, 973.9)">k</text><text xml:space="preserve" font-family="SourceSansPro-Semibold,Source Sans Pro" font-weight="bold" font-size="87.0" fill="#000000" transform="matrix(1.00, 0.00, -0.00, -1.00, 827.5, 973.9)"> </text><text xml:space="preserve" font-family="SourceSansPro-Semibold,Source Sans Pro" font-weight="bold" font-size="87.0" fill="#000000" transform="matrix(1.00, 0.00, -0.00, -1.00, 25.6, 863.9)">t</text><text xml:space="preserve" font-family="SourceSansPro-Semibold,Source Sans Pro" font-weight="bold" font-size="87.0" fill="#000000" transform="matrix(1.00, 0.00, -0.00, -1.00, 56.2, 863.9)">o</text><text xml:space="preserve" font-family="SourceSansPro-Semibold,Source Sans Pro" font-weight="bold" font-size="87.0" fill="#000000" transform="matrix(1.00, 0.00, -0.00, -1.00, 103.9, 863.9)"> </text><text xml:space="preserve" font-family="SourceSansPro-Semibold,Source Sans Pro" font-weight="bold" font-size="87.0" fill="#000000" transform="matrix(1.00, 0.00, -0.00, -1.00, 121.8, 863.9)">t</text><text xml:space="preserve" font-family="SourceSansPro-Semibold,Source Sans Pro" font-weight="bold" font-size="87.0" fill="#000000" transform="matrix(1.00, 0.00, -0.00, -1.00, 153.2, 863.9)">h</text><text xml:space="preserve" font-family="SourceSansPro-Semibold,Source Sans Pro" font-weight="bold" font-size="87.0" fill="#000000" transform="matrix(1.00, 0.00, -0.00, -1.00, 201.7, 863.9)">e</text><text xml:space="preserve" font-family="SourceSansPro-Semibold,Source Sans Pro" font-weight="bold" font-size="87.0" fill="#000000" transform="matrix(1.00, 0.00, -0.00, -1.00, 245.8, 863.9)"> </text><text xml:space="preserve" font-family="SourceSansPro-Semibold,Source Sans Pro" font-weight="bold" font-size="87.0" fill="#000000" transform="matrix(1.00, 0.00, -0.00, -1.00, 263.7, 863.9)">p</text><text xml:space="preserve" font-family="SourceSansPro-Semibold,Source Sans Pro" font-weight="bold" font-size="87.0" fill="#000000" transform="matrix(1.00, 0.00, -0.00, -1.00, 312.7, 863.9)">r</text><text xml:space="preserve" font-family="SourceSansPro-Semibold,Source Sans Pro" font-weight="bold" font-size="87.0" fill="#000000" transform="matrix(1.00, 0.00, -0.00, -1.00, 344.3, 863.9)">o</text><text xml:space="preserve" font-family="SourceSansPro-Semibold,Source Sans Pro" font-weight="bold" font-size="87.0" fill="#000000" transform="matrix(1.00, 0.00, -0.00, -1.00, 392.1, 863.9)">t</text><text xml:space="preserve" font-family="SourceSansPro-Semibold,Source Sans Pro" font-weight="bold" font-size="87.0" fill="#000000" transform="matrix(1.00, 0.00, -0.00, -1.00, 422.6, 863.9)">o</text><text xml:space="preserve" font-family="SourceSansPro-Semibold,Source Sans Pro" font-weight="bold" font-size="87.0" fill="#000000" transform="matrix(1.00, 0.00, -0.00, -1.00, 470.4, 863.9)">c</text><text xml:space="preserve" font-family="SourceSansPro-Semibold,Source Sans Pro" font-weight="bold" font-size="87.0" fill="#000000" transform="matrix(1.00, 0.00, -0.00, -1.00, 508.5, 863.9)">o</text><text xml:space="preserve" font-family="SourceSansPro-Semibold,Source Sans Pro" font-weight="bold" font-size="87.0" fill="#000000" transform="matrix(1.00, 0.00, -0.00, -1.00, 556.2, 863.9)">l</text></g></svg>