<?xml version="1.0" encoding="UTF-8" standalone="no"?><svg xmlns="http://www.w3.org/2000/svg" xmlns:xlink="http://www.w3.org/1999/xlink" clip-rule="evenodd" stroke-miterlimit="10" viewBox="0 0 251 538"><desc>SVG generated by Keynote</desc><defs><linearGradient id="gradSh1.702" x1="-27.0" y1="0.0" x2="27.0" y2="0.0" gradientUnits="userSpaceOnUse" gradientTransform="matrix(0.00, -1.08, -1.08, 0.00, 190.8, 463.9)"><stop offset="0.00000" stop-color="#FFFFFF"></stop><stop offset="0.01833" stop-color="#FEFEFE"></stop><stop offset="1.00000" stop-color="#E3E3E3"></stop></linearGradient><linearGradient id="gradSh2.703" x1="-27.0" y1="0.0" x2="27.0" y2="0.0" gradientUnits="userSpaceOnUse" gradientTransform="matrix(0.00, -1.08, -1.08, 0.00, 190.8, 308.9)"><stop offset="0.00000" stop-color="#FFFFFF"></stop><stop offset="0.01833" stop-color="#FEFEFE"></stop><stop offset="1.00000" stop-color="#E3E3E3"></stop></linearGradient><linearGradient id="gradSh3.704" x1="-27.0" y1="0.0" x2="27.0" y2="0.0" gradientUnits="userSpaceOnUse" gradientTransform="matrix(0.00, -1.08, -1.08, 0.00, 190.8, 37.6)"><stop offset="0.00000" stop-color="#FFFFFF"></stop><stop offset="0.01833" stop-color="#FEFEFE"></stop><stop offset="1.00000" stop-color="#E3E3E3"></stop></linearGradient><linearGradient id="gradSh4.705" x1="-27.0" y1="0.0" x2="27.0" y2="0.0" gradientUnits="userSpaceOnUse" gradientTransform="matrix(0.00, -1.08, -1.08, 0.00, 35.5, 192.6)"><stop offset="0.00000" stop-color="#FFFFFF"></stop><stop offset="0.01833" stop-color="#FEFEFE"></stop><stop offset="1.00000" stop-color="#E3E3E3"></stop></linearGradient></defs><g transform="matrix(1.00, 0.00, -0.00, -1.00, 0.0, 538.0)"><g><clipPath id="clip0x7fd414c299d0"><path d="M 1.0 1.0 L 249.0 1.0 L 249.0 536.0 L 1.0 536.0 Z M 1.0 1.0 "></path></clipPath><g clip-path="url(#clip0x7fd414c299d0)"><image xlink:href="../../B02E482B-C8D7-4F1A-BA9A-94C651F35A6D/assets/A2B304A8042BB56F36E4B414A04A0988.png" width="19.00" height="100.00" transform="matrix(1.08, 0.00, -0.00, 1.08, 185.4, 329.3)"></image><image xlink:href="../../B02E482B-C8D7-4F1A-BA9A-94C651F35A6D/assets/428C57410BD56DB40C70C5CA0040093E.png" width="97.00" height="78.00" transform="matrix(1.08, 0.00, -0.00, 1.08, 60.3, 205.5)"></image><image xlink:href="../../B02E482B-C8D7-4F1A-BA9A-94C651F35A6D/assets/92EB1256DDE08D15C7DB4E435CAE6FB5.png" width="19.00" height="208.00" transform="matrix(1.08, 0.00, -0.00, 1.08, 185.4, 58.1)"></image><image xlink:href="../../B02E482B-C8D7-4F1A-BA9A-94C651F35A6D/assets/84D7644A2FD201640063688427AD0FFE.png" width="110.00" height="103.00" transform="matrix(1.08, 0.00, -0.00, 1.08, 59.2, 57.0)"></image><image xlink:href="../../B02E482B-C8D7-4F1A-BA9A-94C651F35A6D/assets/076919EA92D879EB930F676B7C23C66E.png" width="19.00" height="47.00" transform="matrix(1.08, 0.00, -0.00, 1.08, 185.4, 484.3)"></image><image xlink:href="../../B02E482B-C8D7-4F1A-BA9A-94C651F35A6D/assets/252B39EF83251546609468736A34A4BF.png" width="64.00" height="64.00" transform="matrix(1.08, 0.00, -0.00, 1.08, 156.3, 427.3)"></image></g></g><g><clipPath id="clip0x7fd414eb82b0"><path d="M 166.0 492.9 L 215.6 492.9 C 218.0 492.9 219.9 491.0 219.9 488.6 L 219.9 439.1 C 219.9 436.7 218.0 434.8 215.6 434.8 L 166.0 434.8 C 163.6 434.8 161.7 436.7 161.7 439.1 L 161.7 488.6 C 161.7 491.0 163.6 492.9 166.0 492.9 Z M 166.0 492.9 "></path></clipPath><g clip-path="url(#clip0x7fd414eb82b0)"><g><clipPath id="clip0x7fd414eb93e0"><path d="M 1.0 1.0 L 249.0 1.0 L 249.0 536.0 L 1.0 536.0 Z M 1.0 1.0 "></path></clipPath><g clip-path="url(#clip0x7fd414eb93e0)"><path d="M 1.0 1.0 L 249.0 1.0 L 249.0 536.0 L 1.0 536.0 Z M 1.0 1.0 " fill="url(#gradSh1.702)"></path></g></g></g></g><g><clipPath id="clip0x7fd41580e3a0"><path d="M 1.0 1.0 L 249.0 1.0 L 249.0 536.0 L 1.0 536.0 Z M 1.0 1.0 "></path></clipPath><g clip-path="url(#clip0x7fd41580e3a0)"><path d="M 301.0 81.0 L 347.0 81.0 C 349.2 81.0 351.0 82.8 351.0 85.0 L 351.0 131.0 C 351.0 133.2 349.2 135.0 347.0 135.0 L 301.0 135.0 C 298.8 135.0 297.0 133.2 297.0 131.0 L 297.0 85.0 C 297.0 82.8 298.8 81.0 301.0 81.0 Z M 301.0 81.0 " fill="none" stroke="#AAAAAA" stroke-width="2.00" stroke-linecap="round" stroke-linejoin="round" transform="matrix(1.08, 0.00, 0.00, -1.08, -158.6, 580.1)"></path><text xml:space="preserve" font-family="Helvetica,Helvetica" font-size="10.0" fill="#616161" transform="matrix(1.08, 0.00, -0.00, -1.08, 182.4, 459.6)">i</text><text xml:space="preserve" font-family="Helvetica,Helvetica" font-size="10.0" fill="#616161" transform="matrix(1.08, 0.00, -0.00, -1.08, 184.8, 459.6)">d</text><text xml:space="preserve" font-family="Helvetica,Helvetica" font-size="10.0" fill="#616161" transform="matrix(1.08, 0.00, -0.00, -1.08, 190.8, 459.6)">l</text><text xml:space="preserve" font-family="Helvetica,Helvetica" font-size="10.0" fill="#616161" transform="matrix(1.08, 0.00, -0.00, -1.08, 193.2, 459.6)">e</text><image xlink:href="../../B02E482B-C8D7-4F1A-BA9A-94C651F35A6D/assets/252B39EF83251546609468736A34A4BF.png" width="64.00" height="64.00" transform="matrix(1.08, 0.00, -0.00, 1.08, 156.3, 272.3)"></image></g></g><g><clipPath id="clip0x7fd4158131c0"><path d="M 166.0 337.9 L 215.6 337.9 C 218.0 337.9 219.9 336.0 219.9 333.6 L 219.9 284.1 C 219.9 281.7 218.0 279.8 215.6 279.8 L 166.0 279.8 C 163.6 279.8 161.7 281.7 161.7 284.1 L 161.7 333.6 C 161.7 336.0 163.6 337.9 166.0 337.9 Z M 166.0 337.9 "></path></clipPath><g clip-path="url(#clip0x7fd4158131c0)"><g><clipPath id="clip0x7fd415814290"><path d="M 1.0 1.0 L 249.0 1.0 L 249.0 536.0 L 1.0 536.0 Z M 1.0 1.0 "></path></clipPath><g clip-path="url(#clip0x7fd415814290)"><path d="M 1.0 1.0 L 249.0 1.0 L 249.0 536.0 L 1.0 536.0 Z M 1.0 1.0 " fill="url(#gradSh2.703)"></path></g></g></g></g><g><clipPath id="clip0x7fd415865f90"><path d="M 1.0 1.0 L 249.0 1.0 L 249.0 536.0 L 1.0 536.0 Z M 1.0 1.0 "></path></clipPath><g clip-path="url(#clip0x7fd415865f90)"><path d="M 301.0 225.0 L 347.0 225.0 C 349.2 225.0 351.0 226.8 351.0 229.0 L 351.0 275.0 C 351.0 277.2 349.2 279.0 347.0 279.0 L 301.0 279.0 C 298.8 279.0 297.0 277.2 297.0 275.0 L 297.0 229.0 C 297.0 226.8 298.8 225.0 301.0 225.0 Z M 301.0 225.0 " fill="none" stroke="#AAAAAA" stroke-width="2.00" stroke-linecap="round" stroke-linejoin="round" transform="matrix(1.08, 0.00, 0.00, -1.08, -158.6, 580.1)"></path><text xml:space="preserve" font-family="Helvetica,Helvetica" font-size="10.0" fill="#616161" transform="matrix(1.08, 0.00, -0.00, -1.08, 178.8, 304.6)">o</text><text xml:space="preserve" font-family="Helvetica,Helvetica" font-size="10.0" fill="#616161" transform="matrix(1.08, 0.00, -0.00, -1.08, 184.8, 304.6)">p</text><text xml:space="preserve" font-family="Helvetica,Helvetica" font-size="10.0" fill="#616161" transform="matrix(1.08, 0.00, -0.00, -1.08, 190.8, 304.6)">e</text><text xml:space="preserve" font-family="Helvetica,Helvetica" font-size="10.0" fill="#616161" transform="matrix(1.08, 0.00, -0.00, -1.08, 196.8, 304.6)">n</text><image xlink:href="../../B02E482B-C8D7-4F1A-BA9A-94C651F35A6D/assets/252B39EF83251546609468736A34A4BF.png" width="64.00" height="64.00" transform="matrix(1.08, 0.00, -0.00, 1.08, 156.3, 1.0)"></image></g></g><g><clipPath id="clip0x7fd415869d50"><path d="M 166.0 66.7 L 215.6 66.7 C 218.0 66.7 219.9 64.7 219.9 62.4 L 219.9 12.8 C 219.9 10.5 218.0 8.5 215.6 8.5 L 166.0 8.5 C 163.6 8.5 161.7 10.5 161.7 12.8 L 161.7 62.4 C 161.7 64.7 163.6 66.7 166.0 66.7 Z M 166.0 66.7 "></path></clipPath><g clip-path="url(#clip0x7fd415869d50)"><g><clipPath id="clip0x7fd41586af40"><path d="M 1.0 1.0 L 249.0 1.0 L 249.0 536.0 L 1.0 536.0 Z M 1.0 1.0 "></path></clipPath><g clip-path="url(#clip0x7fd41586af40)"><path d="M 1.0 1.0 L 249.0 1.0 L 249.0 536.0 L 1.0 536.0 Z M 1.0 1.0 " fill="url(#gradSh3.704)"></path></g></g></g></g><g><clipPath id="clip0x7fd4158bcc30"><path d="M 1.0 1.0 L 249.0 1.0 L 249.0 536.0 L 1.0 536.0 Z M 1.0 1.0 "></path></clipPath><g clip-path="url(#clip0x7fd4158bcc30)"><path d="M 301.0 477.0 L 347.0 477.0 C 349.2 477.0 351.0 478.8 351.0 481.0 L 351.0 527.0 C 351.0 529.2 349.2 531.0 347.0 531.0 L 301.0 531.0 C 298.8 531.0 297.0 529.2 297.0 527.0 L 297.0 481.0 C 297.0 478.8 298.8 477.0 301.0 477.0 Z M 301.0 477.0 " fill="none" stroke="#AAAAAA" stroke-width="2.00" stroke-linecap="round" stroke-linejoin="round" transform="matrix(1.08, 0.00, 0.00, -1.08, -158.6, 580.1)"></path><text xml:space="preserve" font-family="Helvetica,Helvetica" font-size="10.0" fill="#616161" transform="matrix(1.08, 0.00, -0.00, -1.08, 175.2, 33.3)">c</text><text xml:space="preserve" font-family="Helvetica,Helvetica" font-size="10.0" fill="#616161" transform="matrix(1.08, 0.00, -0.00, -1.08, 180.6, 33.3)">l</text><text xml:space="preserve" font-family="Helvetica,Helvetica" font-size="10.0" fill="#616161" transform="matrix(1.08, 0.00, -0.00, -1.08, 183.0, 33.3)">o</text><text xml:space="preserve" font-family="Helvetica,Helvetica" font-size="10.0" fill="#616161" transform="matrix(1.08, 0.00, -0.00, -1.08, 189.0, 33.3)">s</text><text xml:space="preserve" font-family="Helvetica,Helvetica" font-size="10.0" fill="#616161" transform="matrix(1.08, 0.00, -0.00, -1.08, 194.4, 33.3)">e</text><text xml:space="preserve" font-family="Helvetica,Helvetica" font-size="10.0" fill="#616161" transform="matrix(1.08, 0.00, -0.00, -1.08, 200.4, 33.3)">d</text><image xlink:href="../../B02E482B-C8D7-4F1A-BA9A-94C651F35A6D/assets/252B39EF83251546609468736A34A4BF.png" width="64.00" height="64.00" transform="matrix(1.08, 0.00, -0.00, 1.08, 1.0, 156.0)"></image></g></g><g><clipPath id="clip0x7fd4158c1770"><path d="M 10.7 221.7 L 60.3 221.7 C 62.7 221.7 64.6 219.7 64.6 217.4 L 64.6 167.9 C 64.6 165.5 62.7 163.5 60.3 163.5 L 10.7 163.5 C 8.3 163.5 6.4 165.5 6.4 167.9 L 6.4 217.4 C 6.4 219.7 8.3 221.7 10.7 221.7 Z M 10.7 221.7 "></path></clipPath><g clip-path="url(#clip0x7fd4158c1770)"><g><clipPath id="clip0x7fd4158c2930"><path d="M 1.0 1.0 L 249.0 1.0 L 249.0 536.0 L 1.0 536.0 Z M 1.0 1.0 "></path></clipPath><g clip-path="url(#clip0x7fd4158c2930)"><path d="M 1.0 1.0 L 249.0 1.0 L 249.0 536.0 L 1.0 536.0 Z M 1.0 1.0 " fill="url(#gradSh4.705)"></path></g></g></g></g><g><clipPath id="clip0x7fd415918520"><path d="M 1.0 1.0 L 249.0 1.0 L 249.0 536.0 L 1.0 536.0 Z M 1.0 1.0 "></path></clipPath><g clip-path="url(#clip0x7fd415918520)"><path d="M 157.0 333.0 L 203.0 333.0 C 205.2 333.0 207.0 334.8 207.0 337.0 L 207.0 383.0 C 207.0 385.2 205.2 387.0 203.0 387.0 L 157.0 387.0 C 154.8 387.0 153.0 385.2 153.0 383.0 L 153.0 337.0 C 153.0 334.8 154.8 333.0 157.0 333.0 Z M 157.0 333.0 " fill="none" stroke="#AAAAAA" stroke-width="2.00" stroke-linecap="round" stroke-linejoin="round" transform="matrix(1.08, 0.00, 0.00, -1.08, -158.6, 580.1)"></path><text xml:space="preserve" font-family="Helvetica,Helvetica" font-size="10.0" fill="#616161" transform="matrix(1.08, 0.00, -0.00, -1.08, 26.8, 201.2)">h</text><text xml:space="preserve" font-family="Helvetica,Helvetica" font-size="10.0" fill="#616161" transform="matrix(1.08, 0.00, -0.00, -1.08, 32.8, 201.2)">a</text><text xml:space="preserve" font-family="Helvetica,Helvetica" font-size="10.0" fill="#616161" transform="matrix(1.08, 0.00, -0.00, -1.08, 38.8, 201.2)">l</text><text xml:space="preserve" font-family="Helvetica,Helvetica" font-size="10.0" fill="#616161" transform="matrix(1.08, 0.00, -0.00, -1.08, 41.2, 201.2)">f</text><text xml:space="preserve" font-family="Helvetica,Helvetica" font-size="10.0" fill="#616161" transform="matrix(1.08, 0.00, -0.00, -1.08, 44.2, 201.2)"> </text><text xml:space="preserve" font-family="Helvetica,Helvetica" font-size="10.0" fill="#616161" transform="matrix(1.08, 0.00, -0.00, -1.08, 19.9, 188.3)">c</text><text xml:space="preserve" font-family="Helvetica,Helvetica" font-size="10.0" fill="#616161" transform="matrix(1.08, 0.00, -0.00, -1.08, 25.3, 188.3)">l</text><text xml:space="preserve" font-family="Helvetica,Helvetica" font-size="10.0" fill="#616161" transform="matrix(1.08, 0.00, -0.00, -1.08, 27.7, 188.3)">o</text><text xml:space="preserve" font-family="Helvetica,Helvetica" font-size="10.0" fill="#616161" transform="matrix(1.08, 0.00, -0.00, -1.08, 33.7, 188.3)">s</text><text xml:space="preserve" font-family="Helvetica,Helvetica" font-size="10.0" fill="#616161" transform="matrix(1.08, 0.00, -0.00, -1.08, 39.1, 188.3)">e</text><text xml:space="preserve" font-family="Helvetica,Helvetica" font-size="10.0" fill="#616161" transform="matrix(1.08, 0.00, -0.00, -1.08, 45.1, 188.3)">d</text><text xml:space="preserve" font-family="Helvetica,Helvetica" font-size="10.0" fill="#616161" transform="matrix(1.08, 0.00, -0.00, -1.08, 51.1, 188.3)"> </text><text xml:space="preserve" font-family="Helvetica,Helvetica" font-size="10.0" fill="#616161" transform="matrix(1.08, 0.00, -0.00, -1.08, 15.1, 175.4)">(</text><text xml:space="preserve" font-family="Helvetica,Helvetica" font-size="10.0" fill="#616161" transform="matrix(1.08, 0.00, -0.00, -1.08, 18.7, 175.4)">r</text><text xml:space="preserve" font-family="Helvetica,Helvetica" font-size="10.0" fill="#616161" transform="matrix(1.08, 0.00, -0.00, -1.08, 22.3, 175.4)">e</text><text xml:space="preserve" font-family="Helvetica,Helvetica" font-size="10.0" fill="#616161" transform="matrix(1.08, 0.00, -0.00, -1.08, 28.3, 175.4)">m</text><text xml:space="preserve" font-family="Helvetica,Helvetica" font-size="10.0" fill="#616161" transform="matrix(1.08, 0.00, -0.00, -1.08, 37.3, 175.4)">o</text><text xml:space="preserve" font-family="Helvetica,Helvetica" font-size="10.0" fill="#616161" transform="matrix(1.08, 0.00, -0.00, -1.08, 43.3, 175.4)">t</text><text xml:space="preserve" font-family="Helvetica,Helvetica" font-size="10.0" fill="#616161" transform="matrix(1.08, 0.00, -0.00, -1.08, 46.3, 175.4)">e</text><text xml:space="preserve" font-family="Helvetica,Helvetica" font-size="10.0" fill="#616161" transform="matrix(1.08, 0.00, -0.00, -1.08, 52.3, 175.4)">)</text><path d="M 324.5 214.1 L 324.5 136.0 " fill="none" stroke="#000000" stroke-width="1.00" stroke-linecap="round" stroke-linejoin="round" transform="matrix(1.08, 0.00, 0.00, -1.08, -158.6, 580.1)"></path><path d="M 191.3 341.1 L 194.5 349.7 L 188.1 349.7 Z M 191.3 341.1 " fill="#000000"></path><path d="M 324.5 222.1 L 327.5 214.1 L 321.5 214.1 Z M 324.5 222.1 " fill="none" stroke="#000000" stroke-width="1.00" transform="matrix(1.08, 0.00, 0.00, -1.08, -158.6, 580.1)"></path><path d="M 215.7 333.2 L 296.2 272.9 " fill="none" stroke="#000000" stroke-width="1.00" stroke-linecap="round" stroke-linejoin="round" transform="matrix(1.08, 0.00, 0.00, -1.08, -158.6, 580.1)"></path><path d="M 67.1 216.3 L 76.0 218.9 L 72.1 224.0 Z M 67.1 216.3 " fill="#000000"></path><path d="M 209.3 338.0 L 217.5 335.6 L 213.9 330.8 Z M 209.3 338.0 " fill="none" stroke="#000000" stroke-width="1.00" transform="matrix(1.08, 0.00, 0.00, -1.08, -158.6, 580.1)"></path><path d="M 324.5 466.1 L 324.5 280.0 " fill="none" stroke="#000000" stroke-width="1.00" stroke-linecap="round" stroke-linejoin="round" transform="matrix(1.08, 0.00, 0.00, -1.08, -158.6, 580.1)"></path><path d="M 191.3 69.8 L 194.5 78.4 L 188.1 78.4 Z M 191.3 69.8 " fill="#000000"></path><path d="M 324.5 474.1 L 327.5 466.1 L 321.5 466.1 Z M 324.5 474.1 " fill="none" stroke="#000000" stroke-width="1.00" transform="matrix(1.08, 0.00, 0.00, -1.08, -158.6, 580.1)"></path><path d="M 290.5 470.5 L 206.5 386.5 " fill="none" stroke="#000000" stroke-width="1.00" stroke-linecap="round" stroke-linejoin="round" transform="matrix(1.08, 0.00, 0.00, -1.08, -158.6, 580.1)"></path><path d="M 160.7 67.6 L 156.9 76.0 L 152.3 71.4 Z M 160.7 67.6 " fill="#000000"></path><path d="M 296.1 476.1 L 292.6 468.3 L 288.3 472.6 Z M 296.1 476.1 " fill="none" stroke="#000000" stroke-width="1.00" transform="matrix(1.08, 0.00, 0.00, -1.08, -158.6, 580.1)"></path><text xml:space="preserve" font-family="HelveticaNeue,Helvetica Neue" font-size="16.0" fill="#000000" transform="matrix(1.08, 0.00, -0.00, -1.08, 194.1, 368.2)">r</text><text xml:space="preserve" font-family="HelveticaNeue,Helvetica Neue" font-size="16.0" fill="#000000" transform="matrix(1.08, 0.00, -0.00, -1.08, 199.6, 368.2)">e</text><text xml:space="preserve" font-family="HelveticaNeue,Helvetica Neue" font-size="16.0" fill="#000000" transform="matrix(1.08, 0.00, -0.00, -1.08, 208.8, 368.2)">c</text><text xml:space="preserve" font-family="HelveticaNeue,Helvetica Neue" font-size="16.0" fill="#000000" transform="matrix(1.08, 0.00, -0.00, -1.08, 218.1, 368.2)">v</text><text xml:space="preserve" font-family="HelveticaNeue,Helvetica Neue" font-size="16.0" fill="#000000" transform="matrix(1.08, 0.00, -0.00, -1.08, 226.7, 368.2)"> </text><text xml:space="preserve" font-family="HelveticaNeue,Helvetica Neue" font-size="16.0" fill="#000000" transform="matrix(1.08, 0.00, -0.00, -1.08, 231.5, 368.2)">H</text><text xml:space="preserve" font-family="HelveticaNeue,Helvetica Neue" font-size="16.0" fill="#000000" transform="matrix(0.85, 0.66, 0.66, -0.85, 114.7, 255.5)">r</text><text xml:space="preserve" font-family="HelveticaNeue,Helvetica Neue" font-size="16.0" fill="#000000" transform="matrix(0.85, 0.66, 0.66, -0.85, 119.0, 258.9)">e</text><text xml:space="preserve" font-family="HelveticaNeue,Helvetica Neue" font-size="16.0" fill="#000000" transform="matrix(0.85, 0.66, 0.66, -0.85, 126.3, 264.6)">c</text><text xml:space="preserve" font-family="HelveticaNeue,Helvetica Neue" font-size="16.0" fill="#000000" transform="matrix(0.85, 0.66, 0.66, -0.85, 133.6, 270.3)">v</text><text xml:space="preserve" font-family="HelveticaNeue,Helvetica Neue" font-size="16.0" fill="#000000" transform="matrix(0.85, 0.66, 0.66, -0.85, 140.4, 275.6)"> </text><text xml:space="preserve" font-family="HelveticaNeue,Helvetica Neue" font-size="16.0" fill="#000000" transform="matrix(0.85, 0.66, 0.66, -0.85, 130.9, 243.6)">E</text><text xml:space="preserve" font-family="HelveticaNeue,Helvetica Neue" font-size="16.0" fill="#000000" transform="matrix(0.85, 0.66, 0.66, -0.85, 139.2, 250.1)">S</text><text xml:space="preserve" font-family="HelveticaNeue,Helvetica Neue" font-size="16.0" fill="#000000" transform="matrix(1.08, 0.00, -0.00, -1.08, 197.1, 196.8)">s</text><text xml:space="preserve" font-family="HelveticaNeue,Helvetica Neue" font-size="16.0" fill="#000000" transform="matrix(1.08, 0.00, -0.00, -1.08, 205.7, 196.8)">e</text><text xml:space="preserve" font-family="HelveticaNeue,Helvetica Neue" font-size="16.0" fill="#000000" transform="matrix(1.08, 0.00, -0.00, -1.08, 214.9, 196.8)">n</text><text xml:space="preserve" font-family="HelveticaNeue,Helvetica Neue" font-size="16.0" fill="#000000" transform="matrix(1.08, 0.00, -0.00, -1.08, 224.5, 196.8)">d</text><text xml:space="preserve" font-family="HelveticaNeue,Helvetica Neue" font-size="16.0" fill="#000000" transform="matrix(1.08, 0.00, -0.00, -1.08, 234.8, 196.8)"> </text><text xml:space="preserve" font-family="HelveticaNeue,Helvetica Neue" font-size="16.0" fill="#000000" transform="matrix(1.08, 0.00, -0.00, -1.08, 239.6, 196.8)">/</text><text xml:space="preserve" font-family="HelveticaNeue,Helvetica Neue" font-size="16.0" fill="#000000" transform="matrix(1.08, 0.00, -0.00, -1.08, 245.3, 196.8)"> </text><text xml:space="preserve" font-family="HelveticaNeue,Helvetica Neue" font-size="16.0" fill="#000000" transform="matrix(1.08, 0.00, -0.00, -1.08, 196.6, 177.5)">r</text><text xml:space="preserve" font-family="HelveticaNeue,Helvetica Neue" font-size="16.0" fill="#000000" transform="matrix(1.08, 0.00, -0.00, -1.08, 202.0, 177.5)">e</text><text xml:space="preserve" font-family="HelveticaNeue,Helvetica Neue" font-size="16.0" fill="#000000" transform="matrix(1.08, 0.00, -0.00, -1.08, 211.3, 177.5)">c</text><text xml:space="preserve" font-family="HelveticaNeue,Helvetica Neue" font-size="16.0" fill="#000000" transform="matrix(1.08, 0.00, -0.00, -1.08, 220.5, 177.5)">v</text><text xml:space="preserve" font-family="HelveticaNeue,Helvetica Neue" font-size="16.0" fill="#000000" transform="matrix(1.08, 0.00, -0.00, -1.08, 229.2, 177.5)"> </text><text xml:space="preserve" font-family="HelveticaNeue,Helvetica Neue" font-size="16.0" fill="#000000" transform="matrix(1.08, 0.00, -0.00, -1.08, 234.0, 177.5)">R</text><text xml:space="preserve" font-family="HelveticaNeue,Helvetica Neue" font-size="16.0" fill="#000000" transform="matrix(0.72, -0.80, -0.80, -0.72, 78.1, 160.0)">s</text><text xml:space="preserve" font-family="HelveticaNeue,Helvetica Neue" font-size="16.0" fill="#000000" transform="matrix(0.72, -0.80, -0.80, -0.72, 83.9, 153.6)">e</text><text xml:space="preserve" font-family="HelveticaNeue,Helvetica Neue" font-size="16.0" fill="#000000" transform="matrix(0.72, -0.80, -0.80, -0.72, 90.1, 146.7)">n</text><text xml:space="preserve" font-family="HelveticaNeue,Helvetica Neue" font-size="16.0" fill="#000000" transform="matrix(0.72, -0.80, -0.80, -0.72, 96.5, 139.6)">d</text><text xml:space="preserve" font-family="HelveticaNeue,Helvetica Neue" font-size="16.0" fill="#000000" transform="matrix(0.72, -0.80, -0.80, -0.72, 103.3, 132.0)"> </text><text xml:space="preserve" font-family="HelveticaNeue,Helvetica Neue" font-size="16.0" fill="#000000" transform="matrix(0.72, -0.80, -0.80, -0.72, 106.5, 128.5)">E</text><text xml:space="preserve" font-family="HelveticaNeue,Helvetica Neue" font-size="16.0" fill="#000000" transform="matrix(0.72, -0.80, -0.80, -0.72, 113.6, 120.6)">S</text><text xml:space="preserve" font-family="HelveticaNeue,Helvetica Neue" font-size="16.0" fill="#000000" transform="matrix(0.72, -0.80, -0.80, -0.72, 69.0, 141.1)">s</text><text xml:space="preserve" font-family="HelveticaNeue,Helvetica Neue" font-size="16.0" fill="#000000" transform="matrix(0.72, -0.80, -0.80, -0.72, 74.8, 134.7)">e</text><text xml:space="preserve" font-family="HelveticaNeue,Helvetica Neue" font-size="16.0" fill="#000000" transform="matrix(0.72, -0.80, -0.80, -0.72, 81.0, 127.8)">n</text><text xml:space="preserve" font-family="HelveticaNeue,Helvetica Neue" font-size="16.0" fill="#000000" transform="matrix(0.72, -0.80, -0.80, -0.72, 87.4, 120.7)">d</text><text xml:space="preserve" font-family="HelveticaNeue,Helvetica Neue" font-size="16.0" fill="#000000" transform="matrix(0.72, -0.80, -0.80, -0.72, 94.3, 113.1)"> </text><text xml:space="preserve" font-family="HelveticaNeue,Helvetica Neue" font-size="16.0" fill="#000000" transform="matrix(0.72, -0.80, -0.80, -0.72, 97.5, 109.6)">/</text><text xml:space="preserve" font-family="HelveticaNeue,Helvetica Neue" font-size="16.0" fill="#000000" transform="matrix(0.72, -0.80, -0.80, -0.72, 54.3, 128.5)">r</text><text xml:space="preserve" font-family="HelveticaNeue,Helvetica Neue" font-size="16.0" fill="#000000" transform="matrix(0.72, -0.80, -0.80, -0.72, 57.9, 124.5)">e</text><text xml:space="preserve" font-family="HelveticaNeue,Helvetica Neue" font-size="16.0" fill="#000000" transform="matrix(0.72, -0.80, -0.80, -0.72, 64.1, 117.6)">c</text><text xml:space="preserve" font-family="HelveticaNeue,Helvetica Neue" font-size="16.0" fill="#000000" transform="matrix(0.72, -0.80, -0.80, -0.72, 70.3, 110.7)">v</text><text xml:space="preserve" font-family="HelveticaNeue,Helvetica Neue" font-size="16.0" fill="#000000" transform="matrix(0.72, -0.80, -0.80, -0.72, 76.1, 104.3)"> </text><text xml:space="preserve" font-family="HelveticaNeue,Helvetica Neue" font-size="16.0" fill="#000000" transform="matrix(0.72, -0.80, -0.80, -0.72, 79.3, 100.8)">R</text><path d="M 324.5 70.1 L 324.5 45.0 " fill="none" stroke="#000000" stroke-width="1.00" stroke-linecap="round" stroke-linejoin="round" transform="matrix(1.08, 0.00, 0.00, -1.08, -158.6, 580.1)"></path><path d="M 191.3 496.1 L 194.5 504.7 L 188.1 504.7 Z M 191.3 496.1 " fill="#000000"></path><path d="M 324.5 78.1 L 327.5 70.1 L 321.5 70.1 Z M 324.5 78.1 " fill="none" stroke="#000000" stroke-width="1.00" transform="matrix(1.08, 0.00, 0.00, -1.08, -158.6, 580.1)"></path></g></g></g></svg>