<?xml version="1.0" encoding="UTF-8" standalone="no"?><svg xmlns="http://www.w3.org/2000/svg" xmlns:xlink="http://www.w3.org/1999/xlink" clip-rule="evenodd" stroke-miterlimit="10" viewBox="0 0 457 302"><desc>SVG generated by Keynote</desc><defs><linearGradient id="gradSh1.706" x1="-72.0" y1="0.0" x2="72.0" y2="0.0" gradientUnits="userSpaceOnUse" gradientTransform="matrix(0.00, -0.40, -0.40, 0.00, 62.5, 207.9)"><stop offset="0.00000" stop-color="#FFFFFF"></stop><stop offset="0.01393" stop-color="#FEFEFE"></stop><stop offset="1.00000" stop-color="#DADADA"></stop></linearGradient><linearGradient id="gradSh2.707" x1="-72.0" y1="0.0" x2="72.0" y2="0.0" gradientUnits="userSpaceOnUse" gradientTransform="matrix(0.00, -0.40, -0.40, 0.00, 149.8, 207.9)"><stop offset="0.00000" stop-color="#FFFFFF"></stop><stop offset="0.01393" stop-color="#FEFEFE"></stop><stop offset="1.00000" stop-color="#DADADA"></stop></linearGradient><linearGradient id="gradSh3.708" x1="-72.0" y1="0.0" x2="72.0" y2="0.0" gradientUnits="userSpaceOnUse" gradientTransform="matrix(0.00, -0.40, -0.40, 0.00, 237.2, 207.9)"><stop offset="0.00000" stop-color="#FFFFFF"></stop><stop offset="0.01393" stop-color="#FEFEFE"></stop><stop offset="1.00000" stop-color="#DADADA"></stop></linearGradient><linearGradient id="gradSh4.709" x1="-72.0" y1="0.0" x2="72.0" y2="0.0" gradientUnits="userSpaceOnUse" gradientTransform="matrix(0.00, -0.40, -0.40, 0.00, 324.6, 207.9)"><stop offset="0.00000" stop-color="#FFFFFF"></stop><stop offset="0.01393" stop-color="#FEFEFE"></stop><stop offset="1.00000" stop-color="#DADADA"></stop></linearGradient><linearGradient id="gradSh5.710" x1="-72.0" y1="0.0" x2="72.0" y2="0.0" gradientUnits="userSpaceOnUse" gradientTransform="matrix(0.00, -0.40, -0.40, 0.00, 411.9, 207.9)"><stop offset="0.00000" stop-color="#FF9D3A"></stop><stop offset="0.00806" stop-color="#FF9C3A"></stop><stop offset="0.48607" stop-color="#E6781F"></stop><stop offset="0.49120" stop-color="#E6771F"></stop><stop offset="0.77419" stop-color="#D8620F"></stop><stop offset="0.77786" stop-color="#D8610F"></stop><stop offset="0.91789" stop-color="#D05707"></stop><stop offset="0.92155" stop-color="#D05607"></stop><stop offset="0.98974" stop-color="#CD5103"></stop><stop offset="0.99707" stop-color="#CC5103"></stop><stop offset="1.00000" stop-color="#CC5003"></stop></linearGradient><linearGradient id="gradSh6.711" x1="-72.0" y1="0.0" x2="72.0" y2="0.0" gradientUnits="userSpaceOnUse" gradientTransform="matrix(0.00, -0.40, -0.40, 0.00, 324.6, 120.5)"><stop offset="0.00000" stop-color="#FFFFFF"></stop><stop offset="0.01393" stop-color="#FEFEFE"></stop><stop offset="1.00000" stop-color="#DADADA"></stop></linearGradient><linearGradient id="gradSh7.712" x1="-72.0" y1="0.0" x2="72.0" y2="0.0" gradientUnits="userSpaceOnUse" gradientTransform="matrix(0.00, -0.40, -0.40, 0.00, 324.6, 33.2)"><stop offset="0.00000" stop-color="#FFFFFF"></stop><stop offset="0.01393" stop-color="#FEFEFE"></stop><stop offset="1.00000" stop-color="#DADADA"></stop></linearGradient><linearGradient id="gradSh8.713" x1="-72.0" y1="0.0" x2="72.0" y2="0.0" gradientUnits="userSpaceOnUse" gradientTransform="matrix(0.00, -0.40, -0.40, 0.00, 324.6, 207.2)"><stop offset="0.00000" stop-color="#FF9D3A"></stop><stop offset="0.00806" stop-color="#FF9C3A"></stop><stop offset="0.48607" stop-color="#E6781F"></stop><stop offset="0.49120" stop-color="#E6771F"></stop><stop offset="0.77419" stop-color="#D8620F"></stop><stop offset="0.77786" stop-color="#D8610F"></stop><stop offset="0.91789" stop-color="#D05707"></stop><stop offset="0.92155" stop-color="#D05607"></stop><stop offset="0.98974" stop-color="#CD5103"></stop><stop offset="0.99707" stop-color="#CC5103"></stop><stop offset="1.00000" stop-color="#CC5003"></stop></linearGradient></defs><g transform="matrix(1.00, 0.00, -0.00, -1.00, 0.0, 302.0)"><g><clipPath id="clip0x7fd414bcd330"><path d="M 1.0 1.0 L 456.0 1.0 L 456.0 301.0 L 1.0 301.0 Z M 1.0 1.0 "></path></clipPath><g clip-path="url(#clip0x7fd414bcd330)"><image xlink:href="../../A7482197-03EF-4231-B37E-3A53DC93D8C8/assets/09602989A7D55721ADAE3F8C1C8A5147.png" width="106.00" height="28.00" transform="matrix(0.40, 0.00, -0.00, 0.40, 1.0, 201.9)"></image><image xlink:href="../../A7482197-03EF-4231-B37E-3A53DC93D8C8/assets/009685358D09EE7C4D5764F0BE34FA17.png" width="105.00" height="28.00" transform="matrix(0.40, 0.00, -0.00, 0.40, 88.8, 201.9)"></image><image xlink:href="../../A7482197-03EF-4231-B37E-3A53DC93D8C8/assets/009685358D09EE7C4D5764F0BE34FA17.png" width="105.00" height="28.00" transform="matrix(0.40, 0.00, -0.00, 0.40, 176.1, 201.9)"></image><image xlink:href="../../A7482197-03EF-4231-B37E-3A53DC93D8C8/assets/009685358D09EE7C4D5764F0BE34FA17.png" width="105.00" height="28.00" transform="matrix(0.40, 0.00, -0.00, 0.40, 263.5, 201.9)"></image><image xlink:href="../../A7482197-03EF-4231-B37E-3A53DC93D8C8/assets/D205153572DF855D119D4811E0DBF965.png" width="106.00" height="28.00" transform="matrix(0.40, 0.00, -0.00, 0.40, 350.8, 201.9)"></image><image xlink:href="../../F36A6F62-F7B3-45ED-9907-0EDA78A152D7/assets/2D78A39335047FF13A38229B9C587EAF.png" width="108.00" height="94.00" transform="matrix(0.40, 0.00, -0.00, 0.40, 263.1, 143.3)"></image><image xlink:href="../../A7482197-03EF-4231-B37E-3A53DC93D8C8/assets/CB3C3451F24C657D5E4A184C6B852420.png" width="35.00" height="91.00" transform="matrix(0.40, 0.00, -0.00, 0.40, 321.3, 144.1)"></image><image xlink:href="../../F36A6F62-F7B3-45ED-9907-0EDA78A152D7/assets/A1BDC2748FE4CF74B1DD2954BA710F9C.png" width="88.00" height="94.00" transform="matrix(0.40, 0.00, -0.00, 0.40, 350.4, 143.3)"></image><image xlink:href="../../F36A6F62-F7B3-45ED-9907-0EDA78A152D7/assets/6BF1096C48344CCCB40187B16D25AA02.png" width="160.00" height="138.00" transform="matrix(0.40, 0.00, -0.00, 0.40, 292.2, 231.1)"></image><image xlink:href="../../F36A6F62-F7B3-45ED-9907-0EDA78A152D7/assets/C959DDAC340CD58CE7EAA9342B44783F.png" width="160.00" height="138.00" transform="matrix(0.40, 0.00, -0.00, 0.40, 379.6, 231.1)"></image><image xlink:href="../../F36A6F62-F7B3-45ED-9907-0EDA78A152D7/assets/A78A315689918EC4EA76FB93CFCF6B0C.png" width="434.00" height="173.00" transform="matrix(0.40, 0.00, -0.00, 0.40, 280.5, 230.6)"></image><image xlink:href="../../A7482197-03EF-4231-B37E-3A53DC93D8C8/assets/CB3C3451F24C657D5E4A184C6B852420.png" width="35.00" height="91.00" transform="matrix(0.40, 0.00, -0.00, 0.40, 321.3, 56.8)"></image><image xlink:href="../../F36A6F62-F7B3-45ED-9907-0EDA78A152D7/assets/26D63AB0A3D55BB2EC547125617D0F43.png" width="154.00" height="154.00" transform="matrix(0.40, 0.00, -0.00, 0.40, 31.3, 175.7)"></image></g></g><g><clipPath id="clip0x7fd414bd6f10"><path d="M 35.0 237.1 L 90.0 237.1 C 90.9 237.1 91.6 236.4 91.6 235.5 L 91.6 180.5 C 91.6 179.6 90.9 178.9 90.0 178.9 L 35.0 178.9 C 34.1 178.9 33.4 179.6 33.4 180.5 L 33.4 235.5 C 33.4 236.4 34.1 237.1 35.0 237.1 Z M 35.0 237.1 "></path></clipPath><g clip-path="url(#clip0x7fd414bd6f10)"><g><clipPath id="clip0x7fd414bd7790"><path d="M 1.0 1.0 L 456.0 1.0 L 456.0 301.0 L 1.0 301.0 Z M 1.0 1.0 "></path></clipPath><g clip-path="url(#clip0x7fd414bd7790)"><path d="M 1.0 1.0 L 456.0 1.0 L 456.0 301.0 L 1.0 301.0 Z M 1.0 1.0 " fill="url(#gradSh1.706)"></path></g></g></g></g><g><clipPath id="clip0x7fd415a2dfc0"><path d="M 1.0 1.0 L 456.0 1.0 L 456.0 301.0 L 1.0 301.0 Z M 1.0 1.0 "></path></clipPath><g clip-path="url(#clip0x7fd415a2dfc0)"><path d="M 148.0 1006.0 L 284.0 1006.0 C 286.2 1006.0 288.0 1007.8 288.0 1010.0 L 288.0 1146.0 C 288.0 1148.2 286.2 1150.0 284.0 1150.0 L 148.0 1150.0 C 145.8 1150.0 144.0 1148.2 144.0 1146.0 L 144.0 1010.0 C 144.0 1007.8 145.8 1006.0 148.0 1006.0 Z M 148.0 1006.0 " fill="none" stroke="#A9A9A9" stroke-width="2.00" stroke-linecap="round" stroke-linejoin="round" transform="matrix(0.40, 0.00, 0.00, -0.40, -24.9, 643.9)"></path><text xml:space="preserve" font-family="Helvetica,Helvetica" font-size="24.0" fill="#5E5E5E" transform="matrix(0.40, 0.00, -0.00, -0.40, 56.3, 204.4)">i</text><text xml:space="preserve" font-family="Helvetica,Helvetica" font-size="24.0" fill="#5E5E5E" transform="matrix(0.40, 0.00, -0.00, -0.40, 58.4, 204.4)">n</text><text xml:space="preserve" font-family="Helvetica,Helvetica" font-size="24.0" fill="#5E5E5E" transform="matrix(0.40, 0.00, -0.00, -0.40, 63.8, 204.4)">i</text><text xml:space="preserve" font-family="Helvetica,Helvetica" font-size="24.0" fill="#5E5E5E" transform="matrix(0.40, 0.00, -0.00, -0.40, 66.0, 204.4)">t</text><image xlink:href="../../F36A6F62-F7B3-45ED-9907-0EDA78A152D7/assets/26D63AB0A3D55BB2EC547125617D0F43.png" width="154.00" height="154.00" transform="matrix(0.40, 0.00, -0.00, 0.40, 118.7, 175.7)"></image></g></g><g><clipPath id="clip0x7fd415812400"><path d="M 122.3 237.1 L 177.3 237.1 C 178.2 237.1 179.0 236.4 179.0 235.5 L 179.0 180.5 C 179.0 179.6 178.2 178.9 177.3 178.9 L 122.3 178.9 C 121.4 178.9 120.7 179.6 120.7 180.5 L 120.7 235.5 C 120.7 236.4 121.4 237.1 122.3 237.1 Z M 122.3 237.1 "></path></clipPath><g clip-path="url(#clip0x7fd415812400)"><g><clipPath id="clip0x7fd4158c0910"><path d="M 1.0 1.0 L 456.0 1.0 L 456.0 301.0 L 1.0 301.0 Z M 1.0 1.0 "></path></clipPath><g clip-path="url(#clip0x7fd4158c0910)"><path d="M 1.0 1.0 L 456.0 1.0 L 456.0 301.0 L 1.0 301.0 Z M 1.0 1.0 " fill="url(#gradSh2.707)"></path></g></g></g></g><g><clipPath id="clip0x7fd414c489f0"><path d="M 1.0 1.0 L 456.0 1.0 L 456.0 301.0 L 1.0 301.0 Z M 1.0 1.0 "></path></clipPath><g clip-path="url(#clip0x7fd414c489f0)"><path d="M 364.0 1006.0 L 500.0 1006.0 C 502.2 1006.0 504.0 1007.8 504.0 1010.0 L 504.0 1146.0 C 504.0 1148.2 502.2 1150.0 500.0 1150.0 L 364.0 1150.0 C 361.8 1150.0 360.0 1148.2 360.0 1146.0 L 360.0 1010.0 C 360.0 1007.8 361.8 1006.0 364.0 1006.0 Z M 364.0 1006.0 " fill="none" stroke="#A9A9A9" stroke-width="2.00" stroke-linecap="round" stroke-linejoin="round" transform="matrix(0.40, 0.00, 0.00, -0.40, -24.9, 643.9)"></path><text xml:space="preserve" font-family="Helvetica,Helvetica" font-size="24.0" fill="#5E5E5E" transform="matrix(0.40, 0.00, -0.00, -0.40, 135.5, 204.4)">a</text><text xml:space="preserve" font-family="Helvetica,Helvetica" font-size="24.0" fill="#5E5E5E" transform="matrix(0.40, 0.00, -0.00, -0.40, 140.9, 204.4)">c</text><text xml:space="preserve" font-family="Helvetica,Helvetica" font-size="24.0" fill="#5E5E5E" transform="matrix(0.40, 0.00, -0.00, -0.40, 145.8, 204.4)">c</text><text xml:space="preserve" font-family="Helvetica,Helvetica" font-size="24.0" fill="#5E5E5E" transform="matrix(0.40, 0.00, -0.00, -0.40, 150.6, 204.4)">e</text><text xml:space="preserve" font-family="Helvetica,Helvetica" font-size="24.0" fill="#5E5E5E" transform="matrix(0.40, 0.00, -0.00, -0.40, 156.0, 204.4)">p</text><text xml:space="preserve" font-family="Helvetica,Helvetica" font-size="24.0" fill="#5E5E5E" transform="matrix(0.40, 0.00, -0.00, -0.40, 161.4, 204.4)">t</text><image xlink:href="../../F36A6F62-F7B3-45ED-9907-0EDA78A152D7/assets/26D63AB0A3D55BB2EC547125617D0F43.png" width="154.00" height="154.00" transform="matrix(0.40, 0.00, -0.00, 0.40, 206.1, 175.7)"></image></g></g><g><clipPath id="clip0x7fd415a3b070"><path d="M 209.7 237.1 L 264.7 237.1 C 265.6 237.1 266.3 236.4 266.3 235.5 L 266.3 180.5 C 266.3 179.6 265.6 178.9 264.7 178.9 L 209.7 178.9 C 208.8 178.9 208.1 179.6 208.1 180.5 L 208.1 235.5 C 208.1 236.4 208.8 237.1 209.7 237.1 Z M 209.7 237.1 "></path></clipPath><g clip-path="url(#clip0x7fd415a3b070)"><g><clipPath id="clip0x7fd415a3b7c0"><path d="M 1.0 1.0 L 456.0 1.0 L 456.0 301.0 L 1.0 301.0 Z M 1.0 1.0 "></path></clipPath><g clip-path="url(#clip0x7fd415a3b7c0)"><path d="M 1.0 1.0 L 456.0 1.0 L 456.0 301.0 L 1.0 301.0 Z M 1.0 1.0 " fill="url(#gradSh3.708)"></path></g></g></g></g><g><clipPath id="clip0x7fd414f31940"><path d="M 1.0 1.0 L 456.0 1.0 L 456.0 301.0 L 1.0 301.0 Z M 1.0 1.0 "></path></clipPath><g clip-path="url(#clip0x7fd414f31940)"><path d="M 580.0 1006.0 L 716.0 1006.0 C 718.2 1006.0 720.0 1007.8 720.0 1010.0 L 720.0 1146.0 C 720.0 1148.2 718.2 1150.0 716.0 1150.0 L 580.0 1150.0 C 577.8 1150.0 576.0 1148.2 576.0 1146.0 L 576.0 1010.0 C 576.0 1007.8 577.8 1006.0 580.0 1006.0 Z M 580.0 1006.0 " fill="none" stroke="#A9A9A9" stroke-width="2.00" stroke-linecap="round" stroke-linejoin="round" transform="matrix(0.40, 0.00, 0.00, -0.40, -24.9, 643.9)"></path><text xml:space="preserve" font-family="Helvetica,Helvetica" font-size="24.0" fill="#5E5E5E" transform="matrix(0.40, 0.00, -0.00, -0.40, 213.4, 204.4)">h</text><text xml:space="preserve" font-family="Helvetica,Helvetica" font-size="24.0" fill="#5E5E5E" transform="matrix(0.40, 0.00, -0.00, -0.40, 218.8, 204.4)">a</text><text xml:space="preserve" font-family="Helvetica,Helvetica" font-size="24.0" fill="#5E5E5E" transform="matrix(0.40, 0.00, -0.00, -0.40, 224.2, 204.4)">n</text><text xml:space="preserve" font-family="Helvetica,Helvetica" font-size="24.0" fill="#5E5E5E" transform="matrix(0.40, 0.00, -0.00, -0.40, 229.6, 204.4)">d</text><text xml:space="preserve" font-family="Helvetica,Helvetica" font-size="24.0" fill="#5E5E5E" transform="matrix(0.40, 0.00, -0.00, -0.40, 235.0, 204.4)">s</text><text xml:space="preserve" font-family="Helvetica,Helvetica" font-size="24.0" fill="#5E5E5E" transform="matrix(0.40, 0.00, -0.00, -0.40, 239.9, 204.4)">h</text><text xml:space="preserve" font-family="Helvetica,Helvetica" font-size="24.0" fill="#5E5E5E" transform="matrix(0.40, 0.00, -0.00, -0.40, 245.3, 204.4)">a</text><text xml:space="preserve" font-family="Helvetica,Helvetica" font-size="24.0" fill="#5E5E5E" transform="matrix(0.40, 0.00, -0.00, -0.40, 250.7, 204.4)">k</text><text xml:space="preserve" font-family="Helvetica,Helvetica" font-size="24.0" fill="#5E5E5E" transform="matrix(0.40, 0.00, -0.00, -0.40, 255.6, 204.4)">e</text><image xlink:href="../../F36A6F62-F7B3-45ED-9907-0EDA78A152D7/assets/26D63AB0A3D55BB2EC547125617D0F43.png" width="154.00" height="154.00" transform="matrix(0.40, 0.00, -0.00, 0.40, 293.4, 175.7)"></image></g></g><g><clipPath id="clip0x7fd414f37170"><path d="M 297.1 237.1 L 352.1 237.1 C 353.0 237.1 353.7 236.4 353.7 235.5 L 353.7 180.5 C 353.7 179.6 353.0 178.9 352.1 178.9 L 297.1 178.9 C 296.2 178.9 295.4 179.6 295.4 180.5 L 295.4 235.5 C 295.4 236.4 296.2 237.1 297.1 237.1 Z M 297.1 237.1 "></path></clipPath><g clip-path="url(#clip0x7fd414f37170)"><g><clipPath id="clip0x7fd414f37880"><path d="M 1.0 1.0 L 456.0 1.0 L 456.0 301.0 L 1.0 301.0 Z M 1.0 1.0 "></path></clipPath><g clip-path="url(#clip0x7fd414f37880)"><path d="M 1.0 1.0 L 456.0 1.0 L 456.0 301.0 L 1.0 301.0 Z M 1.0 1.0 " fill="url(#gradSh4.709)"></path></g></g></g></g><g><clipPath id="clip0x7fd414f858c0"><path d="M 1.0 1.0 L 456.0 1.0 L 456.0 301.0 L 1.0 301.0 Z M 1.0 1.0 "></path></clipPath><g clip-path="url(#clip0x7fd414f858c0)"><path d="M 796.0 1006.0 L 932.0 1006.0 C 934.2 1006.0 936.0 1007.8 936.0 1010.0 L 936.0 1146.0 C 936.0 1148.2 934.2 1150.0 932.0 1150.0 L 796.0 1150.0 C 793.8 1150.0 792.0 1148.2 792.0 1146.0 L 792.0 1010.0 C 792.0 1007.8 793.8 1006.0 796.0 1006.0 Z M 796.0 1006.0 " fill="none" stroke="#A9A9A9" stroke-width="2.00" stroke-linecap="round" stroke-linejoin="round" transform="matrix(0.40, 0.00, 0.00, -0.40, -24.9, 643.9)"></path><text xml:space="preserve" font-family="Helvetica,Helvetica" font-size="24.0" fill="#5E5E5E" transform="matrix(0.40, 0.00, -0.00, -0.40, 302.2, 204.4)">c</text><text xml:space="preserve" font-family="Helvetica,Helvetica" font-size="24.0" fill="#5E5E5E" transform="matrix(0.40, 0.00, -0.00, -0.40, 307.0, 204.4)">o</text><text xml:space="preserve" font-family="Helvetica,Helvetica" font-size="24.0" fill="#5E5E5E" transform="matrix(0.40, 0.00, -0.00, -0.40, 312.4, 204.4)">n</text><text xml:space="preserve" font-family="Helvetica,Helvetica" font-size="24.0" fill="#5E5E5E" transform="matrix(0.40, 0.00, -0.00, -0.40, 317.8, 204.4)">n</text><text xml:space="preserve" font-family="Helvetica,Helvetica" font-size="24.0" fill="#5E5E5E" transform="matrix(0.40, 0.00, -0.00, -0.40, 323.2, 204.4)">e</text><text xml:space="preserve" font-family="Helvetica,Helvetica" font-size="24.0" fill="#5E5E5E" transform="matrix(0.40, 0.00, -0.00, -0.40, 328.6, 204.4)">c</text><text xml:space="preserve" font-family="Helvetica,Helvetica" font-size="24.0" fill="#5E5E5E" transform="matrix(0.40, 0.00, -0.00, -0.40, 333.5, 204.4)">t</text><text xml:space="preserve" font-family="Helvetica,Helvetica" font-size="24.0" fill="#5E5E5E" transform="matrix(0.40, 0.00, -0.00, -0.40, 336.2, 204.4)">e</text><text xml:space="preserve" font-family="Helvetica,Helvetica" font-size="24.0" fill="#5E5E5E" transform="matrix(0.40, 0.00, -0.00, -0.40, 341.6, 204.4)">d</text><image xlink:href="../../F36A6F62-F7B3-45ED-9907-0EDA78A152D7/assets/26D63AB0A3D55BB2EC547125617D0F43.png" width="154.00" height="154.00" transform="matrix(0.40, 0.00, -0.00, 0.40, 380.8, 175.7)"></image></g></g><g><clipPath id="clip0x7fd414f8bb50"><path d="M 384.4 237.1 L 439.4 237.1 C 440.3 237.1 441.0 236.4 441.0 235.5 L 441.0 180.5 C 441.0 179.6 440.3 178.9 439.4 178.9 L 384.4 178.9 C 383.5 178.9 382.8 179.6 382.8 180.5 L 382.8 235.5 C 382.8 236.4 383.5 237.1 384.4 237.1 Z M 384.4 237.1 "></path></clipPath><g clip-path="url(#clip0x7fd414f8bb50)"><g><clipPath id="clip0x7fd414f8c290"><path d="M 1.0 1.0 L 456.0 1.0 L 456.0 301.0 L 1.0 301.0 Z M 1.0 1.0 "></path></clipPath><g clip-path="url(#clip0x7fd414f8c290)"><path d="M 1.0 1.0 L 456.0 1.0 L 456.0 301.0 L 1.0 301.0 Z M 1.0 1.0 " fill="url(#gradSh5.710)"></path></g></g></g></g><g><clipPath id="clip0x7fd414fdeaf0"><path d="M 1.0 1.0 L 456.0 1.0 L 456.0 301.0 L 1.0 301.0 Z M 1.0 1.0 "></path></clipPath><g clip-path="url(#clip0x7fd414fdeaf0)"><path d="M 1012.0 1006.0 L 1148.0 1006.0 C 1150.2 1006.0 1152.0 1007.8 1152.0 1010.0 L 1152.0 1146.0 C 1152.0 1148.2 1150.2 1150.0 1148.0 1150.0 L 1012.0 1150.0 C 1009.8 1150.0 1008.0 1148.2 1008.0 1146.0 L 1008.0 1010.0 C 1008.0 1007.8 1009.8 1006.0 1012.0 1006.0 Z M 1012.0 1006.0 " fill="none" stroke="#AE653C" stroke-width="2.00" stroke-linecap="round" stroke-linejoin="round" transform="matrix(0.40, 0.00, 0.00, -0.40, -24.9, 643.9)"></path></g></g><image xlink:href="../../F36A6F62-F7B3-45ED-9907-0EDA78A152D7/assets/DE1E635356BDAF4CACE54B5AECD8BDB7.png" width="58.00" height="12.00" transform="matrix(1.00, 0.00, -0.00, -1.00, 383.0, 213.0)"></image><g><clipPath id="clip0x7fd414fe0fa0"><path d="M 1.0 1.0 L 456.0 1.0 L 456.0 301.0 L 1.0 301.0 Z M 1.0 1.0 "></path></clipPath><g clip-path="url(#clip0x7fd414fe0fa0)"><text xml:space="preserve" font-family="Helvetica-Bold,Helvetica" font-weight="bold" font-size="22.0" fill="#FFFFFF" transform="matrix(0.40, 0.00, -0.00, -0.40, 385.2, 204.6)">c</text><text xml:space="preserve" font-family="Helvetica-Bold,Helvetica" font-weight="bold" font-size="22.0" fill="#FFFFFF" transform="matrix(0.40, 0.00, -0.00, -0.40, 390.2, 204.6)">o</text><text xml:space="preserve" font-family="Helvetica-Bold,Helvetica" font-weight="bold" font-size="22.0" fill="#FFFFFF" transform="matrix(0.40, 0.00, -0.00, -0.40, 395.6, 204.6)">n</text><text xml:space="preserve" font-family="Helvetica-Bold,Helvetica" font-weight="bold" font-size="22.0" fill="#FFFFFF" transform="matrix(0.40, 0.00, -0.00, -0.40, 401.0, 204.6)">t</text><text xml:space="preserve" font-family="Helvetica-Bold,Helvetica" font-weight="bold" font-size="22.0" fill="#FFFFFF" transform="matrix(0.40, 0.00, -0.00, -0.40, 404.0, 204.6)">i</text><text xml:space="preserve" font-family="Helvetica-Bold,Helvetica" font-weight="bold" font-size="22.0" fill="#FFFFFF" transform="matrix(0.40, 0.00, -0.00, -0.40, 406.5, 204.6)">n</text><text xml:space="preserve" font-family="Helvetica-Bold,Helvetica" font-weight="bold" font-size="22.0" fill="#FFFFFF" transform="matrix(0.40, 0.00, -0.00, -0.40, 411.9, 204.6)">u</text><text xml:space="preserve" font-family="Helvetica-Bold,Helvetica" font-weight="bold" font-size="22.0" fill="#FFFFFF" transform="matrix(0.40, 0.00, -0.00, -0.40, 417.3, 204.6)">a</text><text xml:space="preserve" font-family="Helvetica-Bold,Helvetica" font-weight="bold" font-size="22.0" fill="#FFFFFF" transform="matrix(0.40, 0.00, -0.00, -0.40, 422.3, 204.6)">t</text><text xml:space="preserve" font-family="Helvetica-Bold,Helvetica" font-weight="bold" font-size="22.0" fill="#FFFFFF" transform="matrix(0.40, 0.00, -0.00, -0.40, 425.3, 204.6)">i</text><text xml:space="preserve" font-family="Helvetica-Bold,Helvetica" font-weight="bold" font-size="22.0" fill="#FFFFFF" transform="matrix(0.40, 0.00, -0.00, -0.40, 427.7, 204.6)">o</text><text xml:space="preserve" font-family="Helvetica-Bold,Helvetica" font-weight="bold" font-size="22.0" fill="#FFFFFF" transform="matrix(0.40, 0.00, -0.00, -0.40, 433.2, 204.6)">n</text></g></g><g><clipPath id="clip0x7fd414fe7880"><path d="M 1.0 1.0 L 456.0 1.0 L 456.0 301.0 L 1.0 301.0 Z M 1.0 1.0 "></path></clipPath><g clip-path="url(#clip0x7fd414fe7880)"><image xlink:href="../../F36A6F62-F7B3-45ED-9907-0EDA78A152D7/assets/26D63AB0A3D55BB2EC547125617D0F43.png" width="154.00" height="154.00" transform="matrix(0.40, 0.00, -0.00, 0.40, 293.4, 88.3)"></image></g></g><g><clipPath id="clip0x7fd415a7dfe0"><path d="M 297.1 149.8 L 352.1 149.8 C 353.0 149.8 353.7 149.1 353.7 148.2 L 353.7 93.2 C 353.7 92.3 353.0 91.6 352.1 91.6 L 297.1 91.6 C 296.2 91.6 295.4 92.3 295.4 93.2 L 295.4 148.2 C 295.4 149.1 296.2 149.8 297.1 149.8 Z M 297.1 149.8 "></path></clipPath><g clip-path="url(#clip0x7fd415a7dfe0)"><g><clipPath id="clip0x7fd415a7e720"><path d="M 1.0 1.0 L 456.0 1.0 L 456.0 301.0 L 1.0 301.0 Z M 1.0 1.0 "></path></clipPath><g clip-path="url(#clip0x7fd415a7e720)"><path d="M 1.0 1.0 L 456.0 1.0 L 456.0 301.0 L 1.0 301.0 Z M 1.0 1.0 " fill="url(#gradSh6.711)"></path></g></g></g></g><g><clipPath id="clip0x7fd415ad0470"><path d="M 1.0 1.0 L 456.0 1.0 L 456.0 301.0 L 1.0 301.0 Z M 1.0 1.0 "></path></clipPath><g clip-path="url(#clip0x7fd415ad0470)"><path d="M 796.0 1222.0 L 932.0 1222.0 C 934.2 1222.0 936.0 1223.8 936.0 1226.0 L 936.0 1362.0 C 936.0 1364.2 934.2 1366.0 932.0 1366.0 L 796.0 1366.0 C 793.8 1366.0 792.0 1364.2 792.0 1362.0 L 792.0 1226.0 C 792.0 1223.8 793.8 1222.0 796.0 1222.0 Z M 796.0 1222.0 " fill="none" stroke="#A9A9A9" stroke-width="2.00" stroke-linecap="round" stroke-linejoin="round" transform="matrix(0.40, 0.00, 0.00, -0.40, -24.9, 643.9)"></path><text xml:space="preserve" font-family="Helvetica,Helvetica" font-size="24.0" fill="#5E5E5E" transform="matrix(0.40, 0.00, -0.00, -0.40, 309.4, 117.1)">c</text><text xml:space="preserve" font-family="Helvetica,Helvetica" font-size="24.0" fill="#5E5E5E" transform="matrix(0.40, 0.00, -0.00, -0.40, 314.3, 117.1)">l</text><text xml:space="preserve" font-family="Helvetica,Helvetica" font-size="24.0" fill="#5E5E5E" transform="matrix(0.40, 0.00, -0.00, -0.40, 316.5, 117.1)">o</text><text xml:space="preserve" font-family="Helvetica,Helvetica" font-size="24.0" fill="#5E5E5E" transform="matrix(0.40, 0.00, -0.00, -0.40, 321.9, 117.1)">s</text><text xml:space="preserve" font-family="Helvetica,Helvetica" font-size="24.0" fill="#5E5E5E" transform="matrix(0.40, 0.00, -0.00, -0.40, 326.7, 117.1)">i</text><text xml:space="preserve" font-family="Helvetica,Helvetica" font-size="24.0" fill="#5E5E5E" transform="matrix(0.40, 0.00, -0.00, -0.40, 328.9, 117.1)">n</text><text xml:space="preserve" font-family="Helvetica,Helvetica" font-size="24.0" fill="#5E5E5E" transform="matrix(0.40, 0.00, -0.00, -0.40, 334.3, 117.1)">g</text><path d="M 72.0 1078.0 L 124.1 1078.0 " fill="none" stroke="#000000" stroke-width="4.00" stroke-linecap="round" stroke-linejoin="round" transform="matrix(0.40, 0.00, 0.00, -0.40, -24.9, 643.9)"></path><path d="M 30.5 208.0 L 25.3 209.9 L 25.3 206.1 Z M 30.5 208.0 " fill="#000000"></path><path d="M 136.9 1078.0 L 124.1 1073.2 L 124.1 1082.8 Z M 136.9 1078.0 " fill="none" stroke="#000000" stroke-width="4.00" transform="matrix(0.40, 0.00, 0.00, -0.40, -24.9, 643.9)"></path><path d="M 289.0 1078.0 L 340.1 1078.0 " fill="none" stroke="#000000" stroke-width="4.00" stroke-linecap="round" stroke-linejoin="round" transform="matrix(0.40, 0.00, 0.00, -0.40, -24.9, 643.9)"></path><path d="M 117.8 208.0 L 112.7 209.9 L 112.7 206.1 Z M 117.8 208.0 " fill="#000000"></path><path d="M 352.9 1078.0 L 340.1 1073.2 L 340.1 1082.8 Z M 352.9 1078.0 " fill="none" stroke="#000000" stroke-width="4.00" transform="matrix(0.40, 0.00, 0.00, -0.40, -24.9, 643.9)"></path><path d="M 505.0 1078.0 L 556.1 1078.0 " fill="none" stroke="#000000" stroke-width="4.00" stroke-linecap="round" stroke-linejoin="round" transform="matrix(0.40, 0.00, 0.00, -0.40, -24.9, 643.9)"></path><path d="M 205.2 208.0 L 200.0 209.9 L 200.0 206.1 Z M 205.2 208.0 " fill="#000000"></path><path d="M 568.9 1078.0 L 556.1 1073.2 L 556.1 1082.8 Z M 568.9 1078.0 " fill="none" stroke="#000000" stroke-width="4.00" transform="matrix(0.40, 0.00, 0.00, -0.40, -24.9, 643.9)"></path><path d="M 721.0 1078.0 L 772.1 1078.0 " fill="none" stroke="#000000" stroke-width="4.00" stroke-linecap="round" stroke-linejoin="round" transform="matrix(0.40, 0.00, 0.00, -0.40, -24.9, 643.9)"></path><path d="M 292.6 208.0 L 287.4 209.9 L 287.4 206.1 Z M 292.6 208.0 " fill="#000000"></path><path d="M 784.9 1078.0 L 772.1 1073.2 L 772.1 1082.8 Z M 784.9 1078.0 " fill="none" stroke="#000000" stroke-width="4.00" transform="matrix(0.40, 0.00, 0.00, -0.40, -24.9, 643.9)"></path><path d="M 937.0 1078.3 L 989.1 1078.4 " fill="none" stroke="#000000" stroke-width="4.00" stroke-linecap="round" stroke-linejoin="round" transform="matrix(0.40, 0.00, 0.00, -0.40, -24.9, 643.9)"></path><path d="M 380.3 207.9 L 375.2 209.8 L 375.2 205.9 Z M 380.3 207.9 " fill="#000000"></path><path d="M 1001.9 1078.4 L 989.1 1073.6 L 989.1 1083.2 Z M 1001.9 1078.4 " fill="none" stroke="#000000" stroke-width="4.00" transform="matrix(0.40, 0.00, 0.00, -0.40, -24.9, 643.9)"></path><path d="M 719.5 1149.9 L 779.1 1209.4 " fill="none" stroke="#000000" stroke-width="4.00" stroke-linecap="round" stroke-linejoin="round" transform="matrix(0.40, 0.00, 0.00, -0.40, -24.9, 643.9)"></path><path d="M 293.9 151.2 L 291.6 156.2 L 288.8 153.5 Z M 293.9 151.2 " fill="#000000"></path><path d="M 788.2 1218.5 L 782.5 1206.0 L 775.7 1212.8 Z M 788.2 1218.5 " fill="none" stroke="#000000" stroke-width="4.00" transform="matrix(0.40, 0.00, 0.00, -0.40, -24.9, 643.9)"></path><path d="M 864.0 1151.3 L 864.0 1202.4 " fill="none" stroke="#000000" stroke-width="4.00" stroke-linecap="round" stroke-linejoin="round" transform="matrix(0.40, 0.00, 0.00, -0.40, -24.9, 643.9)"></path><path d="M 324.6 152.5 L 326.5 157.7 L 322.6 157.7 Z M 324.6 152.5 " fill="#000000"></path><path d="M 864.0 1215.2 L 868.8 1202.4 L 859.2 1202.4 Z M 864.0 1215.2 " fill="none" stroke="#000000" stroke-width="4.00" transform="matrix(0.40, 0.00, 0.00, -0.40, -24.9, 643.9)"></path><path d="M 1008.5 1149.9 L 948.9 1209.4 " fill="none" stroke="#000000" stroke-width="4.00" stroke-linecap="round" stroke-linejoin="round" transform="matrix(0.40, 0.00, 0.00, -0.40, -24.9, 643.9)"></path><path d="M 355.2 151.2 L 360.3 153.5 L 357.5 156.2 Z M 355.2 151.2 " fill="#000000"></path><path d="M 939.9 1218.5 L 952.3 1212.8 L 945.5 1206.0 Z M 939.9 1218.5 " fill="none" stroke="#000000" stroke-width="4.00" transform="matrix(0.40, 0.00, 0.00, -0.40, -24.9, 643.9)"></path><path d="M 900.0 1006.3 C 912.0 982.3 942.0 953.8 936.0 934.3 C 930.0 914.8 888.0 889.3 864.0 889.3 C 840.0 889.3 798.0 914.8 792.0 934.3 C 787.3 949.6 804.7 970.4 818.2 990.2 " fill="none" stroke="#000000" stroke-width="4.00" stroke-linecap="round" stroke-linejoin="round" transform="matrix(0.40, 0.00, 0.00, -0.40, -24.9, 643.9)"></path><path d="M 308.7 239.1 L 307.7 244.5 L 304.4 242.5 Z M 308.7 239.1 " fill="#000000"></path><path d="M 824.8 1001.1 L 822.3 987.7 L 814.1 992.7 Z M 824.8 1001.1 " fill="none" stroke="#000000" stroke-width="4.00" transform="matrix(0.40, 0.00, 0.00, -0.40, -24.9, 643.9)"></path><path d="M 1116.8 1006.3 C 1128.8 982.3 1158.8 953.8 1152.8 934.3 C 1146.8 914.8 1104.8 889.3 1080.8 889.3 C 1056.8 889.3 1014.8 914.8 1008.8 934.3 C 1004.1 949.6 1021.4 970.4 1035.0 990.2 " fill="none" stroke="#000000" stroke-width="4.00" stroke-linecap="round" stroke-linejoin="round" transform="matrix(0.40, 0.00, 0.00, -0.40, -24.9, 643.9)"></path><path d="M 396.4 239.1 L 395.4 244.5 L 392.0 242.5 Z M 396.4 239.1 " fill="#000000"></path><path d="M 1041.6 1001.1 L 1039.1 987.7 L 1030.9 992.7 Z M 1041.6 1001.1 " fill="none" stroke="#000000" stroke-width="4.00" transform="matrix(0.40, 0.00, 0.00, -0.40, -24.9, 643.9)"></path><path d="M 1150.8 1007.5 C 1160.2 980.1 1190.8 949.5 1179.0 925.3 C 1167.2 901.1 1132.5 872.8 1080.0 862.3 C 1027.5 851.8 916.5 853.3 864.0 862.3 C 811.5 871.3 776.9 892.3 765.0 916.3 C 755.4 935.8 773.6 963.3 785.8 989.0 " fill="none" stroke="#000000" stroke-width="4.00" stroke-linecap="round" stroke-linejoin="round" transform="matrix(0.40, 0.00, 0.00, -0.40, -24.9, 643.9)"></path><path d="M 294.9 239.2 L 294.7 244.7 L 291.1 243.3 Z M 294.9 239.2 " fill="#000000"></path><path d="M 790.6 1000.9 L 790.2 987.2 L 781.3 990.8 Z M 790.6 1000.9 " fill="none" stroke="#000000" stroke-width="4.00" transform="matrix(0.40, 0.00, 0.00, -0.40, -24.9, 643.9)"></path><image xlink:href="../../F36A6F62-F7B3-45ED-9907-0EDA78A152D7/assets/26D63AB0A3D55BB2EC547125617D0F43.png" width="154.00" height="154.00" transform="matrix(0.40, 0.00, -0.00, 0.40, 293.4, 1.0)"></image></g></g><g><clipPath id="clip0x7fd414c4ae20"><path d="M 297.1 62.5 L 352.1 62.5 C 353.0 62.5 353.7 61.7 353.7 60.8 L 353.7 5.9 C 353.7 5.0 353.0 4.2 352.1 4.2 L 297.1 4.2 C 296.2 4.2 295.4 5.0 295.4 5.9 L 295.4 60.8 C 295.4 61.7 296.2 62.5 297.1 62.5 Z M 297.1 62.5 "></path></clipPath><g clip-path="url(#clip0x7fd414c4ae20)"><g><clipPath id="clip0x7fd414c4b740"><path d="M 1.0 1.0 L 456.0 1.0 L 456.0 301.0 L 1.0 301.0 Z M 1.0 1.0 "></path></clipPath><g clip-path="url(#clip0x7fd414c4b740)"><path d="M 1.0 1.0 L 456.0 1.0 L 456.0 301.0 L 1.0 301.0 Z M 1.0 1.0 " fill="url(#gradSh7.712)"></path></g></g></g></g><g><clipPath id="clip0x7fd414c9cde0"><path d="M 1.0 1.0 L 456.0 1.0 L 456.0 301.0 L 1.0 301.0 Z M 1.0 1.0 "></path></clipPath><g clip-path="url(#clip0x7fd414c9cde0)"><path d="M 796.0 1438.0 L 932.0 1438.0 C 934.2 1438.0 936.0 1439.8 936.0 1442.0 L 936.0 1578.0 C 936.0 1580.2 934.2 1582.0 932.0 1582.0 L 796.0 1582.0 C 793.8 1582.0 792.0 1580.2 792.0 1578.0 L 792.0 1442.0 C 792.0 1439.8 793.8 1438.0 796.0 1438.0 Z M 796.0 1438.0 " fill="none" stroke="#A9A9A9" stroke-width="2.00" stroke-linecap="round" stroke-linejoin="round" transform="matrix(0.40, 0.00, 0.00, -0.40, -24.9, 643.9)"></path><text xml:space="preserve" font-family="Helvetica,Helvetica" font-size="24.0" fill="#5E5E5E" transform="matrix(0.40, 0.00, -0.00, -0.40, 304.3, 29.8)">t</text><text xml:space="preserve" font-family="Helvetica,Helvetica" font-size="24.0" fill="#5E5E5E" transform="matrix(0.40, 0.00, -0.00, -0.40, 307.0, 29.8)">e</text><text xml:space="preserve" font-family="Helvetica,Helvetica" font-size="24.0" fill="#5E5E5E" transform="matrix(0.40, 0.00, -0.00, -0.40, 312.4, 29.8)">r</text><text xml:space="preserve" font-family="Helvetica,Helvetica" font-size="24.0" fill="#5E5E5E" transform="matrix(0.40, 0.00, -0.00, -0.40, 315.7, 29.8)">m</text><text xml:space="preserve" font-family="Helvetica,Helvetica" font-size="24.0" fill="#5E5E5E" transform="matrix(0.40, 0.00, -0.00, -0.40, 323.7, 29.8)">i</text><text xml:space="preserve" font-family="Helvetica,Helvetica" font-size="24.0" fill="#5E5E5E" transform="matrix(0.40, 0.00, -0.00, -0.40, 325.9, 29.8)">n</text><text xml:space="preserve" font-family="Helvetica,Helvetica" font-size="24.0" fill="#5E5E5E" transform="matrix(0.40, 0.00, -0.00, -0.40, 331.3, 29.8)">a</text><text xml:space="preserve" font-family="Helvetica,Helvetica" font-size="24.0" fill="#5E5E5E" transform="matrix(0.40, 0.00, -0.00, -0.40, 336.7, 29.8)">t</text><text xml:space="preserve" font-family="Helvetica,Helvetica" font-size="24.0" fill="#5E5E5E" transform="matrix(0.40, 0.00, -0.00, -0.40, 339.4, 29.8)">e</text><path d="M 864.0 1367.3 L 864.0 1418.4 " fill="none" stroke="#000000" stroke-width="4.00" stroke-linecap="round" stroke-linejoin="round" transform="matrix(0.40, 0.00, 0.00, -0.40, -24.9, 643.9)"></path><path d="M 324.6 65.2 L 326.5 70.4 L 322.6 70.4 Z M 324.6 65.2 " fill="#000000"></path><path d="M 864.0 1431.2 L 868.8 1418.4 L 859.2 1418.4 Z M 864.0 1431.2 " fill="none" stroke="#000000" stroke-width="4.00" transform="matrix(0.40, 0.00, 0.00, -0.40, -24.9, 643.9)"></path><image xlink:href="../../F36A6F62-F7B3-45ED-9907-0EDA78A152D7/assets/26D63AB0A3D55BB2EC547125617D0F43.png" width="154.00" height="154.00" transform="matrix(0.40, 0.00, -0.00, 0.40, 293.4, 175.3)"></image></g></g><g><clipPath id="clip0x7fd415ae3d00"><path d="M 297.1 236.3 L 352.1 236.3 C 353.0 236.3 353.7 235.6 353.7 234.7 L 353.7 179.7 C 353.7 178.8 353.0 178.1 352.1 178.1 L 297.1 178.1 C 296.2 178.1 295.4 178.8 295.4 179.7 L 295.4 234.7 C 295.4 235.6 296.2 236.3 297.1 236.3 Z M 297.1 236.3 "></path></clipPath><g clip-path="url(#clip0x7fd415ae3d00)"><g><clipPath id="clip0x7fd415ae4870"><path d="M 1.0 1.0 L 456.0 1.0 L 456.0 301.0 L 1.0 301.0 Z M 1.0 1.0 "></path></clipPath><g clip-path="url(#clip0x7fd415ae4870)"><path d="M 1.0 1.0 L 456.0 1.0 L 456.0 301.0 L 1.0 301.0 Z M 1.0 1.0 " fill="url(#gradSh8.713)"></path></g></g></g></g><g><clipPath id="clip0x7fd415b3b010"><path d="M 1.0 1.0 L 456.0 1.0 L 456.0 301.0 L 1.0 301.0 Z M 1.0 1.0 "></path></clipPath><g clip-path="url(#clip0x7fd415b3b010)"><path d="M 796.0 1008.0 L 932.0 1008.0 C 934.2 1008.0 936.0 1009.8 936.0 1012.0 L 936.0 1148.0 C 936.0 1150.2 934.2 1152.0 932.0 1152.0 L 796.0 1152.0 C 793.8 1152.0 792.0 1150.2 792.0 1148.0 L 792.0 1012.0 C 792.0 1009.8 793.8 1008.0 796.0 1008.0 Z M 796.0 1008.0 " fill="none" stroke="#AE653C" stroke-width="2.00" stroke-linecap="round" stroke-linejoin="round" transform="matrix(0.40, 0.00, 0.00, -0.40, -24.9, 643.9)"></path></g></g><image xlink:href="../../F36A6F62-F7B3-45ED-9907-0EDA78A152D7/assets/49FB07AA7CAA79919EAEA10594472DDC.png" width="53.00" height="12.00" transform="matrix(1.00, 0.00, -0.00, -1.00, 298.0, 212.0)"></image><g><clipPath id="clip0x7fd415b3d400"><path d="M 1.0 1.0 L 456.0 1.0 L 456.0 301.0 L 1.0 301.0 Z M 1.0 1.0 "></path></clipPath><g clip-path="url(#clip0x7fd415b3d400)"><text xml:space="preserve" font-family="Helvetica-Bold,Helvetica" font-weight="bold" font-size="24.0" fill="#FFFFFF" transform="matrix(0.40, 0.00, -0.00, -0.40, 300.3, 203.8)">c</text><text xml:space="preserve" font-family="Helvetica-Bold,Helvetica" font-weight="bold" font-size="24.0" fill="#FFFFFF" transform="matrix(0.40, 0.00, -0.00, -0.40, 305.7, 203.8)">o</text><text xml:space="preserve" font-family="Helvetica-Bold,Helvetica" font-weight="bold" font-size="24.0" fill="#FFFFFF" transform="matrix(0.40, 0.00, -0.00, -0.40, 311.6, 203.8)">n</text><text xml:space="preserve" font-family="Helvetica-Bold,Helvetica" font-weight="bold" font-size="24.0" fill="#FFFFFF" transform="matrix(0.40, 0.00, -0.00, -0.40, 317.5, 203.8)">n</text><text xml:space="preserve" font-family="Helvetica-Bold,Helvetica" font-weight="bold" font-size="24.0" fill="#FFFFFF" transform="matrix(0.40, 0.00, -0.00, -0.40, 323.5, 203.8)">e</text><text xml:space="preserve" font-family="Helvetica-Bold,Helvetica" font-weight="bold" font-size="24.0" fill="#FFFFFF" transform="matrix(0.40, 0.00, -0.00, -0.40, 328.9, 203.8)">c</text><text xml:space="preserve" font-family="Helvetica-Bold,Helvetica" font-weight="bold" font-size="24.0" fill="#FFFFFF" transform="matrix(0.40, 0.00, -0.00, -0.40, 334.3, 203.8)">t</text><text xml:space="preserve" font-family="Helvetica-Bold,Helvetica" font-weight="bold" font-size="24.0" fill="#FFFFFF" transform="matrix(0.40, 0.00, -0.00, -0.40, 337.5, 203.8)">e</text><text xml:space="preserve" font-family="Helvetica-Bold,Helvetica" font-weight="bold" font-size="24.0" fill="#FFFFFF" transform="matrix(0.40, 0.00, -0.00, -0.40, 342.9, 203.8)">d</text></g></g></g></svg>