<?xml version="1.0" encoding="UTF-8" standalone="no"?><svg xmlns="http://www.w3.org/2000/svg" xmlns:xlink="http://www.w3.org/1999/xlink" clip-rule="evenodd" stroke-miterlimit="10" viewBox="0 0 225 225"><desc>SVG generated by Keynote</desc><defs></defs><g transform="matrix(1.00, 0.00, -0.00, -1.00, 0.0, 225.0)"><g><clipPath id="clip0x7fd43537f4c0"><path d="M 1.0 1.0 L 224.0 1.0 L 224.0 223.0 L 1.0 223.0 Z M 1.0 1.0 "></path></clipPath><g clip-path="url(#clip0x7fd43537f4c0)"><path d="M 220.4 132.1 C 219.3 179.7 171.5 218.3 112.5 218.3 C 53.5 218.3 5.7 179.7 5.7 131.9 C 5.7 91.2 40.8 57.0 87.8 48.1 C 83.9 32.7 77.6 14.6 67.6 5.7 C 86.9 5.7 105.9 26.9 119.0 45.8 C 174.9 48.5 220.4 86.1 220.4 132.1 Z M 219.3 131.9 " fill="#FEFFFF"></path><path d="M 621.5 63.5 C 621.0 43.3 600.9 27.0 576.0 27.0 C 551.1 27.0 531.0 43.3 531.0 63.6 C 531.0 80.8 545.8 95.3 565.6 99.1 C 564.0 105.6 561.3 113.2 557.1 117.0 C 565.2 117.0 573.2 108.0 578.7 100.0 C 602.3 98.9 621.5 83.0 621.5 63.5 Z M 621.0 63.6 " fill="none" stroke="#000000" stroke-width="1.00" stroke-linecap="round" stroke-linejoin="round" transform="matrix(2.37, 0.00, 0.00, -2.36, -1254.0, 282.0)"></path><text xml:space="preserve" font-family="HelveticaNeue,Helvetica Neue" font-size="16.0" fill="#000000" transform="matrix(2.37, 0.00, -0.00, -2.36, 50.6, 138.2)">I</text><text xml:space="preserve" font-family="HelveticaNeue,Helvetica Neue" font-size="16.0" fill="#000000" transform="matrix(2.37, 0.00, -0.00, -2.36, 60.4, 138.2)">’</text><text xml:space="preserve" font-family="HelveticaNeue,Helvetica Neue" font-size="16.0" fill="#000000" transform="matrix(2.37, 0.00, -0.00, -2.36, 71.0, 138.2)">m</text><text xml:space="preserve" font-family="HelveticaNeue,Helvetica Neue" font-size="16.0" fill="#000000" transform="matrix(2.37, 0.00, -0.00, -2.36, 103.4, 138.2)"> </text><text xml:space="preserve" font-family="HelveticaNeue,Helvetica Neue" font-size="16.0" fill="#000000" transform="matrix(2.37, 0.00, -0.00, -2.36, 113.9, 138.2)">j</text><text xml:space="preserve" font-family="HelveticaNeue,Helvetica Neue" font-size="16.0" fill="#000000" transform="matrix(2.37, 0.00, -0.00, -2.36, 122.3, 138.2)">u</text><text xml:space="preserve" font-family="HelveticaNeue,Helvetica Neue" font-size="16.0" fill="#000000" transform="matrix(2.37, 0.00, -0.00, -2.36, 143.5, 138.2)">s</text><text xml:space="preserve" font-family="HelveticaNeue,Helvetica Neue" font-size="16.0" fill="#000000" transform="matrix(2.37, 0.00, -0.00, -2.36, 162.4, 138.2)">t</text><text xml:space="preserve" font-family="HelveticaNeue,Helvetica Neue" font-size="16.0" fill="#000000" transform="matrix(2.37, 0.00, -0.00, -2.36, 174.4, 138.2)"> </text><text xml:space="preserve" font-family="HelveticaNeue,Helvetica Neue" font-size="16.0" fill="#000000" transform="matrix(2.37, 0.00, -0.00, -2.36, 64.7, 95.7)">o</text><text xml:space="preserve" font-family="HelveticaNeue,Helvetica Neue" font-size="16.0" fill="#000000" transform="matrix(2.37, 0.00, -0.00, -2.36, 86.5, 95.7)">p</text><text xml:space="preserve" font-family="HelveticaNeue,Helvetica Neue" font-size="16.0" fill="#000000" transform="matrix(2.37, 0.00, -0.00, -2.36, 109.0, 95.7)">e</text><text xml:space="preserve" font-family="HelveticaNeue,Helvetica Neue" font-size="16.0" fill="#000000" transform="matrix(2.37, 0.00, -0.00, -2.36, 129.4, 95.7)">n</text><text xml:space="preserve" font-family="HelveticaNeue,Helvetica Neue" font-size="16.0" fill="#000000" transform="matrix(2.37, 0.00, -0.00, -2.36, 150.5, 95.7)">!</text></g></g></g></svg>