<?xml version="1.0" encoding="UTF-8" standalone="no"?><svg xmlns="http://www.w3.org/2000/svg" xmlns:xlink="http://www.w3.org/1999/xlink" clip-rule="evenodd" stroke-miterlimit="10" viewBox="0 0 1920 1080"><desc>SVG generated by Keynote</desc><defs></defs><g transform="matrix(1.00, 0.00, -0.00, -1.00, 0.0, 1080.0)"><path d="M 0.0 1080.0 L 1920.0 1080.0 L 1920.0 0.0 L 0.0 0.0 Z M 0.0 1080.0 " fill="#FEFFFF"></path><text xml:space="preserve" font-family="SourceSansPro-Regular,Source Sans Pro" font-size="112.0" fill="#000000" transform="matrix(1.00, 0.00, -0.00, -1.00, 518.3, 499.6)">T</text><text xml:space="preserve" font-family="SourceSansPro-Regular,Source Sans Pro" font-size="112.0" fill="#000000" transform="matrix(1.00, 0.00, -0.00, -1.00, 578.4, 499.6)">h</text><text xml:space="preserve" font-family="SourceSansPro-Regular,Source Sans Pro" font-size="112.0" fill="#000000" transform="matrix(1.00, 0.00, -0.00, -1.00, 639.3, 499.6)">e</text><text xml:space="preserve" font-family="SourceSansPro-Regular,Source Sans Pro" font-size="112.0" fill="#000000" transform="matrix(1.00, 0.00, -0.00, -1.00, 694.8, 499.6)"> </text><text xml:space="preserve" font-family="SourceSansPro-Regular,Source Sans Pro" font-size="112.0" fill="#000000" transform="matrix(1.00, 0.00, -0.00, -1.00, 717.5, 499.6)">G</text><text xml:space="preserve" font-family="SourceSansPro-Regular,Source Sans Pro" font-size="112.0" fill="#000000" transform="matrix(1.00, 0.00, -0.00, -1.00, 786.6, 499.6)">e</text><text xml:space="preserve" font-family="SourceSansPro-Regular,Source Sans Pro" font-size="112.0" fill="#000000" transform="matrix(1.00, 0.00, -0.00, -1.00, 842.1, 499.6)">n</text><text xml:space="preserve" font-family="SourceSansPro-Regular,Source Sans Pro" font-size="112.0" fill="#000000" transform="matrix(1.00, 0.00, -0.00, -1.00, 903.4, 499.6)">e</text><text xml:space="preserve" font-family="SourceSansPro-Regular,Source Sans Pro" font-size="112.0" fill="#000000" transform="matrix(1.00, 0.00, -0.00, -1.00, 958.9, 499.6)">r</text><text xml:space="preserve" font-family="SourceSansPro-Regular,Source Sans Pro" font-size="112.0" fill="#000000" transform="matrix(1.00, 0.00, -0.00, -1.00, 997.8, 499.6)">i</text><text xml:space="preserve" font-family="SourceSansPro-Regular,Source Sans Pro" font-size="112.0" fill="#000000" transform="matrix(1.00, 0.00, -0.00, -1.00, 1025.4, 499.6)">c</text><text xml:space="preserve" font-family="SourceSansPro-Regular,Source Sans Pro" font-size="112.0" fill="#000000" transform="matrix(1.00, 0.00, -0.00, -1.00, 1076.4, 499.6)"> </text><text xml:space="preserve" font-family="SourceSansPro-Regular,Source Sans Pro" font-size="112.0" fill="#000000" transform="matrix(1.00, 0.00, -0.00, -1.00, 1099.0, 499.6)">S</text><text xml:space="preserve" font-family="SourceSansPro-Regular,Source Sans Pro" font-size="112.0" fill="#000000" transform="matrix(1.00, 0.00, -0.00, -1.00, 1158.9, 499.6)">e</text><text xml:space="preserve" font-family="SourceSansPro-Regular,Source Sans Pro" font-size="112.0" fill="#000000" transform="matrix(1.00, 0.00, -0.00, -1.00, 1214.4, 499.6)">r</text><text xml:space="preserve" font-family="SourceSansPro-Regular,Source Sans Pro" font-size="112.0" fill="#000000" transform="matrix(1.00, 0.00, -0.00, -1.00, 1255.4, 499.6)">v</text><text xml:space="preserve" font-family="SourceSansPro-Regular,Source Sans Pro" font-size="112.0" fill="#000000" transform="matrix(1.00, 0.00, -0.00, -1.00, 1307.3, 499.6)">e</text><text xml:space="preserve" font-family="SourceSansPro-Regular,Source Sans Pro" font-size="112.0" fill="#000000" transform="matrix(1.00, 0.00, -0.00, -1.00, 1362.8, 499.6)">r</text><text xml:space="preserve" font-family="Courier-Bold,Courier" font-weight="bold" font-size="50.0" fill="#000000" transform="matrix(1.00, 0.00, -0.00, -1.00, 675.5, 412.0)">g</text><text xml:space="preserve" font-family="Courier-Bold,Courier" font-weight="bold" font-size="50.0" fill="#000000" transform="matrix(1.00, 0.00, -0.00, -1.00, 705.5, 412.0)">e</text><text xml:space="preserve" font-family="Courier-Bold,Courier" font-weight="bold" font-size="50.0" fill="#000000" transform="matrix(1.00, 0.00, -0.00, -1.00, 735.5, 412.0)">n</text><text xml:space="preserve" font-family="Courier-Bold,Courier" font-weight="bold" font-size="50.0" fill="#000000" transform="matrix(1.00, 0.00, -0.00, -1.00, 765.5, 412.0)">_</text><text xml:space="preserve" font-family="Courier-Bold,Courier" font-weight="bold" font-size="50.0" fill="#000000" transform="matrix(1.00, 0.00, -0.00, -1.00, 795.5, 412.0)">s</text><text xml:space="preserve" font-family="Courier-Bold,Courier" font-weight="bold" font-size="50.0" fill="#000000" transform="matrix(1.00, 0.00, -0.00, -1.00, 825.5, 412.0)">e</text><text xml:space="preserve" font-family="Courier-Bold,Courier" font-weight="bold" font-size="50.0" fill="#000000" transform="matrix(1.00, 0.00, -0.00, -1.00, 855.5, 412.0)">r</text><text xml:space="preserve" font-family="Courier-Bold,Courier" font-weight="bold" font-size="50.0" fill="#000000" transform="matrix(1.00, 0.00, -0.00, -1.00, 885.5, 412.0)">v</text><text xml:space="preserve" font-family="Courier-Bold,Courier" font-weight="bold" font-size="50.0" fill="#000000" transform="matrix(1.00, 0.00, -0.00, -1.00, 915.5, 412.0)">e</text><text xml:space="preserve" font-family="Courier-Bold,Courier" font-weight="bold" font-size="50.0" fill="#000000" transform="matrix(1.00, 0.00, -0.00, -1.00, 945.5, 412.0)">r</text><text xml:space="preserve" font-family="SourceSansPro-Regular,Source Sans Pro" font-size="50.0" fill="#000000" transform="matrix(1.00, 0.00, -0.00, -1.00, 975.5, 412.0)"> </text><text xml:space="preserve" font-family="SourceSansPro-Regular,Source Sans Pro" font-size="50.0" fill="#000000" transform="matrix(1.00, 0.00, -0.00, -1.00, 985.6, 412.0)">t</text><text xml:space="preserve" font-family="SourceSansPro-Regular,Source Sans Pro" font-size="50.0" fill="#000000" transform="matrix(1.00, 0.00, -0.00, -1.00, 1002.0, 412.0)">o</text><text xml:space="preserve" font-family="SourceSansPro-Regular,Source Sans Pro" font-size="50.0" fill="#000000" transform="matrix(1.00, 0.00, -0.00, -1.00, 1029.1, 412.0)"> </text><text xml:space="preserve" font-family="SourceSansPro-Regular,Source Sans Pro" font-size="50.0" fill="#000000" transform="matrix(1.00, 0.00, -0.00, -1.00, 1039.2, 412.0)">i</text><text xml:space="preserve" font-family="SourceSansPro-Regular,Source Sans Pro" font-size="50.0" fill="#000000" transform="matrix(1.00, 0.00, -0.00, -1.00, 1051.5, 412.0)">t</text><text xml:space="preserve" font-family="SourceSansPro-Regular,Source Sans Pro" font-size="50.0" fill="#000000" transform="matrix(1.00, 0.00, -0.00, -1.00, 1068.4, 412.0)">s</text><text xml:space="preserve" font-family="SourceSansPro-Regular,Source Sans Pro" font-size="50.0" fill="#000000" transform="matrix(1.00, 0.00, -0.00, -1.00, 1089.3, 412.0)"> </text><text xml:space="preserve" font-family="SourceSansPro-Regular,Source Sans Pro" font-size="50.0" fill="#000000" transform="matrix(1.00, 0.00, -0.00, -1.00, 1099.4, 412.0)">f</text><text xml:space="preserve" font-family="SourceSansPro-Regular,Source Sans Pro" font-size="50.0" fill="#000000" transform="matrix(1.00, 0.00, -0.00, -1.00, 1114.0, 412.0)">r</text><text xml:space="preserve" font-family="SourceSansPro-Regular,Source Sans Pro" font-size="50.0" fill="#000000" transform="matrix(1.00, 0.00, -0.00, -1.00, 1131.4, 412.0)">i</text><text xml:space="preserve" font-family="SourceSansPro-Regular,Source Sans Pro" font-size="50.0" fill="#000000" transform="matrix(1.00, 0.00, -0.00, -1.00, 1143.7, 412.0)">e</text><text xml:space="preserve" font-family="SourceSansPro-Regular,Source Sans Pro" font-size="50.0" fill="#000000" transform="matrix(1.00, 0.00, -0.00, -1.00, 1168.5, 412.0)">n</text><text xml:space="preserve" font-family="SourceSansPro-Regular,Source Sans Pro" font-size="50.0" fill="#000000" transform="matrix(1.00, 0.00, -0.00, -1.00, 1195.8, 412.0)">d</text><text xml:space="preserve" font-family="SourceSansPro-Regular,Source Sans Pro" font-size="50.0" fill="#000000" transform="matrix(1.00, 0.00, -0.00, -1.00, 1223.6, 412.0)">s</text></g></svg>