<?xml version="1.0" encoding="UTF-8" standalone="no"?><svg xmlns="http://www.w3.org/2000/svg" xmlns:xlink="http://www.w3.org/1999/xlink" clip-rule="evenodd" stroke-miterlimit="10" viewBox="0 0 1920 1080"><desc>SVG generated by Keynote</desc><defs></defs><g transform="matrix(1.00, 0.00, -0.00, -1.00, 0.0, 1080.0)"><path d="M 0.0 1080.0 L 1920.0 1080.0 L 1920.0 0.0 L 0.0 0.0 Z M 0.0 1080.0 " fill="#FEFFFF"></path><image xlink:href="../../5FECB2D0-57FD-4EF7-9869-0BE9BE3740D7/assets/F353B4268883FAB680BECB1C5C925F3D.png" width="3418.00" height="2244.00" transform="matrix(0.59, 0.00, -0.00, -0.59, -55.0, 1088.0)"></image><text xml:space="preserve" font-family="SourceSansPro-Regular,Source Sans Pro" font-size="112.0" fill="#FEFFFE" transform="matrix(1.00, 0.00, -0.00, -1.00, 487.2, 865.6)">C</text><text xml:space="preserve" font-family="SourceSansPro-Regular,Source Sans Pro" font-size="112.0" fill="#FEFFFE" transform="matrix(1.00, 0.00, -0.00, -1.00, 551.2, 865.6)">o</text><text xml:space="preserve" font-family="SourceSansPro-Regular,Source Sans Pro" font-size="112.0" fill="#FEFFFE" transform="matrix(1.00, 0.00, -0.00, -1.00, 611.9, 865.6)">n</text><text xml:space="preserve" font-family="SourceSansPro-Regular,Source Sans Pro" font-size="112.0" fill="#FEFFFE" transform="matrix(1.00, 0.00, -0.00, -1.00, 673.2, 865.6)">n</text><text xml:space="preserve" font-family="SourceSansPro-Regular,Source Sans Pro" font-size="112.0" fill="#FEFFFE" transform="matrix(1.00, 0.00, -0.00, -1.00, 734.4, 865.6)">e</text><text xml:space="preserve" font-family="SourceSansPro-Regular,Source Sans Pro" font-size="112.0" fill="#FEFFFE" transform="matrix(1.00, 0.00, -0.00, -1.00, 790.0, 865.6)">c</text><text xml:space="preserve" font-family="SourceSansPro-Regular,Source Sans Pro" font-size="112.0" fill="#FEFFFE" transform="matrix(1.00, 0.00, -0.00, -1.00, 841.1, 865.6)">t</text><text xml:space="preserve" font-family="SourceSansPro-Regular,Source Sans Pro" font-size="112.0" fill="#FEFFFE" transform="matrix(1.00, 0.00, -0.00, -1.00, 878.9, 865.6)">i</text><text xml:space="preserve" font-family="SourceSansPro-Regular,Source Sans Pro" font-size="112.0" fill="#FEFFFE" transform="matrix(1.00, 0.00, -0.00, -1.00, 906.5, 865.6)">o</text><text xml:space="preserve" font-family="SourceSansPro-Regular,Source Sans Pro" font-size="112.0" fill="#FEFFFE" transform="matrix(1.00, 0.00, -0.00, -1.00, 967.2, 865.6)">n</text><text xml:space="preserve" font-family="SourceSansPro-Regular,Source Sans Pro" font-size="112.0" fill="#FEFFFE" transform="matrix(1.00, 0.00, -0.00, -1.00, 1028.4, 865.6)"> </text><text xml:space="preserve" font-family="SourceSansPro-Regular,Source Sans Pro" font-size="112.0" fill="#FEFFFE" transform="matrix(1.00, 0.00, -0.00, -1.00, 1051.1, 865.6)">S</text><text xml:space="preserve" font-family="SourceSansPro-Regular,Source Sans Pro" font-size="112.0" fill="#FEFFFE" transform="matrix(1.00, 0.00, -0.00, -1.00, 1110.9, 865.6)">e</text><text xml:space="preserve" font-family="SourceSansPro-Regular,Source Sans Pro" font-size="112.0" fill="#FEFFFE" transform="matrix(1.00, 0.00, -0.00, -1.00, 1164.8, 865.6)">t</text><text xml:space="preserve" font-family="SourceSansPro-Regular,Source Sans Pro" font-size="112.0" fill="#FEFFFE" transform="matrix(1.00, 0.00, -0.00, -1.00, 1202.7, 865.6)">t</text><text xml:space="preserve" font-family="SourceSansPro-Regular,Source Sans Pro" font-size="112.0" fill="#FEFFFE" transform="matrix(1.00, 0.00, -0.00, -1.00, 1240.6, 865.6)">i</text><text xml:space="preserve" font-family="SourceSansPro-Regular,Source Sans Pro" font-size="112.0" fill="#FEFFFE" transform="matrix(1.00, 0.00, -0.00, -1.00, 1268.1, 865.6)">n</text><text xml:space="preserve" font-family="SourceSansPro-Regular,Source Sans Pro" font-size="112.0" fill="#FEFFFE" transform="matrix(1.00, 0.00, -0.00, -1.00, 1329.4, 865.6)">g</text><text xml:space="preserve" font-family="SourceSansPro-Regular,Source Sans Pro" font-size="112.0" fill="#FEFFFE" transform="matrix(1.00, 0.00, -0.00, -1.00, 1385.8, 865.6)">s</text></g></svg>