<?xml version="1.0" encoding="UTF-8" standalone="no"?><svg xmlns="http://www.w3.org/2000/svg" xmlns:xlink="http://www.w3.org/1999/xlink" clip-rule="evenodd" stroke-miterlimit="10" viewBox="0 0 207 164"><desc>SVG generated by Keynote</desc><defs></defs><g transform="matrix(1.00, 0.00, -0.00, -1.00, 0.0, 164.0)"><g><clipPath id="clip0x7fd416c1e8d0"><path d="M 1.0 1.0 L 206.0 1.0 L 206.0 163.0 L 1.0 163.0 Z M 1.0 1.0 "></path></clipPath><g clip-path="url(#clip0x7fd416c1e8d0)"><path d="M 1208.5 204.2 C 1201.4 195.7 1194.3 186.7 1187.6 186.7 C 1178.2 186.7 1160.6 204.7 1160.6 213.7 C 1160.6 222.7 1178.2 240.7 1187.6 240.7 C 1197.0 240.7 1207.3 222.7 1217.2 213.7 " fill="none" stroke="#DE6A10" stroke-width="2.00" stroke-linecap="round" stroke-linejoin="round" transform="matrix(2.66, 0.00, 0.00, -2.66, -3079.3, 649.0)"></path><path d="M 155.3 88.0 L 145.1 113.3 L 131.0 100.3 Z M 155.3 88.0 " fill="#DE6A10"></path><path d="M 1215.0 211.2 L 1211.1 201.7 L 1205.8 206.6 Z M 1215.0 211.2 " fill="none" stroke="#DE6A10" stroke-width="2.00" transform="matrix(2.66, 0.00, 0.00, -2.66, -3079.3, 649.0)"></path></g></g></g></svg>