<?xml version="1.0" encoding="UTF-8" standalone="no"?><svg xmlns="http://www.w3.org/2000/svg" xmlns:xlink="http://www.w3.org/1999/xlink" clip-rule="evenodd" stroke-miterlimit="10" viewBox="0 0 411 885"><desc>SVG generated by Keynote</desc><defs><linearGradient id="gradSh1.776" x1="-27.0" y1="0.0" x2="27.0" y2="0.0" gradientUnits="userSpaceOnUse" gradientTransform="matrix(0.00, -1.77, -1.77, 0.00, 352.2, 764.2)"><stop offset="0.00000" stop-color="#FFFFFF"></stop><stop offset="0.01833" stop-color="#FEFEFE"></stop><stop offset="1.00000" stop-color="#E3E3E3"></stop></linearGradient><linearGradient id="gradSh2.777" x1="-27.0" y1="0.0" x2="27.0" y2="0.0" gradientUnits="userSpaceOnUse" gradientTransform="matrix(0.00, -1.77, -1.77, 0.00, 96.8, 636.6)"><stop offset="0.00000" stop-color="#FFFFFF"></stop><stop offset="0.01833" stop-color="#FEFEFE"></stop><stop offset="1.00000" stop-color="#E3E3E3"></stop></linearGradient><linearGradient id="gradSh3.778" x1="-27.0" y1="0.0" x2="27.0" y2="0.0" gradientUnits="userSpaceOnUse" gradientTransform="matrix(0.00, -1.77, -1.77, 0.00, 352.2, 62.3)"><stop offset="0.00000" stop-color="#FFFFFF"></stop><stop offset="0.01833" stop-color="#FEFEFE"></stop><stop offset="1.00000" stop-color="#E3E3E3"></stop></linearGradient><linearGradient id="gradSh4.779" x1="-27.0" y1="0.0" x2="27.0" y2="0.0" gradientUnits="userSpaceOnUse" gradientTransform="matrix(0.00, -1.77, -1.77, 0.00, 96.8, 317.5)"><stop offset="0.00000" stop-color="#FFFFFF"></stop><stop offset="0.01833" stop-color="#FEFEFE"></stop><stop offset="1.00000" stop-color="#E3E3E3"></stop></linearGradient></defs><g transform="matrix(1.00, 0.00, -0.00, -1.00, 0.0, 885.0)"><g><clipPath id="clip0x7fd417e41630"><path d="M 1.0 2.0 L 409.0 2.0 L 409.0 883.0 L 1.0 883.0 Z M 1.0 2.0 "></path></clipPath><g clip-path="url(#clip0x7fd417e41630)"><image xlink:href="../../F1FF7EF3-CAD9-4BC1-8712-9FD480625754/assets/EBCAD3594076985FF1610075B5907AFC.png" width="97.00" height="56.00" transform="matrix(1.77, 0.00, -0.00, 1.77, 137.6, 645.5)"></image><image xlink:href="../../F1FF7EF3-CAD9-4BC1-8712-9FD480625754/assets/D1A1E0F46866BDA2CD4DF2571B922AAE.png" width="19.00" height="136.00" transform="matrix(1.77, 0.00, -0.00, 1.77, 87.9, 351.2)"></image><image xlink:href="../../B02E482B-C8D7-4F1A-BA9A-94C651F35A6D/assets/84D7644A2FD201640063688427AD0FFE.png" width="110.00" height="103.00" transform="matrix(1.77, 0.00, -0.00, 1.77, 135.8, 94.2)"></image><image xlink:href="../../F1FF7EF3-CAD9-4BC1-8712-9FD480625754/assets/547EF2C5DBB5283C268CE0B96E51FE6B.png" width="184.00" height="303.00" transform="matrix(1.77, 0.00, -0.00, 1.77, 1.0, 55.2)"></image><image xlink:href="../../B02E482B-C8D7-4F1A-BA9A-94C651F35A6D/assets/076919EA92D879EB930F676B7C23C66E.png" width="19.00" height="47.00" transform="matrix(1.77, 0.00, -0.00, 1.77, 343.4, 797.9)"></image><image xlink:href="../../B02E482B-C8D7-4F1A-BA9A-94C651F35A6D/assets/252B39EF83251546609468736A34A4BF.png" width="64.00" height="64.00" transform="matrix(1.77, 0.00, -0.00, 1.77, 295.5, 704.0)"></image></g></g><g><clipPath id="clip0x7fd4180caa00"><path d="M 311.4 812.1 L 393.0 812.1 C 397.0 812.1 400.1 808.9 400.1 805.0 L 400.1 723.5 C 400.1 719.5 397.0 716.4 393.0 716.4 L 311.4 716.4 C 307.5 716.4 304.3 719.5 304.3 723.5 L 304.3 805.0 C 304.3 808.9 307.5 812.1 311.4 812.1 Z M 311.4 812.1 "></path></clipPath><g clip-path="url(#clip0x7fd4180caa00)"><g><clipPath id="clip0x7fd4180cb8f0"><path d="M 1.0 2.0 L 409.0 2.0 L 409.0 883.0 L 1.0 883.0 Z M 1.0 2.0 "></path></clipPath><g clip-path="url(#clip0x7fd4180cb8f0)"><path d="M 1.0 2.0 L 409.0 2.0 L 409.0 883.0 L 1.0 883.0 Z M 1.0 2.0 " fill="url(#gradSh1.776)"></path></g></g></g></g><g><clipPath id="clip0x7fd418120f00"><path d="M 1.0 2.0 L 409.0 2.0 L 409.0 883.0 L 1.0 883.0 Z M 1.0 2.0 "></path></clipPath><g clip-path="url(#clip0x7fd418120f00)"><path d="M 301.0 81.0 L 347.0 81.0 C 349.2 81.0 351.0 82.8 351.0 85.0 L 351.0 131.0 C 351.0 133.2 349.2 135.0 347.0 135.0 L 301.0 135.0 C 298.8 135.0 297.0 133.2 297.0 131.0 L 297.0 85.0 C 297.0 82.8 298.8 81.0 301.0 81.0 Z M 301.0 81.0 " fill="none" stroke="#AAAAAA" stroke-width="2.00" stroke-linecap="round" stroke-linejoin="round" transform="matrix(1.77, 0.00, 0.00, -1.77, -222.5, 955.7)"></path><text xml:space="preserve" font-family="Helvetica,Helvetica" font-size="10.0" fill="#616161" transform="matrix(1.77, 0.00, -0.00, -1.77, 338.4, 757.1)">i</text><text xml:space="preserve" font-family="Helvetica,Helvetica" font-size="10.0" fill="#616161" transform="matrix(1.77, 0.00, -0.00, -1.77, 342.4, 757.1)">d</text><text xml:space="preserve" font-family="Helvetica,Helvetica" font-size="10.0" fill="#616161" transform="matrix(1.77, 0.00, -0.00, -1.77, 352.2, 757.1)">l</text><text xml:space="preserve" font-family="Helvetica,Helvetica" font-size="10.0" fill="#616161" transform="matrix(1.77, 0.00, -0.00, -1.77, 356.2, 757.1)">e</text><image xlink:href="../../B02E482B-C8D7-4F1A-BA9A-94C651F35A6D/assets/252B39EF83251546609468736A34A4BF.png" width="64.00" height="64.00" transform="matrix(1.77, 0.00, -0.00, 1.77, 40.0, 576.3)"></image></g></g><g><clipPath id="clip0x7fd418125d60"><path d="M 56.0 684.5 L 137.6 684.5 C 141.5 684.5 144.7 681.3 144.7 677.4 L 144.7 595.8 C 144.7 591.9 141.5 588.7 137.6 588.7 L 56.0 588.7 C 52.1 588.7 48.9 591.9 48.9 595.8 L 48.9 677.4 C 48.9 681.3 52.1 684.5 56.0 684.5 Z M 56.0 684.5 "></path></clipPath><g clip-path="url(#clip0x7fd418125d60)"><g><clipPath id="clip0x7fd418126e30"><path d="M 1.0 2.0 L 409.0 2.0 L 409.0 883.0 L 1.0 883.0 Z M 1.0 2.0 "></path></clipPath><g clip-path="url(#clip0x7fd418126e30)"><path d="M 1.0 2.0 L 409.0 2.0 L 409.0 883.0 L 1.0 883.0 Z M 1.0 2.0 " fill="url(#gradSh2.777)"></path></g></g></g></g><g><clipPath id="clip0x7fd418178b30"><path d="M 1.0 2.0 L 409.0 2.0 L 409.0 883.0 L 1.0 883.0 Z M 1.0 2.0 "></path></clipPath><g clip-path="url(#clip0x7fd418178b30)"><path d="M 157.0 153.0 L 203.0 153.0 C 205.2 153.0 207.0 154.8 207.0 157.0 L 207.0 203.0 C 207.0 205.2 205.2 207.0 203.0 207.0 L 157.0 207.0 C 154.8 207.0 153.0 205.2 153.0 203.0 L 153.0 157.0 C 153.0 154.8 154.8 153.0 157.0 153.0 Z M 157.0 153.0 " fill="none" stroke="#AAAAAA" stroke-width="2.00" stroke-linecap="round" stroke-linejoin="round" transform="matrix(1.77, 0.00, 0.00, -1.77, -222.5, 955.7)"></path><text xml:space="preserve" font-family="Helvetica,Helvetica" font-size="10.0" fill="#616161" transform="matrix(1.77, 0.00, -0.00, -1.77, 62.3, 640.1)">r</text><text xml:space="preserve" font-family="Helvetica,Helvetica" font-size="10.0" fill="#616161" transform="matrix(1.77, 0.00, -0.00, -1.77, 68.2, 640.1)">e</text><text xml:space="preserve" font-family="Helvetica,Helvetica" font-size="10.0" fill="#616161" transform="matrix(1.77, 0.00, -0.00, -1.77, 78.1, 640.1)">s</text><text xml:space="preserve" font-family="Helvetica,Helvetica" font-size="10.0" fill="#616161" transform="matrix(1.77, 0.00, -0.00, -1.77, 86.9, 640.1)">e</text><text xml:space="preserve" font-family="Helvetica,Helvetica" font-size="10.0" fill="#616161" transform="matrix(1.77, 0.00, -0.00, -1.77, 96.8, 640.1)">r</text><text xml:space="preserve" font-family="Helvetica,Helvetica" font-size="10.0" fill="#616161" transform="matrix(1.77, 0.00, -0.00, -1.77, 102.7, 640.1)">v</text><text xml:space="preserve" font-family="Helvetica,Helvetica" font-size="10.0" fill="#616161" transform="matrix(1.77, 0.00, -0.00, -1.77, 111.6, 640.1)">e</text><text xml:space="preserve" font-family="Helvetica,Helvetica" font-size="10.0" fill="#616161" transform="matrix(1.77, 0.00, -0.00, -1.77, 121.4, 640.1)">d</text><text xml:space="preserve" font-family="Helvetica,Helvetica" font-size="10.0" fill="#616161" transform="matrix(1.77, 0.00, -0.00, -1.77, 72.6, 618.9)">(</text><text xml:space="preserve" font-family="Helvetica,Helvetica" font-size="10.0" fill="#616161" transform="matrix(1.77, 0.00, -0.00, -1.77, 78.5, 618.9)">l</text><text xml:space="preserve" font-family="Helvetica,Helvetica" font-size="10.0" fill="#616161" transform="matrix(1.77, 0.00, -0.00, -1.77, 82.5, 618.9)">o</text><text xml:space="preserve" font-family="Helvetica,Helvetica" font-size="10.0" fill="#616161" transform="matrix(1.77, 0.00, -0.00, -1.77, 92.4, 618.9)">c</text><text xml:space="preserve" font-family="Helvetica,Helvetica" font-size="10.0" fill="#616161" transform="matrix(1.77, 0.00, -0.00, -1.77, 101.2, 618.9)">a</text><text xml:space="preserve" font-family="Helvetica,Helvetica" font-size="10.0" fill="#616161" transform="matrix(1.77, 0.00, -0.00, -1.77, 111.1, 618.9)">l</text><text xml:space="preserve" font-family="Helvetica,Helvetica" font-size="10.0" fill="#616161" transform="matrix(1.77, 0.00, -0.00, -1.77, 115.0, 618.9)">)</text><image xlink:href="../../B02E482B-C8D7-4F1A-BA9A-94C651F35A6D/assets/252B39EF83251546609468736A34A4BF.png" width="64.00" height="64.00" transform="matrix(1.77, 0.00, -0.00, 1.77, 295.5, 2.0)"></image></g></g><g><clipPath id="clip0x7fd418181340"><path d="M 311.4 110.1 L 393.0 110.1 C 397.0 110.1 400.1 107.0 400.1 103.0 L 400.1 21.5 C 400.1 17.6 397.0 14.4 393.0 14.4 L 311.4 14.4 C 307.5 14.4 304.3 17.6 304.3 21.5 L 304.3 103.0 C 304.3 107.0 307.5 110.1 311.4 110.1 Z M 311.4 110.1 "></path></clipPath><g clip-path="url(#clip0x7fd418181340)"><g><clipPath id="clip0x7fd4181822e0"><path d="M 1.0 2.0 L 409.0 2.0 L 409.0 883.0 L 1.0 883.0 Z M 1.0 2.0 "></path></clipPath><g clip-path="url(#clip0x7fd4181822e0)"><path d="M 1.0 2.0 L 409.0 2.0 L 409.0 883.0 L 1.0 883.0 Z M 1.0 2.0 " fill="url(#gradSh3.778)"></path></g></g></g></g><g><clipPath id="clip0x7fd4181d3ed0"><path d="M 1.0 2.0 L 409.0 2.0 L 409.0 883.0 L 1.0 883.0 Z M 1.0 2.0 "></path></clipPath><g clip-path="url(#clip0x7fd4181d3ed0)"><path d="M 301.0 477.0 L 347.0 477.0 C 349.2 477.0 351.0 478.8 351.0 481.0 L 351.0 527.0 C 351.0 529.2 349.2 531.0 347.0 531.0 L 301.0 531.0 C 298.8 531.0 297.0 529.2 297.0 527.0 L 297.0 481.0 C 297.0 478.8 298.8 477.0 301.0 477.0 Z M 301.0 477.0 " fill="none" stroke="#AAAAAA" stroke-width="2.00" stroke-linecap="round" stroke-linejoin="round" transform="matrix(1.77, 0.00, 0.00, -1.77, -222.5, 955.7)"></path><text xml:space="preserve" font-family="Helvetica,Helvetica" font-size="10.0" fill="#616161" transform="matrix(1.77, 0.00, -0.00, -1.77, 326.6, 55.2)">c</text><text xml:space="preserve" font-family="Helvetica,Helvetica" font-size="10.0" fill="#616161" transform="matrix(1.77, 0.00, -0.00, -1.77, 335.5, 55.2)">l</text><text xml:space="preserve" font-family="Helvetica,Helvetica" font-size="10.0" fill="#616161" transform="matrix(1.77, 0.00, -0.00, -1.77, 339.4, 55.2)">o</text><text xml:space="preserve" font-family="Helvetica,Helvetica" font-size="10.0" fill="#616161" transform="matrix(1.77, 0.00, -0.00, -1.77, 349.3, 55.2)">s</text><text xml:space="preserve" font-family="Helvetica,Helvetica" font-size="10.0" fill="#616161" transform="matrix(1.77, 0.00, -0.00, -1.77, 358.1, 55.2)">e</text><text xml:space="preserve" font-family="Helvetica,Helvetica" font-size="10.0" fill="#616161" transform="matrix(1.77, 0.00, -0.00, -1.77, 368.0, 55.2)">d</text><image xlink:href="../../B02E482B-C8D7-4F1A-BA9A-94C651F35A6D/assets/252B39EF83251546609468736A34A4BF.png" width="64.00" height="64.00" transform="matrix(1.77, 0.00, -0.00, 1.77, 40.0, 257.3)"></image></g></g><g><clipPath id="clip0x7fd4181d8a20"><path d="M 56.0 365.4 L 137.6 365.4 C 141.5 365.4 144.7 362.2 144.7 358.3 L 144.7 276.8 C 144.7 272.8 141.5 269.7 137.6 269.7 L 56.0 269.7 C 52.1 269.7 48.9 272.8 48.9 276.8 L 48.9 358.3 C 48.9 362.2 52.1 365.4 56.0 365.4 Z M 56.0 365.4 "></path></clipPath><g clip-path="url(#clip0x7fd4181d8a20)"><g><clipPath id="clip0x7fd4181d9ac0"><path d="M 1.0 2.0 L 409.0 2.0 L 409.0 883.0 L 1.0 883.0 Z M 1.0 2.0 "></path></clipPath><g clip-path="url(#clip0x7fd4181d9ac0)"><path d="M 1.0 2.0 L 409.0 2.0 L 409.0 883.0 L 1.0 883.0 Z M 1.0 2.0 " fill="url(#gradSh4.779)"></path></g></g></g></g><g><clipPath id="clip0x7fd417bbf590"><path d="M 1.0 2.0 L 409.0 2.0 L 409.0 883.0 L 1.0 883.0 Z M 1.0 2.0 "></path></clipPath><g clip-path="url(#clip0x7fd417bbf590)"><path d="M 157.0 333.0 L 203.0 333.0 C 205.2 333.0 207.0 334.8 207.0 337.0 L 207.0 383.0 C 207.0 385.2 205.2 387.0 203.0 387.0 L 157.0 387.0 C 154.8 387.0 153.0 385.2 153.0 383.0 L 153.0 337.0 C 153.0 334.8 154.8 333.0 157.0 333.0 Z M 157.0 333.0 " fill="none" stroke="#AAAAAA" stroke-width="2.00" stroke-linecap="round" stroke-linejoin="round" transform="matrix(1.77, 0.00, 0.00, -1.77, -222.5, 955.7)"></path><text xml:space="preserve" font-family="Helvetica,Helvetica" font-size="10.0" fill="#616161" transform="matrix(1.77, 0.00, -0.00, -1.77, 82.5, 331.7)">h</text><text xml:space="preserve" font-family="Helvetica,Helvetica" font-size="10.0" fill="#616161" transform="matrix(1.77, 0.00, -0.00, -1.77, 92.4, 331.7)">a</text><text xml:space="preserve" font-family="Helvetica,Helvetica" font-size="10.0" fill="#616161" transform="matrix(1.77, 0.00, -0.00, -1.77, 102.2, 331.7)">l</text><text xml:space="preserve" font-family="Helvetica,Helvetica" font-size="10.0" fill="#616161" transform="matrix(1.77, 0.00, -0.00, -1.77, 106.2, 331.7)">f</text><text xml:space="preserve" font-family="Helvetica,Helvetica" font-size="10.0" fill="#616161" transform="matrix(1.77, 0.00, -0.00, -1.77, 111.1, 331.7)"> </text><text xml:space="preserve" font-family="Helvetica,Helvetica" font-size="10.0" fill="#616161" transform="matrix(1.77, 0.00, -0.00, -1.77, 71.2, 310.4)">c</text><text xml:space="preserve" font-family="Helvetica,Helvetica" font-size="10.0" fill="#616161" transform="matrix(1.77, 0.00, -0.00, -1.77, 80.0, 310.4)">l</text><text xml:space="preserve" font-family="Helvetica,Helvetica" font-size="10.0" fill="#616161" transform="matrix(1.77, 0.00, -0.00, -1.77, 84.0, 310.4)">o</text><text xml:space="preserve" font-family="Helvetica,Helvetica" font-size="10.0" fill="#616161" transform="matrix(1.77, 0.00, -0.00, -1.77, 93.8, 310.4)">s</text><text xml:space="preserve" font-family="Helvetica,Helvetica" font-size="10.0" fill="#616161" transform="matrix(1.77, 0.00, -0.00, -1.77, 102.7, 310.4)">e</text><text xml:space="preserve" font-family="Helvetica,Helvetica" font-size="10.0" fill="#616161" transform="matrix(1.77, 0.00, -0.00, -1.77, 112.6, 310.4)">d</text><text xml:space="preserve" font-family="Helvetica,Helvetica" font-size="10.0" fill="#616161" transform="matrix(1.77, 0.00, -0.00, -1.77, 122.4, 310.4)"> </text><text xml:space="preserve" font-family="Helvetica,Helvetica" font-size="10.0" fill="#616161" transform="matrix(1.77, 0.00, -0.00, -1.77, 63.3, 289.2)">(</text><text xml:space="preserve" font-family="Helvetica,Helvetica" font-size="10.0" fill="#616161" transform="matrix(1.77, 0.00, -0.00, -1.77, 69.2, 289.2)">r</text><text xml:space="preserve" font-family="Helvetica,Helvetica" font-size="10.0" fill="#616161" transform="matrix(1.77, 0.00, -0.00, -1.77, 75.1, 289.2)">e</text><text xml:space="preserve" font-family="Helvetica,Helvetica" font-size="10.0" fill="#616161" transform="matrix(1.77, 0.00, -0.00, -1.77, 85.0, 289.2)">m</text><text xml:space="preserve" font-family="Helvetica,Helvetica" font-size="10.0" fill="#616161" transform="matrix(1.77, 0.00, -0.00, -1.77, 99.7, 289.2)">o</text><text xml:space="preserve" font-family="Helvetica,Helvetica" font-size="10.0" fill="#616161" transform="matrix(1.77, 0.00, -0.00, -1.77, 109.6, 289.2)">t</text><text xml:space="preserve" font-family="Helvetica,Helvetica" font-size="10.0" fill="#616161" transform="matrix(1.77, 0.00, -0.00, -1.77, 114.5, 289.2)">e</text><text xml:space="preserve" font-family="Helvetica,Helvetica" font-size="10.0" fill="#616161" transform="matrix(1.77, 0.00, -0.00, -1.77, 124.4, 289.2)">)</text><path d="M 216.7 161.6 L 296.1 121.9 " fill="none" stroke="#000000" stroke-width="1.00" stroke-linecap="round" stroke-linejoin="round" transform="matrix(1.77, 0.00, 0.00, -1.77, -222.5, 955.7)"></path><path d="M 149.3 662.8 L 164.4 664.4 L 159.6 673.9 Z M 149.3 662.8 " fill="#000000"></path><path d="M 209.6 165.2 L 218.1 164.3 L 215.4 158.9 Z M 209.6 165.2 " fill="none" stroke="#000000" stroke-width="1.00" transform="matrix(1.77, 0.00, 0.00, -1.77, -222.5, 955.7)"></path><path d="M 180.5 322.1 L 180.5 208.0 " fill="none" stroke="#000000" stroke-width="1.00" stroke-linecap="round" stroke-linejoin="round" transform="matrix(1.77, 0.00, 0.00, -1.77, -222.5, 955.7)"></path><path d="M 97.7 370.5 L 103.0 384.7 L 92.4 384.7 Z M 97.7 370.5 " fill="#000000"></path><path d="M 180.5 330.1 L 183.5 322.1 L 177.5 322.1 Z M 180.5 330.1 " fill="none" stroke="#000000" stroke-width="1.00" transform="matrix(1.77, 0.00, 0.00, -1.77, -222.5, 955.7)"></path><path d="M 290.5 470.5 L 206.5 386.5 " fill="none" stroke="#000000" stroke-width="1.00" stroke-linecap="round" stroke-linejoin="round" transform="matrix(1.77, 0.00, 0.00, -1.77, -222.5, 955.7)"></path><path d="M 302.8 111.7 L 296.5 125.5 L 289.0 118.0 Z M 302.8 111.7 " fill="#000000"></path><path d="M 296.1 476.1 L 292.6 468.3 L 288.3 472.6 Z M 296.1 476.1 " fill="none" stroke="#000000" stroke-width="1.00" transform="matrix(1.77, 0.00, 0.00, -1.77, -222.5, 955.7)"></path><path d="M 286.2 497.7 C 231.4 492.0 213.6 519.6 171.0 477.0 C 126.0 432.0 127.0 278.8 135.0 252.3 C 143.0 225.8 146.9 225.6 162.7 207.8 " fill="none" stroke="#000000" stroke-width="1.00" stroke-linecap="round" stroke-linejoin="round" transform="matrix(1.77, 0.00, 0.00, -1.77, -222.5, 955.7)"></path><path d="M 299.3 71.5 L 285.9 78.7 L 284.5 68.1 Z M 299.3 71.5 " fill="#000000"></path><path d="M 294.1 498.8 L 286.6 494.8 L 285.8 500.7 Z M 294.1 498.8 " fill="none" stroke="#000000" stroke-width="1.00" transform="matrix(1.77, 0.00, 0.00, -1.77, -222.5, 955.7)"></path><text xml:space="preserve" font-family="HelveticaNeue,Helvetica Neue" font-size="16.0" fill="#000000" transform="matrix(1.77, 0.00, -0.00, -1.77, 149.5, 721.6)">s</text><text xml:space="preserve" font-family="HelveticaNeue,Helvetica Neue" font-size="16.0" fill="#000000" transform="matrix(1.77, 0.00, -0.00, -1.77, 163.7, 721.6)">e</text><text xml:space="preserve" font-family="HelveticaNeue,Helvetica Neue" font-size="16.0" fill="#000000" transform="matrix(1.77, 0.00, -0.00, -1.77, 178.9, 721.6)">n</text><text xml:space="preserve" font-family="HelveticaNeue,Helvetica Neue" font-size="16.0" fill="#000000" transform="matrix(1.77, 0.00, -0.00, -1.77, 194.7, 721.6)">d</text><text xml:space="preserve" font-family="HelveticaNeue,Helvetica Neue" font-size="16.0" fill="#000000" transform="matrix(1.77, 0.00, -0.00, -1.77, 211.5, 721.6)"> </text><text xml:space="preserve" font-family="HelveticaNeue,Helvetica Neue" font-size="16.0" fill="#000000" transform="matrix(1.77, 0.00, -0.00, -1.77, 219.4, 721.6)">P</text><text xml:space="preserve" font-family="HelveticaNeue,Helvetica Neue" font-size="16.0" fill="#000000" transform="matrix(1.77, 0.00, -0.00, -1.77, 237.8, 721.6)">P</text><text xml:space="preserve" font-family="HelveticaNeue,Helvetica Neue" font-size="16.0" fill="#000000" transform="matrix(0.94, -1.50, -1.50, -0.94, 46.6, 169.3)">s</text><text xml:space="preserve" font-family="HelveticaNeue,Helvetica Neue" font-size="16.0" fill="#000000" transform="matrix(0.94, -1.50, -1.50, -0.94, 54.1, 157.3)">e</text><text xml:space="preserve" font-family="HelveticaNeue,Helvetica Neue" font-size="16.0" fill="#000000" transform="matrix(0.94, -1.50, -1.50, -0.94, 62.2, 144.4)">n</text><text xml:space="preserve" font-family="HelveticaNeue,Helvetica Neue" font-size="16.0" fill="#000000" transform="matrix(0.94, -1.50, -1.50, -0.94, 70.6, 131.0)">d</text><text xml:space="preserve" font-family="HelveticaNeue,Helvetica Neue" font-size="16.0" fill="#000000" transform="matrix(0.94, -1.50, -1.50, -0.94, 79.5, 116.7)"> </text><text xml:space="preserve" font-family="HelveticaNeue,Helvetica Neue" font-size="16.0" fill="#000000" transform="matrix(0.94, -1.50, -1.50, -0.94, 83.7, 110.0)">/</text><text xml:space="preserve" font-family="HelveticaNeue,Helvetica Neue" font-size="16.0" fill="#000000" transform="matrix(0.94, -1.50, -1.50, -0.94, 88.7, 102.0)"> </text><text xml:space="preserve" font-family="HelveticaNeue,Helvetica Neue" font-size="16.0" fill="#000000" transform="matrix(0.94, -1.50, -1.50, -0.94, 19.1, 153.1)">r</text><text xml:space="preserve" font-family="HelveticaNeue,Helvetica Neue" font-size="16.0" fill="#000000" transform="matrix(0.94, -1.50, -1.50, -0.94, 23.9, 145.5)">e</text><text xml:space="preserve" font-family="HelveticaNeue,Helvetica Neue" font-size="16.0" fill="#000000" transform="matrix(0.94, -1.50, -1.50, -0.94, 31.9, 132.6)">c</text><text xml:space="preserve" font-family="HelveticaNeue,Helvetica Neue" font-size="16.0" fill="#000000" transform="matrix(0.94, -1.50, -1.50, -0.94, 40.0, 119.6)">v</text><text xml:space="preserve" font-family="HelveticaNeue,Helvetica Neue" font-size="16.0" fill="#000000" transform="matrix(0.94, -1.50, -1.50, -0.94, 47.5, 107.6)"> </text><text xml:space="preserve" font-family="HelveticaNeue,Helvetica Neue" font-size="16.0" fill="#000000" transform="matrix(0.94, -1.50, -1.50, -0.94, 51.7, 100.9)">R</text><text xml:space="preserve" font-family="HelveticaNeue,Helvetica Neue" font-size="16.0" fill="#000000" transform="matrix(1.19, -1.32, -1.32, -1.19, 166.9, 263.8)">s</text><text xml:space="preserve" font-family="HelveticaNeue,Helvetica Neue" font-size="16.0" fill="#000000" transform="matrix(1.19, -1.32, -1.32, -1.19, 176.4, 253.3)">e</text><text xml:space="preserve" font-family="HelveticaNeue,Helvetica Neue" font-size="16.0" fill="#000000" transform="matrix(1.19, -1.32, -1.32, -1.19, 186.6, 242.0)">n</text><text xml:space="preserve" font-family="HelveticaNeue,Helvetica Neue" font-size="16.0" fill="#000000" transform="matrix(1.19, -1.32, -1.32, -1.19, 197.1, 230.2)">d</text><text xml:space="preserve" font-family="HelveticaNeue,Helvetica Neue" font-size="16.0" fill="#000000" transform="matrix(1.19, -1.32, -1.32, -1.19, 208.4, 217.7)"> </text><text xml:space="preserve" font-family="HelveticaNeue,Helvetica Neue" font-size="16.0" fill="#000000" transform="matrix(1.19, -1.32, -1.32, -1.19, 213.7, 211.9)">E</text><text xml:space="preserve" font-family="HelveticaNeue,Helvetica Neue" font-size="16.0" fill="#000000" transform="matrix(1.19, -1.32, -1.32, -1.19, 225.3, 199.0)">S</text><text xml:space="preserve" font-family="HelveticaNeue,Helvetica Neue" font-size="16.0" fill="#000000" transform="matrix(1.19, -1.32, -1.32, -1.19, 151.9, 232.7)">s</text><text xml:space="preserve" font-family="HelveticaNeue,Helvetica Neue" font-size="16.0" fill="#000000" transform="matrix(1.19, -1.32, -1.32, -1.19, 161.4, 222.2)">e</text><text xml:space="preserve" font-family="HelveticaNeue,Helvetica Neue" font-size="16.0" fill="#000000" transform="matrix(1.19, -1.32, -1.32, -1.19, 171.6, 210.9)">n</text><text xml:space="preserve" font-family="HelveticaNeue,Helvetica Neue" font-size="16.0" fill="#000000" transform="matrix(1.19, -1.32, -1.32, -1.19, 182.2, 199.1)">d</text><text xml:space="preserve" font-family="HelveticaNeue,Helvetica Neue" font-size="16.0" fill="#000000" transform="matrix(1.19, -1.32, -1.32, -1.19, 193.5, 186.6)"> </text><text xml:space="preserve" font-family="HelveticaNeue,Helvetica Neue" font-size="16.0" fill="#000000" transform="matrix(1.19, -1.32, -1.32, -1.19, 198.7, 180.8)">/</text><text xml:space="preserve" font-family="HelveticaNeue,Helvetica Neue" font-size="16.0" fill="#000000" transform="matrix(1.19, -1.32, -1.32, -1.19, 127.7, 211.9)">r</text><text xml:space="preserve" font-family="HelveticaNeue,Helvetica Neue" font-size="16.0" fill="#000000" transform="matrix(1.19, -1.32, -1.32, -1.19, 133.7, 205.3)">e</text><text xml:space="preserve" font-family="HelveticaNeue,Helvetica Neue" font-size="16.0" fill="#000000" transform="matrix(1.19, -1.32, -1.32, -1.19, 143.9, 194.0)">c</text><text xml:space="preserve" font-family="HelveticaNeue,Helvetica Neue" font-size="16.0" fill="#000000" transform="matrix(1.19, -1.32, -1.32, -1.19, 154.1, 182.7)">v</text><text xml:space="preserve" font-family="HelveticaNeue,Helvetica Neue" font-size="16.0" fill="#000000" transform="matrix(1.19, -1.32, -1.32, -1.19, 163.6, 172.1)"> </text><text xml:space="preserve" font-family="HelveticaNeue,Helvetica Neue" font-size="16.0" fill="#000000" transform="matrix(1.19, -1.32, -1.32, -1.19, 168.8, 166.3)">R</text><text xml:space="preserve" font-family="HelveticaNeue,Helvetica Neue" font-size="16.0" fill="#000000" transform="matrix(1.77, 0.00, -0.00, -1.77, 113.3, 501.8)">s</text><text xml:space="preserve" font-family="HelveticaNeue,Helvetica Neue" font-size="16.0" fill="#000000" transform="matrix(1.77, 0.00, -0.00, -1.77, 127.4, 501.8)">e</text><text xml:space="preserve" font-family="HelveticaNeue,Helvetica Neue" font-size="16.0" fill="#000000" transform="matrix(1.77, 0.00, -0.00, -1.77, 142.7, 501.8)">n</text><text xml:space="preserve" font-family="HelveticaNeue,Helvetica Neue" font-size="16.0" fill="#000000" transform="matrix(1.77, 0.00, -0.00, -1.77, 158.5, 501.8)">d</text><text xml:space="preserve" font-family="HelveticaNeue,Helvetica Neue" font-size="16.0" fill="#000000" transform="matrix(1.77, 0.00, -0.00, -1.77, 175.3, 501.8)"> </text><text xml:space="preserve" font-family="HelveticaNeue,Helvetica Neue" font-size="16.0" fill="#000000" transform="matrix(1.77, 0.00, -0.00, -1.77, 183.2, 501.8)">H</text><path d="M 324.5 70.1 L 324.5 45.0 " fill="none" stroke="#000000" stroke-width="1.00" stroke-linecap="round" stroke-linejoin="round" transform="matrix(1.77, 0.00, 0.00, -1.77, -222.5, 955.7)"></path><path d="M 353.1 817.2 L 358.4 831.4 L 347.8 831.4 Z M 353.1 817.2 " fill="#000000"></path><path d="M 324.5 78.1 L 327.5 70.1 L 321.5 70.1 Z M 324.5 78.1 " fill="none" stroke="#000000" stroke-width="1.00" transform="matrix(1.77, 0.00, 0.00, -1.77, -222.5, 955.7)"></path></g></g></g></svg>