<?xml version="1.0" encoding="UTF-8" standalone="no"?><svg xmlns="http://www.w3.org/2000/svg" xmlns:xlink="http://www.w3.org/1999/xlink" clip-rule="evenodd" stroke-miterlimit="10" viewBox="0 0 187 192"><desc>SVG generated by Keynote</desc><defs></defs><g transform="matrix(1.00, 0.00, -0.00, -1.00, 0.0, 192.0)"><g><clipPath id="clip0x7fd41847f600"><path d="M 96.3 190.3 L 1.2 77.1 L 91.0 1.8 L 186.0 115.0 Z M 96.3 190.3 "></path></clipPath><g clip-path="url(#clip0x7fd41847f600)"><g><clipPath id="clip0x7fd41847fd50"><path d="M 96.3 190.3 L 1.2 77.1 L 91.0 1.8 L 186.0 115.0 Z M 96.3 190.3 "></path></clipPath><g clip-path="url(#clip0x7fd41847fd50)"><path d="M 1208.5 204.2 C 1201.4 195.7 1194.3 186.7 1187.6 186.7 C 1178.2 186.7 1160.6 204.7 1160.6 213.7 C 1160.6 222.7 1178.2 240.7 1187.6 240.7 C 1197.0 240.7 1207.3 222.7 1217.2 213.7 " fill="none" stroke="#DE6A10" stroke-width="2.00" stroke-linecap="round" stroke-linejoin="round" transform="matrix(-1.23, -1.47, -1.47, 1.23, 1883.2, 1591.1)"></path><path d="M 72.9 64.7 L 91.6 58.6 L 91.0 72.4 Z M 72.9 64.7 " fill="#DE6A10"></path><path d="M 1215.0 211.2 L 1211.1 201.7 L 1205.8 206.6 Z M 1215.0 211.2 " fill="none" stroke="#DE6A10" stroke-width="2.00" transform="matrix(-1.23, -1.47, -1.47, 1.23, 1883.2, 1591.1)"></path></g></g></g></g></g></svg>