<?xml version="1.0" encoding="UTF-8" standalone="no"?><svg xmlns="http://www.w3.org/2000/svg" xmlns:xlink="http://www.w3.org/1999/xlink" clip-rule="evenodd" stroke-miterlimit="10" viewBox="0 0 457 303"><desc>SVG generated by Keynote</desc><defs><linearGradient id="gradSh1.422" x1="-72.0" y1="0.0" x2="72.0" y2="0.0" gradientUnits="userSpaceOnUse" gradientTransform="matrix(0.00, -0.40, -0.40, 0.00, 62.5, 208.9)"><stop offset="0.00000" stop-color="#FFFFFF"></stop><stop offset="0.01393" stop-color="#FEFEFE"></stop><stop offset="1.00000" stop-color="#DADADA"></stop></linearGradient><linearGradient id="gradSh2.423" x1="-72.0" y1="0.0" x2="72.0" y2="0.0" gradientUnits="userSpaceOnUse" gradientTransform="matrix(0.00, -0.40, -0.40, 0.00, 149.8, 208.9)"><stop offset="0.00000" stop-color="#FFFFFF"></stop><stop offset="0.01393" stop-color="#FEFEFE"></stop><stop offset="1.00000" stop-color="#DADADA"></stop></linearGradient><linearGradient id="gradSh3.424" x1="-72.0" y1="0.0" x2="72.0" y2="0.0" gradientUnits="userSpaceOnUse" gradientTransform="matrix(0.00, -0.40, -0.40, 0.00, 324.6, 208.9)"><stop offset="0.00000" stop-color="#FFFFFF"></stop><stop offset="0.01393" stop-color="#FEFEFE"></stop><stop offset="1.00000" stop-color="#DADADA"></stop></linearGradient><linearGradient id="gradSh4.425" x1="-72.0" y1="0.0" x2="72.0" y2="0.0" gradientUnits="userSpaceOnUse" gradientTransform="matrix(0.00, -0.40, -0.40, 0.00, 411.9, 208.9)"><stop offset="0.00000" stop-color="#FFFFFF"></stop><stop offset="0.01393" stop-color="#FEFEFE"></stop><stop offset="1.00000" stop-color="#DADADA"></stop></linearGradient><linearGradient id="gradSh5.426" x1="-72.0" y1="0.0" x2="72.0" y2="0.0" gradientUnits="userSpaceOnUse" gradientTransform="matrix(0.00, -0.40, -0.40, 0.00, 324.6, 121.5)"><stop offset="0.00000" stop-color="#FFFFFF"></stop><stop offset="0.01393" stop-color="#FEFEFE"></stop><stop offset="1.00000" stop-color="#DADADA"></stop></linearGradient><linearGradient id="gradSh6.427" x1="-72.0" y1="0.0" x2="72.0" y2="0.0" gradientUnits="userSpaceOnUse" gradientTransform="matrix(0.00, -0.40, -0.40, 0.00, 324.6, 34.2)"><stop offset="0.00000" stop-color="#FFFFFF"></stop><stop offset="0.01393" stop-color="#FEFEFE"></stop><stop offset="1.00000" stop-color="#DADADA"></stop></linearGradient><linearGradient id="gradSh7.428" x1="-72.0" y1="0.0" x2="72.0" y2="0.0" gradientUnits="userSpaceOnUse" gradientTransform="matrix(0.00, -0.40, -0.40, 0.00, 237.2, 208.2)"><stop offset="0.00000" stop-color="#FF9D3A"></stop><stop offset="0.00806" stop-color="#FF9C3A"></stop><stop offset="0.48607" stop-color="#E6781F"></stop><stop offset="0.49120" stop-color="#E6771F"></stop><stop offset="0.77419" stop-color="#D8620F"></stop><stop offset="0.77786" stop-color="#D8610F"></stop><stop offset="0.91789" stop-color="#D05707"></stop><stop offset="0.92155" stop-color="#D05607"></stop><stop offset="0.98974" stop-color="#CD5103"></stop><stop offset="0.99707" stop-color="#CC5103"></stop><stop offset="1.00000" stop-color="#CC5003"></stop></linearGradient></defs><g transform="matrix(1.00, 0.00, -0.00, -1.00, 0.0, 303.0)"><g><clipPath id="clip0x7fd426b96b30"><path d="M 1.0 2.0 L 456.0 2.0 L 456.0 302.0 L 1.0 302.0 Z M 1.0 2.0 "></path></clipPath><g clip-path="url(#clip0x7fd426b96b30)"><image xlink:href="../../A7482197-03EF-4231-B37E-3A53DC93D8C8/assets/09602989A7D55721ADAE3F8C1C8A5147.png" width="106.00" height="28.00" transform="matrix(0.40, 0.00, -0.00, 0.40, 1.0, 202.9)"></image><image xlink:href="../../A7482197-03EF-4231-B37E-3A53DC93D8C8/assets/009685358D09EE7C4D5764F0BE34FA17.png" width="105.00" height="28.00" transform="matrix(0.40, 0.00, -0.00, 0.40, 88.8, 202.9)"></image><image xlink:href="../../30DDF29F-AE95-48DC-A430-858444231039/assets/B16C5E2B093AF5C71CA1E2C7B97786D3.png" width="105.00" height="28.00" transform="matrix(0.40, 0.00, -0.00, 0.40, 176.1, 202.5)"></image><image xlink:href="../../30DDF29F-AE95-48DC-A430-858444231039/assets/14082F6A030F94FE00A97E4535F61E6A.png" width="105.00" height="28.00" transform="matrix(0.40, 0.00, -0.00, 0.40, 263.5, 202.5)"></image><image xlink:href="../../A7482197-03EF-4231-B37E-3A53DC93D8C8/assets/D205153572DF855D119D4811E0DBF965.png" width="106.00" height="28.00" transform="matrix(0.40, 0.00, -0.00, 0.40, 350.8, 202.9)"></image><image xlink:href="../../30DDF29F-AE95-48DC-A430-858444231039/assets/75A3A52B3C05CD2E40C5955ECC7EE9FC.png" width="108.00" height="93.00" transform="matrix(0.40, 0.00, -0.00, 0.40, 263.1, 144.3)"></image><image xlink:href="../../A7482197-03EF-4231-B37E-3A53DC93D8C8/assets/CB3C3451F24C657D5E4A184C6B852420.png" width="35.00" height="91.00" transform="matrix(0.40, 0.00, -0.00, 0.40, 321.3, 145.1)"></image><image xlink:href="../../F36A6F62-F7B3-45ED-9907-0EDA78A152D7/assets/A1BDC2748FE4CF74B1DD2954BA710F9C.png" width="88.00" height="94.00" transform="matrix(0.40, 0.00, -0.00, 0.40, 350.4, 144.3)"></image><image xlink:href="../../F36A6F62-F7B3-45ED-9907-0EDA78A152D7/assets/6BF1096C48344CCCB40187B16D25AA02.png" width="160.00" height="138.00" transform="matrix(0.40, 0.00, -0.00, 0.40, 292.2, 232.1)"></image><image xlink:href="../../F36A6F62-F7B3-45ED-9907-0EDA78A152D7/assets/C959DDAC340CD58CE7EAA9342B44783F.png" width="160.00" height="138.00" transform="matrix(0.40, 0.00, -0.00, 0.40, 379.6, 232.1)"></image><image xlink:href="../../F36A6F62-F7B3-45ED-9907-0EDA78A152D7/assets/A78A315689918EC4EA76FB93CFCF6B0C.png" width="434.00" height="173.00" transform="matrix(0.40, 0.00, -0.00, 0.40, 280.5, 231.6)"></image><image xlink:href="../../A7482197-03EF-4231-B37E-3A53DC93D8C8/assets/CB3C3451F24C657D5E4A184C6B852420.png" width="35.00" height="91.00" transform="matrix(0.40, 0.00, -0.00, 0.40, 321.3, 57.8)"></image><image xlink:href="../../F36A6F62-F7B3-45ED-9907-0EDA78A152D7/assets/26D63AB0A3D55BB2EC547125617D0F43.png" width="154.00" height="154.00" transform="matrix(0.40, 0.00, -0.00, 0.40, 31.3, 176.7)"></image></g></g><g><clipPath id="clip0x7fd426bc9670"><path d="M 35.0 238.1 L 90.0 238.1 C 90.9 238.1 91.6 237.4 91.6 236.5 L 91.6 181.5 C 91.6 180.6 90.9 179.9 90.0 179.9 L 35.0 179.9 C 34.1 179.9 33.4 180.6 33.4 181.5 L 33.4 236.5 C 33.4 237.4 34.1 238.1 35.0 238.1 Z M 35.0 238.1 "></path></clipPath><g clip-path="url(#clip0x7fd426bc9670)"><g><clipPath id="clip0x7fd426bca240"><path d="M 1.0 2.0 L 456.0 2.0 L 456.0 302.0 L 1.0 302.0 Z M 1.0 2.0 "></path></clipPath><g clip-path="url(#clip0x7fd426bca240)"><path d="M 1.0 2.0 L 456.0 2.0 L 456.0 302.0 L 1.0 302.0 Z M 1.0 2.0 " fill="url(#gradSh1.422)"></path></g></g></g></g><g><clipPath id="clip0x7fd42791f3e0"><path d="M 1.0 2.0 L 456.0 2.0 L 456.0 302.0 L 1.0 302.0 Z M 1.0 2.0 "></path></clipPath><g clip-path="url(#clip0x7fd42791f3e0)"><path d="M 148.0 1006.0 L 284.0 1006.0 C 286.2 1006.0 288.0 1007.8 288.0 1010.0 L 288.0 1146.0 C 288.0 1148.2 286.2 1150.0 284.0 1150.0 L 148.0 1150.0 C 145.8 1150.0 144.0 1148.2 144.0 1146.0 L 144.0 1010.0 C 144.0 1007.8 145.8 1006.0 148.0 1006.0 Z M 148.0 1006.0 " fill="none" stroke="#A9A9A9" stroke-width="2.00" stroke-linecap="round" stroke-linejoin="round" transform="matrix(0.40, 0.00, 0.00, -0.40, -24.9, 644.9)"></path><text xml:space="preserve" font-family="Helvetica,Helvetica" font-size="24.0" fill="#5E5E5E" transform="matrix(0.40, 0.00, -0.00, -0.40, 56.3, 205.4)">i</text><text xml:space="preserve" font-family="Helvetica,Helvetica" font-size="24.0" fill="#5E5E5E" transform="matrix(0.40, 0.00, -0.00, -0.40, 58.4, 205.4)">n</text><text xml:space="preserve" font-family="Helvetica,Helvetica" font-size="24.0" fill="#5E5E5E" transform="matrix(0.40, 0.00, -0.00, -0.40, 63.8, 205.4)">i</text><text xml:space="preserve" font-family="Helvetica,Helvetica" font-size="24.0" fill="#5E5E5E" transform="matrix(0.40, 0.00, -0.00, -0.40, 66.0, 205.4)">t</text><image xlink:href="../../F36A6F62-F7B3-45ED-9907-0EDA78A152D7/assets/26D63AB0A3D55BB2EC547125617D0F43.png" width="154.00" height="154.00" transform="matrix(0.40, 0.00, -0.00, 0.40, 118.7, 176.7)"></image></g></g><g><clipPath id="clip0x7fd426fca940"><path d="M 122.3 238.1 L 177.3 238.1 C 178.2 238.1 179.0 237.4 179.0 236.5 L 179.0 181.5 C 179.0 180.6 178.2 179.9 177.3 179.9 L 122.3 179.9 C 121.4 179.9 120.7 180.6 120.7 181.5 L 120.7 236.5 C 120.7 237.4 121.4 238.1 122.3 238.1 Z M 122.3 238.1 "></path></clipPath><g clip-path="url(#clip0x7fd426fca940)"><g><clipPath id="clip0x7fd426fcb040"><path d="M 1.0 2.0 L 456.0 2.0 L 456.0 302.0 L 1.0 302.0 Z M 1.0 2.0 "></path></clipPath><g clip-path="url(#clip0x7fd426fcb040)"><path d="M 1.0 2.0 L 456.0 2.0 L 456.0 302.0 L 1.0 302.0 Z M 1.0 2.0 " fill="url(#gradSh2.423)"></path></g></g></g></g><g><clipPath id="clip0x7fd426ea3610"><path d="M 1.0 2.0 L 456.0 2.0 L 456.0 302.0 L 1.0 302.0 Z M 1.0 2.0 "></path></clipPath><g clip-path="url(#clip0x7fd426ea3610)"><path d="M 364.0 1006.0 L 500.0 1006.0 C 502.2 1006.0 504.0 1007.8 504.0 1010.0 L 504.0 1146.0 C 504.0 1148.2 502.2 1150.0 500.0 1150.0 L 364.0 1150.0 C 361.8 1150.0 360.0 1148.2 360.0 1146.0 L 360.0 1010.0 C 360.0 1007.8 361.8 1006.0 364.0 1006.0 Z M 364.0 1006.0 " fill="none" stroke="#A9A9A9" stroke-width="2.00" stroke-linecap="round" stroke-linejoin="round" transform="matrix(0.40, 0.00, 0.00, -0.40, -24.9, 644.9)"></path><text xml:space="preserve" font-family="Helvetica,Helvetica" font-size="24.0" fill="#5E5E5E" transform="matrix(0.40, 0.00, -0.00, -0.40, 135.5, 205.4)">a</text><text xml:space="preserve" font-family="Helvetica,Helvetica" font-size="24.0" fill="#5E5E5E" transform="matrix(0.40, 0.00, -0.00, -0.40, 140.9, 205.4)">c</text><text xml:space="preserve" font-family="Helvetica,Helvetica" font-size="24.0" fill="#5E5E5E" transform="matrix(0.40, 0.00, -0.00, -0.40, 145.8, 205.4)">c</text><text xml:space="preserve" font-family="Helvetica,Helvetica" font-size="24.0" fill="#5E5E5E" transform="matrix(0.40, 0.00, -0.00, -0.40, 150.6, 205.4)">e</text><text xml:space="preserve" font-family="Helvetica,Helvetica" font-size="24.0" fill="#5E5E5E" transform="matrix(0.40, 0.00, -0.00, -0.40, 156.0, 205.4)">p</text><text xml:space="preserve" font-family="Helvetica,Helvetica" font-size="24.0" fill="#5E5E5E" transform="matrix(0.40, 0.00, -0.00, -0.40, 161.4, 205.4)">t</text><image xlink:href="../../F36A6F62-F7B3-45ED-9907-0EDA78A152D7/assets/26D63AB0A3D55BB2EC547125617D0F43.png" width="154.00" height="154.00" transform="matrix(0.40, 0.00, -0.00, 0.40, 293.4, 176.7)"></image></g></g><g><clipPath id="clip0x7fd427923840"><path d="M 297.1 238.1 L 352.1 238.1 C 353.0 238.1 353.7 237.4 353.7 236.5 L 353.7 181.5 C 353.7 180.6 353.0 179.9 352.1 179.9 L 297.1 179.9 C 296.2 179.9 295.4 180.6 295.4 181.5 L 295.4 236.5 C 295.4 237.4 296.2 238.1 297.1 238.1 Z M 297.1 238.1 "></path></clipPath><g clip-path="url(#clip0x7fd427923840)"><g><clipPath id="clip0x7fd427924700"><path d="M 1.0 2.0 L 456.0 2.0 L 456.0 302.0 L 1.0 302.0 Z M 1.0 2.0 "></path></clipPath><g clip-path="url(#clip0x7fd427924700)"><path d="M 1.0 2.0 L 456.0 2.0 L 456.0 302.0 L 1.0 302.0 Z M 1.0 2.0 " fill="url(#gradSh3.424)"></path></g></g></g></g><g><clipPath id="clip0x7fd427976400"><path d="M 1.0 2.0 L 456.0 2.0 L 456.0 302.0 L 1.0 302.0 Z M 1.0 2.0 "></path></clipPath><g clip-path="url(#clip0x7fd427976400)"><path d="M 796.0 1006.0 L 932.0 1006.0 C 934.2 1006.0 936.0 1007.8 936.0 1010.0 L 936.0 1146.0 C 936.0 1148.2 934.2 1150.0 932.0 1150.0 L 796.0 1150.0 C 793.8 1150.0 792.0 1148.2 792.0 1146.0 L 792.0 1010.0 C 792.0 1007.8 793.8 1006.0 796.0 1006.0 Z M 796.0 1006.0 " fill="none" stroke="#A9A9A9" stroke-width="2.00" stroke-linecap="round" stroke-linejoin="round" transform="matrix(0.40, 0.00, 0.00, -0.40, -24.9, 644.9)"></path><text xml:space="preserve" font-family="Helvetica,Helvetica" font-size="24.0" fill="#5E5E5E" transform="matrix(0.40, 0.00, -0.00, -0.40, 302.2, 205.4)">c</text><text xml:space="preserve" font-family="Helvetica,Helvetica" font-size="24.0" fill="#5E5E5E" transform="matrix(0.40, 0.00, -0.00, -0.40, 307.0, 205.4)">o</text><text xml:space="preserve" font-family="Helvetica,Helvetica" font-size="24.0" fill="#5E5E5E" transform="matrix(0.40, 0.00, -0.00, -0.40, 312.4, 205.4)">n</text><text xml:space="preserve" font-family="Helvetica,Helvetica" font-size="24.0" fill="#5E5E5E" transform="matrix(0.40, 0.00, -0.00, -0.40, 317.8, 205.4)">n</text><text xml:space="preserve" font-family="Helvetica,Helvetica" font-size="24.0" fill="#5E5E5E" transform="matrix(0.40, 0.00, -0.00, -0.40, 323.2, 205.4)">e</text><text xml:space="preserve" font-family="Helvetica,Helvetica" font-size="24.0" fill="#5E5E5E" transform="matrix(0.40, 0.00, -0.00, -0.40, 328.6, 205.4)">c</text><text xml:space="preserve" font-family="Helvetica,Helvetica" font-size="24.0" fill="#5E5E5E" transform="matrix(0.40, 0.00, -0.00, -0.40, 333.5, 205.4)">t</text><text xml:space="preserve" font-family="Helvetica,Helvetica" font-size="24.0" fill="#5E5E5E" transform="matrix(0.40, 0.00, -0.00, -0.40, 336.2, 205.4)">e</text><text xml:space="preserve" font-family="Helvetica,Helvetica" font-size="24.0" fill="#5E5E5E" transform="matrix(0.40, 0.00, -0.00, -0.40, 341.6, 205.4)">d</text><image xlink:href="../../F36A6F62-F7B3-45ED-9907-0EDA78A152D7/assets/26D63AB0A3D55BB2EC547125617D0F43.png" width="154.00" height="154.00" transform="matrix(0.40, 0.00, -0.00, 0.40, 380.8, 176.7)"></image></g></g><g><clipPath id="clip0x7fd42797bc50"><path d="M 384.4 238.1 L 439.4 238.1 C 440.3 238.1 441.0 237.4 441.0 236.5 L 441.0 181.5 C 441.0 180.6 440.3 179.9 439.4 179.9 L 384.4 179.9 C 383.5 179.9 382.8 180.6 382.8 181.5 L 382.8 236.5 C 382.8 237.4 383.5 238.1 384.4 238.1 Z M 384.4 238.1 "></path></clipPath><g clip-path="url(#clip0x7fd42797bc50)"><g><clipPath id="clip0x7fd42797c360"><path d="M 1.0 2.0 L 456.0 2.0 L 456.0 302.0 L 1.0 302.0 Z M 1.0 2.0 "></path></clipPath><g clip-path="url(#clip0x7fd42797c360)"><path d="M 1.0 2.0 L 456.0 2.0 L 456.0 302.0 L 1.0 302.0 Z M 1.0 2.0 " fill="url(#gradSh4.425)"></path></g></g></g></g><g><clipPath id="clip0x7fd4279ceda0"><path d="M 1.0 2.0 L 456.0 2.0 L 456.0 302.0 L 1.0 302.0 Z M 1.0 2.0 "></path></clipPath><g clip-path="url(#clip0x7fd4279ceda0)"><path d="M 1012.0 1006.0 L 1148.0 1006.0 C 1150.2 1006.0 1152.0 1007.8 1152.0 1010.0 L 1152.0 1146.0 C 1152.0 1148.2 1150.2 1150.0 1148.0 1150.0 L 1012.0 1150.0 C 1009.8 1150.0 1008.0 1148.2 1008.0 1146.0 L 1008.0 1010.0 C 1008.0 1007.8 1009.8 1006.0 1012.0 1006.0 Z M 1012.0 1006.0 " fill="none" stroke="#A9A9A9" stroke-width="2.00" stroke-linecap="round" stroke-linejoin="round" transform="matrix(0.40, 0.00, 0.00, -0.40, -24.9, 644.9)"></path><text xml:space="preserve" font-family="Helvetica,Helvetica" font-size="22.0" fill="#5E5E5E" transform="matrix(0.40, 0.00, -0.00, -0.40, 387.9, 205.6)">c</text><text xml:space="preserve" font-family="Helvetica,Helvetica" font-size="22.0" fill="#5E5E5E" transform="matrix(0.40, 0.00, -0.00, -0.40, 392.4, 205.6)">o</text><text xml:space="preserve" font-family="Helvetica,Helvetica" font-size="22.0" fill="#5E5E5E" transform="matrix(0.40, 0.00, -0.00, -0.40, 397.3, 205.6)">n</text><text xml:space="preserve" font-family="Helvetica,Helvetica" font-size="22.0" fill="#5E5E5E" transform="matrix(0.40, 0.00, -0.00, -0.40, 402.3, 205.6)">t</text><text xml:space="preserve" font-family="Helvetica,Helvetica" font-size="22.0" fill="#5E5E5E" transform="matrix(0.40, 0.00, -0.00, -0.40, 404.7, 205.6)">i</text><text xml:space="preserve" font-family="Helvetica,Helvetica" font-size="22.0" fill="#5E5E5E" transform="matrix(0.40, 0.00, -0.00, -0.40, 406.7, 205.6)">n</text><text xml:space="preserve" font-family="Helvetica,Helvetica" font-size="22.0" fill="#5E5E5E" transform="matrix(0.40, 0.00, -0.00, -0.40, 411.7, 205.6)">u</text><text xml:space="preserve" font-family="Helvetica,Helvetica" font-size="22.0" fill="#5E5E5E" transform="matrix(0.40, 0.00, -0.00, -0.40, 416.6, 205.6)">a</text><text xml:space="preserve" font-family="Helvetica,Helvetica" font-size="22.0" fill="#5E5E5E" transform="matrix(0.40, 0.00, -0.00, -0.40, 421.6, 205.6)">t</text><text xml:space="preserve" font-family="Helvetica,Helvetica" font-size="22.0" fill="#5E5E5E" transform="matrix(0.40, 0.00, -0.00, -0.40, 424.0, 205.6)">i</text><text xml:space="preserve" font-family="Helvetica,Helvetica" font-size="22.0" fill="#5E5E5E" transform="matrix(0.40, 0.00, -0.00, -0.40, 426.0, 205.6)">o</text><text xml:space="preserve" font-family="Helvetica,Helvetica" font-size="22.0" fill="#5E5E5E" transform="matrix(0.40, 0.00, -0.00, -0.40, 431.0, 205.6)">n</text><image xlink:href="../../F36A6F62-F7B3-45ED-9907-0EDA78A152D7/assets/26D63AB0A3D55BB2EC547125617D0F43.png" width="154.00" height="154.00" transform="matrix(0.40, 0.00, -0.00, 0.40, 293.4, 89.3)"></image></g></g><g><clipPath id="clip0x7fd4279d5a30"><path d="M 297.1 150.8 L 352.1 150.8 C 353.0 150.8 353.7 150.1 353.7 149.2 L 353.7 94.2 C 353.7 93.3 353.0 92.6 352.1 92.6 L 297.1 92.6 C 296.2 92.6 295.4 93.3 295.4 94.2 L 295.4 149.2 C 295.4 150.1 296.2 150.8 297.1 150.8 Z M 297.1 150.8 "></path></clipPath><g clip-path="url(#clip0x7fd4279d5a30)"><g><clipPath id="clip0x7fd4279d6140"><path d="M 1.0 2.0 L 456.0 2.0 L 456.0 302.0 L 1.0 302.0 Z M 1.0 2.0 "></path></clipPath><g clip-path="url(#clip0x7fd4279d6140)"><path d="M 1.0 2.0 L 456.0 2.0 L 456.0 302.0 L 1.0 302.0 Z M 1.0 2.0 " fill="url(#gradSh5.426)"></path></g></g></g></g><g><clipPath id="clip0x7fd427a2cad0"><path d="M 1.0 2.0 L 456.0 2.0 L 456.0 302.0 L 1.0 302.0 Z M 1.0 2.0 "></path></clipPath><g clip-path="url(#clip0x7fd427a2cad0)"><path d="M 796.0 1222.0 L 932.0 1222.0 C 934.2 1222.0 936.0 1223.8 936.0 1226.0 L 936.0 1362.0 C 936.0 1364.2 934.2 1366.0 932.0 1366.0 L 796.0 1366.0 C 793.8 1366.0 792.0 1364.2 792.0 1362.0 L 792.0 1226.0 C 792.0 1223.8 793.8 1222.0 796.0 1222.0 Z M 796.0 1222.0 " fill="none" stroke="#A9A9A9" stroke-width="2.00" stroke-linecap="round" stroke-linejoin="round" transform="matrix(0.40, 0.00, 0.00, -0.40, -24.9, 644.9)"></path><text xml:space="preserve" font-family="Helvetica,Helvetica" font-size="24.0" fill="#5E5E5E" transform="matrix(0.40, 0.00, -0.00, -0.40, 309.4, 118.1)">c</text><text xml:space="preserve" font-family="Helvetica,Helvetica" font-size="24.0" fill="#5E5E5E" transform="matrix(0.40, 0.00, -0.00, -0.40, 314.3, 118.1)">l</text><text xml:space="preserve" font-family="Helvetica,Helvetica" font-size="24.0" fill="#5E5E5E" transform="matrix(0.40, 0.00, -0.00, -0.40, 316.5, 118.1)">o</text><text xml:space="preserve" font-family="Helvetica,Helvetica" font-size="24.0" fill="#5E5E5E" transform="matrix(0.40, 0.00, -0.00, -0.40, 321.9, 118.1)">s</text><text xml:space="preserve" font-family="Helvetica,Helvetica" font-size="24.0" fill="#5E5E5E" transform="matrix(0.40, 0.00, -0.00, -0.40, 326.7, 118.1)">i</text><text xml:space="preserve" font-family="Helvetica,Helvetica" font-size="24.0" fill="#5E5E5E" transform="matrix(0.40, 0.00, -0.00, -0.40, 328.9, 118.1)">n</text><text xml:space="preserve" font-family="Helvetica,Helvetica" font-size="24.0" fill="#5E5E5E" transform="matrix(0.40, 0.00, -0.00, -0.40, 334.3, 118.1)">g</text><path d="M 72.0 1078.0 L 124.1 1078.0 " fill="none" stroke="#000000" stroke-width="4.00" stroke-linecap="round" stroke-linejoin="round" transform="matrix(0.40, 0.00, 0.00, -0.40, -24.9, 644.9)"></path><path d="M 30.5 209.0 L 25.3 210.9 L 25.3 207.1 Z M 30.5 209.0 " fill="#000000"></path><path d="M 136.9 1078.0 L 124.1 1073.2 L 124.1 1082.8 Z M 136.9 1078.0 " fill="none" stroke="#000000" stroke-width="4.00" transform="matrix(0.40, 0.00, 0.00, -0.40, -24.9, 644.9)"></path><path d="M 289.0 1078.0 L 340.1 1078.0 " fill="none" stroke="#000000" stroke-width="4.00" stroke-linecap="round" stroke-linejoin="round" transform="matrix(0.40, 0.00, 0.00, -0.40, -24.9, 644.9)"></path><path d="M 117.8 209.0 L 112.7 210.9 L 112.7 207.1 Z M 117.8 209.0 " fill="#000000"></path><path d="M 352.9 1078.0 L 340.1 1073.2 L 340.1 1082.8 Z M 352.9 1078.0 " fill="none" stroke="#000000" stroke-width="4.00" transform="matrix(0.40, 0.00, 0.00, -0.40, -24.9, 644.9)"></path><path d="M 505.0 1078.9 L 556.1 1079.3 " fill="none" stroke="#000000" stroke-width="4.00" stroke-linecap="round" stroke-linejoin="round" transform="matrix(0.40, 0.00, 0.00, -0.40, -24.9, 644.9)"></path><path d="M 205.2 208.4 L 200.0 210.4 L 200.0 206.5 Z M 205.2 208.4 " fill="#000000"></path><path d="M 568.9 1079.4 L 556.1 1074.5 L 556.1 1084.1 Z M 568.9 1079.4 " fill="none" stroke="#000000" stroke-width="4.00" transform="matrix(0.40, 0.00, 0.00, -0.40, -24.9, 644.9)"></path><path d="M 721.0 1079.4 L 772.1 1079.0 " fill="none" stroke="#000000" stroke-width="4.00" stroke-linecap="round" stroke-linejoin="round" transform="matrix(0.40, 0.00, 0.00, -0.40, -24.9, 644.9)"></path><path d="M 292.6 208.6 L 287.4 210.5 L 287.4 206.6 Z M 292.6 208.6 " fill="#000000"></path><path d="M 784.9 1078.9 L 772.1 1074.2 L 772.1 1083.8 Z M 784.9 1078.9 " fill="none" stroke="#000000" stroke-width="4.00" transform="matrix(0.40, 0.00, 0.00, -0.40, -24.9, 644.9)"></path><path d="M 937.0 1078.3 L 989.1 1078.4 " fill="none" stroke="#000000" stroke-width="4.00" stroke-linecap="round" stroke-linejoin="round" transform="matrix(0.40, 0.00, 0.00, -0.40, -24.9, 644.9)"></path><path d="M 380.3 208.9 L 375.2 210.8 L 375.2 206.9 Z M 380.3 208.9 " fill="#000000"></path><path d="M 1001.9 1078.4 L 989.1 1073.6 L 989.1 1083.2 Z M 1001.9 1078.4 " fill="none" stroke="#000000" stroke-width="4.00" transform="matrix(0.40, 0.00, 0.00, -0.40, -24.9, 644.9)"></path><path d="M 719.8 1151.2 L 778.8 1209.8 " fill="none" stroke="#000000" stroke-width="4.00" stroke-linecap="round" stroke-linejoin="round" transform="matrix(0.40, 0.00, 0.00, -0.40, -24.9, 644.9)"></path><path d="M 293.8 152.1 L 291.5 157.1 L 288.7 154.4 Z M 293.8 152.1 " fill="#000000"></path><path d="M 787.9 1218.8 L 782.2 1206.4 L 775.4 1213.2 Z M 787.9 1218.8 " fill="none" stroke="#000000" stroke-width="4.00" transform="matrix(0.40, 0.00, 0.00, -0.40, -24.9, 644.9)"></path><path d="M 864.0 1151.3 L 864.0 1202.4 " fill="none" stroke="#000000" stroke-width="4.00" stroke-linecap="round" stroke-linejoin="round" transform="matrix(0.40, 0.00, 0.00, -0.40, -24.9, 644.9)"></path><path d="M 324.6 153.5 L 326.5 158.7 L 322.6 158.7 Z M 324.6 153.5 " fill="#000000"></path><path d="M 864.0 1215.2 L 868.8 1202.4 L 859.2 1202.4 Z M 864.0 1215.2 " fill="none" stroke="#000000" stroke-width="4.00" transform="matrix(0.40, 0.00, 0.00, -0.40, -24.9, 644.9)"></path><path d="M 1008.5 1149.9 L 948.9 1209.4 " fill="none" stroke="#000000" stroke-width="4.00" stroke-linecap="round" stroke-linejoin="round" transform="matrix(0.40, 0.00, 0.00, -0.40, -24.9, 644.9)"></path><path d="M 355.2 152.2 L 360.3 154.5 L 357.5 157.2 Z M 355.2 152.2 " fill="#000000"></path><path d="M 939.9 1218.5 L 952.3 1212.8 L 945.5 1206.0 Z M 939.9 1218.5 " fill="none" stroke="#000000" stroke-width="4.00" transform="matrix(0.40, 0.00, 0.00, -0.40, -24.9, 644.9)"></path><path d="M 900.0 1006.3 C 912.0 982.3 942.0 953.8 936.0 934.3 C 930.0 914.8 888.0 889.3 864.0 889.3 C 840.0 889.3 798.0 914.8 792.0 934.3 C 787.3 949.6 804.7 970.4 818.2 990.2 " fill="none" stroke="#000000" stroke-width="4.00" stroke-linecap="round" stroke-linejoin="round" transform="matrix(0.40, 0.00, 0.00, -0.40, -24.9, 644.9)"></path><path d="M 308.7 240.1 L 307.7 245.5 L 304.4 243.5 Z M 308.7 240.1 " fill="#000000"></path><path d="M 824.8 1001.1 L 822.3 987.7 L 814.1 992.7 Z M 824.8 1001.1 " fill="none" stroke="#000000" stroke-width="4.00" transform="matrix(0.40, 0.00, 0.00, -0.40, -24.9, 644.9)"></path><path d="M 1116.8 1006.3 C 1128.8 982.3 1158.8 953.8 1152.8 934.3 C 1146.8 914.8 1104.8 889.3 1080.8 889.3 C 1056.8 889.3 1014.8 914.8 1008.8 934.3 C 1004.1 949.6 1021.4 970.4 1035.0 990.2 " fill="none" stroke="#000000" stroke-width="4.00" stroke-linecap="round" stroke-linejoin="round" transform="matrix(0.40, 0.00, 0.00, -0.40, -24.9, 644.9)"></path><path d="M 396.4 240.1 L 395.4 245.5 L 392.0 243.5 Z M 396.4 240.1 " fill="#000000"></path><path d="M 1041.6 1001.1 L 1039.1 987.7 L 1030.9 992.7 Z M 1041.6 1001.1 " fill="none" stroke="#000000" stroke-width="4.00" transform="matrix(0.40, 0.00, 0.00, -0.40, -24.9, 644.9)"></path><path d="M 1150.8 1007.5 C 1160.2 980.1 1190.8 949.5 1179.0 925.3 C 1167.2 901.1 1132.5 872.8 1080.0 862.3 C 1027.5 851.8 916.5 853.3 864.0 862.3 C 811.5 871.3 776.9 892.3 765.0 916.3 C 755.4 935.8 773.6 963.3 785.8 989.0 " fill="none" stroke="#000000" stroke-width="4.00" stroke-linecap="round" stroke-linejoin="round" transform="matrix(0.40, 0.00, 0.00, -0.40, -24.9, 644.9)"></path><path d="M 294.9 240.2 L 294.7 245.7 L 291.1 244.3 Z M 294.9 240.2 " fill="#000000"></path><path d="M 790.6 1000.9 L 790.2 987.2 L 781.3 990.8 Z M 790.6 1000.9 " fill="none" stroke="#000000" stroke-width="4.00" transform="matrix(0.40, 0.00, 0.00, -0.40, -24.9, 644.9)"></path><image xlink:href="../../F36A6F62-F7B3-45ED-9907-0EDA78A152D7/assets/26D63AB0A3D55BB2EC547125617D0F43.png" width="154.00" height="154.00" transform="matrix(0.40, 0.00, -0.00, 0.40, 293.4, 2.0)"></image></g></g><g><clipPath id="clip0x7fd427a3f830"><path d="M 297.1 63.5 L 352.1 63.5 C 353.0 63.5 353.7 62.7 353.7 61.8 L 353.7 6.9 C 353.7 6.0 353.0 5.2 352.1 5.2 L 297.1 5.2 C 296.2 5.2 295.4 6.0 295.4 6.9 L 295.4 61.8 C 295.4 62.7 296.2 63.5 297.1 63.5 Z M 297.1 63.5 "></path></clipPath><g clip-path="url(#clip0x7fd427a3f830)"><g><clipPath id="clip0x7fd427a40060"><path d="M 1.0 2.0 L 456.0 2.0 L 456.0 302.0 L 1.0 302.0 Z M 1.0 2.0 "></path></clipPath><g clip-path="url(#clip0x7fd427a40060)"><path d="M 1.0 2.0 L 456.0 2.0 L 456.0 302.0 L 1.0 302.0 Z M 1.0 2.0 " fill="url(#gradSh6.427)"></path></g></g></g></g><g><clipPath id="clip0x7fd427b21840"><path d="M 1.0 2.0 L 456.0 2.0 L 456.0 302.0 L 1.0 302.0 Z M 1.0 2.0 "></path></clipPath><g clip-path="url(#clip0x7fd427b21840)"><path d="M 796.0 1438.0 L 932.0 1438.0 C 934.2 1438.0 936.0 1439.8 936.0 1442.0 L 936.0 1578.0 C 936.0 1580.2 934.2 1582.0 932.0 1582.0 L 796.0 1582.0 C 793.8 1582.0 792.0 1580.2 792.0 1578.0 L 792.0 1442.0 C 792.0 1439.8 793.8 1438.0 796.0 1438.0 Z M 796.0 1438.0 " fill="none" stroke="#A9A9A9" stroke-width="2.00" stroke-linecap="round" stroke-linejoin="round" transform="matrix(0.40, 0.00, 0.00, -0.40, -24.9, 644.9)"></path><text xml:space="preserve" font-family="Helvetica,Helvetica" font-size="24.0" fill="#5E5E5E" transform="matrix(0.40, 0.00, -0.00, -0.40, 304.3, 30.8)">t</text><text xml:space="preserve" font-family="Helvetica,Helvetica" font-size="24.0" fill="#5E5E5E" transform="matrix(0.40, 0.00, -0.00, -0.40, 307.0, 30.8)">e</text><text xml:space="preserve" font-family="Helvetica,Helvetica" font-size="24.0" fill="#5E5E5E" transform="matrix(0.40, 0.00, -0.00, -0.40, 312.4, 30.8)">r</text><text xml:space="preserve" font-family="Helvetica,Helvetica" font-size="24.0" fill="#5E5E5E" transform="matrix(0.40, 0.00, -0.00, -0.40, 315.7, 30.8)">m</text><text xml:space="preserve" font-family="Helvetica,Helvetica" font-size="24.0" fill="#5E5E5E" transform="matrix(0.40, 0.00, -0.00, -0.40, 323.7, 30.8)">i</text><text xml:space="preserve" font-family="Helvetica,Helvetica" font-size="24.0" fill="#5E5E5E" transform="matrix(0.40, 0.00, -0.00, -0.40, 325.9, 30.8)">n</text><text xml:space="preserve" font-family="Helvetica,Helvetica" font-size="24.0" fill="#5E5E5E" transform="matrix(0.40, 0.00, -0.00, -0.40, 331.3, 30.8)">a</text><text xml:space="preserve" font-family="Helvetica,Helvetica" font-size="24.0" fill="#5E5E5E" transform="matrix(0.40, 0.00, -0.00, -0.40, 336.7, 30.8)">t</text><text xml:space="preserve" font-family="Helvetica,Helvetica" font-size="24.0" fill="#5E5E5E" transform="matrix(0.40, 0.00, -0.00, -0.40, 339.4, 30.8)">e</text><path d="M 864.0 1367.3 L 864.0 1418.4 " fill="none" stroke="#000000" stroke-width="4.00" stroke-linecap="round" stroke-linejoin="round" transform="matrix(0.40, 0.00, 0.00, -0.40, -24.9, 644.9)"></path><path d="M 324.6 66.2 L 326.5 71.4 L 322.6 71.4 Z M 324.6 66.2 " fill="#000000"></path><path d="M 864.0 1431.2 L 868.8 1418.4 L 859.2 1418.4 Z M 864.0 1431.2 " fill="none" stroke="#000000" stroke-width="4.00" transform="matrix(0.40, 0.00, 0.00, -0.40, -24.9, 644.9)"></path><image xlink:href="../../F36A6F62-F7B3-45ED-9907-0EDA78A152D7/assets/26D63AB0A3D55BB2EC547125617D0F43.png" width="154.00" height="154.00" transform="matrix(0.40, 0.00, -0.00, 0.40, 206.1, 176.3)"></image></g></g><g><clipPath id="clip0x7fd427817ce0"><path d="M 209.7 237.3 L 264.7 237.3 C 265.6 237.3 266.3 236.6 266.3 235.7 L 266.3 180.7 C 266.3 179.8 265.6 179.1 264.7 179.1 L 209.7 179.1 C 208.8 179.1 208.1 179.8 208.1 180.7 L 208.1 235.7 C 208.1 236.6 208.8 237.3 209.7 237.3 Z M 209.7 237.3 "></path></clipPath><g clip-path="url(#clip0x7fd427817ce0)"><g><clipPath id="clip0x7fd4278183e0"><path d="M 1.0 2.0 L 456.0 2.0 L 456.0 302.0 L 1.0 302.0 Z M 1.0 2.0 "></path></clipPath><g clip-path="url(#clip0x7fd4278183e0)"><path d="M 1.0 2.0 L 456.0 2.0 L 456.0 302.0 L 1.0 302.0 Z M 1.0 2.0 " fill="url(#gradSh7.428)"></path></g></g></g></g><g><clipPath id="clip0x7fd42786a5f0"><path d="M 1.0 2.0 L 456.0 2.0 L 456.0 302.0 L 1.0 302.0 Z M 1.0 2.0 "></path></clipPath><g clip-path="url(#clip0x7fd42786a5f0)"><path d="M 580.0 1008.0 L 716.0 1008.0 C 718.2 1008.0 720.0 1009.8 720.0 1012.0 L 720.0 1148.0 C 720.0 1150.2 718.2 1152.0 716.0 1152.0 L 580.0 1152.0 C 577.8 1152.0 576.0 1150.2 576.0 1148.0 L 576.0 1012.0 C 576.0 1009.8 577.8 1008.0 580.0 1008.0 Z M 580.0 1008.0 " fill="none" stroke="#AE653C" stroke-width="2.00" stroke-linecap="round" stroke-linejoin="round" transform="matrix(0.40, 0.00, 0.00, -0.40, -24.9, 644.9)"></path></g></g><image xlink:href="../../F36A6F62-F7B3-45ED-9907-0EDA78A152D7/assets/E468F0D640C607848C69BD195C4A1576.png" width="55.00" height="12.00" transform="matrix(1.00, 0.00, -0.00, -1.00, 210.0, 213.0)"></image><g><clipPath id="clip0x7fd426ea7e80"><path d="M 1.0 2.0 L 456.0 2.0 L 456.0 302.0 L 1.0 302.0 Z M 1.0 2.0 "></path></clipPath><g clip-path="url(#clip0x7fd426ea7e80)"><text xml:space="preserve" font-family="Helvetica-Bold,Helvetica" font-weight="bold" font-size="24.0" fill="#FFFFFF" transform="matrix(0.40, 0.00, -0.00, -0.40, 211.8, 204.8)">h</text><text xml:space="preserve" font-family="Helvetica-Bold,Helvetica" font-weight="bold" font-size="24.0" fill="#FFFFFF" transform="matrix(0.40, 0.00, -0.00, -0.40, 217.8, 204.8)">a</text><text xml:space="preserve" font-family="Helvetica-Bold,Helvetica" font-weight="bold" font-size="24.0" fill="#FFFFFF" transform="matrix(0.40, 0.00, -0.00, -0.40, 223.2, 204.8)">n</text><text xml:space="preserve" font-family="Helvetica-Bold,Helvetica" font-weight="bold" font-size="24.0" fill="#FFFFFF" transform="matrix(0.40, 0.00, -0.00, -0.40, 229.1, 204.8)">d</text><text xml:space="preserve" font-family="Helvetica-Bold,Helvetica" font-weight="bold" font-size="24.0" fill="#FFFFFF" transform="matrix(0.40, 0.00, -0.00, -0.40, 235.0, 204.8)">s</text><text xml:space="preserve" font-family="Helvetica-Bold,Helvetica" font-weight="bold" font-size="24.0" fill="#FFFFFF" transform="matrix(0.40, 0.00, -0.00, -0.40, 240.4, 204.8)">h</text><text xml:space="preserve" font-family="Helvetica-Bold,Helvetica" font-weight="bold" font-size="24.0" fill="#FFFFFF" transform="matrix(0.40, 0.00, -0.00, -0.40, 246.3, 204.8)">a</text><text xml:space="preserve" font-family="Helvetica-Bold,Helvetica" font-weight="bold" font-size="24.0" fill="#FFFFFF" transform="matrix(0.40, 0.00, -0.00, -0.40, 251.7, 204.8)">k</text><text xml:space="preserve" font-family="Helvetica-Bold,Helvetica" font-weight="bold" font-size="24.0" fill="#FFFFFF" transform="matrix(0.40, 0.00, -0.00, -0.40, 257.1, 204.8)">e</text></g></g></g></svg>