<?xml version="1.0" encoding="UTF-8" standalone="no"?><svg xmlns="http://www.w3.org/2000/svg" xmlns:xlink="http://www.w3.org/1999/xlink" clip-rule="evenodd" stroke-miterlimit="10" viewBox="0 0 680 93"><desc>SVG generated by Keynote</desc><defs></defs><g transform="matrix(1.00, 0.00, -0.00, -1.00, 0.0, 93.0)"><text xml:space="preserve" font-family="SourceSansPro-Regular,Source Sans Pro" font-size="112.0" fill="#FEFFFE" transform="matrix(1.00, 0.00, -0.00, -1.00, -8.1, 16.4)">E</text><text xml:space="preserve" font-family="SourceSansPro-Regular,Source Sans Pro" font-size="112.0" fill="#FEFFFE" transform="matrix(1.00, 0.00, -0.00, -1.00, 50.9, 16.4)">N</text><text xml:space="preserve" font-family="SourceSansPro-Regular,Source Sans Pro" font-size="112.0" fill="#FEFFFE" transform="matrix(1.00, 0.00, -0.00, -1.00, 123.4, 16.4)">A</text><text xml:space="preserve" font-family="SourceSansPro-Regular,Source Sans Pro" font-size="112.0" fill="#FEFFFE" transform="matrix(1.00, 0.00, -0.00, -1.00, 184.3, 16.4)">B</text><text xml:space="preserve" font-family="SourceSansPro-Regular,Source Sans Pro" font-size="112.0" fill="#FEFFFE" transform="matrix(1.00, 0.00, -0.00, -1.00, 250.2, 16.4)">L</text><text xml:space="preserve" font-family="SourceSansPro-Regular,Source Sans Pro" font-size="112.0" fill="#FEFFFE" transform="matrix(1.00, 0.00, -0.00, -1.00, 304.6, 16.4)">E</text><text xml:space="preserve" font-family="SourceSansPro-Regular,Source Sans Pro" font-size="112.0" fill="#FEFFFE" transform="matrix(1.00, 0.00, -0.00, -1.00, 363.6, 16.4)">_</text><text xml:space="preserve" font-family="SourceSansPro-Regular,Source Sans Pro" font-size="112.0" fill="#FEFFFE" transform="matrix(1.00, 0.00, -0.00, -1.00, 419.6, 16.4)">P</text><text xml:space="preserve" font-family="SourceSansPro-Regular,Source Sans Pro" font-size="112.0" fill="#FEFFFE" transform="matrix(1.00, 0.00, -0.00, -1.00, 484.1, 16.4)">U</text><text xml:space="preserve" font-family="SourceSansPro-Regular,Source Sans Pro" font-size="112.0" fill="#FEFFFE" transform="matrix(1.00, 0.00, -0.00, -1.00, 555.3, 16.4)">S</text><text xml:space="preserve" font-family="SourceSansPro-Regular,Source Sans Pro" font-size="112.0" fill="#FEFFFE" transform="matrix(1.00, 0.00, -0.00, -1.00, 615.1, 16.4)">H</text></g></svg>