<?xml version="1.0" encoding="UTF-8" standalone="no"?><svg xmlns="http://www.w3.org/2000/svg" xmlns:xlink="http://www.w3.org/1999/xlink" clip-rule="evenodd" stroke-miterlimit="10" viewBox="0 0 1920 1080"><desc>SVG generated by Keynote</desc><defs></defs><g transform="matrix(1.00, 0.00, -0.00, -1.00, 0.0, 1080.0)"><path d="M 0.0 1080.0 L 1920.0 1080.0 L 1920.0 0.0 L 0.0 0.0 Z M 0.0 1080.0 " fill="#FEFFFF"></path><g><clipPath id="clip0x7fd412208be0"><path d="M -8.0 1196.0 L 1973.0 1196.0 L 1973.0 -41.0 L -8.0 -41.0 Z M -7.5 1196.2 "></path></clipPath><g clip-path="url(#clip0x7fd412208be0)"><image xlink:href="1F596C1BAEF7ECC74E2D46D83960649D.jpeg" width="1920.00" height="1200.00" transform="matrix(1.03, 0.00, -0.00, -1.03, -8.0, 1196.0)"></image></g></g><text xml:space="preserve" font-family="Courier-Bold,Courier" font-weight="bold" font-size="76.0" fill="#FEFFFE" transform="matrix(1.00, 0.00, -0.00, -1.00, 621.2, 278.6)">s</text><text xml:space="preserve" font-family="Courier-Bold,Courier" font-weight="bold" font-size="76.0" fill="#FEFFFE" transform="matrix(1.00, 0.00, -0.00, -1.00, 666.8, 278.6)">p</text><text xml:space="preserve" font-family="Courier-Bold,Courier" font-weight="bold" font-size="76.0" fill="#FEFFFE" transform="matrix(1.00, 0.00, -0.00, -1.00, 712.4, 278.6)">a</text><text xml:space="preserve" font-family="Courier-Bold,Courier" font-weight="bold" font-size="76.0" fill="#FEFFFE" transform="matrix(1.00, 0.00, -0.00, -1.00, 758.0, 278.6)">w</text><text xml:space="preserve" font-family="Courier-Bold,Courier" font-weight="bold" font-size="76.0" fill="#FEFFFE" transform="matrix(1.00, 0.00, -0.00, -1.00, 803.6, 278.6)">n</text><text xml:space="preserve" font-family="Courier-Bold,Courier" font-weight="bold" font-size="76.0" fill="#FEFFFE" transform="matrix(1.00, 0.00, -0.00, -1.00, 849.3, 278.6)">_</text></g></svg>