<?xml version="1.0" encoding="UTF-8" standalone="no"?><svg xmlns="http://www.w3.org/2000/svg" xmlns:xlink="http://www.w3.org/1999/xlink" clip-rule="evenodd" stroke-miterlimit="10" viewBox="0 0 570 52"><desc>SVG generated by Keynote</desc><defs></defs><g transform="matrix(1.00, 0.00, -0.00, -1.00, 0.0, 52.0)"><text xml:space="preserve" font-family="Courier-Bold,Courier" font-weight="bold" font-size="50.0" fill="#000000" transform="matrix(1.00, 0.00, -0.00, -1.00, 0.5, 14.0)">g</text><text xml:space="preserve" font-family="Courier-Bold,Courier" font-weight="bold" font-size="50.0" fill="#000000" transform="matrix(1.00, 0.00, -0.00, -1.00, 30.5, 14.0)">e</text><text xml:space="preserve" font-family="Courier-Bold,Courier" font-weight="bold" font-size="50.0" fill="#000000" transform="matrix(1.00, 0.00, -0.00, -1.00, 60.5, 14.0)">n</text><text xml:space="preserve" font-family="Courier-Bold,Courier" font-weight="bold" font-size="50.0" fill="#000000" transform="matrix(1.00, 0.00, -0.00, -1.00, 90.5, 14.0)">_</text><text xml:space="preserve" font-family="Courier-Bold,Courier" font-weight="bold" font-size="50.0" fill="#000000" transform="matrix(1.00, 0.00, -0.00, -1.00, 120.5, 14.0)">s</text><text xml:space="preserve" font-family="Courier-Bold,Courier" font-weight="bold" font-size="50.0" fill="#000000" transform="matrix(1.00, 0.00, -0.00, -1.00, 150.5, 14.0)">e</text><text xml:space="preserve" font-family="Courier-Bold,Courier" font-weight="bold" font-size="50.0" fill="#000000" transform="matrix(1.00, 0.00, -0.00, -1.00, 180.5, 14.0)">r</text><text xml:space="preserve" font-family="Courier-Bold,Courier" font-weight="bold" font-size="50.0" fill="#000000" transform="matrix(1.00, 0.00, -0.00, -1.00, 210.5, 14.0)">v</text><text xml:space="preserve" font-family="Courier-Bold,Courier" font-weight="bold" font-size="50.0" fill="#000000" transform="matrix(1.00, 0.00, -0.00, -1.00, 240.5, 14.0)">e</text><text xml:space="preserve" font-family="Courier-Bold,Courier" font-weight="bold" font-size="50.0" fill="#000000" transform="matrix(1.00, 0.00, -0.00, -1.00, 270.5, 14.0)">r</text><text xml:space="preserve" font-family="SourceSansPro-Regular,Source Sans Pro" font-size="50.0" fill="#000000" transform="matrix(1.00, 0.00, -0.00, -1.00, 300.5, 14.0)"> </text><text xml:space="preserve" font-family="SourceSansPro-Regular,Source Sans Pro" font-size="50.0" fill="#000000" transform="matrix(1.00, 0.00, -0.00, -1.00, 310.6, 14.0)">t</text><text xml:space="preserve" font-family="SourceSansPro-Regular,Source Sans Pro" font-size="50.0" fill="#000000" transform="matrix(1.00, 0.00, -0.00, -1.00, 327.0, 14.0)">o</text><text xml:space="preserve" font-family="SourceSansPro-Regular,Source Sans Pro" font-size="50.0" fill="#000000" transform="matrix(1.00, 0.00, -0.00, -1.00, 354.1, 14.0)"> </text><text xml:space="preserve" font-family="SourceSansPro-Regular,Source Sans Pro" font-size="50.0" fill="#000000" transform="matrix(1.00, 0.00, -0.00, -1.00, 364.2, 14.0)">i</text><text xml:space="preserve" font-family="SourceSansPro-Regular,Source Sans Pro" font-size="50.0" fill="#000000" transform="matrix(1.00, 0.00, -0.00, -1.00, 376.5, 14.0)">t</text><text xml:space="preserve" font-family="SourceSansPro-Regular,Source Sans Pro" font-size="50.0" fill="#000000" transform="matrix(1.00, 0.00, -0.00, -1.00, 393.4, 14.0)">s</text><text xml:space="preserve" font-family="SourceSansPro-Regular,Source Sans Pro" font-size="50.0" fill="#000000" transform="matrix(1.00, 0.00, -0.00, -1.00, 414.3, 14.0)"> </text><text xml:space="preserve" font-family="SourceSansPro-Regular,Source Sans Pro" font-size="50.0" fill="#000000" transform="matrix(1.00, 0.00, -0.00, -1.00, 424.4, 14.0)">f</text><text xml:space="preserve" font-family="SourceSansPro-Regular,Source Sans Pro" font-size="50.0" fill="#000000" transform="matrix(1.00, 0.00, -0.00, -1.00, 439.0, 14.0)">r</text><text xml:space="preserve" font-family="SourceSansPro-Regular,Source Sans Pro" font-size="50.0" fill="#000000" transform="matrix(1.00, 0.00, -0.00, -1.00, 456.4, 14.0)">i</text><text xml:space="preserve" font-family="SourceSansPro-Regular,Source Sans Pro" font-size="50.0" fill="#000000" transform="matrix(1.00, 0.00, -0.00, -1.00, 468.7, 14.0)">e</text><text xml:space="preserve" font-family="SourceSansPro-Regular,Source Sans Pro" font-size="50.0" fill="#000000" transform="matrix(1.00, 0.00, -0.00, -1.00, 493.5, 14.0)">n</text><text xml:space="preserve" font-family="SourceSansPro-Regular,Source Sans Pro" font-size="50.0" fill="#000000" transform="matrix(1.00, 0.00, -0.00, -1.00, 520.8, 14.0)">d</text><text xml:space="preserve" font-family="SourceSansPro-Regular,Source Sans Pro" font-size="50.0" fill="#000000" transform="matrix(1.00, 0.00, -0.00, -1.00, 548.6, 14.0)">s</text></g></svg>