<?xml version="1.0" encoding="UTF-8" standalone="no"?><svg xmlns="http://www.w3.org/2000/svg" xmlns:xlink="http://www.w3.org/1999/xlink" clip-rule="evenodd" stroke-miterlimit="10" viewBox="0 0 1920 1080"><desc>SVG generated by Keynote</desc><defs></defs><g transform="matrix(1.00, 0.00, -0.00, -1.00, 0.0, 1080.0)"><path d="M 0.0 1080.0 L 1920.0 1080.0 L 1920.0 0.0 L 0.0 0.0 Z M 0.0 1080.0 " fill="#FEFFFE"></path><text xml:space="preserve" font-family="SourceSansPro-Regular,Source Sans Pro" font-size="112.0" fill="#000000" transform="matrix(1.00, 0.00, -0.00, -1.00, 577.9, 874.6)">W</text><text xml:space="preserve" font-family="SourceSansPro-Regular,Source Sans Pro" font-size="112.0" fill="#000000" transform="matrix(1.00, 0.00, -0.00, -1.00, 665.9, 874.6)">h</text><text xml:space="preserve" font-family="SourceSansPro-Regular,Source Sans Pro" font-size="112.0" fill="#000000" transform="matrix(1.00, 0.00, -0.00, -1.00, 726.8, 874.6)">a</text><text xml:space="preserve" font-family="SourceSansPro-Regular,Source Sans Pro" font-size="112.0" fill="#000000" transform="matrix(1.00, 0.00, -0.00, -1.00, 784.2, 874.6)">t</text><text xml:space="preserve" font-family="SourceSansPro-Regular,Source Sans Pro" font-size="112.0" fill="#000000" transform="matrix(1.00, 0.00, -0.00, -1.00, 822.0, 874.6)"> </text><text xml:space="preserve" font-family="SourceSansPro-Regular,Source Sans Pro" font-size="112.0" fill="#000000" transform="matrix(1.00, 0.00, -0.00, -1.00, 844.6, 874.6)">w</text><text xml:space="preserve" font-family="SourceSansPro-Regular,Source Sans Pro" font-size="112.0" fill="#000000" transform="matrix(1.00, 0.00, -0.00, -1.00, 924.6, 874.6)">e</text><text xml:space="preserve" font-family="SourceSansPro-Regular,Source Sans Pro" font-size="112.0" fill="#000000" transform="matrix(1.00, 0.00, -0.00, -1.00, 980.2, 874.6)">n</text><text xml:space="preserve" font-family="SourceSansPro-Regular,Source Sans Pro" font-size="112.0" fill="#000000" transform="matrix(1.00, 0.00, -0.00, -1.00, 1041.4, 874.6)">t</text><text xml:space="preserve" font-family="SourceSansPro-Regular,Source Sans Pro" font-size="112.0" fill="#000000" transform="matrix(1.00, 0.00, -0.00, -1.00, 1079.3, 874.6)"> </text><text xml:space="preserve" font-family="SourceSansPro-Regular,Source Sans Pro" font-size="112.0" fill="#000000" transform="matrix(1.00, 0.00, -0.00, -1.00, 1101.9, 874.6)">w</text><text xml:space="preserve" font-family="SourceSansPro-Regular,Source Sans Pro" font-size="112.0" fill="#000000" transform="matrix(1.00, 0.00, -0.00, -1.00, 1181.9, 874.6)">e</text><text xml:space="preserve" font-family="SourceSansPro-Regular,Source Sans Pro" font-size="112.0" fill="#000000" transform="matrix(1.00, 0.00, -0.00, -1.00, 1237.4, 874.6)">l</text><text xml:space="preserve" font-family="SourceSansPro-Regular,Source Sans Pro" font-size="112.0" fill="#000000" transform="matrix(1.00, 0.00, -0.00, -1.00, 1266.0, 874.6)">l</text><text xml:space="preserve" font-family="SourceSansPro-Regular,Source Sans Pro" font-size="112.0" fill="#000000" transform="matrix(1.00, 0.00, -0.00, -1.00, 1294.5, 874.6)">?</text><text xml:space="preserve" font-family="SourceSansPro-Regular,Source Sans Pro" font-size="33.8" fill="#000000" transform="matrix(1.00, 0.00, -0.00, -1.00, 640.5, 601.7)">•</text><text xml:space="preserve" font-family="SourceSansPro-Regular,Source Sans Pro" font-size="45.0" fill="#000000" transform="matrix(1.00, 0.00, -0.00, -1.00, 684.5, 597.8)">B</text><text xml:space="preserve" font-family="SourceSansPro-Regular,Source Sans Pro" font-size="45.0" fill="#000000" transform="matrix(1.00, 0.00, -0.00, -1.00, 711.0, 597.8)">i</text><text xml:space="preserve" font-family="SourceSansPro-Regular,Source Sans Pro" font-size="45.0" fill="#000000" transform="matrix(1.00, 0.00, -0.00, -1.00, 722.0, 597.8)">n</text><text xml:space="preserve" font-family="SourceSansPro-Regular,Source Sans Pro" font-size="45.0" fill="#000000" transform="matrix(1.00, 0.00, -0.00, -1.00, 746.6, 597.8)">a</text><text xml:space="preserve" font-family="SourceSansPro-Regular,Source Sans Pro" font-size="45.0" fill="#000000" transform="matrix(1.00, 0.00, -0.00, -1.00, 769.7, 597.8)">r</text><text xml:space="preserve" font-family="SourceSansPro-Regular,Source Sans Pro" font-size="45.0" fill="#000000" transform="matrix(1.00, 0.00, -0.00, -1.00, 786.2, 597.8)">y</text><text xml:space="preserve" font-family="SourceSansPro-Regular,Source Sans Pro" font-size="45.0" fill="#000000" transform="matrix(1.00, 0.00, -0.00, -1.00, 807.2, 597.8)"> </text><text xml:space="preserve" font-family="SourceSansPro-Regular,Source Sans Pro" font-size="45.0" fill="#000000" transform="matrix(1.00, 0.00, -0.00, -1.00, 816.3, 597.8)">P</text><text xml:space="preserve" font-family="SourceSansPro-Regular,Source Sans Pro" font-size="45.0" fill="#000000" transform="matrix(1.00, 0.00, -0.00, -1.00, 840.2, 597.8)">a</text><text xml:space="preserve" font-family="SourceSansPro-Regular,Source Sans Pro" font-size="45.0" fill="#000000" transform="matrix(1.00, 0.00, -0.00, -1.00, 863.3, 597.8)">t</text><text xml:space="preserve" font-family="SourceSansPro-Regular,Source Sans Pro" font-size="45.0" fill="#000000" transform="matrix(1.00, 0.00, -0.00, -1.00, 878.5, 597.8)">t</text><text xml:space="preserve" font-family="SourceSansPro-Regular,Source Sans Pro" font-size="45.0" fill="#000000" transform="matrix(1.00, 0.00, -0.00, -1.00, 893.3, 597.8)">e</text><text xml:space="preserve" font-family="SourceSansPro-Regular,Source Sans Pro" font-size="45.0" fill="#000000" transform="matrix(1.00, 0.00, -0.00, -1.00, 915.6, 597.8)">r</text><text xml:space="preserve" font-family="SourceSansPro-Regular,Source Sans Pro" font-size="45.0" fill="#000000" transform="matrix(1.00, 0.00, -0.00, -1.00, 931.2, 597.8)">n</text><text xml:space="preserve" font-family="SourceSansPro-Regular,Source Sans Pro" font-size="45.0" fill="#000000" transform="matrix(1.00, 0.00, -0.00, -1.00, 955.8, 597.8)"> </text><text xml:space="preserve" font-family="SourceSansPro-Regular,Source Sans Pro" font-size="45.0" fill="#000000" transform="matrix(1.00, 0.00, -0.00, -1.00, 964.9, 597.8)">M</text><text xml:space="preserve" font-family="SourceSansPro-Regular,Source Sans Pro" font-size="45.0" fill="#000000" transform="matrix(1.00, 0.00, -0.00, -1.00, 997.6, 597.8)">a</text><text xml:space="preserve" font-family="SourceSansPro-Regular,Source Sans Pro" font-size="45.0" fill="#000000" transform="matrix(1.00, 0.00, -0.00, -1.00, 1020.6, 597.8)">t</text><text xml:space="preserve" font-family="SourceSansPro-Regular,Source Sans Pro" font-size="45.0" fill="#000000" transform="matrix(1.00, 0.00, -0.00, -1.00, 1035.4, 597.8)">c</text><text xml:space="preserve" font-family="SourceSansPro-Regular,Source Sans Pro" font-size="45.0" fill="#000000" transform="matrix(1.00, 0.00, -0.00, -1.00, 1055.9, 597.8)">h</text><text xml:space="preserve" font-family="SourceSansPro-Regular,Source Sans Pro" font-size="45.0" fill="#000000" transform="matrix(1.00, 0.00, -0.00, -1.00, 1080.4, 597.8)">i</text><text xml:space="preserve" font-family="SourceSansPro-Regular,Source Sans Pro" font-size="45.0" fill="#000000" transform="matrix(1.00, 0.00, -0.00, -1.00, 1091.5, 597.8)">n</text><text xml:space="preserve" font-family="SourceSansPro-Regular,Source Sans Pro" font-size="45.0" fill="#000000" transform="matrix(1.00, 0.00, -0.00, -1.00, 1116.1, 597.8)">g</text><text xml:space="preserve" font-family="SourceSansPro-Regular,Source Sans Pro" font-size="45.0" fill="#000000" transform="matrix(1.00, 0.00, -0.00, -1.00, 1138.8, 597.8)"> </text><text xml:space="preserve" font-family="SourceSansPro-Regular,Source Sans Pro" font-size="33.8" fill="#000000" transform="matrix(1.00, 0.00, -0.00, -1.00, 640.5, 500.7)">•</text><text xml:space="preserve" font-family="SourceSansPro-Regular,Source Sans Pro" font-size="45.0" fill="#000000" transform="matrix(1.00, 0.00, -0.00, -1.00, 684.5, 496.8)">S</text><text xml:space="preserve" font-family="SourceSansPro-Regular,Source Sans Pro" font-size="45.0" fill="#000000" transform="matrix(1.00, 0.00, -0.00, -1.00, 708.5, 496.8)">p</text><text xml:space="preserve" font-family="SourceSansPro-Regular,Source Sans Pro" font-size="45.0" fill="#000000" transform="matrix(1.00, 0.00, -0.00, -1.00, 732.9, 496.8)">a</text><text xml:space="preserve" font-family="SourceSansPro-Regular,Source Sans Pro" font-size="45.0" fill="#000000" transform="matrix(1.00, 0.00, -0.00, -1.00, 755.9, 496.8)">w</text><text xml:space="preserve" font-family="SourceSansPro-Regular,Source Sans Pro" font-size="45.0" fill="#000000" transform="matrix(1.00, 0.00, -0.00, -1.00, 788.2, 496.8)">n</text><text xml:space="preserve" font-family="SourceSansPro-Regular,Source Sans Pro" font-size="45.0" fill="#000000" transform="matrix(1.00, 0.00, -0.00, -1.00, 812.8, 496.8)">_</text><text xml:space="preserve" font-family="SourceSansPro-Regular,Source Sans Pro" font-size="45.0" fill="#000000" transform="matrix(1.00, 0.00, -0.00, -1.00, 835.3, 496.8)">l</text><text xml:space="preserve" font-family="SourceSansPro-Regular,Source Sans Pro" font-size="45.0" fill="#000000" transform="matrix(1.00, 0.00, -0.00, -1.00, 846.8, 496.8)">i</text><text xml:space="preserve" font-family="SourceSansPro-Regular,Source Sans Pro" font-size="45.0" fill="#000000" transform="matrix(1.00, 0.00, -0.00, -1.00, 857.9, 496.8)">n</text><text xml:space="preserve" font-family="SourceSansPro-Regular,Source Sans Pro" font-size="45.0" fill="#000000" transform="matrix(1.00, 0.00, -0.00, -1.00, 882.5, 496.8)">k</text><text xml:space="preserve" font-family="SourceSansPro-Regular,Source Sans Pro" font-size="45.0" fill="#000000" transform="matrix(1.00, 0.00, -0.00, -1.00, 904.8, 496.8)"> </text><text xml:space="preserve" font-family="SourceSansPro-Regular,Source Sans Pro" font-size="45.0" fill="#000000" transform="matrix(1.00, 0.00, -0.00, -1.00, 913.9, 496.8)">c</text><text xml:space="preserve" font-family="SourceSansPro-Regular,Source Sans Pro" font-size="45.0" fill="#000000" transform="matrix(1.00, 0.00, -0.00, -1.00, 933.4, 496.8)">o</text><text xml:space="preserve" font-family="SourceSansPro-Regular,Source Sans Pro" font-size="45.0" fill="#000000" transform="matrix(1.00, 0.00, -0.00, -1.00, 957.8, 496.8)">n</text><text xml:space="preserve" font-family="SourceSansPro-Regular,Source Sans Pro" font-size="45.0" fill="#000000" transform="matrix(1.00, 0.00, -0.00, -1.00, 982.4, 496.8)">t</text><text xml:space="preserve" font-family="SourceSansPro-Regular,Source Sans Pro" font-size="45.0" fill="#000000" transform="matrix(1.00, 0.00, -0.00, -1.00, 997.2, 496.8)">e</text><text xml:space="preserve" font-family="SourceSansPro-Regular,Source Sans Pro" font-size="45.0" fill="#000000" transform="matrix(1.00, 0.00, -0.00, -1.00, 1019.5, 496.8)">n</text><text xml:space="preserve" font-family="SourceSansPro-Regular,Source Sans Pro" font-size="45.0" fill="#000000" transform="matrix(1.00, 0.00, -0.00, -1.00, 1044.1, 496.8)">t</text><text xml:space="preserve" font-family="SourceSansPro-Regular,Source Sans Pro" font-size="45.0" fill="#000000" transform="matrix(1.00, 0.00, -0.00, -1.00, 1059.3, 496.8)"> </text><text xml:space="preserve" font-family="SourceSansPro-Regular,Source Sans Pro" font-size="45.0" fill="#000000" transform="matrix(1.00, 0.00, -0.00, -1.00, 1068.4, 496.8)">h</text><text xml:space="preserve" font-family="SourceSansPro-Regular,Source Sans Pro" font-size="45.0" fill="#000000" transform="matrix(1.00, 0.00, -0.00, -1.00, 1092.9, 496.8)">a</text><text xml:space="preserve" font-family="SourceSansPro-Regular,Source Sans Pro" font-size="45.0" fill="#000000" transform="matrix(1.00, 0.00, -0.00, -1.00, 1116.0, 496.8)">n</text><text xml:space="preserve" font-family="SourceSansPro-Regular,Source Sans Pro" font-size="45.0" fill="#000000" transform="matrix(1.00, 0.00, -0.00, -1.00, 1140.6, 496.8)">d</text><text xml:space="preserve" font-family="SourceSansPro-Regular,Source Sans Pro" font-size="45.0" fill="#000000" transform="matrix(1.00, 0.00, -0.00, -1.00, 1165.5, 496.8)">l</text><text xml:space="preserve" font-family="SourceSansPro-Regular,Source Sans Pro" font-size="45.0" fill="#000000" transform="matrix(1.00, 0.00, -0.00, -1.00, 1177.0, 496.8)">e</text><text xml:space="preserve" font-family="SourceSansPro-Regular,Source Sans Pro" font-size="45.0" fill="#000000" transform="matrix(1.00, 0.00, -0.00, -1.00, 1199.3, 496.8)">r</text><text xml:space="preserve" font-family="SourceSansPro-Regular,Source Sans Pro" font-size="45.0" fill="#000000" transform="matrix(1.00, 0.00, -0.00, -1.00, 1215.0, 496.8)"> </text><text xml:space="preserve" font-family="SourceSansPro-Regular,Source Sans Pro" font-size="33.8" fill="#000000" transform="matrix(1.00, 0.00, -0.00, -1.00, 640.5, 399.7)">•</text><text xml:space="preserve" font-family="SourceSansPro-Regular,Source Sans Pro" font-size="45.0" fill="#000000" transform="matrix(1.00, 0.00, -0.00, -1.00, 684.5, 395.8)">O</text><text xml:space="preserve" font-family="SourceSansPro-Regular,Source Sans Pro" font-size="45.0" fill="#000000" transform="matrix(1.00, 0.00, -0.00, -1.00, 713.5, 395.8)">T</text><text xml:space="preserve" font-family="SourceSansPro-Regular,Source Sans Pro" font-size="45.0" fill="#000000" transform="matrix(1.00, 0.00, -0.00, -1.00, 737.6, 395.8)">P</text><text xml:space="preserve" font-family="SourceSansPro-Regular,Source Sans Pro" font-size="45.0" fill="#000000" transform="matrix(1.00, 0.00, -0.00, -1.00, 763.5, 395.8)"> </text><text xml:space="preserve" font-family="SourceSansPro-Regular,Source Sans Pro" font-size="45.0" fill="#000000" transform="matrix(1.00, 0.00, -0.00, -1.00, 772.6, 395.8)">S</text><text xml:space="preserve" font-family="SourceSansPro-Regular,Source Sans Pro" font-size="45.0" fill="#000000" transform="matrix(1.00, 0.00, -0.00, -1.00, 796.6, 395.8)">u</text><text xml:space="preserve" font-family="SourceSansPro-Regular,Source Sans Pro" font-size="45.0" fill="#000000" transform="matrix(1.00, 0.00, -0.00, -1.00, 821.1, 395.8)">p</text><text xml:space="preserve" font-family="SourceSansPro-Regular,Source Sans Pro" font-size="45.0" fill="#000000" transform="matrix(1.00, 0.00, -0.00, -1.00, 846.1, 395.8)">e</text><text xml:space="preserve" font-family="SourceSansPro-Regular,Source Sans Pro" font-size="45.0" fill="#000000" transform="matrix(1.00, 0.00, -0.00, -1.00, 868.4, 395.8)">r</text><text xml:space="preserve" font-family="SourceSansPro-Regular,Source Sans Pro" font-size="45.0" fill="#000000" transform="matrix(1.00, 0.00, -0.00, -1.00, 884.9, 395.8)">v</text><text xml:space="preserve" font-family="SourceSansPro-Regular,Source Sans Pro" font-size="45.0" fill="#000000" transform="matrix(1.00, 0.00, -0.00, -1.00, 905.9, 395.8)">i</text><text xml:space="preserve" font-family="SourceSansPro-Regular,Source Sans Pro" font-size="45.0" fill="#000000" transform="matrix(1.00, 0.00, -0.00, -1.00, 917.0, 395.8)">s</text><text xml:space="preserve" font-family="SourceSansPro-Regular,Source Sans Pro" font-size="45.0" fill="#000000" transform="matrix(1.00, 0.00, -0.00, -1.00, 935.8, 395.8)">o</text><text xml:space="preserve" font-family="SourceSansPro-Regular,Source Sans Pro" font-size="45.0" fill="#000000" transform="matrix(1.00, 0.00, -0.00, -1.00, 960.2, 395.8)">r</text><text xml:space="preserve" font-family="SourceSansPro-Regular,Source Sans Pro" font-size="45.0" fill="#000000" transform="matrix(1.00, 0.00, -0.00, -1.00, 975.8, 395.8)"> </text><text xml:space="preserve" font-family="SourceSansPro-Regular,Source Sans Pro" font-size="45.0" fill="#000000" transform="matrix(1.00, 0.00, -0.00, -1.00, 984.9, 395.8)">/</text><text xml:space="preserve" font-family="SourceSansPro-Regular,Source Sans Pro" font-size="45.0" fill="#000000" transform="matrix(1.00, 0.00, -0.00, -1.00, 1000.7, 395.8)"> </text><text xml:space="preserve" font-family="SourceSansPro-Regular,Source Sans Pro" font-size="45.0" fill="#000000" transform="matrix(1.00, 0.00, -0.00, -1.00, 1009.8, 395.8)">G</text><text xml:space="preserve" font-family="SourceSansPro-Regular,Source Sans Pro" font-size="45.0" fill="#000000" transform="matrix(1.00, 0.00, -0.00, -1.00, 1037.5, 395.8)">e</text><text xml:space="preserve" font-family="SourceSansPro-Regular,Source Sans Pro" font-size="45.0" fill="#000000" transform="matrix(1.00, 0.00, -0.00, -1.00, 1059.8, 395.8)">n</text><text xml:space="preserve" font-family="SourceSansPro-Regular,Source Sans Pro" font-size="45.0" fill="#000000" transform="matrix(1.00, 0.00, -0.00, -1.00, 1084.5, 395.8)">_</text><text xml:space="preserve" font-family="SourceSansPro-Regular,Source Sans Pro" font-size="45.0" fill="#000000" transform="matrix(1.00, 0.00, -0.00, -1.00, 1107.0, 395.8)">F</text><text xml:space="preserve" font-family="SourceSansPro-Regular,Source Sans Pro" font-size="45.0" fill="#000000" transform="matrix(1.00, 0.00, -0.00, -1.00, 1128.3, 395.8)">S</text><text xml:space="preserve" font-family="SourceSansPro-Regular,Source Sans Pro" font-size="45.0" fill="#000000" transform="matrix(1.00, 0.00, -0.00, -1.00, 1152.3, 395.8)">M</text><text xml:space="preserve" font-family="SourceSansPro-Regular,Source Sans Pro" font-size="45.0" fill="#000000" transform="matrix(1.00, 0.00, -0.00, -1.00, 1185.0, 395.8)"> </text><text xml:space="preserve" font-family="SourceSansPro-Regular,Source Sans Pro" font-size="33.8" fill="#000000" transform="matrix(1.00, 0.00, -0.00, -1.00, 640.5, 298.7)">•</text><text xml:space="preserve" font-family="SourceSansPro-Regular,Source Sans Pro" font-size="45.0" fill="#000000" transform="matrix(1.00, 0.00, -0.00, -1.00, 684.5, 294.8)">E</text><text xml:space="preserve" font-family="SourceSansPro-Regular,Source Sans Pro" font-size="45.0" fill="#000000" transform="matrix(1.00, 0.00, -0.00, -1.00, 708.2, 294.8)">r</text><text xml:space="preserve" font-family="SourceSansPro-Regular,Source Sans Pro" font-size="45.0" fill="#000000" transform="matrix(1.00, 0.00, -0.00, -1.00, 723.8, 294.8)">l</text><text xml:space="preserve" font-family="SourceSansPro-Regular,Source Sans Pro" font-size="45.0" fill="#000000" transform="matrix(1.00, 0.00, -0.00, -1.00, 735.3, 294.8)">a</text><text xml:space="preserve" font-family="SourceSansPro-Regular,Source Sans Pro" font-size="45.0" fill="#000000" transform="matrix(1.00, 0.00, -0.00, -1.00, 758.3, 294.8)">n</text><text xml:space="preserve" font-family="SourceSansPro-Regular,Source Sans Pro" font-size="45.0" fill="#000000" transform="matrix(1.00, 0.00, -0.00, -1.00, 783.0, 294.8)">g</text><text xml:space="preserve" font-family="SourceSansPro-Regular,Source Sans Pro" font-size="45.0" fill="#000000" transform="matrix(1.00, 0.00, -0.00, -1.00, 805.6, 294.8)">’</text><text xml:space="preserve" font-family="SourceSansPro-Regular,Source Sans Pro" font-size="45.0" fill="#000000" transform="matrix(1.00, 0.00, -0.00, -1.00, 814.6, 294.8)">s</text><text xml:space="preserve" font-family="SourceSansPro-Regular,Source Sans Pro" font-size="45.0" fill="#000000" transform="matrix(1.00, 0.00, -0.00, -1.00, 833.5, 294.8)"> </text><text xml:space="preserve" font-family="SourceSansPro-Regular,Source Sans Pro" font-size="45.0" fill="#000000" transform="matrix(1.00, 0.00, -0.00, -1.00, 842.6, 294.8)">s</text><text xml:space="preserve" font-family="SourceSansPro-Regular,Source Sans Pro" font-size="45.0" fill="#000000" transform="matrix(1.00, 0.00, -0.00, -1.00, 861.4, 294.8)">o</text><text xml:space="preserve" font-family="SourceSansPro-Regular,Source Sans Pro" font-size="45.0" fill="#000000" transform="matrix(1.00, 0.00, -0.00, -1.00, 885.8, 294.8)">c</text><text xml:space="preserve" font-family="SourceSansPro-Regular,Source Sans Pro" font-size="45.0" fill="#000000" transform="matrix(1.00, 0.00, -0.00, -1.00, 906.3, 294.8)">k</text><text xml:space="preserve" font-family="SourceSansPro-Regular,Source Sans Pro" font-size="45.0" fill="#000000" transform="matrix(1.00, 0.00, -0.00, -1.00, 927.8, 294.8)">e</text><text xml:space="preserve" font-family="SourceSansPro-Regular,Source Sans Pro" font-size="45.0" fill="#000000" transform="matrix(1.00, 0.00, -0.00, -1.00, 949.5, 294.8)">t</text><text xml:space="preserve" font-family="SourceSansPro-Regular,Source Sans Pro" font-size="45.0" fill="#000000" transform="matrix(1.00, 0.00, -0.00, -1.00, 964.7, 294.8)"> </text><text xml:space="preserve" font-family="SourceSansPro-Regular,Source Sans Pro" font-size="45.0" fill="#000000" transform="matrix(1.00, 0.00, -0.00, -1.00, 973.8, 294.8)">l</text><text xml:space="preserve" font-family="SourceSansPro-Regular,Source Sans Pro" font-size="45.0" fill="#000000" transform="matrix(1.00, 0.00, -0.00, -1.00, 985.3, 294.8)">i</text><text xml:space="preserve" font-family="SourceSansPro-Regular,Source Sans Pro" font-size="45.0" fill="#000000" transform="matrix(1.00, 0.00, -0.00, -1.00, 996.3, 294.8)">b</text><text xml:space="preserve" font-family="SourceSansPro-Regular,Source Sans Pro" font-size="45.0" fill="#000000" transform="matrix(1.00, 0.00, -0.00, -1.00, 1021.3, 294.8)">r</text><text xml:space="preserve" font-family="SourceSansPro-Regular,Source Sans Pro" font-size="45.0" fill="#000000" transform="matrix(1.00, 0.00, -0.00, -1.00, 1035.8, 294.8)">a</text><text xml:space="preserve" font-family="SourceSansPro-Regular,Source Sans Pro" font-size="45.0" fill="#000000" transform="matrix(1.00, 0.00, -0.00, -1.00, 1058.9, 294.8)">r</text><text xml:space="preserve" font-family="SourceSansPro-Regular,Source Sans Pro" font-size="45.0" fill="#000000" transform="matrix(1.00, 0.00, -0.00, -1.00, 1075.3, 294.8)">y</text></g></svg>