<?xml version="1.0" encoding="UTF-8" standalone="no"?><svg xmlns="http://www.w3.org/2000/svg" xmlns:xlink="http://www.w3.org/1999/xlink" clip-rule="evenodd" stroke-miterlimit="10" viewBox="0 0 1920 1080"><desc>SVG generated by Keynote</desc><defs></defs><g transform="matrix(1.00, 0.00, -0.00, -1.00, 0.0, 1080.0)"><path d="M 0.0 1080.0 L 1920.0 1080.0 L 1920.0 0.0 L 0.0 0.0 Z M 0.0 1080.0 " fill="#FEFFFF"></path><image xlink:href="BCAC0C96654FBFA30552C05B64842B81.png" width="624.00" height="478.00" transform="matrix(1.80, 0.00, -0.00, -1.80, 0.0, 970.0)"></image><text xml:space="preserve" font-family="SourceSansPro-Regular,Source Sans Pro" font-size="78.0" fill="#000000" transform="matrix(1.00, 0.00, -0.00, -1.00, 1445.0, 610.3)">B</text><text xml:space="preserve" font-family="SourceSansPro-Regular,Source Sans Pro" font-size="78.0" fill="#000000" transform="matrix(1.00, 0.00, -0.00, -1.00, 1490.9, 610.3)">i</text><text xml:space="preserve" font-family="SourceSansPro-Regular,Source Sans Pro" font-size="78.0" fill="#000000" transform="matrix(1.00, 0.00, -0.00, -1.00, 1510.1, 610.3)">n</text><text xml:space="preserve" font-family="SourceSansPro-Regular,Source Sans Pro" font-size="78.0" fill="#000000" transform="matrix(1.00, 0.00, -0.00, -1.00, 1552.2, 610.3)">?</text><text xml:space="preserve" font-family="SourceSansPro-Regular,Source Sans Pro" font-size="78.0" fill="#000000" transform="matrix(1.00, 0.00, -0.00, -1.00, 1585.4, 610.3)"> </text><text xml:space="preserve" font-family="SourceSansPro-Regular,Source Sans Pro" font-size="78.0" fill="#000000" transform="matrix(1.00, 0.00, -0.00, -1.00, 1601.1, 610.3)"> </text><text xml:space="preserve" font-family="SourceSansPro-Regular,Source Sans Pro" font-size="78.0" fill="#000000" transform="matrix(1.00, 0.00, -0.00, -1.00, 1249.9, 414.3)">M</text><text xml:space="preserve" font-family="SourceSansPro-Regular,Source Sans Pro" font-size="78.0" fill="#000000" transform="matrix(1.00, 0.00, -0.00, -1.00, 1306.6, 414.3)">o</text><text xml:space="preserve" font-family="SourceSansPro-Regular,Source Sans Pro" font-size="78.0" fill="#000000" transform="matrix(1.00, 0.00, -0.00, -1.00, 1348.9, 414.3)">r</text><text xml:space="preserve" font-family="SourceSansPro-Regular,Source Sans Pro" font-size="78.0" fill="#000000" transform="matrix(1.00, 0.00, -0.00, -1.00, 1375.2, 414.3)">e</text><text xml:space="preserve" font-family="SourceSansPro-Regular,Source Sans Pro" font-size="78.0" fill="#000000" transform="matrix(1.00, 0.00, -0.00, -1.00, 1413.9, 414.3)"> </text><text xml:space="preserve" font-family="SourceSansPro-Regular,Source Sans Pro" font-size="78.0" fill="#000000" transform="matrix(1.00, 0.00, -0.00, -1.00, 1429.6, 414.3)">l</text><text xml:space="preserve" font-family="SourceSansPro-Regular,Source Sans Pro" font-size="78.0" fill="#000000" transform="matrix(1.00, 0.00, -0.00, -1.00, 1449.5, 414.3)">i</text><text xml:space="preserve" font-family="SourceSansPro-Regular,Source Sans Pro" font-size="78.0" fill="#000000" transform="matrix(1.00, 0.00, -0.00, -1.00, 1468.7, 414.3)">k</text><text xml:space="preserve" font-family="SourceSansPro-Regular,Source Sans Pro" font-size="78.0" fill="#000000" transform="matrix(1.00, 0.00, -0.00, -1.00, 1505.9, 414.3)">e</text><text xml:space="preserve" font-family="SourceSansPro-Regular,Source Sans Pro" font-size="78.0" fill="#000000" transform="matrix(1.00, 0.00, -0.00, -1.00, 1544.6, 414.3)"> </text><text xml:space="preserve" font-family="SourceSansPro-Semibold,Source Sans Pro" font-weight="bold" font-size="78.0" fill="#000000" transform="matrix(1.00, 0.00, -0.00, -1.00, 1560.4, 414.3)">B</text><text xml:space="preserve" font-family="SourceSansPro-Semibold,Source Sans Pro" font-weight="bold" font-size="78.0" fill="#000000" transform="matrix(1.00, 0.00, -0.00, -1.00, 1606.9, 414.3)">i</text><text xml:space="preserve" font-family="SourceSansPro-Semibold,Source Sans Pro" font-weight="bold" font-size="78.0" fill="#000000" transform="matrix(1.00, 0.00, -0.00, -1.00, 1627.4, 414.3)">n</text><text xml:space="preserve" font-family="SourceSansPro-Semibold,Source Sans Pro" font-weight="bold" font-size="78.0" fill="#000000" transform="matrix(1.00, 0.00, -0.00, -1.00, 1671.1, 414.3)">a</text><text xml:space="preserve" font-family="SourceSansPro-Semibold,Source Sans Pro" font-weight="bold" font-size="78.0" fill="#000000" transform="matrix(1.00, 0.00, -0.00, -1.00, 1711.8, 414.3)">r</text><text xml:space="preserve" font-family="SourceSansPro-Semibold,Source Sans Pro" font-weight="bold" font-size="78.0" fill="#000000" transform="matrix(1.00, 0.00, -0.00, -1.00, 1741.9, 414.3)">y</text></g></svg>