<?xml version="1.0" encoding="UTF-8" standalone="no"?><svg xmlns="http://www.w3.org/2000/svg" xmlns:xlink="http://www.w3.org/1999/xlink" clip-rule="evenodd" stroke-miterlimit="10" viewBox="0 0 614 74"><desc>SVG generated by Keynote</desc><defs></defs><g transform="matrix(1.00, 0.00, -0.00, -1.00, 0.0, 74.0)"><g><clipPath id="clip0x7fd412785350"><path d="M 240.6 21.8 L 0.4 21.8 L 0.4 51.5 L 240.6 51.5 Z M 240.6 21.8 "></path></clipPath><g clip-path="url(#clip0x7fd412785350)"><path d="M 226.2 38.1 C 226.5 38.0 227.2 38.2 227.4 38.0 M 226.2 38.1 C 226.9 39.2 228.2 39.3 230.0 39.5 C 231.9 39.5 229.9 38.5 230.1 38.0 C 232.6 37.6 232.6 38.4 232.3 39.6 C 233.2 38.8 236.1 40.2 235.5 38.7 C 231.5 38.7 238.3 38.4 235.0 37.5 C 234.6 37.3 235.6 36.9 235.9 36.9 C 234.8 36.3 236.7 35.6 234.9 35.1 C 234.7 34.2 235.0 34.6 233.9 33.8 C 233.4 33.7 233.6 34.1 233.6 34.3 C 233.5 35.4 232.3 33.7 231.3 34.4 C 230.5 32.9 229.6 34.6 230.3 35.2 C 229.5 35.0 228.5 33.6 227.6 34.6 C 227.2 33.9 224.9 34.4 226.2 35.2 C 227.2 35.8 226.1 36.2 226.0 36.6 C 226.3 36.9 227.7 36.4 227.9 36.7 C 227.5 36.9 225.7 37.5 227.6 37.4 C 227.0 37.9 227.9 38.2 226.2 38.1 C 226.2 38.1 226.2 38.1 226.2 38.1 Z M 233.0 39.0 C 233.0 39.3 232.3 38.9 233.0 39.0 C 233.0 39.0 233.0 39.0 233.0 39.0 Z M 228.4 33.9 C 228.4 34.2 227.7 33.8 228.4 33.9 C 228.4 33.9 228.4 33.9 228.4 33.9 Z M 233.3 34.3 C 233.3 34.6 232.7 34.3 233.3 34.3 C 233.3 34.3 233.3 34.3 233.3 34.3 Z M 231.2 38.7 C 230.1 38.4 232.1 38.2 232.3 38.5 C 232.0 38.5 231.5 39.0 231.2 38.7 C 231.2 38.7 231.2 38.7 231.2 38.7 Z M 231.1 36.5 C 231.0 36.6 230.5 36.7 230.6 36.3 C 230.9 36.2 231.1 36.4 231.1 36.5 C 231.1 36.5 231.1 36.5 231.1 36.5 Z M 236.4 38.1 C 236.3 38.2 235.8 38.3 235.9 37.9 C 236.2 37.8 236.4 37.9 236.4 38.1 C 236.4 38.1 236.4 38.1 236.4 38.1 Z M 230.0 37.7 C 229.7 37.6 229.6 37.3 230.0 37.2 C 230.1 37.4 230.9 37.5 230.0 37.7 C 230.0 37.7 230.0 37.7 230.0 37.7 Z M 228.3 39.0 C 227.4 38.8 229.2 38.2 229.2 38.4 C 229.5 38.7 228.8 39.3 228.3 39.0 C 228.3 39.0 228.3 39.0 228.3 39.0 Z M 229.5 37.2 C 228.7 37.0 229.8 36.9 229.5 37.2 C 229.5 37.2 229.5 37.2 229.5 37.2 Z M 235.6 35.2 C 234.9 35.1 235.9 35.0 235.6 35.2 C 235.6 35.2 235.6 35.2 235.6 35.2 Z M 231.7 34.1 C 231.0 33.9 232.0 33.8 231.7 34.1 C 231.7 34.1 231.7 34.1 231.7 34.1 Z M 233.2 37.9 C 234.5 38.0 233.4 38.9 233.2 37.9 C 233.2 37.9 233.2 37.9 233.2 37.9 Z M 226.3 39.1 C 227.6 39.1 226.4 40.0 226.3 39.1 C 226.3 39.1 226.3 39.1 226.3 39.1 Z M 24.0 38.7 C 22.8 38.9 27.4 40.2 25.7 38.7 C 25.2 37.4 28.3 37.5 27.5 38.7 C 28.4 38.8 28.4 38.9 28.9 38.3 C 29.1 39.2 31.3 39.7 32.0 39.2 C 32.5 38.4 30.6 39.1 31.8 38.3 C 34.5 38.1 31.6 37.4 32.7 36.4 C 32.8 36.4 32.8 36.9 33.1 36.6 C 33.1 35.7 31.6 35.0 32.3 34.3 C 31.9 34.5 29.9 33.4 30.7 34.2 C 31.0 35.1 28.6 33.2 28.8 34.6 C 28.1 34.0 27.4 34.9 26.8 34.1 C 26.3 33.9 26.3 34.7 26.4 34.9 C 26.5 35.6 25.8 33.3 25.1 34.5 C 25.0 34.2 22.8 34.3 24.4 34.9 C 24.0 34.8 21.5 34.4 22.8 35.7 C 24.5 36.4 21.0 37.1 23.0 37.2 C 24.6 37.3 24.9 37.1 23.7 37.8 C 23.4 37.7 21.6 37.8 23.1 38.4 C 23.5 38.2 24.2 38.3 24.0 38.7 C 24.0 38.7 24.0 38.7 24.0 38.7 Z M 23.7 36.8 C 24.6 36.7 23.7 37.3 23.7 36.8 C 23.7 36.8 23.7 36.8 23.7 36.8 Z M 27.0 33.8 C 27.9 33.7 27.0 34.3 27.0 33.8 C 27.0 33.8 27.0 33.8 27.0 33.8 Z M 26.8 39.0 C 27.3 38.6 27.4 40.0 26.8 39.0 C 26.8 39.0 26.8 39.0 26.8 39.0 Z M 25.4 34.9 C 25.5 34.9 25.3 35.0 25.1 35.1 C 25.1 35.1 25.4 34.9 25.4 34.9 C 25.4 34.9 25.4 34.9 25.4 34.9 Z M 28.4 39.0 C 29.7 38.4 28.6 40.1 28.4 39.0 C 28.4 39.0 28.4 39.0 28.4 39.0 Z M 31.1 37.7 C 31.3 36.4 32.5 38.0 31.1 37.7 C 31.1 37.7 31.1 37.7 31.1 37.7 Z M 29.2 34.7 C 29.0 35.0 29.0 34.6 29.2 34.7 C 29.2 34.7 29.2 34.7 29.2 34.7 Z M 23.3 34.5 C 23.0 34.8 23.0 34.4 23.3 34.5 C 23.3 34.5 23.3 34.5 23.3 34.5 Z M 30.9 34.9 C 30.8 35.4 30.4 34.6 30.9 34.9 C 30.9 34.9 30.9 34.9 30.9 34.9 Z M 27.1 38.5 C 25.8 39.6 25.6 36.9 27.1 38.5 C 27.1 38.5 27.1 38.5 27.1 38.5 Z M 24.9 38.6 C 24.0 38.8 25.0 37.9 25.4 38.1 C 25.4 38.2 25.0 38.5 24.9 38.6 C 24.9 38.6 24.9 38.6 24.9 38.6 Z M 28.4 38.4 C 27.6 38.9 27.6 38.1 28.4 38.4 C 28.4 38.4 28.4 38.4 28.4 38.4 Z M 26.2 39.0 C 25.8 38.8 26.6 38.8 26.2 39.0 C 26.2 39.0 26.2 39.0 26.2 39.0 Z M 30.1 39.5 C 29.7 39.4 30.5 39.4 30.1 39.5 C 30.1 39.5 30.1 39.5 30.1 39.5 Z M 23.8 39.2 C 23.4 39.0 24.2 39.0 23.8 39.2 C 23.8 39.2 23.8 39.2 23.8 39.2 Z M 29.7 38.8 C 29.9 38.3 28.7 37.2 30.8 38.1 C 31.2 38.5 30.3 39.2 29.7 38.8 C 29.7 38.8 29.7 38.8 29.7 38.8 Z M 222.5 38.1 C 227.8 39.6 226.5 36.9 226.8 36.4 C 227.5 35.7 226.8 35.2 225.7 34.8 C 224.6 33.0 224.1 36.5 223.3 34.8 C 221.9 32.5 221.7 36.8 221.1 34.4 C 221.3 33.8 219.2 34.3 219.4 34.4 C 218.4 33.3 216.9 35.3 216.9 35.5 C 216.2 35.2 216.2 33.1 214.0 34.7 C 212.4 35.2 211.7 33.1 212.1 34.6 C 210.9 32.9 211.3 35.1 210.1 34.5 C 209.2 33.6 210.0 35.9 208.5 34.2 C 207.9 35.5 209.2 33.3 205.2 34.3 C 207.1 34.4 203.2 35.3 204.0 34.4 C 205.4 33.4 202.1 34.8 200.3 34.2 C 199.8 34.7 197.5 35.9 197.9 34.6 C 196.0 33.0 196.0 35.5 195.2 34.3 C 194.5 33.7 194.3 34.9 193.8 34.8 C 193.2 33.8 192.6 34.5 190.2 34.2 C 185.0 33.7 189.4 36.7 187.4 37.0 C 187.1 37.5 190.0 40.7 188.8 38.3 C 189.2 38.9 193.4 36.4 191.3 39.1 C 193.0 38.0 191.0 40.2 194.2 38.9 C 189.8 37.1 199.3 38.2 195.0 39.1 C 195.7 39.6 197.5 39.5 196.2 39.1 C 195.7 37.4 199.3 39.8 197.5 37.8 C 200.3 38.3 199.6 36.5 200.3 37.8 C 201.0 40.0 200.2 37.2 201.6 37.9 C 204.8 37.9 202.3 40.4 204.3 38.7 C 207.4 39.8 204.9 37.8 206.0 37.5 C 206.3 36.0 209.3 38.7 206.9 38.9 C 208.1 38.0 207.1 39.6 208.5 38.6 C 207.5 37.2 210.4 40.1 210.0 39.0 C 211.3 38.6 210.6 37.8 211.0 37.8 C 212.9 37.7 212.3 39.1 212.7 38.1 C 213.2 37.5 214.1 39.4 214.3 38.9 C 212.3 38.8 216.0 37.4 216.2 38.2 C 215.0 38.3 216.8 40.0 217.6 38.9 C 216.6 35.8 219.3 39.7 220.2 38.6 C 219.3 36.9 224.5 38.4 222.6 39.2 C 222.7 39.1 222.5 38.1 222.5 38.1 M 214.9 38.7 C 213.3 38.5 216.7 38.3 214.9 38.7 M 215.0 39.1 C 214.3 38.5 216.5 39.5 214.9 39.3 C 214.9 39.3 215.1 39.1 215.0 39.1 M 208.2 39.2 C 208.4 38.7 209.1 39.5 208.2 39.2 M 206.9 38.1 C 205.9 37.7 208.4 38.0 206.9 38.1 M 192.0 38.5 C 193.5 35.9 193.6 39.9 192.0 38.5 M 201.9 39.0 C 203.7 38.6 201.2 40.0 201.9 39.0 M 202.4 38.3 C 203.3 37.9 202.6 38.9 202.4 38.3 M 194.9 38.4 C 194.7 38.4 194.7 38.4 194.9 38.4 C 194.9 38.4 194.9 38.4 194.9 38.4 Z M 190.4 38.4 C 190.4 38.4 190.4 38.4 190.4 38.4 C 190.4 38.4 190.4 38.4 190.4 38.4 Z M 199.1 38.2 C 200.5 38.8 196.9 38.4 199.1 38.2 C 199.1 38.2 199.1 38.2 199.1 38.2 Z M 192.5 34.5 C 192.6 34.4 192.6 34.4 192.5 34.5 C 192.5 34.5 192.5 34.5 192.5 34.5 Z M 216.2 37.5 C 216.3 37.5 216.3 37.5 216.2 37.5 C 216.2 37.5 216.2 37.5 216.2 37.5 Z M 221.2 38.5 C 221.2 38.1 222.1 38.7 221.2 38.5 C 221.2 38.5 221.2 38.5 221.2 38.5 Z M 225.3 35.5 C 225.4 35.5 225.4 35.5 225.3 35.5 C 225.3 35.5 225.3 35.5 225.3 35.5 Z M 217.9 36.1 C 217.9 36.1 217.9 36.1 217.9 36.1 C 217.9 36.1 217.9 36.1 217.9 36.1 Z M 217.2 38.0 C 218.0 39.5 215.2 37.7 217.2 38.0 C 217.2 38.0 217.2 38.0 217.2 38.0 Z M 200.8 34.6 C 200.8 35.2 199.7 34.4 200.8 34.6 C 200.8 34.6 200.8 34.6 200.8 34.6 Z M 206.7 37.5 C 206.5 37.9 206.0 37.4 206.7 37.5 C 206.7 37.5 206.7 37.5 206.7 37.5 Z M 209.5 39.5 C 209.3 39.8 208.8 39.3 209.5 39.5 C 209.5 39.5 209.5 39.5 209.5 39.5 Z M 221.1 38.8 C 221.0 38.9 221.0 38.9 221.1 38.8 C 221.1 38.8 221.1 38.8 221.1 38.8 Z M 219.3 37.8 C 220.6 39.1 217.4 37.1 219.3 37.8 C 219.3 37.8 219.3 37.8 219.3 37.8 Z M 221.5 37.4 C 220.8 36.9 223.1 37.6 221.5 37.4 M 220.3 35.4 C 218.7 35.9 221.6 33.0 220.3 35.4 C 220.3 35.4 220.3 35.4 220.3 35.4 Z M 212.5 34.8 C 212.4 34.8 212.4 34.8 212.5 34.8 C 212.5 34.8 212.5 34.8 212.5 34.8 Z M 213.3 38.7 C 212.0 38.7 214.2 38.4 213.3 38.7 C 213.3 38.7 213.3 38.7 213.3 38.7 Z M 225.0 39.0 C 223.6 39.0 225.9 38.7 225.0 39.0 C 225.0 39.0 225.0 39.0 225.0 39.0 Z M 208.0 36.1 C 205.8 36.3 209.3 35.4 208.0 36.1 C 208.0 36.1 208.0 36.1 208.0 36.1 Z M 199.9 37.7 C 199.8 37.6 199.8 37.6 199.9 37.7 C 199.9 37.7 199.9 37.7 199.9 37.7 Z M 198.4 38.2 C 198.4 38.2 198.4 38.2 198.4 38.2 C 198.4 38.2 198.4 38.2 198.4 38.2 Z M 192.1 36.8 C 192.0 36.8 192.0 36.8 192.1 36.8 C 192.1 36.8 192.1 36.8 192.1 36.8 Z M 197.0 38.8 C 197.0 38.8 197.0 38.8 197.0 38.8 C 197.0 38.8 197.0 38.8 197.0 38.8 Z M 192.7 38.5 C 192.6 38.4 192.6 38.4 192.7 38.5 C 192.7 38.5 192.7 38.5 192.7 38.5 Z M 193.3 39.6 C 193.2 39.6 193.2 39.6 193.3 39.6 C 193.3 39.6 193.3 39.6 193.3 39.6 Z M 203.0 33.9 C 202.9 33.8 202.9 33.8 203.0 33.9 C 203.0 33.9 203.0 33.9 203.0 33.9 Z M 218.8 39.3 C 218.6 39.2 218.6 39.2 218.8 39.3 C 218.8 39.3 218.8 39.3 218.8 39.3 Z M 193.0 38.0 C 193.0 38.0 193.0 38.0 193.0 38.0 C 193.0 38.0 193.0 38.0 193.0 38.0 Z M 203.7 36.9 C 203.6 35.8 204.5 38.4 203.4 37.0 C 203.4 36.9 203.7 37.1 203.7 36.9 M 202.2 35.1 C 202.3 35.0 202.3 35.0 202.2 35.1 C 202.2 35.1 202.2 35.1 202.2 35.1 Z M 207.0 34.4 C 207.1 34.3 207.1 34.3 207.0 34.4 C 207.0 34.4 207.0 34.4 207.0 34.4 Z M 197.8 39.1 C 198.0 39.7 196.6 38.6 198.0 39.0 M 192.1 34.9 C 192.3 35.5 190.9 34.4 192.3 34.8 M 226.5 38.6 C 226.7 38.1 227.4 38.9 226.5 38.6 M 208.1 33.8 C 208.3 33.3 209.0 34.1 208.1 33.8 M 205.9 35.2 C 206.1 35.8 204.7 34.7 206.0 35.2 M 195.4 34.9 C 195.3 34.9 195.3 34.9 195.4 34.9 C 195.4 34.9 195.4 34.9 195.4 34.9 Z M 211.3 38.6 C 211.2 38.6 211.2 38.6 211.3 38.6 C 211.3 38.6 211.3 38.6 211.3 38.6 Z M 205.4 37.2 C 206.2 38.1 204.4 36.7 205.4 37.2 M 213.0 37.1 C 214.1 38.1 211.1 36.7 213.0 37.1 M 189.6 34.6 C 190.9 35.9 188.6 33.9 189.6 34.6 M 196.0 37.9 C 197.3 39.1 195.1 37.1 196.0 37.9 M 210.1 38.0 C 210.2 38.7 208.8 37.6 210.1 38.0 M 223.5 38.7 C 224.7 38.8 221.8 39.2 223.5 38.7 M 198.6 34.9 C 198.5 34.8 198.5 34.8 198.6 34.9 C 198.6 34.9 198.6 34.9 198.6 34.9 Z M 219.4 33.7 C 219.4 33.7 219.4 33.7 219.4 33.7 C 219.4 33.7 219.4 33.7 219.4 33.7 Z M 187.9 38.9 C 187.9 38.8 187.9 38.8 187.9 38.9 C 187.9 38.9 187.9 38.9 187.9 38.9 Z M 196.8 37.3 C 196.8 37.2 196.8 37.2 196.8 37.3 C 196.8 37.3 196.8 37.3 196.8 37.3 Z M 190.4 39.0 C 190.4 38.9 190.4 38.9 190.4 39.0 C 190.4 39.0 190.4 39.0 190.4 39.0 Z M 200.9 36.2 C 200.9 36.2 200.9 36.2 200.9 36.2 C 200.9 36.2 200.9 36.2 200.9 36.2 Z M 201.7 39.6 C 201.7 39.5 201.7 39.5 201.7 39.6 C 201.7 39.6 201.7 39.6 201.7 39.6 Z M 206.2 38.1 C 206.1 38.1 206.1 38.1 206.2 38.1 C 206.2 38.1 206.2 38.1 206.2 38.1 Z M 199.7 39.3 C 197.0 39.5 201.0 38.2 199.7 39.3 C 199.7 39.3 199.7 39.3 199.7 39.3 Z M 204.3 36.0 C 204.3 36.0 204.3 36.0 204.3 36.0 C 204.3 36.0 204.3 36.0 204.3 36.0 Z M 204.7 38.3 C 203.0 39.3 203.8 36.7 204.7 38.3 M 212.0 39.1 C 211.5 39.6 211.8 38.3 212.0 39.1 M 215.0 34.8 C 215.0 34.7 215.0 34.7 215.0 34.8 C 215.0 34.8 215.0 34.8 215.0 34.8 Z M 214.2 35.1 C 214.1 35.1 214.1 35.1 214.2 35.1 C 214.2 35.1 214.2 35.1 214.2 35.1 Z M 213.8 39.3 C 213.8 39.3 213.8 39.3 213.8 39.3 C 213.8 39.3 213.8 39.3 213.8 39.3 Z M 214.1 33.9 C 214.0 33.8 214.0 33.8 214.1 33.9 C 214.1 33.9 214.1 33.9 214.1 33.9 Z M 202.7 39.5 C 202.7 39.4 202.7 39.4 202.7 39.5 C 202.7 39.5 202.7 39.5 202.7 39.5 Z M 189.1 39.5 C 189.1 39.5 189.1 39.5 189.1 39.5 C 189.1 39.5 189.1 39.5 189.1 39.5 Z M 223.1 35.2 C 223.0 35.2 223.0 35.2 223.1 35.2 C 223.1 35.2 223.1 35.2 223.1 35.2 Z M 201.3 38.2 C 201.3 38.1 201.3 38.1 201.3 38.2 C 201.3 38.2 201.3 38.2 201.3 38.2 Z M 216.9 35.0 C 216.9 34.9 216.9 34.9 216.9 35.0 C 216.9 35.0 216.9 35.0 216.9 35.0 Z M 202.2 38.4 C 202.2 38.4 202.2 38.4 202.2 38.4 C 202.2 38.4 202.2 38.4 202.2 38.4 Z M 199.0 34.6 C 199.0 34.6 199.0 34.6 199.0 34.6 C 199.0 34.6 199.0 34.6 199.0 34.6 Z M 196.1 33.9 C 196.0 33.8 196.0 33.8 196.1 33.9 C 196.1 33.9 196.1 33.9 196.1 33.9 Z M 199.2 36.9 C 199.1 36.9 199.1 36.9 199.2 36.9 C 199.2 36.9 199.2 36.9 199.2 36.9 Z M 217.9 36.4 C 223.2 37.5 213.6 36.9 217.9 36.4 M 198.3 36.6 C 202.0 36.9 195.3 37.9 198.3 36.6 C 197.9 37.0 198.2 36.7 198.3 36.6 M 186.6 39.4 C 188.2 38.2 188.1 37.0 187.5 35.8 C 186.7 35.1 186.8 37.6 186.7 35.5 C 188.5 35.1 186.0 32.4 186.0 35.1 C 183.7 35.5 185.6 33.4 184.2 34.4 C 181.8 34.7 183.0 33.9 181.1 34.1 C 180.0 35.5 180.0 33.4 179.5 34.7 C 180.5 33.2 177.5 35.1 177.4 34.5 C 179.2 33.6 170.9 34.5 175.4 34.9 C 173.5 35.6 173.9 34.4 173.3 34.2 C 172.5 35.0 170.2 33.5 169.1 34.3 C 169.3 34.5 169.9 34.6 170.1 34.9 C 170.4 35.5 168.8 34.8 168.9 34.8 C 168.2 35.1 165.2 36.0 168.4 34.5 C 168.6 33.8 165.8 34.8 165.9 34.2 C 163.1 34.1 165.2 35.6 164.0 34.5 C 162.0 34.5 160.6 34.5 160.6 34.7 C 159.4 34.5 159.2 33.7 158.1 34.5 C 155.7 32.9 156.4 37.5 155.5 34.4 C 154.8 35.1 154.1 33.1 154.2 35.0 C 155.1 34.2 150.1 33.6 152.3 34.9 C 151.7 35.4 148.6 33.0 149.0 34.9 C 147.9 36.3 148.1 37.7 150.5 39.1 C 150.3 38.0 153.1 40.2 151.3 38.4 C 149.2 37.7 155.1 37.7 153.8 38.4 C 153.5 40.6 156.7 36.9 157.9 38.6 C 156.9 37.7 161.7 37.2 160.3 38.9 C 161.2 39.0 161.4 38.2 162.4 39.2 C 159.5 39.1 163.5 37.5 163.3 38.5 C 162.8 39.1 167.1 39.6 166.7 38.7 C 165.2 36.3 167.8 39.2 168.5 38.2 C 170.9 37.7 168.2 40.2 169.9 38.5 C 170.4 38.8 173.5 38.8 171.5 39.3 C 170.8 39.1 173.4 36.7 173.7 38.7 C 170.4 39.8 177.6 39.3 176.5 38.7 C 171.3 37.7 181.9 37.5 177.9 38.6 C 180.2 39.7 177.2 39.0 180.1 38.5 C 179.7 37.9 181.9 37.3 181.4 38.6 C 181.8 40.5 182.2 36.0 183.9 38.6 C 184.2 39.7 187.4 37.8 186.1 39.1 C 186.0 39.2 186.5 39.4 186.6 39.4 M 185.6 39.2 C 186.0 38.8 186.2 39.7 185.6 39.2 M 186.0 38.8 C 186.0 38.8 186.0 38.8 186.0 38.8 C 186.0 38.8 186.0 38.8 186.0 38.8 Z M 180.5 38.5 C 180.5 38.5 180.5 38.5 180.5 38.5 C 180.5 38.5 180.5 38.5 180.5 38.5 Z M 176.1 33.7 C 176.2 33.8 176.2 33.8 176.1 33.7 C 176.1 33.7 176.1 33.7 176.1 33.7 Z M 176.8 38.4 C 176.9 38.4 176.9 38.4 176.8 38.4 C 176.8 38.4 176.8 38.4 176.8 38.4 Z M 182.5 38.2 C 182.5 38.2 182.5 38.2 182.5 38.2 C 182.5 38.2 182.5 38.2 182.5 38.2 Z M 177.2 39.1 C 176.9 38.3 178.4 39.6 177.1 39.2 C 177.0 39.1 177.3 39.1 177.2 39.1 M 172.4 39.3 C 172.3 39.3 172.3 39.3 172.4 39.3 M 161.8 33.8 C 161.7 33.7 161.7 33.7 161.8 33.8 M 160.9 39.4 C 160.8 39.3 160.8 39.3 160.9 39.4 M 167.6 38.6 C 166.1 38.7 167.2 38.3 167.6 38.6 M 157.0 39.0 C 158.9 39.4 155.1 39.4 157.0 39.0 M 155.2 39.4 C 155.1 39.3 155.1 39.3 155.2 39.4 M 163.6 39.1 C 163.6 39.1 163.6 39.1 163.6 39.1 C 163.6 39.1 163.6 39.1 163.6 39.1 Z M 168.2 38.9 C 170.1 39.3 166.2 39.6 168.2 38.9 M 179.8 39.2 C 178.8 39.5 179.8 38.2 179.8 39.2 M 182.0 38.8 C 182.0 38.7 182.0 38.7 182.0 38.8 C 182.0 38.8 182.0 38.8 182.0 38.8 Z M 160.0 39.0 C 160.1 39.0 160.1 39.0 160.0 39.0 C 160.0 39.0 160.0 39.0 160.0 39.0 Z M 157.9 39.2 C 157.9 39.1 157.9 39.1 157.9 39.2 C 157.9 39.2 157.9 39.2 157.9 39.2 Z M 154.3 33.9 C 154.4 33.9 154.4 33.9 154.3 33.9 C 154.3 33.9 154.3 33.9 154.3 33.9 Z M 180.4 36.6 C 181.8 36.9 178.9 38.3 179.2 37.0 C 179.1 36.5 180.2 36.7 180.4 36.6 M 169.6 37.3 C 169.2 35.5 171.0 39.7 169.6 37.3 M 155.0 38.2 C 153.6 36.1 156.8 39.7 155.0 38.2 M 152.1 38.6 C 151.2 38.2 157.5 38.4 153.1 38.9 C 152.7 39.3 152.4 38.8 152.1 38.6 M 172.3 38.5 C 171.9 37.5 174.6 38.9 172.3 38.5 M 163.5 35.5 C 162.8 36.2 160.9 36.7 161.7 35.6 C 161.8 34.3 164.3 35.0 163.5 35.5 M 185.2 38.2 C 184.0 39.7 185.2 36.8 185.2 38.2 M 179.6 38.0 C 179.5 38.1 179.5 38.1 179.6 38.0 C 179.6 38.0 179.6 38.0 179.6 38.0 Z M 177.4 38.3 C 177.3 38.2 177.3 38.2 177.4 38.3 M 184.3 39.6 C 184.1 39.4 184.1 39.4 184.3 39.6 M 163.5 37.2 C 163.4 37.0 163.4 37.0 163.5 37.2 M 168.0 38.2 C 165.9 36.7 169.2 37.9 168.0 38.2 M 173.3 35.2 C 172.6 34.5 174.6 35.2 173.3 35.2 M 164.5 38.8 C 162.9 37.3 166.6 37.4 164.5 38.8 M 169.1 38.4 C 169.0 38.4 169.0 38.4 169.1 38.4 C 169.1 38.4 169.1 38.4 169.1 38.4 Z M 162.9 35.4 C 162.9 35.3 162.9 35.3 162.9 35.4 C 162.9 35.4 162.9 35.4 162.9 35.4 Z M 162.2 35.4 C 162.3 35.4 162.3 35.4 162.2 35.4 C 162.2 35.4 162.2 35.4 162.2 35.4 Z M 162.6 39.0 C 162.7 38.9 162.7 38.9 162.6 39.0 C 162.6 39.0 162.6 39.0 162.6 39.0 Z M 182.2 34.7 C 180.6 34.6 183.4 34.5 182.2 34.7 C 182.2 34.7 182.2 34.7 182.2 34.7 Z M 175.4 39.0 C 172.9 37.9 177.2 37.9 175.4 39.0 C 175.4 39.0 175.4 39.0 175.4 39.0 Z M 172.5 37.1 C 172.5 37.0 172.5 37.0 172.5 37.1 C 172.5 37.1 172.5 37.1 172.5 37.1 Z M 165.4 39.7 C 165.4 39.6 165.4 39.6 165.4 39.7 C 165.4 39.7 165.4 39.7 165.4 39.7 Z M 181.4 34.5 C 181.4 34.4 181.4 34.4 181.4 34.5 C 181.4 34.5 181.4 34.5 181.4 34.5 Z M 158.3 38.2 C 158.3 38.1 158.3 38.1 158.3 38.2 C 158.3 38.2 158.3 38.2 158.3 38.2 Z M 167.0 35.1 C 166.5 35.7 166.9 34.7 167.0 35.1 C 167.0 35.1 167.0 35.1 167.0 35.1 Z M 164.7 35.1 C 164.7 35.1 164.7 35.1 164.7 35.1 C 164.7 35.1 164.7 35.1 164.7 35.1 Z M 154.7 39.5 C 154.6 39.5 154.6 39.5 154.7 39.5 C 154.7 39.5 154.7 39.5 154.7 39.5 Z M 158.9 33.7 C 158.9 33.7 158.9 33.7 158.9 33.7 C 158.9 33.7 158.9 33.7 158.9 33.7 Z M 157.0 35.5 C 157.1 35.4 157.1 35.4 157.0 35.5 C 157.0 35.5 157.0 35.5 157.0 35.5 Z M 163.0 38.6 C 160.7 38.9 163.5 37.9 163.0 38.6 C 163.0 38.6 163.0 38.6 163.0 38.6 Z M 151.4 35.9 C 151.3 35.8 151.3 35.8 151.4 35.9 C 151.4 35.9 151.4 35.9 151.4 35.9 Z M 150.2 38.0 C 150.2 37.9 150.2 37.9 150.2 38.0 C 150.2 38.0 150.2 38.0 150.2 38.0 Z M 149.7 39.0 C 149.6 38.9 149.6 38.9 149.7 39.0 C 149.7 39.0 149.7 39.0 149.7 39.0 Z M 177.4 36.1 C 177.5 36.2 177.5 36.2 177.4 36.1 C 177.4 36.1 177.4 36.1 177.4 36.1 Z M 178.3 39.4 C 178.3 39.4 178.3 39.4 178.3 39.4 C 178.3 39.4 178.3 39.4 178.3 39.4 Z M 175.2 39.6 C 175.2 39.6 175.2 39.6 175.2 39.6 C 175.2 39.6 175.2 39.6 175.2 39.6 Z M 178.0 34.1 C 178.0 34.2 178.0 34.2 178.0 34.1 C 178.0 34.1 178.0 34.1 178.0 34.1 Z M 166.4 36.9 C 166.4 37.0 166.4 37.0 166.4 36.9 C 166.4 36.9 166.4 36.9 166.4 36.9 Z M 165.3 35.6 C 165.4 35.7 165.4 35.7 165.3 35.6 C 165.3 35.6 165.3 35.6 165.3 35.6 Z M 168.0 33.8 C 168.0 33.9 168.0 33.9 168.0 33.8 C 168.0 33.8 168.0 33.8 168.0 33.8 Z M 164.5 34.4 C 164.5 34.5 164.5 34.5 164.5 34.4 C 164.5 34.4 164.5 34.4 164.5 34.4 Z M 185.7 34.7 C 185.7 34.7 185.7 34.7 185.7 34.7 C 185.7 34.7 185.7 34.7 185.7 34.7 Z M 185.9 37.3 C 186.0 37.2 186.0 37.2 185.9 37.3 C 185.9 37.3 185.9 37.3 185.9 37.3 Z M 166.0 38.7 C 165.5 39.3 165.0 38.0 166.0 38.7 M 170.5 38.4 C 170.5 38.4 170.5 38.4 170.5 38.4 C 170.5 38.4 170.5 38.4 170.5 38.4 Z M 158.6 38.7 C 158.1 37.7 160.7 39.2 158.6 38.7 C 158.6 38.7 158.6 38.7 158.6 38.7 Z M 161.0 34.5 C 160.9 34.4 160.9 34.4 161.0 34.5 C 161.0 34.5 161.0 34.5 161.0 34.5 Z M 159.8 34.9 C 159.7 34.8 159.7 34.8 159.8 34.9 C 159.8 34.9 159.8 34.9 159.8 34.9 Z M 153.5 37.6 C 153.3 37.5 153.3 37.5 153.5 37.6 M 171.0 39.3 C 170.4 38.9 170.5 39.0 171.0 39.3 M 157.2 38.6 C 157.2 38.6 157.2 38.6 157.2 38.6 C 157.2 38.6 157.2 38.6 157.2 38.6 Z M 152.0 38.1 C 152.1 38.1 152.1 38.1 152.0 38.1 C 152.0 38.1 152.0 38.1 152.0 38.1 Z M 174.1 38.6 C 174.0 37.4 174.6 37.7 174.1 38.6 M 182.9 38.3 C 182.9 38.2 182.9 38.2 182.9 38.3 C 182.9 38.3 182.9 38.3 182.9 38.3 Z M 145.1 39.0 C 147.4 40.4 147.5 38.5 147.4 38.4 C 147.2 41.0 149.6 37.4 149.1 36.9 C 149.2 36.6 147.3 32.1 145.7 34.8 C 145.2 35.2 144.9 34.4 144.6 34.3 C 141.7 34.4 146.6 35.7 143.1 35.7 C 142.4 35.3 143.2 33.2 141.1 34.7 C 141.0 34.5 138.6 33.7 139.5 34.7 C 138.4 33.7 137.6 34.9 136.6 35.1 C 135.6 34.5 137.4 33.5 133.9 34.7 C 132.5 33.0 131.9 36.0 130.6 34.1 C 129.7 34.0 128.4 37.2 130.4 35.4 C 130.1 35.6 131.4 37.1 128.7 36.6 C 129.1 36.2 130.6 32.9 126.3 34.5 C 125.6 34.4 124.0 35.2 123.6 34.9 C 125.8 34.5 120.6 33.5 121.1 34.4 C 117.7 33.8 119.7 35.2 117.2 34.2 C 115.2 34.1 117.9 35.6 115.4 34.8 C 113.5 34.9 114.8 34.1 115.0 34.2 C 113.3 34.0 112.7 34.6 112.2 34.6 C 111.8 34.4 111.0 33.7 110.6 34.5 C 108.9 36.0 110.5 37.5 109.7 38.9 C 111.0 39.6 110.3 37.8 111.2 38.9 C 111.8 38.0 111.3 39.0 114.7 38.8 C 114.6 38.6 113.8 37.9 114.6 37.8 C 116.0 37.9 115.0 40.4 117.2 38.7 C 114.6 38.1 120.9 37.9 118.5 37.4 C 121.5 37.1 119.3 37.6 121.5 38.2 C 121.4 36.5 121.7 39.9 122.5 38.6 C 122.7 39.3 126.2 39.0 123.7 38.0 C 127.3 37.5 125.0 38.5 126.3 39.4 C 128.0 39.5 126.4 36.6 127.5 38.7 C 129.6 39.6 127.6 37.7 129.1 39.3 C 128.4 37.9 130.7 39.3 130.1 37.8 C 133.8 37.6 129.7 39.4 132.3 38.3 C 131.5 38.3 131.8 40.3 133.4 39.0 C 132.7 36.5 135.4 41.2 134.3 37.9 C 139.4 37.0 135.1 39.3 138.0 39.3 C 138.7 39.3 137.2 38.2 137.8 38.2 C 141.5 38.6 138.4 39.5 140.3 37.9 C 143.9 37.5 141.4 39.3 143.2 39.4 C 143.3 38.6 144.7 37.3 145.1 39.0 M 141.9 38.2 C 141.1 38.7 141.4 37.7 141.9 38.2 M 149.1 39.0 C 148.3 39.5 148.6 38.5 149.1 39.0 M 138.9 38.7 C 137.9 39.2 138.6 37.9 138.9 38.7 M 119.5 37.9 C 120.9 37.9 118.9 38.3 119.5 37.9 M 146.2 39.1 C 145.1 39.7 145.9 38.2 146.2 39.1 M 147.5 37.8 C 147.4 37.8 147.4 37.8 147.5 37.8 M 117.6 39.2 C 117.5 39.2 117.5 39.2 117.6 39.2 M 122.8 39.3 C 121.7 39.2 123.4 38.9 122.8 39.3 M 123.0 33.9 C 121.9 33.9 123.6 33.6 123.0 33.9 M 114.8 39.3 C 113.7 39.7 114.5 38.7 114.8 39.3 M 111.9 38.1 C 110.9 38.6 111.2 37.6 111.9 38.1 M 142.5 36.4 C 142.5 36.3 142.5 36.3 142.5 36.4 C 142.5 36.4 142.5 36.4 142.5 36.4 Z M 133.0 35.0 C 134.1 35.6 131.6 34.4 133.0 35.0 M 134.7 38.6 C 134.0 37.4 136.2 38.6 134.7 38.6 C 134.7 38.6 134.7 38.6 134.7 38.6 Z M 136.4 38.1 C 136.4 38.0 136.4 38.0 136.4 38.1 C 136.4 38.1 136.4 38.1 136.4 38.1 Z M 131.0 38.0 C 131.1 38.0 131.1 38.0 131.0 38.0 C 131.0 38.0 131.0 38.0 131.0 38.0 Z M 132.1 37.9 C 132.6 37.7 132.8 38.1 132.1 37.9 C 132.1 37.9 132.1 37.9 132.1 37.9 Z M 124.3 34.4 C 124.8 34.2 124.9 34.7 124.3 34.4 C 124.3 34.4 124.3 34.4 124.3 34.4 Z M 133.8 37.5 C 134.0 36.4 134.6 38.2 133.8 37.5 C 133.8 37.5 133.8 37.5 133.8 37.5 Z M 128.1 34.9 C 127.6 35.2 127.1 33.9 128.1 34.9 M 116.5 39.0 C 116.1 39.3 115.5 38.0 116.5 39.0 M 127.9 39.4 C 127.4 39.7 126.9 38.3 127.9 39.4 M 141.2 38.7 C 141.1 38.6 141.1 38.6 141.2 38.7 M 134.9 34.0 C 134.2 34.4 134.6 33.5 134.9 34.0 M 145.6 34.3 C 144.9 34.8 145.3 33.9 145.6 34.3 M 118.1 34.0 C 118.2 34.3 117.0 33.9 118.1 34.0 M 126.5 37.6 C 125.5 37.5 124.5 36.9 126.6 37.0 C 126.7 37.2 126.1 37.4 126.5 37.6 C 126.5 37.6 126.5 37.6 126.5 37.6 Z M 123.0 35.1 C 122.8 35.0 122.8 35.0 123.0 35.1 M 124.8 38.6 C 124.6 38.5 124.6 38.5 124.8 38.6 M 119.0 38.5 C 118.8 38.4 118.8 38.4 119.0 38.5 M 118.2 38.8 C 118.3 38.8 118.3 38.8 118.2 38.8 C 118.2 38.8 118.2 38.8 118.2 38.8 Z M 111.9 39.3 C 111.9 39.2 111.9 39.2 111.9 39.3 C 111.9 39.3 111.9 39.3 111.9 39.3 Z M 120.8 38.4 C 120.8 38.3 120.8 38.3 120.8 38.4 C 120.8 38.4 120.8 38.4 120.8 38.4 Z M 115.6 34.2 C 115.5 34.2 115.5 34.2 115.6 34.2 C 115.6 34.2 115.6 34.2 115.6 34.2 Z M 116.2 34.9 C 116.2 34.8 116.2 34.8 116.2 34.9 C 116.2 34.9 116.2 34.9 116.2 34.9 Z M 144.5 39.0 C 143.7 39.8 144.1 37.1 144.5 39.0 M 113.4 34.9 C 112.5 34.1 114.9 34.7 113.4 34.9 C 113.4 34.9 113.4 34.9 113.4 34.9 Z M 121.5 37.5 C 121.4 37.3 121.4 37.3 121.5 37.5 M 117.9 38.7 C 117.8 38.6 117.8 38.6 117.9 38.7 M 134.8 39.5 C 134.7 39.4 134.7 39.4 134.8 39.5 M 113.4 38.5 C 110.7 38.2 114.6 37.0 113.4 38.5 M 136.0 38.5 C 136.1 38.6 136.1 38.6 136.0 38.5 M 129.9 36.5 C 128.1 36.5 130.6 35.9 129.9 36.5 M 125.3 37.9 C 125.4 37.8 125.4 37.8 125.3 37.9 C 125.3 37.9 125.3 37.9 125.3 37.9 Z M 128.0 37.8 C 129.3 37.7 128.3 38.2 128.0 37.8 C 128.0 37.8 128.0 37.8 128.0 37.8 Z M 143.3 38.0 C 141.6 37.9 145.0 37.7 143.3 38.0 C 143.3 38.0 143.3 38.0 143.3 38.0 Z M 114.6 36.0 C 114.7 35.9 114.7 35.9 114.6 36.0 C 114.6 36.0 114.6 36.0 114.6 36.0 Z M 121.2 39.1 C 121.9 38.9 121.5 39.5 121.2 39.1 C 121.2 39.1 121.2 39.1 121.2 39.1 Z M 110.9 39.3 C 111.7 39.0 111.3 39.6 110.9 39.3 C 110.9 39.3 110.9 39.3 110.9 39.3 Z M 145.3 38.2 C 139.0 36.4 153.7 38.7 145.3 38.2 C 145.3 38.2 145.3 38.2 145.3 38.2 Z M 126.9 38.6 C 127.0 38.5 127.0 38.5 126.9 38.6 C 126.9 38.6 126.9 38.6 126.9 38.6 Z M 138.5 39.3 C 138.6 39.3 138.6 39.3 138.5 39.3 C 138.5 39.3 138.5 39.3 138.5 39.3 Z M 140.5 38.3 C 140.5 38.3 140.5 38.3 140.5 38.3 C 140.5 38.3 140.5 38.3 140.5 38.3 Z M 140.0 34.1 C 140.0 34.0 140.0 34.0 140.0 34.1 C 140.0 34.1 140.0 34.1 140.0 34.1 Z M 139.3 36.0 C 139.4 35.9 139.4 35.9 139.3 36.0 C 139.3 36.0 139.3 36.0 139.3 36.0 Z M 143.3 35.3 C 143.4 35.2 143.4 35.2 143.3 35.3 C 143.3 35.3 143.3 35.3 143.3 35.3 Z M 143.3 34.7 C 143.3 34.7 143.3 34.7 143.3 34.7 C 143.3 34.7 143.3 34.7 143.3 34.7 Z M 117.9 37.5 C 117.9 37.4 117.9 37.4 117.9 37.5 C 117.9 37.5 117.9 37.5 117.9 37.5 Z M 120.0 35.7 C 118.6 36.4 120.5 34.8 120.0 35.7 C 120.0 35.7 120.0 35.7 120.0 35.7 Z M 133.0 36.6 C 131.7 36.8 133.9 36.1 133.0 36.6 C 133.0 36.6 133.0 36.6 133.0 36.6 Z M 131.6 34.3 C 131.5 34.3 131.5 34.3 131.6 34.3 C 131.6 34.3 131.6 34.3 131.6 34.3 Z M 140.5 39.4 C 140.5 39.3 140.5 39.3 140.5 39.4 C 140.5 39.4 140.5 39.4 140.5 39.4 Z M 143.0 38.6 C 143.1 37.7 143.7 39.1 143.0 38.6 M 130.5 39.2 C 130.5 39.1 130.5 39.1 130.5 39.2 C 130.5 39.2 130.5 39.2 130.5 39.2 Z M 122.6 37.8 C 122.7 37.7 122.7 37.7 122.6 37.8 C 122.6 37.8 122.6 37.8 122.6 37.8 Z M 114.8 38.3 C 114.9 38.2 114.9 38.2 114.8 38.3 C 114.8 38.3 114.8 38.3 114.8 38.3 Z M 125.6 39.1 C 125.7 38.9 125.7 38.9 125.6 39.1 C 125.6 39.1 125.6 39.1 125.6 39.1 Z M 129.3 38.2 C 129.4 38.1 129.4 38.1 129.3 38.2 C 129.3 38.2 129.3 38.2 129.3 38.2 Z M 113.1 37.1 C 113.2 37.0 113.2 37.0 113.1 37.1 C 113.1 37.1 113.1 37.1 113.1 37.1 Z M 124.7 39.2 C 124.8 39.2 124.8 39.2 124.7 39.2 C 124.7 39.2 124.7 39.2 124.7 39.2 Z M 122.5 36.3 C 122.5 36.2 122.5 36.2 122.5 36.3 C 122.5 36.3 122.5 36.3 122.5 36.3 Z M 142.6 39.9 C 142.6 39.9 142.6 39.9 142.6 39.9 C 142.6 39.9 142.6 39.9 142.6 39.9 Z M 113.0 38.3 C 113.0 38.2 113.0 38.2 113.0 38.3 C 113.0 38.3 113.0 38.3 113.0 38.3 Z M 112.5 39.1 C 112.6 39.0 112.6 39.0 112.5 39.1 C 112.5 39.1 112.5 39.1 112.5 39.1 Z M 118.1 34.8 C 120.8 35.3 115.6 35.0 117.6 36.0 C 113.6 36.2 117.5 34.8 118.1 34.8 C 118.1 34.8 118.1 34.8 118.1 34.8 Z M 108.8 39.4 C 110.4 38.2 110.4 37.0 109.7 35.8 C 109.0 35.1 109.0 37.6 108.9 35.5 C 110.7 35.1 108.2 32.4 108.2 35.1 C 105.9 35.5 107.8 33.4 106.5 34.4 C 104.0 34.7 105.3 33.9 103.4 34.1 C 102.3 35.5 102.3 33.4 101.8 34.7 C 102.7 33.2 99.7 35.1 99.7 34.5 C 101.4 33.6 93.1 34.5 97.6 34.9 C 95.8 35.6 96.1 34.4 95.5 34.2 C 94.7 35.0 92.5 33.5 91.3 34.3 C 91.5 34.5 92.1 34.6 92.3 34.9 C 92.6 35.5 91.0 34.8 91.2 34.8 C 90.4 35.1 87.4 36.0 90.6 34.5 C 90.8 33.8 88.0 34.8 88.1 34.2 C 85.4 34.1 87.4 35.6 86.2 34.5 C 84.3 34.5 82.8 34.5 82.8 34.7 C 81.6 34.5 81.4 33.7 80.3 34.5 C 77.9 32.9 78.6 37.5 77.7 34.4 C 77.0 35.1 76.4 33.1 76.5 35.0 C 77.3 34.2 72.3 33.6 74.5 34.9 C 73.9 35.4 70.8 33.0 71.2 34.9 C 70.1 36.3 70.3 37.7 72.8 39.1 C 72.5 38.0 75.3 40.2 73.5 38.4 C 71.4 37.7 77.3 37.7 76.1 38.4 C 75.8 40.6 78.9 36.9 80.2 38.6 C 79.2 37.7 83.9 37.2 82.6 38.9 C 83.4 39.0 83.6 38.2 84.6 39.2 C 81.8 39.1 85.7 37.5 85.5 38.5 C 85.1 39.1 89.3 39.6 88.9 38.7 C 87.4 36.3 90.0 39.2 90.8 38.2 C 93.1 37.7 90.4 40.2 92.1 38.5 C 92.6 38.8 95.7 38.8 93.8 39.3 C 93.0 39.1 95.6 36.7 96.0 38.7 C 92.6 39.8 99.8 39.3 98.7 38.7 C 93.5 37.7 104.2 37.5 100.1 38.6 C 102.4 39.7 99.4 39.0 102.3 38.5 C 101.9 37.9 104.1 37.3 103.6 38.6 C 104.1 40.5 104.4 36.0 106.1 38.6 C 106.4 39.7 109.6 37.8 108.3 39.1 C 108.3 39.2 108.7 39.4 108.8 39.4 M 107.8 39.2 C 108.2 38.8 108.4 39.7 107.8 39.2 M 108.2 38.8 C 108.3 38.8 108.3 38.8 108.2 38.8 C 108.2 38.8 108.2 38.8 108.2 38.8 Z M 102.7 38.5 C 102.7 38.5 102.7 38.5 102.7 38.5 C 102.7 38.5 102.7 38.5 102.7 38.5 Z M 98.4 33.7 C 98.4 33.8 98.4 33.8 98.4 33.7 C 98.4 33.7 98.4 33.7 98.4 33.7 Z M 99.0 38.4 C 99.1 38.4 99.1 38.4 99.0 38.4 C 99.0 38.4 99.0 38.4 99.0 38.4 Z M 104.7 38.2 C 104.7 38.2 104.7 38.2 104.7 38.2 C 104.7 38.2 104.7 38.2 104.7 38.2 Z M 99.4 39.1 C 99.1 38.3 100.7 39.6 99.3 39.2 C 99.3 39.1 99.5 39.1 99.4 39.1 M 94.6 39.3 C 94.5 39.3 94.5 39.3 94.6 39.3 M 84.0 33.8 C 84.0 33.7 84.0 33.7 84.0 33.8 M 83.1 39.4 C 83.0 39.3 83.0 39.3 83.1 39.4 M 89.8 38.6 C 88.3 38.7 89.4 38.3 89.8 38.6 M 79.3 39.0 C 81.1 39.4 77.3 39.4 79.3 39.0 M 77.5 39.4 C 77.3 39.3 77.3 39.3 77.5 39.4 M 85.8 39.1 C 85.8 39.1 85.8 39.1 85.8 39.1 C 85.8 39.1 85.8 39.1 85.8 39.1 Z M 90.4 38.9 C 92.3 39.3 88.5 39.6 90.4 38.9 M 102.1 39.2 C 101.0 39.5 102.1 38.2 102.1 39.2 M 104.2 38.8 C 104.3 38.7 104.3 38.7 104.2 38.8 C 104.2 38.8 104.2 38.8 104.2 38.8 Z M 82.2 39.0 C 82.3 39.0 82.3 39.0 82.2 39.0 C 82.2 39.0 82.2 39.0 82.2 39.0 Z M 80.1 39.2 C 80.2 39.1 80.2 39.1 80.1 39.2 C 80.1 39.2 80.1 39.2 80.1 39.2 Z M 76.6 33.9 C 76.6 33.9 76.6 33.9 76.6 33.9 C 76.6 33.9 76.6 33.9 76.6 33.9 Z M 102.6 36.6 C 104.0 36.9 101.2 38.3 101.4 37.0 C 101.3 36.5 102.5 36.7 102.6 36.6 M 91.8 37.3 C 91.5 35.5 93.2 39.7 91.8 37.3 M 77.2 38.2 C 75.8 36.1 79.0 39.7 77.2 38.2 M 74.3 38.6 C 73.5 38.2 79.7 38.4 75.3 38.9 C 74.9 39.3 74.6 38.8 74.3 38.6 M 94.5 38.5 C 94.1 37.5 96.8 38.9 94.5 38.5 M 85.7 35.5 C 85.0 36.2 83.2 36.7 84.0 35.6 C 84.0 34.3 86.5 35.0 85.7 35.5 M 107.4 38.2 C 106.2 39.7 107.4 36.8 107.4 38.2 M 101.8 38.0 C 101.8 38.1 101.8 38.1 101.8 38.0 C 101.8 38.0 101.8 38.0 101.8 38.0 Z M 99.6 38.3 C 99.5 38.2 99.5 38.2 99.6 38.3 M 106.5 39.6 C 106.4 39.4 106.4 39.4 106.5 39.6 M 85.7 37.2 C 85.6 37.0 85.6 37.0 85.7 37.2 M 90.2 38.2 C 88.1 36.7 91.4 37.9 90.2 38.2 M 95.5 35.2 C 94.8 34.5 96.8 35.2 95.5 35.2 M 86.7 38.8 C 85.2 37.3 88.8 37.4 86.7 38.8 M 91.3 38.4 C 91.2 38.4 91.2 38.4 91.3 38.4 C 91.3 38.4 91.3 38.4 91.3 38.4 Z M 85.1 35.4 C 85.2 35.3 85.2 35.3 85.1 35.4 C 85.1 35.4 85.1 35.4 85.1 35.4 Z M 84.5 35.4 C 84.5 35.4 84.5 35.4 84.5 35.4 C 84.5 35.4 84.5 35.4 84.5 35.4 Z M 84.8 39.0 C 84.9 38.9 84.9 38.9 84.8 39.0 C 84.8 39.0 84.8 39.0 84.8 39.0 Z M 104.4 34.7 C 102.9 34.6 105.6 34.5 104.4 34.7 C 104.4 34.7 104.4 34.7 104.4 34.7 Z M 97.6 39.0 C 95.1 37.9 99.4 37.9 97.6 39.0 C 97.6 39.0 97.6 39.0 97.6 39.0 Z M 94.8 37.1 C 94.8 37.0 94.8 37.0 94.8 37.1 C 94.8 37.1 94.8 37.1 94.8 37.1 Z M 87.7 39.7 C 87.7 39.6 87.7 39.6 87.7 39.7 C 87.7 39.7 87.7 39.7 87.7 39.7 Z M 103.6 34.5 C 103.6 34.4 103.6 34.4 103.6 34.5 C 103.6 34.5 103.6 34.5 103.6 34.5 Z M 80.5 38.2 C 80.5 38.1 80.5 38.1 80.5 38.2 C 80.5 38.2 80.5 38.2 80.5 38.2 Z M 89.2 35.1 C 88.7 35.7 89.1 34.7 89.2 35.1 C 89.2 35.1 89.2 35.1 89.2 35.1 Z M 87.0 35.1 C 86.9 35.1 86.9 35.1 87.0 35.1 C 87.0 35.1 87.0 35.1 87.0 35.1 Z M 76.9 39.5 C 76.8 39.5 76.8 39.5 76.9 39.5 C 76.9 39.5 76.9 39.5 76.9 39.5 Z M 81.2 33.7 C 81.1 33.7 81.1 33.7 81.2 33.7 C 81.2 33.7 81.2 33.7 81.2 33.7 Z M 79.3 35.5 C 79.3 35.4 79.3 35.4 79.3 35.5 C 79.3 35.5 79.3 35.5 79.3 35.5 Z M 85.2 38.6 C 83.0 38.9 85.7 37.9 85.2 38.6 C 85.2 38.6 85.2 38.6 85.2 38.6 Z M 73.6 35.9 C 73.6 35.8 73.6 35.8 73.6 35.9 C 73.6 35.9 73.6 35.9 73.6 35.9 Z M 72.5 38.0 C 72.4 37.9 72.4 37.9 72.5 38.0 C 72.5 38.0 72.5 38.0 72.5 38.0 Z M 71.9 39.0 C 71.8 38.9 71.8 38.9 71.9 39.0 C 71.9 39.0 71.9 39.0 71.9 39.0 Z M 99.6 36.1 C 99.7 36.2 99.7 36.2 99.6 36.1 C 99.6 36.1 99.6 36.1 99.6 36.1 Z M 100.5 39.4 C 100.6 39.4 100.6 39.4 100.5 39.4 C 100.5 39.4 100.5 39.4 100.5 39.4 Z M 97.4 39.6 C 97.5 39.6 97.5 39.6 97.4 39.6 C 97.4 39.6 97.4 39.6 97.4 39.6 Z M 100.2 34.1 C 100.2 34.2 100.2 34.2 100.2 34.1 C 100.2 34.1 100.2 34.1 100.2 34.1 Z M 88.6 36.9 C 88.7 37.0 88.7 37.0 88.6 36.9 C 88.6 36.9 88.6 36.9 88.6 36.9 Z M 87.5 35.6 C 87.6 35.7 87.6 35.7 87.5 35.6 C 87.5 35.6 87.5 35.6 87.5 35.6 Z M 90.2 33.8 C 90.2 33.9 90.2 33.9 90.2 33.8 C 90.2 33.8 90.2 33.8 90.2 33.8 Z M 86.7 34.4 C 86.7 34.5 86.7 34.5 86.7 34.4 C 86.7 34.4 86.7 34.4 86.7 34.4 Z M 107.9 34.7 C 107.9 34.7 107.9 34.7 107.9 34.7 C 107.9 34.7 107.9 34.7 107.9 34.7 Z M 108.2 37.3 C 108.2 37.2 108.2 37.2 108.2 37.3 C 108.2 37.3 108.2 37.3 108.2 37.3 Z M 88.3 38.7 C 87.8 39.3 87.2 38.0 88.3 38.7 M 92.7 38.4 C 92.7 38.4 92.7 38.4 92.7 38.4 C 92.7 38.4 92.7 38.4 92.7 38.4 Z M 80.9 38.7 C 80.3 37.7 82.9 39.2 80.9 38.7 C 80.9 38.7 80.9 38.7 80.9 38.7 Z M 83.2 34.5 C 83.2 34.4 83.2 34.4 83.2 34.5 C 83.2 34.5 83.2 34.5 83.2 34.5 Z M 82.0 34.9 C 82.0 34.8 82.0 34.8 82.0 34.9 C 82.0 34.9 82.0 34.9 82.0 34.9 Z M 75.7 37.6 C 75.6 37.5 75.6 37.5 75.7 37.6 M 93.2 39.3 C 92.6 38.9 92.7 39.0 93.2 39.3 M 79.4 38.6 C 79.4 38.6 79.4 38.6 79.4 38.6 C 79.4 38.6 79.4 38.6 79.4 38.6 Z M 74.3 38.1 C 74.3 38.1 74.3 38.1 74.3 38.1 C 74.3 38.1 74.3 38.1 74.3 38.1 Z M 96.4 38.6 C 96.2 37.4 96.9 37.7 96.4 38.6 M 105.1 38.3 C 105.1 38.2 105.1 38.2 105.1 38.3 C 105.1 38.3 105.1 38.3 105.1 38.3 Z M 67.3 39.0 C 69.7 40.4 69.7 38.5 69.7 38.4 C 69.4 41.0 71.8 37.4 71.3 36.9 C 71.4 36.6 69.6 32.1 67.9 34.8 C 67.4 35.2 67.2 34.4 66.8 34.3 C 63.9 34.4 68.9 35.7 65.3 35.7 C 64.7 35.3 65.4 33.2 63.3 34.7 C 63.2 34.5 60.8 33.7 61.7 34.7 C 60.6 33.7 59.8 34.9 58.8 35.1 C 57.8 34.5 59.6 33.5 56.1 34.7 C 54.7 33.0 54.1 36.0 52.8 34.1 C 52.0 34.0 50.6 37.2 52.6 35.4 C 52.4 35.6 53.6 37.1 50.9 36.6 C 51.3 36.2 52.8 32.9 48.5 34.5 C 47.8 34.4 46.2 35.2 45.8 34.9 C 48.0 34.5 42.8 33.5 43.3 34.4 C 39.9 33.8 41.9 35.2 39.4 34.2 C 37.4 34.1 40.1 35.6 37.6 34.8 C 35.7 34.9 37.0 34.1 37.2 34.2 C 35.5 34.0 34.9 34.6 34.4 34.6 C 34.0 34.4 33.3 33.7 32.9 34.5 C 31.1 36.0 32.7 37.5 31.9 38.9 C 33.2 39.6 32.5 37.8 33.4 38.9 C 34.0 38.0 33.5 39.0 36.9 38.8 C 36.8 38.6 36.0 37.9 36.8 37.8 C 38.2 37.9 37.2 40.4 39.5 38.7 C 36.8 38.1 43.1 37.9 40.7 37.4 C 43.7 37.1 41.6 37.6 43.8 38.2 C 43.6 36.5 43.9 39.9 44.8 38.6 C 45.0 39.3 48.4 39.0 45.9 38.0 C 49.5 37.5 47.3 38.5 48.5 39.4 C 50.2 39.5 48.7 36.6 49.7 38.7 C 51.9 39.6 49.8 37.7 51.4 39.3 C 50.7 37.9 52.9 39.3 52.3 37.8 C 56.0 37.6 51.9 39.4 54.5 38.3 C 53.7 38.3 54.0 40.3 55.6 39.0 C 54.9 36.5 57.6 41.2 56.5 37.9 C 61.6 37.0 57.4 39.3 60.2 39.3 C 60.9 39.3 59.4 38.2 60.0 38.2 C 63.7 38.6 60.7 39.5 62.6 37.9 C 66.2 37.5 63.6 39.3 65.4 39.4 C 65.5 38.6 66.9 37.3 67.3 39.0 M 64.1 38.2 C 63.3 38.7 63.6 37.7 64.1 38.2 M 71.3 39.0 C 70.5 39.5 70.8 38.5 71.3 39.0 M 61.1 38.7 C 60.1 39.2 60.8 37.9 61.1 38.7 M 41.7 37.9 C 43.1 37.9 41.1 38.3 41.7 37.9 M 68.4 39.1 C 67.4 39.7 68.1 38.2 68.4 39.1 M 69.7 37.8 C 69.7 37.8 69.7 37.8 69.7 37.8 M 39.8 39.2 C 39.8 39.2 39.8 39.2 39.8 39.2 M 45.0 39.3 C 43.9 39.2 45.6 38.9 45.0 39.3 M 45.2 33.9 C 44.1 33.9 45.8 33.6 45.2 33.9 M 37.0 39.3 C 35.9 39.7 36.7 38.7 37.0 39.3 M 34.1 38.1 C 33.1 38.6 33.5 37.6 34.1 38.1 M 64.7 36.4 C 64.7 36.3 64.7 36.3 64.7 36.4 C 64.7 36.4 64.7 36.4 64.7 36.4 Z M 55.2 35.0 C 56.3 35.6 53.8 34.4 55.2 35.0 M 57.0 38.6 C 56.2 37.4 58.4 38.6 57.0 38.6 C 57.0 38.6 57.0 38.6 57.0 38.6 Z M 58.6 38.1 C 58.7 38.0 58.7 38.0 58.6 38.1 C 58.6 38.1 58.6 38.1 58.6 38.1 Z M 53.3 38.0 C 53.3 38.0 53.3 38.0 53.3 38.0 C 53.3 38.0 53.3 38.0 53.3 38.0 Z M 54.4 37.9 C 54.8 37.7 55.0 38.1 54.4 37.9 C 54.4 37.9 54.4 37.9 54.4 37.9 Z M 46.6 34.4 C 47.0 34.2 47.2 34.7 46.6 34.4 C 46.6 34.4 46.6 34.4 46.6 34.4 Z M 56.1 37.5 C 56.2 36.4 56.8 38.2 56.1 37.5 C 56.1 37.5 56.1 37.5 56.1 37.5 Z M 50.3 34.9 C 49.8 35.2 49.3 33.9 50.3 34.9 M 38.7 39.0 C 38.3 39.3 37.7 38.0 38.7 39.0 M 50.1 39.4 C 49.6 39.7 49.1 38.3 50.1 39.4 M 63.5 38.7 C 63.3 38.6 63.3 38.6 63.5 38.7 M 57.2 34.0 C 56.4 34.4 56.8 33.5 57.2 34.0 M 67.9 34.3 C 67.1 34.8 67.5 33.9 67.9 34.3 M 40.4 34.0 C 40.4 34.3 39.2 33.9 40.4 34.0 M 48.8 37.6 C 47.8 37.5 46.8 36.9 48.8 37.0 C 49.0 37.2 48.3 37.4 48.8 37.6 C 48.8 37.6 48.8 37.6 48.8 37.6 Z M 45.2 35.1 C 45.1 35.0 45.1 35.0 45.2 35.1 M 47.0 38.6 C 46.9 38.5 46.9 38.5 47.0 38.6 M 41.2 38.5 C 41.1 38.4 41.1 38.4 41.2 38.5 M 40.5 38.8 C 40.5 38.8 40.5 38.8 40.5 38.8 C 40.5 38.8 40.5 38.8 40.5 38.8 Z M 34.1 39.3 C 34.1 39.2 34.1 39.2 34.1 39.3 C 34.1 39.3 34.1 39.3 34.1 39.3 Z M 43.0 38.4 C 43.1 38.3 43.1 38.3 43.0 38.4 C 43.0 38.4 43.0 38.4 43.0 38.4 Z M 37.8 34.2 C 37.8 34.2 37.8 34.2 37.8 34.2 C 37.8 34.2 37.8 34.2 37.8 34.2 Z M 38.4 34.9 C 38.4 34.8 38.4 34.8 38.4 34.9 C 38.4 34.9 38.4 34.9 38.4 34.9 Z M 66.8 39.0 C 65.9 39.8 66.3 37.1 66.8 39.0 M 35.6 34.9 C 34.8 34.1 37.1 34.7 35.6 34.9 C 35.6 34.9 35.6 34.9 35.6 34.9 Z M 43.7 37.5 C 43.7 37.3 43.7 37.3 43.7 37.5 M 40.1 38.7 C 40.0 38.6 40.0 38.6 40.1 38.7 M 57.0 39.5 C 56.9 39.4 56.9 39.4 57.0 39.5 M 35.6 38.5 C 32.9 38.2 36.8 37.0 35.6 38.5 M 58.3 38.5 C 58.3 38.6 58.3 38.6 58.3 38.5 M 52.2 36.5 C 50.3 36.5 52.8 35.9 52.2 36.5 M 47.5 37.9 C 47.6 37.8 47.6 37.8 47.5 37.9 C 47.5 37.9 47.5 37.9 47.5 37.9 Z M 50.2 37.8 C 51.5 37.7 50.6 38.2 50.2 37.8 C 50.2 37.8 50.2 37.8 50.2 37.8 Z M 65.5 38.0 C 63.8 37.9 67.3 37.7 65.5 38.0 C 65.5 38.0 65.5 38.0 65.5 38.0 Z M 36.9 36.0 C 36.9 35.9 36.9 35.9 36.9 36.0 C 36.9 36.0 36.9 36.0 36.9 36.0 Z M 43.4 39.1 C 44.2 38.9 43.8 39.5 43.4 39.1 C 43.4 39.1 43.4 39.1 43.4 39.1 Z M 33.1 39.3 C 33.9 39.0 33.5 39.6 33.1 39.3 C 33.1 39.3 33.1 39.3 33.1 39.3 Z M 67.6 38.2 C 61.3 36.4 75.9 38.7 67.6 38.2 C 67.6 38.2 67.6 38.2 67.6 38.2 Z M 49.1 38.6 C 49.2 38.5 49.2 38.5 49.1 38.6 C 49.1 38.6 49.1 38.6 49.1 38.6 Z M 60.8 39.3 C 60.8 39.3 60.8 39.3 60.8 39.3 C 60.8 39.3 60.8 39.3 60.8 39.3 Z M 62.7 38.3 C 62.8 38.3 62.8 38.3 62.7 38.3 C 62.7 38.3 62.7 38.3 62.7 38.3 Z M 62.2 34.1 C 62.2 34.0 62.2 34.0 62.2 34.1 C 62.2 34.1 62.2 34.1 62.2 34.1 Z M 61.5 36.0 C 61.6 35.9 61.6 35.9 61.5 36.0 C 61.5 36.0 61.5 36.0 61.5 36.0 Z M 65.6 35.3 C 65.6 35.2 65.6 35.2 65.6 35.3 C 65.6 35.3 65.6 35.3 65.6 35.3 Z M 65.5 34.7 C 65.5 34.7 65.5 34.7 65.5 34.7 C 65.5 34.7 65.5 34.7 65.5 34.7 Z M 40.1 37.5 C 40.1 37.4 40.1 37.4 40.1 37.5 C 40.1 37.5 40.1 37.5 40.1 37.5 Z M 42.3 35.7 C 40.8 36.4 42.7 34.8 42.3 35.7 C 42.3 35.7 42.3 35.7 42.3 35.7 Z M 55.3 36.6 C 53.9 36.8 56.1 36.1 55.3 36.6 C 55.3 36.6 55.3 36.6 55.3 36.6 Z M 53.8 34.3 C 53.8 34.3 53.8 34.3 53.8 34.3 C 53.8 34.3 53.8 34.3 53.8 34.3 Z M 62.7 39.4 C 62.8 39.3 62.8 39.3 62.7 39.4 C 62.7 39.4 62.7 39.4 62.7 39.4 Z M 65.2 38.6 C 65.3 37.7 66.0 39.1 65.2 38.6 M 52.7 39.2 C 52.7 39.1 52.7 39.1 52.7 39.2 C 52.7 39.2 52.7 39.2 52.7 39.2 Z M 44.9 37.8 C 44.9 37.7 44.9 37.7 44.9 37.8 C 44.9 37.8 44.9 37.8 44.9 37.8 Z M 37.0 38.3 C 37.1 38.2 37.1 38.2 37.0 38.3 C 37.0 38.3 37.0 38.3 37.0 38.3 Z M 47.8 39.1 C 47.9 38.9 47.9 38.9 47.8 39.1 C 47.8 39.1 47.8 39.1 47.8 39.1 Z M 51.6 38.2 C 51.6 38.1 51.6 38.1 51.6 38.2 C 51.6 38.2 51.6 38.2 51.6 38.2 Z M 35.3 37.1 C 35.4 37.0 35.4 37.0 35.3 37.1 C 35.3 37.1 35.3 37.1 35.3 37.1 Z M 47.0 39.2 C 47.0 39.2 47.0 39.2 47.0 39.2 C 47.0 39.2 47.0 39.2 47.0 39.2 Z M 44.7 36.3 C 44.8 36.2 44.8 36.2 44.7 36.3 C 44.7 36.3 44.7 36.3 44.7 36.3 Z M 64.8 39.9 C 64.9 39.9 64.9 39.9 64.8 39.9 C 64.8 39.9 64.8 39.9 64.8 39.9 Z M 35.2 38.3 C 35.3 38.2 35.3 38.2 35.2 38.3 C 35.2 38.3 35.2 38.3 35.2 38.3 Z M 34.8 39.1 C 34.8 39.0 34.8 39.0 34.8 39.1 C 34.8 39.1 34.8 39.1 34.8 39.1 Z M 40.3 34.8 C 43.1 35.3 37.8 35.0 39.8 36.0 C 35.9 36.2 39.7 34.8 40.3 34.8 C 40.3 34.8 40.3 34.8 40.3 34.8 Z M 40.3 34.8 " fill="#DE6A10"></path><path d="M 23.6 23.4 C 23.7 22.8 25.3 22.3 24.2 23.3 C 24.1 23.4 23.5 23.6 23.6 23.4 Z M 21.2 24.8 C 21.4 24.7 21.5 24.6 21.7 24.7 C 22.2 24.9 20.6 25.2 21.2 24.8 Z M 25.0 23.2 C 25.0 23.1 25.8 22.6 25.7 22.9 C 25.7 23.1 25.0 23.3 25.0 23.2 Z M 19.6 27.0 C 19.5 26.8 20.3 26.3 20.5 26.3 C 21.1 26.4 19.8 27.5 19.6 27.0 Z M 26.2 31.1 C 26.2 31.1 26.2 31.2 26.2 31.3 C 26.2 31.2 26.1 31.1 26.2 31.1 Z M 8.1 33.1 C 8.3 33.0 8.7 33.1 8.7 33.2 C 8.7 33.5 7.7 33.5 8.1 33.1 Z M 26.6 46.9 C 26.6 46.9 26.8 46.5 26.9 46.6 C 27.1 46.8 26.8 47.0 26.6 46.9 Z M 26.9 46.8 C 27.1 46.8 27.2 47.1 27.0 47.1 C 26.8 47.0 26.7 46.9 26.9 46.8 Z M 14.1 43.5 C 14.0 43.5 13.9 43.4 14.1 43.4 C 14.2 43.4 14.3 43.6 14.1 43.5 Z M 14.6 43.4 C 14.8 43.3 14.9 43.7 14.7 43.7 C 14.5 43.6 14.4 43.5 14.6 43.4 Z M 16.4 45.9 C 16.2 45.9 16.2 45.9 16.3 45.8 C 16.4 45.8 16.5 46.0 16.4 45.9 Z M 27.3 40.4 C 27.4 40.5 27.2 40.9 27.1 40.9 C 26.8 40.9 27.1 40.2 27.3 40.4 Z M 27.4 41.0 C 27.6 40.9 27.6 41.3 27.4 41.2 C 27.3 41.1 27.2 41.1 27.4 41.0 Z M 27.0 39.0 C 26.8 39.0 26.8 38.4 26.8 38.3 C 26.9 38.2 26.9 37.9 27.0 37.8 C 27.1 37.7 27.4 39.0 27.0 39.0 Z M 26.8 34.8 C 26.9 34.8 26.9 34.8 26.8 35.0 C 26.7 35.2 26.7 34.8 26.8 34.8 Z M 26.9 37.2 C 27.0 37.2 27.1 37.2 27.0 37.4 C 26.9 37.6 26.8 37.2 26.9 37.2 Z M 14.8 29.2 C 14.6 29.1 15.3 28.8 15.4 28.9 C 15.5 28.9 15.2 29.0 15.4 29.0 C 15.6 29.0 15.5 29.6 14.8 29.2 Z M 19.9 25.7 C 20.0 25.6 20.1 25.7 20.1 25.8 C 20.1 25.8 19.6 26.0 19.9 25.7 Z M 16.0 29.4 C 16.0 29.4 16.1 29.3 16.2 29.4 C 16.2 29.4 16.1 29.5 16.0 29.4 Z M 15.7 29.8 C 15.8 29.7 16.2 29.7 16.2 29.9 C 16.2 30.2 15.2 30.2 15.7 29.8 Z M 13.9 29.4 C 14.1 29.3 14.1 29.3 14.0 29.4 C 14.0 29.6 13.9 29.4 13.9 29.4 Z M 16.8 27.3 C 17.0 27.2 17.0 27.2 17.0 27.3 C 16.9 27.4 16.8 27.3 16.8 27.3 Z M 12.7 30.6 C 12.7 30.6 13.0 30.2 13.3 30.5 C 13.7 30.8 12.7 30.6 12.7 30.6 Z M 10.8 32.4 C 11.0 32.3 11.0 32.5 10.9 32.5 C 10.7 32.6 10.7 32.4 10.8 32.4 Z M 10.5 33.6 C 10.2 33.6 9.9 33.5 10.3 33.4 C 10.7 33.2 10.8 33.5 10.5 33.6 Z M 10.8 33.2 C 10.8 33.2 10.7 33.3 10.6 33.2 C 10.6 33.2 10.7 33.1 10.8 33.2 Z M 12.3 31.6 C 12.4 31.3 12.8 31.4 12.5 31.6 C 12.3 31.9 12.2 31.8 12.3 31.6 Z M 27.2 28.9 C 27.2 28.7 27.4 28.8 27.5 28.9 C 27.6 29.0 27.3 29.0 27.2 28.9 Z M 26.3 38.0 C 26.4 37.9 26.5 38.0 26.4 38.2 C 26.3 38.4 26.2 38.1 26.3 38.0 Z M 25.8 43.8 C 26.0 43.6 26.0 43.7 25.9 44.0 C 25.8 44.2 25.7 43.9 25.8 43.8 Z M 26.3 35.7 C 26.4 35.6 26.8 36.2 26.4 36.5 C 26.0 36.9 25.9 35.9 26.3 35.7 Z M 21.7 30.0 C 21.6 29.9 21.8 29.9 21.8 29.9 C 21.8 30.1 21.8 30.1 21.7 30.0 Z M 25.6 37.0 C 25.5 36.8 25.8 36.9 25.9 37.0 C 26.0 37.1 25.7 37.1 25.6 37.0 Z M 26.2 42.7 C 26.3 42.5 26.6 42.6 26.8 42.8 C 27.2 43.2 26.7 43.6 26.4 43.9 C 26.2 44.2 26.1 42.9 26.2 42.7 Z M 26.4 27.5 C 26.3 27.6 26.3 27.8 26.3 27.9 C 26.4 27.9 26.3 28.0 26.2 28.1 C 26.3 28.7 26.8 29.0 27.0 29.4 C 27.3 30.2 26.2 30.5 26.2 31.1 C 26.1 30.9 26.1 30.8 26.0 30.7 C 25.7 30.5 25.9 32.5 25.9 32.6 C 26.2 34.4 26.4 32.3 27.0 32.3 C 27.3 32.3 26.6 33.5 26.6 33.5 C 26.3 34.1 26.9 34.2 26.7 34.6 C 26.6 34.8 25.3 35.5 25.4 35.7 C 25.6 35.9 25.4 36.4 25.4 36.6 C 25.4 36.9 25.5 37.5 26.0 37.2 C 26.3 37.0 26.6 36.9 26.3 37.3 C 26.1 37.6 25.3 39.6 26.3 39.6 C 26.3 39.5 26.6 39.1 26.6 39.1 C 26.8 39.6 26.5 41.4 26.9 41.8 C 27.8 42.7 26.4 41.5 26.1 41.9 C 25.7 42.7 25.4 43.1 25.6 44.1 C 25.6 44.4 25.6 45.3 26.1 44.8 C 26.5 44.5 26.7 44.8 26.8 44.2 C 27.3 44.8 26.4 45.3 26.6 45.4 C 26.9 45.6 27.0 45.2 27.0 45.7 C 26.9 46.2 27.1 46.0 26.6 46.1 C 26.4 46.1 26.3 46.7 26.3 46.7 C 26.3 46.6 26.2 46.6 26.2 46.6 C 26.2 47.1 27.1 47.8 26.9 48.0 C 26.7 48.1 26.1 47.8 25.9 47.8 C 25.9 47.9 25.9 47.9 25.9 47.9 C 26.0 48.1 26.3 48.6 26.3 48.7 C 26.2 48.8 25.3 48.4 25.6 48.6 C 25.8 48.8 25.5 49.9 25.2 49.9 C 25.0 50.0 23.8 50.3 23.8 50.4 C 23.7 50.6 23.1 50.2 23.0 50.2 C 22.8 50.1 22.6 49.6 22.6 49.5 C 22.6 49.5 22.1 49.3 22.1 49.3 C 22.1 49.3 21.9 49.3 21.5 49.1 C 21.2 48.9 21.1 48.6 20.7 48.2 C 20.4 47.8 20.0 48.0 19.6 47.8 C 19.2 47.6 19.2 46.8 18.9 46.5 C 18.6 46.2 18.3 46.7 17.9 46.5 C 17.4 46.3 17.3 46.0 17.5 46.0 C 17.6 46.0 17.6 45.8 17.5 45.7 C 17.4 45.6 16.9 45.2 16.7 45.2 C 16.5 45.2 17.5 46.3 15.9 45.3 C 15.1 44.8 14.9 44.0 15.1 44.1 C 15.7 44.4 14.9 42.9 14.8 43.1 C 14.6 43.4 13.3 42.5 13.4 43.1 C 13.4 43.3 11.9 42.6 11.8 42.4 C 11.6 42.3 10.9 42.0 11.0 41.5 C 11.0 41.2 9.9 41.3 9.7 41.2 C 9.6 41.1 8.5 40.4 8.4 40.1 C 8.2 39.9 8.7 40.2 9.0 40.3 C 9.2 40.5 9.4 40.9 9.7 41.0 C 9.9 41.0 9.6 40.6 9.3 40.4 C 9.1 40.2 9.1 39.9 9.0 39.7 C 8.8 39.7 8.7 39.6 8.5 39.4 C 8.3 39.4 8.2 39.4 8.2 39.4 C 8.1 39.6 8.2 39.8 8.1 39.8 C 8.1 39.9 7.8 39.9 7.5 39.7 C 7.1 39.4 6.9 39.3 6.5 38.9 C 6.2 38.5 6.0 38.5 5.7 38.4 C 5.3 38.2 5.1 38.0 5.1 37.9 C 5.2 37.8 5.6 38.0 5.7 37.9 C 5.8 37.9 5.5 37.4 5.3 37.3 C 4.6 36.7 5.6 36.4 4.9 35.8 C 4.4 35.5 5.1 35.5 5.5 35.4 C 5.5 35.3 5.5 35.2 5.8 34.9 C 5.7 34.8 6.3 34.6 6.6 34.4 C 6.7 34.3 7.6 33.5 7.2 34.2 C 7.1 34.2 7.1 34.3 7.0 34.3 C 7.1 34.3 7.1 34.3 7.1 34.3 C 7.1 34.3 7.0 34.9 7.0 34.9 C 7.0 34.9 7.1 34.3 7.1 34.3 C 7.3 34.4 7.5 34.5 7.6 34.6 C 7.7 34.5 7.7 34.4 7.7 34.3 C 7.7 34.3 7.7 34.3 7.8 34.3 C 7.8 34.3 7.7 34.3 7.7 34.3 C 7.6 34.1 7.7 34.1 7.8 34.1 C 8.1 33.6 9.1 33.4 9.5 33.4 C 9.1 34.8 10.7 33.8 11.2 33.4 C 11.7 32.9 11.0 31.9 10.7 32.0 C 11.1 31.8 11.3 31.9 11.6 32.1 C 11.5 32.1 12.4 32.5 12.3 32.5 C 13.5 32.3 12.7 31.5 12.9 31.3 C 13.1 31.0 13.4 30.9 13.6 30.6 C 13.8 30.4 13.5 30.4 13.5 30.2 C 13.6 29.6 14.7 30.0 15.0 29.9 C 14.8 30.1 14.6 30.3 14.4 30.6 C 14.6 30.2 15.1 30.6 15.3 30.6 C 15.6 30.5 16.0 30.2 16.2 30.0 C 16.7 29.7 17.2 29.3 17.6 28.9 C 17.4 28.9 16.3 28.8 16.3 28.8 C 16.4 28.7 17.0 28.6 16.6 28.3 C 15.9 27.8 17.4 27.4 17.6 27.3 C 18.3 26.9 18.6 25.9 19.7 26.2 C 19.7 26.2 18.8 27.0 18.9 27.1 C 19.5 27.5 20.0 27.7 20.6 27.1 C 20.7 27.0 21.4 26.0 21.4 25.9 C 21.4 26.0 19.6 25.2 20.7 25.2 C 20.9 25.2 20.7 25.6 21.0 25.6 C 21.4 25.5 21.8 25.2 22.1 25.0 C 22.2 25.0 22.8 24.8 22.8 24.8 C 22.8 24.6 22.7 24.3 22.8 24.0 C 22.9 23.8 23.3 23.8 23.4 24.0 C 23.4 24.1 23.4 24.1 23.4 24.1 C 23.5 24.1 23.6 24.1 23.7 24.3 C 23.7 24.2 23.9 24.1 24.0 24.2 C 24.1 24.2 23.9 24.4 23.7 24.4 C 23.7 24.4 23.8 24.5 23.8 24.6 C 24.1 24.4 24.3 24.2 24.3 24.1 C 24.6 23.6 24.5 23.4 25.5 23.5 C 26.2 23.6 26.7 25.5 26.5 26.6 C 26.6 26.9 26.5 27.1 26.4 27.5 Z M 8.1 38.8 C 8.1 38.8 8.1 38.8 8.2 38.9 C 8.2 38.8 8.3 38.7 8.3 38.5 C 8.1 38.3 8.3 38.8 8.1 38.6 C 7.8 38.4 7.8 38.5 8.1 38.8 Z M 8.3 36.2 C 8.1 36.2 8.1 36.3 8.2 36.4 C 8.2 36.3 8.3 36.3 8.3 36.2 Z M 7.8 35.1 C 7.5 35.4 8.2 35.5 8.7 35.1 C 8.2 35.0 7.9 35.0 7.8 35.1 Z M 8.3 34.2 C 8.3 34.3 8.3 34.3 8.3 34.4 C 8.3 34.6 8.6 34.2 8.6 34.3 C 8.7 34.5 8.4 34.8 8.7 34.8 C 8.7 34.8 8.8 34.8 8.9 34.8 C 8.9 34.7 8.9 34.7 8.9 34.6 C 9.0 34.4 8.5 34.1 8.3 34.2 Z M 10.0 38.9 C 9.8 38.9 9.9 39.0 10.0 39.1 C 10.2 39.1 10.2 39.0 10.0 38.9 Z M 11.3 41.0 C 11.2 40.8 11.0 40.7 11.1 41.0 C 11.2 41.2 11.4 41.2 11.3 41.0 Z M 14.2 38.0 C 14.0 38.0 14.1 38.0 14.2 38.1 C 14.4 38.2 14.3 37.9 14.2 38.0 Z M 14.3 35.9 C 14.4 35.7 14.2 35.5 14.1 35.7 C 14.1 35.8 14.2 36.0 14.3 35.9 Z M 14.0 40.7 C 14.2 40.8 14.2 40.6 14.0 40.6 C 13.9 40.6 13.9 40.7 14.0 40.7 Z M 13.6 37.8 C 13.7 38.1 13.8 38.0 13.9 37.9 C 14.0 37.9 13.9 37.7 13.7 37.6 C 13.5 37.5 13.4 37.6 13.6 37.8 Z M 13.4 36.0 C 14.0 35.8 13.8 35.5 13.3 36.0 C 12.7 36.4 13.1 36.2 13.4 36.0 Z M 12.5 42.4 C 12.4 42.4 12.1 42.3 12.1 42.3 C 12.1 42.3 12.7 42.8 12.5 42.4 Z M 13.6 31.2 C 13.4 31.3 13.4 31.5 13.7 31.4 C 14.0 31.3 13.8 31.1 13.6 31.2 Z M 14.7 32.1 C 14.2 31.8 13.9 31.9 13.8 31.8 C 13.9 31.9 14.0 32.3 13.9 32.4 C 13.6 32.7 13.0 32.6 12.8 33.0 C 12.6 33.5 13.4 33.1 13.5 33.0 C 13.4 33.1 13.4 33.2 13.4 33.3 C 13.6 33.4 13.7 33.4 13.8 33.2 C 13.9 33.0 15.1 32.4 14.7 32.1 Z M 14.6 37.2 C 14.4 37.1 14.2 37.2 14.4 37.5 C 14.5 37.7 14.7 37.8 14.8 37.7 C 14.9 37.7 14.8 37.3 14.6 37.2 Z M 14.8 38.8 C 14.6 38.8 14.7 38.9 14.9 39.0 C 15.2 39.1 15.0 38.7 14.8 38.8 Z M 17.8 45.5 C 17.9 45.5 17.6 45.3 17.6 45.4 C 17.5 45.5 17.6 45.6 17.8 45.5 Z M 17.7 42.9 C 18.1 43.0 17.8 42.6 17.7 42.6 C 17.6 42.6 17.4 42.8 17.7 42.9 Z M 16.1 41.3 C 16.3 41.4 16.1 41.1 16.0 41.1 C 15.9 41.2 16.0 41.2 16.1 41.3 Z M 15.9 40.3 C 16.1 40.3 16.1 40.0 15.8 40.0 C 15.7 40.0 15.8 40.2 15.9 40.3 Z M 16.7 31.6 C 16.7 31.6 16.8 32.0 17.0 31.7 C 17.2 31.4 17.2 31.4 16.7 31.6 Z M 16.0 34.7 C 15.7 34.9 15.5 35.1 15.8 36.0 C 16.1 36.9 16.2 36.5 16.4 36.0 C 16.5 35.5 16.9 36.9 17.1 35.9 C 17.2 35.5 16.2 34.5 16.0 34.7 Z M 17.5 40.2 C 17.2 39.6 16.4 39.8 16.8 40.1 C 17.3 40.5 17.7 40.6 17.5 40.2 Z M 17.5 40.5 C 17.4 40.5 17.4 40.6 17.6 40.7 C 17.8 40.8 17.7 40.6 17.5 40.5 Z M 17.1 27.9 C 16.3 28.6 17.6 28.6 17.6 28.6 C 18.8 28.3 17.9 27.1 17.1 27.9 Z M 25.7 46.2 C 25.7 46.1 25.7 46.1 25.7 46.1 C 25.7 46.0 25.7 46.0 25.7 46.0 C 25.6 45.9 25.4 46.2 25.4 46.2 C 25.5 46.3 25.7 46.2 25.7 46.2 Z M 26.0 40.7 C 25.9 40.9 26.0 41.1 26.1 41.2 C 26.6 41.1 26.6 39.4 25.8 40.1 C 25.6 40.2 24.9 41.2 25.3 41.4 C 25.6 41.4 26.0 40.1 26.0 40.7 Z M 25.3 42.4 C 25.3 41.7 24.6 42.9 25.0 42.8 C 25.2 42.7 25.3 42.6 25.3 42.4 Z M 23.8 47.3 C 24.1 48.1 25.4 48.0 24.7 46.6 C 24.1 45.2 23.5 45.2 23.7 45.9 C 23.9 46.5 23.2 46.0 23.8 47.3 Z M 23.8 40.1 C 24.7 40.3 24.5 39.9 23.8 39.6 C 23.6 39.6 23.2 40.0 23.8 40.1 Z M 23.6 38.1 C 23.7 37.9 23.7 37.9 23.5 38.0 C 23.3 38.2 23.5 38.4 23.6 38.1 Z M 22.4 48.7 C 22.6 49.0 23.0 49.3 22.7 49.3 C 22.5 49.3 22.6 49.3 22.8 49.5 C 23.0 49.8 23.0 49.3 23.0 49.1 C 22.9 48.9 22.3 48.4 22.4 48.7 Z M 19.3 41.0 C 19.4 41.1 19.3 40.9 19.2 40.9 C 19.1 40.9 19.1 40.9 19.3 41.0 Z M 18.3 33.5 C 18.3 33.5 18.3 33.7 18.4 33.5 C 18.6 33.3 18.6 33.3 18.3 33.5 Z M 18.6 27.4 C 18.4 27.5 18.9 27.6 18.8 27.9 C 18.8 28.0 18.6 27.8 18.6 27.8 C 18.6 27.9 18.7 28.6 19.0 28.1 C 19.1 27.9 19.0 27.0 18.6 27.4 Z M 19.5 38.9 C 19.2 38.6 19.0 39.9 18.7 39.7 C 18.5 39.5 18.5 39.6 18.8 39.9 C 19.0 40.2 19.8 39.3 19.5 38.9 Z M 19.7 42.2 C 19.7 42.0 19.1 41.4 19.2 41.7 C 19.4 42.1 19.7 42.3 19.5 42.3 C 19.3 42.3 19.4 42.4 19.5 42.6 C 19.7 42.8 19.7 42.4 19.7 42.2 Z M 19.9 47.5 C 19.9 47.4 19.5 47.2 19.7 47.5 C 19.7 47.6 20.0 47.6 19.9 47.5 Z M 20.3 32.6 C 20.2 32.8 20.2 32.9 20.5 32.7 C 20.7 32.4 20.4 32.3 20.3 32.6 Z M 20.9 47.0 C 20.6 46.7 20.8 47.3 20.5 47.0 C 20.3 46.8 20.3 47.0 20.6 47.2 C 20.8 47.5 21.1 47.4 20.9 47.0 Z M 21.1 27.7 C 21.1 27.8 21.2 28.0 21.3 27.9 C 21.4 27.7 21.2 27.6 21.1 27.7 Z M 21.9 29.7 C 21.8 29.7 21.7 29.8 21.6 29.8 C 20.3 30.7 22.7 30.0 21.9 29.7 Z M 21.7 32.8 C 21.6 32.4 21.4 32.9 21.4 32.9 C 21.6 33.0 21.7 32.9 21.7 32.8 Z M 21.7 36.2 C 21.9 36.3 21.8 35.9 21.7 36.0 C 21.5 36.0 21.6 36.1 21.7 36.2 Z M 22.3 25.2 C 22.1 25.3 22.2 25.4 22.3 25.4 C 22.5 25.3 22.5 25.2 22.3 25.2 Z M 22.5 33.7 C 22.4 33.6 22.3 33.6 22.4 33.8 C 22.4 34.0 22.5 33.7 22.5 33.7 Z M 22.5 44.0 C 22.4 43.9 22.3 43.9 22.3 43.8 C 22.1 43.9 22.0 44.5 21.8 44.5 C 21.8 44.5 21.8 44.5 21.7 44.5 C 21.7 44.5 21.7 44.5 21.7 44.5 C 21.6 44.5 21.5 44.4 21.6 44.4 C 21.5 44.3 21.5 44.2 21.5 44.0 C 21.3 44.2 21.2 44.5 21.3 44.6 C 21.5 44.8 21.9 44.9 22.3 44.9 C 22.4 44.7 22.5 44.6 22.5 44.4 C 22.5 44.4 22.5 44.4 22.4 44.4 C 22.2 44.3 22.1 44.1 22.3 44.1 C 22.4 44.1 22.5 44.2 22.5 44.3 C 22.5 44.2 22.5 44.1 22.5 44.0 Z M 22.9 35.0 C 22.8 34.7 22.7 34.9 22.6 35.2 C 22.6 35.5 23.1 35.2 22.9 35.0 Z M 22.7 25.6 C 22.7 25.7 22.7 25.8 22.8 25.9 C 22.8 25.8 22.8 25.8 22.8 25.7 C 22.9 25.5 22.9 25.3 23.0 25.2 C 22.7 25.2 22.6 25.3 22.7 25.6 Z M 23.6 28.6 C 23.6 28.5 23.7 27.2 23.4 27.5 C 23.0 27.8 22.5 27.3 22.7 28.2 C 22.8 28.6 23.4 29.0 23.5 29.4 C 24.0 31.6 24.1 28.8 24.2 28.2 C 24.2 28.1 23.7 28.7 23.6 28.6 Z M 24.3 31.4 C 24.5 31.5 24.7 31.2 24.7 31.1 C 24.7 30.5 24.1 31.3 24.3 31.4 Z M 24.6 25.3 C 24.6 25.3 24.6 25.3 24.5 25.3 C 24.5 25.4 24.6 25.4 24.6 25.4 C 24.6 25.4 24.6 25.4 24.6 25.3 Z M 24.9 23.8 C 24.2 24.3 25.4 24.3 25.7 24.2 C 26.1 24.0 25.2 23.5 24.9 23.8 Z M 25.3 29.8 C 25.3 30.2 26.6 30.7 26.5 30.0 C 26.5 29.3 25.4 28.8 25.3 29.8 Z M 26.9 34.4 C 26.8 34.2 27.0 33.7 27.2 34.0 C 27.3 34.1 27.0 34.4 26.9 34.4 Z M 27.6 27.6 C 27.6 27.7 27.5 27.6 27.5 27.6 C 27.7 27.5 27.7 27.5 27.6 27.6 Z M 26.7 28.2 C 26.8 28.0 26.9 27.7 26.9 27.6 C 27.0 27.4 27.1 27.9 27.1 27.9 C 27.1 28.1 26.7 28.2 26.7 28.2 Z M 26.6 31.8 C 26.7 31.6 26.8 32.0 26.7 32.1 C 26.7 32.2 26.5 32.0 26.6 31.8 Z M 26.9 31.0 C 26.9 31.1 26.7 31.0 26.7 30.8 C 26.8 30.6 26.9 30.8 26.9 31.0 Z M 26.2 32.5 C 26.1 32.1 26.0 31.6 26.3 31.6 C 26.5 31.6 26.4 33.2 26.2 32.5 Z M 26.2 32.5 " fill="#DE6A10"></path></g></g><g><clipPath id="clip0x7fd40e284db0"><path d="M 237.8 -10.6 L 624.5 -10.6 L 624.5 83.8 L 237.8 83.8 Z M 237.8 -10.6 "></path></clipPath><g clip-path="url(#clip0x7fd40e284db0)"><text xml:space="preserve" font-family="SourceSansPro-Regular,Source Sans Pro" font-size="50.0" fill="#DE6A10" transform="matrix(1.00, 0.00, -0.00, -1.00, 254.1, 18.8)">D</text><text xml:space="preserve" font-family="SourceSansPro-Regular,Source Sans Pro" font-size="50.0" fill="#DE6A10" transform="matrix(1.00, 0.00, -0.00, -1.00, 284.8, 18.8)">e</text><text xml:space="preserve" font-family="SourceSansPro-Regular,Source Sans Pro" font-size="50.0" fill="#DE6A10" transform="matrix(1.00, 0.00, -0.00, -1.00, 309.6, 18.8)">f</text><text xml:space="preserve" font-family="SourceSansPro-Regular,Source Sans Pro" font-size="50.0" fill="#DE6A10" transform="matrix(1.00, 0.00, -0.00, -1.00, 324.2, 18.8)">i</text><text xml:space="preserve" font-family="SourceSansPro-Regular,Source Sans Pro" font-size="50.0" fill="#DE6A10" transform="matrix(1.00, 0.00, -0.00, -1.00, 336.5, 18.8)">n</text><text xml:space="preserve" font-family="SourceSansPro-Regular,Source Sans Pro" font-size="50.0" fill="#DE6A10" transform="matrix(1.00, 0.00, -0.00, -1.00, 363.9, 18.8)">e</text><text xml:space="preserve" font-family="SourceSansPro-Regular,Source Sans Pro" font-size="50.0" fill="#DE6A10" transform="matrix(1.00, 0.00, -0.00, -1.00, 388.7, 18.8)"> </text><text xml:space="preserve" font-family="SourceSansPro-Regular,Source Sans Pro" font-size="50.0" fill="#DE6A10" transform="matrix(1.00, 0.00, -0.00, -1.00, 398.8, 18.8)">y</text><text xml:space="preserve" font-family="SourceSansPro-Regular,Source Sans Pro" font-size="50.0" fill="#DE6A10" transform="matrix(1.00, 0.00, -0.00, -1.00, 421.9, 18.8)">o</text><text xml:space="preserve" font-family="SourceSansPro-Regular,Source Sans Pro" font-size="50.0" fill="#DE6A10" transform="matrix(1.00, 0.00, -0.00, -1.00, 449.0, 18.8)">u</text><text xml:space="preserve" font-family="SourceSansPro-Regular,Source Sans Pro" font-size="50.0" fill="#DE6A10" transform="matrix(1.00, 0.00, -0.00, -1.00, 476.2, 18.8)">r</text><text xml:space="preserve" font-family="SourceSansPro-Regular,Source Sans Pro" font-size="50.0" fill="#DE6A10" transform="matrix(1.00, 0.00, -0.00, -1.00, 493.6, 18.8)"> </text><text xml:space="preserve" font-family="SourceSansPro-Regular,Source Sans Pro" font-size="50.0" fill="#DE6A10" transform="matrix(1.00, 0.00, -0.00, -1.00, 503.7, 18.8)">o</text><text xml:space="preserve" font-family="SourceSansPro-Regular,Source Sans Pro" font-size="50.0" fill="#DE6A10" transform="matrix(1.00, 0.00, -0.00, -1.00, 530.6, 18.8)">w</text><text xml:space="preserve" font-family="SourceSansPro-Regular,Source Sans Pro" font-size="50.0" fill="#DE6A10" transform="matrix(1.00, 0.00, -0.00, -1.00, 566.5, 18.8)">n</text><text xml:space="preserve" font-family="SourceSansPro-Regular,Source Sans Pro" font-size="50.0" fill="#DE6A10" transform="matrix(1.00, 0.00, -0.00, -1.00, 593.8, 18.8)">!</text></g></g></g></svg>