<?xml version="1.0" encoding="UTF-8" standalone="no"?><svg xmlns="http://www.w3.org/2000/svg" xmlns:xlink="http://www.w3.org/1999/xlink" clip-rule="evenodd" stroke-miterlimit="10" viewBox="0 0 391 650"><desc>SVG generated by Keynote</desc><defs></defs><g transform="matrix(1.00, 0.00, -0.00, -1.00, 0.0, 650.0)"><text xml:space="preserve" font-family="SourceSansPro-Regular,Source Sans Pro" font-size="33.8" fill="#000000" transform="matrix(1.00, 0.00, -0.00, -1.00, 0.2, 616.0)">•</text><text xml:space="preserve" font-family="SourceSansPro-Regular,Source Sans Pro" font-size="45.0" fill="#000000" transform="matrix(1.00, 0.00, -0.00, -1.00, 44.2, 612.0)">H</text><text xml:space="preserve" font-family="SourceSansPro-Regular,Source Sans Pro" font-size="45.0" fill="#000000" transform="matrix(1.00, 0.00, -0.00, -1.00, 73.5, 612.0)">E</text><text xml:space="preserve" font-family="SourceSansPro-Regular,Source Sans Pro" font-size="45.0" fill="#000000" transform="matrix(1.00, 0.00, -0.00, -1.00, 97.2, 612.0)">A</text><text xml:space="preserve" font-family="SourceSansPro-Regular,Source Sans Pro" font-size="45.0" fill="#000000" transform="matrix(1.00, 0.00, -0.00, -1.00, 121.7, 612.0)">D</text><text xml:space="preserve" font-family="SourceSansPro-Regular,Source Sans Pro" font-size="45.0" fill="#000000" transform="matrix(1.00, 0.00, -0.00, -1.00, 149.4, 612.0)">E</text><text xml:space="preserve" font-family="SourceSansPro-Regular,Source Sans Pro" font-size="45.0" fill="#000000" transform="matrix(1.00, 0.00, -0.00, -1.00, 173.1, 612.0)">R</text><text xml:space="preserve" font-family="SourceSansPro-Regular,Source Sans Pro" font-size="45.0" fill="#000000" transform="matrix(1.00, 0.00, -0.00, -1.00, 198.6, 612.0)">S</text><text xml:space="preserve" font-family="SourceSansPro-Regular,Source Sans Pro" font-size="45.0" fill="#000000" transform="matrix(1.00, 0.00, -0.00, -1.00, 222.6, 612.0)"> </text><text xml:space="preserve" font-family="SourceSansPro-Regular,Source Sans Pro" font-size="33.8" fill="#000000" transform="matrix(1.00, 0.00, -0.00, -1.00, 0.2, 515.0)">•</text><text xml:space="preserve" font-family="SourceSansPro-Regular,Source Sans Pro" font-size="45.0" fill="#000000" transform="matrix(1.00, 0.00, -0.00, -1.00, 44.2, 511.0)">P</text><text xml:space="preserve" font-family="SourceSansPro-Regular,Source Sans Pro" font-size="45.0" fill="#000000" transform="matrix(1.00, 0.00, -0.00, -1.00, 70.1, 511.0)">U</text><text xml:space="preserve" font-family="SourceSansPro-Regular,Source Sans Pro" font-size="45.0" fill="#000000" transform="matrix(1.00, 0.00, -0.00, -1.00, 98.7, 511.0)">S</text><text xml:space="preserve" font-family="SourceSansPro-Regular,Source Sans Pro" font-size="45.0" fill="#000000" transform="matrix(1.00, 0.00, -0.00, -1.00, 122.7, 511.0)">H</text><text xml:space="preserve" font-family="SourceSansPro-Regular,Source Sans Pro" font-size="45.0" fill="#000000" transform="matrix(1.00, 0.00, -0.00, -1.00, 152.0, 511.0)">_</text><text xml:space="preserve" font-family="SourceSansPro-Regular,Source Sans Pro" font-size="45.0" fill="#000000" transform="matrix(1.00, 0.00, -0.00, -1.00, 174.5, 511.0)">P</text><text xml:space="preserve" font-family="SourceSansPro-Regular,Source Sans Pro" font-size="45.0" fill="#000000" transform="matrix(1.00, 0.00, -0.00, -1.00, 200.5, 511.0)">R</text><text xml:space="preserve" font-family="SourceSansPro-Regular,Source Sans Pro" font-size="45.0" fill="#000000" transform="matrix(1.00, 0.00, -0.00, -1.00, 226.6, 511.0)">O</text><text xml:space="preserve" font-family="SourceSansPro-Regular,Source Sans Pro" font-size="45.0" fill="#000000" transform="matrix(1.00, 0.00, -0.00, -1.00, 256.5, 511.0)">M</text><text xml:space="preserve" font-family="SourceSansPro-Regular,Source Sans Pro" font-size="45.0" fill="#000000" transform="matrix(1.00, 0.00, -0.00, -1.00, 289.2, 511.0)">I</text><text xml:space="preserve" font-family="SourceSansPro-Regular,Source Sans Pro" font-size="45.0" fill="#000000" transform="matrix(1.00, 0.00, -0.00, -1.00, 301.0, 511.0)">S</text><text xml:space="preserve" font-family="SourceSansPro-Regular,Source Sans Pro" font-size="45.0" fill="#000000" transform="matrix(1.00, 0.00, -0.00, -1.00, 325.1, 511.0)">E</text><text xml:space="preserve" font-family="SourceSansPro-Regular,Source Sans Pro" font-size="45.0" fill="#000000" transform="matrix(1.00, 0.00, -0.00, -1.00, 348.8, 511.0)"> </text><text xml:space="preserve" font-family="SourceSansPro-Regular,Source Sans Pro" font-size="33.8" fill="#000000" transform="matrix(1.00, 0.00, -0.00, -1.00, 0.2, 414.0)">•</text><text xml:space="preserve" font-family="SourceSansPro-Regular,Source Sans Pro" font-size="45.0" fill="#000000" transform="matrix(1.00, 0.00, -0.00, -1.00, 44.2, 410.0)">C</text><text xml:space="preserve" font-family="SourceSansPro-Regular,Source Sans Pro" font-size="45.0" fill="#000000" transform="matrix(1.00, 0.00, -0.00, -1.00, 68.6, 410.0)">O</text><text xml:space="preserve" font-family="SourceSansPro-Regular,Source Sans Pro" font-size="45.0" fill="#000000" transform="matrix(1.00, 0.00, -0.00, -1.00, 98.4, 410.0)">N</text><text xml:space="preserve" font-family="SourceSansPro-Regular,Source Sans Pro" font-size="45.0" fill="#000000" transform="matrix(1.00, 0.00, -0.00, -1.00, 127.6, 410.0)">T</text><text xml:space="preserve" font-family="SourceSansPro-Regular,Source Sans Pro" font-size="45.0" fill="#000000" transform="matrix(1.00, 0.00, -0.00, -1.00, 151.7, 410.0)">I</text><text xml:space="preserve" font-family="SourceSansPro-Regular,Source Sans Pro" font-size="45.0" fill="#000000" transform="matrix(1.00, 0.00, -0.00, -1.00, 163.5, 410.0)">N</text><text xml:space="preserve" font-family="SourceSansPro-Regular,Source Sans Pro" font-size="45.0" fill="#000000" transform="matrix(1.00, 0.00, -0.00, -1.00, 192.6, 410.0)">U</text><text xml:space="preserve" font-family="SourceSansPro-Regular,Source Sans Pro" font-size="45.0" fill="#000000" transform="matrix(1.00, 0.00, -0.00, -1.00, 220.8, 410.0)">A</text><text xml:space="preserve" font-family="SourceSansPro-Regular,Source Sans Pro" font-size="45.0" fill="#000000" transform="matrix(1.00, 0.00, -0.00, -1.00, 243.5, 410.0)">T</text><text xml:space="preserve" font-family="SourceSansPro-Regular,Source Sans Pro" font-size="45.0" fill="#000000" transform="matrix(1.00, 0.00, -0.00, -1.00, 267.6, 410.0)">I</text><text xml:space="preserve" font-family="SourceSansPro-Regular,Source Sans Pro" font-size="45.0" fill="#000000" transform="matrix(1.00, 0.00, -0.00, -1.00, 279.5, 410.0)">O</text><text xml:space="preserve" font-family="SourceSansPro-Regular,Source Sans Pro" font-size="45.0" fill="#000000" transform="matrix(1.00, 0.00, -0.00, -1.00, 309.4, 410.0)">N</text><text xml:space="preserve" font-family="SourceSansPro-Regular,Source Sans Pro" font-size="45.0" fill="#000000" transform="matrix(1.00, 0.00, -0.00, -1.00, 338.5, 410.0)"> </text><text xml:space="preserve" font-family="SourceSansPro-Regular,Source Sans Pro" font-size="33.8" fill="#000000" transform="matrix(1.00, 0.00, -0.00, -1.00, 0.2, 313.0)">•</text><text xml:space="preserve" font-family="SourceSansPro-Regular,Source Sans Pro" font-size="45.0" fill="#000000" transform="matrix(1.00, 0.00, -0.00, -1.00, 44.2, 309.0)">D</text><text xml:space="preserve" font-family="SourceSansPro-Regular,Source Sans Pro" font-size="45.0" fill="#000000" transform="matrix(1.00, 0.00, -0.00, -1.00, 71.4, 309.0)">A</text><text xml:space="preserve" font-family="SourceSansPro-Regular,Source Sans Pro" font-size="45.0" fill="#000000" transform="matrix(1.00, 0.00, -0.00, -1.00, 94.1, 309.0)">T</text><text xml:space="preserve" font-family="SourceSansPro-Regular,Source Sans Pro" font-size="45.0" fill="#000000" transform="matrix(1.00, 0.00, -0.00, -1.00, 116.4, 309.0)">A</text><text xml:space="preserve" font-family="SourceSansPro-Regular,Source Sans Pro" font-size="45.0" fill="#DE6A10" transform="matrix(1.00, 0.00, -0.00, -1.00, 136.6, 309.0)">*</text><text xml:space="preserve" font-family="SourceSansPro-Regular,Source Sans Pro" font-size="45.0" fill="#000000" transform="matrix(1.00, 0.00, -0.00, -1.00, 155.5, 309.0)"> </text><text xml:space="preserve" font-family="SourceSansPro-Regular,Source Sans Pro" font-size="33.8" fill="#000000" transform="matrix(1.00, 0.00, -0.00, -1.00, 0.2, 212.0)">•</text><text xml:space="preserve" font-family="SourceSansPro-Regular,Source Sans Pro" font-size="45.0" fill="#000000" transform="matrix(1.00, 0.00, -0.00, -1.00, 44.2, 208.0)">R</text><text xml:space="preserve" font-family="SourceSansPro-Regular,Source Sans Pro" font-size="45.0" fill="#000000" transform="matrix(1.00, 0.00, -0.00, -1.00, 69.7, 208.0)">S</text><text xml:space="preserve" font-family="SourceSansPro-Regular,Source Sans Pro" font-size="45.0" fill="#000000" transform="matrix(1.00, 0.00, -0.00, -1.00, 92.8, 208.0)">T</text><text xml:space="preserve" font-family="SourceSansPro-Regular,Source Sans Pro" font-size="45.0" fill="#000000" transform="matrix(1.00, 0.00, -0.00, -1.00, 116.9, 208.0)">_</text><text xml:space="preserve" font-family="SourceSansPro-Regular,Source Sans Pro" font-size="45.0" fill="#000000" transform="matrix(1.00, 0.00, -0.00, -1.00, 139.4, 208.0)">S</text><text xml:space="preserve" font-family="SourceSansPro-Regular,Source Sans Pro" font-size="45.0" fill="#000000" transform="matrix(1.00, 0.00, -0.00, -1.00, 162.6, 208.0)">T</text><text xml:space="preserve" font-family="SourceSansPro-Regular,Source Sans Pro" font-size="45.0" fill="#000000" transform="matrix(1.00, 0.00, -0.00, -1.00, 186.7, 208.0)">R</text><text xml:space="preserve" font-family="SourceSansPro-Regular,Source Sans Pro" font-size="45.0" fill="#000000" transform="matrix(1.00, 0.00, -0.00, -1.00, 212.8, 208.0)">E</text><text xml:space="preserve" font-family="SourceSansPro-Regular,Source Sans Pro" font-size="45.0" fill="#000000" transform="matrix(1.00, 0.00, -0.00, -1.00, 236.5, 208.0)">A</text><text xml:space="preserve" font-family="SourceSansPro-Regular,Source Sans Pro" font-size="45.0" fill="#000000" transform="matrix(1.00, 0.00, -0.00, -1.00, 261.0, 208.0)">M</text><text xml:space="preserve" font-family="SourceSansPro-Regular,Source Sans Pro" font-size="45.0" fill="#000000" transform="matrix(1.00, 0.00, -0.00, -1.00, 293.7, 208.0)"> </text><text xml:space="preserve" font-family="SourceSansPro-Regular,Source Sans Pro" font-size="33.8" fill="#000000" transform="matrix(1.00, 0.00, -0.00, -1.00, 0.2, 111.0)">•</text><text xml:space="preserve" font-family="SourceSansPro-Regular,Source Sans Pro" font-size="45.0" fill="#000000" transform="matrix(1.00, 0.00, -0.00, -1.00, 44.2, 107.0)">W</text><text xml:space="preserve" font-family="SourceSansPro-Regular,Source Sans Pro" font-size="45.0" fill="#000000" transform="matrix(1.00, 0.00, -0.00, -1.00, 79.5, 107.0)">I</text><text xml:space="preserve" font-family="SourceSansPro-Regular,Source Sans Pro" font-size="45.0" fill="#000000" transform="matrix(1.00, 0.00, -0.00, -1.00, 91.4, 107.0)">N</text><text xml:space="preserve" font-family="SourceSansPro-Regular,Source Sans Pro" font-size="45.0" fill="#000000" transform="matrix(1.00, 0.00, -0.00, -1.00, 120.5, 107.0)">D</text><text xml:space="preserve" font-family="SourceSansPro-Regular,Source Sans Pro" font-size="45.0" fill="#000000" transform="matrix(1.00, 0.00, -0.00, -1.00, 148.2, 107.0)">O</text><text xml:space="preserve" font-family="SourceSansPro-Regular,Source Sans Pro" font-size="45.0" fill="#000000" transform="matrix(1.00, 0.00, -0.00, -1.00, 177.8, 107.0)">W</text><text xml:space="preserve" font-family="SourceSansPro-Regular,Source Sans Pro" font-size="45.0" fill="#000000" transform="matrix(1.00, 0.00, -0.00, -1.00, 213.1, 107.0)">_</text><text xml:space="preserve" font-family="SourceSansPro-Regular,Source Sans Pro" font-size="45.0" fill="#000000" transform="matrix(1.00, 0.00, -0.00, -1.00, 235.6, 107.0)">U</text><text xml:space="preserve" font-family="SourceSansPro-Regular,Source Sans Pro" font-size="45.0" fill="#000000" transform="matrix(1.00, 0.00, -0.00, -1.00, 264.7, 107.0)">P</text><text xml:space="preserve" font-family="SourceSansPro-Regular,Source Sans Pro" font-size="45.0" fill="#000000" transform="matrix(1.00, 0.00, -0.00, -1.00, 290.6, 107.0)">D</text><text xml:space="preserve" font-family="SourceSansPro-Regular,Source Sans Pro" font-size="45.0" fill="#000000" transform="matrix(1.00, 0.00, -0.00, -1.00, 317.8, 107.0)">A</text><text xml:space="preserve" font-family="SourceSansPro-Regular,Source Sans Pro" font-size="45.0" fill="#000000" transform="matrix(1.00, 0.00, -0.00, -1.00, 340.5, 107.0)">T</text><text xml:space="preserve" font-family="SourceSansPro-Regular,Source Sans Pro" font-size="45.0" fill="#000000" transform="matrix(1.00, 0.00, -0.00, -1.00, 364.6, 107.0)">E</text><text xml:space="preserve" font-family="SourceSansPro-Regular,Source Sans Pro" font-size="45.0" fill="#000000" transform="matrix(1.00, 0.00, -0.00, -1.00, 388.3, 107.0)"> </text><text xml:space="preserve" font-family="SourceSansPro-Regular,Source Sans Pro" font-size="33.8" fill="#000000" transform="matrix(1.00, 0.00, -0.00, -1.00, 0.2, 10.0)">•</text><text xml:space="preserve" font-family="SourceSansPro-Regular,Source Sans Pro" font-size="45.0" fill="#000000" transform="matrix(1.00, 0.00, -0.00, -1.00, 44.2, 6.0)">P</text><text xml:space="preserve" font-family="SourceSansPro-Regular,Source Sans Pro" font-size="45.0" fill="#000000" transform="matrix(1.00, 0.00, -0.00, -1.00, 70.1, 6.0)">R</text><text xml:space="preserve" font-family="SourceSansPro-Regular,Source Sans Pro" font-size="45.0" fill="#000000" transform="matrix(1.00, 0.00, -0.00, -1.00, 96.2, 6.0)">I</text><text xml:space="preserve" font-family="SourceSansPro-Regular,Source Sans Pro" font-size="45.0" fill="#000000" transform="matrix(1.00, 0.00, -0.00, -1.00, 108.1, 6.0)">O</text><text xml:space="preserve" font-family="SourceSansPro-Regular,Source Sans Pro" font-size="45.0" fill="#000000" transform="matrix(1.00, 0.00, -0.00, -1.00, 137.9, 6.0)">R</text><text xml:space="preserve" font-family="SourceSansPro-Regular,Source Sans Pro" font-size="45.0" fill="#000000" transform="matrix(1.00, 0.00, -0.00, -1.00, 164.1, 6.0)">I</text><text xml:space="preserve" font-family="SourceSansPro-Regular,Source Sans Pro" font-size="45.0" fill="#000000" transform="matrix(1.00, 0.00, -0.00, -1.00, 175.9, 6.0)">T</text><text xml:space="preserve" font-family="SourceSansPro-Regular,Source Sans Pro" font-size="45.0" fill="#000000" transform="matrix(1.00, 0.00, -0.00, -1.00, 199.4, 6.0)">Y</text></g></svg>